<?xml version="1.0" standalone="no"?>
<!DOCTYPE svg PUBLIC "-//W3C//DTD SVG 1.1//EN" "http://www.w3.org/Graphics/SVG/1.1/DTD/svg11.dtd" >
<svg xmlns="http://www.w3.org/2000/svg" xmlns:xlink="http://www.w3.org/1999/xlink" version="1.1">
<metadata>
Created by FontForge 20201107 at Fri May 24 21:06:21 2024
 By 
Copyright 2016 The Inter Project Authors (https://github.com/rsms/inter)
</metadata>
<defs>
<font id="Inter18pt-SemiBold" horiz-adv-x="0" >
  <font-face 
    font-family="Inter 18pt SemiBold"
    font-weight="600"
    font-stretch="normal"
    units-per-em="2048"
    panose-1="2 0 5 3 0 0 0 2 0 4"
    ascent="1638"
    descent="-410"
    x-height="1104"
    cap-height="1490"
    bbox="-1585.02 -678 5284 2280"
    underline-thickness="175"
    underline-position="-380"
    unicode-range="U+0020-1F852"
  />
<missing-glyph horiz-adv-x="1344" 
d="M1016 -416h-688v2272h688v-2272zM512 -192v-64h320v64h-215l215 127v65h-320v-64h216zM512 320v-256h320v256h-320zM768 128h-192v128h192v-128zM512 704v-256h320v256h-192v-128h64v64h64v-128h-192v192h-64zM512 832v-64h320v224h-64v-160h-256zM512 960v-64h192v160
h128v64h-320v-64h128v-96h-128zM640 1248h-64v96h64v-96zM512 1408v-224h320v64h-128v160h-192zM512 1536v-64h320v64h-144v96h144v64h-320v-64h112v-96h-112z" />
    <glyph glyph-name=".notdef" horiz-adv-x="1344" 
d="M1016 -416h-688v2272h688v-2272zM512 -192v-64h320v64h-215l215 127v65h-320v-64h216zM512 320v-256h320v256h-320zM768 128h-192v128h192v-128zM512 704v-256h320v256h-192v-128h64v64h64v-128h-192v192h-64zM512 832v-64h320v224h-64v-160h-256zM512 960v-64h192v160
h128v64h-320v-64h128v-96h-128zM640 1248h-64v96h64v-96zM512 1408v-224h320v64h-128v160h-192zM512 1536v-64h320v64h-144v96h144v64h-320v-64h112v-96h-112z" />
    <glyph glyph-name=".null" horiz-adv-x="1029" 
 />
    <glyph glyph-name="nonmarkingreturn" horiz-adv-x="682" 
 />
    <glyph glyph-name="space" unicode=" " horiz-adv-x="504" 
 />
    <glyph glyph-name="exclam" unicode="!" horiz-adv-x="620" 
d="M189 464l-20 1026h281l-20 -1026h-241zM310 -17q-69 0 -115 44.5t-46 112.5t46 112.5t115 44.5q70 0 115.5 -44.5t45.5 -112.5t-45.5 -112.5t-115.5 -44.5z" />
    <glyph glyph-name="quotedbl" unicode="&#x22;" horiz-adv-x="1038" 
d="M221 901l-27 589h252l-27 -589h-198zM619 901l-27 589h252l-27 -589h-198z" />
    <glyph glyph-name="numbersign" unicode="#" horiz-adv-x="1306" 
d="M691 0l246 1490h200l-244 -1490h-202zM20 386l34 200h1145l-34 -200h-1145zM169 0l244 1490h200l-244 -1490h-200zM107 903l34 201h1143l-32 -201h-1145z" />
    <glyph glyph-name="dollar" unicode="$" horiz-adv-x="1327" 
d="M603 -210v1910h133v-1910h-133zM671 -23q-175 0 -304 55.5t-200.5 161t-76.5 255.5h262q6 -81 47.5 -135.5t112 -82t158.5 -27.5q89 0 156.5 26.5t106 75.5t38.5 113q0 57 -32.5 95t-93 65t-145.5 48l-167 42q-195 48 -300 146t-105 256q0 132 70.5 231t194 154t280.5 55
q161 0 281 -55.5t188 -154.5t71 -229h-257q-10 101 -86.5 157t-199.5 56q-83 0 -144.5 -26t-95 -70.5t-33.5 -102.5q0 -60 36 -99t95 -64t127 -41l142 -36q90 -21 169.5 -55t140.5 -85t95.5 -121t34.5 -164q0 -133 -67.5 -233t-194 -155.5t-304.5 -55.5z" />
    <glyph glyph-name="percent" unicode="%" horiz-adv-x="2012" 
d="M503 790q-101 0 -172.5 44t-108.5 119t-37 165v67q0 92 38 166t109 118.5t171 44.5q103 0 173.5 -44.5t107.5 -118.5t37 -166v-67q0 -91 -37.5 -165.5t-108.5 -118.5t-172 -44zM503 955q69 0 98.5 48.5t29.5 114.5v67q0 66 -28.5 115t-99.5 49q-68 0 -98 -49t-30 -115
v-67q0 -66 30 -114.5t98 -48.5zM1510 -26q-102 0 -173 44t-108.5 118.5t-37.5 165.5v67q0 91 38 165.5t109.5 119t171.5 44.5q102 0 173 -44.5t108 -119t37 -165.5v-67q0 -91 -38 -165.5t-108.5 -118.5t-171.5 -44zM1510 139q68 0 97.5 48t29.5 115v67q0 66 -28.5 115
t-98.5 49q-68 0 -98 -49.5t-30 -114.5v-67q0 -67 29.5 -115t98.5 -48zM391 0l1024 1490h197l-1024 -1490h-197z" />
    <glyph glyph-name="ampersand" unicode="&#x26;" horiz-adv-x="1344" 
d="M573 -21q-151 0 -261 55t-169.5 148.5t-59.5 210.5q0 89 35 157t100.5 127t155.5 123l265 181q31 22 57.5 48.5t42.5 58.5t16 69q0 58 -40.5 98t-111.5 40q-48 0 -84.5 -19.5t-56.5 -54t-20 -80.5q0 -49 23.5 -97t67 -102t102.5 -123l699 -819h-283l-579 665
q-72 85 -131.5 159.5t-95 151.5t-35.5 167q0 105 48.5 187t136.5 129.5t205 47.5q116 0 200.5 -46t130.5 -123t46 -171q0 -68 -24 -127.5t-68.5 -111.5t-105.5 -97l-302 -220q-71 -52 -105 -101t-34 -111q0 -61 30.5 -108t84.5 -73.5t124 -26.5q84 0 163 37t142.5 105
t101 161t37.5 206h224q0 -134 -29.5 -236.5t-78.5 -176t-107 -120.5l-62 -48q-78 -71 -184.5 -105.5t-210.5 -34.5z" />
    <glyph glyph-name="quotesingle" unicode="'" horiz-adv-x="640" 
d="M221 901l-27 589h252l-27 -589h-198z" />
    <glyph glyph-name="parenleft" unicode="(" horiz-adv-x="740" 
d="M173 604q0 166 32.5 345.5t89.5 344t131 284.5h244q-72 -153 -125 -321t-81 -335t-28 -318q0 -135 24.5 -269.5t76.5 -285.5t133 -331h-244q-124 209 -188.5 434.5t-64.5 451.5z" />
    <glyph glyph-name="parenright" unicode=")" horiz-adv-x="740" 
d="M70 -282q83 183 134.5 334t75.5 285.5t24 266.5q0 151 -28 318t-80.5 335t-125.5 321h244q74 -120 131 -284.5t89.5 -344t32.5 -345.5q0 -228 -65 -453.5t-188 -432.5h-244z" />
    <glyph glyph-name="asterisk" unicode="*" horiz-adv-x="1093" 
d="M459 652l17 295l-249 -162l-88 152l265 133l-265 133l88 154l249 -162l-17 295h175l-16 -295l248 162l87 -154l-264 -133l264 -133l-87 -152l-248 162l16 -295h-175z" />
    <glyph glyph-name="plus" unicode="+" horiz-adv-x="1366" 
d="M571 85v1005h224v-1005h-224zM181 481v213h1004v-213h-1004z" />
    <glyph glyph-name="comma" unicode="," horiz-adv-x="615" 
d="M106 -365l86 587h264l-169 -587h-181z" />
    <glyph glyph-name="hyphen" unicode="-" horiz-adv-x="941" 
d="M805 722v-214h-669v214h669z" />
    <glyph glyph-name="period" unicode="." horiz-adv-x="615" 
d="M308 -17q-67 0 -113.5 46t-46.5 112q0 67 46.5 113t113.5 46q66 0 112.5 -46t46.5 -113q0 -66 -46.5 -112t-112.5 -46z" />
    <glyph glyph-name="slash" unicode="/" horiz-adv-x="763" 
d="M735 1560l-480 -1784h-227l480 1784h227z" />
    <glyph glyph-name="zero" unicode="0" horiz-adv-x="1341" 
d="M671 -21q-181 0 -309.5 91t-197 262t-68.5 412t69 412t197 263t309 92q180 0 308.5 -92t197 -263t68.5 -412q0 -240 -68 -411.5t-196.5 -262.5t-309.5 -91zM671 202q98 0 167.5 64t106 185t36.5 293q0 173 -36.5 294.5t-106 186t-167.5 64.5q-99 0 -168 -64.5
t-105.5 -186t-36.5 -294.5q0 -172 36 -293t105.5 -185t168.5 -64z" />
    <glyph glyph-name="one" unicode="1" horiz-adv-x="847" 
d="M703 1490v-1490h-263v1249h-8l-350 -245v251l337 235h284z" />
    <glyph glyph-name="two" unicode="2" horiz-adv-x="1259" 
d="M122 0v194l522 501q74 73 124.5 130.5t77 113t26.5 121.5q0 72 -32.5 124.5t-88.5 80.5t-130 28q-77 0 -134 -31.5t-88 -90t-31 -139.5h-252q0 145 64.5 252.5t179 167t264.5 59.5q149 0 262.5 -56.5t177 -155t63.5 -226.5q0 -87 -32.5 -167.5t-111 -176t-215.5 -225.5
l-278 -273v-9h656v-222h-1024z" />
    <glyph glyph-name="three" unicode="3" horiz-adv-x="1292" 
d="M647 -21q-161 0 -283 57t-191 156.5t-72 229.5h266q3 -68 39.5 -118t98.5 -76.5t141 -26.5q82 0 144.5 28.5t98 79.5t35.5 119t-36.5 120t-104.5 81t-163 29h-131v206h131q79 0 139 27t93.5 75.5t33.5 113.5t-29.5 113t-83 75t-125.5 27t-130.5 -26t-93.5 -74t-37 -115
h-255q2 127 70 224t184.5 152t263.5 55q148 0 259 -55.5t173 -149t62 -208.5q0 -125 -74.5 -210.5t-196.5 -112.5v-10q103 -14 175.5 -62.5t110 -122t37.5 -165.5q0 -126 -71 -224.5t-194.5 -155t-283.5 -56.5z" />
    <glyph glyph-name="four" unicode="4" horiz-adv-x="1354" 
d="M96 290v211l642 989h174v-295h-104l-441 -677v-10h896v-218h-1167zM814 0v354l3 96v1040h252v-1490h-255z" />
    <glyph glyph-name="five" unicode="5" horiz-adv-x="1245" 
d="M615 -20q-147 0 -262.5 55.5t-183.5 154t-73 224.5h259q4 -64 39.5 -113t93 -77t127.5 -28q81 0 143.5 37t97.5 102t35 150q0 86 -36 152.5t-98.5 104t-145.5 37.5q-76 0 -143 -29.5t-103 -79.5l-242 31l70 789h876v-223h-651l-40 -396h7q46 52 123 84t168 32
q101 0 187.5 -36.5t150.5 -103.5t99.5 -157.5t35.5 -198.5q0 -149 -68 -264t-188 -181t-278 -66z" />
    <glyph glyph-name="six" unicode="6" horiz-adv-x="1295" 
d="M663 -21q-112 0 -214.5 39t-181.5 124.5t-125 223.5t-46 336q0 190 40 339.5t115.5 254.5t183.5 160t244 55q140 0 248.5 -54.5t175 -149.5t81.5 -216h-259q-20 87 -83.5 140t-162.5 53q-106 0 -178.5 -61.5t-110 -175t-37.5 -268.5h9q36 62 92 107t127 68.5t150 23.5
q133 0 239 -62.5t167.5 -173t61.5 -252.5q0 -147 -67.5 -262.5t-188 -182t-280.5 -66.5zM662 196q80 0 143 38.5t99.5 104.5t36.5 147t-35.5 146t-98 103t-142.5 38q-59 0 -110 -22.5t-89.5 -62.5t-60 -92t-21.5 -111q0 -79 36.5 -144.5t99.5 -105t142 -39.5z" />
    <glyph glyph-name="seven" unicode="7" horiz-adv-x="1163" 
d="M177 0l635 1258v8h-737v224h1013v-229l-635 -1261h-276z" />
    <glyph glyph-name="eight" unicode="8" horiz-adv-x="1295" 
d="M647 -21q-162 0 -286 54.5t-194.5 149t-70.5 216.5q0 95 42 174.5t114 132t163 66.5v7q-119 25 -192 117t-73 215q0 116 64 206t176 142t257 52q143 0 255.5 -52t177 -142t64.5 -206q0 -123 -73.5 -215t-191.5 -117v-7q90 -14 162.5 -67t114.5 -132t42 -174
q0 -122 -70.5 -216.5t-195 -149t-285.5 -54.5zM647 184q84 0 146.5 29.5t97 82t34.5 122.5q0 71 -36 126.5t-99 87t-143 31.5q-81 0 -144 -31.5t-99 -86.5t-36 -127q0 -70 34.5 -122.5t97 -82t147.5 -29.5zM647 866q69 0 122.5 27.5t84.5 77.5t31 115t-30 113.5t-84 75.5
t-124 27q-71 0 -125 -27t-83.5 -75.5t-29.5 -113.5t30 -114.5t84 -77.5t124 -28z" />
    <glyph glyph-name="nine" unicode="9" horiz-adv-x="1295" 
d="M616 -22q-140 0 -248.5 55t-175.5 150.5t-82 217.5h260q20 -88 83 -142t163 -54q106 0 178.5 62t110 175.5t37.5 269.5h-8q-36 -62 -92 -106.5t-126.5 -68.5t-150.5 -24q-133 0 -239.5 63t-168 173.5t-61.5 251.5q0 147 68 263.5t189 183t281 64.5q112 0 213.5 -40
t180.5 -125t125 -222.5t46 -335.5q0 -190 -40 -340t-115.5 -255.5t-183.5 -160.5t-244 -55zM630 719q59 0 110.5 22.5t89.5 62.5t60 92t22 111q0 79 -36.5 144t-99 104t-142.5 39q-79 0 -142.5 -38t-100 -104t-36.5 -147q0 -80 35.5 -145t98 -103t141.5 -38z" />
    <glyph glyph-name="colon" unicode=":" horiz-adv-x="615" 
d="M308 -17q-67 0 -113.5 46t-46.5 112q0 67 46.5 113t113.5 46q66 0 112.5 -46t46.5 -113q0 -66 -46.5 -112t-112.5 -46zM308 739q-67 0 -113.5 46t-46.5 112q0 67 46.5 113t113.5 46q66 0 112.5 -46t46.5 -113q0 -66 -46.5 -112t-112.5 -46z" />
    <glyph glyph-name="semicolon" unicode=";" horiz-adv-x="633" 
d="M106 -365l86 587h264l-169 -587h-181zM326 739q-67 0 -113.5 46t-46.5 112q0 67 46.5 113t113.5 46q66 0 112.5 -46t46.5 -113q0 -66 -46.5 -112t-112.5 -46z" />
    <glyph glyph-name="less" unicode="&#x3c;" horiz-adv-x="1366" 
d="M164 488v205l993 462v-257l-707 -305l8 14v-33l-8 13l707 -304v-255z" />
    <glyph glyph-name="equal" unicode="=" horiz-adv-x="1366" 
d="M201 712v221h965v-221h-965zM201 248v223h965v-223h-965z" />
    <glyph glyph-name="greater" unicode="&#x3e;" horiz-adv-x="1366" 
d="M1202 488l-993 -460v255l709 304l-9 -13v33l9 -14l-709 305v257l993 -462v-205z" />
    <glyph glyph-name="question" unicode="?" horiz-adv-x="1117" 
d="M395 449v35q0 125 24.5 195.5t71 113.5t112.5 83q70 44 113 99.5t43 129.5q0 59 -27.5 101.5t-75 66.5t-106.5 24q-58 0 -107 -24.5t-79.5 -72t-33.5 -119.5h-254q3 139 66.5 234.5t170 145.5t238.5 50q139 0 245 -49.5t165.5 -139t59.5 -210.5q0 -122 -56.5 -209
t-156.5 -149q-61 -37 -100 -72t-57 -81.5t-18 -120.5v-31h-238zM515 -17q-69 0 -115 44.5t-46 112.5t46 112.5t115 44.5q70 0 115.5 -44.5t45.5 -112.5t-45.5 -112.5t-115.5 -44.5z" />
    <glyph glyph-name="at" unicode="@" horiz-adv-x="2045" 
d="M1053 -418q-226 0 -403 63.5t-301 184.5t-188.5 295.5t-64.5 395.5q0 214 64 388.5t186 299.5t297.5 192t399.5 67q212 0 379.5 -65t285 -181.5t179.5 -271.5t62 -336q0 -122 -21 -228t-68 -187t-123 -127t-186 -46q-68 0 -126.5 19.5t-97 57.5t-47.5 92h-6
q-27 -71 -101.5 -119t-191.5 -48q-135 0 -230.5 65t-145 178t-49.5 258t55.5 255.5t153.5 173t222 62.5q98 0 167 -36t98 -85h8v97h191v-668q0 -55 26 -87.5t77 -32.5q66 0 105 43t56 130.5t17 221.5q0 145 -43.5 266.5t-129.5 210.5t-213.5 137.5t-294.5 48.5
q-175 0 -310.5 -50.5t-229 -147t-142 -234t-48.5 -311.5q0 -176 48.5 -313.5t144 -232t234 -143.5t318.5 -49q85 0 161.5 13t138 31.5t99.5 33.5l68 -187q-47 -21 -122 -43t-167 -36.5t-191 -14.5zM1003 224q86 0 141.5 35t82.5 104t27 170q0 102 -28.5 165t-83.5 92
t-136 29q-78 0 -133.5 -36.5t-84.5 -100.5t-29 -149q0 -88 26 -158.5t80.5 -110.5t137.5 -40z" />
    <glyph glyph-name="A" unicode="A" horiz-adv-x="1475" 
d="M42 0l522 1490h338l531 -1490h-292l-264 776q-39 121 -81.5 269.5t-94.5 341.5h60q-51 -194 -92 -343.5t-78 -267.5l-259 -776h-290zM347 366v216h780v-216h-780z" />
    <glyph glyph-name="B" unicode="B" horiz-adv-x="1342" 
d="M144 0v1490h572q160 0 267.5 -50t161.5 -137.5t54 -199.5q0 -90 -34 -154.5t-92.5 -105.5t-132.5 -59v-12q81 -5 153.5 -49.5t118 -123.5t45.5 -190q0 -118 -56.5 -210.5t-170 -145.5t-284.5 -53h-602zM410 221h297q145 0 212.5 57t67.5 149q0 67 -33 119.5t-94 83
t-145 30.5h-305v-439zM410 856h277q71 0 127 26t88 73.5t32 113.5q0 88 -62 144.5t-181 56.5h-281v-414z" />
    <glyph glyph-name="C" unicode="C" horiz-adv-x="1503" 
d="M782 -21q-197 0 -352.5 92t-244.5 263.5t-89 409.5q0 240 89.5 411.5t245 263.5t351.5 92q124 0 231 -35.5t190.5 -102.5t137.5 -163.5t72 -218.5h-269q-13 67 -44.5 119t-79 88.5t-107 55t-127.5 18.5q-125 0 -220.5 -62.5t-148.5 -180.5t-53 -285q0 -168 53.5 -286
t148.5 -179t220 -61q68 0 127 18.5t106.5 54.5t80 88.5t45.5 119.5h269q-16 -111 -67.5 -205t-133.5 -165t-191 -110.5t-240 -39.5z" />
    <glyph glyph-name="D" unicode="D" horiz-adv-x="1467" 
d="M648 0h-377v230h363q158 0 263 58t157.5 173t52.5 286q0 169 -52.5 283t-155.5 172t-257 58h-378v230h394q222 0 381.5 -89.5t245.5 -256t86 -397.5q0 -233 -86 -400t-248 -257t-389 -90zM411 1490v-1490h-267v1490h267z" />
    <glyph glyph-name="E" unicode="E" horiz-adv-x="1237" 
d="M144 0v1490h983v-226h-716v-399h663v-223h-663v-416h719v-226h-986z" />
    <glyph glyph-name="F" unicode="F" horiz-adv-x="1197" 
d="M144 0v1490h965v-226h-698v-438h634v-223h-634v-603h-267z" />
    <glyph glyph-name="G" unicode="G" horiz-adv-x="1527" 
d="M788 -21q-206 0 -361.5 94t-243 265.5t-87.5 404.5q0 239 89.5 411t244.5 264.5t351 92.5q123 0 230.5 -36.5t191.5 -103.5t138 -158.5t71 -202.5h-272q-17 61 -48.5 109t-77 82.5t-103 52.5t-126.5 18q-123 0 -218 -62t-149 -179.5t-54 -285.5q0 -167 53.5 -284.5
t149.5 -180t223 -62.5q114 0 198 44t130.5 125t46.5 190l63 -8h-408v209h604v-179q0 -189 -82 -328.5t-225.5 -215.5t-328.5 -76z" />
    <glyph glyph-name="H" unicode="H" horiz-adv-x="1513" 
d="M144 0v1490h267v-616h691v616h267v-1490h-267v649h-691v-649h-267z" />
    <glyph glyph-name="I" unicode="I" horiz-adv-x="554" 
d="M411 1490v-1490h-267v1490h267z" />
    <glyph glyph-name="J" unicode="J" horiz-adv-x="1175" 
d="M554 -20q-219 0 -349 119.5t-130 341.5v86h264v-89q0 -116 58.5 -176.5t156.5 -60.5t155.5 60.5t57.5 177.5v1051h265v-1050q0 -221 -129 -340.5t-349 -119.5z" />
    <glyph glyph-name="K" unicode="K" horiz-adv-x="1425" 
d="M337 363v271q48 74 95.5 140.5t100 132t113.5 137.5l393 446h330l-631 -712l-20 5zM144 0v1490h267v-443l-4 -359l4 -130v-558h-267zM1066 0l-475 702l166 201l623 -903h-314z" />
    <glyph glyph-name="L" unicode="L" horiz-adv-x="1151" 
d="M144 0v1490h267v-1264h665v-226h-932z" />
    <glyph glyph-name="M" unicode="M" horiz-adv-x="1870" 
d="M144 0v1490h398l284 -772q15 -43 33.5 -109t38.5 -141.5t37.5 -147t29.5 -124.5h-56q12 52 29.5 123t37 146.5t38.5 142t33 110.5l281 772h398v-1490h-265v754q0 48 1.5 115.5t3.5 144t4 154.5t2 148h22q-21 -77 -44.5 -158.5t-46.5 -158t-43.5 -140t-34.5 -105.5
l-278 -754h-224l-281 754q-15 42 -35 104.5t-43.5 138.5t-47.5 158t-47 161h26q1 -66 3 -143.5t3.5 -154.5t3 -146t1.5 -118v-754h-262z" />
    <glyph glyph-name="N" unicode="N" horiz-adv-x="1537" 
d="M144 0v1490h298l517 -823q30 -47 65.5 -109.5t74 -139t75.5 -165.5l-30 -15q-7 80 -11.5 167t-7 166t-2.5 131v788h270v-1490h-299l-466 741q-40 64 -79.5 132.5t-85.5 155.5t-108 205l38 8q7 -109 11.5 -206t7 -172.5t2.5 -121.5v-742h-270z" />
    <glyph glyph-name="O" unicode="O" horiz-adv-x="1565" 
d="M783 -21q-196 0 -351.5 92t-245.5 263.5t-90 409.5q0 240 90 411.5t245.5 263.5t351.5 92t351 -92t244.5 -263.5t89.5 -411.5q0 -238 -89.5 -409.5t-244.5 -263.5t-351 -92zM783 218q121 0 215.5 60.5t148 178t53.5 287.5q0 171 -53.5 289t-148 178.5t-215.5 60.5
q-122 0 -216.5 -61t-148.5 -178.5t-54 -288.5q0 -170 54 -287t148.5 -178t216.5 -61z" />
    <glyph glyph-name="P" unicode="P" horiz-adv-x="1312" 
d="M144 0v1490h560q170 0 287 -63t178 -173t61 -254q0 -143 -61.5 -253.5t-180 -173t-288.5 -62.5h-381v221h351q99 0 163 34.5t95.5 95t31.5 138.5q0 80 -31.5 139.5t-96 93t-163.5 33.5h-258v-1266h-267z" />
    <glyph glyph-name="Q" unicode="Q" horiz-adv-x="1571" 
d="M694 497h240l147 -191l96 -115l250 -320h-255l-167 213l-72 98zM783 -21q-196 0 -351.5 92t-245.5 263.5t-90 409.5q0 240 90 411.5t245.5 263.5t351.5 92t351 -92t244.5 -263.5t89.5 -411.5q0 -238 -89.5 -409.5t-244.5 -263.5t-351 -92zM783 218q121 0 215.5 60.5
t148 178t53.5 287.5q0 171 -53.5 289t-148 178.5t-215.5 60.5q-122 0 -216.5 -61t-148.5 -178.5t-54 -288.5q0 -170 54 -287t148.5 -178t216.5 -61z" />
    <glyph glyph-name="R" unicode="R" horiz-adv-x="1332" 
d="M144 0v1490h563q169 0 286.5 -59.5t178.5 -167t61 -250.5t-62 -248t-181 -162t-290 -57h-400v221h373q99 0 163 29t95.5 84t31.5 133q0 80 -31.5 136.5t-96 86.5t-163.5 30h-261v-1266h-267zM985 0l-358 675h290l365 -675h-297z" />
    <glyph glyph-name="S" unicode="S" horiz-adv-x="1327" 
d="M671 -23q-175 0 -304 55.5t-200.5 161t-76.5 255.5h262q6 -81 47.5 -135.5t112 -82t158.5 -27.5q89 0 156.5 26.5t106 75.5t38.5 113q0 57 -32.5 95t-93 65t-145.5 48l-167 42q-195 48 -300 146t-105 256q0 132 70.5 231t194 154t280.5 55q161 0 281 -55.5t188 -154.5
t71 -229h-257q-10 101 -86.5 157t-199.5 56q-83 0 -144.5 -26t-95 -70.5t-33.5 -102.5q0 -60 36 -99t95 -64t127 -41l142 -36q90 -21 169.5 -55t140.5 -85t95.5 -121t34.5 -164q0 -133 -67.5 -233t-194 -155.5t-304.5 -55.5z" />
    <glyph glyph-name="T" unicode="T" horiz-adv-x="1337" 
d="M75 1264v226h1187v-226h-460v-1264h-266v1264h-461z" />
    <glyph glyph-name="U" unicode="U" horiz-adv-x="1493" 
d="M747 -22q-182 0 -318 68.5t-211 190t-75 280.5v973h265v-951q0 -94 42 -167t117.5 -115t179.5 -42q103 0 179 42t117 115t41 167v951h266v-973q0 -159 -75 -280.5t-210.5 -190t-317.5 -68.5z" />
    <glyph glyph-name="V" unicode="V" horiz-adv-x="1472" 
d="M573 0l-531 1490h291l265 -776q37 -116 80.5 -266t95.5 -340h-61q51 192 93 341t78 265l257 776h290l-522 -1490h-336z" />
    <glyph glyph-name="W" unicode="W" horiz-adv-x="2071" 
d="M444 0l-402 1490h285l194 -795q21 -86 38.5 -179t34 -186.5t32.5 -184.5h-45q17 91 34.5 184.5t36.5 186.5t40 179l202 795h283l201 -795q22 -86 40.5 -179t36.5 -186.5t35 -184.5h-47q17 91 33.5 184.5t35 186.5t37.5 179l194 795h287l-404 -1490h-304l-219 831
q-29 111 -51.5 239.5t-48.5 273.5h64q-27 -141 -47.5 -268t-51.5 -245l-219 -831h-305z" />
    <glyph glyph-name="X" unicode="X" horiz-adv-x="1456" 
d="M45 0l604 861v-201l-562 830h308l181 -273q44 -65 74 -118t56 -103t57 -106h-65q32 56 58 105.5t57 103t74 118.5l185 273h300l-554 -816v192l593 -866h-312l-226 335q-39 58 -66 102t-50 85.5t-52 92.5h46q-28 -50 -51.5 -91.5t-51 -85.5t-67.5 -103l-230 -335h-306z
" />
    <glyph glyph-name="Y" unicode="Y" horiz-adv-x="1443" 
d="M592 0v577l-550 913h310l266 -467q42 -72 75.5 -141t68.5 -162h-70q34 94 67 163.5t73 139.5l261 467h309l-545 -913v-577h-265z" />
    <glyph glyph-name="Z" unicode="Z" horiz-adv-x="1325" 
d="M106 0v176l641 894q53 72 113.5 145t122.5 146l24 -88q-96 -6 -192 -7.5t-192 -1.5h-515v226h1110v-177l-630 -879q-56 -76 -119 -152.5t-128 -152.5l-24 88q98 6 196 7.5t196 1.5h514v-226h-1117z" />
    <glyph glyph-name="bracketleft" unicode="[" horiz-adv-x="740" 
d="M184 -282v1860h455v-203h-204v-1454h204v-203h-455z" />
    <glyph glyph-name="backslash" unicode="\" horiz-adv-x="763" 
d="M508 -224l-480 1784h227l480 -1784h-227z" />
    <glyph glyph-name="bracketright" unicode="]" horiz-adv-x="740" 
d="M101 -282v203h204v1454h-204v203h455v-1860h-455z" />
    <glyph glyph-name="asciicircum" unicode="^" horiz-adv-x="974" 
d="M461 1341h52v-78h-52v78zM68 814l304 637h230l304 -637h-212l-214 478h14l-213 -478h-213z" />
    <glyph glyph-name="underscore" unicode="_" horiz-adv-x="961" 
d="M961 0v-208h-961v208h961z" />
    <glyph glyph-name="grave" unicode="`" horiz-adv-x="685" 
d="M346 1245l-209 306h254l144 -306h-189z" />
    <glyph glyph-name="a" unicode="a" horiz-adv-x="1161" 
d="M447 -22q-106 0 -190.5 38t-133.5 112t-49 183q0 94 35 155t95.5 97.5t136.5 55.5t157 27q98 11 158 19t87.5 26t27.5 55v6q0 53 -22.5 90.5t-65.5 57.5t-107 20q-63 0 -110.5 -19.5t-77 -52t-41.5 -71.5l-241 38q27 101 93.5 168.5t163 102t214.5 34.5q84 0 164.5 -20
t145.5 -64.5t103.5 -117t38.5 -177.5v-741h-249v153h-9q-24 -47 -67 -87t-106.5 -64t-150.5 -24zM513 170q80 0 138.5 31.5t90 83.5t31.5 114v128q-13 -10 -41.5 -18.5t-65 -15t-73 -12t-64.5 -8.5q-57 -8 -103.5 -26.5t-73.5 -50t-27 -82.5q0 -47 24 -79t66 -48.5t98 -16.5
z" />
    <glyph glyph-name="b" unicode="b" horiz-adv-x="1261" 
d="M718 -21q-90 0 -153 30t-103 74.5t-64 90.5h-13v-174h-253v1490h258v-563h9q24 44 63 88.5t101.5 74.5t155.5 30q131 0 234.5 -67t164 -194t60.5 -309q0 -179 -59 -306.5t-163 -196t-238 -68.5zM650 193q85 0 144 45.5t90 126.5t31 186q0 106 -30.5 186t-89.5 125
t-145 45q-85 0 -144.5 -44t-91 -124t-31.5 -188q0 -107 31.5 -187.5t91.5 -125.5t144 -45z" />
    <glyph glyph-name="c" unicode="c" horiz-adv-x="1176" 
d="M613 -23q-161 0 -280 71.5t-184.5 200.5t-65.5 299q0 171 65.5 300t184.5 200.5t280 71.5q95 0 176 -25t144 -72.5t104.5 -114.5t57.5 -150l-245 -39q-9 43 -29.5 78t-50 60t-68.5 39t-87 14q-89 0 -148.5 -47t-90 -128.5t-30.5 -186.5q0 -103 30.5 -184.5t90 -128.5
t148.5 -47q48 0 87.5 14t69.5 39.5t50.5 62.5t29.5 82l245 -40q-15 -85 -57 -152.5t-105 -116t-144.5 -74.5t-177.5 -26z" />
    <glyph glyph-name="d" unicode="d" horiz-adv-x="1261" 
d="M543 -21q-133 0 -237 68.5t-163.5 196t-59.5 306.5q0 182 60.5 309t164.5 194t234 67q93 0 155.5 -30t102.5 -74.5t62 -88.5h9v563h258v-1490h-253v174h-13q-23 -46 -63.5 -90.5t-103 -74.5t-153.5 -30zM611 193q85 0 144.5 45t91 125.5t31.5 187.5q0 108 -31 188
t-91 124t-145 44t-144 -45t-89.5 -125t-30.5 -186q0 -105 30.5 -186t90 -126.5t143.5 -45.5z" />
    <glyph glyph-name="e" unicode="e" horiz-adv-x="1194" 
d="M620 -23q-166 0 -286.5 71t-185.5 199t-65 300q0 169 64.5 298.5t182 202t274.5 72.5q105 0 197.5 -34.5t163 -104t110.5 -175t40 -247.5v-78h-914v176h785l-120 -51q0 94 -30 164t-87.5 108.5t-142.5 38.5q-84 0 -144 -39t-91.5 -106.5t-31.5 -151.5v-119
q0 -103 35 -175t99.5 -109t150.5 -37q58 0 105 17t80.5 49.5t50.5 79.5l238 -38q-25 -93 -90.5 -163t-164.5 -109t-223 -39z" />
    <glyph glyph-name="f" unicode="f" horiz-adv-x="778" 
d="M715 1104v-203h-696v203h696zM221 0v1222q0 107 44.5 178.5t122 107.5t175.5 36q63 0 114 -8.5t74 -14.5l-42 -203q-15 4 -41.5 8.5t-56.5 4.5q-71 0 -101.5 -34t-30.5 -100v-1197h-258z" />
    <glyph glyph-name="g" unicode="g" horiz-adv-x="1264" 
d="M614 -440q-136 0 -236 35.5t-162.5 98t-87.5 142.5l227 61q16 -34 47.5 -66.5t83 -53t127.5 -20.5q120 0 191 58t71 179v200h-16q-23 -45 -62.5 -87t-101.5 -69t-152 -27q-131 0 -235 62.5t-164.5 184t-60.5 297.5q0 179 61 305t165.5 193t234.5 67q92 0 155 -30
t103.5 -75t64.5 -90h11v179h254v-1101q0 -152 -67.5 -250t-184.5 -145.5t-266 -47.5zM612 217q85 0 144.5 41t91 117.5t31.5 182.5q0 105 -31 183.5t-90.5 122.5t-145.5 44q-85 0 -144.5 -45t-90 -123.5t-30.5 -181.5q0 -104 31 -180.5t90 -118.5t144 -42z" />
    <glyph glyph-name="h" unicode="h" horiz-adv-x="1236" 
d="M390 642v-642h-258v1490h256v-660h-33q47 144 138.5 217t228.5 73q114 0 200 -49t134 -143t48 -229v-699h-259v659q0 114 -57.5 177t-160.5 63q-68 0 -121.5 -29.5t-84.5 -86.5t-31 -141z" />
    <glyph glyph-name="i" unicode="i" horiz-adv-x="522" 
d="M132 0v1104h258v-1104h-258zM261 1262q-63 0 -107 42t-44 101q0 60 44 101t107 41t107.5 -41t44.5 -101q0 -59 -44.5 -101t-107.5 -42z" />
    <glyph glyph-name="j" unicode="j" horiz-adv-x="523" 
d="M132 1104h259v-1179q0 -114 -44 -190.5t-127.5 -114.5t-203.5 -38h-63v211h43q73 0 104.5 35.5t31.5 105.5v1170zM261 1262q-63 0 -107 42t-44 101q0 60 44 101t107 41t107.5 -41t44.5 -101q0 -59 -44.5 -101t-107.5 -42z" />
    <glyph glyph-name="k" unicode="k" horiz-adv-x="1151" 
d="M368 347v311h38l405 446h305l-494 -544h-53zM132 0v1490h258v-1490h-258zM831 0l-366 503l175 182l502 -685h-311z" />
    <glyph glyph-name="l" unicode="l" horiz-adv-x="522" 
d="M390 1490v-1490h-258v1490h258z" />
    <glyph glyph-name="m" unicode="m" horiz-adv-x="1829" 
d="M132 0v1104h244l8 -260h-19q25 96 75.5 157.5t118 91.5t141.5 30q121 0 198.5 -75t105.5 -214h-31q23 94 77 158.5t130 97.5t163 33q100 0 180.5 -44t127 -128.5t46.5 -209.5v-741h-258v702q0 104 -57 152.5t-137 48.5q-63 0 -109 -27t-70.5 -75t-24.5 -111v-690h-252
v714q0 86 -53.5 137.5t-136.5 51.5q-57 0 -104.5 -26.5t-76 -77.5t-28.5 -126v-673h-258z" />
    <glyph glyph-name="n" unicode="n" horiz-adv-x="1235" 
d="M390 642v-642h-258v1104h247l3 -274h-27q47 144 138.5 217t228.5 73q114 0 200 -49t133.5 -143t47.5 -229v-699h-258v659q0 114 -57.5 177t-160.5 63q-68 0 -121.5 -29.5t-84.5 -86.5t-31 -141z" />
    <glyph glyph-name="o" unicode="o" horiz-adv-x="1229" 
d="M614 -23q-161 0 -280.5 71.5t-185 200t-65.5 299.5t65.5 300t185 200.5t280.5 71.5q162 0 281.5 -71.5t185 -200.5t65.5 -300t-65.5 -299.5t-185 -200t-281.5 -71.5zM614 188q89 0 149 47.5t90.5 129t30.5 183.5q0 104 -30.5 185.5t-90.5 128.5t-149 47q-88 0 -148 -47
t-90 -128.5t-30 -185.5q0 -102 30 -183.5t90 -129t148 -47.5z" />
    <glyph glyph-name="p" unicode="p" horiz-adv-x="1261" 
d="M132 -418v1522h253v-177h14q23 44 62.5 88.5t102 74.5t155.5 30q131 0 234.5 -67t164 -194t60.5 -309q0 -179 -59 -306.5t-163 -196t-238 -68.5q-90 0 -152.5 30t-102.5 74.5t-63 89.5h-10v-591h-258zM650 193q85 0 144 45.5t90 126.5t31 186q0 106 -30.5 186t-89.5 125
t-145 45q-85 0 -144.5 -44t-91 -124t-31.5 -188q0 -107 31.5 -187.5t91.5 -125.5t144 -45z" />
    <glyph glyph-name="q" unicode="q" horiz-adv-x="1261" 
d="M1129 -418h-258v591h-9q-23 -45 -63 -89.5t-102.5 -74.5t-153.5 -30q-133 0 -237 68.5t-163.5 196t-59.5 306.5q0 182 60.5 309t164.5 194t234 67q93 0 156 -30t103 -74.5t62 -88.5h13v177h253v-1522zM611 193q85 0 144.5 45t91 125.5t31.5 187.5q0 108 -31 188t-91 124
t-145 44t-144 -45t-89.5 -125t-30.5 -186q0 -105 30.5 -186t90 -126.5t143.5 -45.5z" />
    <glyph glyph-name="r" unicode="r" horiz-adv-x="794" 
d="M132 0v1104h250v-184h10q30 96 102 147t170 51q23 0 48.5 -1.5t43.5 -4.5v-236q-16 4 -51.5 8t-70.5 4q-69 0 -124.5 -30t-87.5 -84.5t-32 -129.5v-644h-258z" />
    <glyph glyph-name="s" unicode="s" horiz-adv-x="1105" 
d="M553 -23q-128 0 -228 37.5t-163 110t-80 176.5l245 36q19 -82 77 -122.5t152 -40.5q95 0 150.5 38t55.5 94q0 48 -37.5 79t-111.5 47l-188 40q-157 34 -235 112t-78 200q0 102 56 177.5t156 117t233 41.5q127 0 219.5 -37.5t149 -105t74.5 -159.5l-233 -35
q-15 60 -66 102t-140 42q-83 0 -137 -36.5t-54 -92.5q0 -49 37 -80t118 -49l190 -40q158 -34 234.5 -108t76.5 -191q0 -106 -60.5 -185t-167 -123.5t-245.5 -44.5z" />
    <glyph glyph-name="t" unicode="t" horiz-adv-x="722" 
d="M658 1104v-203h-639v203h639zM184 1375h258v-1063q0 -59 25.5 -86t85.5 -27q19 0 49 3t48 6l32 -201q-39 -10 -83 -14.5t-86 -4.5q-161 0 -245 77t-84 222v1088z" />
    <glyph glyph-name="u" unicode="u" horiz-adv-x="1236" 
d="M514 -16q-114 0 -200 49t-134 143t-48 229v699h258v-659q0 -114 58 -177t160 -63q69 0 122.5 29.5t84 87.5t30.5 140v642h259v-1104h-248l-2 275h26q-47 -145 -139 -218t-227 -73z" />
    <glyph glyph-name="v" unicode="v" horiz-adv-x="1181" 
d="M446 0l-412 1104h276l202 -595q34 -102 60 -206t53 -209h-63q27 105 52.5 208.5t58.5 206.5l201 595h273l-413 -1104h-288z" />
    <glyph glyph-name="w" unicode="w" horiz-adv-x="1700" 
d="M370 0l-332 1104h272l110 -430q26 -108 55.5 -234.5t56.5 -275.5h-33q27 145 58 272t59 238l112 430h245l110 -430q28 -109 58.5 -236t57.5 -274h-33q27 146 55.5 273t55.5 237l110 430h274l-332 -1104h-263l-130 453q-20 67 -38.5 143.5t-36.5 156t-36 153.5h49
q-18 -74 -36.5 -153.5t-37 -156.5t-37.5 -143l-131 -453h-262z" />
    <glyph glyph-name="x" unicode="x" horiz-adv-x="1146" 
d="M43 0l434 659l-1 -185l-411 630h285l113 -185q48 -81 87 -157.5t78 -149.5h-103q41 72 78.5 149t86.5 158l116 185h280l-416 -634l1 183l432 -653h-284l-135 216q-48 80 -86.5 155.5t-78.5 146.5h102q-39 -71 -76 -146.5t-85 -155.5l-136 -216h-281z" />
    <glyph glyph-name="y" unicode="y" horiz-adv-x="1183" 
d="M128 -403l47 203l52 -6q53 -12 94 -4t69 39.5t42 90.5l21 78l-419 1106h276l202 -595q35 -103 58.5 -206t51.5 -209h-69q27 106 54 209.5t62 205.5l207 595h273l-478 -1254q-34 -88 -84 -149.5t-120.5 -93t-166.5 -31.5q-52 0 -97.5 6t-74.5 15z" />
    <glyph glyph-name="z" unicode="z" horiz-adv-x="1132" 
d="M116 0v168l569 714v7h-555v215h870v-181l-546 -701v-7h563v-215h-901z" />
    <glyph glyph-name="braceleft" unicode="{" horiz-adv-x="916" 
d="M136 631v136q124 0 172.5 50.5t48.5 165.5v193q0 122 30.5 200.5t89.5 122t144 61.5t194 18v-202q-127 1 -171.5 -51.5t-44.5 -168.5v-243q0 -56 -18 -106.5t-67 -90t-140 -62.5t-238 -23zM815 -282q-109 0 -194 17.5t-144 61t-89.5 122t-30.5 200.5v193q0 114 -48.5 165
t-172.5 51v136q147 0 238 -23t140 -63t67 -91t18 -106v-242q0 -115 44.5 -168t171.5 -53v-200zM136 527v241h238v-241h-238z" />
    <glyph glyph-name="bar" unicode="|" horiz-adv-x="721" 
d="M480 1970v-2450h-240v2450h240z" />
    <glyph glyph-name="braceright" unicode="}" horiz-adv-x="916" 
d="M780 631q-146 0 -237.5 23t-140.5 62.5t-67 90t-18 106.5v243q0 115 -44 167.5t-172 52.5v202q109 0 194 -18t144 -61.5t89.5 -122t30.5 -200.5v-193q0 -115 49 -165.5t172 -50.5v-136zM101 -282v200q128 0 172 53t44 168v242q0 55 18 106t67 91t140.5 63t237.5 23v-136
q-124 -1 -172.5 -51.5t-48.5 -164.5v-193q0 -122 -30.5 -200.5t-89.5 -122t-144 -61t-194 -17.5zM780 528l-238 -1v241l238 -1v-239z" />
    <glyph glyph-name="asciitilde" unicode="~" horiz-adv-x="1366" 
d="M155 417q-3 132 36 219.5t109.5 130.5t159.5 43q71 0 132.5 -29.5t141.5 -100.5q47 -40 77 -59t68 -19q56 0 90 42t33 129h209q3 -131 -37 -218.5t-110 -130.5t-158 -43q-74 0 -136.5 31t-139.5 98q-49 42 -77 60t-66 18q-54 0 -89.5 -39.5t-33.5 -131.5h-209z" />
    <glyph glyph-name="uni00A0" unicode="&#xa0;" horiz-adv-x="504" 
 />
    <glyph glyph-name="exclamdown" unicode="&#xa1;" horiz-adv-x="621" 
d="M170 -377l20 1023h243l19 -1023h-282zM310 812q-69 0 -115 45t-46 113q0 69 46 113.5t115 44.5q70 0 116.5 -44.5t46.5 -113.5q0 -68 -46.5 -113t-116.5 -45z" />
    <glyph glyph-name="cent" unicode="&#xa2;" horiz-adv-x="1176" 
d="M548 0v1490h121v-1490h-121zM613 173q-161 0 -280 71.5t-184.5 200t-65.5 298.5q0 172 65.5 301t184.5 200.5t280 71.5q95 0 176 -25.5t144 -72.5t104.5 -114t57.5 -150l-245 -40q-9 44 -29.5 79t-50 60t-68.5 38.5t-87 13.5q-89 0 -148.5 -46.5t-90 -128t-30.5 -186.5
q0 -103 30.5 -184.5t90 -128.5t148.5 -47q48 0 87.5 14t69.5 39.5t50.5 62.5t29.5 81l245 -39q-15 -85 -57 -152.5t-105 -116t-144.5 -74.5t-177.5 -26z" />
    <glyph glyph-name="sterling" unicode="&#xa3;" horiz-adv-x="1276" 
d="M93 176v48q84 0 126.5 43t38.5 128l-28 625q-7 149 53.5 259.5t171.5 171t257 60.5q126 0 226.5 -50.5t164 -143t78.5 -217.5l-246 -30q-12 104 -68.5 160.5t-151.5 56.5q-79 0 -131.5 -31.5t-77.5 -89t-23 -135.5l21 -605q2 -72 -28.5 -119t-80.5 -73.5t-107.5 -39
t-109.5 -15.5t-85 -3zM93 0v224h787q34 0 49.5 15.5t15.5 49.5v58h242v-53q0 -144 -75.5 -219t-226.5 -75h-792zM93 651v184h808v-184h-808z" />
    <glyph glyph-name="currency" unicode="&#xa4;" horiz-adv-x="1522" 
d="M759 -20q-125 0 -235 47.5t-193.5 133.5t-130 200t-46.5 247t46.5 247t130 199t193.5 132.5t235 47.5t234.5 -47.5t193.5 -132.5t131 -199t48 -247q-1 -133 -48 -247.5t-131 -200t-193.5 -133t-234.5 -47.5zM759 159q119 0 216 60.5t154 162.5t57 226q0 126 -57 228
t-154 161.5t-216 59.5t-216.5 -59.5t-155 -161.5t-57.5 -228q0 -124 57.5 -226t155 -162.5t216.5 -60.5zM1195 919l-130 135l202 207l135 -136zM1267 -21l-202 206l130 133l207 -203zM255 -21l-131 136l204 203l134 -133zM328 919l-204 206l131 136l207 -207z" />
    <glyph glyph-name="yen" unicode="&#xa5;" horiz-adv-x="1142" 
d="M302 1490l334 -779l-186 -124l-426 903h278zM508 714l333 776h279l-429 -903zM700 783v-783h-263v783h263zM1007 759v-163h-891v163h891zM1007 471v-163h-891v163h891z" />
    <glyph glyph-name="brokenbar" unicode="&#xa6;" horiz-adv-x="634" 
d="M200 410h234v-690h-234v690zM434 1490v-687h-234v687h234z" />
    <glyph glyph-name="section" unicode="&#xa7;" horiz-adv-x="1150" 
d="M563 -301q-123 0 -214 41t-145 117.5t-70 181.5l225 35q15 -78 63.5 -122t142.5 -44q82 0 130.5 34.5t48.5 100.5q0 45 -21 76.5t-55 54t-74 39.5l-270 127q-69 31 -120.5 78.5t-79.5 107t-28 123.5q0 67 29.5 120t81.5 84.5t120 34.5l1 3q-78 54 -118 120.5t-40 158.5
q0 159 109.5 250t292.5 91q181 0 282.5 -89t129.5 -249l-221 -35q-19 81 -60.5 123.5t-127.5 42.5q-81 0 -125.5 -36.5t-44.5 -100.5q0 -46 22 -78.5t57.5 -56t77.5 -41.5l269 -126q69 -32 119 -79t77 -103.5t27 -119.5q0 -66 -30 -119.5t-82 -86t-118 -37.5l-2 -4
q57 -34 92.5 -78t51.5 -95t16 -105q0 -103 -53 -179.5t-147 -118t-219 -41.5zM683 393q26 -13 63 -3t65.5 42.5t31.5 84.5q2 35 -10.5 67.5t-41.5 60.5t-76 48l-255 122q-27 14 -62.5 3.5t-63 -42.5t-29.5 -85q-3 -37 11 -71t44.5 -62t75.5 -49z" />
    <glyph glyph-name="dieresis" unicode="&#xa8;" horiz-adv-x="1235" 
d="M836 1267q-59 0 -100 40.5t-41 97.5q0 58 41 98t100 40t99.5 -40t40.5 -98q0 -57 -40.5 -97.5t-99.5 -40.5zM400 1267q-59 0 -100 40.5t-41 97.5q0 58 41 98t100 40t100 -40t41 -98q0 -57 -41 -97.5t-100 -40.5z" />
    <glyph glyph-name="copyright" unicode="&#xa9;" horiz-adv-x="1860" 
d="M518 744q0 116 56.5 211t152 151.5t210.5 56.5q102 0 187.5 -44t141 -119t67.5 -171h-200q-12 63 -68.5 103t-127.5 40q-62 0 -113.5 -30.5t-83 -82t-31.5 -114.5t31.5 -114t83 -82t113.5 -31q71 0 122 40t64 102h200q-12 -95 -65.5 -171t-136 -119.5t-184.5 -43.5
q-115 0 -210.5 56.5t-152 151.5t-56.5 210zM930 -23q-159 0 -298 59.5t-245 165.5t-165.5 245t-59.5 298t59.5 298t165.5 245t245 165.5t298 59.5t298 -59.5t245 -165.5t165.5 -245t59.5 -298t-59.5 -298t-165.5 -245t-245 -165.5t-298 -59.5zM930 192q115 0 215 43
t176.5 119t119 176t42.5 215t-42.5 215t-119 176t-176.5 119t-215 43q-114 0 -214.5 -43t-176.5 -119t-119 -176t-43 -215t43 -215t119 -176t176.5 -119t214.5 -43z" />
    <glyph glyph-name="ordfeminine" unicode="&#xaa;" horiz-adv-x="932" 
d="M356 648q-85 0 -152.5 28.5t-106.5 84.5t-39 139q0 94 48.5 147t125.5 77.5t164 32.5q79 8 127 14.5t69.5 20t21.5 41.5v4q0 55 -39 86.5t-113 31.5q-75 0 -120 -30t-59 -74l-199 27q21 77 74.5 130t131 80.5t173.5 27.5q69 0 134 -16.5t117 -50.5t83 -88.5t31 -130.5
v-566h-206v117h-7q-30 -57 -93 -95t-166 -38zM411 801q63 0 109 22.5t71 60t25 83.5v93q-13 -9 -47 -17t-73.5 -13.5t-71.5 -9.5q-70 -10 -114.5 -36.5t-44.5 -79.5q0 -49 41.5 -76t104.5 -27z" />
    <glyph glyph-name="guillemotleft" unicode="&#xab;" horiz-adv-x="1277" 
d="M479 144l-393 465l393 465h282l-387 -465l387 -465h-282zM927 144l-393 465l393 465h282l-387 -465l387 -465h-282z" />
    <glyph glyph-name="logicalnot" unicode="&#xac;" horiz-adv-x="1366" 
d="M873 299v258h-657v213h882v-471h-225z" />
    <glyph glyph-name="registered" unicode="&#xae;" horiz-adv-x="1346" 
d="M673 346q-120 0 -225.5 45.5t-185.5 125.5t-125.5 185.5t-45.5 225.5t45.5 225.5t125.5 185.5t185.5 125.5t225.5 45.5q121 0 226.5 -45.5t185.5 -125.5t125 -185.5t45 -225.5t-45 -225.5t-125 -185.5t-185.5 -125.5t-226.5 -45.5zM673 495q120 0 218 58.5t156.5 156.5
t58.5 218t-58.5 218t-156.5 156.5t-218 58.5q-119 0 -217.5 -58.5t-157 -156.5t-58.5 -218t58.5 -218t157 -156.5t217.5 -58.5zM780 663l-120 249h142l126 -249h-148zM462 663v536h260q50 0 92.5 -20.5t69 -60t26.5 -96.5t-27.5 -98t-71.5 -62t-96 -21h-175v97h149
q31 0 55 21t24 61q0 41 -24 59t-54 18h-92v-434h-136z" />
    <glyph glyph-name="macron" unicode="&#xaf;" horiz-adv-x="900" 
d="M735 1487v-174h-570v174h570z" />
    <glyph glyph-name="degree" unicode="&#xb0;" horiz-adv-x="926" 
d="M464 802q-96 0 -175.5 47t-127 126.5t-47.5 175.5t47.5 175.5t127 127t175.5 47.5t175 -47.5t126 -127t47 -175.5t-47 -175.5t-126 -126.5t-175 -47zM464 986q45 1 82.5 23t59.5 59t22 83t-22 83t-59.5 59t-82.5 22t-83 -22t-60 -59t-22 -83q0 -45 22 -82.5t60 -59.5
t83 -23z" />
    <glyph glyph-name="plusminus" unicode="&#xb1;" horiz-adv-x="1366" 
d="M186 61v216h993v-216h-993zM186 660v211h993v-211h-993zM571 392v748h224v-748h-224z" />
    <glyph glyph-name="two.sups" unicode="&#xb2;" horiz-adv-x="902" 
d="M106 888v151l347 258q41 31 70 55.5t43.5 48.5t14.5 52q0 49 -40.5 77.5t-102.5 28.5q-64 0 -103 -29t-39 -81h-202q0 126 95 199t249 73q160 0 255 -69t95 -181q0 -37 -10.5 -73t-38.5 -74.5t-81 -81.5t-138 -95l-120 -85v-6h406v-168h-700z" />
    <glyph glyph-name="three.sups" unicode="&#xb3;" horiz-adv-x="922" 
d="M460 877q-104 0 -187 34t-131.5 93t-49.5 134h214q1 -42 44.5 -67t110.5 -25t109.5 26.5t42.5 68.5q0 44 -45 71t-120 27h-93v133h93q66 0 107 26.5t41 68.5q0 41 -37 65.5t-98 24.5q-62 0 -104 -24.5t-43 -63.5h-203q1 74 47 131t125.5 89t179.5 32t176.5 -31t119 -85
t42.5 -122t-52.5 -113t-135.5 -54v-6q111 -12 167 -62t56 -125q0 -72 -48 -127.5t-132.5 -87t-195.5 -31.5z" />
    <glyph glyph-name="acute" unicode="&#xb4;" horiz-adv-x="685" 
d="M149 1245l144 306h254l-210 -306h-188z" />
    <glyph glyph-name="uni00B5" unicode="&#xb5;" horiz-adv-x="1243" 
d="M132 -418v1522h258v-653q0 -86 30 -142.5t82.5 -83.5t117.5 -27q67 0 117.5 27.5t79.5 83.5t29 142v653h258v-810q0 -46 21 -66t71 -20h40v-208h-96q-143 0 -213.5 70.5t-70.5 203.5v101h47q0 -111 -27 -184t-69 -114.5t-90.5 -58.5t-91.5 -17q-44 0 -93 17t-91.5 58.5
t-69.5 114.5t-27 184h46v-793h-258z" />
    <glyph glyph-name="paragraph" unicode="&#xb6;" horiz-adv-x="1215" 
d="M1058 1279h-391v-727h-85q-162 0 -274 61t-169.5 167.5t-57.5 241.5q0 134 57.5 239.5t169.5 167t274 61.5h476v-211zM847 0v1490h224v-1490h-224z" />
    <glyph glyph-name="periodcentered" unicode="&#xb7;" horiz-adv-x="615" 
d="M308 549q-67 0 -113.5 46t-46.5 112q0 67 46.5 113t113.5 46q66 0 112.5 -46t46.5 -113q0 -66 -46.5 -112t-112.5 -46z" />
    <glyph glyph-name="cedilla" unicode="&#xb8;" horiz-adv-x="668" 
d="M205 -418v115h123q49 0 70 14.5t21 48.5q0 33 -21 47.5t-70 14.5h-87l34 223h109v-45l-3 -86q94 1 143.5 -40.5t49.5 -119.5q0 -90 -58 -131t-178 -41h-133z" />
    <glyph glyph-name="one.sups" unicode="&#xb9;" horiz-adv-x="636" 
d="M526 1711v-823h-211v642h-7l-214 -125v181l211 125h221z" />
    <glyph glyph-name="ordmasculine" unicode="&#xba;" horiz-adv-x="985" 
d="M493 647q-130 0 -226.5 55t-149 152.5t-52.5 226.5q0 131 52.5 228.5t149 152t226.5 54.5t225.5 -54.5t148.5 -152t53 -228.5q0 -129 -53 -227t-148.5 -152.5t-225.5 -54.5zM493 819q69 0 115.5 34t70.5 93t24 135q0 77 -23.5 136.5t-70.5 93.5t-116 34t-116 -34
t-70.5 -93.5t-23.5 -136.5q0 -76 23.5 -135t70.5 -93t116 -34z" />
    <glyph glyph-name="guillemotright" unicode="&#xbb;" horiz-adv-x="1277" 
d="M68 144l387 465l-387 465h282l394 -465l-394 -465h-282zM516 144l387 465l-387 465h282l394 -465l-394 -465h-282z" />
    <glyph glyph-name="onequarter" unicode="&#xbc;" horiz-adv-x="1673" 
d="M453 1490v-823h-187v662h-7l-187 -137v172l173 126h208zM185 0l1024 1490h197l-1024 -1490h-197zM939 129v147l330 547h128v-210h-76l-194 -324v-9h476v-151h-664zM1325 0v173l5 66v584h175v-823h-180z" />
    <glyph glyph-name="onehalf" unicode="&#xbd;" horiz-adv-x="1749" 
d="M453 1490v-823h-187v662h-7l-187 -137v172l173 126h208zM185 0l1024 1490h197l-1024 -1490h-197zM1083 0v132l289 276q52 50 79 88.5t27 83.5q0 50 -34 77t-82 27q-49 0 -80 -28t-31 -80h-179q0 119 82 188t211 69q134 0 214.5 -68.5t80.5 -172.5q0 -42 -17 -86
t-65.5 -103.5t-140.5 -148.5l-94 -93v-8h327v-153h-587z" />
    <glyph glyph-name="threequarters" unicode="&#xbe;" horiz-adv-x="1833" 
d="M394 657q-88 0 -158 28t-112 79.5t-44 119.5h189q4 -31 40.5 -51t85.5 -20q54 0 89 27t35 71q0 46 -36 76t-102 30h-84v138h84q53 0 86.5 28.5t33.5 73.5q0 42 -28 67.5t-75 25.5q-46 0 -83 -22.5t-39 -60.5h-180q2 69 43 121.5t109 82t152 29.5q87 0 150.5 -32t98 -85
t34.5 -116q0 -68 -42 -114t-109 -58v-8q92 -11 137.5 -61.5t45.5 -127.5q0 -105 -90.5 -173t-230.5 -68zM345 0l1024 1490h197l-1024 -1490h-197zM1099 129v147l330 547h128v-210h-76l-194 -324v-9h476v-151h-664zM1485 0v173l5 66v584h175v-823h-180z" />
    <glyph glyph-name="questiondown" unicode="&#xbf;" horiz-adv-x="1117" 
d="M723 656v-36q0 -124 -24.5 -195t-71.5 -113.5t-113 -83.5q-70 -44 -112.5 -99.5t-42.5 -129.5q0 -58 27 -101t74.5 -66.5t107.5 -23.5q58 0 107 24t79 72t33 119h254q-3 -138 -66 -234t-169.5 -145.5t-238.5 -49.5q-139 0 -245.5 49t-166 138.5t-59.5 210.5
q0 122 56.5 209t157.5 149q61 38 99.5 72.5t57 81t18.5 120.5v32h238zM602 1121q70 0 115.5 -44t45.5 -112t-45.5 -113t-115.5 -45q-69 0 -115 45t-46 113t46 112t115 44z" />
    <glyph glyph-name="Agrave" unicode="&#xc0;" horiz-adv-x="1475" 
d="M42 0l522 1490h338l531 -1490h-292l-264 776q-39 121 -81.5 269.5t-94.5 341.5h60q-51 -194 -92 -343.5t-78 -267.5l-259 -776h-290zM347 366v216h780v-216h-780zM646 1631l-209 306h254l144 -306h-189z" />
    <glyph glyph-name="Aacute" unicode="&#xc1;" horiz-adv-x="1475" 
d="M42 0l522 1490h338l531 -1490h-292l-264 776q-39 121 -81.5 269.5t-94.5 341.5h60q-51 -194 -92 -343.5t-78 -267.5l-259 -776h-290zM347 366v216h780v-216h-780zM637 1631l144 306h254l-210 -306h-188z" />
    <glyph glyph-name="Acircumflex" unicode="&#xc2;" horiz-adv-x="1475" 
d="M42 0l522 1490h338l531 -1490h-292l-264 776q-39 121 -81.5 269.5t-94.5 341.5h60q-51 -194 -92 -343.5t-78 -267.5l-259 -776h-290zM347 366v216h780v-216h-780zM595 1643h-228v7l263 287h211l265 -287v-7h-229l-141 172z" />
    <glyph glyph-name="Atilde" unicode="&#xc3;" horiz-adv-x="1475" 
d="M42 0l522 1490h338l531 -1490h-292l-264 776q-39 121 -81.5 269.5t-94.5 341.5h60q-51 -194 -92 -343.5t-78 -267.5l-259 -776h-290zM347 366v216h780v-216h-780zM874 1665q-44 0 -81 14.5t-67.5 33.5t-56 33.5t-47.5 14.5q-30 0 -45 -26t-17 -65h-151q3 115 53.5 180
t138.5 65q45 0 80.5 -14.5t65 -33.5t55 -33.5t51.5 -14.5q31 0 45.5 22.5t17.5 68.5h149q-2 -115 -54.5 -180t-136.5 -65z" />
    <glyph glyph-name="Adieresis" unicode="&#xc4;" horiz-adv-x="1475" 
d="M42 0l522 1490h338l531 -1490h-292l-264 776q-39 121 -81.5 269.5t-94.5 341.5h60q-51 -194 -92 -343.5t-78 -267.5l-259 -776h-290zM347 366v216h780v-216h-780zM955 1653q-59 0 -100 40.5t-41 97.5q0 58 41 98t100 40t99.5 -40t40.5 -98q0 -57 -40.5 -97.5t-99.5 -40.5
zM519 1653q-59 0 -100 40.5t-41 97.5q0 58 41 98t100 40t100 -40t41 -98q0 -57 -41 -97.5t-100 -40.5z" />
    <glyph glyph-name="Aring" unicode="&#xc5;" horiz-adv-x="1475" 
d="M42 0l522 1490h338l531 -1490h-292l-264 776q-39 121 -81.5 269.5t-94.5 341.5h60q-51 -194 -92 -343.5t-78 -267.5l-259 -776h-290zM347 366v216h780v-216h-780zM736 1551q-76 0 -136 32.5t-95 88t-35 123.5q0 69 35 124t95 87.5t136 32.5q77 0 137 -32.5t94.5 -87.5
t34.5 -124q0 -68 -34.5 -123.5t-94.5 -88t-137 -32.5zM736 1681q51 0 84 32.5t33 81.5t-33 82t-84 33q-50 0 -83.5 -33t-33.5 -82t33.5 -81.5t83.5 -32.5z" />
    <glyph glyph-name="AE" unicode="&#xc6;" horiz-adv-x="2069" 
d="M42 0l661 1490h1255v-226h-715v-404h664v-223h-664v-411h719v-226h-976v1307h-93l-561 -1307h-290zM388 378v201h727v-201h-727z" />
    <glyph glyph-name="Ccedilla" unicode="&#xc7;" horiz-adv-x="1503" 
d="M782 -21q-197 0 -352.5 92t-244.5 263.5t-89 409.5q0 240 89.5 411.5t245 263.5t351.5 92q124 0 231 -35.5t190.5 -102.5t137.5 -163.5t72 -218.5h-269q-13 67 -44.5 119t-79 88.5t-107 55t-127.5 18.5q-125 0 -220.5 -62.5t-148.5 -180.5t-53 -285q0 -168 53.5 -286
t148.5 -179t220 -61q68 0 127 18.5t106.5 54.5t80 88.5t45.5 119.5h269q-16 -111 -67.5 -205t-133.5 -165t-191 -110.5t-240 -39.5zM653 -421v115h123q49 0 70 14.5t21 48.5q0 33 -21 47.5t-70 14.5h-87l34 223h109v-45l-3 -86q94 1 143.5 -40.5t49.5 -119.5q0 -90 -58 -131
t-178 -41h-133z" />
    <glyph glyph-name="Egrave" unicode="&#xc8;" horiz-adv-x="1237" 
d="M144 0v1490h983v-226h-716v-399h663v-223h-663v-416h719v-226h-986zM547 1631l-209 306h254l144 -306h-189z" />
    <glyph glyph-name="Eacute" unicode="&#xc9;" horiz-adv-x="1237" 
d="M144 0v1490h983v-226h-716v-399h663v-223h-663v-416h719v-226h-986zM538 1631l144 306h254l-210 -306h-188z" />
    <glyph glyph-name="Ecircumflex" unicode="&#xca;" horiz-adv-x="1237" 
d="M144 0v1490h983v-226h-716v-399h663v-223h-663v-416h719v-226h-986zM496 1643h-228v7l263 287h211l265 -287v-7h-229l-141 172z" />
    <glyph glyph-name="Edieresis" unicode="&#xcb;" horiz-adv-x="1237" 
d="M144 0v1490h983v-226h-716v-399h663v-223h-663v-416h719v-226h-986zM856 1653q-59 0 -100 40.5t-41 97.5q0 58 41 98t100 40t99.5 -40t40.5 -98q0 -57 -40.5 -97.5t-99.5 -40.5zM420 1653q-59 0 -100 40.5t-41 97.5q0 58 41 98t100 40t100 -40t41 -98q0 -57 -41 -97.5
t-100 -40.5z" />
    <glyph glyph-name="Igrave" unicode="&#xcc;" horiz-adv-x="554" 
d="M411 1490v-1490h-267v1490h267zM187 1631l-209 306h254l144 -306h-189z" />
    <glyph glyph-name="Iacute" unicode="&#xcd;" horiz-adv-x="554" 
d="M411 1490v-1490h-267v1490h267zM178 1631l144 306h254l-210 -306h-188z" />
    <glyph glyph-name="Icircumflex" unicode="&#xce;" horiz-adv-x="554" 
d="M411 1490v-1490h-267v1490h267zM136 1643h-228v7l263 287h211l265 -287v-7h-229l-141 172z" />
    <glyph glyph-name="Idieresis" unicode="&#xcf;" horiz-adv-x="554" 
d="M411 1490v-1490h-267v1490h267zM496 1653q-59 0 -100 40.5t-41 97.5q0 58 41 98t100 40t99.5 -40t40.5 -98q0 -57 -40.5 -97.5t-99.5 -40.5zM60 1653q-59 0 -100 40.5t-41 97.5q0 58 41 98t100 40t100 -40t41 -98q0 -57 -41 -97.5t-100 -40.5z" />
    <glyph glyph-name="Eth" unicode="&#xd0;" horiz-adv-x="1534" 
d="M715 0h-377v230h363q158 0 263 58t157.5 173t52.5 286q0 169 -52.5 283t-155.5 172t-257 58h-378v230h394q222 0 381.5 -89.5t245.5 -256t86 -397.5q0 -233 -86 -400t-248 -257t-389 -90zM478 1490v-1490h-267v1490h267zM20 650v190h799v-190h-799z" />
    <glyph glyph-name="Ntilde" unicode="&#xd1;" horiz-adv-x="1537" 
d="M144 0v1490h298l517 -823q30 -47 65.5 -109.5t74 -139t75.5 -165.5l-30 -15q-7 80 -11.5 167t-7 166t-2.5 131v788h270v-1490h-299l-466 741q-40 64 -79.5 132.5t-85.5 155.5t-108 205l38 8q7 -109 11.5 -206t7 -172.5t2.5 -121.5v-742h-270zM906 1665q-44 0 -81 14.5
t-67.5 33.5t-56 33.5t-47.5 14.5q-30 0 -45 -26t-17 -65h-151q3 115 53.5 180t138.5 65q45 0 80.5 -14.5t65 -33.5t55 -33.5t51.5 -14.5q31 0 45.5 22.5t17.5 68.5h149q-2 -115 -54.5 -180t-136.5 -65z" />
    <glyph glyph-name="Ograve" unicode="&#xd2;" horiz-adv-x="1565" 
d="M783 -21q-196 0 -351.5 92t-245.5 263.5t-90 409.5q0 240 90 411.5t245.5 263.5t351.5 92t351 -92t244.5 -263.5t89.5 -411.5q0 -238 -89.5 -409.5t-244.5 -263.5t-351 -92zM783 218q121 0 215.5 60.5t148 178t53.5 287.5q0 171 -53.5 289t-148 178.5t-215.5 60.5
q-122 0 -216.5 -61t-148.5 -178.5t-54 -288.5q0 -170 54 -287t148.5 -178t216.5 -61zM692 1631l-209 306h254l144 -306h-189z" />
    <glyph glyph-name="Oacute" unicode="&#xd3;" horiz-adv-x="1565" 
d="M783 -21q-196 0 -351.5 92t-245.5 263.5t-90 409.5q0 240 90 411.5t245.5 263.5t351.5 92t351 -92t244.5 -263.5t89.5 -411.5q0 -238 -89.5 -409.5t-244.5 -263.5t-351 -92zM783 218q121 0 215.5 60.5t148 178t53.5 287.5q0 171 -53.5 289t-148 178.5t-215.5 60.5
q-122 0 -216.5 -61t-148.5 -178.5t-54 -288.5q0 -170 54 -287t148.5 -178t216.5 -61zM683 1631l144 306h254l-210 -306h-188z" />
    <glyph glyph-name="Ocircumflex" unicode="&#xd4;" horiz-adv-x="1565" 
d="M783 -21q-196 0 -351.5 92t-245.5 263.5t-90 409.5q0 240 90 411.5t245.5 263.5t351.5 92t351 -92t244.5 -263.5t89.5 -411.5q0 -238 -89.5 -409.5t-244.5 -263.5t-351 -92zM783 218q121 0 215.5 60.5t148 178t53.5 287.5q0 171 -53.5 289t-148 178.5t-215.5 60.5
q-122 0 -216.5 -61t-148.5 -178.5t-54 -288.5q0 -170 54 -287t148.5 -178t216.5 -61zM641 1643h-228v7l263 287h211l265 -287v-7h-229l-141 172z" />
    <glyph glyph-name="Otilde" unicode="&#xd5;" horiz-adv-x="1565" 
d="M783 -21q-196 0 -351.5 92t-245.5 263.5t-90 409.5q0 240 90 411.5t245.5 263.5t351.5 92t351 -92t244.5 -263.5t89.5 -411.5q0 -238 -89.5 -409.5t-244.5 -263.5t-351 -92zM783 218q121 0 215.5 60.5t148 178t53.5 287.5q0 171 -53.5 289t-148 178.5t-215.5 60.5
q-122 0 -216.5 -61t-148.5 -178.5t-54 -288.5q0 -170 54 -287t148.5 -178t216.5 -61zM920 1665q-44 0 -81 14.5t-67.5 33.5t-56 33.5t-47.5 14.5q-30 0 -45 -26t-17 -65h-151q3 115 53.5 180t138.5 65q45 0 80.5 -14.5t65 -33.5t55 -33.5t51.5 -14.5q31 0 45.5 22.5
t17.5 68.5h149q-2 -115 -54.5 -180t-136.5 -65z" />
    <glyph glyph-name="Odieresis" unicode="&#xd6;" horiz-adv-x="1565" 
d="M783 -21q-196 0 -351.5 92t-245.5 263.5t-90 409.5q0 240 90 411.5t245.5 263.5t351.5 92t351 -92t244.5 -263.5t89.5 -411.5q0 -238 -89.5 -409.5t-244.5 -263.5t-351 -92zM783 218q121 0 215.5 60.5t148 178t53.5 287.5q0 171 -53.5 289t-148 178.5t-215.5 60.5
q-122 0 -216.5 -61t-148.5 -178.5t-54 -288.5q0 -170 54 -287t148.5 -178t216.5 -61zM1001 1653q-59 0 -100 40.5t-41 97.5q0 58 41 98t100 40t99.5 -40t40.5 -98q0 -57 -40.5 -97.5t-99.5 -40.5zM565 1653q-59 0 -100 40.5t-41 97.5q0 58 41 98t100 40t100 -40t41 -98
q0 -57 -41 -97.5t-100 -40.5z" />
    <glyph glyph-name="multiply" unicode="&#xd7;" horiz-adv-x="1366" 
d="M1029 84l-851 850l162 164l851 -853zM340 84l-162 161l851 853l162 -164z" />
    <glyph glyph-name="Oslash" unicode="&#xd8;" horiz-adv-x="1565" 
d="M783 -21q-196 0 -351.5 92t-245.5 263.5t-90 409.5q0 240 90 411.5t245.5 263.5t351.5 92t351 -92t244.5 -263.5t89.5 -411.5q0 -238 -89.5 -409.5t-244.5 -263.5t-351 -92zM783 218q121 0 215.5 60.5t148 178t53.5 287.5q0 171 -53.5 289t-148 178.5t-215.5 60.5
q-122 0 -216.5 -61t-148.5 -178.5t-54 -288.5q0 -170 54 -287t148.5 -178t216.5 -61zM303 -60l-145 106l1104 1503l145 -106z" />
    <glyph glyph-name="Ugrave" unicode="&#xd9;" horiz-adv-x="1493" 
d="M747 -22q-182 0 -318 68.5t-211 190t-75 280.5v973h265v-951q0 -94 42 -167t117.5 -115t179.5 -42q103 0 179 42t117 115t41 167v951h266v-973q0 -159 -75 -280.5t-210.5 -190t-317.5 -68.5zM656 1631l-209 306h254l144 -306h-189z" />
    <glyph glyph-name="Uacute" unicode="&#xda;" horiz-adv-x="1493" 
d="M747 -22q-182 0 -318 68.5t-211 190t-75 280.5v973h265v-951q0 -94 42 -167t117.5 -115t179.5 -42q103 0 179 42t117 115t41 167v951h266v-973q0 -159 -75 -280.5t-210.5 -190t-317.5 -68.5zM647 1631l144 306h254l-210 -306h-188z" />
    <glyph glyph-name="Ucircumflex" unicode="&#xdb;" horiz-adv-x="1493" 
d="M747 -22q-182 0 -318 68.5t-211 190t-75 280.5v973h265v-951q0 -94 42 -167t117.5 -115t179.5 -42q103 0 179 42t117 115t41 167v951h266v-973q0 -159 -75 -280.5t-210.5 -190t-317.5 -68.5zM605 1643h-228v7l263 287h211l265 -287v-7h-229l-141 172z" />
    <glyph glyph-name="Udieresis" unicode="&#xdc;" horiz-adv-x="1493" 
d="M747 -22q-182 0 -318 68.5t-211 190t-75 280.5v973h265v-951q0 -94 42 -167t117.5 -115t179.5 -42q103 0 179 42t117 115t41 167v951h266v-973q0 -159 -75 -280.5t-210.5 -190t-317.5 -68.5zM965 1653q-59 0 -100 40.5t-41 97.5q0 58 41 98t100 40t99.5 -40t40.5 -98
q0 -57 -40.5 -97.5t-99.5 -40.5zM529 1653q-59 0 -100 40.5t-41 97.5q0 58 41 98t100 40t100 -40t41 -98q0 -57 -41 -97.5t-100 -40.5z" />
    <glyph glyph-name="Yacute" unicode="&#xdd;" horiz-adv-x="1443" 
d="M592 0v577l-550 913h310l266 -467q42 -72 75.5 -141t68.5 -162h-70q34 94 67 163.5t73 139.5l261 467h309l-545 -913v-577h-265zM622 1631l144 306h254l-210 -306h-188z" />
    <glyph glyph-name="Thorn" unicode="&#xde;" horiz-adv-x="1334" 
d="M137 1490h268v-1490h-268v1490zM262 1204h386q172 0 290.5 -59.5t180 -160t61.5 -225.5q0 -127 -61.5 -227.5t-180 -159t-290.5 -58.5h-386v212h386q94 0 156 29.5t92.5 81t30.5 118.5t-30.5 120.5t-92.5 84t-156 30.5h-386v214z" />
    <glyph glyph-name="germandbls" unicode="&#xdf;" horiz-adv-x="1304" 
d="M144 0v1100q0 128 60.5 220t169 141t253.5 49q137 0 249.5 -46t179 -134t66.5 -216q0 -118 -59.5 -202.5t-162.5 -116.5v-15q145 -12 232 -113t87 -257q0 -125 -58 -217.5t-162.5 -142.5t-241.5 -50h-185v219h154q106 0 168.5 58.5t62.5 151.5q0 98 -69.5 158.5
t-188.5 60.5h-121v213h83q61 0 105 30t68 79t24 105q0 90 -59.5 151t-163.5 61q-102 0 -166.5 -59.5t-64.5 -156.5v-1071h-260z" />
    <glyph glyph-name="agrave" unicode="&#xe0;" horiz-adv-x="1161" 
d="M447 -22q-106 0 -190.5 38t-133.5 112t-49 183q0 94 35 155t95.5 97.5t136.5 55.5t157 27q98 11 158 19t87.5 26t27.5 55v6q0 53 -22.5 90.5t-65.5 57.5t-107 20q-63 0 -110.5 -19.5t-77 -52t-41.5 -71.5l-241 38q27 101 93.5 168.5t163 102t214.5 34.5q84 0 164.5 -20
t145.5 -64.5t103.5 -117t38.5 -177.5v-741h-249v153h-9q-24 -47 -67 -87t-106.5 -64t-150.5 -24zM513 170q80 0 138.5 31.5t90 83.5t31.5 114v128q-13 -10 -41.5 -18.5t-65 -15t-73 -12t-64.5 -8.5q-57 -8 -103.5 -26.5t-73.5 -50t-27 -82.5q0 -47 24 -79t66 -48.5t98 -16.5
zM482 1245l-209 306h254l144 -306h-189z" />
    <glyph glyph-name="aacute" unicode="&#xe1;" horiz-adv-x="1161" 
d="M447 -22q-106 0 -190.5 38t-133.5 112t-49 183q0 94 35 155t95.5 97.5t136.5 55.5t157 27q98 11 158 19t87.5 26t27.5 55v6q0 53 -22.5 90.5t-65.5 57.5t-107 20q-63 0 -110.5 -19.5t-77 -52t-41.5 -71.5l-241 38q27 101 93.5 168.5t163 102t214.5 34.5q84 0 164.5 -20
t145.5 -64.5t103.5 -117t38.5 -177.5v-741h-249v153h-9q-24 -47 -67 -87t-106.5 -64t-150.5 -24zM513 170q80 0 138.5 31.5t90 83.5t31.5 114v128q-13 -10 -41.5 -18.5t-65 -15t-73 -12t-64.5 -8.5q-57 -8 -103.5 -26.5t-73.5 -50t-27 -82.5q0 -47 24 -79t66 -48.5t98 -16.5
zM472 1245l144 306h254l-210 -306h-188z" />
    <glyph glyph-name="acircumflex" unicode="&#xe2;" horiz-adv-x="1161" 
d="M447 -22q-106 0 -190.5 38t-133.5 112t-49 183q0 94 35 155t95.5 97.5t136.5 55.5t157 27q98 11 158 19t87.5 26t27.5 55v6q0 53 -22.5 90.5t-65.5 57.5t-107 20q-63 0 -110.5 -19.5t-77 -52t-41.5 -71.5l-241 38q27 101 93.5 168.5t163 102t214.5 34.5q84 0 164.5 -20
t145.5 -64.5t103.5 -117t38.5 -177.5v-741h-249v153h-9q-24 -47 -67 -87t-106.5 -64t-150.5 -24zM513 170q80 0 138.5 31.5t90 83.5t31.5 114v128q-13 -10 -41.5 -18.5t-65 -15t-73 -12t-64.5 -8.5q-57 -8 -103.5 -26.5t-73.5 -50t-27 -82.5q0 -47 24 -79t66 -48.5t98 -16.5
zM431 1257h-228v7l263 287h211l265 -287v-7h-229l-141 172z" />
    <glyph glyph-name="atilde" unicode="&#xe3;" horiz-adv-x="1161" 
d="M447 -22q-106 0 -190.5 38t-133.5 112t-49 183q0 94 35 155t95.5 97.5t136.5 55.5t157 27q98 11 158 19t87.5 26t27.5 55v6q0 53 -22.5 90.5t-65.5 57.5t-107 20q-63 0 -110.5 -19.5t-77 -52t-41.5 -71.5l-241 38q27 101 93.5 168.5t163 102t214.5 34.5q84 0 164.5 -20
t145.5 -64.5t103.5 -117t38.5 -177.5v-741h-249v153h-9q-24 -47 -67 -87t-106.5 -64t-150.5 -24zM513 170q80 0 138.5 31.5t90 83.5t31.5 114v128q-13 -10 -41.5 -18.5t-65 -15t-73 -12t-64.5 -8.5q-57 -8 -103.5 -26.5t-73.5 -50t-27 -82.5q0 -47 24 -79t66 -48.5t98 -16.5
zM709 1279q-44 0 -81 14.5t-67.5 33.5t-56 33.5t-47.5 14.5q-30 0 -45 -26t-17 -65h-151q3 115 53.5 180t138.5 65q45 0 80.5 -14.5t65 -33.5t55 -33.5t51.5 -14.5q31 0 45.5 22.5t17.5 68.5h149q-2 -115 -54.5 -180t-136.5 -65z" />
    <glyph glyph-name="adieresis" unicode="&#xe4;" horiz-adv-x="1161" 
d="M447 -22q-106 0 -190.5 38t-133.5 112t-49 183q0 94 35 155t95.5 97.5t136.5 55.5t157 27q98 11 158 19t87.5 26t27.5 55v6q0 53 -22.5 90.5t-65.5 57.5t-107 20q-63 0 -110.5 -19.5t-77 -52t-41.5 -71.5l-241 38q27 101 93.5 168.5t163 102t214.5 34.5q84 0 164.5 -20
t145.5 -64.5t103.5 -117t38.5 -177.5v-741h-249v153h-9q-24 -47 -67 -87t-106.5 -64t-150.5 -24zM513 170q80 0 138.5 31.5t90 83.5t31.5 114v128q-13 -10 -41.5 -18.5t-65 -15t-73 -12t-64.5 -8.5q-57 -8 -103.5 -26.5t-73.5 -50t-27 -82.5q0 -47 24 -79t66 -48.5t98 -16.5
zM790 1267q-59 0 -100 40.5t-41 97.5q0 58 41 98t100 40t99.5 -40t40.5 -98q0 -57 -40.5 -97.5t-99.5 -40.5zM354 1267q-59 0 -100 40.5t-41 97.5q0 58 41 98t100 40t100 -40t41 -98q0 -57 -41 -97.5t-100 -40.5z" />
    <glyph glyph-name="aring" unicode="&#xe5;" horiz-adv-x="1161" 
d="M447 -22q-106 0 -190.5 38t-133.5 112t-49 183q0 94 35 155t95.5 97.5t136.5 55.5t157 27q98 11 158 19t87.5 26t27.5 55v6q0 53 -22.5 90.5t-65.5 57.5t-107 20q-63 0 -110.5 -19.5t-77 -52t-41.5 -71.5l-241 38q27 101 93.5 168.5t163 102t214.5 34.5q84 0 164.5 -20
t145.5 -64.5t103.5 -117t38.5 -177.5v-741h-249v153h-9q-24 -47 -67 -87t-106.5 -64t-150.5 -24zM513 170q80 0 138.5 31.5t90 83.5t31.5 114v128q-13 -10 -41.5 -18.5t-65 -15t-73 -12t-64.5 -8.5q-57 -8 -103.5 -26.5t-73.5 -50t-27 -82.5q0 -47 24 -79t66 -48.5t98 -16.5
zM572 1182q-73 0 -133.5 33.5t-96.5 90.5t-36 127t36 126.5t96.5 90t133.5 33.5q74 0 134.5 -33.5t96 -90t35.5 -126.5t-35.5 -127t-96 -90.5t-134.5 -33.5zM572 1314q50 0 84.5 34.5t34.5 84.5q0 49 -34.5 83t-84.5 34q-49 0 -83.5 -34t-34.5 -83q0 -50 34.5 -84.5
t83.5 -34.5z" />
    <glyph glyph-name="ae" unicode="&#xe6;" horiz-adv-x="1854" 
d="M462 -21q-115 0 -202.5 38t-136.5 112.5t-49 181.5q0 93 40.5 159t111 107t160.5 60.5t189 19.5h1032l-84 -55q7 94 -22.5 164.5t-88.5 110.5t-144 40q-84 0 -144.5 -39t-92.5 -106.5t-32 -151.5v-119q0 -104 35 -175.5t99 -108.5t150 -37q59 0 106 17t80.5 50t50.5 80
l242 -23q-22 -98 -87.5 -171.5t-166 -114.5t-229.5 -41q-112 0 -203 34.5t-154.5 96.5t-95.5 146l16 616q41 77 102.5 133.5t142 86.5t179.5 30q106 0 198 -34.5t162 -104t109.5 -175t39.5 -247.5v-78h-1195q-77 0 -134.5 -19.5t-89 -56.5t-31.5 -88q0 -73 52.5 -110
t135.5 -37q80 0 138 31.5t89 83.5t31 114v353q0 52 -22.5 90t-65.5 58t-107 20q-63 0 -110.5 -19.5t-77 -52t-41.5 -71.5l-241 38q27 99 93 166.5t162.5 103t213.5 35.5q105 0 187.5 -32.5t136.5 -100t70 -173.5l-21 -603h-57q-21 -56 -63.5 -99t-100 -73t-125.5 -45
t-140 -15z" />
    <glyph glyph-name="ccedilla" unicode="&#xe7;" horiz-adv-x="1176" 
d="M613 -23q-161 0 -280 71.5t-184.5 200.5t-65.5 299q0 171 65.5 300t184.5 200.5t280 71.5q95 0 176 -25t144 -72.5t104.5 -114.5t57.5 -150l-245 -39q-9 43 -29.5 78t-50 60t-68.5 39t-87 14q-89 0 -148.5 -47t-90 -128.5t-30.5 -186.5q0 -103 30.5 -184.5t90 -128.5
t148.5 -47q48 0 87.5 14t69.5 39.5t50.5 62.5t29.5 82l245 -40q-15 -85 -57 -152.5t-105 -116t-144.5 -74.5t-177.5 -26zM491 -418v115h123q49 0 70 14.5t21 48.5q0 33 -21 47.5t-70 14.5h-87l34 223h109v-45l-3 -86q94 1 143.5 -40.5t49.5 -119.5q0 -90 -58 -131t-178 -41
h-133z" />
    <glyph glyph-name="egrave" unicode="&#xe8;" horiz-adv-x="1194" 
d="M620 -23q-166 0 -286.5 71t-185.5 199t-65 300q0 169 64.5 298.5t182 202t274.5 72.5q105 0 197.5 -34.5t163 -104t110.5 -175t40 -247.5v-78h-914v176h785l-120 -51q0 94 -30 164t-87.5 108.5t-142.5 38.5q-84 0 -144 -39t-91.5 -106.5t-31.5 -151.5v-119
q0 -103 35 -175t99.5 -109t150.5 -37q58 0 105 17t80.5 49.5t50.5 79.5l238 -38q-25 -93 -90.5 -163t-164.5 -109t-223 -39zM510 1245l-209 306h254l144 -306h-189z" />
    <glyph glyph-name="eacute" unicode="&#xe9;" horiz-adv-x="1194" 
d="M620 -23q-166 0 -286.5 71t-185.5 199t-65 300q0 169 64.5 298.5t182 202t274.5 72.5q105 0 197.5 -34.5t163 -104t110.5 -175t40 -247.5v-78h-914v176h785l-120 -51q0 94 -30 164t-87.5 108.5t-142.5 38.5q-84 0 -144 -39t-91.5 -106.5t-31.5 -151.5v-119
q0 -103 35 -175t99.5 -109t150.5 -37q58 0 105 17t80.5 49.5t50.5 79.5l238 -38q-25 -93 -90.5 -163t-164.5 -109t-223 -39zM501 1245l144 306h254l-210 -306h-188z" />
    <glyph glyph-name="ecircumflex" unicode="&#xea;" horiz-adv-x="1194" 
d="M620 -23q-166 0 -286.5 71t-185.5 199t-65 300q0 169 64.5 298.5t182 202t274.5 72.5q105 0 197.5 -34.5t163 -104t110.5 -175t40 -247.5v-78h-914v176h785l-120 -51q0 94 -30 164t-87.5 108.5t-142.5 38.5q-84 0 -144 -39t-91.5 -106.5t-31.5 -151.5v-119
q0 -103 35 -175t99.5 -109t150.5 -37q58 0 105 17t80.5 49.5t50.5 79.5l238 -38q-25 -93 -90.5 -163t-164.5 -109t-223 -39zM459 1257h-228v7l263 287h211l265 -287v-7h-229l-141 172z" />
    <glyph glyph-name="edieresis" unicode="&#xeb;" horiz-adv-x="1194" 
d="M620 -23q-166 0 -286.5 71t-185.5 199t-65 300q0 169 64.5 298.5t182 202t274.5 72.5q105 0 197.5 -34.5t163 -104t110.5 -175t40 -247.5v-78h-914v176h785l-120 -51q0 94 -30 164t-87.5 108.5t-142.5 38.5q-84 0 -144 -39t-91.5 -106.5t-31.5 -151.5v-119
q0 -103 35 -175t99.5 -109t150.5 -37q58 0 105 17t80.5 49.5t50.5 79.5l238 -38q-25 -93 -90.5 -163t-164.5 -109t-223 -39zM819 1267q-59 0 -100 40.5t-41 97.5q0 58 41 98t100 40t99.5 -40t40.5 -98q0 -57 -40.5 -97.5t-99.5 -40.5zM383 1267q-59 0 -100 40.5t-41 97.5
q0 58 41 98t100 40t100 -40t41 -98q0 -57 -41 -97.5t-100 -40.5z" />
    <glyph glyph-name="igrave" unicode="&#xec;" horiz-adv-x="522" 
d="M132 0v1104h258v-1104h-258zM171 1245l-209 306h254l144 -306h-189z" />
    <glyph glyph-name="iacute" unicode="&#xed;" horiz-adv-x="522" 
d="M132 0v1104h258v-1104h-258zM162 1245l144 306h254l-210 -306h-188z" />
    <glyph glyph-name="icircumflex" unicode="&#xee;" horiz-adv-x="522" 
d="M132 0v1104h258v-1104h-258zM120 1257h-228v7l263 287h211l265 -287v-7h-229l-141 172z" />
    <glyph glyph-name="idieresis" unicode="&#xef;" horiz-adv-x="522" 
d="M132 0v1104h258v-1104h-258zM480 1267q-59 0 -100 40.5t-41 97.5q0 58 41 98t100 40t99.5 -40t40.5 -98q0 -57 -40.5 -97.5t-99.5 -40.5zM44 1267q-59 0 -100 40.5t-41 97.5q0 58 41 98t100 40t100 -40t41 -98q0 -57 -41 -97.5t-100 -40.5z" />
    <glyph glyph-name="eth" unicode="&#xf0;" horiz-adv-x="1203" 
d="M952 1408l-651 -326l-30 129l650 325zM599 -24q-156 1 -272 69t-180 188.5t-64 278.5q0 152 58.5 271.5t160.5 188t232 68.5q74 0 132 -23t100 -58t69 -74h16q-42 99 -121 198.5t-192.5 188t-259.5 154.5l47 149q150 -48 292 -138.5t255.5 -219.5t180.5 -293.5t67 -360.5
q0 -181 -64 -312.5t-181 -202.5t-276 -72zM604 183q88 1 148.5 43.5t92.5 118t32 171.5q0 90 -29 169t-89 128.5t-155 49.5q-91 0 -150.5 -45t-89.5 -122t-30 -173q0 -93 29 -170.5t89 -123t152 -46.5z" />
    <glyph glyph-name="ntilde" unicode="&#xf1;" horiz-adv-x="1235" 
d="M390 642v-642h-258v1104h247l3 -274h-27q47 144 138.5 217t228.5 73q114 0 200 -49t133.5 -143t47.5 -229v-699h-258v659q0 114 -57.5 177t-160.5 63q-68 0 -121.5 -29.5t-84.5 -86.5t-31 -141zM754 1279q-44 0 -81 14.5t-67.5 33.5t-56 33.5t-47.5 14.5q-30 0 -45 -26
t-17 -65h-151q3 115 53.5 180t138.5 65q45 0 80.5 -14.5t65 -33.5t55 -33.5t51.5 -14.5q31 0 45.5 22.5t17.5 68.5h149q-2 -115 -54.5 -180t-136.5 -65z" />
    <glyph glyph-name="ograve" unicode="&#xf2;" horiz-adv-x="1229" 
d="M614 -23q-161 0 -280.5 71.5t-185 200t-65.5 299.5t65.5 300t185 200.5t280.5 71.5q162 0 281.5 -71.5t185 -200.5t65.5 -300t-65.5 -299.5t-185 -200t-281.5 -71.5zM614 188q89 0 149 47.5t90.5 129t30.5 183.5q0 104 -30.5 185.5t-90.5 128.5t-149 47q-88 0 -148 -47
t-90 -128.5t-30 -185.5q0 -102 30 -183.5t90 -129t148 -47.5zM524 1245l-209 306h254l144 -306h-189z" />
    <glyph glyph-name="oacute" unicode="&#xf3;" horiz-adv-x="1229" 
d="M614 -23q-161 0 -280.5 71.5t-185 200t-65.5 299.5t65.5 300t185 200.5t280.5 71.5q162 0 281.5 -71.5t185 -200.5t65.5 -300t-65.5 -299.5t-185 -200t-281.5 -71.5zM614 188q89 0 149 47.5t90.5 129t30.5 183.5q0 104 -30.5 185.5t-90.5 128.5t-149 47q-88 0 -148 -47
t-90 -128.5t-30 -185.5q0 -102 30 -183.5t90 -129t148 -47.5zM514 1245l144 306h254l-210 -306h-188z" />
    <glyph glyph-name="ocircumflex" unicode="&#xf4;" horiz-adv-x="1229" 
d="M614 -23q-161 0 -280.5 71.5t-185 200t-65.5 299.5t65.5 300t185 200.5t280.5 71.5q162 0 281.5 -71.5t185 -200.5t65.5 -300t-65.5 -299.5t-185 -200t-281.5 -71.5zM614 188q89 0 149 47.5t90.5 129t30.5 183.5q0 104 -30.5 185.5t-90.5 128.5t-149 47q-88 0 -148 -47
t-90 -128.5t-30 -185.5q0 -102 30 -183.5t90 -129t148 -47.5zM473 1257h-228v7l263 287h211l265 -287v-7h-229l-141 172z" />
    <glyph glyph-name="otilde" unicode="&#xf5;" horiz-adv-x="1229" 
d="M614 -23q-161 0 -280.5 71.5t-185 200t-65.5 299.5t65.5 300t185 200.5t280.5 71.5q162 0 281.5 -71.5t185 -200.5t65.5 -300t-65.5 -299.5t-185 -200t-281.5 -71.5zM614 188q89 0 149 47.5t90.5 129t30.5 183.5q0 104 -30.5 185.5t-90.5 128.5t-149 47q-88 0 -148 -47
t-90 -128.5t-30 -185.5q0 -102 30 -183.5t90 -129t148 -47.5zM751 1279q-44 0 -81 14.5t-67.5 33.5t-56 33.5t-47.5 14.5q-30 0 -45 -26t-17 -65h-151q3 115 53.5 180t138.5 65q45 0 80.5 -14.5t65 -33.5t55 -33.5t51.5 -14.5q31 0 45.5 22.5t17.5 68.5h149
q-2 -115 -54.5 -180t-136.5 -65z" />
    <glyph glyph-name="odieresis" unicode="&#xf6;" horiz-adv-x="1229" 
d="M614 -23q-161 0 -280.5 71.5t-185 200t-65.5 299.5t65.5 300t185 200.5t280.5 71.5q162 0 281.5 -71.5t185 -200.5t65.5 -300t-65.5 -299.5t-185 -200t-281.5 -71.5zM614 188q89 0 149 47.5t90.5 129t30.5 183.5q0 104 -30.5 185.5t-90.5 128.5t-149 47q-88 0 -148 -47
t-90 -128.5t-30 -185.5q0 -102 30 -183.5t90 -129t148 -47.5zM832 1267q-59 0 -100 40.5t-41 97.5q0 58 41 98t100 40t99.5 -40t40.5 -98q0 -57 -40.5 -97.5t-99.5 -40.5zM396 1267q-59 0 -100 40.5t-41 97.5q0 58 41 98t100 40t100 -40t41 -98q0 -57 -41 -97.5t-100 -40.5z
" />
    <glyph glyph-name="divide" unicode="&#xf7;" horiz-adv-x="1366" 
d="M1177 699v-217h-987v217h987zM683 38q-66 0 -112.5 46.5t-46.5 113.5q0 64 46.5 110t112.5 46q65 0 111 -46t46 -110q0 -67 -46 -113.5t-111 -46.5zM683 828q-66 -1 -112.5 45.5t-46.5 113.5q0 65 46.5 111t112.5 46q65 0 111 -46t46 -111q0 -67 -46 -113.5t-111 -45.5z
" />
    <glyph glyph-name="oslash" unicode="&#xf8;" horiz-adv-x="1229" 
d="M614 -23q-161 0 -280.5 71.5t-185 200t-65.5 299.5t65.5 300t185 200.5t280.5 71.5q162 0 281.5 -71.5t185 -200.5t65.5 -300t-65.5 -299.5t-185 -200t-281.5 -71.5zM614 188q89 0 149 47.5t90.5 129t30.5 183.5q0 104 -30.5 185.5t-90.5 128.5t-149 47q-88 0 -148 -47
t-90 -128.5t-30 -185.5q0 -102 30 -183.5t90 -129t148 -47.5zM181 -46l-106 92l972 1104l106 -92z" />
    <glyph glyph-name="ugrave" unicode="&#xf9;" horiz-adv-x="1236" 
d="M514 -16q-114 0 -200 49t-134 143t-48 229v699h258v-659q0 -114 58 -177t160 -63q69 0 122.5 29.5t84 87.5t30.5 140v642h259v-1104h-248l-2 275h26q-47 -145 -139 -218t-227 -73zM527 1245l-209 306h254l144 -306h-189z" />
    <glyph glyph-name="uacute" unicode="&#xfa;" horiz-adv-x="1236" 
d="M514 -16q-114 0 -200 49t-134 143t-48 229v699h258v-659q0 -114 58 -177t160 -63q69 0 122.5 29.5t84 87.5t30.5 140v642h259v-1104h-248l-2 275h26q-47 -145 -139 -218t-227 -73zM518 1245l144 306h254l-210 -306h-188z" />
    <glyph glyph-name="ucircumflex" unicode="&#xfb;" horiz-adv-x="1236" 
d="M514 -16q-114 0 -200 49t-134 143t-48 229v699h258v-659q0 -114 58 -177t160 -63q69 0 122.5 29.5t84 87.5t30.5 140v642h259v-1104h-248l-2 275h26q-47 -145 -139 -218t-227 -73zM477 1257h-228v7l263 287h211l265 -287v-7h-229l-141 172z" />
    <glyph glyph-name="udieresis" unicode="&#xfc;" horiz-adv-x="1236" 
d="M514 -16q-114 0 -200 49t-134 143t-48 229v699h258v-659q0 -114 58 -177t160 -63q69 0 122.5 29.5t84 87.5t30.5 140v642h259v-1104h-248l-2 275h26q-47 -145 -139 -218t-227 -73zM836 1267q-59 0 -100 40.5t-41 97.5q0 58 41 98t100 40t99.5 -40t40.5 -98
q0 -57 -40.5 -97.5t-99.5 -40.5zM400 1267q-59 0 -100 40.5t-41 97.5q0 58 41 98t100 40t100 -40t41 -98q0 -57 -41 -97.5t-100 -40.5z" />
    <glyph glyph-name="yacute" unicode="&#xfd;" horiz-adv-x="1183" 
d="M128 -403l47 203l52 -6q53 -12 94 -4t69 39.5t42 90.5l21 78l-419 1106h276l202 -595q35 -103 58.5 -206t51.5 -209h-69q27 106 54 209.5t62 205.5l207 595h273l-478 -1254q-34 -88 -84 -149.5t-120.5 -93t-166.5 -31.5q-52 0 -97.5 6t-74.5 15zM491 1245l144 306h254
l-210 -306h-188z" />
    <glyph glyph-name="thorn" unicode="&#xfe;" horiz-adv-x="1262" 
d="M718 -21q-90 0 -152.5 30t-102.5 74.5t-63 89.5h-9v-591h-259v1908h259v-563h9q23 44 62 88.5t102 74.5t155 30q131 0 235 -67t164.5 -194t60.5 -309q0 -179 -59.5 -306.5t-163.5 -196t-238 -68.5zM650 193q86 0 144.5 45.5t89.5 126.5t31 186q0 106 -30.5 186t-89.5 125
t-145 45q-85 0 -144.5 -44t-90.5 -124t-31 -188q0 -107 31 -187.5t91 -125.5t144 -45z" />
    <glyph glyph-name="ydieresis" unicode="&#xff;" horiz-adv-x="1183" 
d="M128 -403l47 203l52 -6q53 -12 94 -4t69 39.5t42 90.5l21 78l-419 1106h276l202 -595q35 -103 58.5 -206t51.5 -209h-69q27 106 54 209.5t62 205.5l207 595h273l-478 -1254q-34 -88 -84 -149.5t-120.5 -93t-166.5 -31.5q-52 0 -97.5 6t-74.5 15zM809 1267
q-59 0 -100 40.5t-41 97.5q0 58 41 98t100 40t99.5 -40t40.5 -98q0 -57 -40.5 -97.5t-99.5 -40.5zM373 1267q-59 0 -100 40.5t-41 97.5q0 58 41 98t100 40t100 -40t41 -98q0 -57 -41 -97.5t-100 -40.5z" />
    <glyph glyph-name="Amacron" unicode="&#x100;" horiz-adv-x="1475" 
d="M42 0l522 1490h338l531 -1490h-292l-264 776q-39 121 -81.5 269.5t-94.5 341.5h60q-51 -194 -92 -343.5t-78 -267.5l-259 -776h-290zM347 366v216h780v-216h-780zM1022 1873v-174h-570v174h570z" />
    <glyph glyph-name="amacron" unicode="&#x101;" horiz-adv-x="1161" 
d="M447 -22q-106 0 -190.5 38t-133.5 112t-49 183q0 94 35 155t95.5 97.5t136.5 55.5t157 27q98 11 158 19t87.5 26t27.5 55v6q0 53 -22.5 90.5t-65.5 57.5t-107 20q-63 0 -110.5 -19.5t-77 -52t-41.5 -71.5l-241 38q27 101 93.5 168.5t163 102t214.5 34.5q84 0 164.5 -20
t145.5 -64.5t103.5 -117t38.5 -177.5v-741h-249v153h-9q-24 -47 -67 -87t-106.5 -64t-150.5 -24zM513 170q80 0 138.5 31.5t90 83.5t31.5 114v128q-13 -10 -41.5 -18.5t-65 -15t-73 -12t-64.5 -8.5q-57 -8 -103.5 -26.5t-73.5 -50t-27 -82.5q0 -47 24 -79t66 -48.5t98 -16.5
zM857 1487v-174h-570v174h570z" />
    <glyph glyph-name="Abreve" unicode="&#x102;" horiz-adv-x="1475" 
d="M42 0l522 1490h338l531 -1490h-292l-264 776q-39 121 -81.5 269.5t-94.5 341.5h60q-51 -194 -92 -343.5t-78 -267.5l-259 -776h-290zM347 366v216h780v-216h-780zM736 1633q-92 0 -165.5 40t-117 108.5t-43.5 152.5h161q0 -65 47 -107.5t118 -42.5t118 42.5t47 107.5h161
q0 -84 -43 -152t-116.5 -108.5t-166.5 -40.5z" />
    <glyph glyph-name="abreve" unicode="&#x103;" horiz-adv-x="1161" 
d="M447 -22q-106 0 -190.5 38t-133.5 112t-49 183q0 94 35 155t95.5 97.5t136.5 55.5t157 27q98 11 158 19t87.5 26t27.5 55v6q0 53 -22.5 90.5t-65.5 57.5t-107 20q-63 0 -110.5 -19.5t-77 -52t-41.5 -71.5l-241 38q27 101 93.5 168.5t163 102t214.5 34.5q84 0 164.5 -20
t145.5 -64.5t103.5 -117t38.5 -177.5v-741h-249v153h-9q-24 -47 -67 -87t-106.5 -64t-150.5 -24zM513 170q80 0 138.5 31.5t90 83.5t31.5 114v128q-13 -10 -41.5 -18.5t-65 -15t-73 -12t-64.5 -8.5q-57 -8 -103.5 -26.5t-73.5 -50t-27 -82.5q0 -47 24 -79t66 -48.5t98 -16.5
zM572 1247q-92 0 -165.5 40t-117 108.5t-43.5 152.5h161q0 -65 47 -107.5t118 -42.5t118 42.5t47 107.5h161q0 -84 -43 -152t-116.5 -108.5t-166.5 -40.5z" />
    <glyph glyph-name="Aogonek" unicode="&#x104;" horiz-adv-x="1475" 
d="M42 0l522 1490h338l531 -1490h-292l-264 776q-39 121 -81.5 269.5t-94.5 341.5h60q-51 -194 -92 -343.5t-78 -267.5l-259 -776h-290zM347 366v216h780v-216h-780zM1284 -429q-112 0 -187 53.5t-75 152.5q0 71 40.5 132t105.5 110l265 -19q-77 -46 -118.5 -88.5
t-41.5 -94.5q0 -34 19.5 -53.5t58.5 -19.5q22 0 41 5.5t36 13.5l49 -153q-34 -15 -86.5 -27t-106.5 -12z" />
    <glyph glyph-name="aogonek" unicode="&#x105;" horiz-adv-x="1161" 
d="M447 -22q-106 0 -190.5 38t-133.5 112t-49 183q0 94 35 155t95.5 97.5t136.5 55.5t157 27q98 11 158 19t87.5 26t27.5 55v6q0 53 -22.5 90.5t-65.5 57.5t-107 20q-63 0 -110.5 -19.5t-77 -52t-41.5 -71.5l-241 38q27 101 93.5 168.5t163 102t214.5 34.5q84 0 164.5 -20
t145.5 -64.5t103.5 -117t38.5 -177.5v-741h-249v153h-9q-24 -47 -67 -87t-106.5 -64t-150.5 -24zM513 170q80 0 138.5 31.5t90 83.5t31.5 114v128q-13 -10 -41.5 -18.5t-65 -15t-73 -12t-64.5 -8.5q-57 -8 -103.5 -26.5t-73.5 -50t-27 -82.5q0 -47 24 -79t66 -48.5t98 -16.5
zM884 -424q-111 0 -182 53t-71 151q0 70 39.5 128t109.5 108l249 -16q-77 -46 -119 -86t-42 -92q0 -34 19.5 -53.5t58.5 -19.5q23 0 42.5 6t34.5 13l49 -153q-34 -15 -83 -27t-105 -12z" />
    <glyph glyph-name="Cacute" unicode="&#x106;" horiz-adv-x="1503" 
d="M782 -21q-197 0 -352.5 92t-244.5 263.5t-89 409.5q0 240 89.5 411.5t245 263.5t351.5 92q124 0 231 -35.5t190.5 -102.5t137.5 -163.5t72 -218.5h-269q-13 67 -44.5 119t-79 88.5t-107 55t-127.5 18.5q-125 0 -220.5 -62.5t-148.5 -180.5t-53 -285q0 -168 53.5 -286
t148.5 -179t220 -61q68 0 127 18.5t106.5 54.5t80 88.5t45.5 119.5h269q-16 -111 -67.5 -205t-133.5 -165t-191 -110.5t-240 -39.5zM679 1631l144 306h254l-210 -306h-188z" />
    <glyph glyph-name="cacute" unicode="&#x107;" horiz-adv-x="1176" 
d="M613 -23q-161 0 -280 71.5t-184.5 200.5t-65.5 299q0 171 65.5 300t184.5 200.5t280 71.5q95 0 176 -25t144 -72.5t104.5 -114.5t57.5 -150l-245 -39q-9 43 -29.5 78t-50 60t-68.5 39t-87 14q-89 0 -148.5 -47t-90 -128.5t-30.5 -186.5q0 -103 30.5 -184.5t90 -128.5
t148.5 -47q48 0 87.5 14t69.5 39.5t50.5 62.5t29.5 82l245 -40q-15 -85 -57 -152.5t-105 -116t-144.5 -74.5t-177.5 -26zM513 1245l144 306h254l-210 -306h-188z" />
    <glyph glyph-name="Ccircumflex" unicode="&#x108;" horiz-adv-x="1503" 
d="M782 -21q-197 0 -352.5 92t-244.5 263.5t-89 409.5q0 240 89.5 411.5t245 263.5t351.5 92q124 0 231 -35.5t190.5 -102.5t137.5 -163.5t72 -218.5h-269q-13 67 -44.5 119t-79 88.5t-107 55t-127.5 18.5q-125 0 -220.5 -62.5t-148.5 -180.5t-53 -285q0 -168 53.5 -286
t148.5 -179t220 -61q68 0 127 18.5t106.5 54.5t80 88.5t45.5 119.5h269q-16 -111 -67.5 -205t-133.5 -165t-191 -110.5t-240 -39.5zM637 1643h-228v7l263 287h211l265 -287v-7h-229l-141 172z" />
    <glyph glyph-name="ccircumflex" unicode="&#x109;" horiz-adv-x="1176" 
d="M613 -23q-161 0 -280 71.5t-184.5 200.5t-65.5 299q0 171 65.5 300t184.5 200.5t280 71.5q95 0 176 -25t144 -72.5t104.5 -114.5t57.5 -150l-245 -39q-9 43 -29.5 78t-50 60t-68.5 39t-87 14q-89 0 -148.5 -47t-90 -128.5t-30.5 -186.5q0 -103 30.5 -184.5t90 -128.5
t148.5 -47q48 0 87.5 14t69.5 39.5t50.5 62.5t29.5 82l245 -40q-15 -85 -57 -152.5t-105 -116t-144.5 -74.5t-177.5 -26zM472 1257h-228v7l263 287h211l265 -287v-7h-229l-141 172z" />
    <glyph glyph-name="Cdotaccent" unicode="&#x10a;" horiz-adv-x="1503" 
d="M782 -21q-197 0 -352.5 92t-244.5 263.5t-89 409.5q0 240 89.5 411.5t245 263.5t351.5 92q124 0 231 -35.5t190.5 -102.5t137.5 -163.5t72 -218.5h-269q-13 67 -44.5 119t-79 88.5t-107 55t-127.5 18.5q-125 0 -220.5 -62.5t-148.5 -180.5t-53 -285q0 -168 53.5 -286
t148.5 -179t220 -61q68 0 127 18.5t106.5 54.5t80 88.5t45.5 119.5h269q-16 -111 -67.5 -205t-133.5 -165t-191 -110.5t-240 -39.5zM779 1648q-63 0 -107 42t-44 101q0 60 44 101t107 41t107.5 -41t44.5 -101q0 -59 -44.5 -101t-107.5 -42z" />
    <glyph glyph-name="cdotaccent" unicode="&#x10b;" horiz-adv-x="1176" 
d="M613 -23q-161 0 -280 71.5t-184.5 200.5t-65.5 299q0 171 65.5 300t184.5 200.5t280 71.5q95 0 176 -25t144 -72.5t104.5 -114.5t57.5 -150l-245 -39q-9 43 -29.5 78t-50 60t-68.5 39t-87 14q-89 0 -148.5 -47t-90 -128.5t-30.5 -186.5q0 -103 30.5 -184.5t90 -128.5
t148.5 -47q48 0 87.5 14t69.5 39.5t50.5 62.5t29.5 82l245 -40q-15 -85 -57 -152.5t-105 -116t-144.5 -74.5t-177.5 -26zM613 1262q-63 0 -107 42t-44 101q0 60 44 101t107 41t107.5 -41t44.5 -101q0 -59 -44.5 -101t-107.5 -42z" />
    <glyph glyph-name="Ccaron" unicode="&#x10c;" horiz-adv-x="1503" 
d="M782 -21q-197 0 -352.5 92t-244.5 263.5t-89 409.5q0 240 89.5 411.5t245 263.5t351.5 92q124 0 231 -35.5t190.5 -102.5t137.5 -163.5t72 -218.5h-269q-13 67 -44.5 119t-79 88.5t-107 55t-127.5 18.5q-125 0 -220.5 -62.5t-148.5 -180.5t-53 -285q0 -168 53.5 -286
t148.5 -179t220 -61q68 0 127 18.5t106.5 54.5t80 88.5t45.5 119.5h269q-16 -111 -67.5 -205t-133.5 -165t-191 -110.5t-240 -39.5zM637 1937l141 -171l141 171h229v-6l-265 -288h-211l-263 288v6h228z" />
    <glyph glyph-name="ccaron" unicode="&#x10d;" horiz-adv-x="1176" 
d="M613 -23q-161 0 -280 71.5t-184.5 200.5t-65.5 299q0 171 65.5 300t184.5 200.5t280 71.5q95 0 176 -25t144 -72.5t104.5 -114.5t57.5 -150l-245 -39q-9 43 -29.5 78t-50 60t-68.5 39t-87 14q-89 0 -148.5 -47t-90 -128.5t-30.5 -186.5q0 -103 30.5 -184.5t90 -128.5
t148.5 -47q48 0 87.5 14t69.5 39.5t50.5 62.5t29.5 82l245 -40q-15 -85 -57 -152.5t-105 -116t-144.5 -74.5t-177.5 -26zM472 1551l141 -171l141 171h229v-6l-265 -288h-211l-263 288v6h228z" />
    <glyph glyph-name="Dcaron" unicode="&#x10e;" horiz-adv-x="1467" 
d="M648 0h-377v230h363q158 0 263 58t157.5 173t52.5 286q0 169 -52.5 283t-155.5 172t-257 58h-378v230h394q222 0 381.5 -89.5t245.5 -256t86 -397.5q0 -233 -86 -400t-248 -257t-389 -90zM411 1490v-1490h-267v1490h267zM463 1937l141 -171l141 171h229v-6l-265 -288
h-211l-263 288v6h228z" />
    <glyph glyph-name="dcaron" unicode="&#x10f;" horiz-adv-x="1497" 
d="M543 -21q-133 0 -237 68.5t-163.5 196t-59.5 306.5q0 182 60.5 309t164.5 194t234 67q93 0 155.5 -30t102.5 -74.5t62 -88.5h9v563h258v-1490h-253v174h-13q-23 -46 -63.5 -90.5t-103 -74.5t-153.5 -30zM611 193q85 0 144.5 45t91 125.5t31.5 187.5q0 108 -31 188
t-91 124t-145 44t-144 -45t-89.5 -125t-30.5 -186q0 -105 30.5 -186t90 -126.5t143.5 -45.5zM1260 1182v382h213l-53 -382h-160z" />
    <glyph glyph-name="Dcroat" unicode="&#x110;" horiz-adv-x="1534" 
d="M715 0h-377v230h363q158 0 263 58t157.5 173t52.5 286q0 169 -52.5 283t-155.5 172t-257 58h-378v230h394q222 0 381.5 -89.5t245.5 -256t86 -397.5q0 -233 -86 -400t-248 -257t-389 -90zM478 1490v-1490h-267v1490h267zM20 650v190h799v-190h-799z" />
    <glyph glyph-name="dcroat" unicode="&#x111;" horiz-adv-x="1261" 
d="M543 -21q-133 0 -237 68.5t-163.5 196t-59.5 306.5q0 182 60.5 309t164.5 194t234 67q93 0 155.5 -30t102.5 -74.5t62 -88.5h9v563h258v-1490h-253v174h-13q-23 -46 -63.5 -90.5t-103 -74.5t-153.5 -30zM611 193q85 0 144.5 45t91 125.5t31.5 187.5q0 108 -31 188
t-91 124t-145 44t-144 -45t-89.5 -125t-30.5 -186q0 -105 30.5 -186t90 -126.5t143.5 -45.5zM565 1211v168h700v-168h-700z" />
    <glyph glyph-name="Emacron" unicode="&#x112;" horiz-adv-x="1237" 
d="M144 0v1490h983v-226h-716v-399h663v-223h-663v-416h719v-226h-986zM923 1873v-174h-570v174h570z" />
    <glyph glyph-name="emacron" unicode="&#x113;" horiz-adv-x="1194" 
d="M620 -23q-166 0 -286.5 71t-185.5 199t-65 300q0 169 64.5 298.5t182 202t274.5 72.5q105 0 197.5 -34.5t163 -104t110.5 -175t40 -247.5v-78h-914v176h785l-120 -51q0 94 -30 164t-87.5 108.5t-142.5 38.5q-84 0 -144 -39t-91.5 -106.5t-31.5 -151.5v-119
q0 -103 35 -175t99.5 -109t150.5 -37q58 0 105 17t80.5 49.5t50.5 79.5l238 -38q-25 -93 -90.5 -163t-164.5 -109t-223 -39zM886 1487v-174h-570v174h570z" />
    <glyph glyph-name="Ebreve" unicode="&#x114;" horiz-adv-x="1237" 
d="M144 0v1490h983v-226h-716v-399h663v-223h-663v-416h719v-226h-986zM637 1633q-92 0 -165.5 40t-117 108.5t-43.5 152.5h161q0 -65 47 -107.5t118 -42.5t118 42.5t47 107.5h161q0 -84 -43 -152t-116.5 -108.5t-166.5 -40.5z" />
    <glyph glyph-name="ebreve" unicode="&#x115;" horiz-adv-x="1194" 
d="M620 -23q-166 0 -286.5 71t-185.5 199t-65 300q0 169 64.5 298.5t182 202t274.5 72.5q105 0 197.5 -34.5t163 -104t110.5 -175t40 -247.5v-78h-914v176h785l-120 -51q0 94 -30 164t-87.5 108.5t-142.5 38.5q-84 0 -144 -39t-91.5 -106.5t-31.5 -151.5v-119
q0 -103 35 -175t99.5 -109t150.5 -37q58 0 105 17t80.5 49.5t50.5 79.5l238 -38q-25 -93 -90.5 -163t-164.5 -109t-223 -39zM600 1247q-92 0 -165.5 40t-117 108.5t-43.5 152.5h161q0 -65 47 -107.5t118 -42.5t118 42.5t47 107.5h161q0 -84 -43 -152t-116.5 -108.5
t-166.5 -40.5z" />
    <glyph glyph-name="Edotaccent" unicode="&#x116;" horiz-adv-x="1237" 
d="M144 0v1490h983v-226h-716v-399h663v-223h-663v-416h719v-226h-986zM638 1648q-63 0 -107 42t-44 101q0 60 44 101t107 41t107.5 -41t44.5 -101q0 -59 -44.5 -101t-107.5 -42z" />
    <glyph glyph-name="edotaccent" unicode="&#x117;" horiz-adv-x="1194" 
d="M620 -23q-166 0 -286.5 71t-185.5 199t-65 300q0 169 64.5 298.5t182 202t274.5 72.5q105 0 197.5 -34.5t163 -104t110.5 -175t40 -247.5v-78h-914v176h785l-120 -51q0 94 -30 164t-87.5 108.5t-142.5 38.5q-84 0 -144 -39t-91.5 -106.5t-31.5 -151.5v-119
q0 -103 35 -175t99.5 -109t150.5 -37q58 0 105 17t80.5 49.5t50.5 79.5l238 -38q-25 -93 -90.5 -163t-164.5 -109t-223 -39zM600 1262q-63 0 -107 42t-44 101q0 60 44 101t107 41t107.5 -41t44.5 -101q0 -59 -44.5 -101t-107.5 -42z" />
    <glyph glyph-name="Eogonek" unicode="&#x118;" horiz-adv-x="1237" 
d="M144 0v1490h983v-226h-716v-399h663v-223h-663v-416h719v-226h-986zM985 -429q-111 0 -182 53t-71 151q0 72 41 135.5t117 115.5l240 -26q-77 -45 -119 -87.5t-42 -95.5q0 -34 19.5 -53.5t58.5 -19.5q22 0 41.5 5.5t35.5 13.5l49 -153q-34 -15 -83 -27t-105 -12z" />
    <glyph glyph-name="eogonek" unicode="&#x119;" horiz-adv-x="1194" 
d="M620 -23q-166 0 -286.5 71t-185.5 199t-65 300q0 169 64.5 298.5t182 202t274.5 72.5q105 0 197.5 -34.5t163 -104t110.5 -175t40 -247.5v-78h-914v176h785l-120 -51q0 94 -30 164t-87.5 108.5t-142.5 38.5q-84 0 -144 -39t-91.5 -106.5t-31.5 -151.5v-119
q0 -103 35 -175t99.5 -109t150.5 -37q58 0 105 17t80.5 49.5t50.5 79.5l238 -38q-25 -93 -90.5 -163t-164.5 -109t-223 -39zM888 -429q-113 0 -184 52.5t-71 150.5q0 36 10 69.5t27.5 65.5t41.5 64.5t52 67.5l334 247q-21 -81 -59 -149.5t-77 -125.5t-65.5 -105.5
t-26.5 -90.5q0 -34 19 -53.5t60 -19.5q22 0 41.5 5.5t36.5 13.5l49 -153q-34 -15 -83 -27t-105 -12z" />
    <glyph glyph-name="Ecaron" unicode="&#x11a;" horiz-adv-x="1237" 
d="M144 0v1490h983v-226h-716v-399h663v-223h-663v-416h719v-226h-986zM496 1937l141 -171l141 171h229v-6l-265 -288h-211l-263 288v6h228z" />
    <glyph glyph-name="ecaron" unicode="&#x11b;" horiz-adv-x="1194" 
d="M620 -23q-166 0 -286.5 71t-185.5 199t-65 300q0 169 64.5 298.5t182 202t274.5 72.5q105 0 197.5 -34.5t163 -104t110.5 -175t40 -247.5v-78h-914v176h785l-120 -51q0 94 -30 164t-87.5 108.5t-142.5 38.5q-84 0 -144 -39t-91.5 -106.5t-31.5 -151.5v-119
q0 -103 35 -175t99.5 -109t150.5 -37q58 0 105 17t80.5 49.5t50.5 79.5l238 -38q-25 -93 -90.5 -163t-164.5 -109t-223 -39zM459 1551l141 -171l141 171h229v-6l-265 -288h-211l-263 288v6h228z" />
    <glyph glyph-name="Gcircumflex" unicode="&#x11c;" horiz-adv-x="1527" 
d="M788 -21q-206 0 -361.5 94t-243 265.5t-87.5 404.5q0 239 89.5 411t244.5 264.5t351 92.5q123 0 230.5 -36.5t191.5 -103.5t138 -158.5t71 -202.5h-272q-17 61 -48.5 109t-77 82.5t-103 52.5t-126.5 18q-123 0 -218 -62t-149 -179.5t-54 -285.5q0 -167 53.5 -284.5
t149.5 -180t223 -62.5q114 0 198 44t130.5 125t46.5 190l63 -8h-408v209h604v-179q0 -189 -82 -328.5t-225.5 -215.5t-328.5 -76zM634 1643h-228v7l263 287h211l265 -287v-7h-229l-141 172z" />
    <glyph glyph-name="gcircumflex" unicode="&#x11d;" horiz-adv-x="1264" 
d="M614 -440q-136 0 -236 35.5t-162.5 98t-87.5 142.5l227 61q16 -34 47.5 -66.5t83 -53t127.5 -20.5q120 0 191 58t71 179v200h-16q-23 -45 -62.5 -87t-101.5 -69t-152 -27q-131 0 -235 62.5t-164.5 184t-60.5 297.5q0 179 61 305t165.5 193t234.5 67q92 0 155 -30
t103.5 -75t64.5 -90h11v179h254v-1101q0 -152 -67.5 -250t-184.5 -145.5t-266 -47.5zM612 217q85 0 144.5 41t91 117.5t31.5 182.5q0 105 -31 183.5t-90.5 122.5t-145.5 44q-85 0 -144.5 -45t-90 -123.5t-30.5 -181.5q0 -104 31 -180.5t90 -118.5t144 -42zM470 1257h-228v7
l263 287h211l265 -287v-7h-229l-141 172z" />
    <glyph glyph-name="Gbreve" unicode="&#x11e;" horiz-adv-x="1527" 
d="M788 -21q-206 0 -361.5 94t-243 265.5t-87.5 404.5q0 239 89.5 411t244.5 264.5t351 92.5q123 0 230.5 -36.5t191.5 -103.5t138 -158.5t71 -202.5h-272q-17 61 -48.5 109t-77 82.5t-103 52.5t-126.5 18q-123 0 -218 -62t-149 -179.5t-54 -285.5q0 -167 53.5 -284.5
t149.5 -180t223 -62.5q114 0 198 44t130.5 125t46.5 190l63 -8h-408v209h604v-179q0 -189 -82 -328.5t-225.5 -215.5t-328.5 -76zM775 1633q-92 0 -165.5 40t-117 108.5t-43.5 152.5h161q0 -65 47 -107.5t118 -42.5t118 42.5t47 107.5h161q0 -84 -43 -152t-116.5 -108.5
t-166.5 -40.5z" />
    <glyph glyph-name="gbreve" unicode="&#x11f;" horiz-adv-x="1264" 
d="M614 -440q-136 0 -236 35.5t-162.5 98t-87.5 142.5l227 61q16 -34 47.5 -66.5t83 -53t127.5 -20.5q120 0 191 58t71 179v200h-16q-23 -45 -62.5 -87t-101.5 -69t-152 -27q-131 0 -235 62.5t-164.5 184t-60.5 297.5q0 179 61 305t165.5 193t234.5 67q92 0 155 -30
t103.5 -75t64.5 -90h11v179h254v-1101q0 -152 -67.5 -250t-184.5 -145.5t-266 -47.5zM612 217q85 0 144.5 41t91 117.5t31.5 182.5q0 105 -31 183.5t-90.5 122.5t-145.5 44q-85 0 -144.5 -45t-90 -123.5t-30.5 -181.5q0 -104 31 -180.5t90 -118.5t144 -42zM612 1247
q-92 0 -165.5 40t-117 108.5t-43.5 152.5h161q0 -65 47 -107.5t118 -42.5t118 42.5t47 107.5h161q0 -84 -43 -152t-116.5 -108.5t-166.5 -40.5z" />
    <glyph glyph-name="Gdotaccent" unicode="&#x120;" horiz-adv-x="1527" 
d="M788 -21q-206 0 -361.5 94t-243 265.5t-87.5 404.5q0 239 89.5 411t244.5 264.5t351 92.5q123 0 230.5 -36.5t191.5 -103.5t138 -158.5t71 -202.5h-272q-17 61 -48.5 109t-77 82.5t-103 52.5t-126.5 18q-123 0 -218 -62t-149 -179.5t-54 -285.5q0 -167 53.5 -284.5
t149.5 -180t223 -62.5q114 0 198 44t130.5 125t46.5 190l63 -8h-408v209h604v-179q0 -189 -82 -328.5t-225.5 -215.5t-328.5 -76zM775 1648q-63 0 -107 42t-44 101q0 60 44 101t107 41t107.5 -41t44.5 -101q0 -59 -44.5 -101t-107.5 -42z" />
    <glyph glyph-name="gdotaccent" unicode="&#x121;" horiz-adv-x="1264" 
d="M614 -440q-136 0 -236 35.5t-162.5 98t-87.5 142.5l227 61q16 -34 47.5 -66.5t83 -53t127.5 -20.5q120 0 191 58t71 179v200h-16q-23 -45 -62.5 -87t-101.5 -69t-152 -27q-131 0 -235 62.5t-164.5 184t-60.5 297.5q0 179 61 305t165.5 193t234.5 67q92 0 155 -30
t103.5 -75t64.5 -90h11v179h254v-1101q0 -152 -67.5 -250t-184.5 -145.5t-266 -47.5zM612 217q85 0 144.5 41t91 117.5t31.5 182.5q0 105 -31 183.5t-90.5 122.5t-145.5 44q-85 0 -144.5 -45t-90 -123.5t-30.5 -181.5q0 -104 31 -180.5t90 -118.5t144 -42zM612 1262
q-63 0 -107 42t-44 101q0 60 44 101t107 41t107.5 -41t44.5 -101q0 -59 -44.5 -101t-107.5 -42z" />
    <glyph glyph-name="uni0122" unicode="&#x122;" horiz-adv-x="1527" 
d="M788 -21q-206 0 -361.5 94t-243 265.5t-87.5 404.5q0 239 89.5 411t244.5 264.5t351 92.5q123 0 230.5 -36.5t191.5 -103.5t138 -158.5t71 -202.5h-272q-17 61 -48.5 109t-77 82.5t-103 52.5t-126.5 18q-123 0 -218 -62t-149 -179.5t-54 -285.5q0 -167 53.5 -284.5
t149.5 -180t223 -62.5q114 0 198 44t130.5 125t46.5 190l63 -8h-408v209h604v-179q0 -189 -82 -328.5t-225.5 -215.5t-328.5 -76zM562 -483l87 365h246l-147 -365h-186z" />
    <glyph glyph-name="uni0123" unicode="&#x123;" horiz-adv-x="1264" 
d="M614 -440q-136 0 -236 35.5t-162.5 98t-87.5 142.5l227 61q16 -34 47.5 -66.5t83 -53t127.5 -20.5q120 0 191 58t71 179v200h-16q-23 -45 -62.5 -87t-101.5 -69t-152 -27q-131 0 -235 62.5t-164.5 184t-60.5 297.5q0 179 61 305t165.5 193t234.5 67q92 0 155 -30
t103.5 -75t64.5 -90h11v179h254v-1101q0 -152 -67.5 -250t-184.5 -145.5t-266 -47.5zM612 217q85 0 144.5 41t91 117.5t31.5 182.5q0 105 -31 183.5t-90.5 122.5t-145.5 44q-85 0 -144.5 -45t-90 -123.5t-30.5 -181.5q0 -104 31 -180.5t90 -118.5t144 -42zM515 1222v135
q0 73 20 133t51 105t66 74l137 -73q-32 -50 -57 -111t-25 -139v-124h-192z" />
    <glyph glyph-name="Hcircumflex" unicode="&#x124;" horiz-adv-x="1513" 
d="M144 0v1490h267v-616h691v616h267v-1490h-267v649h-691v-649h-267zM615 1643h-228v7l263 287h211l265 -287v-7h-229l-141 172z" />
    <glyph glyph-name="hcircumflex" unicode="&#x125;" horiz-adv-x="1236" 
d="M390 642v-642h-258v1490h256v-660h-33q47 144 138.5 217t228.5 73q114 0 200 -49t134 -143t48 -229v-699h-259v659q0 114 -57.5 177t-160.5 63q-68 0 -121.5 -29.5t-84.5 -86.5t-31 -141zM118 1643h-228v7l263 287h211l265 -287v-7h-229l-141 172z" />
    <glyph glyph-name="Hbar" unicode="&#x126;" horiz-adv-x="1616" 
d="M1541 1209v-166h-1466v166h1466zM196 0v1490h267v-616h692v616h266v-1490h-266v649h-692v-649h-267z" />
    <glyph glyph-name="hbar" unicode="&#x127;" horiz-adv-x="1236" 
d="M390 642v-642h-258v1490h256v-660h-33q47 144 138.5 217t228.5 73q114 0 200 -49t134 -143t48 -229v-699h-259v659q0 114 -57.5 177t-160.5 63q-68 0 -121.5 -29.5t-84.5 -86.5t-31 -141zM-10 1211v168h700v-168h-700z" />
    <glyph glyph-name="Itilde" unicode="&#x128;" horiz-adv-x="554" 
d="M411 1490v-1490h-267v1490h267zM415 1665q-44 0 -81 14.5t-67.5 33.5t-56 33.5t-47.5 14.5q-30 0 -45 -26t-17 -65h-151q3 115 53.5 180t138.5 65q45 0 80.5 -14.5t65 -33.5t55 -33.5t51.5 -14.5q31 0 45.5 22.5t17.5 68.5h149q-2 -115 -54.5 -180t-136.5 -65z" />
    <glyph glyph-name="itilde" unicode="&#x129;" horiz-adv-x="522" 
d="M132 0v1104h258v-1104h-258zM398 1279q-44 0 -81 14.5t-67.5 33.5t-56 33.5t-47.5 14.5q-30 0 -45 -26t-17 -65h-151q3 115 53.5 180t138.5 65q45 0 80.5 -14.5t65 -33.5t55 -33.5t51.5 -14.5q31 0 45.5 22.5t17.5 68.5h149q-2 -115 -54.5 -180t-136.5 -65z" />
    <glyph glyph-name="Imacron" unicode="&#x12a;" horiz-adv-x="554" 
d="M411 1490v-1490h-267v1490h267zM563 1873v-174h-570v174h570z" />
    <glyph glyph-name="imacron" unicode="&#x12b;" horiz-adv-x="522" 
d="M132 0v1104h258v-1104h-258zM547 1487v-174h-570v174h570z" />
    <glyph glyph-name="Ibreve" unicode="&#x12c;" horiz-adv-x="554" 
d="M411 1490v-1490h-267v1490h267zM277 1633q-92 0 -165.5 40t-117 108.5t-43.5 152.5h161q0 -65 47 -107.5t118 -42.5t118 42.5t47 107.5h161q0 -84 -43 -152t-116.5 -108.5t-166.5 -40.5z" />
    <glyph glyph-name="ibreve" unicode="&#x12d;" horiz-adv-x="522" 
d="M132 0v1104h258v-1104h-258zM261 1247q-92 0 -165.5 40t-117 108.5t-43.5 152.5h161q0 -65 47 -107.5t118 -42.5t118 42.5t47 107.5h161q0 -84 -43 -152t-116.5 -108.5t-166.5 -40.5z" />
    <glyph glyph-name="Iogonek" unicode="&#x12e;" horiz-adv-x="554" 
d="M411 1490v-1490h-267v1490h267zM266 -429q-111 0 -182 53t-71 151q0 72 41 135.5t117 115.5l240 -26q-77 -45 -119 -87.5t-42 -95.5q0 -34 19.5 -53.5t58.5 -19.5q22 0 41.5 5.5t35.5 13.5l49 -153q-34 -15 -83 -27t-105 -12z" />
    <glyph glyph-name="iogonek" unicode="&#x12f;" horiz-adv-x="522" 
d="M132 0v1104h258v-1104h-258zM246 -429q-111 0 -182 53t-71 151q0 72 41 135.5t117 115.5l240 -26q-77 -45 -119 -87.5t-42 -95.5q0 -34 19.5 -53.5t58.5 -19.5q22 0 41.5 5.5t35.5 13.5l49 -153q-34 -15 -83 -27t-105 -12zM261 1262q-63 0 -107 42t-44 101q0 60 44 101
t107 41t107.5 -41t44.5 -101q0 -59 -44.5 -101t-107.5 -42z" />
    <glyph glyph-name="Idotaccent" unicode="&#x130;" horiz-adv-x="554" 
d="M411 1490v-1490h-267v1490h267zM278 1648q-63 0 -107 42t-44 101q0 60 44 101t107 41t107.5 -41t44.5 -101q0 -59 -44.5 -101t-107.5 -42z" />
    <glyph glyph-name="dotlessi" unicode="&#x131;" horiz-adv-x="522" 
d="M132 0v1104h258v-1104h-258z" />
    <glyph glyph-name="IJ" unicode="&#x132;" horiz-adv-x="1730" 
d="M411 1490v-1490h-267v1490h267zM1108 -20q-219 0 -349 119.5t-130 341.5v86h264v-89q0 -116 58.5 -176.5t156.5 -60.5t155.5 60.5t57.5 177.5v1051h265v-1050q0 -221 -129 -340.5t-349 -119.5z" />
    <glyph glyph-name="ij" unicode="&#x133;" horiz-adv-x="1045" 
d="M132 0v1104h258v-1104h-258zM261 1262q-63 0 -107 42t-44 101q0 60 44 101t107 41t107.5 -41t44.5 -101q0 -59 -44.5 -101t-107.5 -42zM654 1104h259v-1179q0 -114 -44 -190.5t-127.5 -114.5t-203.5 -38h-63v211h43q73 0 104.5 35.5t31.5 105.5v1170zM783 1262
q-63 0 -107 42t-44 101q0 60 44 101t107 41t107.5 -41t44.5 -101q0 -59 -44.5 -101t-107.5 -42z" />
    <glyph glyph-name="Jcircumflex" unicode="&#x134;" horiz-adv-x="1175" 
d="M554 -20q-219 0 -349 119.5t-130 341.5v86h264v-89q0 -116 58.5 -176.5t156.5 -60.5t155.5 60.5t57.5 177.5v1051h265v-1050q0 -221 -129 -340.5t-349 -119.5zM758 1643h-228v7l263 287h211l265 -287v-7h-229l-141 172z" />
    <glyph glyph-name="jcircumflex" unicode="&#x135;" horiz-adv-x="523" 
d="M132 1104h259v-1179q0 -114 -44 -190.5t-127.5 -114.5t-203.5 -38h-63v211h43q73 0 104.5 35.5t31.5 105.5v1170zM120 1257h-228v7l263 287h211l265 -287v-7h-229l-141 172z" />
    <glyph glyph-name="uni0136" unicode="&#x136;" horiz-adv-x="1425" 
d="M337 363v271q48 74 95.5 140.5t100 132t113.5 137.5l393 446h330l-631 -712l-20 5zM144 0v1490h267v-443l-4 -359l4 -130v-558h-267zM1066 0l-475 702l166 201l623 -903h-314zM504 -483l87 365h246l-147 -365h-186z" />
    <glyph glyph-name="uni0137" unicode="&#x137;" horiz-adv-x="1151" 
d="M368 347v311h38l405 446h305l-494 -544h-53zM132 0v1490h258v-1490h-258zM831 0l-366 503l175 182l502 -685h-311zM382 -483l87 365h246l-147 -365h-186z" />
    <glyph glyph-name="kgreenlandic" unicode="&#x138;" horiz-adv-x="1145" 
d="M391 1104v-1104h-259v1104h259zM1135 1104l-515 -650h-300l-3 191h167l340 459h311zM811 0l-339 463l182 143l472 -606h-315z" />
    <glyph glyph-name="Lacute" unicode="&#x139;" horiz-adv-x="1151" 
d="M144 0v1490h267v-1264h665v-226h-932zM176 1631l144 306h254l-210 -306h-188z" />
    <glyph glyph-name="lacute" unicode="&#x13a;" horiz-adv-x="522" 
d="M390 1490v-1490h-258v1490h258zM161 1631l144 306h254l-210 -306h-188z" />
    <glyph glyph-name="uni013B" unicode="&#x13b;" horiz-adv-x="1151" 
d="M144 0v1490h267v-1264h665v-226h-932zM397 -483l87 365h246l-147 -365h-186z" />
    <glyph glyph-name="uni013C" unicode="&#x13c;" horiz-adv-x="522" 
d="M390 1490v-1490h-258v1490h258zM51 -483l87 365h246l-147 -365h-186z" />
    <glyph glyph-name="Lcaron" unicode="&#x13d;" horiz-adv-x="1151" 
d="M144 0v1490h267v-1264h665v-226h-932zM645 1182v382h213l-53 -382h-160z" />
    <glyph glyph-name="lcaron" unicode="&#x13e;" horiz-adv-x="758" 
d="M390 1490v-1490h-258v1490h258zM524 1182v382h213l-53 -382h-160z" />
    <glyph glyph-name="Ldot" unicode="&#x13f;" horiz-adv-x="1161" 
d="M147 0v1490h267v-1264h665v-226h-932zM730 726q-63 0 -107 42t-44 101q0 60 44 101t107 41t107.5 -41t44.5 -101q0 -59 -44.5 -101t-107.5 -42z" />
    <glyph glyph-name="ldot" unicode="&#x140;" horiz-adv-x="844" 
d="M390 1490v-1490h-258v1490h258zM672 587q-67 0 -113.5 46t-46.5 112q0 67 46.5 113t113.5 46q66 0 112.5 -46t46.5 -113q0 -66 -46.5 -112t-112.5 -46z" />
    <glyph glyph-name="Lslash" unicode="&#x141;" horiz-adv-x="1225" 
d="M218 0v1490h267v-1264h665v-226h-932zM27 438v238l812 468v-237z" />
    <glyph glyph-name="lslash" unicode="&#x142;" horiz-adv-x="522" 
d="M390 1490v-1490h-258v1490h258zM-22 581v205l565 327v-206z" />
    <glyph glyph-name="Nacute" unicode="&#x143;" horiz-adv-x="1537" 
d="M144 0v1490h298l517 -823q30 -47 65.5 -109.5t74 -139t75.5 -165.5l-30 -15q-7 80 -11.5 167t-7 166t-2.5 131v788h270v-1490h-299l-466 741q-40 64 -79.5 132.5t-85.5 155.5t-108 205l38 8q7 -109 11.5 -206t7 -172.5t2.5 -121.5v-742h-270zM669 1631l144 306h254
l-210 -306h-188z" />
    <glyph glyph-name="nacute" unicode="&#x144;" horiz-adv-x="1235" 
d="M390 642v-642h-258v1104h247l3 -274h-27q47 144 138.5 217t228.5 73q114 0 200 -49t133.5 -143t47.5 -229v-699h-258v659q0 114 -57.5 177t-160.5 63q-68 0 -121.5 -29.5t-84.5 -86.5t-31 -141zM517 1245l144 306h254l-210 -306h-188z" />
    <glyph glyph-name="uni0145" unicode="&#x145;" horiz-adv-x="1537" 
d="M144 0v1490h298l517 -823q30 -47 65.5 -109.5t74 -139t75.5 -165.5l-30 -15q-7 80 -11.5 167t-7 166t-2.5 131v788h270v-1490h-299l-466 741q-40 64 -79.5 132.5t-85.5 155.5t-108 205l38 8q7 -109 11.5 -206t7 -172.5t2.5 -121.5v-742h-270zM559 -483l87 365h246
l-147 -365h-186z" />
    <glyph glyph-name="uni0146" unicode="&#x146;" horiz-adv-x="1235" 
d="M390 642v-642h-258v1104h247l3 -274h-27q47 144 138.5 217t228.5 73q114 0 200 -49t133.5 -143t47.5 -229v-699h-258v659q0 114 -57.5 177t-160.5 63q-68 0 -121.5 -29.5t-84.5 -86.5t-31 -141zM408 -483l87 365h246l-147 -365h-186z" />
    <glyph glyph-name="Ncaron" unicode="&#x147;" horiz-adv-x="1537" 
d="M144 0v1490h298l517 -823q30 -47 65.5 -109.5t74 -139t75.5 -165.5l-30 -15q-7 80 -11.5 167t-7 166t-2.5 131v788h270v-1490h-299l-466 741q-40 64 -79.5 132.5t-85.5 155.5t-108 205l38 8q7 -109 11.5 -206t7 -172.5t2.5 -121.5v-742h-270zM628 1937l141 -171l141 171
h229v-6l-265 -288h-211l-263 288v6h228z" />
    <glyph glyph-name="ncaron" unicode="&#x148;" horiz-adv-x="1235" 
d="M390 642v-642h-258v1104h247l3 -274h-27q47 144 138.5 217t228.5 73q114 0 200 -49t133.5 -143t47.5 -229v-699h-258v659q0 114 -57.5 177t-160.5 63q-68 0 -121.5 -29.5t-84.5 -86.5t-31 -141zM476 1551l141 -171l141 171h229v-6l-265 -288h-211l-263 288v6h228z" />
    <glyph glyph-name="Eng" unicode="&#x14a;" horiz-adv-x="1537" 
d="M921 -418v210q21 -2 44 -3.5t43 -1.5q70 0 97 22.5t27 71.5v246h267v-260q0 -145 -85.5 -220.5t-252.5 -75.5q-42 0 -78.5 3t-61.5 8zM144 0v1490h298l517 -823q30 -47 65.5 -109.5t74 -139t75.5 -165.5l-30 -15q-7 80 -11.5 167t-7 166t-2.5 131v788h270v-1490h-299
l-466 741q-40 64 -79.5 132.5t-85.5 155.5t-108 205l38 8q7 -109 11.5 -206t7 -172.5t2.5 -121.5v-742h-270z" />
    <glyph glyph-name="eng" unicode="&#x14b;" horiz-adv-x="1235" 
d="M631 -418v210q21 -3 46 -4t43 -1q71 0 98 22t27 72v119h259v-133q0 -145 -85 -220.5t-252 -75.5q-41 0 -76 3t-60 8zM390 642v-642h-258v1104h247l3 -274h-27q47 144 138.5 217t228.5 73q114 0 200 -49t133.5 -143t47.5 -229v-699h-258v659q0 114 -57.5 177t-160.5 63
q-68 0 -121.5 -29.5t-84.5 -86.5t-31 -141z" />
    <glyph glyph-name="Omacron" unicode="&#x14c;" horiz-adv-x="1565" 
d="M783 -21q-196 0 -351.5 92t-245.5 263.5t-90 409.5q0 240 90 411.5t245.5 263.5t351.5 92t351 -92t244.5 -263.5t89.5 -411.5q0 -238 -89.5 -409.5t-244.5 -263.5t-351 -92zM783 218q121 0 215.5 60.5t148 178t53.5 287.5q0 171 -53.5 289t-148 178.5t-215.5 60.5
q-122 0 -216.5 -61t-148.5 -178.5t-54 -288.5q0 -170 54 -287t148.5 -178t216.5 -61zM1068 1873v-174h-570v174h570z" />
    <glyph glyph-name="omacron" unicode="&#x14d;" horiz-adv-x="1229" 
d="M614 -23q-161 0 -280.5 71.5t-185 200t-65.5 299.5t65.5 300t185 200.5t280.5 71.5q162 0 281.5 -71.5t185 -200.5t65.5 -300t-65.5 -299.5t-185 -200t-281.5 -71.5zM614 188q89 0 149 47.5t90.5 129t30.5 183.5q0 104 -30.5 185.5t-90.5 128.5t-149 47q-88 0 -148 -47
t-90 -128.5t-30 -185.5q0 -102 30 -183.5t90 -129t148 -47.5zM899 1487v-174h-570v174h570z" />
    <glyph glyph-name="Obreve" unicode="&#x14e;" horiz-adv-x="1565" 
d="M783 -21q-196 0 -351.5 92t-245.5 263.5t-90 409.5q0 240 90 411.5t245.5 263.5t351.5 92t351 -92t244.5 -263.5t89.5 -411.5q0 -238 -89.5 -409.5t-244.5 -263.5t-351 -92zM783 218q121 0 215.5 60.5t148 178t53.5 287.5q0 171 -53.5 289t-148 178.5t-215.5 60.5
q-122 0 -216.5 -61t-148.5 -178.5t-54 -288.5q0 -170 54 -287t148.5 -178t216.5 -61zM782 1633q-92 0 -165.5 40t-117 108.5t-43.5 152.5h161q0 -65 47 -107.5t118 -42.5t118 42.5t47 107.5h161q0 -84 -43 -152t-116.5 -108.5t-166.5 -40.5z" />
    <glyph glyph-name="obreve" unicode="&#x14f;" horiz-adv-x="1229" 
d="M614 -23q-161 0 -280.5 71.5t-185 200t-65.5 299.5t65.5 300t185 200.5t280.5 71.5q162 0 281.5 -71.5t185 -200.5t65.5 -300t-65.5 -299.5t-185 -200t-281.5 -71.5zM614 188q89 0 149 47.5t90.5 129t30.5 183.5q0 104 -30.5 185.5t-90.5 128.5t-149 47q-88 0 -148 -47
t-90 -128.5t-30 -185.5q0 -102 30 -183.5t90 -129t148 -47.5zM614 1247q-92 0 -165.5 40t-117 108.5t-43.5 152.5h161q0 -65 47 -107.5t118 -42.5t118 42.5t47 107.5h161q0 -84 -43 -152t-116.5 -108.5t-166.5 -40.5z" />
    <glyph glyph-name="Ohungarumlaut" unicode="&#x150;" horiz-adv-x="1565" 
d="M783 -21q-196 0 -351.5 92t-245.5 263.5t-90 409.5q0 240 90 411.5t245.5 263.5t351.5 92t351 -92t244.5 -263.5t89.5 -411.5q0 -238 -89.5 -409.5t-244.5 -263.5t-351 -92zM783 218q121 0 215.5 60.5t148 178t53.5 287.5q0 171 -53.5 289t-148 178.5t-215.5 60.5
q-122 0 -216.5 -61t-148.5 -178.5t-54 -288.5q0 -170 54 -287t148.5 -178t216.5 -61zM634 1631h-189l115 306h244zM973 1631h-192l172 306h258z" />
    <glyph glyph-name="ohungarumlaut" unicode="&#x151;" horiz-adv-x="1229" 
d="M614 -23q-161 0 -280.5 71.5t-185 200t-65.5 299.5t65.5 300t185 200.5t280.5 71.5q162 0 281.5 -71.5t185 -200.5t65.5 -300t-65.5 -299.5t-185 -200t-281.5 -71.5zM614 188q89 0 149 47.5t90.5 129t30.5 183.5q0 104 -30.5 185.5t-90.5 128.5t-149 47q-88 0 -148 -47
t-90 -128.5t-30 -185.5q0 -102 30 -183.5t90 -129t148 -47.5zM465 1245h-189l115 306h244zM804 1245h-192l172 306h258z" />
    <glyph glyph-name="OE" unicode="&#x152;" horiz-adv-x="2076" 
d="M798 0q-212 0 -369.5 91.5t-245 259t-87.5 394.5q0 228 87.5 395t245 258.5t368.5 91.5h323v-230h-313q-139 0 -239 -59t-154 -173.5t-54 -282.5q0 -167 54 -282t153.5 -174t238.5 -59h310v-230h-318zM983 0v1490h983v-226h-716v-399h663v-223h-663v-416h720v-226h-987z
" />
    <glyph glyph-name="oe" unicode="&#x153;" horiz-adv-x="2008" 
d="M614 -23q-161 0 -280.5 71.5t-185 200t-65.5 299.5t65.5 300t185 200.5t280.5 71.5q162 0 281.5 -71.5t185 -200.5t65.5 -300t-65.5 -299.5t-185 -200t-281.5 -71.5zM614 188q89 0 149 47.5t90.5 129t30.5 183.5q0 104 -30.5 185.5t-90.5 128.5t-149 47q-88 0 -148 -47
t-90 -128.5t-30 -185.5q0 -102 30 -183.5t90 -129t148 -47.5zM1434 -23q-166 0 -286.5 71t-185.5 199t-65 300q0 169 64.5 298.5t182 202t274.5 72.5q105 0 197.5 -34.5t163 -104t110.5 -175t40 -247.5v-78h-914v176h785l-120 -51q0 94 -30 164t-87.5 108.5t-142.5 38.5
q-84 0 -144 -39t-91.5 -106.5t-31.5 -151.5v-119q0 -103 35 -175t99.5 -109t150.5 -37q58 0 105 17t80.5 49.5t50.5 79.5l238 -38q-25 -93 -90.5 -163t-164.5 -109t-223 -39z" />
    <glyph glyph-name="Racute" unicode="&#x154;" horiz-adv-x="1332" 
d="M144 0v1490h563q169 0 286.5 -59.5t178.5 -167t61 -250.5t-62 -248t-181 -162t-290 -57h-400v221h373q99 0 163 29t95.5 84t31.5 133q0 80 -31.5 136.5t-96 86.5t-163.5 30h-261v-1266h-267zM985 0l-358 675h290l365 -675h-297zM559 1631l144 306h254l-210 -306h-188z
" />
    <glyph glyph-name="racute" unicode="&#x155;" horiz-adv-x="794" 
d="M132 0v1104h250v-184h10q30 96 102 147t170 51q23 0 48.5 -1.5t43.5 -4.5v-236q-16 4 -51.5 8t-70.5 4q-69 0 -124.5 -30t-87.5 -84.5t-32 -129.5v-644h-258zM337 1245l144 306h254l-210 -306h-188z" />
    <glyph glyph-name="uni0156" unicode="&#x156;" horiz-adv-x="1332" 
d="M144 0v1490h563q169 0 286.5 -59.5t178.5 -167t61 -250.5t-62 -248t-181 -162t-290 -57h-400v221h373q99 0 163 29t95.5 84t31.5 133q0 80 -31.5 136.5t-96 86.5t-163.5 30h-261v-1266h-267zM985 0l-358 675h290l365 -675h-297zM470 -483l87 365h246l-147 -365h-186z" />
    <glyph glyph-name="uni0157" unicode="&#x157;" horiz-adv-x="794" 
d="M132 0v1104h250v-184h10q30 96 102 147t170 51q23 0 48.5 -1.5t43.5 -4.5v-236q-16 4 -51.5 8t-70.5 4q-69 0 -124.5 -30t-87.5 -84.5t-32 -129.5v-644h-258zM52 -483l87 365h246l-147 -365h-186z" />
    <glyph glyph-name="Rcaron" unicode="&#x158;" horiz-adv-x="1332" 
d="M144 0v1490h563q169 0 286.5 -59.5t178.5 -167t61 -250.5t-62 -248t-181 -162t-290 -57h-400v221h373q99 0 163 29t95.5 84t31.5 133q0 80 -31.5 136.5t-96 86.5t-163.5 30h-261v-1266h-267zM985 0l-358 675h290l365 -675h-297zM517 1937l141 -171l141 171h229v-6
l-265 -288h-211l-263 288v6h228z" />
    <glyph glyph-name="rcaron" unicode="&#x159;" horiz-adv-x="794" 
d="M132 0v1104h250v-184h10q30 96 102 147t170 51q23 0 48.5 -1.5t43.5 -4.5v-236q-16 4 -51.5 8t-70.5 4q-69 0 -124.5 -30t-87.5 -84.5t-32 -129.5v-644h-258zM296 1551l141 -171l141 171h229v-6l-265 -288h-211l-263 288v6h228z" />
    <glyph glyph-name="Sacute" unicode="&#x15a;" horiz-adv-x="1327" 
d="M671 -23q-175 0 -304 55.5t-200.5 161t-76.5 255.5h262q6 -81 47.5 -135.5t112 -82t158.5 -27.5q89 0 156.5 26.5t106 75.5t38.5 113q0 57 -32.5 95t-93 65t-145.5 48l-167 42q-195 48 -300 146t-105 256q0 132 70.5 231t194 154t280.5 55q161 0 281 -55.5t188 -154.5
t71 -229h-257q-10 101 -86.5 157t-199.5 56q-83 0 -144.5 -26t-95 -70.5t-33.5 -102.5q0 -60 36 -99t95 -64t127 -41l142 -36q90 -21 169.5 -55t140.5 -85t95.5 -121t34.5 -164q0 -133 -67.5 -233t-194 -155.5t-304.5 -55.5zM563 1631l144 306h254l-210 -306h-188z" />
    <glyph glyph-name="sacute" unicode="&#x15b;" horiz-adv-x="1105" 
d="M553 -23q-128 0 -228 37.5t-163 110t-80 176.5l245 36q19 -82 77 -122.5t152 -40.5q95 0 150.5 38t55.5 94q0 48 -37.5 79t-111.5 47l-188 40q-157 34 -235 112t-78 200q0 102 56 177.5t156 117t233 41.5q127 0 219.5 -37.5t149 -105t74.5 -159.5l-233 -35
q-15 60 -66 102t-140 42q-83 0 -137 -36.5t-54 -92.5q0 -49 37 -80t118 -49l190 -40q158 -34 234.5 -108t76.5 -191q0 -106 -60.5 -185t-167 -123.5t-245.5 -44.5zM458 1245l144 306h254l-210 -306h-188z" />
    <glyph glyph-name="Scircumflex" unicode="&#x15c;" horiz-adv-x="1327" 
d="M671 -23q-175 0 -304 55.5t-200.5 161t-76.5 255.5h262q6 -81 47.5 -135.5t112 -82t158.5 -27.5q89 0 156.5 26.5t106 75.5t38.5 113q0 57 -32.5 95t-93 65t-145.5 48l-167 42q-195 48 -300 146t-105 256q0 132 70.5 231t194 154t280.5 55q161 0 281 -55.5t188 -154.5
t71 -229h-257q-10 101 -86.5 157t-199.5 56q-83 0 -144.5 -26t-95 -70.5t-33.5 -102.5q0 -60 36 -99t95 -64t127 -41l142 -36q90 -21 169.5 -55t140.5 -85t95.5 -121t34.5 -164q0 -133 -67.5 -233t-194 -155.5t-304.5 -55.5zM522 1643h-228v7l263 287h211l265 -287v-7h-229
l-141 172z" />
    <glyph glyph-name="scircumflex" unicode="&#x15d;" horiz-adv-x="1105" 
d="M553 -23q-128 0 -228 37.5t-163 110t-80 176.5l245 36q19 -82 77 -122.5t152 -40.5q95 0 150.5 38t55.5 94q0 48 -37.5 79t-111.5 47l-188 40q-157 34 -235 112t-78 200q0 102 56 177.5t156 117t233 41.5q127 0 219.5 -37.5t149 -105t74.5 -159.5l-233 -35
q-15 60 -66 102t-140 42q-83 0 -137 -36.5t-54 -92.5q0 -49 37 -80t118 -49l190 -40q158 -34 234.5 -108t76.5 -191q0 -106 -60.5 -185t-167 -123.5t-245.5 -44.5zM416 1257h-228v7l263 287h211l265 -287v-7h-229l-141 172z" />
    <glyph glyph-name="Scedilla" unicode="&#x15e;" horiz-adv-x="1327" 
d="M671 -23q-175 0 -304 55.5t-200.5 161t-76.5 255.5h262q6 -81 47.5 -135.5t112 -82t158.5 -27.5q89 0 156.5 26.5t106 75.5t38.5 113q0 57 -32.5 95t-93 65t-145.5 48l-167 42q-195 48 -300 146t-105 256q0 132 70.5 231t194 154t280.5 55q161 0 281 -55.5t188 -154.5
t71 -229h-257q-10 101 -86.5 157t-199.5 56q-83 0 -144.5 -26t-95 -70.5t-33.5 -102.5q0 -60 36 -99t95 -64t127 -41l142 -36q90 -21 169.5 -55t140.5 -85t95.5 -121t34.5 -164q0 -133 -67.5 -233t-194 -155.5t-304.5 -55.5zM543 -418v115h123q49 0 70 14.5t21 48.5
q0 33 -21 47.5t-70 14.5h-87l34 223h109v-45l-3 -86q94 1 143.5 -40.5t49.5 -119.5q0 -90 -58 -131t-178 -41h-133z" />
    <glyph glyph-name="scedilla" unicode="&#x15f;" horiz-adv-x="1105" 
d="M553 -23q-128 0 -228 37.5t-163 110t-80 176.5l245 36q19 -82 77 -122.5t152 -40.5q95 0 150.5 38t55.5 94q0 48 -37.5 79t-111.5 47l-188 40q-157 34 -235 112t-78 200q0 102 56 177.5t156 117t233 41.5q127 0 219.5 -37.5t149 -105t74.5 -159.5l-233 -35
q-15 60 -66 102t-140 42q-83 0 -137 -36.5t-54 -92.5q0 -49 37 -80t118 -49l190 -40q158 -34 234.5 -108t76.5 -191q0 -106 -60.5 -185t-167 -123.5t-245.5 -44.5zM438 -418v115h123q49 0 70 14.5t21 48.5q0 33 -21 47.5t-70 14.5h-87l34 223h109v-45l-3 -86
q94 1 143.5 -40.5t49.5 -119.5q0 -90 -58 -131t-178 -41h-133z" />
    <glyph glyph-name="Scaron" unicode="&#x160;" horiz-adv-x="1327" 
d="M671 -23q-175 0 -304 55.5t-200.5 161t-76.5 255.5h262q6 -81 47.5 -135.5t112 -82t158.5 -27.5q89 0 156.5 26.5t106 75.5t38.5 113q0 57 -32.5 95t-93 65t-145.5 48l-167 42q-195 48 -300 146t-105 256q0 132 70.5 231t194 154t280.5 55q161 0 281 -55.5t188 -154.5
t71 -229h-257q-10 101 -86.5 157t-199.5 56q-83 0 -144.5 -26t-95 -70.5t-33.5 -102.5q0 -60 36 -99t95 -64t127 -41l142 -36q90 -21 169.5 -55t140.5 -85t95.5 -121t34.5 -164q0 -133 -67.5 -233t-194 -155.5t-304.5 -55.5zM522 1937l141 -171l141 171h229v-6l-265 -288
h-211l-263 288v6h228z" />
    <glyph glyph-name="scaron" unicode="&#x161;" horiz-adv-x="1105" 
d="M553 -23q-128 0 -228 37.5t-163 110t-80 176.5l245 36q19 -82 77 -122.5t152 -40.5q95 0 150.5 38t55.5 94q0 48 -37.5 79t-111.5 47l-188 40q-157 34 -235 112t-78 200q0 102 56 177.5t156 117t233 41.5q127 0 219.5 -37.5t149 -105t74.5 -159.5l-233 -35
q-15 60 -66 102t-140 42q-83 0 -137 -36.5t-54 -92.5q0 -49 37 -80t118 -49l190 -40q158 -34 234.5 -108t76.5 -191q0 -106 -60.5 -185t-167 -123.5t-245.5 -44.5zM416 1551l141 -171l141 171h229v-6l-265 -288h-211l-263 288v6h228z" />
    <glyph glyph-name="uni021A" unicode="&#x162;" horiz-adv-x="1337" 
d="M75 1264v226h1187v-226h-460v-1264h-266v1264h-461zM548 -418v115h123q49 0 70 14.5t21 48.5q0 33 -21 47.5t-70 14.5h-87l34 223h109v-45l-3 -86q94 1 143.5 -40.5t49.5 -119.5q0 -90 -58 -131t-178 -41h-133z" />
    <glyph glyph-name="uni0163" unicode="&#x163;" horiz-adv-x="722" 
d="M658 1104v-203h-639v203h639zM184 1375h258v-1063q0 -59 25.5 -86t85.5 -27q19 0 49 3t48 6l32 -201q-39 -10 -83 -14.5t-86 -4.5q-161 0 -245 77t-84 222v1088zM331 -418v115h123q49 0 70 14.5t21 48.5q0 33 -21 47.5t-70 14.5h-87l34 223h109v-45l-3 -86
q94 1 143.5 -40.5t49.5 -119.5q0 -90 -58 -131t-178 -41h-133z" />
    <glyph glyph-name="Tcaron" unicode="&#x164;" horiz-adv-x="1337" 
d="M75 1264v226h1187v-226h-460v-1264h-266v1264h-461zM528 1937l141 -171l141 171h229v-6l-265 -288h-211l-263 288v6h228z" />
    <glyph glyph-name="tcaron" unicode="&#x165;" horiz-adv-x="858" 
d="M658 1104v-203h-639v203h639zM184 1375h258v-1063q0 -59 25.5 -86t85.5 -27q19 0 49 3t48 6l32 -201q-39 -10 -83 -14.5t-86 -4.5q-161 0 -245 77t-84 222v1088zM564 1238v382h213l-53 -382h-160z" />
    <glyph glyph-name="Tbar" unicode="&#x166;" horiz-adv-x="1337" 
d="M75 1264v226h1187v-226h-460v-1264h-266v1264h-461zM243 634v190h852v-190h-852z" />
    <glyph glyph-name="tbar" unicode="&#x167;" horiz-adv-x="722" 
d="M658 731v-176h-639v176h639zM658 1104v-203h-639v203h639zM184 1375h258v-1063q0 -59 25.5 -86t85.5 -27q19 0 49 3t48 6l32 -201q-39 -10 -83 -14.5t-86 -4.5q-161 0 -245 77t-84 222v1088z" />
    <glyph glyph-name="Utilde" unicode="&#x168;" horiz-adv-x="1493" 
d="M747 -22q-182 0 -318 68.5t-211 190t-75 280.5v973h265v-951q0 -94 42 -167t117.5 -115t179.5 -42q103 0 179 42t117 115t41 167v951h266v-973q0 -159 -75 -280.5t-210.5 -190t-317.5 -68.5zM884 1665q-44 0 -81 14.5t-67.5 33.5t-56 33.5t-47.5 14.5q-30 0 -45 -26
t-17 -65h-151q3 115 53.5 180t138.5 65q45 0 80.5 -14.5t65 -33.5t55 -33.5t51.5 -14.5q31 0 45.5 22.5t17.5 68.5h149q-2 -115 -54.5 -180t-136.5 -65z" />
    <glyph glyph-name="utilde" unicode="&#x169;" horiz-adv-x="1236" 
d="M514 -16q-114 0 -200 49t-134 143t-48 229v699h258v-659q0 -114 58 -177t160 -63q69 0 122.5 29.5t84 87.5t30.5 140v642h259v-1104h-248l-2 275h26q-47 -145 -139 -218t-227 -73zM755 1279q-44 0 -81 14.5t-67.5 33.5t-56 33.5t-47.5 14.5q-30 0 -45 -26t-17 -65h-151
q3 115 53.5 180t138.5 65q45 0 80.5 -14.5t65 -33.5t55 -33.5t51.5 -14.5q31 0 45.5 22.5t17.5 68.5h149q-2 -115 -54.5 -180t-136.5 -65z" />
    <glyph glyph-name="Umacron" unicode="&#x16a;" horiz-adv-x="1493" 
d="M747 -22q-182 0 -318 68.5t-211 190t-75 280.5v973h265v-951q0 -94 42 -167t117.5 -115t179.5 -42q103 0 179 42t117 115t41 167v951h266v-973q0 -159 -75 -280.5t-210.5 -190t-317.5 -68.5zM1032 1873v-174h-570v174h570z" />
    <glyph glyph-name="umacron" unicode="&#x16b;" horiz-adv-x="1236" 
d="M514 -16q-114 0 -200 49t-134 143t-48 229v699h258v-659q0 -114 58 -177t160 -63q69 0 122.5 29.5t84 87.5t30.5 140v642h259v-1104h-248l-2 275h26q-47 -145 -139 -218t-227 -73zM903 1487v-174h-570v174h570z" />
    <glyph glyph-name="Ubreve" unicode="&#x16c;" horiz-adv-x="1493" 
d="M747 -22q-182 0 -318 68.5t-211 190t-75 280.5v973h265v-951q0 -94 42 -167t117.5 -115t179.5 -42q103 0 179 42t117 115t41 167v951h266v-973q0 -159 -75 -280.5t-210.5 -190t-317.5 -68.5zM746 1633q-92 0 -165.5 40t-117 108.5t-43.5 152.5h161q0 -65 47 -107.5
t118 -42.5t118 42.5t47 107.5h161q0 -84 -43 -152t-116.5 -108.5t-166.5 -40.5z" />
    <glyph glyph-name="ubreve" unicode="&#x16d;" horiz-adv-x="1236" 
d="M514 -16q-114 0 -200 49t-134 143t-48 229v699h258v-659q0 -114 58 -177t160 -63q69 0 122.5 29.5t84 87.5t30.5 140v642h259v-1104h-248l-2 275h26q-47 -145 -139 -218t-227 -73zM618 1247q-92 0 -165.5 40t-117 108.5t-43.5 152.5h161q0 -65 47 -107.5t118 -42.5
t118 42.5t47 107.5h161q0 -84 -43 -152t-116.5 -108.5t-166.5 -40.5z" />
    <glyph glyph-name="Uring" unicode="&#x16e;" horiz-adv-x="1493" 
d="M747 -22q-182 0 -318 68.5t-211 190t-75 280.5v973h265v-951q0 -94 42 -167t117.5 -115t179.5 -42q103 0 179 42t117 115t41 167v951h266v-973q0 -159 -75 -280.5t-210.5 -190t-317.5 -68.5zM746 1551q-76 0 -136 32.5t-95 88t-35 123.5q0 69 35 124t95 87.5t136 32.5
q77 0 137 -32.5t94.5 -87.5t34.5 -124q0 -68 -34.5 -123.5t-94.5 -88t-137 -32.5zM746 1681q51 0 84 32.5t33 81.5t-33 82t-84 33q-50 0 -83.5 -33t-33.5 -82t33.5 -81.5t83.5 -32.5z" />
    <glyph glyph-name="uring" unicode="&#x16f;" horiz-adv-x="1236" 
d="M514 -16q-114 0 -200 49t-134 143t-48 229v699h258v-659q0 -114 58 -177t160 -63q69 0 122.5 29.5t84 87.5t30.5 140v642h259v-1104h-248l-2 275h26q-47 -145 -139 -218t-227 -73zM618 1182q-73 0 -133.5 33.5t-96.5 90.5t-36 127t36 126.5t96.5 90t133.5 33.5
q74 0 134.5 -33.5t96 -90t35.5 -126.5t-35.5 -127t-96 -90.5t-134.5 -33.5zM618 1314q50 0 84.5 34.5t34.5 84.5q0 49 -34.5 83t-84.5 34q-49 0 -83.5 -34t-34.5 -83q0 -50 34.5 -84.5t83.5 -34.5z" />
    <glyph glyph-name="Uhungarumlaut" unicode="&#x170;" horiz-adv-x="1493" 
d="M747 -22q-182 0 -318 68.5t-211 190t-75 280.5v973h265v-951q0 -94 42 -167t117.5 -115t179.5 -42q103 0 179 42t117 115t41 167v951h266v-973q0 -159 -75 -280.5t-210.5 -190t-317.5 -68.5zM598 1631h-189l115 306h244zM937 1631h-192l172 306h258z" />
    <glyph glyph-name="uhungarumlaut" unicode="&#x171;" horiz-adv-x="1236" 
d="M514 -16q-114 0 -200 49t-134 143t-48 229v699h258v-659q0 -114 58 -177t160 -63q69 0 122.5 29.5t84 87.5t30.5 140v642h259v-1104h-248l-2 275h26q-47 -145 -139 -218t-227 -73zM469 1245h-189l115 306h244zM808 1245h-192l172 306h258z" />
    <glyph glyph-name="Uogonek" unicode="&#x172;" horiz-adv-x="1493" 
d="M747 -22q-182 0 -318 68.5t-211 190t-75 280.5v973h265v-951q0 -94 42 -167t117.5 -115t179.5 -42q103 0 179 42t117 115t41 167v951h266v-973q0 -159 -75 -280.5t-210.5 -190t-317.5 -68.5zM814 -429q-111 0 -182.5 53t-71.5 151q0 69 38.5 118.5t101.5 87.5t138.5 72
t151 73.5t138.5 91t101.5 124t38.5 175.5h82q0 -129 -40 -218t-103 -149.5t-133 -102.5t-133 -76t-103 -69.5t-40 -84.5q0 -34 19.5 -53.5t58.5 -19.5q22 0 41.5 5.5t35.5 13.5l49 -153q-34 -15 -83 -27t-105 -12z" />
    <glyph glyph-name="uogonek" unicode="&#x173;" horiz-adv-x="1236" 
d="M514 -16q-114 0 -200 49t-134 143t-48 229v699h258v-659q0 -114 58 -177t160 -63q69 0 122.5 29.5t84 87.5t30.5 140v642h259v-1104h-248l-2 275h26q-47 -145 -139 -218t-227 -73zM959 -429q-111 0 -182 53t-71 151q0 72 41 135.5t117 115.5l240 -26q-77 -45 -119 -87.5
t-42 -95.5q0 -34 19.5 -53.5t58.5 -19.5q22 0 41.5 5.5t35.5 13.5l49 -153q-34 -15 -83 -27t-105 -12z" />
    <glyph glyph-name="Wcircumflex" unicode="&#x174;" horiz-adv-x="2071" 
d="M444 0l-402 1490h285l194 -795q21 -86 38.5 -179t34 -186.5t32.5 -184.5h-45q17 91 34.5 184.5t36.5 186.5t40 179l202 795h283l201 -795q22 -86 40.5 -179t36.5 -186.5t35 -184.5h-47q17 91 33.5 184.5t35 186.5t37.5 179l194 795h287l-404 -1490h-304l-219 831
q-29 111 -51.5 239.5t-48.5 273.5h64q-27 -141 -47.5 -268t-51.5 -245l-219 -831h-305zM894 1643h-228v7l263 287h211l265 -287v-7h-229l-141 172z" />
    <glyph glyph-name="wcircumflex" unicode="&#x175;" horiz-adv-x="1700" 
d="M370 0l-332 1104h272l110 -430q26 -108 55.5 -234.5t56.5 -275.5h-33q27 145 58 272t59 238l112 430h245l110 -430q28 -109 58.5 -236t57.5 -274h-33q27 146 55.5 273t55.5 237l110 430h274l-332 -1104h-263l-130 453q-20 67 -38.5 143.5t-36.5 156t-36 153.5h49
q-18 -74 -36.5 -153.5t-37 -156.5t-37.5 -143l-131 -453h-262zM708 1257h-228v7l263 287h211l265 -287v-7h-229l-141 172z" />
    <glyph glyph-name="Ycircumflex" unicode="&#x176;" horiz-adv-x="1443" 
d="M592 0v577l-550 913h310l266 -467q42 -72 75.5 -141t68.5 -162h-70q34 94 67 163.5t73 139.5l261 467h309l-545 -913v-577h-265zM580 1643h-228v7l263 287h211l265 -287v-7h-229l-141 172z" />
    <glyph glyph-name="ycircumflex" unicode="&#x177;" horiz-adv-x="1183" 
d="M128 -403l47 203l52 -6q53 -12 94 -4t69 39.5t42 90.5l21 78l-419 1106h276l202 -595q35 -103 58.5 -206t51.5 -209h-69q27 106 54 209.5t62 205.5l207 595h273l-478 -1254q-34 -88 -84 -149.5t-120.5 -93t-166.5 -31.5q-52 0 -97.5 6t-74.5 15zM449 1257h-228v7l263 287
h211l265 -287v-7h-229l-141 172z" />
    <glyph glyph-name="Ydieresis" unicode="&#x178;" horiz-adv-x="1443" 
d="M592 0v577l-550 913h310l266 -467q42 -72 75.5 -141t68.5 -162h-70q34 94 67 163.5t73 139.5l261 467h309l-545 -913v-577h-265zM940 1653q-59 0 -100 40.5t-41 97.5q0 58 41 98t100 40t99.5 -40t40.5 -98q0 -57 -40.5 -97.5t-99.5 -40.5zM504 1653q-59 0 -100 40.5
t-41 97.5q0 58 41 98t100 40t100 -40t41 -98q0 -57 -41 -97.5t-100 -40.5z" />
    <glyph glyph-name="Zacute" unicode="&#x179;" horiz-adv-x="1325" 
d="M106 0v176l641 894q53 72 113.5 145t122.5 146l24 -88q-96 -6 -192 -7.5t-192 -1.5h-515v226h1110v-177l-630 -879q-56 -76 -119 -152.5t-128 -152.5l-24 88q98 6 196 7.5t196 1.5h514v-226h-1117zM564 1631l144 306h254l-210 -306h-188z" />
    <glyph glyph-name="zacute" unicode="&#x17a;" horiz-adv-x="1132" 
d="M116 0v168l569 714v7h-555v215h870v-181l-546 -701v-7h563v-215h-901zM461 1245l144 306h254l-210 -306h-188z" />
    <glyph glyph-name="Zdotaccent" unicode="&#x17b;" horiz-adv-x="1325" 
d="M106 0v176l641 894q53 72 113.5 145t122.5 146l24 -88q-96 -6 -192 -7.5t-192 -1.5h-515v226h1110v-177l-630 -879q-56 -76 -119 -152.5t-128 -152.5l-24 88q98 6 196 7.5t196 1.5h514v-226h-1117zM664 1648q-63 0 -107 42t-44 101q0 60 44 101t107 41t107.5 -41
t44.5 -101q0 -59 -44.5 -101t-107.5 -42z" />
    <glyph glyph-name="zdotaccent" unicode="&#x17c;" horiz-adv-x="1132" 
d="M116 0v168l569 714v7h-555v215h870v-181l-546 -701v-7h563v-215h-901zM561 1262q-63 0 -107 42t-44 101q0 60 44 101t107 41t107.5 -41t44.5 -101q0 -59 -44.5 -101t-107.5 -42z" />
    <glyph glyph-name="Zcaron" unicode="&#x17d;" horiz-adv-x="1325" 
d="M106 0v176l641 894q53 72 113.5 145t122.5 146l24 -88q-96 -6 -192 -7.5t-192 -1.5h-515v226h1110v-177l-630 -879q-56 -76 -119 -152.5t-128 -152.5l-24 88q98 6 196 7.5t196 1.5h514v-226h-1117zM522 1937l141 -171l141 171h229v-6l-265 -288h-211l-263 288v6h228z" />
    <glyph glyph-name="zcaron" unicode="&#x17e;" horiz-adv-x="1132" 
d="M116 0v168l569 714v7h-555v215h870v-181l-546 -701v-7h563v-215h-901zM420 1551l141 -171l141 171h229v-6l-265 -288h-211l-263 288v6h228z" />
    <glyph glyph-name="longs" unicode="&#x17f;" horiz-adv-x="662" 
d="M132 0v1222q0 107 44.5 178.5t122 107.5t175.5 36q63 0 114 -8.5t74 -14.5l-42 -203q-15 4 -41.5 8.5t-56.5 4.5q-71 0 -101.5 -34t-30.5 -100v-1197h-258z" />
    <glyph glyph-name="bbar" unicode="&#x180;" horiz-adv-x="1261" 
d="M718 -21q-90 0 -153 30t-103 74.5t-64 90.5h-13v-174h-253v1490h258v-563h9q24 44 63 88.5t101.5 74.5t155.5 30q131 0 234.5 -67t164 -194t60.5 -309q0 -179 -59 -306.5t-163 -196t-238 -68.5zM650 193q85 0 144 45.5t90 126.5t31 186q0 106 -30.5 186t-89.5 125
t-145 45q-85 0 -144.5 -44t-91 -124t-31.5 -188q0 -107 31.5 -187.5t91.5 -125.5t144 -45zM-5 1211v168h700v-168h-700z" />
    <glyph glyph-name="uni0181" unicode="&#x181;" horiz-adv-x="1694" 
d="M49 1072v93q0 164 89.5 244.5t273.5 80.5h84v-224h-76q-65 0 -96 -29t-31 -90v-75h-244zM496 0v1490h572q160 0 267.5 -50t161.5 -137.5t54 -199.5q0 -90 -34 -154.5t-92.5 -105.5t-132.5 -59v-12q81 -5 153.5 -49.5t118 -123.5t45.5 -190q0 -118 -56.5 -210.5
t-170 -145.5t-284.5 -53h-602zM762 221h297q145 0 212.5 57t67.5 149q0 67 -33 119.5t-94 83t-145 30.5h-305v-439zM762 856h277q71 0 127 26t88 73.5t32 113.5q0 88 -62 144.5t-181 56.5h-281v-414z" />
    <glyph glyph-name="uni0182" unicode="&#x182;" horiz-adv-x="1330" 
d="M144 0v1490h957v-223h-691v-355h291q171 0 293 -55.5t187.5 -156t65.5 -237.5t-65 -241.5t-187.5 -163t-293.5 -58.5h-557zM410 219h291q91 0 154 34.5t95.5 91t32.5 121.5q0 95 -72.5 162t-209.5 67h-291v-476z" />
    <glyph glyph-name="uni0183" unicode="&#x183;" horiz-adv-x="1261" 
d="M263 1286l-131 204h855v-204h-724zM718 -21q-90 0 -153 30t-103 74.5t-64 90.5h-13v-174h-253v1490h258v-563h9q24 44 63 88.5t101.5 74.5t155.5 30q131 0 234.5 -67t164 -194t60.5 -309q0 -179 -59 -306.5t-163 -196t-238 -68.5zM650 193q85 0 144 45.5t90 126.5t31 186
q0 106 -30.5 186t-89.5 125t-145 45q-85 0 -144.5 -44t-91 -124t-31.5 -188q0 -107 31.5 -187.5t91.5 -125.5t144 -45z" />
    <glyph glyph-name="uni0184" unicode="&#x184;" horiz-adv-x="1669" 
d="M242 930l-200 112l249 448h271zM655 944h388q167 0 288.5 -57t188 -161t66.5 -248q0 -146 -65.5 -253.5t-186.5 -166t-287 -58.5h-570v1490h267v-1269h296q131 0 206.5 69.5t75.5 190.5q0 76 -34.5 130.5t-97 84t-150.5 29.5h-385v219z" />
    <glyph glyph-name="uni0185" unicode="&#x185;" horiz-adv-x="1464" 
d="M213 596l-179 96l227 412h253zM611 743h328q139 0 238 -47t151.5 -130t52.5 -194q0 -109 -52.5 -193t-151.5 -131.5t-238 -47.5h-508v1104h258v-891h248q86 0 138 43t52 113q0 73 -52 116.5t-138 43.5h-326v214z" />
    <glyph glyph-name="uni0186" unicode="&#x186;" horiz-adv-x="1503" 
d="M721 1511q198 0 353 -92t244 -263t89 -410t-89.5 -411t-244.5 -264t-352 -92q-123 0 -230.5 35.5t-191 102.5t-137.5 163.5t-72 218.5h269q13 -67 45 -119t79 -88.5t106.5 -55t127.5 -18.5q126 0 221 62.5t148 180.5t53 285q0 169 -53.5 286.5t-148.5 178.5t-220 61
q-67 0 -126.5 -18.5t-107 -54.5t-79.5 -88.5t-46 -119.5h-269q17 111 68 205t133.5 165t191 110.5t239.5 39.5z" />
    <glyph glyph-name="uni0187" unicode="&#x187;" horiz-adv-x="1503" 
d="M1160 991v401q0 145 84.5 220t250.5 75q42 0 78 -3t61 -8v-197q-20 2 -43 3.5t-43 1.5q-71 0 -103 -22.5t-32 -71.5v-399h-253zM782 -21q-197 0 -352.5 92t-244.5 263.5t-89 409.5q0 240 89.5 411.5t245 263.5t351.5 92q124 0 231 -35.5t190.5 -102.5t137.5 -163.5
t72 -218.5h-269q-13 67 -44.5 119t-79 88.5t-107 55t-127.5 18.5q-125 0 -220.5 -62.5t-148.5 -180.5t-53 -285q0 -168 53.5 -286t148.5 -179t220 -61q68 0 127 18.5t106.5 54.5t80 88.5t45.5 119.5h269q-16 -111 -67.5 -205t-133.5 -165t-191 -110.5t-240 -39.5z" />
    <glyph glyph-name="uni0188" unicode="&#x188;" horiz-adv-x="1260" 
d="M880 745l-44 237q-37 165 30 242t238 77q36 0 65.5 -2t50.5 -5l-2 -201q-21 3 -46 4.5t-45 1.5q-55 0 -74.5 -26t-5.5 -84l48 -231zM613 -23q-161 0 -280 71.5t-184.5 200.5t-65.5 299q0 171 65.5 300t184.5 200.5t280 71.5q95 0 176 -25t144 -72.5t104.5 -114.5
t57.5 -150l-245 -39q-9 43 -29.5 78t-50 60t-68.5 39t-87 14q-89 0 -148.5 -47t-90 -128.5t-30.5 -186.5q0 -103 30.5 -184.5t90 -128.5t148.5 -47q48 0 87.5 14t69.5 39.5t50.5 62.5t29.5 82l245 -40q-15 -85 -57 -152.5t-105 -116t-144.5 -74.5t-177.5 -26z" />
    <glyph glyph-name="Dbar1" unicode="&#x189;" horiz-adv-x="1534" 
d="M715 0h-377v230h363q158 0 263 58t157.5 173t52.5 286q0 169 -52.5 283t-155.5 172t-257 58h-378v230h394q222 0 381.5 -89.5t245.5 -256t86 -397.5q0 -233 -86 -400t-248 -257t-389 -90zM478 1490v-1490h-267v1490h267zM20 650v190h799v-190h-799z" />
    <glyph glyph-name="uni018A" unicode="&#x18a;" horiz-adv-x="1819" 
d="M49 1072v93q0 164 89.5 244.5t273.5 80.5h84v-224h-76q-65 0 -96 -29t-31 -90v-75h-244zM1000 0h-377v230h363q158 0 263 58t157.5 173t52.5 286q0 169 -52.5 283t-155.5 172t-257 58h-378v230h394q222 0 381.5 -89.5t245.5 -256t86 -397.5q0 -233 -86 -400t-248 -257
t-389 -90zM763 1490v-1490h-267v1490h267z" />
    <glyph glyph-name="uni018B" unicode="&#x18b;" horiz-adv-x="1332" 
d="M1217 0h-556q-169 0 -291.5 59t-188 163.5t-65.5 240.5t65.5 237.5t187.5 158.5t292 57h280v332h-678v227h954v-1475zM941 222v472h-280q-138 0 -203 -66.5t-65 -161.5q0 -65 28.5 -121t88 -89.5t151.5 -33.5h280z" />
    <glyph glyph-name="uni018C" unicode="&#x18c;" horiz-adv-x="1261" 
d="M998 1286h-723v204h854zM543 -21q-133 0 -237 68.5t-163.5 196t-59.5 306.5q0 182 60.5 309t164.5 194t234 67q93 0 155.5 -30t102.5 -74.5t62 -88.5h9v563h258v-1490h-253v174h-13q-23 -46 -63.5 -90.5t-103 -74.5t-153.5 -30zM611 193q85 0 144.5 45t91 125.5
t31.5 187.5q0 108 -31 188t-91 124t-145 44t-144 -45t-89.5 -125t-30.5 -186q0 -105 30.5 -186t90 -126.5t143.5 -45.5z" />
    <glyph glyph-name="deltaturn" unicode="&#x18d;" horiz-adv-x="1238" 
d="M999 -376h-777v210h428q-14 15 -44.5 39.5t-68 55t-75.5 59.5q-156 128 -254.5 262.5t-98.5 299.5v20q0 167 59.5 293.5t173.5 197.5t277 71t277.5 -68t175 -189.5t60.5 -282.5v-20q0 -131 -54 -235.5t-149 -171.5t-218 -86q-11 -1 -19.5 -1.5t-19.5 -0.5q37 -33 82 -73
t90 -81.5t85.5 -81.5t69.5 -72v-145zM865 550v20q0 97 -22.5 176t-76.5 126t-147 47q-89 0 -142.5 -45.5t-77.5 -124.5t-24 -179v-20q0 -114 50.5 -196t117.5 -122q15 -6 31.5 -7.5t36.5 -1.5q90 0 146 44.5t82 119.5t26 163z" />
    <glyph glyph-name="Eturn" unicode="&#x18e;" horiz-adv-x="1237" 
d="M1093 1490v-1490h-983v226h716v399h-663v223h663v416h-720v226h987z" />
    <glyph glyph-name="uni018F" unicode="&#x18f;" horiz-adv-x="1527" 
d="M751 -21q-139 0 -257 43.5t-206 125t-136.5 195.5t-48.5 256v179h1139v-209h-943l63 8q0 -109 49.5 -190t137 -125t200.5 -44q127 0 220 62t143.5 180t50.5 285t-53 285t-147 180t-218 62q-68 0 -126 -18t-104 -52t-78.5 -82.5t-49.5 -109.5h-272q17 111 71 202.5
t138 158.5t191 103.5t231 36.5q196 0 351 -92.5t244 -264.5t89 -411q0 -233 -84 -404.5t-236.5 -265.5t-358.5 -94z" />
    <glyph glyph-name="Epsilon1" unicode="&#x190;" horiz-adv-x="1292" 
d="M645 -21q-159 0 -283 56.5t-195 155t-71 224.5q0 92 37.5 165.5t110 122t175.5 62.5v10q-122 27 -196 112.5t-74 210.5q0 115 61.5 208.5t172.5 149t259 55.5q147 0 263.5 -55t184.5 -152t70 -224h-255q-2 67 -37 115t-93.5 74t-130.5 26q-71 0 -124.5 -27t-83.5 -75
t-30 -113t33.5 -113.5t93.5 -75.5t139 -27h132v-206h-132q-94 0 -162.5 -29t-105 -81t-36.5 -120t35.5 -119t98.5 -79.5t144 -28.5q80 0 141.5 26.5t98 76.5t39.5 118h266q-3 -130 -72 -229.5t-191 -156.5t-283 -57z" />
    <glyph glyph-name="uni0191" unicode="&#x191;" horiz-adv-x="1197" 
d="M-67 -418v210q20 -2 43.5 -3.5t42.5 -1.5q71 0 98 22.5t27 71.5v246h267v-260q0 -145 -85.5 -220.5t-252.5 -75.5q-42 0 -78.5 3t-61.5 8zM144 0v1490h965v-226h-698v-438h634v-223h-634v-603h-267z" />
    <glyph glyph-name="florin" unicode="&#x192;" horiz-adv-x="885" 
d="M757 1082v-194h-212v-930q-1 -184 -94 -280t-263 -96q-35 0 -67.5 2.5t-68.5 11.5l14 209q17 -5 49 -7.5t48 -2.5q65 0 95 43.5t30 119.5v930h-174v194h174v98q0 184 101.5 280t270.5 96q45 0 92 -6.5t81 -16.5l-35 -205q-18 5 -39.5 7.5t-54.5 2.5q-76 0 -117.5 -39.5
t-41.5 -118.5v-98h212z" />
    <glyph glyph-name="uni0193" unicode="&#x193;" horiz-adv-x="1527" 
d="M1158 1010v377q0 145 84.5 220t250.5 75q43 0 78.5 -3t61.5 -8v-197q-20 2 -43.5 3.5t-43.5 1.5q-71 0 -102.5 -22.5t-31.5 -71.5v-375h-254zM788 -21q-206 0 -361.5 94t-243 265.5t-87.5 404.5q0 239 89.5 411t244.5 264.5t351 92.5q123 0 230.5 -36.5t191.5 -103.5
t138 -158.5t71 -202.5h-272q-17 61 -48.5 109t-77 82.5t-103 52.5t-126.5 18q-123 0 -218 -62t-149 -179.5t-54 -285.5q0 -167 53.5 -284.5t149.5 -180t223 -62.5q114 0 198 44t130.5 125t46.5 190l63 -8h-408v209h604v-179q0 -189 -82 -328.5t-225.5 -215.5t-328.5 -76z
" />
    <glyph glyph-name="Gamma1" unicode="&#x194;" horiz-adv-x="1426" 
d="M42 1490h299l461 -1054q75 -165 128.5 -284t82.5 -199.5t29 -132.5q0 -80 -40 -138.5t-114 -91t-176 -32.5q-152 0 -242.5 70t-90.5 196q0 28 7.5 61t24.5 78t45.5 108.5t69 153t96.5 212.5l461 1053h300l-634 -1356q-33 -71 -56.5 -126.5t-36.5 -98.5t-13 -76
q0 -34 18.5 -55.5t50.5 -21.5q33 0 52 21.5t19 56.5q0 33 -12.5 76t-35.5 98.5t-55 125.5z" />
    <glyph glyph-name="uni0195" unicode="&#x195;" horiz-adv-x="1975" 
d="M1277 -20q-128 0 -223 51.5t-147 153.5t-52 252v223q0 115 -59 177.5t-164 62.5q-69 0 -124 -29.5t-86.5 -86.5t-31.5 -140v-644h-258v1490h254v-574h11q39 94 121 149t209 55q115 0 202 -49t136 -142.5t49 -229.5v-262q0 -95 27 -147t67.5 -72t80.5 -20q88 0 154 82
t103.5 255.5t37.5 448.5v120h259v-120q0 -346 -65.5 -568t-192 -329t-308.5 -107z" />
    <glyph glyph-name="Iota" unicode="&#x196;" horiz-adv-x="592" 
d="M440 -6q-159 0 -233.5 70t-74.5 211v1215h258v-1177q0 -60 19.5 -85t69.5 -25q22 0 35 1.5t24 3.5l34 -197q-23 -6 -57.5 -11.5t-74.5 -5.5z" />
    <glyph glyph-name="uni0197" unicode="&#x197;" horiz-adv-x="717" 
d="M492 1490v-1490h-267v1490h267zM16 711v130h684v-130h-684z" />
    <glyph glyph-name="uni0198" unicode="&#x198;" horiz-adv-x="1441" 
d="M144 0v1490h266v-677h18l526 566q70 74 149.5 105t163 21.5t164.5 -60.5l-90 -190q-57 32 -103.5 18.5t-98.5 -67.5l-377 -398l618 -808h-320l-467 620l-183 -201v-419h-266z" />
    <glyph glyph-name="uni0199" unicode="&#x199;" horiz-adv-x="1151" 
d="M132 867v338q0 146 87 221t253 75q42 0 77.5 -3t61.5 -8v-197q-20 2 -43 3t-43 1q-71 0 -103 -22t-32 -72v-336h-258zM368 347v311h38l405 446h305l-494 -544h-53zM132 0v1104h258v-1104h-258zM831 0l-366 503l175 182l502 -685h-311z" />
    <glyph glyph-name="uni019A" unicode="&#x19a;" horiz-adv-x="522" 
d="M390 1490v-1490h-258v1490h258zM-90 684v168h700v-168h-700z" />
    <glyph glyph-name="lambdabar" unicode="&#x19b;" horiz-adv-x="1334" 
d="M258 1052l-10 140l579 199l11 -140zM34 0l421 1108l-22 61q-18 60 -45 89t-65 35t-93 -4l-47 -5l-47 204q31 9 79 15t97 6q88 0 157 -28.5t121.5 -89t88.5 -156.5l346 -911q23 -59 51.5 -89.5t65 -38t82.5 0.5l43 5l47 -200q-28 -8 -72.5 -15t-93.5 -7q-84 0 -151.5 28.5
t-118 89t-84.5 157.5l-123 340q-37 105 -63.5 206t-54.5 210h69q-28 -107 -51.5 -210t-58.5 -206l-202 -595h-276z" />
    <glyph glyph-name="mcapturn" unicode="&#x19c;" horiz-adv-x="1905" 
d="M1482 240v1250h267v-1490h-244zM1510 504l95 2q0 -151 -45.5 -270t-138.5 -187.5t-236 -68.5q-110 0 -192.5 43t-128 142t-45.5 266v1059h265v-1059q0 -88 23 -139.5t61.5 -73t85.5 -21.5q98 0 154 43t79 113t23 151zM849 504l97 2q1 -152 -45 -271t-140 -187t-240 -68
q-116 0 -197.5 43.5t-124 142.5t-42.5 265v1059h266v-1059q0 -88 22.5 -139.5t60.5 -73t84 -21.5q80 0 130.5 28t78.5 73t39 99t11 107z" />
    <glyph glyph-name="Nhook" unicode="&#x19d;" horiz-adv-x="1537" 
d="M-67 -418v210q20 -2 43.5 -3.5t42.5 -1.5q71 0 98 22.5t27 71.5v246h267v-260q0 -145 -85.5 -220.5t-252.5 -75.5q-42 0 -78.5 3t-61.5 8zM144 0v1490h298l517 -823q30 -47 65.5 -109.5t74 -139t75.5 -165.5l-30 -15q-7 80 -11.5 167t-7 166t-2.5 131v788h270v-1490h-299
l-466 741q-40 64 -79.5 132.5t-85.5 155.5t-108 205l38 8q7 -109 11.5 -206t7 -172.5t2.5 -121.5v-742h-270z" />
    <glyph glyph-name="uni019E" unicode="&#x19e;" horiz-adv-x="1236" 
d="M390 642v-642h-258v1104h247l3 -274h-27q47 144 138.5 217t228.5 73q114 0 200 -49t134 -143t48 -229v-1117h-259v1077q0 114 -57.5 177t-160.5 63q-68 0 -121.5 -29.5t-84.5 -86.5t-31 -141z" />
    <glyph glyph-name="Obar" unicode="&#x19f;" horiz-adv-x="1565" 
d="M1279 838v-187h-984v187h984zM783 -21q-196 0 -351.5 92t-245.5 263.5t-90 409.5q0 240 90 411.5t245.5 263.5t351.5 92t351 -92t244.5 -263.5t89.5 -411.5q0 -238 -89.5 -409.5t-244.5 -263.5t-351 -92zM783 218q121 0 215.5 60.5t148 178t53.5 287.5q0 171 -53.5 289
t-148 178.5t-215.5 60.5q-122 0 -216.5 -61t-148.5 -178.5t-54 -288.5q0 -170 54 -287t148.5 -178t216.5 -61z" />
    <glyph glyph-name="Ohorn" unicode="&#x1a0;" horiz-adv-x="1573" 
d="M786 1342v169q54 0 90 -3t75 -7.5t100 -7.5t163 -3q23 0 23 23v192h234v-199q0 -98 -54 -143.5t-148 -45.5q-46 0 -89 4t-94.5 9t-123 8.5t-176.5 3.5zM783 -21q-196 0 -351.5 92t-245.5 263.5t-90 409.5q0 240 90 411.5t245.5 263.5t351.5 92t351 -92t244.5 -263.5
t89.5 -411.5q0 -238 -89.5 -409.5t-244.5 -263.5t-351 -92zM783 218q121 0 215.5 60.5t148 178t53.5 287.5q0 171 -53.5 289t-148 178.5t-215.5 60.5q-122 0 -216.5 -61t-148.5 -178.5t-54 -288.5q0 -170 54 -287t148.5 -178t216.5 -61z" />
    <glyph glyph-name="ohorn" unicode="&#x1a1;" horiz-adv-x="1226" 
d="M613 974v146q40 0 79 -2t78.5 -5t79.5 -5.5t81 -2.5q44 0 44 41v204h214v-185q0 -92 -55.5 -141.5t-159.5 -49.5h-180.5h-180.5zM614 -23q-161 0 -280.5 71.5t-185 200t-65.5 299.5t65.5 300t185 200.5t280.5 71.5q162 0 281.5 -71.5t185 -200.5t65.5 -300t-65.5 -299.5
t-185 -200t-281.5 -71.5zM614 188q89 0 149 47.5t90.5 129t30.5 183.5q0 104 -30.5 185.5t-90.5 128.5t-149 47q-88 0 -148 -47t-90 -128.5t-30 -185.5q0 -102 30 -183.5t90 -129t148 -47.5z" />
    <glyph glyph-name="OI" unicode="&#x1a2;" horiz-adv-x="1851" 
d="M1291 839v-649q-43 -58 -122 -105.5t-184.5 -76t-229.5 -28.5q-154 0 -274.5 48t-204.5 139.5t-127.5 221.5t-43.5 294v108l279 4v-112q1 -150 40.5 -258t124.5 -166t219 -58q83 0 150 22.5t106 60.5v555h267zM1291 1300v-637l-267 -2v543q-40 41 -108.5 62t-144.5 21
q-137 0 -222 -55t-125 -162t-40 -263v-111l-279 1v110q0 166 44.5 296.5t130 221t208 138t278.5 47.5q121 0 225 -29t181 -76.5t119 -104.5zM1707 1490v-1908h-265v1605l-289 -123v270l352 156h202z" />
    <glyph glyph-name="uni01A3" unicode="&#x1a3;" horiz-adv-x="1426" 
d="M573 194q45 0 78.5 12t59.5 33v359h267v-419q-39 -57 -94.5 -102t-132.5 -71t-181 -26q-164 0 -275.5 73.5t-167.5 197.5t-56 274v32q0 165 55.5 295t167.5 205t282 75q97 0 174.5 -31t135.5 -80t92 -102v-374l-267 14v306q-26 25 -60.5 39.5t-83.5 14.5
q-94 0 -143.5 -50.5t-68 -132.5t-18.5 -179v-32q0 -96 24 -171t76 -117.5t136 -42.5zM1355 1118v-1536h-266v1223l-231 -107v278l307 142h190z" />
    <glyph glyph-name="uni01A4" unicode="&#x1a4;" horiz-adv-x="1664" 
d="M50 1072v93q0 164 89 244.5t273 80.5h84v-224h-76q-65 0 -96 -29t-31 -90v-75h-243zM496 0v1490h560q170 0 287 -63t178 -173t61 -254q0 -143 -61.5 -253.5t-180 -173t-288.5 -62.5h-381v221h351q99 0 163 34.5t95.5 95t31.5 138.5q0 80 -31.5 139.5t-96 93t-163.5 33.5
h-258v-1266h-267z" />
    <glyph glyph-name="uni01A5" unicode="&#x1a5;" horiz-adv-x="1261" 
d="M132 867v338q0 146 87 221t253 75q42 0 77.5 -3t61.5 -8v-197q-20 2 -43 3t-43 1q-71 0 -103 -22t-32 -72v-336h-258zM132 -418v1522h253v-177h14q23 44 62.5 88.5t102 74.5t155.5 30q131 0 234.5 -67t164 -194t60.5 -309q0 -179 -59 -306.5t-163 -196t-238 -68.5
q-90 0 -152.5 30t-102.5 74.5t-63 89.5h-10v-591h-258zM650 193q85 0 144 45.5t90 126.5t31 186q0 106 -30.5 186t-89.5 125t-145 45q-85 0 -144.5 -44t-91 -124t-31.5 -188q0 -107 31.5 -187.5t91.5 -125.5t144 -45z" />
    <glyph glyph-name="YR" unicode="&#x1a6;" horiz-adv-x="1521" 
d="M98 1389v203h278v-203h-278zM98 1490h536q170 0 290.5 -50.5t185 -148.5t64.5 -240q0 -114 -40 -197.5t-114.5 -139t-175.5 -88.5l-85 -44h-468v221h343q87 0 145.5 29t88 81t29.5 119q0 72 -27.5 124t-86 81t-149.5 29h-256v-1266h-280v1490zM1125 -354l-533 1009h293
l537 -997v-12h-297z" />
    <glyph glyph-name="uni01A7" unicode="&#x1a7;" horiz-adv-x="1327" 
d="M656 -23q-177 0 -304 55.5t-194.5 155.5t-67.5 233q0 94 34.5 164t95.5 121t140.5 85t169.5 55l142 36q69 16 127.5 41t94.5 64t36 99q0 58 -33.5 102.5t-94.5 70.5t-145 26q-123 0 -199.5 -56t-86.5 -157h-257q4 130 71.5 229t187.5 154.5t281 55.5q158 0 281 -55
t193.5 -154t70.5 -231q0 -158 -105 -256t-300 -146l-167 -42q-84 -21 -145 -48t-93.5 -65t-32.5 -95q0 -64 38.5 -113t106.5 -75.5t156 -26.5q89 0 159 27.5t112 82t47 135.5h262q-4 -150 -76 -255.5t-200.5 -161t-304.5 -55.5z" />
    <glyph glyph-name="uni01A8" unicode="&#x1a8;" horiz-adv-x="1105" 
d="M102 801q22 145 136 232t309 87q134 0 234 -41.5t156 -117t56 -177.5q0 -122 -78 -200t-235 -112l-188 -40q-74 -16 -112 -47t-38 -79q0 -57 57 -94.5t150 -37.5q92 0 148.5 39t72.5 115l253 -19q-15 -105 -76 -179t-162.5 -113.5t-236.5 -39.5q-137 0 -243 44.5
t-166 124t-60 184.5q0 115 75.5 190t235.5 109l190 40q81 17 118 48.5t37 80.5q0 56 -54 92t-137 36q-89 0 -140 -42t-64 -103z" />
    <glyph glyph-name="uni01A9" unicode="&#x1a9;" horiz-adv-x="1328" 
d="M97 0v198l397 409q39 40 86.5 82.5t92.5 80.5t76 64v-139q-31 27 -75.5 63t-91.5 78t-87 82l-364 369v203h1137v-225h-535q-91 0 -176.5 1.5t-161.5 4.5l-17 62q38 -31 83 -67.5t93.5 -78.5t95.5 -91l277 -284v-94l-277 -289q-51 -53 -104 -101t-101.5 -89t-86.5 -74
l15 54q82 3 171.5 4.5t188.5 1.5h548v-225h-1184z" />
    <glyph glyph-name="eshlooprev" unicode="&#x1aa;" horiz-adv-x="1240" 
d="M633 1043l267 130v-1213q0 -90 36 -130.5t102 -40.5q37 0 81 9v-210q-29 -8 -66 -11.5t-73 -3.5q-167 0 -257 99.5t-90 287.5v1083zM120 1173q0 106 52.5 193.5t140.5 139t196 51.5q107 0 196 -51.5t142 -139t53 -193.5q0 -105 -53 -192.5t-142 -140t-196 -52.5t-195 52
t-140.5 140t-53.5 193zM511 1021q61 0 105 38.5t43 116.5q0 77 -44 115.5t-104 38.5q-66 0 -109 -39t-43 -115q0 -78 43 -116.5t109 -38.5z" />
    <glyph glyph-name="uni01AB" unicode="&#x1ab;" horiz-adv-x="722" 
d="M208 -419v197q19 -2 43 -3t44 -1q88 0 123.5 34t22.5 106l-14 99h255l13 -94q27 -157 -63.5 -253t-285.5 -96q-41 0 -77 3t-61 8zM658 1104v-203h-639v203h639zM184 1375h258v-1063q0 -59 25.5 -86t85.5 -27q19 0 49 3t48 6l32 -201q-39 -10 -83 -14.5t-86 -4.5
q-161 0 -245 77t-84 222v1088z" />
    <glyph glyph-name="uni01AC" unicode="&#x1ac;" horiz-adv-x="1411" 
d="M86 1072v93q0 164 89.5 244.5t273.5 80.5h84v-224h-76q-65 0 -96 -29t-31 -90v-75h-244zM533 1265v225h803v-225h-459v-1265h-267v1265h-77z" />
    <glyph glyph-name="uni01AD" unicode="&#x1ad;" horiz-adv-x="712" 
d="M178 1104h253v-772q0 -68 29 -99t93 -31q19 0 41 2t40 5l35 -201q-38 -10 -79.5 -15t-83.5 -5q-154 0 -241 80t-87 221v815zM652 1104v-199h-633v199h633zM178 867v338q0 146 86.5 221t253.5 75q42 0 77.5 -3t60.5 -8v-197q-19 2 -42.5 3t-43.5 1q-70 0 -102 -22t-32 -72
v-336h-258z" />
    <glyph glyph-name="Trthook" unicode="&#x1ae;" horiz-adv-x="1337" 
d="M872 -429q-167 0 -251.5 75.5t-84.5 220.5v314h266v-309q0 -50 30 -71t100 -21q19 0 42.5 1t43.5 3v-202q-25 -5 -63.5 -8t-82.5 -3zM75 1264v226h1187v-226h-460v-1264h-266v1264h-461z" />
    <glyph glyph-name="Uhorn" unicode="&#x1af;" horiz-adv-x="1490" 
d="M1086 1313v177h182q23 0 23 23v192h234v-199q0 -98 -53.5 -145.5t-147.5 -47.5h-238zM747 -22q-182 0 -318 68.5t-211 190t-75 280.5v973h265v-951q0 -94 42 -167t117.5 -115t179.5 -42q103 0 179 42t117 115t41 167v951h266v-973q0 -159 -75 -280.5t-210.5 -190
t-317.5 -68.5z" />
    <glyph glyph-name="uhorn" unicode="&#x1b0;" horiz-adv-x="1316" 
d="M955 942v162h77q34 0 34 34v212h210v-215q0 -98 -54 -145.5t-148 -47.5h-119zM514 -16q-114 0 -200 49t-134 143t-48 229v699h258v-659q0 -114 58 -177t160 -63q69 0 122.5 29.5t84 87.5t30.5 140v642h259v-1104h-248l-2 275h26q-47 -145 -139 -218t-227 -73z" />
    <glyph glyph-name="Upsilon2" unicode="&#x1b1;" horiz-adv-x="1573" 
d="M98 689q1 197 79.5 338.5t211.5 227.5v12h-291v223h569v-282q-85 -35 -153.5 -108.5t-109 -174t-40.5 -220.5q0 -137 54 -247.5t149.5 -174.5t218.5 -64t218 64t149 174.5t54 247.5q0 120 -40 220.5t-108.5 174t-153.5 108.5v282h569v-223h-291v-12q134 -85 212.5 -227
t78.5 -339q0 -207 -88.5 -367.5t-243.5 -251t-356 -90.5q-150 0 -276 52t-218.5 147t-143 225t-50.5 285z" />
    <glyph glyph-name="Vcursive" unicode="&#x1b2;" horiz-adv-x="1330" 
d="M666 -20q-162 0 -288.5 58t-199.5 171.5t-73 280.5v1000h276v-1000q0 -145 74 -217t211 -72q136 0 208.5 72t72.5 217v631q-1 90 -35.5 125t-110.5 35q-17 0 -39.5 -1t-42.5 -5v217q32 9 67 13.5t72 4.5q167 0 268 -100.5t101 -288.5v-631q0 -166 -74 -280t-201.5 -172
t-285.5 -58z" />
    <glyph glyph-name="uni01B3" unicode="&#x1b3;" horiz-adv-x="1544" 
d="M727 794v34h36v-34h-36zM49 1490h293l403 -676l301 504q57 96 134.5 141.5t164 48t171.5 -32.5l-61 -204q-66 23 -112 7t-87 -83l-379 -606v-589h-264v589z" />
    <glyph glyph-name="uni01B4" unicode="&#x1b4;" horiz-adv-x="1431" 
d="M876 1104l37 104q32 91 69.5 156.5t100.5 101t173 35.5q42 0 80 -2.5t67 -8.5v-194q-19 2 -42 3t-43 1q-46 0 -71.5 -10.5t-39 -32.5t-26.5 -54l-37 -99h-268zM128 -403l47 203l52 -6q53 -12 94 -4t69 39.5t42 90.5l21 78l-419 1106h276l202 -595q35 -103 58.5 -206
t51.5 -209h-69q27 106 54 209.5t62 205.5l207 595h273l-478 -1254q-34 -88 -84 -149.5t-120.5 -93t-166.5 -31.5q-52 0 -97.5 6t-74.5 15z" />
    <glyph glyph-name="Zbar" unicode="&#x1b5;" horiz-adv-x="1325" 
d="M106 0v176l641 894q53 72 113.5 145t122.5 146l24 -88q-96 -6 -192 -7.5t-192 -1.5h-515v226h1110v-177l-630 -879q-56 -76 -119 -152.5t-128 -152.5l-24 88q98 6 196 7.5t196 1.5h514v-226h-1117zM237 650v190h852v-190h-852z" />
    <glyph glyph-name="zbar" unicode="&#x1b6;" horiz-adv-x="1132" 
d="M116 0v168l569 714v7h-555v215h870v-181l-546 -701v-7h563v-215h-901zM221 491v130h684v-130h-684z" />
    <glyph glyph-name="uni01B7" unicode="&#x1b7;" horiz-adv-x="1390" 
d="M75 91h269q5 -90 52.5 -158.5t123 -107t166.5 -38.5q108 0 185.5 53t119.5 145t42 207q0 130 -52.5 224.5t-144.5 146t-211 51.5h-144v199l446 437v12h-768v228h1108v-193l-499 -490v-14q160 -10 281 -88.5t188.5 -209.5t67.5 -299q0 -138 -45 -255t-127.5 -202.5
t-196 -132.5t-250.5 -47q-170 0 -306 68t-217 188t-88 276z" />
    <glyph glyph-name="uni01B8" unicode="&#x1b8;" horiz-adv-x="1391" 
d="M1316 91q-6 -156 -88 -276t-217.5 -188t-305.5 -68q-137 0 -250.5 47t-196 132.5t-128 202.5t-45.5 255q0 168 68.5 299t189.5 209.5t280 88.5v14l-500 490v193h1110v-228h-769v-12l445 -437v-199h-142q-119 0 -211.5 -51.5t-145 -146t-52.5 -224.5q0 -115 42 -207
t119.5 -145t184.5 -53q92 0 168 38.5t123 107t52 158.5h269z" />
    <glyph glyph-name="uni01B9" unicode="&#x1b9;" horiz-adv-x="1295" 
d="M648 -407q-160 0 -284.5 57t-196 157t-71.5 230q0 108 52.5 202t154.5 155.5t249 72.5v10l-403 434v193h966v-223h-630v-9l345 -382v-193h-144q-106 0 -177 -32.5t-106 -88t-35 -126.5q0 -74 36 -126.5t98.5 -80.5t143.5 -28q79 0 140.5 26.5t98.5 76t41 118.5h267
q-4 -132 -74.5 -231.5t-191.5 -155.5t-279 -56z" />
    <glyph glyph-name="uni01BA" unicode="&#x1ba;" horiz-adv-x="1140" 
d="M150 1104h890v-157l-557 -473h-149v159l308 258h-492v213zM355 -126q0 -60 51 -91.5t133 -31.5q54 0 104 15t83 52t37 102h255q0 -89 -54 -172.5t-158.5 -137t-257.5 -53.5q-137 0 -238.5 42t-158 117t-56.5 174q0 72 28.5 126t82 94t130.5 68.5t172 47.5
q73 14 120.5 30.5t71 42.5t23.5 68q0 51 -42 79t-129 28h-115l8 193h107q134 0 230.5 -40.5t149 -110t52.5 -158.5q0 -74 -31.5 -128.5t-87.5 -93t-130 -65.5t-160 -46t-133.5 -42t-67 -50.5t-19.5 -58.5z" />
    <glyph glyph-name="uni01BB" unicode="&#x1bb;" horiz-adv-x="1259" 
d="M122 0v194l522 501q74 73 124.5 130.5t77 113t26.5 121.5q0 72 -32.5 124.5t-88.5 80.5t-130 28q-77 0 -134 -31.5t-88 -90t-31 -139.5h-252q0 145 64.5 252.5t179 167t264.5 59.5q149 0 262.5 -56.5t177 -155t63.5 -226.5q0 -87 -32.5 -167.5t-111 -176t-215.5 -225.5
l-278 -273v-9h656v-222h-1024zM293 547v190h852v-190h-852z" />
    <glyph glyph-name="uni01BC" unicode="&#x1bc;" horiz-adv-x="1285" 
d="M375 1490v-223h-300v223h300zM655 -20q-148 0 -263.5 55.5t-183 154t-72.5 224.5h258q4 -64 39.5 -113t93.5 -77t128 -28q81 0 143 37t97.5 102t35.5 150q0 86 -36 152.5t-99 104t-145 37.5q-76 0 -143 -29.5t-103 -79.5l-243 31l71 789h876v-223h-651l-40 -396h7
q46 52 123 84t168 32q101 0 187.5 -36.5t150 -103.5t99 -157.5t35.5 -198.5q0 -149 -67.5 -264t-187.5 -181t-278 -66z" />
    <glyph glyph-name="uni01BD" unicode="&#x1bd;" horiz-adv-x="1240" 
d="M477 465l-238 13l77 604h736v-215h-516l-29 -201q34 21 93.5 37t125.5 18q125 2 213 -41.5t134 -126.5t46 -199q0 -105 -46.5 -189.5t-148.5 -133.5t-266 -49q-85 0 -167.5 20t-149.5 61t-107 104t-40 150l262 14q4 -64 59.5 -98t142.5 -34q102 0 149.5 46.5t47.5 121.5
t-50.5 121t-146.5 46q-72 0 -115 -20t-66 -49zM432 1082v-215h-311v215h311z" />
    <glyph glyph-name="glottalstopbarinv" unicode="&#x1be;" horiz-adv-x="1141" 
d="M772 297q0 45 -27 74.5t-69.5 55l-90 54t-90 69.5t-69.5 103t-28 154v541h270v-541q0 -67 26.5 -109t68 -69.5t88.5 -52t88.5 -56t68 -81t26.5 -128.5q0 -96 -56 -171t-158 -117.5t-239 -42.5q-153 0 -258 54t-159 137.5t-54 172.5h257q3 -64 36 -101.5t82.5 -53
t99.5 -15.5q88 0 137.5 33.5t49.5 89.5zM860 1082v-194h-632v194h632z" />
    <glyph glyph-name="uni01BF" unicode="&#x1bf;" horiz-adv-x="1337" 
d="M447 910v-1326h-268v1534h249zM406 642l-116 -52q14 120 45.5 219t84 171.5t128.5 112t179 39.5q140 0 236 -69t145.5 -193t49.5 -288v-51q0 -158 -54.5 -273.5t-157.5 -198.5t-251 -143t-337 -108l-16 211q159 27 282.5 89t194.5 166t71 257v51q0 90 -24 166
t-75.5 121.5t-137.5 45.5q-82 0 -133.5 -34t-78.5 -95.5t-35 -143.5z" />
    <glyph glyph-name="pipe" unicode="&#x1c0;" horiz-adv-x="575" 
d="M375 1473v-1473h-174v1473h174z" />
    <glyph glyph-name="pipedbl" unicode="&#x1c1;" horiz-adv-x="766" 
d="M333 1473v-1473h-174v1473h174zM603 1473v-1473h-174v1473h174z" />
    <glyph glyph-name="pipedblbar" unicode="&#x1c2;" horiz-adv-x="522" 
d="M347 1473v-1473h-174v1473h174zM-90 920v168h700v-168h-700zM-90 438v168h700v-168h-700z" />
    <glyph glyph-name="exclam1" unicode="&#x1c3;" horiz-adv-x="620" 
d="M189 464l-20 1026h281l-20 -1026h-241zM310 -17q-69 0 -115 44.5t-46 112.5t46 112.5t115 44.5q70 0 115.5 -44.5t45.5 -112.5t-45.5 -112.5t-115.5 -44.5z" />
    <glyph glyph-name="Dzcaron_" unicode="&#x1c5;" horiz-adv-x="2600" 
d="M648 0h-377v230h363q158 0 263 58t157.5 173t52.5 286q0 169 -52.5 283t-155.5 172t-257 58h-378v230h394q222 0 381.5 -89.5t245.5 -256t86 -397.5q0 -233 -86 -400t-248 -257t-389 -90zM411 1490v-1490h-267v1490h267zM1583 0v168l569 714v7h-555v215h870v-181
l-546 -701v-7h563v-215h-901zM1887 1551l141 -171l141 171h229v-6l-265 -288h-211l-263 288v6h228z" />
    <glyph glyph-name="uni01C6" unicode="&#x1c6;" horiz-adv-x="2394" 
d="M543 -21q-133 0 -237 68.5t-163.5 196t-59.5 306.5q0 182 60.5 309t164.5 194t234 67q93 0 155.5 -30t102.5 -74.5t62 -88.5h9v563h258v-1490h-253v174h-13q-23 -46 -63.5 -90.5t-103 -74.5t-153.5 -30zM611 193q85 0 144.5 45t91 125.5t31.5 187.5q0 108 -31 188
t-91 124t-145 44t-144 -45t-89.5 -125t-30.5 -186q0 -105 30.5 -186t90 -126.5t143.5 -45.5zM1377 0v168l569 714v7h-555v215h870v-181l-546 -701v-7h563v-215h-901zM1681 1551l141 -171l141 171h229v-6l-265 -288h-211l-263 288v6h228z" />
    <glyph glyph-name="uni01C7" unicode="&#x1c7;" horiz-adv-x="2326" 
d="M144 0v1490h267v-1264h665v-226h-932zM1705 -20q-219 0 -349 119.5t-130 341.5v86h264v-89q0 -116 58.5 -176.5t156.5 -60.5t155.5 60.5t57.5 177.5v1051h265v-1050q0 -221 -129 -340.5t-349 -119.5z" />
    <glyph glyph-name="uni01C8" unicode="&#x1c8;" horiz-adv-x="1673" 
d="M144 0v1490h267v-1264h665v-226h-932zM1283 1104h259v-1179q0 -114 -44 -190.5t-127.5 -114.5t-203.5 -38h-63v211h43q73 0 104.5 35.5t31.5 105.5v1170zM1412 1262q-63 0 -107 42t-44 101q0 60 44 101t107 41t107.5 -41t44.5 -101q0 -59 -44.5 -101t-107.5 -42z" />
    <glyph glyph-name="uni01C9" unicode="&#x1c9;" horiz-adv-x="1045" 
d="M390 1490v-1490h-258v1490h258zM654 1104h259v-1179q0 -114 -44 -190.5t-127.5 -114.5t-203.5 -38h-63v211h43q73 0 104.5 35.5t31.5 105.5v1170zM783 1262q-63 0 -107 42t-44 101q0 60 44 101t107 41t107.5 -41t44.5 -101q0 -59 -44.5 -101t-107.5 -42z" />
    <glyph glyph-name="uni01CA" unicode="&#x1ca;" horiz-adv-x="2712" 
d="M144 0v1490h298l517 -823q30 -47 65.5 -109.5t74 -139t75.5 -165.5l-30 -15q-7 80 -11.5 167t-7 166t-2.5 131v788h270v-1490h-299l-466 741q-40 64 -79.5 132.5t-85.5 155.5t-108 205l38 8q7 -109 11.5 -206t7 -172.5t2.5 -121.5v-742h-270zM2091 -20q-219 0 -349 119.5
t-130 341.5v86h264v-89q0 -116 58.5 -176.5t156.5 -60.5t155.5 60.5t57.5 177.5v1051h265v-1050q0 -221 -129 -340.5t-349 -119.5z" />
    <glyph glyph-name="uni01CB" unicode="&#x1cb;" horiz-adv-x="2060" 
d="M144 0v1490h298l517 -823q30 -47 65.5 -109.5t74 -139t75.5 -165.5l-30 -15q-7 80 -11.5 167t-7 166t-2.5 131v788h270v-1490h-299l-466 741q-40 64 -79.5 132.5t-85.5 155.5t-108 205l38 8q7 -109 11.5 -206t7 -172.5t2.5 -121.5v-742h-270zM1669 1104h259v-1179
q0 -114 -44 -190.5t-127.5 -114.5t-203.5 -38h-63v211h43q73 0 104.5 35.5t31.5 105.5v1170zM1798 1262q-63 0 -107 42t-44 101q0 60 44 101t107 41t107.5 -41t44.5 -101q0 -59 -44.5 -101t-107.5 -42z" />
    <glyph glyph-name="uni01CC" unicode="&#x1cc;" horiz-adv-x="1758" 
d="M390 642v-642h-258v1104h247l3 -274h-27q47 144 138.5 217t228.5 73q114 0 200 -49t133.5 -143t47.5 -229v-699h-258v659q0 114 -57.5 177t-160.5 63q-68 0 -121.5 -29.5t-84.5 -86.5t-31 -141zM1367 1104h259v-1179q0 -114 -44 -190.5t-127.5 -114.5t-203.5 -38h-63v211
h43q73 0 104.5 35.5t31.5 105.5v1170zM1496 1262q-63 0 -107 42t-44 101q0 60 44 101t107 41t107.5 -41t44.5 -101q0 -59 -44.5 -101t-107.5 -42z" />
    <glyph glyph-name="uni01CD" unicode="&#x1cd;" horiz-adv-x="1475" 
d="M42 0l522 1490h338l531 -1490h-292l-264 776q-39 121 -81.5 269.5t-94.5 341.5h60q-51 -194 -92 -343.5t-78 -267.5l-259 -776h-290zM347 366v216h780v-216h-780zM595 1937l141 -171l141 171h229v-6l-265 -288h-211l-263 288v6h228z" />
    <glyph glyph-name="uni01CE" unicode="&#x1ce;" horiz-adv-x="1161" 
d="M447 -22q-106 0 -190.5 38t-133.5 112t-49 183q0 94 35 155t95.5 97.5t136.5 55.5t157 27q98 11 158 19t87.5 26t27.5 55v6q0 53 -22.5 90.5t-65.5 57.5t-107 20q-63 0 -110.5 -19.5t-77 -52t-41.5 -71.5l-241 38q27 101 93.5 168.5t163 102t214.5 34.5q84 0 164.5 -20
t145.5 -64.5t103.5 -117t38.5 -177.5v-741h-249v153h-9q-24 -47 -67 -87t-106.5 -64t-150.5 -24zM513 170q80 0 138.5 31.5t90 83.5t31.5 114v128q-13 -10 -41.5 -18.5t-65 -15t-73 -12t-64.5 -8.5q-57 -8 -103.5 -26.5t-73.5 -50t-27 -82.5q0 -47 24 -79t66 -48.5t98 -16.5
zM431 1551l141 -171l141 171h229v-6l-265 -288h-211l-263 288v6h228z" />
    <glyph glyph-name="uni01CF" unicode="&#x1cf;" horiz-adv-x="554" 
d="M411 1490v-1490h-267v1490h267zM136 1937l141 -171l141 171h229v-6l-265 -288h-211l-263 288v6h228z" />
    <glyph glyph-name="uni01D0" unicode="&#x1d0;" horiz-adv-x="522" 
d="M132 0v1104h258v-1104h-258zM120 1551l141 -171l141 171h229v-6l-265 -288h-211l-263 288v6h228z" />
    <glyph glyph-name="uni01D1" unicode="&#x1d1;" horiz-adv-x="1565" 
d="M783 -21q-196 0 -351.5 92t-245.5 263.5t-90 409.5q0 240 90 411.5t245.5 263.5t351.5 92t351 -92t244.5 -263.5t89.5 -411.5q0 -238 -89.5 -409.5t-244.5 -263.5t-351 -92zM783 218q121 0 215.5 60.5t148 178t53.5 287.5q0 171 -53.5 289t-148 178.5t-215.5 60.5
q-122 0 -216.5 -61t-148.5 -178.5t-54 -288.5q0 -170 54 -287t148.5 -178t216.5 -61zM641 1937l141 -171l141 171h229v-6l-265 -288h-211l-263 288v6h228z" />
    <glyph glyph-name="uni01D2" unicode="&#x1d2;" horiz-adv-x="1229" 
d="M614 -23q-161 0 -280.5 71.5t-185 200t-65.5 299.5t65.5 300t185 200.5t280.5 71.5q162 0 281.5 -71.5t185 -200.5t65.5 -300t-65.5 -299.5t-185 -200t-281.5 -71.5zM614 188q89 0 149 47.5t90.5 129t30.5 183.5q0 104 -30.5 185.5t-90.5 128.5t-149 47q-88 0 -148 -47
t-90 -128.5t-30 -185.5q0 -102 30 -183.5t90 -129t148 -47.5zM473 1551l141 -171l141 171h229v-6l-265 -288h-211l-263 288v6h228z" />
    <glyph glyph-name="uni01D3" unicode="&#x1d3;" horiz-adv-x="1493" 
d="M747 -22q-182 0 -318 68.5t-211 190t-75 280.5v973h265v-951q0 -94 42 -167t117.5 -115t179.5 -42q103 0 179 42t117 115t41 167v951h266v-973q0 -159 -75 -280.5t-210.5 -190t-317.5 -68.5zM605 1937l141 -171l141 171h229v-6l-265 -288h-211l-263 288v6h228z" />
    <glyph glyph-name="uni01D4" unicode="&#x1d4;" horiz-adv-x="1236" 
d="M514 -16q-114 0 -200 49t-134 143t-48 229v699h258v-659q0 -114 58 -177t160 -63q69 0 122.5 29.5t84 87.5t30.5 140v642h259v-1104h-248l-2 275h26q-47 -145 -139 -218t-227 -73zM477 1551l141 -171l141 171h229v-6l-265 -288h-211l-263 288v6h228z" />
    <glyph glyph-name="uni01D5" unicode="&#x1d5;" horiz-adv-x="1493" 
d="M747 -22q-182 0 -318 68.5t-211 190t-75 280.5v973h265v-951q0 -94 42 -167t117.5 -115t179.5 -42q103 0 179 42t117 115t41 167v951h266v-973q0 -159 -75 -280.5t-210.5 -190t-317.5 -68.5zM965 1625q-59 0 -100 40.5t-41 97.5q0 58 41 98t100 40t99.5 -40t40.5 -98
q0 -57 -40.5 -97.5t-99.5 -40.5zM529 1625q-59 0 -100 40.5t-41 97.5q0 58 41 98t100 40t100 -40t41 -98q0 -57 -41 -97.5t-100 -40.5zM1032 2177v-150h-570v150h570z" />
    <glyph glyph-name="uni01D6" unicode="&#x1d6;" horiz-adv-x="1236" 
d="M514 -16q-114 0 -200 49t-134 143t-48 229v699h258v-659q0 -114 58 -177t160 -63q69 0 122.5 29.5t84 87.5t30.5 140v642h259v-1104h-248l-2 275h26q-47 -145 -139 -218t-227 -73zM836 1239q-59 0 -100 40.5t-41 97.5q0 58 41 98t100 40t99.5 -40t40.5 -98
q0 -57 -40.5 -97.5t-99.5 -40.5zM400 1239q-59 0 -100 40.5t-41 97.5q0 58 41 98t100 40t100 -40t41 -98q0 -57 -41 -97.5t-100 -40.5zM903 1791v-150h-570v150h570z" />
    <glyph glyph-name="uni01D7" unicode="&#x1d7;" horiz-adv-x="1493" 
d="M747 -22q-182 0 -318 68.5t-211 190t-75 280.5v973h265v-951q0 -94 42 -167t117.5 -115t179.5 -42q103 0 179 42t117 115t41 167v951h266v-973q0 -159 -75 -280.5t-210.5 -190t-317.5 -68.5zM965 1625q-59 0 -100 40.5t-41 97.5q0 58 41 98t100 40t99.5 -40t40.5 -98
q0 -57 -40.5 -97.5t-99.5 -40.5zM529 1625q-59 0 -100 40.5t-41 97.5q0 58 41 98t100 40t100 -40t41 -98q0 -57 -41 -97.5t-100 -40.5zM658 1987l135 273h231l-195 -273h-171z" />
    <glyph glyph-name="uni01D8" unicode="&#x1d8;" horiz-adv-x="1236" 
d="M514 -16q-114 0 -200 49t-134 143t-48 229v699h258v-659q0 -114 58 -177t160 -63q69 0 122.5 29.5t84 87.5t30.5 140v642h259v-1104h-248l-2 275h26q-47 -145 -139 -218t-227 -73zM836 1239q-59 0 -100 40.5t-41 97.5q0 58 41 98t100 40t99.5 -40t40.5 -98
q0 -57 -40.5 -97.5t-99.5 -40.5zM400 1239q-59 0 -100 40.5t-41 97.5q0 58 41 98t100 40t100 -40t41 -98q0 -57 -41 -97.5t-100 -40.5zM529 1601l135 273h231l-195 -273h-171z" />
    <glyph glyph-name="uni01D9" unicode="&#x1d9;" horiz-adv-x="1493" 
d="M747 -22q-182 0 -318 68.5t-211 190t-75 280.5v973h265v-951q0 -94 42 -167t117.5 -115t179.5 -42q103 0 179 42t117 115t41 167v951h266v-973q0 -159 -75 -280.5t-210.5 -190t-317.5 -68.5zM965 1625q-59 0 -100 40.5t-41 97.5q0 58 41 98t100 40t99.5 -40t40.5 -98
q0 -57 -40.5 -97.5t-99.5 -40.5zM529 1625q-59 0 -100 40.5t-41 97.5q0 58 41 98t100 40t100 -40t41 -98q0 -57 -41 -97.5t-100 -40.5zM615 2257l132 -161l132 161h208v-7l-244 -266h-193l-243 266v7h208z" />
    <glyph glyph-name="uni01DA" unicode="&#x1da;" horiz-adv-x="1236" 
d="M514 -16q-114 0 -200 49t-134 143t-48 229v699h258v-659q0 -114 58 -177t160 -63q69 0 122.5 29.5t84 87.5t30.5 140v642h259v-1104h-248l-2 275h26q-47 -145 -139 -218t-227 -73zM836 1239q-59 0 -100 40.5t-41 97.5q0 58 41 98t100 40t99.5 -40t40.5 -98
q0 -57 -40.5 -97.5t-99.5 -40.5zM400 1239q-59 0 -100 40.5t-41 97.5q0 58 41 98t100 40t100 -40t41 -98q0 -57 -41 -97.5t-100 -40.5zM486 1871l132 -161l132 161h208v-7l-244 -266h-193l-243 266v7h208z" />
    <glyph glyph-name="uni01DB" unicode="&#x1db;" horiz-adv-x="1493" 
d="M747 -22q-182 0 -318 68.5t-211 190t-75 280.5v973h265v-951q0 -94 42 -167t117.5 -115t179.5 -42q103 0 179 42t117 115t41 167v951h266v-973q0 -159 -75 -280.5t-210.5 -190t-317.5 -68.5zM965 1625q-59 0 -100 40.5t-41 97.5q0 58 41 98t100 40t99.5 -40t40.5 -98
q0 -57 -40.5 -97.5t-99.5 -40.5zM529 1625q-59 0 -100 40.5t-41 97.5q0 58 41 98t100 40t100 -40t41 -98q0 -57 -41 -97.5t-100 -40.5zM655 1987l-194 273h231l135 -273h-172z" />
    <glyph glyph-name="uni01DC" unicode="&#x1dc;" horiz-adv-x="1236" 
d="M514 -16q-114 0 -200 49t-134 143t-48 229v699h258v-659q0 -114 58 -177t160 -63q69 0 122.5 29.5t84 87.5t30.5 140v642h259v-1104h-248l-2 275h26q-47 -145 -139 -218t-227 -73zM836 1239q-59 0 -100 40.5t-41 97.5q0 58 41 98t100 40t99.5 -40t40.5 -98
q0 -57 -40.5 -97.5t-99.5 -40.5zM400 1239q-59 0 -100 40.5t-41 97.5q0 58 41 98t100 40t100 -40t41 -98q0 -57 -41 -97.5t-100 -40.5zM526 1601l-194 273h231l135 -273h-172z" />
    <glyph glyph-name="eturn" unicode="&#x1dd;" horiz-adv-x="1194" 
d="M574 1127q166 0 286.5 -70.5t185.5 -198.5t65 -300q0 -169 -65 -299t-182 -202.5t-274 -72.5q-106 0 -198 34.5t-162.5 104.5t-110.5 175t-40 247v78h914v-176h-785l120 51q0 -93 29.5 -163t87.5 -109t143 -39q84 0 144 39.5t91.5 106.5t31.5 151v119q0 104 -35 175.5
t-99 108.5t-151 37q-58 0 -105.5 -16.5t-80.5 -49.5t-50 -80l-239 38q26 94 91.5 163.5t164.5 108.5t223 39z" />
    <glyph glyph-name="uni01DE" unicode="&#x1de;" horiz-adv-x="1475" 
d="M42 0l522 1490h338l531 -1490h-292l-264 776q-39 121 -81.5 269.5t-94.5 341.5h60q-51 -194 -92 -343.5t-78 -267.5l-259 -776h-290zM347 366v216h780v-216h-780zM955 1625q-59 0 -100 40.5t-41 97.5q0 58 41 98t100 40t99.5 -40t40.5 -98q0 -57 -40.5 -97.5t-99.5 -40.5
zM519 1625q-59 0 -100 40.5t-41 97.5q0 58 41 98t100 40t100 -40t41 -98q0 -57 -41 -97.5t-100 -40.5zM1022 2177v-150h-570v150h570z" />
    <glyph glyph-name="uni01DF" unicode="&#x1df;" horiz-adv-x="1161" 
d="M447 -22q-106 0 -190.5 38t-133.5 112t-49 183q0 94 35 155t95.5 97.5t136.5 55.5t157 27q98 11 158 19t87.5 26t27.5 55v6q0 53 -22.5 90.5t-65.5 57.5t-107 20q-63 0 -110.5 -19.5t-77 -52t-41.5 -71.5l-241 38q27 101 93.5 168.5t163 102t214.5 34.5q84 0 164.5 -20
t145.5 -64.5t103.5 -117t38.5 -177.5v-741h-249v153h-9q-24 -47 -67 -87t-106.5 -64t-150.5 -24zM513 170q80 0 138.5 31.5t90 83.5t31.5 114v128q-13 -10 -41.5 -18.5t-65 -15t-73 -12t-64.5 -8.5q-57 -8 -103.5 -26.5t-73.5 -50t-27 -82.5q0 -47 24 -79t66 -48.5t98 -16.5
zM791 1239q-59 0 -100 40.5t-41 97.5q0 58 41 98t100 40t99.5 -40t40.5 -98q0 -57 -40.5 -97.5t-99.5 -40.5zM355 1239q-59 0 -100 40.5t-41 97.5q0 58 41 98t100 40t100 -40t41 -98q0 -57 -41 -97.5t-100 -40.5zM858 1791v-150h-570v150h570z" />
    <glyph glyph-name="uni01E0" unicode="&#x1e0;" horiz-adv-x="1475" 
d="M42 0l522 1490h338l531 -1490h-292l-264 776q-39 121 -81.5 269.5t-94.5 341.5h60q-51 -194 -92 -343.5t-78 -267.5l-259 -776h-290zM347 366v216h780v-216h-780zM738 1620q-63 0 -107 42t-44 101q0 60 44 101.5t107 41.5t107.5 -41.5t44.5 -101.5q0 -59 -44.5 -101
t-107.5 -42zM1023 2177v-150h-571v150h571z" />
    <glyph glyph-name="uni01E1" unicode="&#x1e1;" horiz-adv-x="1161" 
d="M447 -22q-106 0 -190.5 38t-133.5 112t-49 183q0 94 35 155t95.5 97.5t136.5 55.5t157 27q98 11 158 19t87.5 26t27.5 55v6q0 53 -22.5 90.5t-65.5 57.5t-107 20q-63 0 -110.5 -19.5t-77 -52t-41.5 -71.5l-241 38q27 101 93.5 168.5t163 102t214.5 34.5q84 0 164.5 -20
t145.5 -64.5t103.5 -117t38.5 -177.5v-741h-249v153h-9q-24 -47 -67 -87t-106.5 -64t-150.5 -24zM513 170q80 0 138.5 31.5t90 83.5t31.5 114v128q-13 -10 -41.5 -18.5t-65 -15t-73 -12t-64.5 -8.5q-57 -8 -103.5 -26.5t-73.5 -50t-27 -82.5q0 -47 24 -79t66 -48.5t98 -16.5
zM573 1234q-63 0 -107 42t-44 101q0 60 44 101.5t107 41.5t107.5 -41.5t44.5 -101.5q0 -59 -44.5 -101t-107.5 -42zM858 1791v-150h-571v150h571z" />
    <glyph glyph-name="uni01E2" unicode="&#x1e2;" horiz-adv-x="2069" 
d="M42 0l661 1490h1255v-226h-715v-404h664v-223h-664v-411h719v-226h-976v1307h-93l-561 -1307h-290zM388 378v201h727v-201h-727zM1619 1873v-174h-570v174h570z" />
    <glyph glyph-name="uni01E3" unicode="&#x1e3;" horiz-adv-x="1854" 
d="M462 -21q-115 0 -202.5 38t-136.5 112.5t-49 181.5q0 93 40.5 159t111 107t160.5 60.5t189 19.5h1032l-84 -55q7 94 -22.5 164.5t-88.5 110.5t-144 40q-84 0 -144.5 -39t-92.5 -106.5t-32 -151.5v-119q0 -104 35 -175.5t99 -108.5t150 -37q59 0 106 17t80.5 50t50.5 80
l242 -23q-22 -98 -87.5 -171.5t-166 -114.5t-229.5 -41q-112 0 -203 34.5t-154.5 96.5t-95.5 146l16 616q41 77 102.5 133.5t142 86.5t179.5 30q106 0 198 -34.5t162 -104t109.5 -175t39.5 -247.5v-78h-1195q-77 0 -134.5 -19.5t-89 -56.5t-31.5 -88q0 -73 52.5 -110
t135.5 -37q80 0 138 31.5t89 83.5t31 114v353q0 52 -22.5 90t-65.5 58t-107 20q-63 0 -110.5 -19.5t-77 -52t-41.5 -71.5l-241 38q27 99 93 166.5t162.5 103t213.5 35.5q105 0 187.5 -32.5t136.5 -100t70 -173.5l-21 -603h-57q-21 -56 -63.5 -99t-100 -73t-125.5 -45
t-140 -15zM1196 1487v-174h-570v174h570z" />
    <glyph glyph-name="Gbar" unicode="&#x1e4;" horiz-adv-x="1527" 
d="M788 -21q-206 0 -361.5 94t-243 265.5t-87.5 404.5q0 239 89.5 411t244.5 264.5t351 92.5q123 0 230.5 -36.5t191.5 -103.5t138 -158.5t71 -202.5h-272q-17 61 -48.5 109t-77 82.5t-103 52.5t-126.5 18q-123 0 -218 -62t-149 -179.5t-54 -285.5q0 -167 53.5 -284.5
t149.5 -180t223 -62.5q114 0 198 44t130.5 125t46.5 190l63 -8h-408v209h604v-179q0 -189 -82 -328.5t-225.5 -215.5t-328.5 -76zM820 346v121h694v-121h-694z" />
    <glyph glyph-name="gbar" unicode="&#x1e5;" horiz-adv-x="1386" 
d="M614 -440q-136 0 -236 35.5t-162.5 98t-87.5 142.5l227 61q16 -34 47.5 -66.5t83 -53t127.5 -20.5q120 0 191 58t71 179v200h-16q-23 -45 -62.5 -87t-101.5 -69t-152 -27q-131 0 -235 62.5t-164.5 184t-60.5 297.5q0 179 61 305t165.5 193t234.5 67q92 0 155 -30
t103.5 -75t64.5 -90h11v179h254v-1101q0 -152 -67.5 -250t-184.5 -145.5t-266 -47.5zM612 217q85 0 144.5 41t91 117.5t31.5 182.5q0 105 -31 183.5t-90.5 122.5t-145.5 44q-85 0 -144.5 -45t-90 -123.5t-30.5 -181.5q0 -104 31 -180.5t90 -118.5t144 -42zM662 500v130h684
v-130h-684z" />
    <glyph glyph-name="Gcaron" unicode="&#x1e6;" horiz-adv-x="1527" 
d="M788 -21q-206 0 -361.5 94t-243 265.5t-87.5 404.5q0 239 89.5 411t244.5 264.5t351 92.5q123 0 230.5 -36.5t191.5 -103.5t138 -158.5t71 -202.5h-272q-17 61 -48.5 109t-77 82.5t-103 52.5t-126.5 18q-123 0 -218 -62t-149 -179.5t-54 -285.5q0 -167 53.5 -284.5
t149.5 -180t223 -62.5q114 0 198 44t130.5 125t46.5 190l63 -8h-408v209h604v-179q0 -189 -82 -328.5t-225.5 -215.5t-328.5 -76zM634 1937l141 -171l141 171h229v-6l-265 -288h-211l-263 288v6h228z" />
    <glyph glyph-name="gcaron" unicode="&#x1e7;" horiz-adv-x="1264" 
d="M614 -440q-136 0 -236 35.5t-162.5 98t-87.5 142.5l227 61q16 -34 47.5 -66.5t83 -53t127.5 -20.5q120 0 191 58t71 179v200h-16q-23 -45 -62.5 -87t-101.5 -69t-152 -27q-131 0 -235 62.5t-164.5 184t-60.5 297.5q0 179 61 305t165.5 193t234.5 67q92 0 155 -30
t103.5 -75t64.5 -90h11v179h254v-1101q0 -152 -67.5 -250t-184.5 -145.5t-266 -47.5zM612 217q85 0 144.5 41t91 117.5t31.5 182.5q0 105 -31 183.5t-90.5 122.5t-145.5 44q-85 0 -144.5 -45t-90 -123.5t-30.5 -181.5q0 -104 31 -180.5t90 -118.5t144 -42zM470 1551
l141 -171l141 171h229v-6l-265 -288h-211l-263 288v6h228z" />
    <glyph glyph-name="uni01E8" unicode="&#x1e8;" horiz-adv-x="1425" 
d="M337 363v271q48 74 95.5 140.5t100 132t113.5 137.5l393 446h330l-631 -712l-20 5zM144 0v1490h267v-443l-4 -359l4 -130v-558h-267zM1066 0l-475 702l166 201l623 -903h-314zM572 1937l141 -171l141 171h229v-6l-265 -288h-211l-263 288v6h228z" />
    <glyph glyph-name="uni01E9" unicode="&#x1e9;" horiz-adv-x="1151" 
d="M368 347v311h38l405 446h305l-494 -544h-53zM132 0v1490h258v-1490h-258zM831 0l-366 503l175 182l502 -685h-311zM120 1937l141 -171l141 171h229v-6l-265 -288h-211l-263 288v6h228z" />
    <glyph glyph-name="uni01EA" unicode="&#x1ea;" horiz-adv-x="1565" 
d="M783 -21q-196 0 -351.5 92t-245.5 263.5t-90 409.5q0 240 90 411.5t245.5 263.5t351.5 92t351 -92t244.5 -263.5t89.5 -411.5q0 -238 -89.5 -409.5t-244.5 -263.5t-351 -92zM783 218q121 0 215.5 60.5t148 178t53.5 287.5q0 171 -53.5 289t-148 178.5t-215.5 60.5
q-122 0 -216.5 -61t-148.5 -178.5t-54 -288.5q0 -170 54 -287t148.5 -178t216.5 -61zM840 -429q-111 0 -182.5 53t-71.5 151q0 76 43.5 128.5t115 93.5t157 82.5t170.5 93.5t156 126.5t114.5 182.5t43.5 262h82q0 -163 -35 -280t-92 -199t-125.5 -138.5t-137.5 -95.5
t-126.5 -70.5t-92 -65t-34.5 -78.5q0 -34 19 -53.5t58 -19.5q22 0 41.5 5.5t36.5 13.5l48 -153q-34 -15 -83 -27t-105 -12z" />
    <glyph glyph-name="uni01EB" unicode="&#x1eb;" horiz-adv-x="1229" 
d="M614 -23q-161 0 -280.5 71.5t-185 200t-65.5 299.5t65.5 300t185 200.5t280.5 71.5q162 0 281.5 -71.5t185 -200.5t65.5 -300t-65.5 -299.5t-185 -200t-281.5 -71.5zM614 188q89 0 149 47.5t90.5 129t30.5 183.5q0 104 -30.5 185.5t-90.5 128.5t-149 47q-88 0 -148 -47
t-90 -128.5t-30 -185.5q0 -102 30 -183.5t90 -129t148 -47.5zM677 -429q-114 0 -184.5 52.5t-70.5 150.5q0 68 32 116.5t85.5 87.5t117 75.5t127 79t117 98t85.5 133t32 184.5h128q0 -140 -35 -235.5t-90.5 -159t-118.5 -106t-118.5 -76t-90.5 -68.5t-35 -86
q0 -34 19.5 -53.5t60.5 -19.5q21 0 39 5.5t35 13.5l49 -153q-34 -15 -82 -27t-102 -12z" />
    <glyph glyph-name="uni01EC" unicode="&#x1ec;" horiz-adv-x="1565" 
d="M783 -21q-196 0 -351.5 92t-245.5 263.5t-90 409.5q0 240 90 411.5t245.5 263.5t351.5 92t351 -92t244.5 -263.5t89.5 -411.5q0 -238 -89.5 -409.5t-244.5 -263.5t-351 -92zM783 218q121 0 215.5 60.5t148 178t53.5 287.5q0 171 -53.5 289t-148 178.5t-215.5 60.5
q-122 0 -216.5 -61t-148.5 -178.5t-54 -288.5q0 -170 54 -287t148.5 -178t216.5 -61zM840 -429q-111 0 -182.5 53t-71.5 151q0 76 43.5 128.5t115 93.5t157 82.5t170.5 93.5t156 126.5t114.5 182.5t43.5 262h82q0 -163 -35 -280t-92 -199t-125.5 -138.5t-137.5 -95.5
t-126.5 -70.5t-92 -65t-34.5 -78.5q0 -34 19 -53.5t58 -19.5q22 0 41.5 5.5t36.5 13.5l48 -153q-34 -15 -83 -27t-105 -12zM1068 1873v-174h-570v174h570z" />
    <glyph glyph-name="uni01ED" unicode="&#x1ed;" horiz-adv-x="1229" 
d="M614 -23q-161 0 -280.5 71.5t-185 200t-65.5 299.5t65.5 300t185 200.5t280.5 71.5q162 0 281.5 -71.5t185 -200.5t65.5 -300t-65.5 -299.5t-185 -200t-281.5 -71.5zM614 188q89 0 149 47.5t90.5 129t30.5 183.5q0 104 -30.5 185.5t-90.5 128.5t-149 47q-88 0 -148 -47
t-90 -128.5t-30 -185.5q0 -102 30 -183.5t90 -129t148 -47.5zM677 -429q-114 0 -184.5 52.5t-70.5 150.5q0 68 32 116.5t85.5 87.5t117 75.5t127 79t117 98t85.5 133t32 184.5h128q0 -140 -35 -235.5t-90.5 -159t-118.5 -106t-118.5 -76t-90.5 -68.5t-35 -86
q0 -34 19.5 -53.5t60.5 -19.5q21 0 39 5.5t35 13.5l49 -153q-34 -15 -82 -27t-102 -12zM899 1487v-174h-570v174h570z" />
    <glyph glyph-name="uni01EE" unicode="&#x1ee;" horiz-adv-x="1390" 
d="M75 91h269q5 -90 52.5 -158.5t123 -107t166.5 -38.5q108 0 185.5 53t119.5 145t42 207q0 130 -52.5 224.5t-144.5 146t-211 51.5h-144v199l446 437v12h-768v228h1108v-193l-499 -490v-14q160 -10 281 -88.5t188.5 -209.5t67.5 -299q0 -138 -45 -255t-127.5 -202.5
t-196 -132.5t-250.5 -47q-170 0 -306 68t-217 188t-88 276zM552 1937l141 -171l141 171h229v-6l-265 -288h-211l-263 288v6h228z" />
    <glyph glyph-name="uni01EF" unicode="&#x1ef;" horiz-adv-x="1292" 
d="M647 -407q-156 0 -278 55.5t-192.5 155t-75.5 232.5h267q5 -69 42 -118.5t99 -76t139 -26.5q81 0 143 29t97.5 84.5t35.5 134.5q0 72 -35 130t-105 93t-177 35h-160v183l358 369v8h-626v223h954v-198l-485 -488v54q170 19 292.5 -33.5t188.5 -154.5t66 -232
q0 -137 -70.5 -240t-194 -161t-283.5 -58zM507 1551l141 -171l141 171h229v-6l-265 -288h-211l-263 288v6h228z" />
    <glyph glyph-name="uni01F0" unicode="&#x1f0;" horiz-adv-x="523" 
d="M132 1104h259v-1179q0 -114 -44 -190.5t-127.5 -114.5t-203.5 -38h-63v211h43q73 0 104.5 35.5t31.5 105.5v1170zM120 1551l141 -171l141 171h229v-6l-265 -288h-211l-263 288v6h228z" />
    <glyph glyph-name="uni01F1" unicode="&#x1f1;" horiz-adv-x="2792" 
d="M648 0h-377v230h363q158 0 263 58t157.5 173t52.5 286q0 169 -52.5 283t-155.5 172t-257 58h-378v230h394q222 0 381.5 -89.5t245.5 -256t86 -397.5q0 -233 -86 -400t-248 -257t-389 -90zM411 1490v-1490h-267v1490h267zM1573 0v176l641 894q53 72 113.5 145t122.5 146
l24 -88q-96 -6 -192 -7.5t-192 -1.5h-515v226h1110v-177l-630 -879q-56 -76 -119 -152.5t-128 -152.5l-24 88q98 6 196 7.5t196 1.5h514v-226h-1117z" />
    <glyph glyph-name="uni01F2" unicode="&#x1f2;" horiz-adv-x="2600" 
d="M648 0h-377v230h363q158 0 263 58t157.5 173t52.5 286q0 169 -52.5 283t-155.5 172t-257 58h-378v230h394q222 0 381.5 -89.5t245.5 -256t86 -397.5q0 -233 -86 -400t-248 -257t-389 -90zM411 1490v-1490h-267v1490h267zM1583 0v168l569 714v7h-555v215h870v-181
l-546 -701v-7h563v-215h-901z" />
    <glyph glyph-name="uni01F3" unicode="&#x1f3;" horiz-adv-x="2394" 
d="M543 -21q-133 0 -237 68.5t-163.5 196t-59.5 306.5q0 182 60.5 309t164.5 194t234 67q93 0 155.5 -30t102.5 -74.5t62 -88.5h9v563h258v-1490h-253v174h-13q-23 -46 -63.5 -90.5t-103 -74.5t-153.5 -30zM611 193q85 0 144.5 45t91 125.5t31.5 187.5q0 108 -31 188
t-91 124t-145 44t-144 -45t-89.5 -125t-30.5 -186q0 -105 30.5 -186t90 -126.5t143.5 -45.5zM1377 0v168l569 714v7h-555v215h870v-181l-546 -701v-7h563v-215h-901z" />
    <glyph glyph-name="uni01F4" unicode="&#x1f4;" horiz-adv-x="1527" 
d="M788 -21q-206 0 -361.5 94t-243 265.5t-87.5 404.5q0 239 89.5 411t244.5 264.5t351 92.5q123 0 230.5 -36.5t191.5 -103.5t138 -158.5t71 -202.5h-272q-17 61 -48.5 109t-77 82.5t-103 52.5t-126.5 18q-123 0 -218 -62t-149 -179.5t-54 -285.5q0 -167 53.5 -284.5
t149.5 -180t223 -62.5q114 0 198 44t130.5 125t46.5 190l63 -8h-408v209h604v-179q0 -189 -82 -328.5t-225.5 -215.5t-328.5 -76zM675 1631l144 306h254l-210 -306h-188z" />
    <glyph glyph-name="uni01F5" unicode="&#x1f5;" horiz-adv-x="1264" 
d="M614 -440q-136 0 -236 35.5t-162.5 98t-87.5 142.5l227 61q16 -34 47.5 -66.5t83 -53t127.5 -20.5q120 0 191 58t71 179v200h-16q-23 -45 -62.5 -87t-101.5 -69t-152 -27q-131 0 -235 62.5t-164.5 184t-60.5 297.5q0 179 61 305t165.5 193t234.5 67q92 0 155 -30
t103.5 -75t64.5 -90h11v179h254v-1101q0 -152 -67.5 -250t-184.5 -145.5t-266 -47.5zM612 217q85 0 144.5 41t91 117.5t31.5 182.5q0 105 -31 183.5t-90.5 122.5t-145.5 44q-85 0 -144.5 -45t-90 -123.5t-30.5 -181.5q0 -104 31 -180.5t90 -118.5t144 -42zM512 1245l144 306
h254l-210 -306h-188z" />
    <glyph glyph-name="uni01F6" unicode="&#x1f6;" horiz-adv-x="2267" 
d="M1622 -20q-157 0 -274 58t-181.5 168.5t-64.5 267.5v162h-691v-636h-267v1490h267v-628h691v628h268v-1013q0 -89 30 -149.5t86.5 -90.5t135.5 -30q80 0 135 30t84.5 90.5t29.5 149.5v612h264v-615q0 -158 -64 -268.5t-179.5 -168t-269.5 -57.5z" />
    <glyph glyph-name="uni01F7" unicode="&#x1f7;" horiz-adv-x="1430" 
d="M419 1490v-1908h-276v1908h276zM289 -185v224q183 42 318 119.5t224.5 181t133 224t43.5 246.5v56q0 95 -17 172.5t-55 133.5t-100 85.5t-151 29.5q-102 0 -173.5 -37t-114.5 -102.5t-62 -151.5v400q53 51 139 82.5t209 31.5q179 0 316 -72.5t213.5 -216.5t76.5 -359v-52
q0 -181 -70.5 -341.5t-202 -290.5t-315.5 -223t-412 -140z" />
    <glyph glyph-name="uni01F8" unicode="&#x1f8;" horiz-adv-x="1537" 
d="M144 0v1490h298l517 -823q30 -47 65.5 -109.5t74 -139t75.5 -165.5l-30 -15q-7 80 -11.5 167t-7 166t-2.5 131v788h270v-1490h-299l-466 741q-40 64 -79.5 132.5t-85.5 155.5t-108 205l38 8q7 -109 11.5 -206t7 -172.5t2.5 -121.5v-742h-270zM679 1631l-209 306h254
l144 -306h-189z" />
    <glyph glyph-name="uni01F9" unicode="&#x1f9;" horiz-adv-x="1235" 
d="M390 642v-642h-258v1104h247l3 -274h-27q47 144 138.5 217t228.5 73q114 0 200 -49t133.5 -143t47.5 -229v-699h-258v659q0 114 -57.5 177t-160.5 63q-68 0 -121.5 -29.5t-84.5 -86.5t-31 -141zM527 1245l-209 306h254l144 -306h-189z" />
    <glyph glyph-name="Aringacute" unicode="&#x1fa;" horiz-adv-x="1475" 
d="M42 0l522 1490h338l531 -1490h-292l-264 776q-39 121 -81.5 269.5t-94.5 341.5h60q-51 -194 -92 -343.5t-78 -267.5l-259 -776h-290zM347 366v216h780v-216h-780zM648 2082l146 198h228l-199 -198h-175zM736 1550q-76 0 -136 32t-95 86.5t-35 121.5q0 68 35 122t95 86
t136 32q77 0 137 -32t94.5 -86t34.5 -122q0 -67 -34.5 -121.5t-94.5 -86.5t-137 -32zM736 1678q51 0 84 32t33 80t-33 80.5t-84 32.5q-50 0 -83.5 -32.5t-33.5 -80.5t33.5 -80t83.5 -32z" />
    <glyph glyph-name="aringacute" unicode="&#x1fb;" horiz-adv-x="1161" 
d="M447 -22q-106 0 -190.5 38t-133.5 112t-49 183q0 94 35 155t95.5 97.5t136.5 55.5t157 27q98 11 158 19t87.5 26t27.5 55v6q0 53 -22.5 90.5t-65.5 57.5t-107 20q-63 0 -110.5 -19.5t-77 -52t-41.5 -71.5l-241 38q27 101 93.5 168.5t163 102t214.5 34.5q84 0 164.5 -20
t145.5 -64.5t103.5 -117t38.5 -177.5v-741h-249v153h-9q-24 -47 -67 -87t-106.5 -64t-150.5 -24zM513 170q80 0 138.5 31.5t90 83.5t31.5 114v128q-13 -10 -41.5 -18.5t-65 -15t-73 -12t-64.5 -8.5q-57 -8 -103.5 -26.5t-73.5 -50t-27 -82.5q0 -47 24 -79t66 -48.5t98 -16.5
zM489 1748l146 198h227l-199 -198h-174zM572 1182q-73 0 -133.5 33.5t-96.5 90.5t-36 127t36 126.5t96.5 90t133.5 33.5q74 0 134.5 -33.5t96 -90t35.5 -126.5t-35.5 -127t-96 -90.5t-134.5 -33.5zM572 1314q50 0 84.5 34.5t34.5 84.5q0 49 -34.5 83t-84.5 34
q-49 0 -83.5 -34t-34.5 -83q0 -50 34.5 -84.5t83.5 -34.5z" />
    <glyph glyph-name="AEacute" unicode="&#x1fc;" horiz-adv-x="2069" 
d="M42 0l661 1490h1255v-226h-715v-404h664v-223h-664v-411h719v-226h-976v1307h-93l-561 -1307h-290zM388 378v201h727v-201h-727zM1234 1631l144 306h254l-210 -306h-188z" />
    <glyph glyph-name="aeacute" unicode="&#x1fd;" horiz-adv-x="1854" 
d="M462 -21q-115 0 -202.5 38t-136.5 112.5t-49 181.5q0 93 40.5 159t111 107t160.5 60.5t189 19.5h1032l-84 -55q7 94 -22.5 164.5t-88.5 110.5t-144 40q-84 0 -144.5 -39t-92.5 -106.5t-32 -151.5v-119q0 -104 35 -175.5t99 -108.5t150 -37q59 0 106 17t80.5 50t50.5 80
l242 -23q-22 -98 -87.5 -171.5t-166 -114.5t-229.5 -41q-112 0 -203 34.5t-154.5 96.5t-95.5 146l16 616q41 77 102.5 133.5t142 86.5t179.5 30q106 0 198 -34.5t162 -104t109.5 -175t39.5 -247.5v-78h-1195q-77 0 -134.5 -19.5t-89 -56.5t-31.5 -88q0 -73 52.5 -110
t135.5 -37q80 0 138 31.5t89 83.5t31 114v353q0 52 -22.5 90t-65.5 58t-107 20q-63 0 -110.5 -19.5t-77 -52t-41.5 -71.5l-241 38q27 99 93 166.5t162.5 103t213.5 35.5q105 0 187.5 -32.5t136.5 -100t70 -173.5l-21 -603h-57q-21 -56 -63.5 -99t-100 -73t-125.5 -45
t-140 -15zM811 1245l144 306h254l-210 -306h-188z" />
    <glyph glyph-name="Oslashacute" unicode="&#x1fe;" horiz-adv-x="1565" 
d="M783 -21q-196 0 -351.5 92t-245.5 263.5t-90 409.5q0 240 90 411.5t245.5 263.5t351.5 92t351 -92t244.5 -263.5t89.5 -411.5q0 -238 -89.5 -409.5t-244.5 -263.5t-351 -92zM783 218q121 0 215.5 60.5t148 178t53.5 287.5q0 171 -53.5 289t-148 178.5t-215.5 60.5
q-122 0 -216.5 -61t-148.5 -178.5t-54 -288.5q0 -170 54 -287t148.5 -178t216.5 -61zM303 -60l-145 106l1104 1503l145 -106zM683 1631l144 306h254l-210 -306h-188z" />
    <glyph glyph-name="oslashacute" unicode="&#x1ff;" horiz-adv-x="1229" 
d="M614 -23q-161 0 -280.5 71.5t-185 200t-65.5 299.5t65.5 300t185 200.5t280.5 71.5q162 0 281.5 -71.5t185 -200.5t65.5 -300t-65.5 -299.5t-185 -200t-281.5 -71.5zM614 188q89 0 149 47.5t90.5 129t30.5 183.5q0 104 -30.5 185.5t-90.5 128.5t-149 47q-88 0 -148 -47
t-90 -128.5t-30 -185.5q0 -102 30 -183.5t90 -129t148 -47.5zM181 -46l-106 92l972 1104l106 -92zM514 1245l144 306h254l-210 -306h-188z" />
    <glyph glyph-name="uni0200" unicode="&#x200;" horiz-adv-x="1475" 
d="M42 0l522 1490h338l531 -1490h-292l-264 776q-39 121 -81.5 269.5t-94.5 341.5h60q-51 -194 -92 -343.5t-78 -267.5l-259 -776h-290zM347 366v216h780v-216h-780zM815 1631l-170 306h244l115 -306h-189zM476 1631l-238 306h258l172 -306h-192z" />
    <glyph glyph-name="uni0201" unicode="&#x201;" horiz-adv-x="1161" 
d="M447 -22q-106 0 -190.5 38t-133.5 112t-49 183q0 94 35 155t95.5 97.5t136.5 55.5t157 27q98 11 158 19t87.5 26t27.5 55v6q0 53 -22.5 90.5t-65.5 57.5t-107 20q-63 0 -110.5 -19.5t-77 -52t-41.5 -71.5l-241 38q27 101 93.5 168.5t163 102t214.5 34.5q84 0 164.5 -20
t145.5 -64.5t103.5 -117t38.5 -177.5v-741h-249v153h-9q-24 -47 -67 -87t-106.5 -64t-150.5 -24zM513 170q80 0 138.5 31.5t90 83.5t31.5 114v128q-13 -10 -41.5 -18.5t-65 -15t-73 -12t-64.5 -8.5q-57 -8 -103.5 -26.5t-73.5 -50t-27 -82.5q0 -47 24 -79t66 -48.5t98 -16.5
zM650 1245l-170 306h244l115 -306h-189zM311 1245l-238 306h258l172 -306h-192z" />
    <glyph glyph-name="uni0202" unicode="&#x202;" horiz-adv-x="1475" 
d="M42 0l522 1490h338l531 -1490h-292l-264 776q-39 121 -81.5 269.5t-94.5 341.5h60q-51 -194 -92 -343.5t-78 -267.5l-259 -776h-290zM347 366v216h780v-216h-780zM737 1952q96 0 171 -41t118.5 -111t43.5 -157h-161q0 68 -50.5 111.5t-121.5 43.5q-72 0 -122.5 -43.5
t-50.5 -111.5h-161q0 87 43.5 157t119 111t171.5 41z" />
    <glyph glyph-name="uni0203" unicode="&#x203;" horiz-adv-x="1161" 
d="M447 -22q-106 0 -190.5 38t-133.5 112t-49 183q0 94 35 155t95.5 97.5t136.5 55.5t157 27q98 11 158 19t87.5 26t27.5 55v6q0 53 -22.5 90.5t-65.5 57.5t-107 20q-63 0 -110.5 -19.5t-77 -52t-41.5 -71.5l-241 38q27 101 93.5 168.5t163 102t214.5 34.5q84 0 164.5 -20
t145.5 -64.5t103.5 -117t38.5 -177.5v-741h-249v153h-9q-24 -47 -67 -87t-106.5 -64t-150.5 -24zM513 170q80 0 138.5 31.5t90 83.5t31.5 114v128q-13 -10 -41.5 -18.5t-65 -15t-73 -12t-64.5 -8.5q-57 -8 -103.5 -26.5t-73.5 -50t-27 -82.5q0 -47 24 -79t66 -48.5t98 -16.5
zM572 1566q96 0 171 -41t118.5 -111t43.5 -157h-161q0 68 -50.5 111.5t-121.5 43.5q-72 0 -122.5 -43.5t-50.5 -111.5h-161q0 87 43.5 157t119 111t171.5 41z" />
    <glyph glyph-name="uni0204" unicode="&#x204;" horiz-adv-x="1237" 
d="M144 0v1490h983v-226h-716v-399h663v-223h-663v-416h719v-226h-986zM716 1631l-170 306h244l115 -306h-189zM377 1631l-238 306h258l172 -306h-192z" />
    <glyph glyph-name="uni0205" unicode="&#x205;" horiz-adv-x="1194" 
d="M620 -23q-166 0 -286.5 71t-185.5 199t-65 300q0 169 64.5 298.5t182 202t274.5 72.5q105 0 197.5 -34.5t163 -104t110.5 -175t40 -247.5v-78h-914v176h785l-120 -51q0 94 -30 164t-87.5 108.5t-142.5 38.5q-84 0 -144 -39t-91.5 -106.5t-31.5 -151.5v-119
q0 -103 35 -175t99.5 -109t150.5 -37q58 0 105 17t80.5 49.5t50.5 79.5l238 -38q-25 -93 -90.5 -163t-164.5 -109t-223 -39zM679 1245l-170 306h244l115 -306h-189zM340 1245l-238 306h258l172 -306h-192z" />
    <glyph glyph-name="uni0206" unicode="&#x206;" horiz-adv-x="1237" 
d="M144 0v1490h983v-226h-716v-399h663v-223h-663v-416h719v-226h-986zM638 1952q96 0 171 -41t118.5 -111t43.5 -157h-161q0 68 -50.5 111.5t-121.5 43.5q-72 0 -122.5 -43.5t-50.5 -111.5h-161q0 87 43.5 157t119 111t171.5 41z" />
    <glyph glyph-name="uni0207" unicode="&#x207;" horiz-adv-x="1194" 
d="M620 -23q-166 0 -286.5 71t-185.5 199t-65 300q0 169 64.5 298.5t182 202t274.5 72.5q105 0 197.5 -34.5t163 -104t110.5 -175t40 -247.5v-78h-914v176h785l-120 -51q0 94 -30 164t-87.5 108.5t-142.5 38.5q-84 0 -144 -39t-91.5 -106.5t-31.5 -151.5v-119
q0 -103 35 -175t99.5 -109t150.5 -37q58 0 105 17t80.5 49.5t50.5 79.5l238 -38q-25 -93 -90.5 -163t-164.5 -109t-223 -39zM601 1566q96 0 171 -41t118.5 -111t43.5 -157h-161q0 68 -50.5 111.5t-121.5 43.5q-72 0 -122.5 -43.5t-50.5 -111.5h-161q0 87 43.5 157t119 111
t171.5 41z" />
    <glyph glyph-name="uni0208" unicode="&#x208;" horiz-adv-x="554" 
d="M411 1490v-1490h-267v1490h267zM356 1631l-170 306h244l115 -306h-189zM17 1631l-238 306h258l172 -306h-192z" />
    <glyph glyph-name="uni0209" unicode="&#x209;" horiz-adv-x="522" 
d="M132 0v1104h258v-1104h-258zM340 1245l-170 306h244l115 -306h-189zM1 1245l-238 306h258l172 -306h-192z" />
    <glyph glyph-name="uni020A" unicode="&#x20a;" horiz-adv-x="554" 
d="M411 1490v-1490h-267v1490h267zM278 1952q96 0 171 -41t118.5 -111t43.5 -157h-161q0 68 -50.5 111.5t-121.5 43.5q-72 0 -122.5 -43.5t-50.5 -111.5h-161q0 87 43.5 157t119 111t171.5 41z" />
    <glyph glyph-name="uni020B" unicode="&#x20b;" horiz-adv-x="522" 
d="M132 0v1104h258v-1104h-258zM262 1566q96 0 171 -41t118.5 -111t43.5 -157h-161q0 68 -50.5 111.5t-121.5 43.5q-72 0 -122.5 -43.5t-50.5 -111.5h-161q0 87 43.5 157t119 111t171.5 41z" />
    <glyph glyph-name="uni020C" unicode="&#x20c;" horiz-adv-x="1565" 
d="M783 -21q-196 0 -351.5 92t-245.5 263.5t-90 409.5q0 240 90 411.5t245.5 263.5t351.5 92t351 -92t244.5 -263.5t89.5 -411.5q0 -238 -89.5 -409.5t-244.5 -263.5t-351 -92zM783 218q121 0 215.5 60.5t148 178t53.5 287.5q0 171 -53.5 289t-148 178.5t-215.5 60.5
q-122 0 -216.5 -61t-148.5 -178.5t-54 -288.5q0 -170 54 -287t148.5 -178t216.5 -61zM861 1631l-170 306h244l115 -306h-189zM522 1631l-238 306h258l172 -306h-192z" />
    <glyph glyph-name="uni020D" unicode="&#x20d;" horiz-adv-x="1229" 
d="M614 -23q-161 0 -280.5 71.5t-185 200t-65.5 299.5t65.5 300t185 200.5t280.5 71.5q162 0 281.5 -71.5t185 -200.5t65.5 -300t-65.5 -299.5t-185 -200t-281.5 -71.5zM614 188q89 0 149 47.5t90.5 129t30.5 183.5q0 104 -30.5 185.5t-90.5 128.5t-149 47q-88 0 -148 -47
t-90 -128.5t-30 -185.5q0 -102 30 -183.5t90 -129t148 -47.5zM692 1245l-170 306h244l115 -306h-189zM353 1245l-238 306h258l172 -306h-192z" />
    <glyph glyph-name="uni020E" unicode="&#x20e;" horiz-adv-x="1565" 
d="M783 -21q-196 0 -351.5 92t-245.5 263.5t-90 409.5q0 240 90 411.5t245.5 263.5t351.5 92t351 -92t244.5 -263.5t89.5 -411.5q0 -238 -89.5 -409.5t-244.5 -263.5t-351 -92zM783 218q121 0 215.5 60.5t148 178t53.5 287.5q0 171 -53.5 289t-148 178.5t-215.5 60.5
q-122 0 -216.5 -61t-148.5 -178.5t-54 -288.5q0 -170 54 -287t148.5 -178t216.5 -61zM783 1952q96 0 171 -41t118.5 -111t43.5 -157h-161q0 68 -50.5 111.5t-121.5 43.5q-72 0 -122.5 -43.5t-50.5 -111.5h-161q0 87 43.5 157t119 111t171.5 41z" />
    <glyph glyph-name="uni020F" unicode="&#x20f;" horiz-adv-x="1229" 
d="M614 -23q-161 0 -280.5 71.5t-185 200t-65.5 299.5t65.5 300t185 200.5t280.5 71.5q162 0 281.5 -71.5t185 -200.5t65.5 -300t-65.5 -299.5t-185 -200t-281.5 -71.5zM614 188q89 0 149 47.5t90.5 129t30.5 183.5q0 104 -30.5 185.5t-90.5 128.5t-149 47q-88 0 -148 -47
t-90 -128.5t-30 -185.5q0 -102 30 -183.5t90 -129t148 -47.5zM614 1566q96 0 171 -41t118.5 -111t43.5 -157h-161q0 68 -50.5 111.5t-121.5 43.5q-72 0 -122.5 -43.5t-50.5 -111.5h-161q0 87 43.5 157t119 111t171.5 41z" />
    <glyph glyph-name="uni0210" unicode="&#x210;" horiz-adv-x="1332" 
d="M144 0v1490h563q169 0 286.5 -59.5t178.5 -167t61 -250.5t-62 -248t-181 -162t-290 -57h-400v221h373q99 0 163 29t95.5 84t31.5 133q0 80 -31.5 136.5t-96 86.5t-163.5 30h-261v-1266h-267zM985 0l-358 675h290l365 -675h-297zM737 1631l-170 306h244l115 -306h-189z
M398 1631l-238 306h258l172 -306h-192z" />
    <glyph glyph-name="uni0211" unicode="&#x211;" horiz-adv-x="794" 
d="M132 0v1104h250v-184h10q30 96 102 147t170 51q23 0 48.5 -1.5t43.5 -4.5v-236q-16 4 -51.5 8t-70.5 4q-69 0 -124.5 -30t-87.5 -84.5t-32 -129.5v-644h-258zM515 1245l-170 306h244l115 -306h-189zM176 1245l-238 306h258l172 -306h-192z" />
    <glyph glyph-name="uni0212" unicode="&#x212;" horiz-adv-x="1332" 
d="M144 0v1490h563q169 0 286.5 -59.5t178.5 -167t61 -250.5t-62 -248t-181 -162t-290 -57h-400v221h373q99 0 163 29t95.5 84t31.5 133q0 80 -31.5 136.5t-96 86.5t-163.5 30h-261v-1266h-267zM985 0l-358 675h290l365 -675h-297zM659 1952q96 0 171 -41t118.5 -111
t43.5 -157h-161q0 68 -50.5 111.5t-121.5 43.5q-72 0 -122.5 -43.5t-50.5 -111.5h-161q0 87 43.5 157t119 111t171.5 41z" />
    <glyph glyph-name="uni0213" unicode="&#x213;" horiz-adv-x="794" 
d="M132 0v1104h250v-184h10q30 96 102 147t170 51q23 0 48.5 -1.5t43.5 -4.5v-236q-16 4 -51.5 8t-70.5 4q-69 0 -124.5 -30t-87.5 -84.5t-32 -129.5v-644h-258zM437 1566q96 0 171 -41t118.5 -111t43.5 -157h-161q0 68 -50.5 111.5t-121.5 43.5q-72 0 -122.5 -43.5
t-50.5 -111.5h-161q0 87 43.5 157t119 111t171.5 41z" />
    <glyph glyph-name="uni0214" unicode="&#x214;" horiz-adv-x="1493" 
d="M747 -22q-182 0 -318 68.5t-211 190t-75 280.5v973h265v-951q0 -94 42 -167t117.5 -115t179.5 -42q103 0 179 42t117 115t41 167v951h266v-973q0 -159 -75 -280.5t-210.5 -190t-317.5 -68.5zM825 1631l-170 306h244l115 -306h-189zM486 1631l-238 306h258l172 -306h-192z
" />
    <glyph glyph-name="uni0215" unicode="&#x215;" horiz-adv-x="1236" 
d="M514 -16q-114 0 -200 49t-134 143t-48 229v699h258v-659q0 -114 58 -177t160 -63q69 0 122.5 29.5t84 87.5t30.5 140v642h259v-1104h-248l-2 275h26q-47 -145 -139 -218t-227 -73zM696 1245l-170 306h244l115 -306h-189zM357 1245l-238 306h258l172 -306h-192z" />
    <glyph glyph-name="uni0216" unicode="&#x216;" horiz-adv-x="1493" 
d="M747 -22q-182 0 -318 68.5t-211 190t-75 280.5v973h265v-951q0 -94 42 -167t117.5 -115t179.5 -42q103 0 179 42t117 115t41 167v951h266v-973q0 -159 -75 -280.5t-210.5 -190t-317.5 -68.5zM747 1952q96 0 171 -41t118.5 -111t43.5 -157h-161q0 68 -50.5 111.5
t-121.5 43.5q-72 0 -122.5 -43.5t-50.5 -111.5h-161q0 87 43.5 157t119 111t171.5 41z" />
    <glyph glyph-name="uni0217" unicode="&#x217;" horiz-adv-x="1236" 
d="M514 -16q-114 0 -200 49t-134 143t-48 229v699h258v-659q0 -114 58 -177t160 -63q69 0 122.5 29.5t84 87.5t30.5 140v642h259v-1104h-248l-2 275h26q-47 -145 -139 -218t-227 -73zM618 1566q96 0 171 -41t118.5 -111t43.5 -157h-161q0 68 -50.5 111.5t-121.5 43.5
q-72 0 -122.5 -43.5t-50.5 -111.5h-161q0 87 43.5 157t119 111t171.5 41z" />
    <glyph glyph-name="uni0218" unicode="&#x218;" horiz-adv-x="1327" 
d="M671 -23q-175 0 -304 55.5t-200.5 161t-76.5 255.5h262q6 -81 47.5 -135.5t112 -82t158.5 -27.5q89 0 156.5 26.5t106 75.5t38.5 113q0 57 -32.5 95t-93 65t-145.5 48l-167 42q-195 48 -300 146t-105 256q0 132 70.5 231t194 154t280.5 55q161 0 281 -55.5t188 -154.5
t71 -229h-257q-10 101 -86.5 157t-199.5 56q-83 0 -144.5 -26t-95 -70.5t-33.5 -102.5q0 -60 36 -99t95 -64t127 -41l142 -36q90 -21 169.5 -55t140.5 -85t95.5 -121t34.5 -164q0 -133 -67.5 -233t-194 -155.5t-304.5 -55.5zM457 -483l87 365h246l-147 -365h-186z" />
    <glyph glyph-name="uni0219" unicode="&#x219;" horiz-adv-x="1105" 
d="M553 -23q-128 0 -228 37.5t-163 110t-80 176.5l245 36q19 -82 77 -122.5t152 -40.5q95 0 150.5 38t55.5 94q0 48 -37.5 79t-111.5 47l-188 40q-157 34 -235 112t-78 200q0 102 56 177.5t156 117t233 41.5q127 0 219.5 -37.5t149 -105t74.5 -159.5l-233 -35
q-15 60 -66 102t-140 42q-83 0 -137 -36.5t-54 -92.5q0 -49 37 -80t118 -49l190 -40q158 -34 234.5 -108t76.5 -191q0 -106 -60.5 -185t-167 -123.5t-245.5 -44.5zM349 -483l87 365h246l-147 -365h-186z" />
    <glyph glyph-name="uni021A.1" unicode="&#x21a;" horiz-adv-x="1337" 
d="M75 1264v226h1187v-226h-460v-1264h-266v1264h-461zM459 -483l87 365h246l-147 -365h-186z" />
    <glyph glyph-name="uni021B" unicode="&#x21b;" horiz-adv-x="722" 
d="M658 1104v-203h-639v203h639zM184 1375h258v-1063q0 -59 25.5 -86t85.5 -27q19 0 49 3t48 6l32 -201q-39 -10 -83 -14.5t-86 -4.5q-161 0 -245 77t-84 222v1088zM199 -483l87 365h246l-147 -365h-186z" />
    <glyph glyph-name="uni021C" unicode="&#x21c;" horiz-adv-x="1332" 
d="M226 326v205q181 53 311.5 106.5t213.5 112t122.5 130t39.5 162.5q0 122 -65.5 183.5t-190.5 61.5q-78 0 -136 -23.5t-89.5 -66t-31.5 -98.5h-277q0 124 68.5 216t189.5 143.5t276 51.5q159 0 278 -49t186 -145.5t67 -239.5q0 -135 -63 -249t-186 -207.5t-302 -167
t-411 -126.5zM765 593l77 158q112 -13 195 -64t128 -138t45 -211q0 -169 -72 -298.5t-203.5 -223t-312 -155.5t-396.5 -97v220q166 33 297 80t222 115t138.5 159.5t47.5 211.5q0 114 -36.5 171.5t-129.5 71.5z" />
    <glyph glyph-name="uni021D" unicode="&#x21d;" horiz-adv-x="1142" 
d="M230 176v193q172 49 283.5 108t166.5 131t55 158q0 80 -42 121t-125 41q-54 0 -94.5 -18.5t-63 -53.5t-22.5 -83h-266q0 111 55 191.5t156.5 124t242.5 43.5q203 0 314 -91t111 -255q0 -139 -89.5 -256t-262 -206.5t-419.5 -147.5zM618 418l81 118q157 -21 239.5 -110.5
t82.5 -240.5q0 -243 -199 -398t-592 -223v200q193 56 307 117.5t165 139t51 179.5q0 92 -37 149.5t-98 68.5z" />
    <glyph glyph-name="uni021E" unicode="&#x21e;" horiz-adv-x="1513" 
d="M144 0v1490h267v-616h691v616h267v-1490h-267v649h-691v-649h-267zM615 1937l141 -171l141 171h229v-6l-265 -288h-211l-263 288v6h228z" />
    <glyph glyph-name="uni021F" unicode="&#x21f;" horiz-adv-x="1236" 
d="M390 642v-642h-258v1490h256v-660h-33q47 144 138.5 217t228.5 73q114 0 200 -49t134 -143t48 -229v-699h-259v659q0 114 -57.5 177t-160.5 63q-68 0 -121.5 -29.5t-84.5 -86.5t-31 -141zM118 1937l141 -171l141 171h229v-6l-265 -288h-211l-263 288v6h228z" />
    <glyph glyph-name="uni0220" unicode="&#x220;" horiz-adv-x="1332" 
d="M1210 -416h-270v1461q0 87 -32 142t-93.5 81t-149.5 26q-116 0 -221 -52t-194 -147v236q85 81 199.5 130t248.5 49q139 0 255 -54t186.5 -157.5t70.5 -253.5v-1461zM392 1490v-1490h-266v1490h266z" />
    <glyph glyph-name="uni0221" unicode="&#x221;" horiz-adv-x="1581" 
d="M1239 -418q-131 0 -213.5 46t-120.5 125t-38 178v293h258v-345q0 -60 35 -91.5t84 -31.5q44 0 72.5 26t28.5 68q0 37 -24.5 64t-71.5 31q-33 4 -65 -4t-67.5 -29t-81.5 -57l-291 -255l-131 155l269 233q73 64 166 103t190 39q154 0 248 -80t94 -207q0 -121 -89.5 -191
t-251.5 -70zM543 -21q-133 0 -237 68.5t-163.5 196t-59.5 306.5q0 182 60.5 309t164.5 194t234 67q93 0 155.5 -30t102.5 -74.5t62 -88.5h9v563h258v-1490h-253v174h-13q-23 -46 -63.5 -90.5t-103 -74.5t-153.5 -30zM611 193q85 0 144.5 45t91 125.5t31.5 187.5
q0 108 -31 188t-91 124t-145 44t-144 -45t-89.5 -125t-30.5 -186q0 -105 30.5 -186t90 -126.5t143.5 -45.5z" />
    <glyph glyph-name="uni0222" unicode="&#x222;" horiz-adv-x="1331" 
d="M655 909h23q166 0 292.5 -52t198 -153t71.5 -249q0 -154 -72.5 -259.5t-199 -160.5t-290.5 -55h-23q-164 0 -291 54.5t-200 160t-73 257.5q0 149 71 250.5t198.5 154t294.5 52.5zM678 709h-23q-129 0 -207 -65t-78 -192q0 -125 78 -187t207 -62h23q128 0 205.5 62
t77.5 190q0 126 -77.5 190t-205.5 64zM649 935h32q83 0 146 13.5t99.5 54t36.5 119.5q0 76 -36.5 117t-110.5 58v213q127 -2 222.5 -46.5t149.5 -130t54 -211.5q0 -141 -73 -226t-200 -123t-287 -38h-33q-160 0 -286.5 37.5t-199 123t-72.5 226.5q0 126 53.5 211.5
t149.5 130t221 46.5v-213q-75 -17 -110 -58t-35 -117q0 -80 36 -120t99 -53.5t144 -13.5z" />
    <glyph glyph-name="uni0223" unicode="&#x223;" horiz-adv-x="1330" 
d="M654 897h22q160 0 286 -47.5t199 -147t73 -251.5q0 -156 -72.5 -261t-198.5 -157.5t-287 -52.5h-22q-160 0 -286.5 52.5t-199.5 157.5t-73 259t73 253.5t199.5 147.5t286.5 47zM676 704h-22q-134 0 -211.5 -66t-77.5 -189q0 -122 77.5 -188.5t211.5 -66.5h22
q134 0 211.5 66.5t77.5 190.5q0 121 -77.5 187t-211.5 66zM680 918q84 0 148.5 20t101.5 68.5t37 133.5q0 91 -40.5 140t-111.5 74v202q121 -2 215.5 -49.5t149 -138.5t54.5 -224q0 -154 -74 -246t-199.5 -132t-280.5 -40h-31q-153 0 -279 40.5t-200.5 132t-74.5 245.5
q0 133 54.5 224t149.5 138.5t215 49.5v-202q-69 -25 -109 -74t-40 -140q0 -85 36 -133.5t100.5 -68.5t147.5 -20h31z" />
    <glyph glyph-name="uni0224" unicode="&#x224;" horiz-adv-x="1325" 
d="M745 -418v210q21 -2 44 -3.5t43 -1.5q70 0 97 22.5t27 71.5v119h267v-133q0 -145 -85.5 -220.5t-252.5 -75.5q-41 0 -78 3t-62 8zM106 0v176l641 894q53 72 113.5 145t122.5 146l24 -88q-96 -6 -192 -7.5t-192 -1.5h-515v226h1110v-177l-630 -879q-56 -76 -119 -152.5
t-128 -152.5l-24 88q98 6 196 7.5t196 1.5h514v-226h-1117z" />
    <glyph glyph-name="uni0225" unicode="&#x225;" horiz-adv-x="1132" 
d="M865 -246v83q0 72 -28.5 117.5t-108.5 45.5h-612v168l569 714v7h-555v215h870v-181l-546 -701v-7h303q157 0 243 -96.5t86 -255.5v-109h-221z" />
    <glyph glyph-name="uni0226" unicode="&#x226;" horiz-adv-x="1475" 
d="M42 0l522 1490h338l531 -1490h-292l-264 776q-39 121 -81.5 269.5t-94.5 341.5h60q-51 -194 -92 -343.5t-78 -267.5l-259 -776h-290zM347 366v216h780v-216h-780zM736 1648q-63 0 -107 42t-44 101q0 60 44 101t107 41t107.5 -41t44.5 -101q0 -59 -44.5 -101t-107.5 -42z
" />
    <glyph glyph-name="uni0227" unicode="&#x227;" horiz-adv-x="1161" 
d="M447 -22q-106 0 -190.5 38t-133.5 112t-49 183q0 94 35 155t95.5 97.5t136.5 55.5t157 27q98 11 158 19t87.5 26t27.5 55v6q0 53 -22.5 90.5t-65.5 57.5t-107 20q-63 0 -110.5 -19.5t-77 -52t-41.5 -71.5l-241 38q27 101 93.5 168.5t163 102t214.5 34.5q84 0 164.5 -20
t145.5 -64.5t103.5 -117t38.5 -177.5v-741h-249v153h-9q-24 -47 -67 -87t-106.5 -64t-150.5 -24zM513 170q80 0 138.5 31.5t90 83.5t31.5 114v128q-13 -10 -41.5 -18.5t-65 -15t-73 -12t-64.5 -8.5q-57 -8 -103.5 -26.5t-73.5 -50t-27 -82.5q0 -47 24 -79t66 -48.5t98 -16.5
zM572 1262q-63 0 -107 42t-44 101q0 60 44 101t107 41t107.5 -41t44.5 -101q0 -59 -44.5 -101t-107.5 -42z" />
    <glyph glyph-name="uni0228" unicode="&#x228;" horiz-adv-x="1237" 
d="M144 0v1490h983v-226h-716v-399h663v-223h-663v-416h719v-226h-986zM517 -418v115h123q49 0 70 14.5t21 48.5q0 33 -21 47.5t-70 14.5h-87l34 223h109v-45l-3 -86q94 1 143.5 -40.5t49.5 -119.5q0 -90 -58 -131t-178 -41h-133z" />
    <glyph glyph-name="uni0229" unicode="&#x229;" horiz-adv-x="1194" 
d="M620 -23q-166 0 -286.5 71t-185.5 199t-65 300q0 169 64.5 298.5t182 202t274.5 72.5q105 0 197.5 -34.5t163 -104t110.5 -175t40 -247.5v-78h-914v176h785l-120 -51q0 94 -30 164t-87.5 108.5t-142.5 38.5q-84 0 -144 -39t-91.5 -106.5t-31.5 -151.5v-119
q0 -103 35 -175t99.5 -109t150.5 -37q58 0 105 17t80.5 49.5t50.5 79.5l238 -38q-25 -93 -90.5 -163t-164.5 -109t-223 -39zM482 -418v115h123q49 0 70 14.5t21 48.5q0 33 -21 47.5t-70 14.5h-87l34 223h109v-45l-3 -86q94 1 143.5 -40.5t49.5 -119.5q0 -90 -58 -131
t-178 -41h-133z" />
    <glyph glyph-name="uni022A" unicode="&#x22a;" horiz-adv-x="1565" 
d="M783 -21q-196 0 -351.5 92t-245.5 263.5t-90 409.5q0 240 90 411.5t245.5 263.5t351.5 92t351 -92t244.5 -263.5t89.5 -411.5q0 -238 -89.5 -409.5t-244.5 -263.5t-351 -92zM783 218q121 0 215.5 60.5t148 178t53.5 287.5q0 171 -53.5 289t-148 178.5t-215.5 60.5
q-122 0 -216.5 -61t-148.5 -178.5t-54 -288.5q0 -170 54 -287t148.5 -178t216.5 -61zM1001 1625q-59 0 -100 40.5t-41 97.5q0 58 41 98t100 40t99.5 -40t40.5 -98q0 -57 -40.5 -97.5t-99.5 -40.5zM565 1625q-59 0 -100 40.5t-41 97.5q0 58 41 98t100 40t100 -40t41 -98
q0 -57 -41 -97.5t-100 -40.5zM1068 2177v-150h-570v150h570z" />
    <glyph glyph-name="uni022B" unicode="&#x22b;" horiz-adv-x="1229" 
d="M614 -23q-161 0 -280.5 71.5t-185 200t-65.5 299.5t65.5 300t185 200.5t280.5 71.5q162 0 281.5 -71.5t185 -200.5t65.5 -300t-65.5 -299.5t-185 -200t-281.5 -71.5zM614 188q89 0 149 47.5t90.5 129t30.5 183.5q0 104 -30.5 185.5t-90.5 128.5t-149 47q-88 0 -148 -47
t-90 -128.5t-30 -185.5q0 -102 30 -183.5t90 -129t148 -47.5zM832 1239q-59 0 -100 40.5t-41 97.5q0 58 41 98t100 40t99.5 -40t40.5 -98q0 -57 -40.5 -97.5t-99.5 -40.5zM396 1239q-59 0 -100 40.5t-41 97.5q0 58 41 98t100 40t100 -40t41 -98q0 -57 -41 -97.5t-100 -40.5z
M899 1791v-150h-570v150h570z" />
    <glyph glyph-name="uni022C" unicode="&#x22c;" horiz-adv-x="1565" 
d="M783 -21q-196 0 -351.5 92t-245.5 263.5t-90 409.5q0 240 90 411.5t245.5 263.5t351.5 92t351 -92t244.5 -263.5t89.5 -411.5q0 -238 -89.5 -409.5t-244.5 -263.5t-351 -92zM783 218q121 0 215.5 60.5t148 178t53.5 287.5q0 171 -53.5 289t-148 178.5t-215.5 60.5
q-122 0 -216.5 -61t-148.5 -178.5t-54 -288.5q0 -170 54 -287t148.5 -178t216.5 -61zM922 1638q-44 0 -81 14.5t-67.5 33.5t-56 33.5t-47.5 14.5q-30 0 -45 -26.5t-17 -64.5h-151q3 114 53.5 179.5t138.5 65.5q45 0 80.5 -14.5t65 -33.5t55 -33.5t51.5 -14.5q31 0 45.5 22.5
t17.5 68.5h149q-2 -115 -54.5 -180t-136.5 -65zM1069 2177v-150h-570v150h570z" />
    <glyph glyph-name="uni022D" unicode="&#x22d;" horiz-adv-x="1229" 
d="M614 -23q-161 0 -280.5 71.5t-185 200t-65.5 299.5t65.5 300t185 200.5t280.5 71.5q162 0 281.5 -71.5t185 -200.5t65.5 -300t-65.5 -299.5t-185 -200t-281.5 -71.5zM614 188q89 0 149 47.5t90.5 129t30.5 183.5q0 104 -30.5 185.5t-90.5 128.5t-149 47q-88 0 -148 -47
t-90 -128.5t-30 -185.5q0 -102 30 -183.5t90 -129t148 -47.5zM753 1252q-44 0 -81 14.5t-67.5 33.5t-56 33.5t-47.5 14.5q-30 0 -45 -26.5t-17 -64.5h-151q3 114 53.5 179.5t138.5 65.5q45 0 80.5 -14.5t65 -33.5t55 -33.5t51.5 -14.5q31 0 45.5 22.5t17.5 68.5h149
q-2 -115 -54.5 -180t-136.5 -65zM900 1791v-150h-570v150h570z" />
    <glyph glyph-name="uni022E" unicode="&#x22e;" horiz-adv-x="1565" 
d="M783 -21q-196 0 -351.5 92t-245.5 263.5t-90 409.5q0 240 90 411.5t245.5 263.5t351.5 92t351 -92t244.5 -263.5t89.5 -411.5q0 -238 -89.5 -409.5t-244.5 -263.5t-351 -92zM783 218q121 0 215.5 60.5t148 178t53.5 287.5q0 171 -53.5 289t-148 178.5t-215.5 60.5
q-122 0 -216.5 -61t-148.5 -178.5t-54 -288.5q0 -170 54 -287t148.5 -178t216.5 -61zM783 1648q-63 0 -107 42t-44 101q0 60 44 101t107 41t107.5 -41t44.5 -101q0 -59 -44.5 -101t-107.5 -42z" />
    <glyph glyph-name="uni022F" unicode="&#x22f;" horiz-adv-x="1229" 
d="M614 -23q-161 0 -280.5 71.5t-185 200t-65.5 299.5t65.5 300t185 200.5t280.5 71.5q162 0 281.5 -71.5t185 -200.5t65.5 -300t-65.5 -299.5t-185 -200t-281.5 -71.5zM614 188q89 0 149 47.5t90.5 129t30.5 183.5q0 104 -30.5 185.5t-90.5 128.5t-149 47q-88 0 -148 -47
t-90 -128.5t-30 -185.5q0 -102 30 -183.5t90 -129t148 -47.5zM614 1262q-63 0 -107 42t-44 101q0 60 44 101t107 41t107.5 -41t44.5 -101q0 -59 -44.5 -101t-107.5 -42z" />
    <glyph glyph-name="uni0230" unicode="&#x230;" horiz-adv-x="1565" 
d="M783 -21q-196 0 -351.5 92t-245.5 263.5t-90 409.5q0 240 90 411.5t245.5 263.5t351.5 92t351 -92t244.5 -263.5t89.5 -411.5q0 -238 -89.5 -409.5t-244.5 -263.5t-351 -92zM783 218q121 0 215.5 60.5t148 178t53.5 287.5q0 171 -53.5 289t-148 178.5t-215.5 60.5
q-122 0 -216.5 -61t-148.5 -178.5t-54 -288.5q0 -170 54 -287t148.5 -178t216.5 -61zM784 1620q-63 0 -107 42t-44 101q0 60 44 101.5t107 41.5t107.5 -41.5t44.5 -101.5q0 -59 -44.5 -101t-107.5 -42zM1069 2177v-150h-571v150h571z" />
    <glyph glyph-name="uni0231" unicode="&#x231;" horiz-adv-x="1229" 
d="M614 -23q-161 0 -280.5 71.5t-185 200t-65.5 299.5t65.5 300t185 200.5t280.5 71.5q162 0 281.5 -71.5t185 -200.5t65.5 -300t-65.5 -299.5t-185 -200t-281.5 -71.5zM614 188q89 0 149 47.5t90.5 129t30.5 183.5q0 104 -30.5 185.5t-90.5 128.5t-149 47q-88 0 -148 -47
t-90 -128.5t-30 -185.5q0 -102 30 -183.5t90 -129t148 -47.5zM615 1234q-63 0 -107 42t-44 101q0 60 44 101.5t107 41.5t107.5 -41.5t44.5 -101.5q0 -59 -44.5 -101t-107.5 -42zM900 1791v-150h-571v150h571z" />
    <glyph glyph-name="uni0232" unicode="&#x232;" horiz-adv-x="1443" 
d="M592 0v577l-550 913h310l266 -467q42 -72 75.5 -141t68.5 -162h-70q34 94 67 163.5t73 139.5l261 467h309l-545 -913v-577h-265zM1007 1873v-174h-570v174h570z" />
    <glyph glyph-name="uni0233" unicode="&#x233;" horiz-adv-x="1183" 
d="M128 -403l47 203l52 -6q53 -12 94 -4t69 39.5t42 90.5l21 78l-419 1106h276l202 -595q35 -103 58.5 -206t51.5 -209h-69q27 106 54 209.5t62 205.5l207 595h273l-478 -1254q-34 -88 -84 -149.5t-120.5 -93t-166.5 -31.5q-52 0 -97.5 6t-74.5 15zM876 1487v-174h-570v174
h570z" />
    <glyph glyph-name="uni0234" unicode="&#x234;" horiz-adv-x="842" 
d="M504 -418q-131 0 -213.5 46t-120.5 125t-38 178v293h258v-345q0 -60 35 -91.5t84 -31.5q44 0 72.5 26t28.5 68q0 37 -24.5 64t-72.5 31q-32 4 -64 -4t-67.5 -29t-81.5 -57l-291 -255l-131 155l269 233q73 64 166 103t190 39q154 0 248 -80t94 -207q0 -121 -89.5 -191
t-251.5 -70zM390 1490v-1490h-258v1490h258z" />
    <glyph glyph-name="uni0235" unicode="&#x235;" horiz-adv-x="1555" 
d="M1218 -418q-132 0 -214 46t-120.5 125t-38.5 178v293h259v-345q0 -60 35 -91.5t83 -31.5q45 0 73 26t28 68q0 37 -24 64t-72 31q-32 4 -64 -4t-68 -29t-81 -57l-292 -255l-131 155l270 233q72 64 165.5 103t189.5 39q154 0 248 -80t94 -207q0 -121 -89.5 -191t-250.5 -70
zM390 642v-642h-258v1104h247l3 -274h-27q47 144 138.5 217t228.5 73q114 0 200 -49t133.5 -143t47.5 -229v-699h-258v659q0 114 -57.5 177t-160.5 63q-68 0 -121.5 -29.5t-84.5 -86.5t-31 -141z" />
    <glyph glyph-name="uni0236" unicode="&#x236;" horiz-adv-x="912" 
d="M549 -20q-131 0 -213.5 46t-120.5 125t-38 178v293h258v-345q0 -60 35 -91.5t84 -31.5q44 0 72.5 26t28.5 68q0 37 -24.5 64t-72.5 31q-32 4 -64 -4t-67.5 -29t-81.5 -57l-291 -255l-131 155l269 233q73 64 166 103t190 39q154 0 248 -80t94 -207q0 -121 -90 -191
t-251 -70zM177 398v977h258v-977h-258zM19 901v203h636v-203h-636z" />
    <glyph glyph-name="uni0237" unicode="&#x237;" horiz-adv-x="523" 
d="M132 1104h259v-1179q0 -114 -44 -190.5t-127.5 -114.5t-203.5 -38h-63v211h43q73 0 104.5 35.5t31.5 105.5v1170z" />
    <glyph glyph-name="uni0238" unicode="&#x238;" horiz-adv-x="1900" 
d="M1794 564v-20q0 -165 -53 -292t-150 -199.5t-232 -72.5q-99 0 -174.5 39.5t-127.5 113t-84 174.5t-46 224v41q19 168 69.5 294t140.5 196t226 70q134 0 230 -70.5t148.5 -198t52.5 -299.5zM1524 544v20q1 102 -21.5 181t-73.5 124.5t-138 45.5q-113 0 -174.5 -79.5
t-75.5 -209.5v-148q19 -125 78.5 -203t174.5 -78q89 0 139 46.5t71 125t20 175.5zM816 230v1260h268v-1490h-243zM106 544v20q1 172 53 299.5t148.5 198t231.5 70.5t224.5 -70t140 -196t68.5 -294v-41q-13 -123 -45 -224t-84.5 -174.5t-127.5 -113t-176 -39.5
q-133 0 -230 72.5t-149.5 199.5t-53.5 292zM375 564v-20q0 -97 21 -175.5t71.5 -125t139.5 -46.5q115 0 174 78t77 203v148q-13 129 -74 209t-175 80q-86 0 -137.5 -45.5t-73.5 -124.5t-23 -181z" />
    <glyph glyph-name="uni0239" unicode="&#x239;" horiz-adv-x="1900" 
d="M816 -416v1315l29 219h218l21 -208v-1326h-268zM106 544v20q1 172 53 299.5t148.5 198t231.5 70.5t224.5 -70t140 -196t68.5 -294v-41q-13 -123 -45 -224t-84.5 -174.5t-127.5 -113t-176 -39.5q-133 0 -230 72.5t-149.5 199.5t-53.5 292zM375 564v-20q0 -97 21 -175.5
t71.5 -125t139.5 -46.5q115 0 174 78t77 203v148q-13 129 -74 209t-175 80q-86 0 -137.5 -45.5t-73.5 -124.5t-23 -181zM1794 564v-20q0 -165 -53 -292t-150 -199.5t-232 -72.5q-99 0 -174.5 39.5t-127.5 113t-84 174.5t-46 224v41q19 168 69.5 294t140.5 196t226 70
q134 0 230 -70.5t148.5 -198t52.5 -299.5zM1524 544v20q1 102 -21.5 181t-73.5 124.5t-138 45.5q-113 0 -174.5 -79.5t-75.5 -209.5v-148q19 -125 78.5 -203t174.5 -78q89 0 139 46.5t71 125t20 175.5z" />
    <glyph glyph-name="uni023A" unicode="&#x23a;" horiz-adv-x="1475" 
d="M1141 1678l-628 -1868h-134l628 1868h134zM42 0l522 1490h338l531 -1490h-292l-264 776q-39 121 -81.5 269.5t-94.5 341.5h60q-51 -194 -92 -343.5t-78 -267.5l-259 -776h-290zM347 366v216h780v-216h-780z" />
    <glyph glyph-name="uni023B" unicode="&#x23b;" horiz-adv-x="1503" 
d="M356 -190l627 1868h181l-628 -1868h-180zM782 -21q-197 0 -352.5 92t-244.5 263.5t-89 409.5q0 240 89.5 411.5t245 263.5t351.5 92q124 0 231 -35.5t190.5 -102.5t137.5 -163.5t72 -218.5h-269q-13 67 -44.5 119t-79 88.5t-107 55t-127.5 18.5q-125 0 -220.5 -62.5
t-148.5 -180.5t-53 -285q0 -168 53.5 -286t148.5 -179t220 -61q68 0 127 18.5t106.5 54.5t80 88.5t45.5 119.5h269q-16 -111 -67.5 -205t-133.5 -165t-191 -110.5t-240 -39.5z" />
    <glyph glyph-name="uni023C" unicode="&#x23c;" horiz-adv-x="1176" 
d="M203 -418l665 1908h142l-665 -1908h-142zM613 -23q-161 0 -280 71.5t-184.5 200.5t-65.5 299q0 171 65.5 300t184.5 200.5t280 71.5q95 0 176 -25t144 -72.5t104.5 -114.5t57.5 -150l-245 -39q-9 43 -29.5 78t-50 60t-68.5 39t-87 14q-89 0 -148.5 -47t-90 -128.5
t-30.5 -186.5q0 -103 30.5 -184.5t90 -128.5t148.5 -47q48 0 87.5 14t69.5 39.5t50.5 62.5t29.5 82l245 -40q-15 -85 -57 -152.5t-105 -116t-144.5 -74.5t-177.5 -26z" />
    <glyph glyph-name="uni023D" unicode="&#x23d;" horiz-adv-x="1217" 
d="M211 0v1490h267v-1264h665v-226h-932zM21 650v190h799v-190h-799z" />
    <glyph glyph-name="uni023E" unicode="&#x23e;" horiz-adv-x="1337" 
d="M204 -209l790 1908h143l-790 -1908h-143zM75 1264v226h1187v-226h-460v-1264h-266v1264h-461z" />
    <glyph glyph-name="uni023F" unicode="&#x23f;" horiz-adv-x="1105" 
d="M284 280q89 -166 148 -267.5t99 -155t70.5 -72.5t62.5 -19q53 0 95.5 25t72.5 51l82 -143q-43 -39 -109.5 -78t-146.5 -39t-139.5 35t-106.5 94.5t-89 130.5l-204 351zM553 -23q-128 0 -228 37.5t-163 110t-80 176.5l245 36q19 -82 77 -122.5t152 -40.5q95 0 150.5 38
t55.5 94q0 48 -37.5 79t-111.5 47l-188 40q-157 34 -235 112t-78 200q0 102 56 177.5t156 117t233 41.5q127 0 219.5 -37.5t149 -105t74.5 -159.5l-233 -35q-15 60 -66 102t-140 42q-83 0 -137 -36.5t-54 -92.5q0 -49 37 -80t118 -49l190 -40q158 -34 234.5 -108t76.5 -191
q0 -106 -60.5 -185t-167 -123.5t-245.5 -44.5z" />
    <glyph glyph-name="uni0240" unicode="&#x240;" horiz-adv-x="1132" 
d="M116 0v168l569 714v7h-555v215h870v-181l-546 -701v-222h-338zM1081 -419q-78 0 -142 29t-120 93t-113 167q-36 57 -63 84.5t-59 36.5t-85 9h-119v215h144q86 0 150 -22.5t115.5 -74.5t101.5 -142q41 -74 71 -115.5t58.5 -57t64.5 -15.5q31 0 62.5 9.5t64.5 27.5l89 -183
q-52 -29 -108 -45t-112 -16z" />
    <glyph glyph-name="uni0241" unicode="&#x241;" horiz-adv-x="1141" 
d="M463 491h86q94 1 144 44.5t69.5 115.5t19.5 157v154q0 72 -17.5 146t-68 123.5t-147.5 49.5q-98 0 -150.5 -57t-55.5 -144h-263q2 127 62 224t164.5 151.5t238.5 54.5q169 0 284 -74t173.5 -198.5t58.5 -275.5v-154q0 -150 -58.5 -273.5t-173.5 -197t-285 -73.5h-81v227z
M700 491v-491h-280v491h280z" />
    <glyph glyph-name="uni0242" unicode="&#x242;" horiz-adv-x="1142" 
d="M128 694q0 137 56.5 235t157.5 150.5t233 52.5q203 0 321.5 -111t118.5 -314q0 -114 -43 -201t-133 -135.5t-230 -48.5h-116v153h58q105 0 151 59t46 165q0 98 -40 159t-132 61q-89 0 -134.5 -59t-45.5 -166h-268zM445 475h268v-475h-268v475z" />
    <glyph glyph-name="uni0243" unicode="&#x243;" horiz-adv-x="1374" 
d="M175 0v1490h572q160 0 267.5 -50t161.5 -137.5t54 -199.5q0 -90 -34 -154.5t-92.5 -105.5t-132.5 -59v-12q81 -5 153.5 -49.5t118 -123.5t45.5 -190q0 -118 -56.5 -210.5t-170 -145.5t-284.5 -53h-602zM441 221h297q145 0 212.5 57t67.5 149q0 67 -33 119.5t-94 83
t-145 30.5h-305v-439zM441 856h277q71 0 127 26t88 73.5t32 113.5q0 88 -62 144.5t-181 56.5h-281v-414zM14 376v130h684v-130h-684z" />
    <glyph glyph-name="uni0244" unicode="&#x244;" horiz-adv-x="1529" 
d="M1543 853v-156h-1557v156h1557zM769 -22q-182 0 -318 68.5t-211 190t-75 280.5v973h266v-951q0 -94 41.5 -167t117.5 -115t179 -42q104 0 179.5 42t117 115t41.5 167v951h265v-973q0 -159 -75 -280.5t-210.5 -190t-317.5 -68.5z" />
    <glyph glyph-name="uni0245" unicode="&#x245;" horiz-adv-x="1521" 
d="M1120 0l-376 1199l-52 291h207l527 -1490h-306zM775 1199l-373 -1199h-307l526 1490h206z" />
    <glyph glyph-name="uni0246" unicode="&#x246;" horiz-adv-x="1237" 
d="M316 -190l540 1868h164l-538 -1868h-166zM144 0v1490h983v-226h-716v-399h663v-223h-663v-416h719v-226h-986z" />
    <glyph glyph-name="uni0247" unicode="&#x247;" horiz-adv-x="1194" 
d="M168 -418l699 1908h155l-698 -1908h-156zM620 -23q-166 0 -286.5 71t-185.5 199t-65 300q0 169 64.5 298.5t182 202t274.5 72.5q105 0 197.5 -34.5t163 -104t110.5 -175t40 -247.5v-78h-914v176h785l-120 -51q0 94 -30 164t-87.5 108.5t-142.5 38.5q-84 0 -144 -39
t-91.5 -106.5t-31.5 -151.5v-119q0 -103 35 -175t99.5 -109t150.5 -37q58 0 105 17t80.5 49.5t50.5 79.5l238 -38q-25 -93 -90.5 -163t-164.5 -109t-223 -39z" />
    <glyph glyph-name="uni0248" unicode="&#x248;" horiz-adv-x="1257" 
d="M554 -20q-219 0 -349 119.5t-130 341.5v86h264v-89q0 -116 58.5 -176.5t156.5 -60.5t155.5 60.5t57.5 177.5v1051h265v-1050q0 -221 -129 -340.5t-349 -119.5zM556 819v130h684v-130h-684z" />
    <glyph glyph-name="uni0249" unicode="&#x249;" horiz-adv-x="523" 
d="M132 1104h259v-1179q0 -114 -44 -190.5t-127.5 -114.5t-203.5 -38h-63v211h43q73 0 104.5 35.5t31.5 105.5v1170zM-90 579v168h700v-168h-700zM261 1262q-63 0 -107 42t-44 101q0 60 44 101t107 41t107.5 -41t44.5 -101q0 -59 -44.5 -101t-107.5 -42z" />
    <glyph glyph-name="Q_rthook" unicode="&#x24a;" horiz-adv-x="1569" 
d="M1425 1490v-1490h-258v226h-9q-56 -113 -168 -181t-263 -68q-138 0 -253.5 57.5t-200 161.5t-131 244.5t-46.5 306.5q0 164 46.5 303.5t131.5 242.5t200.5 160.5t252.5 57.5q152 0 263.5 -67t167.5 -176h9v222h258zM766 218q137 0 226 66.5t132.5 186t43.5 275.5t-45 275
t-134 186t-221 67q-124 0 -214 -66t-139.5 -184.5t-49.5 -277.5q0 -164 50 -282.5t140 -182t211 -63.5zM1502 -429q-166 0 -250.5 75.5t-84.5 220.5v133h258v-131q0 -50 30 -72t100 -22q20 0 43 1t44 4v-198q-26 -5 -62 -8t-78 -3z" />
    <glyph glyph-name="qrthook" unicode="&#x24b;" horiz-adv-x="1261" 
d="M1206 -429q-166 0 -249 75.5t-83 220.5v332h255v-330q0 -50 29.5 -72t100.5 -22q20 0 43 1t43 4v-198q-26 -5 -61.5 -8t-77.5 -3zM543 -21q-133 0 -237 68.5t-163.5 196t-59.5 306.5q0 182 61 309t165.5 194t234.5 67q92 0 155 -30t102.5 -74.5t61.5 -88.5h10v177h256
v-1104h-255v173h-11q-22 -45 -63 -89.5t-103.5 -74.5t-153.5 -30zM612 193q85 0 144.5 45t91 125.5t31.5 187.5q0 108 -31 188t-90.5 124t-145.5 44q-85 0 -144.5 -45t-90 -125t-30.5 -186q0 -105 31 -186t90 -126.5t144 -45.5z" />
    <glyph glyph-name="uni024C" unicode="&#x24c;" horiz-adv-x="1349" 
d="M324 562h-310v206h310v-206zM171 0v1490h563q170 0 287.5 -59.5t178 -167t60.5 -250.5t-62 -248t-181 -162t-290 -57h-400v221h373q99 0 163 29t95.5 84t31.5 133q0 80 -31.5 136.5t-96 86.5t-163.5 30h-261v-1266h-267zM1012 0l-358 675h290l366 -675h-298z" />
    <glyph glyph-name="uni024D" unicode="&#x24d;" horiz-adv-x="794" 
d="M132 0v1104h250v-184h10q30 96 102 147t170 51q23 0 48.5 -1.5t43.5 -4.5v-236q-16 4 -51.5 8t-70.5 4q-69 0 -124.5 -30t-87.5 -84.5t-32 -129.5v-644h-258zM-89 451v168h700v-168h-700z" />
    <glyph glyph-name="uni024E" unicode="&#x24e;" horiz-adv-x="1428" 
d="M1420 1181v-145h-1413v145h1413zM592 0v577l-550 913h310l266 -467q42 -72 75.5 -141t68.5 -162h-70q34 94 67 163.5t73 139.5l261 467h309l-545 -913v-577h-265z" />
    <glyph glyph-name="uni024F" unicode="&#x24f;" horiz-adv-x="1185" 
d="M1125 771v-147h-1071v147h1071zM129 -403l47 203l52 -6q53 -12 94 -4t69 39.5t42 90.5l21 78l-419 1106h276l202 -595q34 -103 58 -206t52 -209h-69q27 106 54 209.5t62 205.5l207 595h273l-479 -1254q-33 -88 -83 -149.5t-120.5 -93t-166.5 -31.5q-52 0 -97.5 6
t-74.5 15z" />
    <glyph glyph-name="aturn" unicode="&#x250;" horiz-adv-x="1161" 
d="M714 1126q106 0 190.5 -37.5t133.5 -112t49 -183.5q0 -93 -35.5 -154.5t-95.5 -98t-135.5 -55t-157.5 -27.5q-97 -10 -157.5 -18.5t-88 -26t-27.5 -55.5v-6q0 -52 22.5 -90t66 -58t105.5 -20q65 0 112 19.5t77 52.5t41 72l241 -39q-27 -99 -93.5 -167.5t-163 -103
t-214.5 -34.5q-84 0 -165 20t-145.5 64.5t-103 117t-38.5 177.5v741h248v-153h10q24 48 67 88t107 63.5t150 23.5zM648 934q-80 0 -138.5 -31t-90 -83t-31.5 -115v-128q13 10 41.5 18.5t65 15t72.5 12t65 9.5q58 8 104 26t73 50.5t27 81.5q0 47 -24 79t-66 48.5t-98 16.5z
" />
    <glyph glyph-name="ascript" unicode="&#x251;" horiz-adv-x="1261" 
d="M543 -21q-133 0 -237 68.5t-163.5 196t-59.5 306.5q0 182 61 309t165.5 194t234.5 67q92 0 155 -30t102.5 -74.5t61.5 -88.5h10v177h256v-1104h-255v173h-11q-22 -45 -63 -89.5t-103.5 -74.5t-153.5 -30zM612 193q85 0 144.5 45t91 125.5t31.5 187.5q0 108 -31 188
t-90.5 124t-145.5 44q-85 0 -144.5 -45t-90 -125t-30.5 -186q0 -105 31 -186t90 -126.5t144 -45.5z" />
    <glyph glyph-name="ascriptturn" unicode="&#x252;" horiz-adv-x="1261" 
d="M718 -21q-90 0 -153 30t-103.5 74.5t-63.5 89.5h-11v-173h-255v1104h256v-177h10q23 44 62.5 88.5t102.5 74.5t154 30q131 0 235.5 -67t165 -194t60.5 -309q0 -179 -59.5 -306.5t-163.5 -196t-237 -68.5zM649 193q85 0 144.5 45.5t90 126.5t30.5 186q0 106 -30.5 186
t-89.5 125t-145 45q-85 0 -144.5 -44t-91 -124t-31.5 -188q0 -107 31.5 -187.5t91.5 -125.5t144 -45z" />
    <glyph glyph-name="uni0253" unicode="&#x253;" horiz-adv-x="1257" 
d="M714 -21q-91 0 -154 30t-103 74.5t-63 88.5h-14v-172h-248v1104h253v-183h10q23 43 62 86.5t102 73.5t155 30q132 0 235.5 -66.5t164 -192.5t60.5 -304q0 -177 -59 -304.5t-163 -196t-238 -68.5zM648 189q86 0 146 46t91 127t31 187q0 105 -31 185.5t-90.5 125.5
t-146.5 45q-86 0 -146 -44t-92 -124t-32 -188q0 -107 32 -188t92.5 -126.5t145.5 -45.5zM132 867v338q0 146 87 221t253 75q42 0 77.5 -3t61.5 -8v-197q-20 2 -43 3t-43 1q-71 0 -103 -22t-32 -72v-336h-258z" />
    </font>
</defs>
</svg>
