<?xml version="1.0" standalone="no"?>
<!DOCTYPE svg PUBLIC "-//W3C//DTD SVG 1.1//EN" "http://www.w3.org/Graphics/SVG/1.1/DTD/svg11.dtd" >
<svg xmlns="http://www.w3.org/2000/svg" xmlns:xlink="http://www.w3.org/1999/xlink" version="1.1">
<metadata>
Created by FontForge 20201107 at Fri May 24 21:06:21 2024
 By 
Copyright 2016 The Inter Project Authors (https://github.com/rsms/inter)
</metadata>
<defs>
<font id="Inter24pt-Light" horiz-adv-x="0" >
  <font-face 
    font-family="Inter 24pt Light"
    font-weight="300"
    font-stretch="normal"
    units-per-em="2048"
    panose-1="2 0 5 3 0 0 0 2 0 4"
    ascent="1638"
    descent="-410"
    x-height="1084"
    cap-height="1490"
    bbox="-1504 -654 5266 2243"
    underline-thickness="109"
    underline-position="-356"
    unicode-range="U+0020-1F852"
  />
<missing-glyph horiz-adv-x="1344" 
d="M1016 -416h-688v2272h688v-2272zM512 -192v-64h320v64h-215l215 127v65h-320v-64h216zM512 320v-256h320v256h-320zM768 128h-192v128h192v-128zM512 704v-256h320v256h-192v-128h64v64h64v-128h-192v192h-64zM512 832v-64h320v224h-64v-160h-256zM512 960v-64h192v160
h128v64h-320v-64h128v-96h-128zM640 1248h-64v96h64v-96zM512 1408v-224h320v64h-128v160h-192zM512 1536v-64h320v64h-144v96h144v64h-320v-64h112v-96h-112z" />
    <glyph glyph-name=".notdef" horiz-adv-x="1344" 
d="M1016 -416h-688v2272h688v-2272zM512 -192v-64h320v64h-215l215 127v65h-320v-64h216zM512 320v-256h320v256h-320zM768 128h-192v128h192v-128zM512 704v-256h320v256h-192v-128h64v64h64v-128h-192v192h-64zM512 832v-64h320v224h-64v-160h-256zM512 960v-64h192v160
h128v64h-320v-64h128v-96h-128zM640 1248h-64v96h64v-96zM512 1408v-224h320v64h-128v160h-192zM512 1536v-64h320v64h-144v96h144v64h-320v-64h112v-96h-112z" />
    <glyph glyph-name=".null" horiz-adv-x="756" 
 />
    <glyph glyph-name="nonmarkingreturn" horiz-adv-x="682" 
 />
    <glyph glyph-name="space" unicode=" " horiz-adv-x="529" 
 />
    <glyph glyph-name="exclam" unicode="!" horiz-adv-x="497" 
d="M185 420l-9 1070h145l-9 -1070h-127zM249 -14q-43 0 -73.5 30.5t-30.5 73.5q0 44 30.5 74t73.5 30q44 0 74 -30t30 -74q0 -43 -30 -73.5t-74 -30.5z" />
    <glyph glyph-name="quotedbl" unicode="&#x22;" horiz-adv-x="786" 
d="M199 988l-15 502h136l-15 -502h-106zM481 988l-15 502h136l-15 -502h-106z" />
    <glyph glyph-name="numbersign" unicode="#" horiz-adv-x="1248" 
d="M706 0l245 1490h114l-244 -1490h-115zM14 429l20 114h1112l-19 -114h-1113zM183 0l244 1490h114l-244 -1490h-114zM101 946l20 114h1111l-18 -114h-1113z" />
    <glyph glyph-name="dollar" unicode="$" horiz-adv-x="1250" 
d="M572 -209v1908h110v-1908h-110zM627 -24q-156 0 -272 54t-181 151.5t-70 228.5h141q5 -96 53.5 -165t133.5 -105.5t195 -36.5q113 0 199 36t134.5 102.5t48.5 154.5q0 71 -34.5 121.5t-103 88t-172.5 65.5l-172 48q-196 54 -292 147t-96 236q0 122 63 214.5t173.5 144
t252.5 51.5q144 0 252 -53.5t170 -148t67 -218.5h-136q-11 134 -107 214t-250 80q-101 0 -180 -35.5t-124 -98.5t-45 -144q0 -69 37 -119.5t104 -85.5t159 -61l163 -45q90 -24 164.5 -59t129 -82.5t84 -111t29.5 -146.5q0 -122 -63.5 -218t-180 -150t-274.5 -54z" />
    <glyph glyph-name="percent" unicode="%" horiz-adv-x="1793" 
d="M462 837q-88 0 -153 41.5t-100.5 113t-35.5 161.5v42q0 90 35.5 161.5t100.5 113t153 41.5t152.5 -41.5t99.5 -113t35 -161.5v-42q0 -90 -35 -161.5t-99.5 -113t-152.5 -41.5zM462 939q80 0 125 60t45 154v42q0 94 -44.5 154t-125.5 60t-126.5 -60t-45.5 -154v-42
q0 -94 45 -154t127 -60zM1333 -23q-88 0 -153 41.5t-100.5 113.5t-35.5 162v41q0 91 35.5 162.5t100.5 113t153 41.5t152.5 -41.5t100 -113t35.5 -162.5v-41q0 -90 -35.5 -162t-100 -113.5t-152.5 -41.5zM1333 79q80 0 125.5 60t45.5 155v41q0 95 -45 155t-126 60
t-126.5 -60t-45.5 -155v-41q0 -95 45.5 -155t126.5 -60zM316 0l1023 1490h133l-1023 -1490h-133z" />
    <glyph glyph-name="ampersand" unicode="&#x26;" horiz-adv-x="1232" 
d="M546 -19q-135 0 -238 52.5t-161 144t-58 207.5q0 82 32 146.5t97.5 127t165.5 136.5l224 168q40 30 74 64.5t55 76t21 90.5q0 84 -58 139.5t-148 55.5q-61 0 -109.5 -27t-77 -74.5t-28.5 -109.5q0 -52 22.5 -99.5t67 -103.5t109.5 -136l681 -839h-161l-593 727
q-86 105 -143.5 178.5t-86.5 137t-29 136.5q0 96 44 169.5t122.5 115t179.5 41.5q102 0 178.5 -40.5t120 -110.5t43.5 -159q0 -68 -26 -126t-71.5 -108.5t-106.5 -95.5l-270 -202q-102 -76 -148 -139.5t-46 -140.5q0 -80 42 -144.5t114.5 -102.5t162.5 -38q95 0 179 41
t149 114t103 171t41 213l128 -1q-2 -104 -25 -187.5t-60.5 -147.5t-80.5 -111l-27 -36q-69 -80 -176 -126.5t-228 -46.5z" />
    <glyph glyph-name="quotesingle" unicode="'" horiz-adv-x="504" 
d="M199 988l-15 502h136l-15 -502h-106z" />
    <glyph glyph-name="parenleft" unicode="(" horiz-adv-x="640" 
d="M187 613q0 164 29.5 336.5t83 333.5t125.5 290h130q-74 -151 -126.5 -315t-80 -328.5t-27.5 -316.5q0 -143 25.5 -288t77 -297t131.5 -316h-130q-116 214 -177 443.5t-61 457.5z" />
    <glyph glyph-name="parenright" unicode=")" horiz-adv-x="640" 
d="M85 -287q80 165 131.5 317t77 297t25.5 286q0 153 -27.5 317t-80 328t-126.5 315h130q72 -129 125.5 -290t83 -333.5t29.5 -336.5q0 -229 -61 -458.5t-177 -441.5h-130z" />
    <glyph glyph-name="asterisk" unicode="*" horiz-adv-x="977" 
d="M433 652l9 338l-289 -177l-55 96l298 161l-298 161l55 98l289 -177l-9 338h111l-8 -338l288 177l56 -98l-299 -161l299 -161l-56 -96l-288 177l8 -338h-111z" />
    <glyph glyph-name="plus" unicode="+" horiz-adv-x="1289" 
d="M582 119v923h125v-923h-125zM183 520v120h923v-120h-923z" />
    <glyph glyph-name="comma" unicode="," horiz-adv-x="498" 
d="M104 -305l90 496h145l-134 -496h-101z" />
    <glyph glyph-name="hyphen" unicode="-" horiz-adv-x="880" 
d="M751 683v-124h-621v124h621z" />
    <glyph glyph-name="period" unicode="." horiz-adv-x="498" 
d="M249 -14q-43 0 -73.5 30.5t-30.5 73.5q0 44 30.5 74.5t73.5 30.5q44 0 74 -30.5t30 -74.5q0 -43 -30 -73.5t-74 -30.5z" />
    <glyph glyph-name="slash" unicode="/" horiz-adv-x="662" 
d="M633 1560l-480 -1784h-124l480 1784h124z" />
    <glyph glyph-name="zero" unicode="0" horiz-adv-x="1238" 
d="M619 -21q-158 0 -274 93.5t-179 265t-63 406.5q0 236 63 407.5t179 265.5t274 94q159 0 274.5 -94t178.5 -265.5t63 -407.5q0 -235 -62.5 -406.5t-178.5 -265t-275 -93.5zM619 103q119 0 204.5 78t132 221.5t46.5 341.5q0 199 -46.5 343t-132 222t-204.5 78
q-118 0 -204 -78t-132.5 -222t-46.5 -343q0 -198 46.5 -341.5t132.5 -221.5t204 -78z" />
    <glyph glyph-name="one" unicode="1" horiz-adv-x="749" 
d="M575 1490v-1490h-135v1353h-5l-352 -245v146l337 236h155z" />
    <glyph glyph-name="two" unicode="2" horiz-adv-x="1187" 
d="M122 0v111l511 519q97 100 158 173.5t89 139.5t28 140q0 92 -40.5 160.5t-112.5 106.5t-167 38q-100 0 -173.5 -42t-113.5 -116.5t-40 -172.5h-131q0 132 58 235t162 161t239 58q132 0 233.5 -55t159.5 -151t58 -219q0 -87 -31.5 -167t-103 -170.5t-189.5 -211.5
l-403 -408v-5h755v-124h-946z" />
    <glyph glyph-name="three" unicode="3" horiz-adv-x="1207" 
d="M608 -21q-144 0 -256 54.5t-176.5 151.5t-66.5 224h140q2 -94 47.5 -163t125.5 -106.5t184 -37.5q107 0 188.5 38.5t127 107.5t45.5 157q0 89 -49 156t-137 104.5t-206 37.5h-88v124h88q100 0 178 34t122.5 96.5t44.5 146.5q0 85 -39.5 149t-110.5 100t-166 36
q-94 0 -167.5 -36.5t-116 -102t-43.5 -156.5h-135q2 123 62.5 217t164.5 147t236 53q133 0 234.5 -53t158.5 -143.5t57 -203.5q0 -123 -72.5 -213.5t-198.5 -125.5v-6q98 -18 170 -68.5t111 -126t39 -167.5q0 -122 -64 -218.5t-176 -151.5t-256 -55z" />
    <glyph glyph-name="four" unicode="4" horiz-adv-x="1261" 
d="M89 353v112l699 1025h88v-170h-57l-572 -837v-6h925v-124h-1083zM824 0v388v52v1050h133v-1490h-133z" />
    <glyph glyph-name="five" unicode="5" horiz-adv-x="1158" 
d="M568 -20q-133 0 -237 54t-165 148t-65 213h137q5 -84 48 -150t116 -103.5t166 -37.5q104 0 183 48.5t124 132.5t45 190q0 109 -45.5 192.5t-124 131t-179.5 47.5q-102 0 -185.5 -40t-124.5 -111l-135 9l70 786h796v-124h-674l-50 -522h4q56 58 137 92.5t181 34.5t185 -36
t147.5 -102.5t97.5 -157t35 -198.5q0 -144 -62.5 -256.5t-172 -176.5t-252.5 -64z" />
    <glyph glyph-name="six" unicode="6" horiz-adv-x="1188" 
d="M605 -21q-106 0 -197.5 42t-160 128t-106.5 218.5t-38 314.5q0 178 31 329t95 263.5t162.5 174.5t234.5 62q122 0 216 -49t152.5 -136t72.5 -203h-135q-21 117 -99 190t-203 73q-128 0 -216 -78t-133.5 -225t-45.5 -355h6q32 68 89.5 118t133 78t160.5 28
q129 0 233.5 -63t166 -172t61.5 -249q0 -137 -60.5 -247.5t-168 -176t-251.5 -65.5zM605 103q98 0 176.5 49.5t124 132.5t45.5 183q0 101 -45.5 182.5t-124 129.5t-176.5 48q-75 0 -140 -29t-113 -80.5t-72.5 -118t-18.5 -141.5q9 -104 56 -184.5t121.5 -126t166.5 -45.5z
" />
    <glyph glyph-name="seven" unicode="7" horiz-adv-x="1096" 
d="M192 0l683 1361v5h-797v124h940v-131l-680 -1359h-146z" />
    <glyph glyph-name="eight" unicode="8" horiz-adv-x="1195" 
d="M597 -21q-142 0 -254 54t-176 147.5t-64 211.5q0 96 41.5 177.5t113.5 136t162 68.5v3q-120 29 -192 123.5t-72 219.5q0 112 58 200t157.5 139.5t225.5 51.5q124 0 224 -51t158.5 -139.5t58.5 -200.5q0 -124 -72.5 -219t-190.5 -124v-3q89 -14 161 -69t113.5 -136
t41.5 -177q0 -118 -64 -211.5t-176 -147.5t-254 -54zM597 103q106 0 186 37.5t125 104.5t45 153q0 90 -46.5 160t-127 110.5t-182.5 40.5t-183 -40.5t-128 -110.5t-47 -160q0 -86 45.5 -153t126 -104.5t186.5 -37.5zM597 828q88 0 157 36.5t109 101t40 146.5
q0 81 -39.5 143.5t-108.5 97.5t-158 35t-158.5 -35t-109 -97.5t-39.5 -143.5q0 -82 40 -146.5t109.5 -101t157.5 -36.5z" />
    <glyph glyph-name="nine" unicode="9" horiz-adv-x="1188" 
d="M562 -21q-122 0 -217 49t-154 137t-73 203h136q20 -117 99 -190.5t204 -73.5q128 0 216 78t134 225.5t45 354.5h-5q-32 -66 -89.5 -115.5t-132.5 -77t-160 -27.5q-128 0 -233 62.5t-167 171.5t-62 248q0 137 60.5 247.5t169 175.5t251.5 64q107 -1 198 -42.5t159 -127.5
t106 -218t38 -314q0 -179 -31 -330t-95 -263.5t-163 -174.5t-234 -62zM583 665q75 0 140.5 29.5t113.5 81t72.5 117.5t18.5 141q-9 104 -56 183.5t-121.5 124.5t-167.5 45q-98 0 -176 -49t-123.5 -131t-45.5 -183q0 -100 45.5 -181.5t124 -129.5t175.5 -48z" />
    <glyph glyph-name="colon" unicode=":" horiz-adv-x="498" 
d="M249 -14q-43 0 -73.5 30.5t-30.5 73.5q0 44 30.5 74.5t73.5 30.5q44 0 74 -30.5t30 -74.5q0 -43 -30 -73.5t-74 -30.5zM249 828q-43 0 -73.5 30.5t-30.5 73.5q0 44 30.5 74.5t73.5 30.5q44 0 74 -30.5t30 -74.5q0 -43 -30 -73.5t-74 -30.5z" />
    <glyph glyph-name="semicolon" unicode=";" horiz-adv-x="509" 
d="M104 -305l90 496h145l-134 -496h-101zM260 828q-43 0 -73.5 30.5t-30.5 73.5q0 44 30.5 74.5t73.5 30.5q44 0 74 -30.5t30 -74.5q0 -43 -30 -73.5t-74 -30.5z" />
    <glyph glyph-name="less" unicode="&#x3c;" horiz-adv-x="1289" 
d="M168 534v96l893 491v-146l-731 -393l7 14v-27l-7 11l731 -392v-145z" />
    <glyph glyph-name="equal" unicode="=" horiz-adv-x="1289" 
d="M229 730v123h830v-123h-830zM229 312v123h830v-123h-830z" />
    <glyph glyph-name="greater" unicode="&#x3e;" horiz-adv-x="1289" 
d="M1121 534l-893 -491v145l731 392l-7 -11v27l7 -14l-731 393v146l893 -491v-96z" />
    <glyph glyph-name="question" unicode="?" horiz-adv-x="1023" 
d="M405 412v87q0 108 27.5 170.5t77.5 105t117 87.5q84 58 124.5 123.5t40.5 145.5q0 79 -36 137t-100 90t-148 32q-85 0 -151.5 -36t-104.5 -102.5t-40 -160.5h-138q2 127 58 221t153.5 146.5t222.5 52.5q124 0 218 -49t147 -135t53 -198q0 -109 -52 -195.5t-156 -156.5
q-64 -43 -103.5 -79.5t-57.5 -83t-18 -121.5v-81h-134zM473 -14q-44 0 -74.5 30.5t-30.5 73.5q0 44 30.5 74t74.5 30q43 0 73 -30t30 -74q0 -43 -30 -73.5t-73 -30.5z" />
    <glyph glyph-name="at" unicode="@" horiz-adv-x="1980" 
d="M1013 -396q-203 0 -369.5 67t-286.5 189.5t-185 292t-65 372.5q0 202 65 370.5t185 291.5t285 190.5t365 67.5q195 0 354 -67t273.5 -187t176.5 -279t62 -343q0 -112 -21 -208t-64.5 -167.5t-112 -112t-164.5 -40.5q-73 0 -124.5 24.5t-80.5 69t-34 101.5h-3
q-34 -83 -110 -139.5t-195 -56.5q-127 0 -219.5 66t-142.5 177.5t-50 245.5q0 137 55 245.5t150 171.5t214 63q107 0 180.5 -47.5t107.5 -114.5h5v141h121v-670q0 -81 32 -122.5t100 -41.5q78 0 129.5 47.5t77.5 139.5t26 225q0 163 -52 302.5t-150 243t-235.5 161
t-307.5 57.5q-173 0 -314.5 -58t-243.5 -164.5t-157 -254.5t-55 -329t55 -329.5t158 -254.5t246.5 -163.5t320.5 -57.5q86 0 164 15t143 37.5t112 45.5l41 -107q-52 -27 -125 -51.5t-159 -39.5t-178 -15zM974 156q96 0 161.5 45.5t99 129.5t33.5 200q0 117 -34.5 197.5
t-100 122.5t-158.5 42q-90 0 -157.5 -46.5t-104.5 -128t-37 -187.5q0 -108 35.5 -193t102 -133.5t160.5 -48.5z" />
    <glyph glyph-name="A" unicode="A" horiz-adv-x="1334" 
d="M36 0l550 1490h162l550 -1490h-147l-354 979q-30 84 -65.5 189.5t-83.5 257.5h36q-47 -153 -83 -259t-65 -188l-354 -979h-146zM295 442v124h743v-124h-743z" />
    <glyph glyph-name="B" unicode="B" horiz-adv-x="1304" 
d="M174 0v1490h510q145 0 246.5 -49t155 -136.5t53.5 -204.5q0 -89 -31.5 -155t-86.5 -109.5t-126 -64.5v-6q78 -10 147 -54.5t112.5 -122t43.5 -186.5q0 -119 -54 -209.5t-163 -141.5t-272 -51h-535zM312 124h395q174 0 264 75.5t90 200.5q0 88 -43.5 154.5t-121.5 104
t-182 37.5h-402v-572zM312 817h388q92 0 160.5 36t106 98.5t37.5 143.5q0 124 -83.5 197.5t-235.5 73.5h-373v-549z" />
    <glyph glyph-name="C" unicode="C" horiz-adv-x="1461" 
d="M764 -21q-194 0 -342 96t-231.5 268t-83.5 401q0 230 83 402.5t231.5 268.5t342.5 96q120 0 221.5 -38t179 -105.5t127 -157t67.5 -193.5h-140q-16 79 -55 145t-98 115.5t-135.5 76.5t-166.5 27q-149 0 -266.5 -76t-185.5 -218.5t-68 -342.5t68 -342t185.5 -217.5
t266.5 -75.5q90 0 166 27.5t135 76.5t98.5 115t56.5 144h139q-17 -103 -67 -192.5t-127.5 -157t-178.5 -105.5t-222 -38z" />
    <glyph glyph-name="D" unicode="D" horiz-adv-x="1425" 
d="M612 0h-361v124h353q191 0 319.5 75t193 215t64.5 335q0 192 -63 330t-185.5 212.5t-303.5 74.5h-384v124h392q214 0 366 -89t233.5 -255t81.5 -397q0 -235 -83 -402.5t-241 -257t-382 -89.5zM312 1490v-1490h-138v1490h138z" />
    <glyph glyph-name="E" unicode="E" horiz-adv-x="1194" 
d="M174 0v1490h912v-124h-774v-547h718v-124h-718v-571h780v-124h-918z" />
    <glyph glyph-name="F" unicode="F" horiz-adv-x="1158" 
d="M174 0v1490h891v-124h-753v-554h683v-125h-683v-687h-138z" />
    <glyph glyph-name="G" unicode="G" horiz-adv-x="1487" 
d="M764 -21q-195 0 -343 96t-231 268.5t-83 400.5q0 231 83 403t230.5 268t338.5 96q123 0 225 -39t180 -107.5t128.5 -157.5t67.5 -189h-141q-17 74 -56.5 139.5t-99 116t-136 79t-167.5 28.5q-151 0 -268 -78t-182.5 -221t-65.5 -338q0 -193 65.5 -335.5t183 -221
t271.5 -78.5q138 0 244 61t166 173t60 263l45 -8h-476v124h567v-123q0 -184 -78 -323.5t-214.5 -218t-313.5 -78.5z" />
    <glyph glyph-name="H" unicode="H" horiz-adv-x="1466" 
d="M174 0v1490h138v-666h842v666h138v-1490h-138v700h-842v-700h-138z" />
    <glyph glyph-name="I" unicode="I" horiz-adv-x="486" 
d="M312 1490v-1490h-138v1490h138z" />
    <glyph glyph-name="J" unicode="J" horiz-adv-x="1113" 
d="M527 -20q-191 0 -308.5 114.5t-117.5 320.5v76h139v-76q0 -149 77.5 -230t209.5 -81q131 0 209 81t78 230v1075h138v-1075q0 -206 -117 -320.5t-308 -114.5z" />
    <glyph glyph-name="K" unicode="K" horiz-adv-x="1277" 
d="M271 463l-5 163q54 64 106.5 124t106 119t110.5 119l465 502h183l-629 -674l-10 -3zM174 0v1490h138v-520l-1 -335l1 -71v-564h-138zM1072 0l-558 783l88 105l634 -888h-164z" />
    <glyph glyph-name="L" unicode="L" horiz-adv-x="1113" 
d="M174 0v1490h139v-1366h722v-124h-861z" />
    <glyph glyph-name="M" unicode="M" horiz-adv-x="1785" 
d="M174 0v1490h192l420 -1030q14 -33 30.5 -76.5t33.5 -91t33.5 -93t28.5 -82.5h-35q12 36 28 81t33.5 93t34 92t30.5 77l416 1030h193v-1490h-136v951v96t1.5 105.5t2.5 109.5t1 108h19q-21 -60 -42.5 -119t-42 -114t-39 -102t-33.5 -84l-391 -951h-119l-393 951
q-15 36 -33.5 83t-39 101.5t-42.5 114t-45 120.5h23q1 -51 2 -105.5l2 -109t1.5 -107t0.5 -97.5v-951h-135z" />
    <glyph glyph-name="N" unicode="N" horiz-adv-x="1499" 
d="M174 0v1490h157l682 -1019q27 -39 60.5 -92.5t70.5 -114.5t73 -124l-20 -14q-4 63 -6 129.5t-3 127t-1 103.5v1004h138v-1490h-159l-636 947q-32 48 -69 106.5t-82 131.5t-101 165l23 17q4 -93 6.5 -172t3.5 -141.5t1 -105.5v-948h-138z" />
    <glyph glyph-name="O" unicode="O" horiz-adv-x="1518" 
d="M760 -21q-191 0 -338.5 96t-231 268.5t-83.5 400.5q0 230 83.5 402t231 268.5t338.5 96.5t338 -96.5t230 -268.5t83 -402q0 -228 -83 -400.5t-230 -268.5t-338 -96zM760 109q146 0 262.5 75.5t184.5 218t68 341.5q0 200 -68 342.5t-184.5 218.5t-262.5 76t-263 -75.5
t-185 -218.5t-68 -343q0 -198 67.5 -340.5t184.5 -218.5t264 -76z" />
    <glyph glyph-name="P" unicode="P" horiz-adv-x="1244" 
d="M174 0v1490h503q151 0 258.5 -57.5t164.5 -159t57 -234.5t-57.5 -235t-165.5 -159.5t-259 -57.5h-416v124h414q110 0 187.5 41.5t118.5 115t41 171.5t-41 171.5t-118.5 114.5t-188.5 41h-360v-1366h-138z" />
    <glyph glyph-name="Q" unicode="Q" horiz-adv-x="1518" 
d="M732 466h152l190 -252l32 -43l234 -311h-152l-170 229l-32 41zM760 -21q-191 0 -338.5 96t-231 268.5t-83.5 400.5q0 230 83.5 402t231 268.5t338.5 96.5t338 -96.5t230 -268.5t83 -402q0 -228 -83 -400.5t-230 -268.5t-338 -96zM760 109q146 0 262.5 75.5t184.5 218
t68 341.5q0 200 -68 342.5t-184.5 218.5t-262.5 76t-263 -75.5t-185 -218.5t-68 -343q0 -198 67.5 -340.5t184.5 -218.5t264 -76z" />
    <glyph glyph-name="R" unicode="R" horiz-adv-x="1276" 
d="M174 0v1490h510q151 0 258.5 -55.5t164.5 -156t57 -234.5q0 -133 -58.5 -232.5t-167 -154.5t-258.5 -55h-430v125h431q110 0 187 39t118 110.5t41 167.5q0 99 -41 170.5t-118.5 111.5t-188.5 40h-367v-1366h-138zM1041 0l-361 673h157l364 -673h-160z" />
    <glyph glyph-name="S" unicode="S" horiz-adv-x="1250" 
d="M627 -24q-156 0 -272 54t-181 151.5t-70 228.5h141q5 -96 53.5 -165t133.5 -105.5t195 -36.5q113 0 199 36t134.5 102.5t48.5 154.5q0 71 -34.5 121.5t-103 88t-172.5 65.5l-172 48q-196 54 -292 147t-96 236q0 122 63 214.5t173.5 144t252.5 51.5q144 0 252 -53.5
t170 -148t67 -218.5h-136q-11 134 -107 214t-250 80q-101 0 -180 -35.5t-124 -98.5t-45 -144q0 -69 37 -119.5t104 -85.5t159 -61l163 -45q90 -24 164.5 -59t129 -82.5t84 -111t29.5 -146.5q0 -122 -63.5 -218t-180 -150t-274.5 -54z" />
    <glyph glyph-name="T" unicode="T" horiz-adv-x="1265" 
d="M78 1366v124h1109v-124h-485v-1366h-138v1366h-486z" />
    <glyph glyph-name="U" unicode="U" horiz-adv-x="1453" 
d="M727 -22q-168 0 -295.5 68.5t-199 188.5t-71.5 272v983h138v-974q0 -118 53 -210t149.5 -145.5t225.5 -53.5t225 53.5t149 145.5t53 210v974h139v-983q0 -153 -71.5 -272.5t-199 -188t-295.5 -68.5z" />
    <glyph glyph-name="V" unicode="V" horiz-adv-x="1334" 
d="M588 0l-552 1490h146l357 -979q27 -76 64 -186t85 -260h-35q47 152 84 261t64 185l351 979h146l-548 -1490h-162z" />
    <glyph glyph-name="W" unicode="W" horiz-adv-x="1935" 
d="M448 0l-412 1490h141l267 -995q18 -67 34.5 -134.5t32 -136t30.5 -137.5h-19q15 69 30.5 137.5t32.5 136t34 134.5l266 995h165l264 -995q18 -67 35 -134.5t33 -136t31 -137.5h-21q15 69 31 137.5t33 136t35 134.5l265 995h143l-413 -1490h-167l-273 1003
q-25 95 -48.5 195t-45.5 210h30q-23 -108 -45.5 -207t-49.5 -198l-272 -1003h-167z" />
    <glyph glyph-name="X" unicode="X" horiz-adv-x="1312" 
d="M41 0l571 812v-103l-544 781h160l257 -368q36 -52 66.5 -97.5t59.5 -91t60 -96.5h-28q31 51 60 96t60.5 91t67.5 98l259 368h158l-545 -776v102l568 -816h-160l-294 420q-33 48 -62.5 91t-57 86.5t-57.5 92.5h33q-29 -48 -57.5 -91.5t-58 -86.5t-63.5 -92l-295 -420h-158
z" />
    <glyph glyph-name="Y" unicode="Y" horiz-adv-x="1320" 
d="M591 0v643l-555 847h161l319 -487q47 -72 89 -142t85 -151h-57q42 82 84.5 152t88.5 141l317 487h160l-554 -847v-643h-138z" />
    <glyph glyph-name="Z" unicode="Z" horiz-adv-x="1257" 
d="M97 0v113l750 1052q45 63 92.5 126t95.5 126l16 -49q-85 -2 -170 -2.5t-170 -0.5h-596v125h1040v-114l-742 -1041q-47 -66 -96.5 -131.5t-99.5 -130.5l-16 49q84 1 167.5 1.5t166.5 0.5h627v-124h-1065z" />
    <glyph glyph-name="bracketleft" unicode="[" horiz-adv-x="640" 
d="M199 -288v1861h334v-115h-204v-1631h204v-115h-334z" />
    <glyph glyph-name="backslash" unicode="\" horiz-adv-x="662" 
d="M509 -224l-480 1784h124l480 -1784h-124z" />
    <glyph glyph-name="bracketright" unicode="]" horiz-adv-x="640" 
d="M107 -288v115h204v1631h-204v115h333v-1861h-333z" />
    <glyph glyph-name="asciicircum" unicode="^" horiz-adv-x="867" 
d="M412 1379h44v-65h-44v65zM63 814l299 628h143l299 -628h-133l-246 529h18l-245 -529h-135z" />
    <glyph glyph-name="underscore" unicode="_" horiz-adv-x="916" 
d="M916 0v-124h-916v124h916z" />
    <glyph glyph-name="grave" unicode="`" horiz-adv-x="547" 
d="M307 1227l-178 293h151l138 -293h-111z" />
    <glyph glyph-name="a" unicode="a" horiz-adv-x="1079" 
d="M452 -20q-101 0 -184 36.5t-132.5 109t-49.5 177.5q0 83 31.5 138t88.5 90t135.5 55t172.5 32q96 13 159.5 22t95 28t31.5 61v20q0 70 -32 122.5t-91.5 82t-141.5 29.5q-80 0 -142 -27t-100.5 -72.5t-49.5 -100.5l-130 20q19 93 78.5 159.5t148.5 102t193 35.5
q79 0 150.5 -21.5t127 -65.5t88 -111t32.5 -158v-744h-130v174h-6q-24 -49 -69 -94t-113 -72.5t-161 -27.5zM470 99q104 0 177.5 42t113 115t39.5 164v153q-14 -13 -44 -23.5t-70.5 -18.5t-86 -15t-88.5 -12q-91 -12 -156.5 -36t-100.5 -65t-35 -106q0 -63 32.5 -107.5
t89 -67.5t129.5 -23z" />
    <glyph glyph-name="b" unicode="b" horiz-adv-x="1184" 
d="M635 -21q-88 0 -157 30.5t-117.5 82t-76.5 112.5h-8v-204h-128v1490h131v-613h6q26 61 74 111.5t117.5 81t158.5 30.5q136 0 239.5 -70t162 -196t58.5 -294q0 -167 -58 -293.5t-161.5 -197t-240.5 -70.5zM618 99q104 0 181.5 55t120 154.5t42.5 232.5t-42.5 232
t-119.5 153.5t-182 54.5q-107 0 -184.5 -55t-119 -154t-41.5 -231q0 -131 42 -231t119 -155.5t184 -55.5z" />
    <glyph glyph-name="c" unicode="c" horiz-adv-x="1094" 
d="M576 -21q-144 0 -254 71.5t-171.5 198t-61.5 290.5q0 166 61.5 292.5t171.5 198.5t254 72q86 0 159 -26t129 -71.5t93 -105t52 -126.5l-130 -18q-10 44 -35 85t-63.5 73t-89.5 50.5t-115 18.5q-110 0 -189.5 -57.5t-122 -157.5t-42.5 -228q0 -127 42.5 -226.5t122 -156.5
t189.5 -57q64 0 115 18.5t89.5 50.5t63.5 73.5t36 87.5l131 -18q-14 -67 -51.5 -127t-94.5 -106t-130 -72.5t-159 -26.5z" />
    <glyph glyph-name="d" unicode="d" horiz-adv-x="1184" 
d="M548 -21q-135 0 -239 70.5t-162 197t-58 293.5q0 168 58.5 294t162 196t239.5 70q89 0 158 -30.5t117.5 -81t74.5 -111.5h6v613h131v-1490h-128v204h-8q-28 -61 -76.5 -112.5t-117 -82t-158.5 -30.5zM566 99q107 0 184 55.5t118.5 155.5t41.5 231q0 132 -41.5 231
t-118.5 154t-184 55q-104 0 -181.5 -54.5t-120 -153.5t-42.5 -232t42.5 -232.5t120 -154.5t181.5 -55z" />
    <glyph glyph-name="e" unicode="e" horiz-adv-x="1128" 
d="M584 -23q-153 0 -264 72.5t-171 199t-60 289.5q0 164 61 291t169.5 200t250.5 73q100 0 186.5 -37t151 -108t100.5 -172.5t36 -231.5v-48h-878v115h805l-58 -40q0 118 -42.5 209t-119.5 142.5t-181 51.5q-105 0 -183.5 -52.5t-122.5 -144t-44 -207.5v-57
q0 -126 44.5 -222t126 -149.5t193.5 -53.5q79 0 141.5 26.5t105 72.5t62.5 104l129 -18q-24 -87 -85 -156t-151 -109t-202 -40z" />
    <glyph glyph-name="f" unicode="f" horiz-adv-x="636" 
d="M586 1084v-115h-573v115h573zM215 0v1268q0 80 35 136.5t96 86.5t139 30q40 0 71.5 -4t47.5 -8l-17 -114q-14 2 -39.5 4.5t-50.5 2.5q-77 0 -113.5 -39t-36.5 -117v-1246h-132z" />
    <glyph glyph-name="g" unicode="g" horiz-adv-x="1184" 
d="M576 -436q-117 0 -207 34t-148.5 96.5t-81.5 147.5l123 31q20 -56 60.5 -99t103.5 -67.5t150 -24.5q153 0 241.5 79t88.5 230v222h-7q-28 -61 -76.5 -110.5t-117 -78.5t-157.5 -29q-134 0 -238 67.5t-162.5 190.5t-58.5 290q0 166 58.5 291.5t162.5 195.5t240 70
q89 0 158 -30t118 -81.5t76 -114.5h6v210h129v-1096q0 -145 -60.5 -239t-164.5 -139.5t-236 -45.5zM567 114q106 0 183.5 52.5t119 149t41.5 228.5q0 130 -41.5 228.5t-118.5 153.5t-184 55q-105 0 -182.5 -54.5t-120 -152.5t-42.5 -230q0 -133 43 -229t120.5 -148.5
t181.5 -52.5z" />
    <glyph glyph-name="h" unicode="h" horiz-adv-x="1149" 
d="M279 666v-666h-131v1490h131v-662h-32q46 142 144 207t224 65q111 0 198.5 -47t137.5 -138t50 -223v-692h-132v683q0 140 -76 218t-206 78q-87 0 -156.5 -36t-110.5 -106t-41 -171z" />
    <glyph glyph-name="i" unicode="i" horiz-adv-x="427" 
d="M148 0v1084h131v-1084h-131zM214 1303q-39 0 -67.5 27.5t-28.5 66.5t28.5 66.5t67.5 27.5q40 0 68 -27.5t28 -66.5t-28 -66.5t-68 -27.5z" />
    <glyph glyph-name="j" unicode="j" horiz-adv-x="429" 
d="M149 1084h132v-1217q1 -85 -34 -149.5t-99 -100t-152 -35.5h-44v120h37q75 0 117.5 45t42.5 130v1207zM216 1303q-39 0 -67.5 27.5t-28.5 66.5t28.5 66.5t67.5 27.5q40 0 68 -27.5t28 -66.5t-28 -66.5t-68 -27.5z" />
    <glyph glyph-name="k" unicode="k" horiz-adv-x="1023" 
d="M268 410v167h21l509 507h170l-501 -499l-14 -2zM148 0v1490h131v-1490h-131zM836 0l-450 559l94 91l524 -650h-168z" />
    <glyph glyph-name="l" unicode="l" horiz-adv-x="427" 
d="M279 1490v-1490h-131v1490h131z" />
    <glyph glyph-name="m" unicode="m" horiz-adv-x="1735" 
d="M148 0v1084h128l1 -238h-18q26 86 77.5 142.5t119 85t140.5 28.5q123 0 206.5 -73.5t105.5 -188.5h-26q21 78 72 137t124.5 92t161.5 33q100 0 178.5 -43.5t124 -128.5t45.5 -212v-718h-132v717q0 135 -72 199.5t-178 64.5q-80 0 -141.5 -34.5t-96 -97t-34.5 -145.5v-704
h-132v729q0 116 -68 184t-176 68q-75 0 -138.5 -35.5t-102 -101t-38.5 -158.5v-686h-131z" />
    <glyph glyph-name="n" unicode="n" horiz-adv-x="1148" 
d="M279 666v-666h-131v1084h128v-256h-29q46 142 144 207t224 65q111 0 198 -47t137.5 -138t50.5 -223v-692h-132v683q0 140 -76 218t-206 78q-87 0 -156.5 -36t-110.5 -106t-41 -171z" />
    <glyph glyph-name="o" unicode="o" horiz-adv-x="1152" 
d="M576 -23q-144 0 -254 72t-171.5 198.5t-61.5 291.5t61.5 292t171.5 199t254 72t253.5 -72t171.5 -199t62 -292t-61.5 -291.5t-171.5 -198.5t-254 -72zM576 98q111 0 190 57t121.5 157t42.5 227t-42.5 227t-121.5 158t-190 58q-110 0 -189.5 -58t-122 -158t-42.5 -227
t42.5 -227t121.5 -157t190 -57z" />
    <glyph glyph-name="p" unicode="p" horiz-adv-x="1184" 
d="M148 -418v1502h128v-207h8q26 61 74.5 111.5t118 81t158.5 30.5q136 0 239.5 -70t162 -196t58.5 -294q0 -167 -58 -293.5t-161.5 -197t-240.5 -70.5q-88 0 -156.5 30.5t-117 82t-76.5 112.5h-6v-622h-131zM618 99q104 0 181.5 55t120 154.5t42.5 232.5t-42.5 232
t-119.5 153.5t-182 54.5q-107 0 -184.5 -55t-119 -154t-41.5 -231q0 -131 42 -231t119 -155.5t184 -55.5z" />
    <glyph glyph-name="q" unicode="q" horiz-adv-x="1184" 
d="M1036 -418h-131v622h-6q-28 -61 -76.5 -112.5t-116.5 -82t-158 -30.5q-135 0 -239 70.5t-162 197t-58 293.5q0 168 58.5 294t162 196t239.5 70q89 0 158.5 -30.5t118 -81t74.5 -111.5h8v207h128v-1502zM566 99q107 0 184 55.5t118.5 155.5t41.5 231q0 132 -41.5 231
t-118.5 154t-184 55q-104 0 -181.5 -54.5t-120 -153.5t-42.5 -232t42.5 -232.5t120 -154.5t181.5 -55z" />
    <glyph glyph-name="r" unicode="r" horiz-adv-x="671" 
d="M148 0v1084h127v-176h6q33 86 110 137.5t182 51.5q17 0 33.5 -1t28.5 -2v-132q-8 2 -30 5t-49 3q-78 0 -141 -34.5t-99.5 -98t-36.5 -152.5v-685h-131z" />
    <glyph glyph-name="s" unicode="s" horiz-adv-x="999" 
d="M502 -22q-112 0 -199 36t-141.5 106.5t-66.5 173.5l128 14q16 -104 87 -159t190 -55q125 0 199 56t74 141q0 68 -47 109t-135 61l-178 43q-143 34 -216 105.5t-73 183.5q0 91 49 160.5t135.5 109t198.5 39.5q107 0 187.5 -37t130 -105t63.5 -163l-125 -14
q-15 91 -79 147.5t-177 56.5q-112 0 -181.5 -53.5t-69.5 -137.5q0 -69 49.5 -111t144.5 -65l173 -41q144 -34 214 -103t70 -180q0 -96 -51.5 -167.5t-143 -111t-210.5 -39.5z" />
    <glyph glyph-name="t" unicode="t" horiz-adv-x="595" 
d="M543 1084v-115h-530v115h530zM187 1362h132v-1113q0 -74 32.5 -107t105.5 -30q18 0 41 1.5t42 3.5l13 -115q-23 -3 -50 -5t-52 -2q-128 -4 -196 60t-68 184v1123z" />
    <glyph glyph-name="u" unicode="u" horiz-adv-x="1149" 
d="M534 -17q-111 0 -198.5 47t-137.5 138.5t-50 223.5v692h131v-683q0 -140 76.5 -218.5t205.5 -78.5q87 0 157 36.5t110.5 107t40.5 170.5v666h132v-1084h-128v255h28q-46 -142 -144 -207t-223 -65z" />
    <glyph glyph-name="v" unicode="v" horiz-adv-x="1079" 
d="M470 0l-422 1084h143l254 -671q33 -84 60 -168.5t55 -166.5h-38q28 82 55.5 166.5t58.5 168.5l253 671h142l-422 -1084h-139z" />
    <glyph glyph-name="w" unicode="w" horiz-adv-x="1585" 
d="M379 0l-327 1084h138l167 -582q26 -92 52 -193t53 -211h-23q27 108 54 209t54 195l176 582h140l175 -582q27 -93 53.5 -194t53.5 -210h-24q27 108 53.5 209.5t52.5 194.5l168 582h139l-328 -1084h-140l-189 616q-17 61 -34 123t-33.5 125.5t-34.5 127.5h35
q-17 -63 -34 -127t-33.5 -126.5t-35.5 -122.5l-189 -616h-139z" />
    <glyph glyph-name="x" unicode="x" horiz-adv-x="1048" 
d="M46 0l439 605v-101l-418 580h156l168 -239q46 -66 86.5 -129t82.5 -124h-67q42 61 82 124t86 129l170 239h153l-418 -582v99l436 -601h-155l-195 274q-44 64 -83 123.5t-79 118.5h68q-41 -59 -79 -118.5t-83 -123.5l-196 -274h-154z" />
    <glyph glyph-name="y" unicode="y" horiz-adv-x="1079" 
d="M132 -411l17 116l61 -2q49 -8 86 3t67 46.5t54 100.5l55 145l-424 1086h143l255 -671q32 -85 59.5 -169.5t55.5 -167.5h-41q28 83 56 167.5t60 169.5l253 671h142l-498 -1277q-31 -78 -72 -128.5t-94.5 -75.5t-121.5 -25q-34 0 -61.5 3.5t-51.5 7.5z" />
    <glyph glyph-name="z" unicode="z" horiz-adv-x="1026" 
d="M110 0v103l628 854v5h-614v122h779v-109l-620 -848v-6h633v-121h-806z" />
    <glyph glyph-name="braceleft" unicode="{" horiz-adv-x="797" 
d="M130 623v86q123 0 170 49t47 169v282q0 94 18.5 162.5t59 113t106.5 66.5t159 22v-114q-122 0 -169.5 -59.5t-47.5 -191.5v-320q0 -62 -15 -111t-53 -83t-104.5 -52.5t-170.5 -18.5zM690 -288q-93 0 -159 22t-106.5 66.5t-59 113t-18.5 162.5v281q0 121 -47 170.5
t-170 49.5v86q104 0 170.5 -18.5t104.5 -53.5t53 -84.5t15 -110.5v-319q0 -131 47.5 -191t169.5 -60v-114zM130 576v134h168v-134h-168z" />
    <glyph glyph-name="bar" unicode="|" horiz-adv-x="589" 
d="M352 1970v-2450h-116v2450h116z" />
    <glyph glyph-name="braceright" unicode="}" horiz-adv-x="797" 
d="M667 623q-104 0 -170.5 18.5t-104.5 52.5t-53 83t-15 111v320q0 132 -47.5 191.5t-169.5 59.5v114q94 0 159 -22t105.5 -66.5t59 -113t18.5 -162.5v-282q0 -120 47.5 -169t170.5 -49v-86zM107 -288v114q122 0 169.5 60t47.5 191v319q0 61 15 110.5t53 84.5t104.5 53.5
t170.5 18.5v-86q-123 -1 -170.5 -50t-47.5 -170v-281q0 -94 -18.5 -162.5t-59 -113t-105.5 -66.5t-159 -22zM667 577l-168 -1v134l168 -1v-132z" />
    <glyph glyph-name="asciitilde" unicode="~" horiz-adv-x="1289" 
d="M152 456q2 102 41.5 166.5t103 95.5t135.5 31q75 0 133.5 -31t127.5 -88q50 -40 84.5 -60t78.5 -20q67 0 109.5 45t47.5 126l123 -4q-3 -100 -43.5 -164t-102 -94.5t-131.5 -30.5q-71 1 -128.5 31t-124.5 85q-50 41 -87 61.5t-83 20.5q-68 1 -113 -42t-48 -130z" />
    <glyph glyph-name="uni00A0" unicode="&#xa0;" horiz-adv-x="529" 
 />
    <glyph glyph-name="exclamdown" unicode="&#xa1;" horiz-adv-x="502" 
d="M176 -393l10 1064h131l9 -1064h-150zM250 892q-43 0 -74 31.5t-31 74.5q0 45 31 76t74 31q44 0 75.5 -31t31.5 -76q0 -43 -31.5 -74.5t-75.5 -31.5z" />
    <glyph glyph-name="cent" unicode="&#xa2;" horiz-adv-x="1094" 
d="M517 0v1490h104v-1490h-104zM576 183q-144 0 -254 72t-171.5 198t-61.5 291t61.5 292t171.5 199t254 72q86 0 159 -26t129 -72t93 -105t52 -127l-130 -18q-10 45 -35 85.5t-63.5 72.5t-89.5 50.5t-115 18.5q-110 0 -189.5 -57.5t-122 -157.5t-42.5 -227t42.5 -226.5
t122 -157t189.5 -57.5q64 0 115 18.5t89.5 51t63.5 74t36 86.5l131 -18q-14 -67 -51.5 -126.5t-94.5 -106t-130 -73t-159 -26.5z" />
    <glyph glyph-name="sterling" unicode="&#xa3;" horiz-adv-x="1197" 
d="M97 80v44q89 0 134 55.5t40 168.5l-29 705q-5 133 48 236t153 161.5t234 58.5q119 0 210.5 -51t146 -140.5t61.5 -208.5l-130 -9q-7 130 -84 207.5t-204 77.5q-98 0 -167.5 -41.5t-105 -115.5t-31.5 -171l29 -705q3 -65 -13.5 -111.5t-47 -77.5t-70.5 -49.5t-84.5 -26
t-89.5 -7.5zM94 0v124h765q59 0 84.5 25.5t25.5 84.5v57h127v-47q0 -122 -58.5 -183t-180.5 -61h-763zM94 684v114h761v-114h-761z" />
    <glyph glyph-name="currency" unicode="&#xa4;" horiz-adv-x="1405" 
d="M699 -20q-123 0 -230 47.5t-187.5 133t-126 200t-45.5 247.5t45.5 247t126 199t187.5 132.5t230 47.5t230.5 -47.5t188.5 -132.5t126.5 -199t45.5 -247t-45.5 -247.5t-126.5 -200t-188.5 -133t-230.5 -47.5zM699 103q130 0 235.5 68t167 182.5t62.5 254.5
q0 141 -62 255.5t-167.5 181.5t-235.5 67q-129 0 -235 -67t-168.5 -181.5t-62.5 -255.5q0 -140 62.5 -254.5t168.5 -182.5t235 -68zM1119 952l-87 93l191 197l90 -93zM1223 -10l-191 198l87 92l194 -196zM180 -10l-89 94l192 196l91 -92zM283 952l-192 197l89 93l194 -197z
" />
    <glyph glyph-name="yen" unicode="&#xa5;" horiz-adv-x="1058" 
d="M164 1490l406 -834l-111 -41l-448 875h153zM488 656l407 834h154l-449 -875zM599 752v-752h-138v752h138zM932 717v-104h-805v104h805zM932 466v-105h-805v105h805z" />
    <glyph glyph-name="brokenbar" unicode="&#xa6;" horiz-adv-x="445" 
d="M160 397h125v-677h-125v677zM285 1490v-674h-125v674h125z" />
    <glyph glyph-name="section" unicode="&#xa7;" horiz-adv-x="1093" 
d="M534 -302q-113 0 -196.5 39t-133 113t-60.5 178l127 14q13 -108 80.5 -167t183.5 -59q106 0 173.5 49.5t67.5 142.5q0 52 -22.5 89t-64.5 69t-100 66l-230 135q-83 50 -140 102t-86.5 109.5t-29.5 120.5q0 67 30.5 123t82.5 90.5t116 36.5l1 2q-62 54 -99 109.5
t-37 139.5q0 139 97.5 224t257.5 85q161 0 252 -87t109 -239l-123 -14q-14 104 -71 163t-166 59q-105 0 -165.5 -54t-60.5 -140q0 -54 24 -93.5t65 -70t91 -60.5l229 -136q84 -50 140.5 -102t84.5 -107.5t28 -118.5q0 -68 -31 -124.5t-83 -90t-114 -34.5l-1 -3
q51 -37 84 -76t49 -82.5t16 -94.5q0 -93 -48 -162t-132.5 -106.5t-194.5 -37.5zM637 343q47 -28 100.5 -14.5t91.5 59.5t38 115q0 47 -20 84.5t-62.5 74t-109.5 75.5l-223 129q-48 29 -101 15.5t-89.5 -59.5t-36.5 -115q0 -45 21 -84t64.5 -76.5t112.5 -79.5z" />
    <glyph glyph-name="dieresis" unicode="&#xa8;" horiz-adv-x="1148" 
d="M782 1303q-39 0 -66.5 27.5t-27.5 66.5t27.5 66t66.5 27q38 0 65.5 -27t27.5 -66t-27.5 -66.5t-65.5 -27.5zM367 1303q-38 0 -66 27.5t-28 66.5t28 66t66 27q39 0 66.5 -27t27.5 -66t-27.5 -66.5t-66.5 -27.5z" />
    <glyph glyph-name="copyright" unicode="&#xa9;" horiz-adv-x="1825" 
d="M493 744q0 120 58 218t156.5 156t217.5 58q98 0 180 -40t138 -109t74 -158h-135q-22 79 -93.5 129.5t-163.5 50.5q-83 0 -152.5 -41t-111 -110t-41.5 -154q0 -83 41.5 -152t111 -110t152.5 -41q92 0 158 50t89 130h134q-17 -89 -70.5 -159t-133 -110t-177.5 -40
q-119 0 -217.5 58.5t-156.5 156.5t-58 217zM912 -23q-159 0 -298 59.5t-245 165.5t-165.5 245t-59.5 298t59.5 298t165.5 245t245 165.5t298 59.5t298 -59.5t245 -165.5t165.5 -245t59.5 -298t-59.5 -298t-165.5 -245t-245 -165.5t-298 -59.5zM912 106q133 0 248.5 49.5
t203.5 137.5t137.5 204t49.5 248t-49.5 248t-137.5 204t-203.5 137.5t-248.5 49.5q-132 0 -247.5 -49.5t-204 -137.5t-138 -204t-49.5 -248t49.5 -248t138 -204t204 -137.5t247.5 -49.5z" />
    <glyph glyph-name="ordfeminine" unicode="&#xaa;" horiz-adv-x="873" 
d="M358 641q-81 0 -147.5 28t-105.5 84t-39 138q0 87 43.5 136.5t120.5 74.5t176 37q76 9 126.5 16t75.5 22t25 47v14q0 75 -54 121.5t-147 46.5q-91 0 -150 -42.5t-71 -104.5l-122 14q14 74 62 127.5t120 82t161 28.5q66 0 125 -17t104.5 -52t71.5 -87t26 -121v-578h-124
v134h-5q-29 -60 -96.5 -104.5t-175.5 -44.5zM381 744q78 0 135 31t87.5 84.5t30.5 120.5v113q-15 -13 -50 -22.5t-80 -16t-92 -13.5q-105 -13 -163 -47.5t-58 -104.5q0 -69 54 -107t136 -38z" />
    <glyph glyph-name="guillemotleft" unicode="&#xab;" horiz-adv-x="1035" 
d="M467 144l-389 460l389 460h153l-384 -460l384 -460h-153zM818 144l-389 460l389 460h153l-384 -460l384 -460h-153z" />
    <glyph glyph-name="logicalnot" unicode="&#xac;" horiz-adv-x="1289" 
d="M893 315v291h-674v120h799v-411h-125z" />
    <glyph glyph-name="registered" unicode="&#xae;" horiz-adv-x="1324" 
d="M662 346q-120 0 -225.5 45.5t-185.5 125.5t-125.5 185.5t-45.5 225.5t45.5 225.5t125.5 185.5t185.5 125.5t225.5 45.5q121 0 226.5 -45.5t185.5 -125.5t125 -185.5t45 -225.5t-45 -225.5t-125 -185.5t-185.5 -125.5t-226.5 -45.5zM662 455q131 0 238.5 64t171 171
t63.5 238t-63.5 238t-171 171t-238.5 64q-130 0 -237.5 -64t-171 -171t-63.5 -238t63.5 -238t171 -171t237.5 -64zM797 663l-129 246h108l132 -246h-111zM460 663v536h242q53 0 95.5 -20.5t66.5 -58.5t24 -92t-25 -93t-68 -60.5t-98 -21.5h-178v82h166q44 0 71.5 25t27.5 68
q0 44 -27.5 66t-70.5 22h-126v-453h-100z" />
    <glyph glyph-name="macron" unicode="&#xaf;" horiz-adv-x="859" 
d="M691 1439v-109h-523v109h523z" />
    <glyph glyph-name="degree" unicode="&#xb0;" horiz-adv-x="883" 
d="M443 855q-90 0 -164 43.5t-118 117.5t-44 163q0 90 44 164t118 118t164 44q89 0 162.5 -44t117.5 -118t44 -164q0 -89 -44 -163t-117.5 -117.5t-162.5 -43.5zM443 970q58 0 105.5 28t76 75.5t28.5 105.5q0 59 -28.5 107t-76 76.5t-105.5 28.5t-106.5 -28.5t-76.5 -76.5
t-28 -107q0 -58 28 -105.5t76.5 -75.5t106.5 -28z" />
    <glyph glyph-name="plusminus" unicode="&#xb1;" horiz-adv-x="1289" 
d="M190 93v125h909v-125h-909zM190 671v125h909v-125h-909zM582 350v769h125v-769h-125z" />
    <glyph glyph-name="two.sups" unicode="&#xb2;" horiz-adv-x="829" 
d="M103 890v96l326 265q52 44 86.5 76.5t51.5 62.5t17 66q0 61 -49.5 98.5t-127.5 37.5q-81 0 -130.5 -41t-49.5 -110h-124q0 115 84.5 186t220.5 71q133 0 217.5 -65t84.5 -170q0 -37 -11 -70.5t-36 -68t-66.5 -73t-102.5 -85.5l-209 -165v-4h445v-107h-627z" />
    <glyph glyph-name="three.sups" unicode="&#xb3;" horiz-adv-x="838" 
d="M422 878q-97 0 -170.5 32t-115 87t-42.5 125h131q0 -62 55.5 -99.5t141.5 -37.5q87 0 142 37.5t55 94.5q0 59 -60 95t-158 36h-60v98h60q85 0 139.5 33.5t54.5 89.5q0 55 -48 90t-125 35q-79 0 -130 -35.5t-52 -94.5h-126q1 68 40.5 121t109 83t158.5 30
q88 0 155.5 -28.5t106 -78t38.5 -112.5q0 -67 -48.5 -113.5t-128.5 -61.5v-3q98 -13 152.5 -65.5t54.5 -125.5q0 -67 -42 -119t-116.5 -82.5t-171.5 -30.5z" />
    <glyph glyph-name="acute" unicode="&#xb4;" horiz-adv-x="547" 
d="M130 1227l138 293h150l-177 -293h-111z" />
    <glyph glyph-name="uni00B5" unicode="&#xb5;" horiz-adv-x="1156" 
d="M148 -418v1502h131v-669q0 -102 39 -172t106.5 -105t152.5 -35t151 35.5t103.5 105t37.5 171.5v669h132v-851q0 -65 27 -91t92 -26h27v-116h-29q-124 0 -185 58.5t-61 173.5v124h40q0 -109 -33 -181t-84.5 -114t-110 -60t-108.5 -18q-51 0 -109 18t-109.5 60t-84 114
t-32.5 181h38v-774h-131z" />
    <glyph glyph-name="paragraph" unicode="&#xb6;" horiz-adv-x="1141" 
d="M959 1366h-296v-814h-84q-159 0 -269 61t-166.5 167.5t-56.5 241.5q0 134 56.5 239.5t166.5 167t269 61.5h380v-124zM830 0v1490h138v-1490h-138z" />
    <glyph glyph-name="periodcentered" unicode="&#xb7;" horiz-adv-x="498" 
d="M249 600q-43 0 -73.5 30.5t-30.5 73.5q0 44 30.5 74.5t73.5 30.5q44 0 74 -30.5t30 -74.5q0 -43 -30 -73.5t-74 -30.5z" />
    <glyph glyph-name="cedilla" unicode="&#xb8;" horiz-adv-x="457" 
d="M124 -418v85h111q56 0 83.5 20t27.5 61q0 40 -27.5 60.5t-85.5 20.5h-74l33 209h77v-38l-8 -92q90 -3 139 -44.5t49 -115.5q0 -83 -56 -124.5t-157 -41.5h-112z" />
    <glyph glyph-name="one.sups" unicode="&#xb9;" horiz-adv-x="550" 
d="M427 1687v-797h-129v678h-4l-213 -123v119l210 123h136z" />
    <glyph glyph-name="ordmasculine" unicode="&#xba;" horiz-adv-x="929" 
d="M465 639q-118 0 -207.5 55.5t-139.5 154t-50 226.5q0 129 50 227.5t139.5 154t207.5 55.5t207 -55.5t139 -154t50 -227.5q0 -128 -50 -226.5t-139 -154t-207 -55.5zM465 749q84 0 143.5 42t92 116t32.5 168q0 95 -32 169t-92.5 116.5t-143.5 42.5t-143.5 -42.5
t-93 -116.5t-32.5 -169t32.5 -168.5t93 -115.5t143.5 -42z" />
    <glyph glyph-name="guillemotright" unicode="&#xbb;" horiz-adv-x="1035" 
d="M64 144l384 460l-384 460h153l389 -460l-389 -460h-153zM415 144l384 460l-384 460h153l389 -460l-389 -460h-153z" />
    <glyph glyph-name="onequarter" unicode="&#xbc;" horiz-adv-x="1479" 
d="M385 1490v-797h-120v686h-4l-191 -131v118l183 124h132zM115 0l1023 1490h133l-1023 -1490h-133zM782 165v96l361 536h78v-136h-48l-266 -391v-5h494v-100h-619zM1176 0v194l1 44v559h116v-797h-117z" />
    <glyph glyph-name="onehalf" unicode="&#xbd;" horiz-adv-x="1576" 
d="M385 1490v-797h-120v686h-4l-191 -131v118l183 124h132zM115 0l1023 1490h133l-1023 -1490h-133zM939 0v89l283 274q66 64 100 109.5t34 100.5q0 61 -42.5 97.5t-107.5 36.5q-69 0 -110.5 -40.5t-41.5 -108.5h-115q0 113 75 181.5t193 68.5q117 0 191 -65t74 -165
q0 -46 -18 -88.5t-58.5 -92.5t-110.5 -119l-177 -171v-4h378v-103h-547z" />
    <glyph glyph-name="threequarters" unicode="&#xbe;" horiz-adv-x="1656" 
d="M379 682q-86 0 -150.5 30t-101 82t-38.5 118h121q3 -58 50.5 -93.5t117.5 -35.5q74 0 121.5 37.5t47.5 95.5q0 61 -49.5 99t-134.5 38h-62v96h62q72 -1 116.5 34.5t44.5 92.5t-39.5 91.5t-104.5 34.5q-64 0 -109.5 -34t-46.5 -91h-117q1 66 37 116t97.5 79t139.5 29
t136.5 -29t91.5 -78t33 -109q0 -68 -41 -115t-108 -62v-5q85 -12 131 -65t46 -127q0 -98 -82 -163.5t-209 -65.5zM292 0l1023 1490h133l-1023 -1490h-133zM959 165v96l361 536h78v-136h-48l-266 -391v-5h494v-100h-619zM1353 0v194l1 44v559h116v-797h-117z" />
    <glyph glyph-name="questiondown" unicode="&#xbf;" horiz-adv-x="1023" 
d="M618 671v-87q0 -107 -27.5 -170t-77.5 -104.5t-117 -87.5q-84 -58 -124.5 -124t-40.5 -146q0 -78 36 -136t100.5 -90t147.5 -32q85 0 151.5 35.5t105 102t39.5 160.5h138q-2 -126 -58 -220.5t-153.5 -146.5t-222.5 -52q-123 0 -217.5 49t-147.5 135t-53 197
q0 110 52 196.5t156 156.5q64 43 103.5 79.5t57.5 83t18 120.5v81h134zM550 1097q44 0 74.5 -30t30.5 -74q0 -43 -30.5 -73.5t-74.5 -30.5q-42 0 -72.5 30.5t-30.5 73.5q0 44 30.5 74t72.5 30z" />
    <glyph glyph-name="Agrave" unicode="&#xc0;" horiz-adv-x="1334" 
d="M36 0l550 1490h162l550 -1490h-147l-354 979q-30 84 -65.5 189.5t-83.5 257.5h36q-47 -153 -83 -259t-65 -188l-354 -979h-146zM295 442v124h743v-124h-743zM616 1633l-178 293h151l138 -293h-111z" />
    <glyph glyph-name="Aacute" unicode="&#xc1;" horiz-adv-x="1334" 
d="M36 0l550 1490h162l550 -1490h-147l-354 979q-30 84 -65.5 189.5t-83.5 257.5h36q-47 -153 -83 -259t-65 -188l-354 -979h-146zM295 442v124h743v-124h-743zM608 1633l138 293h150l-177 -293h-111z" />
    <glyph glyph-name="Acircumflex" unicode="&#xc2;" horiz-adv-x="1334" 
d="M36 0l550 1490h162l550 -1490h-147l-354 979q-30 84 -65.5 189.5t-83.5 257.5h36q-47 -153 -83 -259t-65 -188l-354 -979h-146zM295 442v124h743v-124h-743zM499 1656h-134v4l241 272h122l242 -272v-4h-135l-168 194z" />
    <glyph glyph-name="Atilde" unicode="&#xc3;" horiz-adv-x="1334" 
d="M36 0l550 1490h162l550 -1490h-147l-354 979q-30 84 -65.5 189.5t-83.5 257.5h36q-47 -153 -83 -259t-65 -188l-354 -979h-146zM295 442v124h743v-124h-743zM798 1700q-38 0 -72 14t-64 32.5t-56.5 32.5t-50.5 14q-34 0 -52.5 -26.5t-21.5 -62.5h-98q4 82 44 136t114 54
q41 0 74 -14.5t61 -33.5t54 -33.5t53 -14.5q31 0 48.5 21t25.5 68h96q-6 -85 -46.5 -136t-108.5 -51z" />
    <glyph glyph-name="Adieresis" unicode="&#xc4;" horiz-adv-x="1334" 
d="M36 0l550 1490h162l550 -1490h-147l-354 979q-30 84 -65.5 189.5t-83.5 257.5h36q-47 -153 -83 -259t-65 -188l-354 -979h-146zM295 442v124h743v-124h-743zM876 1709q-39 0 -66.5 27.5t-27.5 66.5t27.5 66t66.5 27q38 0 65.5 -27t27.5 -66t-27.5 -66.5t-65.5 -27.5z
M461 1709q-38 0 -66 27.5t-28 66.5t28 66t66 27q39 0 66.5 -27t27.5 -66t-27.5 -66.5t-66.5 -27.5z" />
    <glyph glyph-name="Aring" unicode="&#xc5;" horiz-adv-x="1334" 
d="M36 0l550 1490h162l550 -1490h-147l-354 979q-30 84 -65.5 189.5t-83.5 257.5h36q-47 -153 -83 -259t-65 -188l-354 -979h-146zM295 442v124h743v-124h-743zM668 1590q-61 0 -111 29t-80 77.5t-30 106.5q0 59 30 107t80 77t111 29t111 -29t80 -77t30 -107
q0 -58 -30 -106.5t-80 -77.5t-111 -29zM668 1688q49 0 82.5 33.5t33.5 81.5t-33.5 82t-82.5 34q-48 0 -82.5 -34t-34.5 -82t34 -81.5t83 -33.5z" />
    <glyph glyph-name="AE" unicode="&#xc6;" horiz-adv-x="1969" 
d="M36 0l716 1490h1105v-124h-753v-556h703v-124h-703v-562h763v-124h-899v1379h-128l-654 -1379h-150zM358 457v122h678v-122h-678z" />
    <glyph glyph-name="Ccedilla" unicode="&#xc7;" horiz-adv-x="1461" 
d="M764 -21q-194 0 -342 96t-231.5 268t-83.5 401q0 230 83 402.5t231.5 268.5t342.5 96q120 0 221.5 -38t179 -105.5t127 -157t67.5 -193.5h-140q-16 79 -55 145t-98 115.5t-135.5 76.5t-166.5 27q-149 0 -266.5 -76t-185.5 -218.5t-68 -342.5t68 -342t185.5 -217.5
t266.5 -75.5q90 0 166 27.5t135 76.5t98.5 115t56.5 144h139q-17 -103 -67 -192.5t-127.5 -157t-178.5 -105.5t-222 -38zM651 -421v85h111q56 0 83.5 20t27.5 61q0 40 -27.5 60.5t-85.5 20.5h-74l33 209h77v-38l-8 -92q90 -3 139 -44.5t49 -115.5q0 -83 -56 -124.5
t-157 -41.5h-112z" />
    <glyph glyph-name="Egrave" unicode="&#xc8;" horiz-adv-x="1194" 
d="M174 0v1490h912v-124h-774v-547h718v-124h-718v-571h780v-124h-918zM581 1633l-178 293h151l138 -293h-111z" />
    <glyph glyph-name="Eacute" unicode="&#xc9;" horiz-adv-x="1194" 
d="M174 0v1490h912v-124h-774v-547h718v-124h-718v-571h780v-124h-918zM573 1633l138 293h150l-177 -293h-111z" />
    <glyph glyph-name="Ecircumflex" unicode="&#xca;" horiz-adv-x="1194" 
d="M174 0v1490h912v-124h-774v-547h718v-124h-718v-571h780v-124h-918zM464 1656h-134v4l241 272h122l242 -272v-4h-135l-168 194z" />
    <glyph glyph-name="Edieresis" unicode="&#xcb;" horiz-adv-x="1194" 
d="M174 0v1490h912v-124h-774v-547h718v-124h-718v-571h780v-124h-918zM841 1709q-39 0 -66.5 27.5t-27.5 66.5t27.5 66t66.5 27q38 0 65.5 -27t27.5 -66t-27.5 -66.5t-65.5 -27.5zM426 1709q-38 0 -66 27.5t-28 66.5t28 66t66 27q39 0 66.5 -27t27.5 -66t-27.5 -66.5
t-66.5 -27.5z" />
    <glyph glyph-name="Igrave" unicode="&#xcc;" horiz-adv-x="486" 
d="M312 1490v-1490h-138v1490h138zM191 1633l-178 293h151l138 -293h-111z" />
    <glyph glyph-name="Iacute" unicode="&#xcd;" horiz-adv-x="486" 
d="M312 1490v-1490h-138v1490h138zM183 1633l138 293h150l-177 -293h-111z" />
    <glyph glyph-name="Icircumflex" unicode="&#xce;" horiz-adv-x="486" 
d="M312 1490v-1490h-138v1490h138zM74 1656h-134v4l241 272h122l242 -272v-4h-135l-168 194z" />
    <glyph glyph-name="Idieresis" unicode="&#xcf;" horiz-adv-x="486" 
d="M312 1490v-1490h-138v1490h138zM451 1709q-39 0 -66.5 27.5t-27.5 66.5t27.5 66t66.5 27q38 0 65.5 -27t27.5 -66t-27.5 -66.5t-65.5 -27.5zM36 1709q-38 0 -66 27.5t-28 66.5t28 66t66 27q39 0 66.5 -27t27.5 -66t-27.5 -66.5t-66.5 -27.5z" />
    <glyph glyph-name="Eth" unicode="&#xd0;" horiz-adv-x="1461" 
d="M649 0h-361v124h353q191 0 319.5 75t193 215t64.5 335q0 192 -63 330t-185.5 212.5t-303.5 74.5h-384v124h392q214 0 366 -89t233.5 -255t81.5 -397q0 -235 -83 -402.5t-241 -257t-382 -89.5zM349 1490v-1490h-138v1490h138zM26 685v120h694v-120h-694z" />
    <glyph glyph-name="Ntilde" unicode="&#xd1;" horiz-adv-x="1499" 
d="M174 0v1490h157l682 -1019q27 -39 60.5 -92.5t70.5 -114.5t73 -124l-20 -14q-4 63 -6 129.5t-3 127t-1 103.5v1004h138v-1490h-159l-636 947q-32 48 -69 106.5t-82 131.5t-101 165l23 17q4 -93 6.5 -172t3.5 -141.5t1 -105.5v-948h-138zM880 1700q-38 0 -72 14t-64 32.5
t-56.5 32.5t-50.5 14q-34 0 -52.5 -26.5t-21.5 -62.5h-98q4 82 44 136t114 54q41 0 74 -14.5t61 -33.5t54 -33.5t53 -14.5q31 0 48.5 21t25.5 68h96q-6 -85 -46.5 -136t-108.5 -51z" />
    <glyph glyph-name="Ograve" unicode="&#xd2;" horiz-adv-x="1518" 
d="M760 -21q-191 0 -338.5 96t-231 268.5t-83.5 400.5q0 230 83.5 402t231 268.5t338.5 96.5t338 -96.5t230 -268.5t83 -402q0 -228 -83 -400.5t-230 -268.5t-338 -96zM760 109q146 0 262.5 75.5t184.5 218t68 341.5q0 200 -68 342.5t-184.5 218.5t-262.5 76t-263 -75.5
t-185 -218.5t-68 -343q0 -198 67.5 -340.5t184.5 -218.5t264 -76zM708 1633l-178 293h151l138 -293h-111z" />
    <glyph glyph-name="Oacute" unicode="&#xd3;" horiz-adv-x="1518" 
d="M760 -21q-191 0 -338.5 96t-231 268.5t-83.5 400.5q0 230 83.5 402t231 268.5t338.5 96.5t338 -96.5t230 -268.5t83 -402q0 -228 -83 -400.5t-230 -268.5t-338 -96zM760 109q146 0 262.5 75.5t184.5 218t68 341.5q0 200 -68 342.5t-184.5 218.5t-262.5 76t-263 -75.5
t-185 -218.5t-68 -343q0 -198 67.5 -340.5t184.5 -218.5t264 -76zM700 1633l138 293h150l-177 -293h-111z" />
    <glyph glyph-name="Ocircumflex" unicode="&#xd4;" horiz-adv-x="1518" 
d="M760 -21q-191 0 -338.5 96t-231 268.5t-83.5 400.5q0 230 83.5 402t231 268.5t338.5 96.5t338 -96.5t230 -268.5t83 -402q0 -228 -83 -400.5t-230 -268.5t-338 -96zM760 109q146 0 262.5 75.5t184.5 218t68 341.5q0 200 -68 342.5t-184.5 218.5t-262.5 76t-263 -75.5
t-185 -218.5t-68 -343q0 -198 67.5 -340.5t184.5 -218.5t264 -76zM591 1656h-134v4l241 272h122l242 -272v-4h-135l-168 194z" />
    <glyph glyph-name="Otilde" unicode="&#xd5;" horiz-adv-x="1518" 
d="M760 -21q-191 0 -338.5 96t-231 268.5t-83.5 400.5q0 230 83.5 402t231 268.5t338.5 96.5t338 -96.5t230 -268.5t83 -402q0 -228 -83 -400.5t-230 -268.5t-338 -96zM760 109q146 0 262.5 75.5t184.5 218t68 341.5q0 200 -68 342.5t-184.5 218.5t-262.5 76t-263 -75.5
t-185 -218.5t-68 -343q0 -198 67.5 -340.5t184.5 -218.5t264 -76zM890 1700q-38 0 -72 14t-64 32.5t-56.5 32.5t-50.5 14q-34 0 -52.5 -26.5t-21.5 -62.5h-98q4 82 44 136t114 54q41 0 74 -14.5t61 -33.5t54 -33.5t53 -14.5q31 0 48.5 21t25.5 68h96q-6 -85 -46.5 -136
t-108.5 -51z" />
    <glyph glyph-name="Odieresis" unicode="&#xd6;" horiz-adv-x="1518" 
d="M760 -21q-191 0 -338.5 96t-231 268.5t-83.5 400.5q0 230 83.5 402t231 268.5t338.5 96.5t338 -96.5t230 -268.5t83 -402q0 -228 -83 -400.5t-230 -268.5t-338 -96zM760 109q146 0 262.5 75.5t184.5 218t68 341.5q0 200 -68 342.5t-184.5 218.5t-262.5 76t-263 -75.5
t-185 -218.5t-68 -343q0 -198 67.5 -340.5t184.5 -218.5t264 -76zM968 1709q-39 0 -66.5 27.5t-27.5 66.5t27.5 66t66.5 27q38 0 65.5 -27t27.5 -66t-27.5 -66.5t-65.5 -27.5zM553 1709q-38 0 -66 27.5t-28 66.5t28 66t66 27q39 0 66.5 -27t27.5 -66t-27.5 -66.5
t-66.5 -27.5z" />
    <glyph glyph-name="multiply" unicode="&#xd7;" horiz-adv-x="1289" 
d="M1013 127l-822 822l87 87l821 -822zM278 127l-87 87l822 822l86 -87z" />
    <glyph glyph-name="Oslash" unicode="&#xd8;" horiz-adv-x="1518" 
d="M760 -21q-191 0 -338.5 96t-231 268.5t-83.5 400.5q0 230 83.5 402t231 268.5t338.5 96.5t338 -96.5t230 -268.5t83 -402q0 -228 -83 -400.5t-230 -268.5t-338 -96zM760 109q146 0 262.5 75.5t184.5 218t68 341.5q0 200 -68 342.5t-184.5 218.5t-262.5 76t-263 -75.5
t-185 -218.5t-68 -343q0 -198 67.5 -340.5t184.5 -218.5t264 -76zM267 -38l-100 76l1085 1490l100 -76z" />
    <glyph glyph-name="Ugrave" unicode="&#xd9;" horiz-adv-x="1453" 
d="M727 -22q-168 0 -295.5 68.5t-199 188.5t-71.5 272v983h138v-974q0 -118 53 -210t149.5 -145.5t225.5 -53.5t225 53.5t149 145.5t53 210v974h139v-983q0 -153 -71.5 -272.5t-199 -188t-295.5 -68.5zM675 1633l-178 293h151l138 -293h-111z" />
    <glyph glyph-name="Uacute" unicode="&#xda;" horiz-adv-x="1453" 
d="M727 -22q-168 0 -295.5 68.5t-199 188.5t-71.5 272v983h138v-974q0 -118 53 -210t149.5 -145.5t225.5 -53.5t225 53.5t149 145.5t53 210v974h139v-983q0 -153 -71.5 -272.5t-199 -188t-295.5 -68.5zM668 1633l138 293h150l-177 -293h-111z" />
    <glyph glyph-name="Ucircumflex" unicode="&#xdb;" horiz-adv-x="1453" 
d="M727 -22q-168 0 -295.5 68.5t-199 188.5t-71.5 272v983h138v-974q0 -118 53 -210t149.5 -145.5t225.5 -53.5t225 53.5t149 145.5t53 210v974h139v-983q0 -153 -71.5 -272.5t-199 -188t-295.5 -68.5zM558 1656h-134v4l241 272h122l242 -272v-4h-135l-168 194z" />
    <glyph glyph-name="Udieresis" unicode="&#xdc;" horiz-adv-x="1453" 
d="M727 -22q-168 0 -295.5 68.5t-199 188.5t-71.5 272v983h138v-974q0 -118 53 -210t149.5 -145.5t225.5 -53.5t225 53.5t149 145.5t53 210v974h139v-983q0 -153 -71.5 -272.5t-199 -188t-295.5 -68.5zM935 1709q-39 0 -66.5 27.5t-27.5 66.5t27.5 66t66.5 27q38 0 65.5 -27
t27.5 -66t-27.5 -66.5t-65.5 -27.5zM520 1709q-38 0 -66 27.5t-28 66.5t28 66t66 27q39 0 66.5 -27t27.5 -66t-27.5 -66.5t-66.5 -27.5z" />
    <glyph glyph-name="Yacute" unicode="&#xdd;" horiz-adv-x="1320" 
d="M591 0v643l-555 847h161l319 -487q47 -72 89 -142t85 -151h-57q42 82 84.5 152t88.5 141l317 487h160l-554 -847v-643h-138zM600 1633l138 293h150l-177 -293h-111z" />
    <glyph glyph-name="Thorn" unicode="&#xde;" horiz-adv-x="1220" 
d="M158 1490h140v-1490h-140v1490zM226 1166h382q150 0 255.5 -54.5t161.5 -148.5t56 -212q0 -119 -55.5 -212.5t-161 -147t-256.5 -53.5h-382v123h382q109 0 185.5 34t116 98.5t39.5 155.5t-40 156.5t-116 101t-185 35.5h-382v124z" />
    <glyph glyph-name="germandbls" unicode="&#xdf;" horiz-adv-x="1181" 
d="M174 0v1122q0 121 51.5 207.5t143 133.5t213.5 47q120 0 213 -45.5t145.5 -129.5t52.5 -201q0 -131 -66.5 -222t-183.5 -128v-11q149 -17 240.5 -117t91.5 -254q0 -117 -54 -208t-152 -142.5t-228 -51.5h-143v124h144q136 0 218 78t82 201q0 131 -93 213t-251 82h-94v125
h69q89 0 153.5 39.5t99.5 106t35 147.5q0 118 -73.5 194t-202.5 76q-124 0 -201 -72t-77 -193v-1121h-133z" />
    <glyph glyph-name="agrave" unicode="&#xe0;" horiz-adv-x="1079" 
d="M452 -20q-101 0 -184 36.5t-132.5 109t-49.5 177.5q0 83 31.5 138t88.5 90t135.5 55t172.5 32q96 13 159.5 22t95 28t31.5 61v20q0 70 -32 122.5t-91.5 82t-141.5 29.5q-80 0 -142 -27t-100.5 -72.5t-49.5 -100.5l-130 20q19 93 78.5 159.5t148.5 102t193 35.5
q79 0 150.5 -21.5t127 -65.5t88 -111t32.5 -158v-744h-130v174h-6q-24 -49 -69 -94t-113 -72.5t-161 -27.5zM470 99q104 0 177.5 42t113 115t39.5 164v153q-14 -13 -44 -23.5t-70.5 -18.5t-86 -15t-88.5 -12q-91 -12 -156.5 -36t-100.5 -65t-35 -106q0 -63 32.5 -107.5
t89 -67.5t129.5 -23zM476 1227l-178 293h151l138 -293h-111z" />
    <glyph glyph-name="aacute" unicode="&#xe1;" horiz-adv-x="1079" 
d="M452 -20q-101 0 -184 36.5t-132.5 109t-49.5 177.5q0 83 31.5 138t88.5 90t135.5 55t172.5 32q96 13 159.5 22t95 28t31.5 61v20q0 70 -32 122.5t-91.5 82t-141.5 29.5q-80 0 -142 -27t-100.5 -72.5t-49.5 -100.5l-130 20q19 93 78.5 159.5t148.5 102t193 35.5
q79 0 150.5 -21.5t127 -65.5t88 -111t32.5 -158v-744h-130v174h-6q-24 -49 -69 -94t-113 -72.5t-161 -27.5zM470 99q104 0 177.5 42t113 115t39.5 164v153q-14 -13 -44 -23.5t-70.5 -18.5t-86 -15t-88.5 -12q-91 -12 -156.5 -36t-100.5 -65t-35 -106q0 -63 32.5 -107.5
t89 -67.5t129.5 -23zM468 1227l138 293h150l-177 -293h-111z" />
    <glyph glyph-name="acircumflex" unicode="&#xe2;" horiz-adv-x="1079" 
d="M452 -20q-101 0 -184 36.5t-132.5 109t-49.5 177.5q0 83 31.5 138t88.5 90t135.5 55t172.5 32q96 13 159.5 22t95 28t31.5 61v20q0 70 -32 122.5t-91.5 82t-141.5 29.5q-80 0 -142 -27t-100.5 -72.5t-49.5 -100.5l-130 20q19 93 78.5 159.5t148.5 102t193 35.5
q79 0 150.5 -21.5t127 -65.5t88 -111t32.5 -158v-744h-130v174h-6q-24 -49 -69 -94t-113 -72.5t-161 -27.5zM470 99q104 0 177.5 42t113 115t39.5 164v153q-14 -13 -44 -23.5t-70.5 -18.5t-86 -15t-88.5 -12q-91 -12 -156.5 -36t-100.5 -65t-35 -106q0 -63 32.5 -107.5
t89 -67.5t129.5 -23zM359 1250h-134v4l241 272h122l242 -272v-4h-135l-168 194z" />
    <glyph glyph-name="atilde" unicode="&#xe3;" horiz-adv-x="1079" 
d="M452 -20q-101 0 -184 36.5t-132.5 109t-49.5 177.5q0 83 31.5 138t88.5 90t135.5 55t172.5 32q96 13 159.5 22t95 28t31.5 61v20q0 70 -32 122.5t-91.5 82t-141.5 29.5q-80 0 -142 -27t-100.5 -72.5t-49.5 -100.5l-130 20q19 93 78.5 159.5t148.5 102t193 35.5
q79 0 150.5 -21.5t127 -65.5t88 -111t32.5 -158v-744h-130v174h-6q-24 -49 -69 -94t-113 -72.5t-161 -27.5zM470 99q104 0 177.5 42t113 115t39.5 164v153q-14 -13 -44 -23.5t-70.5 -18.5t-86 -15t-88.5 -12q-91 -12 -156.5 -36t-100.5 -65t-35 -106q0 -63 32.5 -107.5
t89 -67.5t129.5 -23zM658 1294q-38 0 -72 14t-64 32.5t-56.5 32.5t-50.5 14q-34 0 -52.5 -26.5t-21.5 -62.5h-98q4 82 44 136t114 54q41 0 74 -14.5t61 -33.5t54 -33.5t53 -14.5q31 0 48.5 21t25.5 68h96q-6 -85 -46.5 -136t-108.5 -51z" />
    <glyph glyph-name="adieresis" unicode="&#xe4;" horiz-adv-x="1079" 
d="M452 -20q-101 0 -184 36.5t-132.5 109t-49.5 177.5q0 83 31.5 138t88.5 90t135.5 55t172.5 32q96 13 159.5 22t95 28t31.5 61v20q0 70 -32 122.5t-91.5 82t-141.5 29.5q-80 0 -142 -27t-100.5 -72.5t-49.5 -100.5l-130 20q19 93 78.5 159.5t148.5 102t193 35.5
q79 0 150.5 -21.5t127 -65.5t88 -111t32.5 -158v-744h-130v174h-6q-24 -49 -69 -94t-113 -72.5t-161 -27.5zM470 99q104 0 177.5 42t113 115t39.5 164v153q-14 -13 -44 -23.5t-70.5 -18.5t-86 -15t-88.5 -12q-91 -12 -156.5 -36t-100.5 -65t-35 -106q0 -63 32.5 -107.5
t89 -67.5t129.5 -23zM735 1303q-39 0 -66.5 27.5t-27.5 66.5t27.5 66t66.5 27q38 0 65.5 -27t27.5 -66t-27.5 -66.5t-65.5 -27.5zM320 1303q-38 0 -66 27.5t-28 66.5t28 66t66 27q39 0 66.5 -27t27.5 -66t-27.5 -66.5t-66.5 -27.5z" />
    <glyph glyph-name="aring" unicode="&#xe5;" horiz-adv-x="1079" 
d="M452 -20q-101 0 -184 36.5t-132.5 109t-49.5 177.5q0 83 31.5 138t88.5 90t135.5 55t172.5 32q96 13 159.5 22t95 28t31.5 61v20q0 70 -32 122.5t-91.5 82t-141.5 29.5q-80 0 -142 -27t-100.5 -72.5t-49.5 -100.5l-130 20q19 93 78.5 159.5t148.5 102t193 35.5
q79 0 150.5 -21.5t127 -65.5t88 -111t32.5 -158v-744h-130v174h-6q-24 -49 -69 -94t-113 -72.5t-161 -27.5zM470 99q104 0 177.5 42t113 115t39.5 164v153q-14 -13 -44 -23.5t-70.5 -18.5t-86 -15t-88.5 -12q-91 -12 -156.5 -36t-100.5 -65t-35 -106q0 -63 32.5 -107.5
t89 -67.5t129.5 -23zM527 1190q-61 0 -111.5 28.5t-80 77t-29.5 107.5t30 107t80 77t111 29t111 -29t80 -77t30 -107t-30 -107t-80 -77t-111 -29zM527 1287q49 0 83 34t34 82t-34 81.5t-83 33.5q-48 0 -82.5 -33.5t-34.5 -81.5t34.5 -82t82.5 -34z" />
    <glyph glyph-name="ae" unicode="&#xe6;" horiz-adv-x="1824" 
d="M458 -19q-108 0 -192 38t-132 110.5t-48 173.5q0 84 36 143.5t101 98t151.5 57t186.5 18.5h1103l-58 -42q4 118 -38 209.5t-119.5 143.5t-182.5 52q-104 0 -183 -52.5t-123 -144t-44 -207.5v-57q0 -126 44 -221.5t125.5 -149.5t193.5 -54q80 0 142 26.5t105 72.5t62 104
l129 -17q-23 -88 -84 -157t-151.5 -109t-202.5 -40q-123 0 -219 48.5t-158.5 135t-84.5 199.5l9 373q28 110 89.5 193t151 129.5t199.5 46.5q101 0 187 -37t150.5 -108t100.5 -172.5t36 -231.5v-48h-1179q-106 0 -182.5 -22.5t-118 -68.5t-41.5 -114q0 -98 69 -149.5
t179 -51.5q105 0 178 42t111 115t38 164v329q0 70 -31.5 122.5t-90 82t-140.5 29.5q-80 0 -141.5 -27t-99 -72.5t-48.5 -100.5l-130 20q19 93 78 159.5t147 102t192 35.5q102 0 183 -35.5t131.5 -105.5t59.5 -172l-19 -491l-13 -1q-13 -77 -50 -135.5t-92.5 -98.5t-125 -60
t-146.5 -20z" />
    <glyph glyph-name="ccedilla" unicode="&#xe7;" horiz-adv-x="1094" 
d="M576 -21q-144 0 -254 71.5t-171.5 198t-61.5 290.5q0 166 61.5 292.5t171.5 198.5t254 72q86 0 159 -26t129 -71.5t93 -105t52 -126.5l-130 -18q-10 44 -35 85t-63.5 73t-89.5 50.5t-115 18.5q-110 0 -189.5 -57.5t-122 -157.5t-42.5 -228q0 -127 42.5 -226.5t122 -156.5
t189.5 -57q64 0 115 18.5t89.5 50.5t63.5 73.5t36 87.5l131 -18q-14 -67 -51.5 -127t-94.5 -106t-130 -72.5t-159 -26.5zM471 -418v85h111q56 0 83.5 20t27.5 61q0 40 -27.5 60.5t-85.5 20.5h-74l33 209h77v-38l-8 -92q90 -3 139 -44.5t49 -115.5q0 -83 -56 -124.5
t-157 -41.5h-112z" />
    <glyph glyph-name="egrave" unicode="&#xe8;" horiz-adv-x="1128" 
d="M584 -23q-153 0 -264 72.5t-171 199t-60 289.5q0 164 61 291t169.5 200t250.5 73q100 0 186.5 -37t151 -108t100.5 -172.5t36 -231.5v-48h-878v115h805l-58 -40q0 118 -42.5 209t-119.5 142.5t-181 51.5q-105 0 -183.5 -52.5t-122.5 -144t-44 -207.5v-57
q0 -126 44.5 -222t126 -149.5t193.5 -53.5q79 0 141.5 26.5t105 72.5t62.5 104l129 -18q-24 -87 -85 -156t-151 -109t-202 -40zM516 1227l-178 293h151l138 -293h-111z" />
    <glyph glyph-name="eacute" unicode="&#xe9;" horiz-adv-x="1128" 
d="M584 -23q-153 0 -264 72.5t-171 199t-60 289.5q0 164 61 291t169.5 200t250.5 73q100 0 186.5 -37t151 -108t100.5 -172.5t36 -231.5v-48h-878v115h805l-58 -40q0 118 -42.5 209t-119.5 142.5t-181 51.5q-105 0 -183.5 -52.5t-122.5 -144t-44 -207.5v-57
q0 -126 44.5 -222t126 -149.5t193.5 -53.5q79 0 141.5 26.5t105 72.5t62.5 104l129 -18q-24 -87 -85 -156t-151 -109t-202 -40zM508 1227l138 293h150l-177 -293h-111z" />
    <glyph glyph-name="ecircumflex" unicode="&#xea;" horiz-adv-x="1128" 
d="M584 -23q-153 0 -264 72.5t-171 199t-60 289.5q0 164 61 291t169.5 200t250.5 73q100 0 186.5 -37t151 -108t100.5 -172.5t36 -231.5v-48h-878v115h805l-58 -40q0 118 -42.5 209t-119.5 142.5t-181 51.5q-105 0 -183.5 -52.5t-122.5 -144t-44 -207.5v-57
q0 -126 44.5 -222t126 -149.5t193.5 -53.5q79 0 141.5 26.5t105 72.5t62.5 104l129 -18q-24 -87 -85 -156t-151 -109t-202 -40zM399 1250h-134v4l241 272h122l242 -272v-4h-135l-168 194z" />
    <glyph glyph-name="edieresis" unicode="&#xeb;" horiz-adv-x="1128" 
d="M584 -23q-153 0 -264 72.5t-171 199t-60 289.5q0 164 61 291t169.5 200t250.5 73q100 0 186.5 -37t151 -108t100.5 -172.5t36 -231.5v-48h-878v115h805l-58 -40q0 118 -42.5 209t-119.5 142.5t-181 51.5q-105 0 -183.5 -52.5t-122.5 -144t-44 -207.5v-57
q0 -126 44.5 -222t126 -149.5t193.5 -53.5q79 0 141.5 26.5t105 72.5t62.5 104l129 -18q-24 -87 -85 -156t-151 -109t-202 -40zM775 1303q-39 0 -66.5 27.5t-27.5 66.5t27.5 66t66.5 27q38 0 65.5 -27t27.5 -66t-27.5 -66.5t-65.5 -27.5zM360 1303q-38 0 -66 27.5t-28 66.5
t28 66t66 27q39 0 66.5 -27t27.5 -66t-27.5 -66.5t-66.5 -27.5z" />
    <glyph glyph-name="igrave" unicode="&#xec;" horiz-adv-x="427" 
d="M148 0v1084h131v-1084h-131zM162 1227l-178 293h151l138 -293h-111z" />
    <glyph glyph-name="iacute" unicode="&#xed;" horiz-adv-x="427" 
d="M148 0v1084h131v-1084h-131zM154 1227l138 293h150l-177 -293h-111z" />
    <glyph glyph-name="icircumflex" unicode="&#xee;" horiz-adv-x="427" 
d="M148 0v1084h131v-1084h-131zM45 1250h-134v4l241 272h122l242 -272v-4h-135l-168 194z" />
    <glyph glyph-name="idieresis" unicode="&#xef;" horiz-adv-x="427" 
d="M148 0v1084h131v-1084h-131zM421 1303q-39 0 -66.5 27.5t-27.5 66.5t27.5 66t66.5 27q38 0 65.5 -27t27.5 -66t-27.5 -66.5t-65.5 -27.5zM6 1303q-38 0 -66 27.5t-28 66.5t28 66t66 27q39 0 66.5 -27t27.5 -66t-27.5 -66.5t-66.5 -27.5z" />
    <glyph glyph-name="eth" unicode="&#xf0;" horiz-adv-x="1150" 
d="M947 1431l-589 -280l-37 88l590 279zM576 -24q-145 1 -254.5 71t-171 191.5t-61.5 276.5q0 156 61 277.5t165 190.5t231 69q84 0 150 -28.5t114.5 -75t79.5 -102.5h13q-37 111 -108.5 226t-184 221.5t-276.5 190.5l56 98q132 -69 252.5 -171.5t215 -235t149 -290.5
t54.5 -338q0 -178 -62 -306t-171 -196t-252 -69zM576 96q111 1 190.5 55.5t122.5 148t43 207.5q0 110 -41 208.5t-120 161.5t-195 63q-110 0 -189.5 -58t-122 -155t-42.5 -212q0 -112 41 -207.5t120 -153t193 -58.5z" />
    <glyph glyph-name="ntilde" unicode="&#xf1;" horiz-adv-x="1148" 
d="M279 666v-666h-131v1084h128v-256h-29q46 142 144 207t224 65q111 0 198 -47t137.5 -138t50.5 -223v-692h-132v683q0 140 -76 218t-206 78q-87 0 -156.5 -36t-110.5 -106t-41 -171zM705 1294q-38 0 -72 14t-64 32.5t-56.5 32.5t-50.5 14q-34 0 -52.5 -26.5t-21.5 -62.5
h-98q4 82 44 136t114 54q41 0 74 -14.5t61 -33.5t54 -33.5t53 -14.5q31 0 48.5 21t25.5 68h96q-6 -85 -46.5 -136t-108.5 -51z" />
    <glyph glyph-name="ograve" unicode="&#xf2;" horiz-adv-x="1152" 
d="M576 -23q-144 0 -254 72t-171.5 198.5t-61.5 291.5t61.5 292t171.5 199t254 72t253.5 -72t171.5 -199t62 -292t-61.5 -291.5t-171.5 -198.5t-254 -72zM576 98q111 0 190 57t121.5 157t42.5 227t-42.5 227t-121.5 158t-190 58q-110 0 -189.5 -58t-122 -158t-42.5 -227
t42.5 -227t121.5 -157t190 -57zM524 1227l-178 293h151l138 -293h-111z" />
    <glyph glyph-name="oacute" unicode="&#xf3;" horiz-adv-x="1152" 
d="M576 -23q-144 0 -254 72t-171.5 198.5t-61.5 291.5t61.5 292t171.5 199t254 72t253.5 -72t171.5 -199t62 -292t-61.5 -291.5t-171.5 -198.5t-254 -72zM576 98q111 0 190 57t121.5 157t42.5 227t-42.5 227t-121.5 158t-190 58q-110 0 -189.5 -58t-122 -158t-42.5 -227
t42.5 -227t121.5 -157t190 -57zM517 1227l138 293h150l-177 -293h-111z" />
    <glyph glyph-name="ocircumflex" unicode="&#xf4;" horiz-adv-x="1152" 
d="M576 -23q-144 0 -254 72t-171.5 198.5t-61.5 291.5t61.5 292t171.5 199t254 72t253.5 -72t171.5 -199t62 -292t-61.5 -291.5t-171.5 -198.5t-254 -72zM576 98q111 0 190 57t121.5 157t42.5 227t-42.5 227t-121.5 158t-190 58q-110 0 -189.5 -58t-122 -158t-42.5 -227
t42.5 -227t121.5 -157t190 -57zM407 1250h-134v4l241 272h122l242 -272v-4h-135l-168 194z" />
    <glyph glyph-name="otilde" unicode="&#xf5;" horiz-adv-x="1152" 
d="M576 -23q-144 0 -254 72t-171.5 198.5t-61.5 291.5t61.5 292t171.5 199t254 72t253.5 -72t171.5 -199t62 -292t-61.5 -291.5t-171.5 -198.5t-254 -72zM576 98q111 0 190 57t121.5 157t42.5 227t-42.5 227t-121.5 158t-190 58q-110 0 -189.5 -58t-122 -158t-42.5 -227
t42.5 -227t121.5 -157t190 -57zM706 1294q-38 0 -72 14t-64 32.5t-56.5 32.5t-50.5 14q-34 0 -52.5 -26.5t-21.5 -62.5h-98q4 82 44 136t114 54q41 0 74 -14.5t61 -33.5t54 -33.5t53 -14.5q31 0 48.5 21t25.5 68h96q-6 -85 -46.5 -136t-108.5 -51z" />
    <glyph glyph-name="odieresis" unicode="&#xf6;" horiz-adv-x="1152" 
d="M576 -23q-144 0 -254 72t-171.5 198.5t-61.5 291.5t61.5 292t171.5 199t254 72t253.5 -72t171.5 -199t62 -292t-61.5 -291.5t-171.5 -198.5t-254 -72zM576 98q111 0 190 57t121.5 157t42.5 227t-42.5 227t-121.5 158t-190 58q-110 0 -189.5 -58t-122 -158t-42.5 -227
t42.5 -227t121.5 -157t190 -57zM784 1303q-39 0 -66.5 27.5t-27.5 66.5t27.5 66t66.5 27q38 0 65.5 -27t27.5 -66t-27.5 -66.5t-65.5 -27.5zM369 1303q-38 0 -66 27.5t-28 66.5t28 66t66 27q39 0 66.5 -27t27.5 -66t-27.5 -66.5t-66.5 -27.5z" />
    <glyph glyph-name="divide" unicode="&#xf7;" horiz-adv-x="1289" 
d="M1096 646v-127h-903v127h903zM644 115q-44 0 -74.5 31t-30.5 74t30.5 73.5t74.5 30.5q43 0 73.5 -30.5t30.5 -73.5t-30.5 -74t-73.5 -31zM644 841q-44 -1 -74.5 29.5t-30.5 75.5q0 43 30.5 73t74.5 30q43 0 73.5 -30t30.5 -73q0 -45 -30.5 -75.5t-73.5 -29.5z" />
    <glyph glyph-name="oslash" unicode="&#xf8;" horiz-adv-x="1152" 
d="M576 -23q-144 0 -254 72t-171.5 198.5t-61.5 291.5t61.5 292t171.5 199t254 72t253.5 -72t171.5 -199t62 -292t-61.5 -291.5t-171.5 -198.5t-254 -72zM576 98q111 0 190 57t121.5 157t42.5 227t-42.5 227t-121.5 158t-190 58q-110 0 -189.5 -58t-122 -158t-42.5 -227
t42.5 -227t121.5 -157t190 -57zM160 -35l-83 70l916 1084l82 -70z" />
    <glyph glyph-name="ugrave" unicode="&#xf9;" horiz-adv-x="1149" 
d="M534 -17q-111 0 -198.5 47t-137.5 138.5t-50 223.5v692h131v-683q0 -140 76.5 -218.5t205.5 -78.5q87 0 157 36.5t110.5 107t40.5 170.5v666h132v-1084h-128v255h28q-46 -142 -144 -207t-223 -65zM523 1227l-178 293h151l138 -293h-111z" />
    <glyph glyph-name="uacute" unicode="&#xfa;" horiz-adv-x="1149" 
d="M534 -17q-111 0 -198.5 47t-137.5 138.5t-50 223.5v692h131v-683q0 -140 76.5 -218.5t205.5 -78.5q87 0 157 36.5t110.5 107t40.5 170.5v666h132v-1084h-128v255h28q-46 -142 -144 -207t-223 -65zM515 1227l138 293h150l-177 -293h-111z" />
    <glyph glyph-name="ucircumflex" unicode="&#xfb;" horiz-adv-x="1149" 
d="M534 -17q-111 0 -198.5 47t-137.5 138.5t-50 223.5v692h131v-683q0 -140 76.5 -218.5t205.5 -78.5q87 0 157 36.5t110.5 107t40.5 170.5v666h132v-1084h-128v255h28q-46 -142 -144 -207t-223 -65zM405 1250h-134v4l241 272h122l242 -272v-4h-135l-168 194z" />
    <glyph glyph-name="udieresis" unicode="&#xfc;" horiz-adv-x="1149" 
d="M534 -17q-111 0 -198.5 47t-137.5 138.5t-50 223.5v692h131v-683q0 -140 76.5 -218.5t205.5 -78.5q87 0 157 36.5t110.5 107t40.5 170.5v666h132v-1084h-128v255h28q-46 -142 -144 -207t-223 -65zM782 1303q-39 0 -66.5 27.5t-27.5 66.5t27.5 66t66.5 27q38 0 65.5 -27
t27.5 -66t-27.5 -66.5t-65.5 -27.5zM367 1303q-38 0 -66 27.5t-28 66.5t28 66t66 27q39 0 66.5 -27t27.5 -66t-27.5 -66.5t-66.5 -27.5z" />
    <glyph glyph-name="yacute" unicode="&#xfd;" horiz-adv-x="1079" 
d="M132 -411l17 116l61 -2q49 -8 86 3t67 46.5t54 100.5l55 145l-424 1086h143l255 -671q32 -85 59.5 -169.5t55.5 -167.5h-41q28 83 56 167.5t60 169.5l253 671h142l-498 -1277q-31 -78 -72 -128.5t-94.5 -75.5t-121.5 -25q-34 0 -61.5 3.5t-51.5 7.5zM480 1227l138 293
h150l-177 -293h-111z" />
    <glyph glyph-name="thorn" unicode="&#xfe;" horiz-adv-x="1184" 
d="M635 -21q-88 0 -156.5 30.5t-117 82t-76.5 112.5h-6v-622h-131v1908h131v-613h6q26 61 74 111.5t117.5 81t158.5 30.5q136 0 239.5 -70t162 -196t58.5 -294q0 -167 -58 -293.5t-161.5 -197t-240.5 -70.5zM618 99q104 0 181.5 55t120 154.5t42.5 232.5t-42.5 232
t-119.5 153.5t-182 54.5q-107 0 -184.5 -55t-119 -154t-41.5 -231q0 -131 42 -231t119 -155.5t184 -55.5z" />
    <glyph glyph-name="ydieresis" unicode="&#xff;" horiz-adv-x="1079" 
d="M132 -411l17 116l61 -2q49 -8 86 3t67 46.5t54 100.5l55 145l-424 1086h143l255 -671q32 -85 59.5 -169.5t55.5 -167.5h-41q28 83 56 167.5t60 169.5l253 671h142l-498 -1277q-31 -78 -72 -128.5t-94.5 -75.5t-121.5 -25q-34 0 -61.5 3.5t-51.5 7.5zM747 1303
q-39 0 -66.5 27.5t-27.5 66.5t27.5 66t66.5 27q38 0 65.5 -27t27.5 -66t-27.5 -66.5t-65.5 -27.5zM332 1303q-38 0 -66 27.5t-28 66.5t28 66t66 27q39 0 66.5 -27t27.5 -66t-27.5 -66.5t-66.5 -27.5z" />
    <glyph glyph-name="Amacron" unicode="&#x100;" horiz-adv-x="1334" 
d="M36 0l550 1490h162l550 -1490h-147l-354 979q-30 84 -65.5 189.5t-83.5 257.5h36q-47 -153 -83 -259t-65 -188l-354 -979h-146zM295 442v124h743v-124h-743zM930 1845v-109h-523v109h523z" />
    <glyph glyph-name="amacron" unicode="&#x101;" horiz-adv-x="1079" 
d="M452 -20q-101 0 -184 36.5t-132.5 109t-49.5 177.5q0 83 31.5 138t88.5 90t135.5 55t172.5 32q96 13 159.5 22t95 28t31.5 61v20q0 70 -32 122.5t-91.5 82t-141.5 29.5q-80 0 -142 -27t-100.5 -72.5t-49.5 -100.5l-130 20q19 93 78.5 159.5t148.5 102t193 35.5
q79 0 150.5 -21.5t127 -65.5t88 -111t32.5 -158v-744h-130v174h-6q-24 -49 -69 -94t-113 -72.5t-161 -27.5zM470 99q104 0 177.5 42t113 115t39.5 164v153q-14 -13 -44 -23.5t-70.5 -18.5t-86 -15t-88.5 -12q-91 -12 -156.5 -36t-100.5 -65t-35 -106q0 -63 32.5 -107.5
t89 -67.5t129.5 -23zM789 1439v-109h-523v109h523z" />
    <glyph glyph-name="Abreve" unicode="&#x102;" horiz-adv-x="1334" 
d="M36 0l550 1490h162l550 -1490h-147l-354 979q-30 84 -65.5 189.5t-83.5 257.5h36q-47 -153 -83 -259t-65 -188l-354 -979h-146zM295 442v124h743v-124h-743zM668 1648q-78 0 -141 37t-100.5 99t-37.5 139h102q0 -76 50.5 -126t126.5 -50q75 0 126 50t51 126h102
q0 -77 -37.5 -139t-100.5 -99t-141 -37z" />
    <glyph glyph-name="abreve" unicode="&#x103;" horiz-adv-x="1079" 
d="M452 -20q-101 0 -184 36.5t-132.5 109t-49.5 177.5q0 83 31.5 138t88.5 90t135.5 55t172.5 32q96 13 159.5 22t95 28t31.5 61v20q0 70 -32 122.5t-91.5 82t-141.5 29.5q-80 0 -142 -27t-100.5 -72.5t-49.5 -100.5l-130 20q19 93 78.5 159.5t148.5 102t193 35.5
q79 0 150.5 -21.5t127 -65.5t88 -111t32.5 -158v-744h-130v174h-6q-24 -49 -69 -94t-113 -72.5t-161 -27.5zM470 99q104 0 177.5 42t113 115t39.5 164v153q-14 -13 -44 -23.5t-70.5 -18.5t-86 -15t-88.5 -12q-91 -12 -156.5 -36t-100.5 -65t-35 -106q0 -63 32.5 -107.5
t89 -67.5t129.5 -23zM528 1242q-78 0 -141 37t-100.5 99t-37.5 139h102q0 -76 50.5 -126t126.5 -50q75 0 126 50t51 126h102q0 -77 -37.5 -139t-100.5 -99t-141 -37z" />
    <glyph glyph-name="Aogonek" unicode="&#x104;" horiz-adv-x="1334" 
d="M36 0l550 1490h162l550 -1490h-147l-354 979q-30 84 -65.5 189.5t-83.5 257.5h36q-47 -153 -83 -259t-65 -188l-354 -979h-146zM295 442v124h743v-124h-743zM1204 -425q-92 0 -149 46.5t-57 132.5q0 79 47.5 142.5t126.5 127.5l125 -24q-81 -69 -124 -119.5t-43 -105.5
q0 -40 25.5 -62.5t77.5 -22.5q18 0 34.5 3t30.5 7l21 -108q-24 -6 -53 -11.5t-62 -5.5z" />
    <glyph glyph-name="aogonek" unicode="&#x105;" horiz-adv-x="1079" 
d="M452 -20q-101 0 -184 36.5t-132.5 109t-49.5 177.5q0 83 31.5 138t88.5 90t135.5 55t172.5 32q96 13 159.5 22t95 28t31.5 61v20q0 70 -32 122.5t-91.5 82t-141.5 29.5q-80 0 -142 -27t-100.5 -72.5t-49.5 -100.5l-130 20q19 93 78.5 159.5t148.5 102t193 35.5
q79 0 150.5 -21.5t127 -65.5t88 -111t32.5 -158v-744h-130v174h-6q-24 -49 -69 -94t-113 -72.5t-161 -27.5zM470 99q104 0 177.5 42t113 115t39.5 164v153q-14 -13 -44 -23.5t-70.5 -18.5t-86 -15t-88.5 -12q-91 -12 -156.5 -36t-100.5 -65t-35 -106q0 -63 32.5 -107.5
t89 -67.5t129.5 -23zM837 -422q-92 0 -148.5 46.5t-56.5 132.5q0 75 45.5 136.5t126.5 124.5l127 -18q-80 -70 -123.5 -118.5t-43.5 -103.5q0 -40 25 -62.5t77 -22.5q19 0 36 3t30 6l20 -107q-24 -6 -52.5 -11.5t-62.5 -5.5z" />
    <glyph glyph-name="Cacute" unicode="&#x106;" horiz-adv-x="1461" 
d="M764 -21q-194 0 -342 96t-231.5 268t-83.5 401q0 230 83 402.5t231.5 268.5t342.5 96q120 0 221.5 -38t179 -105.5t127 -157t67.5 -193.5h-140q-16 79 -55 145t-98 115.5t-135.5 76.5t-166.5 27q-149 0 -266.5 -76t-185.5 -218.5t-68 -342.5t68 -342t185.5 -217.5
t266.5 -75.5q90 0 166 27.5t135 76.5t98.5 115t56.5 144h139q-17 -103 -67 -192.5t-127.5 -157t-178.5 -105.5t-222 -38zM697 1633l138 293h150l-177 -293h-111z" />
    <glyph glyph-name="cacute" unicode="&#x107;" horiz-adv-x="1094" 
d="M576 -21q-144 0 -254 71.5t-171.5 198t-61.5 290.5q0 166 61.5 292.5t171.5 198.5t254 72q86 0 159 -26t129 -71.5t93 -105t52 -126.5l-130 -18q-10 44 -35 85t-63.5 73t-89.5 50.5t-115 18.5q-110 0 -189.5 -57.5t-122 -157.5t-42.5 -228q0 -127 42.5 -226.5t122 -156.5
t189.5 -57q64 0 115 18.5t89.5 50.5t63.5 73.5t36 87.5l131 -18q-14 -67 -51.5 -127t-94.5 -106t-130 -72.5t-159 -26.5zM517 1227l138 293h150l-177 -293h-111z" />
    <glyph glyph-name="Ccircumflex" unicode="&#x108;" horiz-adv-x="1461" 
d="M764 -21q-194 0 -342 96t-231.5 268t-83.5 401q0 230 83 402.5t231.5 268.5t342.5 96q120 0 221.5 -38t179 -105.5t127 -157t67.5 -193.5h-140q-16 79 -55 145t-98 115.5t-135.5 76.5t-166.5 27q-149 0 -266.5 -76t-185.5 -218.5t-68 -342.5t68 -342t185.5 -217.5
t266.5 -75.5q90 0 166 27.5t135 76.5t98.5 115t56.5 144h139q-17 -103 -67 -192.5t-127.5 -157t-178.5 -105.5t-222 -38zM588 1656h-134v4l241 272h122l242 -272v-4h-135l-168 194z" />
    <glyph glyph-name="ccircumflex" unicode="&#x109;" horiz-adv-x="1094" 
d="M576 -21q-144 0 -254 71.5t-171.5 198t-61.5 290.5q0 166 61.5 292.5t171.5 198.5t254 72q86 0 159 -26t129 -71.5t93 -105t52 -126.5l-130 -18q-10 44 -35 85t-63.5 73t-89.5 50.5t-115 18.5q-110 0 -189.5 -57.5t-122 -157.5t-42.5 -228q0 -127 42.5 -226.5t122 -156.5
t189.5 -57q64 0 115 18.5t89.5 50.5t63.5 73.5t36 87.5l131 -18q-14 -67 -51.5 -127t-94.5 -106t-130 -72.5t-159 -26.5zM407 1250h-134v4l241 272h122l242 -272v-4h-135l-168 194z" />
    <glyph glyph-name="Cdotaccent" unicode="&#x10a;" horiz-adv-x="1461" 
d="M764 -21q-194 0 -342 96t-231.5 268t-83.5 401q0 230 83 402.5t231.5 268.5t342.5 96q120 0 221.5 -38t179 -105.5t127 -157t67.5 -193.5h-140q-16 79 -55 145t-98 115.5t-135.5 76.5t-166.5 27q-149 0 -266.5 -76t-185.5 -218.5t-68 -342.5t68 -342t185.5 -217.5
t266.5 -75.5q90 0 166 27.5t135 76.5t98.5 115t56.5 144h139q-17 -103 -67 -192.5t-127.5 -157t-178.5 -105.5t-222 -38zM756 1709q-39 0 -67.5 27.5t-28.5 66.5t28.5 66.5t67.5 27.5q40 0 68 -27.5t28 -66.5t-28 -66.5t-68 -27.5z" />
    <glyph glyph-name="cdotaccent" unicode="&#x10b;" horiz-adv-x="1094" 
d="M576 -21q-144 0 -254 71.5t-171.5 198t-61.5 290.5q0 166 61.5 292.5t171.5 198.5t254 72q86 0 159 -26t129 -71.5t93 -105t52 -126.5l-130 -18q-10 44 -35 85t-63.5 73t-89.5 50.5t-115 18.5q-110 0 -189.5 -57.5t-122 -157.5t-42.5 -228q0 -127 42.5 -226.5t122 -156.5
t189.5 -57q64 0 115 18.5t89.5 50.5t63.5 73.5t36 87.5l131 -18q-14 -67 -51.5 -127t-94.5 -106t-130 -72.5t-159 -26.5zM576 1303q-39 0 -67.5 27.5t-28.5 66.5t28.5 66.5t67.5 27.5q40 0 68 -27.5t28 -66.5t-28 -66.5t-68 -27.5z" />
    <glyph glyph-name="Ccaron" unicode="&#x10c;" horiz-adv-x="1461" 
d="M764 -21q-194 0 -342 96t-231.5 268t-83.5 401q0 230 83 402.5t231.5 268.5t342.5 96q120 0 221.5 -38t179 -105.5t127 -157t67.5 -193.5h-140q-16 79 -55 145t-98 115.5t-135.5 76.5t-166.5 27q-149 0 -266.5 -76t-185.5 -218.5t-68 -342.5t68 -342t185.5 -217.5
t266.5 -75.5q90 0 166 27.5t135 76.5t98.5 115t56.5 144h139q-17 -103 -67 -192.5t-127.5 -157t-178.5 -105.5t-222 -38zM588 1931l168 -194l168 194h135v-4l-242 -272h-122l-241 272v4h134z" />
    <glyph glyph-name="ccaron" unicode="&#x10d;" horiz-adv-x="1094" 
d="M576 -21q-144 0 -254 71.5t-171.5 198t-61.5 290.5q0 166 61.5 292.5t171.5 198.5t254 72q86 0 159 -26t129 -71.5t93 -105t52 -126.5l-130 -18q-10 44 -35 85t-63.5 73t-89.5 50.5t-115 18.5q-110 0 -189.5 -57.5t-122 -157.5t-42.5 -228q0 -127 42.5 -226.5t122 -156.5
t189.5 -57q64 0 115 18.5t89.5 50.5t63.5 73.5t36 87.5l131 -18q-14 -67 -51.5 -127t-94.5 -106t-130 -72.5t-159 -26.5zM407 1525l168 -194l168 194h135v-4l-242 -272h-122l-241 272v4h134z" />
    <glyph glyph-name="Dcaron" unicode="&#x10e;" horiz-adv-x="1425" 
d="M612 0h-361v124h353q191 0 319.5 75t193 215t64.5 335q0 192 -63 330t-185.5 212.5t-303.5 74.5h-384v124h392q214 0 366 -89t233.5 -255t81.5 -397q0 -235 -83 -402.5t-241 -257t-382 -89.5zM312 1490v-1490h-138v1490h138zM430 1931l168 -194l168 194h135v-4l-242 -272
h-122l-241 272v4h134z" />
    <glyph glyph-name="dcaron" unicode="&#x10f;" horiz-adv-x="1350" 
d="M548 -21q-135 0 -239 70.5t-162 197t-58 293.5q0 168 58.5 294t162 196t239.5 70q89 0 158 -30.5t117.5 -81t74.5 -111.5h6v613h131v-1490h-128v204h-8q-28 -61 -76.5 -112.5t-117 -82t-158.5 -30.5zM566 99q107 0 184 55.5t118.5 155.5t41.5 231q0 132 -41.5 231
t-118.5 154t-184 55q-104 0 -181.5 -54.5t-120 -153.5t-42.5 -232t42.5 -232.5t120 -154.5t181.5 -55zM1169 1182v378h136l-40 -378h-96z" />
    <glyph glyph-name="Dcroat" unicode="&#x110;" horiz-adv-x="1461" 
d="M649 0h-361v124h353q191 0 319.5 75t193 215t64.5 335q0 192 -63 330t-185.5 212.5t-303.5 74.5h-384v124h392q214 0 366 -89t233.5 -255t81.5 -397q0 -235 -83 -402.5t-241 -257t-382 -89.5zM349 1490v-1490h-138v1490h138zM26 685v120h694v-120h-694z" />
    <glyph glyph-name="dcroat" unicode="&#x111;" horiz-adv-x="1184" 
d="M548 -21q-135 0 -239 70.5t-162 197t-58 293.5q0 168 58.5 294t162 196t239.5 70q89 0 158 -30.5t117.5 -81t74.5 -111.5h6v613h131v-1490h-128v204h-8q-28 -61 -76.5 -112.5t-117 -82t-158.5 -30.5zM566 99q107 0 184 55.5t118.5 155.5t41.5 231q0 132 -41.5 231
t-118.5 154t-184 55q-104 0 -181.5 -54.5t-120 -153.5t-42.5 -232t42.5 -232.5t120 -154.5t181.5 -55zM599 1226v110h613v-110h-613z" />
    <glyph glyph-name="Emacron" unicode="&#x112;" horiz-adv-x="1194" 
d="M174 0v1490h912v-124h-774v-547h718v-124h-718v-571h780v-124h-918zM895 1845v-109h-523v109h523z" />
    <glyph glyph-name="emacron" unicode="&#x113;" horiz-adv-x="1128" 
d="M584 -23q-153 0 -264 72.5t-171 199t-60 289.5q0 164 61 291t169.5 200t250.5 73q100 0 186.5 -37t151 -108t100.5 -172.5t36 -231.5v-48h-878v115h805l-58 -40q0 118 -42.5 209t-119.5 142.5t-181 51.5q-105 0 -183.5 -52.5t-122.5 -144t-44 -207.5v-57
q0 -126 44.5 -222t126 -149.5t193.5 -53.5q79 0 141.5 26.5t105 72.5t62.5 104l129 -18q-24 -87 -85 -156t-151 -109t-202 -40zM829 1439v-109h-523v109h523z" />
    <glyph glyph-name="Ebreve" unicode="&#x114;" horiz-adv-x="1194" 
d="M174 0v1490h912v-124h-774v-547h718v-124h-718v-571h780v-124h-918zM633 1648q-78 0 -141 37t-100.5 99t-37.5 139h102q0 -76 50.5 -126t126.5 -50q75 0 126 50t51 126h102q0 -77 -37.5 -139t-100.5 -99t-141 -37z" />
    <glyph glyph-name="ebreve" unicode="&#x115;" horiz-adv-x="1128" 
d="M584 -23q-153 0 -264 72.5t-171 199t-60 289.5q0 164 61 291t169.5 200t250.5 73q100 0 186.5 -37t151 -108t100.5 -172.5t36 -231.5v-48h-878v115h805l-58 -40q0 118 -42.5 209t-119.5 142.5t-181 51.5q-105 0 -183.5 -52.5t-122.5 -144t-44 -207.5v-57
q0 -126 44.5 -222t126 -149.5t193.5 -53.5q79 0 141.5 26.5t105 72.5t62.5 104l129 -18q-24 -87 -85 -156t-151 -109t-202 -40zM567 1242q-78 0 -141 37t-100.5 99t-37.5 139h102q0 -76 50.5 -126t126.5 -50q75 0 126 50t51 126h102q0 -77 -37.5 -139t-100.5 -99t-141 -37z
" />
    <glyph glyph-name="Edotaccent" unicode="&#x116;" horiz-adv-x="1194" 
d="M174 0v1490h912v-124h-774v-547h718v-124h-718v-571h780v-124h-918zM633 1709q-39 0 -67.5 27.5t-28.5 66.5t28.5 66.5t67.5 27.5q40 0 68 -27.5t28 -66.5t-28 -66.5t-68 -27.5z" />
    <glyph glyph-name="edotaccent" unicode="&#x117;" horiz-adv-x="1128" 
d="M584 -23q-153 0 -264 72.5t-171 199t-60 289.5q0 164 61 291t169.5 200t250.5 73q100 0 186.5 -37t151 -108t100.5 -172.5t36 -231.5v-48h-878v115h805l-58 -40q0 118 -42.5 209t-119.5 142.5t-181 51.5q-105 0 -183.5 -52.5t-122.5 -144t-44 -207.5v-57
q0 -126 44.5 -222t126 -149.5t193.5 -53.5q79 0 141.5 26.5t105 72.5t62.5 104l129 -18q-24 -87 -85 -156t-151 -109t-202 -40zM567 1303q-39 0 -67.5 27.5t-28.5 66.5t28.5 66.5t67.5 27.5q40 0 68 -27.5t28 -66.5t-28 -66.5t-68 -27.5z" />
    <glyph glyph-name="Eogonek" unicode="&#x118;" horiz-adv-x="1194" 
d="M174 0v1490h912v-124h-774v-547h718v-124h-718v-571h780v-124h-918zM998 -425q-92 0 -148.5 46.5t-56.5 132.5q0 78 50 145t149 134l100 -33q-80 -68 -123.5 -119t-43.5 -106q0 -40 25 -62.5t77 -22.5q18 0 35 3t31 7l20 -108q-24 -6 -52.5 -11.5t-62.5 -5.5z" />
    <glyph glyph-name="eogonek" unicode="&#x119;" horiz-adv-x="1128" 
d="M584 -23q-153 0 -264 72.5t-171 199t-60 289.5q0 164 61 291t169.5 200t250.5 73q100 0 186.5 -37t151 -108t100.5 -172.5t36 -231.5v-48h-878v115h805l-58 -40q0 118 -42.5 209t-119.5 142.5t-181 51.5q-105 0 -183.5 -52.5t-122.5 -144t-44 -207.5v-57
q0 -126 44.5 -222t126 -149.5t193.5 -53.5q79 0 141.5 26.5t105 72.5t62.5 104l129 -18q-24 -87 -85 -156t-151 -109t-202 -40zM835 -425q-98 0 -154.5 46t-56.5 131q0 41 14.5 82t38 82t52.5 80t59 77l233 209q-22 -78 -65 -147.5t-89.5 -132.5t-78.5 -119.5t-32 -107.5
q0 -40 25 -62.5t83 -22.5q19 0 37.5 3t34.5 7l20 -108q-25 -6 -55.5 -11.5t-65.5 -5.5z" />
    <glyph glyph-name="Ecaron" unicode="&#x11a;" horiz-adv-x="1194" 
d="M174 0v1490h912v-124h-774v-547h718v-124h-718v-571h780v-124h-918zM464 1931l168 -194l168 194h135v-4l-242 -272h-122l-241 272v4h134z" />
    <glyph glyph-name="ecaron" unicode="&#x11b;" horiz-adv-x="1128" 
d="M584 -23q-153 0 -264 72.5t-171 199t-60 289.5q0 164 61 291t169.5 200t250.5 73q100 0 186.5 -37t151 -108t100.5 -172.5t36 -231.5v-48h-878v115h805l-58 -40q0 118 -42.5 209t-119.5 142.5t-181 51.5q-105 0 -183.5 -52.5t-122.5 -144t-44 -207.5v-57
q0 -126 44.5 -222t126 -149.5t193.5 -53.5q79 0 141.5 26.5t105 72.5t62.5 104l129 -18q-24 -87 -85 -156t-151 -109t-202 -40zM399 1525l168 -194l168 194h135v-4l-242 -272h-122l-241 272v4h134z" />
    <glyph glyph-name="Gcircumflex" unicode="&#x11c;" horiz-adv-x="1487" 
d="M764 -21q-195 0 -343 96t-231 268.5t-83 400.5q0 231 83 403t230.5 268t338.5 96q123 0 225 -39t180 -107.5t128.5 -157.5t67.5 -189h-141q-17 74 -56.5 139.5t-99 116t-136 79t-167.5 28.5q-151 0 -268 -78t-182.5 -221t-65.5 -338q0 -193 65.5 -335.5t183 -221
t271.5 -78.5q138 0 244 61t166 173t60 263l45 -8h-476v124h567v-123q0 -184 -78 -323.5t-214.5 -218t-313.5 -78.5zM582 1656h-134v4l241 272h122l242 -272v-4h-135l-168 194z" />
    <glyph glyph-name="gcircumflex" unicode="&#x11d;" horiz-adv-x="1184" 
d="M576 -436q-117 0 -207 34t-148.5 96.5t-81.5 147.5l123 31q20 -56 60.5 -99t103.5 -67.5t150 -24.5q153 0 241.5 79t88.5 230v222h-7q-28 -61 -76.5 -110.5t-117 -78.5t-157.5 -29q-134 0 -238 67.5t-162.5 190.5t-58.5 290q0 166 58.5 291.5t162.5 195.5t240 70
q89 0 158 -30t118 -81.5t76 -114.5h6v210h129v-1096q0 -145 -60.5 -239t-164.5 -139.5t-236 -45.5zM567 114q106 0 183.5 52.5t119 149t41.5 228.5q0 130 -41.5 228.5t-118.5 153.5t-184 55q-105 0 -182.5 -54.5t-120 -152.5t-42.5 -230q0 -133 43 -229t120.5 -148.5
t181.5 -52.5zM402 1250h-134v4l241 272h122l242 -272v-4h-135l-168 194z" />
    <glyph glyph-name="Gbreve" unicode="&#x11e;" horiz-adv-x="1487" 
d="M764 -21q-195 0 -343 96t-231 268.5t-83 400.5q0 231 83 403t230.5 268t338.5 96q123 0 225 -39t180 -107.5t128.5 -157.5t67.5 -189h-141q-17 74 -56.5 139.5t-99 116t-136 79t-167.5 28.5q-151 0 -268 -78t-182.5 -221t-65.5 -338q0 -193 65.5 -335.5t183 -221
t271.5 -78.5q138 0 244 61t166 173t60 263l45 -8h-476v124h567v-123q0 -184 -78 -323.5t-214.5 -218t-313.5 -78.5zM751 1648q-78 0 -141 37t-100.5 99t-37.5 139h102q0 -76 50.5 -126t126.5 -50q75 0 126 50t51 126h102q0 -77 -37.5 -139t-100.5 -99t-141 -37z" />
    <glyph glyph-name="gbreve" unicode="&#x11f;" horiz-adv-x="1184" 
d="M576 -436q-117 0 -207 34t-148.5 96.5t-81.5 147.5l123 31q20 -56 60.5 -99t103.5 -67.5t150 -24.5q153 0 241.5 79t88.5 230v222h-7q-28 -61 -76.5 -110.5t-117 -78.5t-157.5 -29q-134 0 -238 67.5t-162.5 190.5t-58.5 290q0 166 58.5 291.5t162.5 195.5t240 70
q89 0 158 -30t118 -81.5t76 -114.5h6v210h129v-1096q0 -145 -60.5 -239t-164.5 -139.5t-236 -45.5zM567 114q106 0 183.5 52.5t119 149t41.5 228.5q0 130 -41.5 228.5t-118.5 153.5t-184 55q-105 0 -182.5 -54.5t-120 -152.5t-42.5 -230q0 -133 43 -229t120.5 -148.5
t181.5 -52.5zM571 1242q-78 0 -141 37t-100.5 99t-37.5 139h102q0 -76 50.5 -126t126.5 -50q75 0 126 50t51 126h102q0 -77 -37.5 -139t-100.5 -99t-141 -37z" />
    <glyph glyph-name="Gdotaccent" unicode="&#x120;" horiz-adv-x="1487" 
d="M764 -21q-195 0 -343 96t-231 268.5t-83 400.5q0 231 83 403t230.5 268t338.5 96q123 0 225 -39t180 -107.5t128.5 -157.5t67.5 -189h-141q-17 74 -56.5 139.5t-99 116t-136 79t-167.5 28.5q-151 0 -268 -78t-182.5 -221t-65.5 -338q0 -193 65.5 -335.5t183 -221
t271.5 -78.5q138 0 244 61t166 173t60 263l45 -8h-476v124h567v-123q0 -184 -78 -323.5t-214.5 -218t-313.5 -78.5zM751 1709q-39 0 -67.5 27.5t-28.5 66.5t28.5 66.5t67.5 27.5q40 0 68 -27.5t28 -66.5t-28 -66.5t-68 -27.5z" />
    <glyph glyph-name="gdotaccent" unicode="&#x121;" horiz-adv-x="1184" 
d="M576 -436q-117 0 -207 34t-148.5 96.5t-81.5 147.5l123 31q20 -56 60.5 -99t103.5 -67.5t150 -24.5q153 0 241.5 79t88.5 230v222h-7q-28 -61 -76.5 -110.5t-117 -78.5t-157.5 -29q-134 0 -238 67.5t-162.5 190.5t-58.5 290q0 166 58.5 291.5t162.5 195.5t240 70
q89 0 158 -30t118 -81.5t76 -114.5h6v210h129v-1096q0 -145 -60.5 -239t-164.5 -139.5t-236 -45.5zM567 114q106 0 183.5 52.5t119 149t41.5 228.5q0 130 -41.5 228.5t-118.5 153.5t-184 55q-105 0 -182.5 -54.5t-120 -152.5t-42.5 -230q0 -133 43 -229t120.5 -148.5
t181.5 -52.5zM571 1303q-39 0 -67.5 27.5t-28.5 66.5t28.5 66.5t67.5 27.5q40 0 68 -27.5t28 -66.5t-28 -66.5t-68 -27.5z" />
    <glyph glyph-name="uni0122" unicode="&#x122;" horiz-adv-x="1487" 
d="M764 -21q-195 0 -343 96t-231 268.5t-83 400.5q0 231 83 403t230.5 268t338.5 96q123 0 225 -39t180 -107.5t128.5 -157.5t67.5 -189h-141q-17 74 -56.5 139.5t-99 116t-136 79t-167.5 28.5q-151 0 -268 -78t-182.5 -221t-65.5 -338q0 -193 65.5 -335.5t183 -221
t271.5 -78.5q138 0 244 61t166 173t60 263l45 -8h-476v124h567v-123q0 -184 -78 -323.5t-214.5 -218t-313.5 -78.5zM594 -494l85 376h137l-120 -376h-102z" />
    <glyph glyph-name="uni0123" unicode="&#x123;" horiz-adv-x="1184" 
d="M576 -436q-117 0 -207 34t-148.5 96.5t-81.5 147.5l123 31q20 -56 60.5 -99t103.5 -67.5t150 -24.5q153 0 241.5 79t88.5 230v222h-7q-28 -61 -76.5 -110.5t-117 -78.5t-157.5 -29q-134 0 -238 67.5t-162.5 190.5t-58.5 290q0 166 58.5 291.5t162.5 195.5t240 70
q89 0 158 -30t118 -81.5t76 -114.5h6v210h129v-1096q0 -145 -60.5 -239t-164.5 -139.5t-236 -45.5zM567 114q106 0 183.5 52.5t119 149t41.5 228.5q0 130 -41.5 228.5t-118.5 153.5t-184 55q-105 0 -182.5 -54.5t-120 -152.5t-42.5 -230q0 -133 43 -229t120.5 -148.5
t181.5 -52.5zM510 1225v109q0 70 22.5 125.5t52.5 96t51 66.5l87 -63q-35 -53 -63.5 -105t-28.5 -126v-103h-121z" />
    <glyph glyph-name="Hcircumflex" unicode="&#x124;" horiz-adv-x="1466" 
d="M174 0v1490h138v-666h842v666h138v-1490h-138v700h-842v-700h-138zM564 1656h-134v4l241 272h122l242 -272v-4h-135l-168 194z" />
    <glyph glyph-name="hcircumflex" unicode="&#x125;" horiz-adv-x="1149" 
d="M279 666v-666h-131v1490h131v-662h-32q46 142 144 207t224 65q111 0 198.5 -47t137.5 -138t50 -223v-692h-132v683q0 140 -76 218t-206 78q-87 0 -156.5 -36t-110.5 -106t-41 -171zM45 1656h-134v4l241 272h122l242 -272v-4h-135l-168 194z" />
    <glyph glyph-name="Hbar" unicode="&#x126;" horiz-adv-x="1509" 
d="M1432 1144v-117h-1354v117h1354zM197 0v1490h138v-666h842v666h138v-1490h-138v700h-842v-700h-138z" />
    <glyph glyph-name="hbar" unicode="&#x127;" horiz-adv-x="1149" 
d="M279 666v-666h-131v1490h131v-662h-32q46 142 144 207t224 65q111 0 198.5 -47t137.5 -138t50 -223v-692h-132v683q0 140 -76 218t-206 78q-87 0 -156.5 -36t-110.5 -106t-41 -171zM-29 1226v110h613v-110h-613z" />
    <glyph glyph-name="Itilde" unicode="&#x128;" horiz-adv-x="486" 
d="M312 1490v-1490h-138v1490h138zM373 1700q-38 0 -72 14t-64 32.5t-56.5 32.5t-50.5 14q-34 0 -52.5 -26.5t-21.5 -62.5h-98q4 82 44 136t114 54q41 0 74 -14.5t61 -33.5t54 -33.5t53 -14.5q31 0 48.5 21t25.5 68h96q-6 -85 -46.5 -136t-108.5 -51z" />
    <glyph glyph-name="itilde" unicode="&#x129;" horiz-adv-x="427" 
d="M148 0v1084h131v-1084h-131zM344 1294q-38 0 -72 14t-64 32.5t-56.5 32.5t-50.5 14q-34 0 -52.5 -26.5t-21.5 -62.5h-98q4 82 44 136t114 54q41 0 74 -14.5t61 -33.5t54 -33.5t53 -14.5q31 0 48.5 21t25.5 68h96q-6 -85 -46.5 -136t-108.5 -51z" />
    <glyph glyph-name="Imacron" unicode="&#x12a;" horiz-adv-x="486" 
d="M312 1490v-1490h-138v1490h138zM504 1845v-109h-523v109h523z" />
    <glyph glyph-name="imacron" unicode="&#x12b;" horiz-adv-x="427" 
d="M148 0v1084h131v-1084h-131zM475 1439v-109h-523v109h523z" />
    <glyph glyph-name="Ibreve" unicode="&#x12c;" horiz-adv-x="486" 
d="M312 1490v-1490h-138v1490h138zM243 1648q-78 0 -141 37t-100.5 99t-37.5 139h102q0 -76 50.5 -126t126.5 -50q75 0 126 50t51 126h102q0 -77 -37.5 -139t-100.5 -99t-141 -37z" />
    <glyph glyph-name="ibreve" unicode="&#x12d;" horiz-adv-x="427" 
d="M148 0v1084h131v-1084h-131zM214 1242q-78 0 -141 37t-100.5 99t-37.5 139h102q0 -76 50.5 -126t126.5 -50q75 0 126 50t51 126h102q0 -77 -37.5 -139t-100.5 -99t-141 -37z" />
    <glyph glyph-name="Iogonek" unicode="&#x12e;" horiz-adv-x="486" 
d="M312 1490v-1490h-138v1490h138zM218 -425q-92 0 -148.5 46.5t-56.5 132.5q0 78 50 145t149 134l100 -33q-80 -68 -123.5 -119t-43.5 -106q0 -40 25 -62.5t77 -22.5q18 0 35 3t31 7l20 -108q-24 -6 -52.5 -11.5t-62.5 -5.5z" />
    <glyph glyph-name="iogonek" unicode="&#x12f;" horiz-adv-x="427" 
d="M148 0v1084h131v-1084h-131zM185 -425q-92 0 -148.5 46.5t-56.5 132.5q0 78 50 145t149 134l100 -33q-80 -68 -123.5 -119t-43.5 -106q0 -40 25 -62.5t77 -22.5q18 0 35 3t31 7l20 -108q-24 -6 -52.5 -11.5t-62.5 -5.5zM214 1303q-39 0 -67.5 27.5t-28.5 66.5t28.5 66.5
t67.5 27.5q40 0 68 -27.5t28 -66.5t-28 -66.5t-68 -27.5z" />
    <glyph glyph-name="Idotaccent" unicode="&#x130;" horiz-adv-x="486" 
d="M312 1490v-1490h-138v1490h138zM243 1709q-39 0 -67.5 27.5t-28.5 66.5t28.5 66.5t67.5 27.5q40 0 68 -27.5t28 -66.5t-28 -66.5t-68 -27.5z" />
    <glyph glyph-name="dotlessi" unicode="&#x131;" horiz-adv-x="427" 
d="M148 0v1084h131v-1084h-131z" />
    <glyph glyph-name="IJ" unicode="&#x132;" horiz-adv-x="1598" 
d="M312 1490v-1490h-138v1490h138zM1013 -20q-191 0 -308.5 114.5t-117.5 320.5v76h139v-76q0 -149 77.5 -230t209.5 -81q131 0 209 81t78 230v1075h138v-1075q0 -206 -117 -320.5t-308 -114.5z" />
    <glyph glyph-name="ij" unicode="&#x133;" horiz-adv-x="856" 
d="M148 0v1084h131v-1084h-131zM214 1303q-39 0 -67.5 27.5t-28.5 66.5t28.5 66.5t67.5 27.5q40 0 68 -27.5t28 -66.5t-28 -66.5t-68 -27.5zM576 1084h132v-1217q1 -85 -34 -149.5t-99 -100t-152 -35.5h-44v120h37q75 0 117.5 45t42.5 130v1207zM642 1303q-39 0 -67.5 27.5
t-28.5 66.5t28.5 66.5t67.5 27.5q40 0 68 -27.5t28 -66.5t-28 -66.5t-68 -27.5z" />
    <glyph glyph-name="Jcircumflex" unicode="&#x134;" horiz-adv-x="1113" 
d="M527 -20q-191 0 -308.5 114.5t-117.5 320.5v76h139v-76q0 -149 77.5 -230t209.5 -81q131 0 209 81t78 230v1075h138v-1075q0 -206 -117 -320.5t-308 -114.5zM714 1656h-134v4l241 272h122l242 -272v-4h-135l-168 194z" />
    <glyph glyph-name="jcircumflex" unicode="&#x135;" horiz-adv-x="429" 
d="M149 1084h132v-1217q1 -85 -34 -149.5t-99 -100t-152 -35.5h-44v120h37q75 0 117.5 45t42.5 130v1207zM47 1250h-134v4l241 272h122l242 -272v-4h-135l-168 194z" />
    <glyph glyph-name="uni0136" unicode="&#x136;" horiz-adv-x="1277" 
d="M271 463l-5 163q54 64 106.5 124t106 119t110.5 119l465 502h183l-629 -674l-10 -3zM174 0v1490h138v-520l-1 -335l1 -71v-564h-138zM1072 0l-558 783l88 105l634 -888h-164zM508 -494l85 376h137l-120 -376h-102z" />
    <glyph glyph-name="uni0137" unicode="&#x137;" horiz-adv-x="1023" 
d="M268 410v167h21l509 507h170l-501 -499l-14 -2zM148 0v1490h131v-1490h-131zM836 0l-450 559l94 91l524 -650h-168zM385 -494l85 376h137l-120 -376h-102z" />
    <glyph glyph-name="kgreenlandic" unicode="&#x138;" horiz-adv-x="1006" 
d="M279 1084v-1084h-131v1084h131zM985 1084l-548 -596h-213v110h158l440 486h163zM817 0l-462 497l78 94l550 -591h-166z" />
    <glyph glyph-name="Lacute" unicode="&#x139;" horiz-adv-x="1113" 
d="M174 0v1490h139v-1366h722v-124h-861zM184 1633l138 293h150l-177 -293h-111z" />
    <glyph glyph-name="lacute" unicode="&#x13a;" horiz-adv-x="427" 
d="M279 1490v-1490h-131v1490h131zM154 1633l138 293h150l-177 -293h-111z" />
    <glyph glyph-name="uni013B" unicode="&#x13b;" horiz-adv-x="1113" 
d="M174 0v1490h139v-1366h722v-124h-861zM441 -494l85 376h137l-120 -376h-102z" />
    <glyph glyph-name="uni013C" unicode="&#x13c;" horiz-adv-x="427" 
d="M279 1490v-1490h-131v1490h131zM57 -494l85 376h137l-120 -376h-102z" />
    <glyph glyph-name="Lcaron" unicode="&#x13d;" horiz-adv-x="1113" 
d="M174 0v1490h139v-1366h722v-124h-861zM597 1182v378h136l-40 -378h-96z" />
    <glyph glyph-name="lcaron" unicode="&#x13e;" horiz-adv-x="594" 
d="M279 1490v-1490h-131v1490h131zM421 1182v378h136l-40 -378h-96z" />
    <glyph glyph-name="Ldot" unicode="&#x13f;" horiz-adv-x="1093" 
d="M172 0v1490h139v-1366h722v-124h-861zM667 718q-39 0 -67.5 27.5t-28.5 66.5t28.5 66.5t67.5 27.5q40 0 68 -27.5t28 -66.5t-28 -66.5t-68 -27.5z" />
    <glyph glyph-name="ldot" unicode="&#x140;" horiz-adv-x="624" 
d="M279 1490v-1490h-131v1490h131zM509 641q-43 0 -73.5 30.5t-30.5 73.5q0 44 30.5 74.5t73.5 30.5q44 0 74 -30.5t30 -74.5q0 -43 -30 -73.5t-74 -30.5z" />
    <glyph glyph-name="Lslash" unicode="&#x141;" horiz-adv-x="1163" 
d="M224 0v1490h139v-1366h722v-124h-861zM33 540v141l730 422v-142z" />
    <glyph glyph-name="lslash" unicode="&#x142;" horiz-adv-x="427" 
d="M279 1490v-1490h-131v1490h131zM-22 696v123l470 273v-123z" />
    <glyph glyph-name="Nacute" unicode="&#x143;" horiz-adv-x="1499" 
d="M174 0v1490h157l682 -1019q27 -39 60.5 -92.5t70.5 -114.5t73 -124l-20 -14q-4 63 -6 129.5t-3 127t-1 103.5v1004h138v-1490h-159l-636 947q-32 48 -69 106.5t-82 131.5t-101 165l23 17q4 -93 6.5 -172t3.5 -141.5t1 -105.5v-948h-138zM690 1633l138 293h150l-177 -293
h-111z" />
    <glyph glyph-name="nacute" unicode="&#x144;" horiz-adv-x="1148" 
d="M279 666v-666h-131v1084h128v-256h-29q46 142 144 207t224 65q111 0 198 -47t137.5 -138t50.5 -223v-692h-132v683q0 140 -76 218t-206 78q-87 0 -156.5 -36t-110.5 -106t-41 -171zM515 1227l138 293h150l-177 -293h-111z" />
    <glyph glyph-name="uni0145" unicode="&#x145;" horiz-adv-x="1499" 
d="M174 0v1490h157l682 -1019q27 -39 60.5 -92.5t70.5 -114.5t73 -124l-20 -14q-4 63 -6 129.5t-3 127t-1 103.5v1004h138v-1490h-159l-636 947q-32 48 -69 106.5t-82 131.5t-101 165l23 17q4 -93 6.5 -172t3.5 -141.5t1 -105.5v-948h-138zM594 -494l85 376h137l-120 -376
h-102z" />
    <glyph glyph-name="uni0146" unicode="&#x146;" horiz-adv-x="1148" 
d="M279 666v-666h-131v1084h128v-256h-29q46 142 144 207t224 65q111 0 198 -47t137.5 -138t50.5 -223v-692h-132v683q0 140 -76 218t-206 78q-87 0 -156.5 -36t-110.5 -106t-41 -171zM418 -494l85 376h137l-120 -376h-102z" />
    <glyph glyph-name="Ncaron" unicode="&#x147;" horiz-adv-x="1499" 
d="M174 0v1490h157l682 -1019q27 -39 60.5 -92.5t70.5 -114.5t73 -124l-20 -14q-4 63 -6 129.5t-3 127t-1 103.5v1004h138v-1490h-159l-636 947q-32 48 -69 106.5t-82 131.5t-101 165l23 17q4 -93 6.5 -172t3.5 -141.5t1 -105.5v-948h-138zM581 1931l168 -194l168 194h135
v-4l-242 -272h-122l-241 272v4h134z" />
    <glyph glyph-name="ncaron" unicode="&#x148;" horiz-adv-x="1148" 
d="M279 666v-666h-131v1084h128v-256h-29q46 142 144 207t224 65q111 0 198 -47t137.5 -138t50.5 -223v-692h-132v683q0 140 -76 218t-206 78q-87 0 -156.5 -36t-110.5 -106t-41 -171zM406 1525l168 -194l168 194h135v-4l-242 -272h-122l-241 272v4h134z" />
    <glyph glyph-name="Eng" unicode="&#x14a;" horiz-adv-x="1499" 
d="M980 -418v120q17 -1 41 -1h38q72 0 101.5 27.5t29.5 89.5v310h138v-315q0 -116 -64 -175t-188 -59q-27 0 -52.5 1t-43.5 2zM174 0v1490h157l682 -1019q27 -39 60.5 -92.5t70.5 -114.5t73 -124l-20 -14q-4 63 -6 129.5t-3 127t-1 103.5v1004h138v-1490h-159l-636 947
q-32 48 -69 106.5t-82 131.5t-101 165l23 17q4 -93 6.5 -172t3.5 -141.5t1 -105.5v-948h-138z" />
    <glyph glyph-name="eng" unicode="&#x14b;" horiz-adv-x="1148" 
d="M653 -418v120q17 -1 44.5 -1h40.5q72 0 101.5 27.5t29.5 89.5v182h132v-187q0 -116 -64 -175t-189 -59q-26 0 -51.5 1t-43.5 2zM279 666v-666h-131v1084h128v-256h-29q46 142 144 207t224 65q111 0 198 -47t137.5 -138t50.5 -223v-692h-132v683q0 140 -76 218t-206 78
q-87 0 -156.5 -36t-110.5 -106t-41 -171z" />
    <glyph glyph-name="Omacron" unicode="&#x14c;" horiz-adv-x="1518" 
d="M760 -21q-191 0 -338.5 96t-231 268.5t-83.5 400.5q0 230 83.5 402t231 268.5t338.5 96.5t338 -96.5t230 -268.5t83 -402q0 -228 -83 -400.5t-230 -268.5t-338 -96zM760 109q146 0 262.5 75.5t184.5 218t68 341.5q0 200 -68 342.5t-184.5 218.5t-262.5 76t-263 -75.5
t-185 -218.5t-68 -343q0 -198 67.5 -340.5t184.5 -218.5t264 -76zM1022 1845v-109h-523v109h523z" />
    <glyph glyph-name="omacron" unicode="&#x14d;" horiz-adv-x="1152" 
d="M576 -23q-144 0 -254 72t-171.5 198.5t-61.5 291.5t61.5 292t171.5 199t254 72t253.5 -72t171.5 -199t62 -292t-61.5 -291.5t-171.5 -198.5t-254 -72zM576 98q111 0 190 57t121.5 157t42.5 227t-42.5 227t-121.5 158t-190 58q-110 0 -189.5 -58t-122 -158t-42.5 -227
t42.5 -227t121.5 -157t190 -57zM838 1439v-109h-523v109h523z" />
    <glyph glyph-name="Obreve" unicode="&#x14e;" horiz-adv-x="1518" 
d="M760 -21q-191 0 -338.5 96t-231 268.5t-83.5 400.5q0 230 83.5 402t231 268.5t338.5 96.5t338 -96.5t230 -268.5t83 -402q0 -228 -83 -400.5t-230 -268.5t-338 -96zM760 109q146 0 262.5 75.5t184.5 218t68 341.5q0 200 -68 342.5t-184.5 218.5t-262.5 76t-263 -75.5
t-185 -218.5t-68 -343q0 -198 67.5 -340.5t184.5 -218.5t264 -76zM760 1648q-78 0 -141 37t-100.5 99t-37.5 139h102q0 -76 50.5 -126t126.5 -50q75 0 126 50t51 126h102q0 -77 -37.5 -139t-100.5 -99t-141 -37z" />
    <glyph glyph-name="obreve" unicode="&#x14f;" horiz-adv-x="1152" 
d="M576 -23q-144 0 -254 72t-171.5 198.5t-61.5 291.5t61.5 292t171.5 199t254 72t253.5 -72t171.5 -199t62 -292t-61.5 -291.5t-171.5 -198.5t-254 -72zM576 98q111 0 190 57t121.5 157t42.5 227t-42.5 227t-121.5 158t-190 58q-110 0 -189.5 -58t-122 -158t-42.5 -227
t42.5 -227t121.5 -157t190 -57zM576 1242q-78 0 -141 37t-100.5 99t-37.5 139h102q0 -76 50.5 -126t126.5 -50q75 0 126 50t51 126h102q0 -77 -37.5 -139t-100.5 -99t-141 -37z" />
    <glyph glyph-name="Ohungarumlaut" unicode="&#x150;" horiz-adv-x="1518" 
d="M760 -21q-191 0 -338.5 96t-231 268.5t-83.5 400.5q0 230 83.5 402t231 268.5t338.5 96.5t338 -96.5t230 -268.5t83 -402q0 -228 -83 -400.5t-230 -268.5t-338 -96zM760 109q146 0 262.5 75.5t184.5 218t68 341.5q0 200 -68 342.5t-184.5 218.5t-262.5 76t-263 -75.5
t-185 -218.5t-68 -343q0 -198 67.5 -340.5t184.5 -218.5t264 -76zM609 1633h-112l120 293h149zM892 1633h-113l162 293h150z" />
    <glyph glyph-name="ohungarumlaut" unicode="&#x151;" horiz-adv-x="1152" 
d="M576 -23q-144 0 -254 72t-171.5 198.5t-61.5 291.5t61.5 292t171.5 199t254 72t253.5 -72t171.5 -199t62 -292t-61.5 -291.5t-171.5 -198.5t-254 -72zM576 98q111 0 190 57t121.5 157t42.5 227t-42.5 227t-121.5 158t-190 58q-110 0 -189.5 -58t-122 -158t-42.5 -227
t42.5 -227t121.5 -157t190 -57zM425 1227h-112l120 293h149zM708 1227h-113l162 293h150z" />
    <glyph glyph-name="OE" unicode="&#x152;" horiz-adv-x="1979" 
d="M774 0q-203 0 -353 92.5t-232 260t-82 392.5q0 227 81.5 394t230 259t348.5 92h253v-125h-249q-164 0 -282.5 -76t-182.5 -215t-64 -328q0 -188 64 -328t184.5 -217t288.5 -77h238v-124h-243zM959 0v1490h913v-124h-775v-547h718v-124h-718v-571h780v-124h-918z" />
    <glyph glyph-name="oe" unicode="&#x153;" horiz-adv-x="1975" 
d="M576 -23q-144 0 -254 72t-171.5 198.5t-61.5 291.5t61.5 292t171.5 199t254 72t253.5 -72t171.5 -199t62 -292t-61.5 -291.5t-171.5 -198.5t-254 -72zM576 98q111 0 190 57t121.5 157t42.5 227t-42.5 227t-121.5 158t-190 58q-110 0 -189.5 -58t-122 -158t-42.5 -227
t42.5 -227t121.5 -157t190 -57zM1430 -23q-153 0 -264 72.5t-171 199t-60 289.5q0 164 61 291t169.5 200t250.5 73q100 0 186.5 -37t151 -108t100.5 -172.5t36 -231.5v-48h-878v115h805l-58 -40q0 118 -42.5 209t-119.5 142.5t-181 51.5q-105 0 -183.5 -52.5t-122.5 -144
t-44 -207.5v-57q0 -126 44.5 -222t126 -149.5t193.5 -53.5q79 0 141.5 26.5t105 72.5t62.5 104l129 -18q-24 -87 -85 -156t-151 -109t-202 -40z" />
    <glyph glyph-name="Racute" unicode="&#x154;" horiz-adv-x="1276" 
d="M174 0v1490h510q151 0 258.5 -55.5t164.5 -156t57 -234.5q0 -133 -58.5 -232.5t-167 -154.5t-258.5 -55h-430v125h431q110 0 187 39t118 110.5t41 167.5q0 99 -41 170.5t-118.5 111.5t-188.5 40h-367v-1366h-138zM1041 0l-361 673h157l364 -673h-160zM574 1633l138 293
h150l-177 -293h-111z" />
    <glyph glyph-name="racute" unicode="&#x155;" horiz-adv-x="671" 
d="M148 0v1084h127v-176h6q33 86 110 137.5t182 51.5q17 0 33.5 -1t28.5 -2v-132q-8 2 -30 5t-49 3q-78 0 -141 -34.5t-99.5 -98t-36.5 -152.5v-685h-131zM334 1227l138 293h150l-177 -293h-111z" />
    <glyph glyph-name="uni0156" unicode="&#x156;" horiz-adv-x="1276" 
d="M174 0v1490h510q151 0 258.5 -55.5t164.5 -156t57 -234.5q0 -133 -58.5 -232.5t-167 -154.5t-258.5 -55h-430v125h431q110 0 187 39t118 110.5t41 167.5q0 99 -41 170.5t-118.5 111.5t-188.5 40h-367v-1366h-138zM1041 0l-361 673h157l364 -673h-160zM492 -494l85 376
h137l-120 -376h-102z" />
    <glyph glyph-name="uni0157" unicode="&#x157;" horiz-adv-x="671" 
d="M148 0v1084h127v-176h6q33 86 110 137.5t182 51.5q17 0 33.5 -1t28.5 -2v-132q-8 2 -30 5t-49 3q-78 0 -141 -34.5t-99.5 -98t-36.5 -152.5v-685h-131zM57 -494l85 376h137l-120 -376h-102z" />
    <glyph glyph-name="Rcaron" unicode="&#x158;" horiz-adv-x="1276" 
d="M174 0v1490h510q151 0 258.5 -55.5t164.5 -156t57 -234.5q0 -133 -58.5 -232.5t-167 -154.5t-258.5 -55h-430v125h431q110 0 187 39t118 110.5t41 167.5q0 99 -41 170.5t-118.5 111.5t-188.5 40h-367v-1366h-138zM1041 0l-361 673h157l364 -673h-160zM465 1931l168 -194
l168 194h135v-4l-242 -272h-122l-241 272v4h134z" />
    <glyph glyph-name="rcaron" unicode="&#x159;" horiz-adv-x="671" 
d="M148 0v1084h127v-176h6q33 86 110 137.5t182 51.5q17 0 33.5 -1t28.5 -2v-132q-8 2 -30 5t-49 3q-78 0 -141 -34.5t-99.5 -98t-36.5 -152.5v-685h-131zM225 1525l168 -194l168 194h135v-4l-242 -272h-122l-241 272v4h134z" />
    <glyph glyph-name="Sacute" unicode="&#x15a;" horiz-adv-x="1250" 
d="M627 -24q-156 0 -272 54t-181 151.5t-70 228.5h141q5 -96 53.5 -165t133.5 -105.5t195 -36.5q113 0 199 36t134.5 102.5t48.5 154.5q0 71 -34.5 121.5t-103 88t-172.5 65.5l-172 48q-196 54 -292 147t-96 236q0 122 63 214.5t173.5 144t252.5 51.5q144 0 252 -53.5
t170 -148t67 -218.5h-136q-11 134 -107 214t-250 80q-101 0 -180 -35.5t-124 -98.5t-45 -144q0 -69 37 -119.5t104 -85.5t159 -61l163 -45q90 -24 164.5 -59t129 -82.5t84 -111t29.5 -146.5q0 -122 -63.5 -218t-180 -150t-274.5 -54zM564 1633l138 293h150l-177 -293h-111z
" />
    <glyph glyph-name="sacute" unicode="&#x15b;" horiz-adv-x="999" 
d="M502 -22q-112 0 -199 36t-141.5 106.5t-66.5 173.5l128 14q16 -104 87 -159t190 -55q125 0 199 56t74 141q0 68 -47 109t-135 61l-178 43q-143 34 -216 105.5t-73 183.5q0 91 49 160.5t135.5 109t198.5 39.5q107 0 187.5 -37t130 -105t63.5 -163l-125 -14
q-15 91 -79 147.5t-177 56.5q-112 0 -181.5 -53.5t-69.5 -137.5q0 -69 49.5 -111t144.5 -65l173 -41q144 -34 214 -103t70 -180q0 -96 -51.5 -167.5t-143 -111t-210.5 -39.5zM447 1227l138 293h150l-177 -293h-111z" />
    <glyph glyph-name="Scircumflex" unicode="&#x15c;" horiz-adv-x="1250" 
d="M627 -24q-156 0 -272 54t-181 151.5t-70 228.5h141q5 -96 53.5 -165t133.5 -105.5t195 -36.5q113 0 199 36t134.5 102.5t48.5 154.5q0 71 -34.5 121.5t-103 88t-172.5 65.5l-172 48q-196 54 -292 147t-96 236q0 122 63 214.5t173.5 144t252.5 51.5q144 0 252 -53.5
t170 -148t67 -218.5h-136q-11 134 -107 214t-250 80q-101 0 -180 -35.5t-124 -98.5t-45 -144q0 -69 37 -119.5t104 -85.5t159 -61l163 -45q90 -24 164.5 -59t129 -82.5t84 -111t29.5 -146.5q0 -122 -63.5 -218t-180 -150t-274.5 -54zM454 1656h-134v4l241 272h122l242 -272
v-4h-135l-168 194z" />
    <glyph glyph-name="scircumflex" unicode="&#x15d;" horiz-adv-x="999" 
d="M502 -22q-112 0 -199 36t-141.5 106.5t-66.5 173.5l128 14q16 -104 87 -159t190 -55q125 0 199 56t74 141q0 68 -47 109t-135 61l-178 43q-143 34 -216 105.5t-73 183.5q0 91 49 160.5t135.5 109t198.5 39.5q107 0 187.5 -37t130 -105t63.5 -163l-125 -14
q-15 91 -79 147.5t-177 56.5q-112 0 -181.5 -53.5t-69.5 -137.5q0 -69 49.5 -111t144.5 -65l173 -41q144 -34 214 -103t70 -180q0 -96 -51.5 -167.5t-143 -111t-210.5 -39.5zM338 1250h-134v4l241 272h122l242 -272v-4h-135l-168 194z" />
    <glyph glyph-name="Scedilla" unicode="&#x15e;" horiz-adv-x="1250" 
d="M627 -24q-156 0 -272 54t-181 151.5t-70 228.5h141q5 -96 53.5 -165t133.5 -105.5t195 -36.5q113 0 199 36t134.5 102.5t48.5 154.5q0 71 -34.5 121.5t-103 88t-172.5 65.5l-172 48q-196 54 -292 147t-96 236q0 122 63 214.5t173.5 144t252.5 51.5q144 0 252 -53.5
t170 -148t67 -218.5h-136q-11 134 -107 214t-250 80q-101 0 -180 -35.5t-124 -98.5t-45 -144q0 -69 37 -119.5t104 -85.5t159 -61l163 -45q90 -24 164.5 -59t129 -82.5t84 -111t29.5 -146.5q0 -122 -63.5 -218t-180 -150t-274.5 -54zM522 -418v85h111q56 0 83.5 20t27.5 61
q0 40 -27.5 60.5t-85.5 20.5h-74l33 209h77v-38l-8 -92q90 -3 139 -44.5t49 -115.5q0 -83 -56 -124.5t-157 -41.5h-112z" />
    <glyph glyph-name="scedilla" unicode="&#x15f;" horiz-adv-x="999" 
d="M502 -22q-112 0 -199 36t-141.5 106.5t-66.5 173.5l128 14q16 -104 87 -159t190 -55q125 0 199 56t74 141q0 68 -47 109t-135 61l-178 43q-143 34 -216 105.5t-73 183.5q0 91 49 160.5t135.5 109t198.5 39.5q107 0 187.5 -37t130 -105t63.5 -163l-125 -14
q-15 91 -79 147.5t-177 56.5q-112 0 -181.5 -53.5t-69.5 -137.5q0 -69 49.5 -111t144.5 -65l173 -41q144 -34 214 -103t70 -180q0 -96 -51.5 -167.5t-143 -111t-210.5 -39.5zM401 -418v85h111q56 0 83.5 20t27.5 61q0 40 -27.5 60.5t-85.5 20.5h-74l33 209h77v-38l-8 -92
q90 -3 139 -44.5t49 -115.5q0 -83 -56 -124.5t-157 -41.5h-112z" />
    <glyph glyph-name="Scaron" unicode="&#x160;" horiz-adv-x="1250" 
d="M627 -24q-156 0 -272 54t-181 151.5t-70 228.5h141q5 -96 53.5 -165t133.5 -105.5t195 -36.5q113 0 199 36t134.5 102.5t48.5 154.5q0 71 -34.5 121.5t-103 88t-172.5 65.5l-172 48q-196 54 -292 147t-96 236q0 122 63 214.5t173.5 144t252.5 51.5q144 0 252 -53.5
t170 -148t67 -218.5h-136q-11 134 -107 214t-250 80q-101 0 -180 -35.5t-124 -98.5t-45 -144q0 -69 37 -119.5t104 -85.5t159 -61l163 -45q90 -24 164.5 -59t129 -82.5t84 -111t29.5 -146.5q0 -122 -63.5 -218t-180 -150t-274.5 -54zM454 1931l168 -194l168 194h135v-4
l-242 -272h-122l-241 272v4h134z" />
    <glyph glyph-name="scaron" unicode="&#x161;" horiz-adv-x="999" 
d="M502 -22q-112 0 -199 36t-141.5 106.5t-66.5 173.5l128 14q16 -104 87 -159t190 -55q125 0 199 56t74 141q0 68 -47 109t-135 61l-178 43q-143 34 -216 105.5t-73 183.5q0 91 49 160.5t135.5 109t198.5 39.5q107 0 187.5 -37t130 -105t63.5 -163l-125 -14
q-15 91 -79 147.5t-177 56.5q-112 0 -181.5 -53.5t-69.5 -137.5q0 -69 49.5 -111t144.5 -65l173 -41q144 -34 214 -103t70 -180q0 -96 -51.5 -167.5t-143 -111t-210.5 -39.5zM338 1525l168 -194l168 194h135v-4l-242 -272h-122l-241 272v4h134z" />
    <glyph glyph-name="uni021A" unicode="&#x162;" horiz-adv-x="1265" 
d="M78 1366v124h1109v-124h-485v-1366h-138v1366h-486zM529 -418v85h111q56 0 83.5 20t27.5 61q0 40 -27.5 60.5t-85.5 20.5h-74l33 209h77v-38l-8 -92q90 -3 139 -44.5t49 -115.5q0 -83 -56 -124.5t-157 -41.5h-112z" />
    <glyph glyph-name="uni0163" unicode="&#x163;" horiz-adv-x="595" 
d="M543 1084v-115h-530v115h530zM187 1362h132v-1113q0 -74 32.5 -107t105.5 -30q18 0 41 1.5t42 3.5l13 -115q-23 -3 -50 -5t-52 -2q-128 -4 -196 60t-68 184v1123zM273 -418v85h111q56 0 83.5 20t27.5 61q0 40 -27.5 60.5t-85.5 20.5h-74l33 209h77v-38l-8 -92
q90 -3 139 -44.5t49 -115.5q0 -83 -56 -124.5t-157 -41.5h-112z" />
    <glyph glyph-name="Tcaron" unicode="&#x164;" horiz-adv-x="1265" 
d="M78 1366v124h1109v-124h-485v-1366h-138v1366h-486zM464 1931l168 -194l168 194h135v-4l-242 -272h-122l-241 272v4h134z" />
    <glyph glyph-name="tcaron" unicode="&#x165;" horiz-adv-x="661" 
d="M543 1084v-115h-530v115h530zM187 1362h132v-1113q0 -74 32.5 -107t105.5 -30q18 0 41 1.5t42 3.5l13 -115q-23 -3 -50 -5t-52 -2q-128 -4 -196 60t-68 184v1123zM411 1209v378h136l-40 -378h-96z" />
    <glyph glyph-name="Tbar" unicode="&#x166;" horiz-adv-x="1265" 
d="M78 1366v124h1109v-124h-485v-1366h-138v1366h-486zM255 707v120h756v-120h-756z" />
    <glyph glyph-name="tbar" unicode="&#x167;" horiz-adv-x="595" 
d="M543 747v-115h-530v115h530zM543 1084v-115h-530v115h530zM187 1362h132v-1113q0 -74 32.5 -107t105.5 -30q18 0 41 1.5t42 3.5l13 -115q-23 -3 -50 -5t-52 -2q-128 -4 -196 60t-68 184v1123z" />
    <glyph glyph-name="Utilde" unicode="&#x168;" horiz-adv-x="1453" 
d="M727 -22q-168 0 -295.5 68.5t-199 188.5t-71.5 272v983h138v-974q0 -118 53 -210t149.5 -145.5t225.5 -53.5t225 53.5t149 145.5t53 210v974h139v-983q0 -153 -71.5 -272.5t-199 -188t-295.5 -68.5zM857 1700q-38 0 -72 14t-64 32.5t-56.5 32.5t-50.5 14
q-34 0 -52.5 -26.5t-21.5 -62.5h-98q4 82 44 136t114 54q41 0 74 -14.5t61 -33.5t54 -33.5t53 -14.5q31 0 48.5 21t25.5 68h96q-6 -85 -46.5 -136t-108.5 -51z" />
    <glyph glyph-name="utilde" unicode="&#x169;" horiz-adv-x="1149" 
d="M534 -17q-111 0 -198.5 47t-137.5 138.5t-50 223.5v692h131v-683q0 -140 76.5 -218.5t205.5 -78.5q87 0 157 36.5t110.5 107t40.5 170.5v666h132v-1084h-128v255h28q-46 -142 -144 -207t-223 -65zM705 1294q-38 0 -72 14t-64 32.5t-56.5 32.5t-50.5 14q-34 0 -52.5 -26.5
t-21.5 -62.5h-98q4 82 44 136t114 54q41 0 74 -14.5t61 -33.5t54 -33.5t53 -14.5q31 0 48.5 21t25.5 68h96q-6 -85 -46.5 -136t-108.5 -51z" />
    <glyph glyph-name="Umacron" unicode="&#x16a;" horiz-adv-x="1453" 
d="M727 -22q-168 0 -295.5 68.5t-199 188.5t-71.5 272v983h138v-974q0 -118 53 -210t149.5 -145.5t225.5 -53.5t225 53.5t149 145.5t53 210v974h139v-983q0 -153 -71.5 -272.5t-199 -188t-295.5 -68.5zM989 1845v-109h-523v109h523z" />
    <glyph glyph-name="umacron" unicode="&#x16b;" horiz-adv-x="1149" 
d="M534 -17q-111 0 -198.5 47t-137.5 138.5t-50 223.5v692h131v-683q0 -140 76.5 -218.5t205.5 -78.5q87 0 157 36.5t110.5 107t40.5 170.5v666h132v-1084h-128v255h28q-46 -142 -144 -207t-223 -65zM836 1439v-109h-523v109h523z" />
    <glyph glyph-name="Ubreve" unicode="&#x16c;" horiz-adv-x="1453" 
d="M727 -22q-168 0 -295.5 68.5t-199 188.5t-71.5 272v983h138v-974q0 -118 53 -210t149.5 -145.5t225.5 -53.5t225 53.5t149 145.5t53 210v974h139v-983q0 -153 -71.5 -272.5t-199 -188t-295.5 -68.5zM727 1648q-78 0 -141 37t-100.5 99t-37.5 139h102q0 -76 50.5 -126
t126.5 -50q75 0 126 50t51 126h102q0 -77 -37.5 -139t-100.5 -99t-141 -37z" />
    <glyph glyph-name="ubreve" unicode="&#x16d;" horiz-adv-x="1149" 
d="M534 -17q-111 0 -198.5 47t-137.5 138.5t-50 223.5v692h131v-683q0 -140 76.5 -218.5t205.5 -78.5q87 0 157 36.5t110.5 107t40.5 170.5v666h132v-1084h-128v255h28q-46 -142 -144 -207t-223 -65zM574 1242q-78 0 -141 37t-100.5 99t-37.5 139h102q0 -76 50.5 -126
t126.5 -50q75 0 126 50t51 126h102q0 -77 -37.5 -139t-100.5 -99t-141 -37z" />
    <glyph glyph-name="Uring" unicode="&#x16e;" horiz-adv-x="1453" 
d="M727 -22q-168 0 -295.5 68.5t-199 188.5t-71.5 272v983h138v-974q0 -118 53 -210t149.5 -145.5t225.5 -53.5t225 53.5t149 145.5t53 210v974h139v-983q0 -153 -71.5 -272.5t-199 -188t-295.5 -68.5zM727 1590q-61 0 -111 29t-80 77.5t-30 106.5q0 59 30 107t80 77t111 29
t111 -29t80 -77t30 -107q0 -58 -30 -106.5t-80 -77.5t-111 -29zM727 1688q49 0 82.5 33.5t33.5 81.5t-33.5 82t-82.5 34q-48 0 -82.5 -34t-34.5 -82t34 -81.5t83 -33.5z" />
    <glyph glyph-name="uring" unicode="&#x16f;" horiz-adv-x="1149" 
d="M534 -17q-111 0 -198.5 47t-137.5 138.5t-50 223.5v692h131v-683q0 -140 76.5 -218.5t205.5 -78.5q87 0 157 36.5t110.5 107t40.5 170.5v666h132v-1084h-128v255h28q-46 -142 -144 -207t-223 -65zM574 1190q-61 0 -111.5 28.5t-80 77t-29.5 107.5t30 107t80 77t111 29
t111 -29t80 -77t30 -107t-30 -107t-80 -77t-111 -29zM574 1287q49 0 83 34t34 82t-34 81.5t-83 33.5q-48 0 -82.5 -33.5t-34.5 -81.5t34.5 -82t82.5 -34z" />
    <glyph glyph-name="Uhungarumlaut" unicode="&#x170;" horiz-adv-x="1453" 
d="M727 -22q-168 0 -295.5 68.5t-199 188.5t-71.5 272v983h138v-974q0 -118 53 -210t149.5 -145.5t225.5 -53.5t225 53.5t149 145.5t53 210v974h139v-983q0 -153 -71.5 -272.5t-199 -188t-295.5 -68.5zM576 1633h-112l120 293h149zM859 1633h-113l162 293h150z" />
    <glyph glyph-name="uhungarumlaut" unicode="&#x171;" horiz-adv-x="1149" 
d="M534 -17q-111 0 -198.5 47t-137.5 138.5t-50 223.5v692h131v-683q0 -140 76.5 -218.5t205.5 -78.5q87 0 157 36.5t110.5 107t40.5 170.5v666h132v-1084h-128v255h28q-46 -142 -144 -207t-223 -65zM424 1227h-112l120 293h149zM707 1227h-113l162 293h150z" />
    <glyph glyph-name="Uogonek" unicode="&#x172;" horiz-adv-x="1453" 
d="M727 -22q-168 0 -295.5 68.5t-199 188.5t-71.5 272v983h138v-974q0 -118 53 -210t149.5 -145.5t225.5 -53.5t225 53.5t149 145.5t53 210v974h139v-983q0 -153 -71.5 -272.5t-199 -188t-295.5 -68.5zM799 -425q-92 0 -150 46.5t-58 132.5q0 65 34.5 112t92 83.5t125.5 72
t136.5 76.5t125.5 95.5t92 131t35 182.5h60q0 -128 -40.5 -218.5t-105.5 -153t-137.5 -108t-137 -83t-105.5 -77t-41 -92.5q0 -40 25.5 -62.5t77.5 -22.5q18 0 35 3t31 7l20 -108q-24 -6 -53 -11.5t-62 -5.5z" />
    <glyph glyph-name="uogonek" unicode="&#x173;" horiz-adv-x="1149" 
d="M534 -17q-111 0 -198.5 47t-137.5 138.5t-50 223.5v692h131v-683q0 -140 76.5 -218.5t205.5 -78.5q87 0 157 36.5t110.5 107t40.5 170.5v666h132v-1084h-128v255h28q-46 -142 -144 -207t-223 -65zM907 -425q-92 0 -148.5 46.5t-56.5 132.5q0 78 50 145t149 134l100 -33
q-80 -68 -123.5 -119t-43.5 -106q0 -40 25 -62.5t77 -22.5q18 0 35 3t31 7l20 -108q-24 -6 -52.5 -11.5t-62.5 -5.5z" />
    <glyph glyph-name="Wcircumflex" unicode="&#x174;" horiz-adv-x="1935" 
d="M448 0l-412 1490h141l267 -995q18 -67 34.5 -134.5t32 -136t30.5 -137.5h-19q15 69 30.5 137.5t32.5 136t34 134.5l266 995h165l264 -995q18 -67 35 -134.5t33 -136t31 -137.5h-21q15 69 31 137.5t33 136t35 134.5l265 995h143l-413 -1490h-167l-273 1003
q-25 95 -48.5 195t-45.5 210h30q-23 -108 -45.5 -207t-49.5 -198l-272 -1003h-167zM799 1656h-134v4l241 272h122l242 -272v-4h-135l-168 194z" />
    <glyph glyph-name="wcircumflex" unicode="&#x175;" horiz-adv-x="1585" 
d="M379 0l-327 1084h138l167 -582q26 -92 52 -193t53 -211h-23q27 108 54 209t54 195l176 582h140l175 -582q27 -93 53.5 -194t53.5 -210h-24q27 108 53.5 209.5t52.5 194.5l168 582h139l-328 -1084h-140l-189 616q-17 61 -34 123t-33.5 125.5t-34.5 127.5h35
q-17 -63 -34 -127t-33.5 -126.5t-35.5 -122.5l-189 -616h-139zM624 1250h-134v4l241 272h122l242 -272v-4h-135l-168 194z" />
    <glyph glyph-name="Ycircumflex" unicode="&#x176;" horiz-adv-x="1320" 
d="M591 0v643l-555 847h161l319 -487q47 -72 89 -142t85 -151h-57q42 82 84.5 152t88.5 141l317 487h160l-554 -847v-643h-138zM491 1656h-134v4l241 272h122l242 -272v-4h-135l-168 194z" />
    <glyph glyph-name="ycircumflex" unicode="&#x177;" horiz-adv-x="1079" 
d="M132 -411l17 116l61 -2q49 -8 86 3t67 46.5t54 100.5l55 145l-424 1086h143l255 -671q32 -85 59.5 -169.5t55.5 -167.5h-41q28 83 56 167.5t60 169.5l253 671h142l-498 -1277q-31 -78 -72 -128.5t-94.5 -75.5t-121.5 -25q-34 0 -61.5 3.5t-51.5 7.5zM371 1250h-134v4
l241 272h122l242 -272v-4h-135l-168 194z" />
    <glyph glyph-name="Ydieresis" unicode="&#x178;" horiz-adv-x="1320" 
d="M591 0v643l-555 847h161l319 -487q47 -72 89 -142t85 -151h-57q42 82 84.5 152t88.5 141l317 487h160l-554 -847v-643h-138zM868 1709q-39 0 -66.5 27.5t-27.5 66.5t27.5 66t66.5 27q38 0 65.5 -27t27.5 -66t-27.5 -66.5t-65.5 -27.5zM453 1709q-38 0 -66 27.5t-28 66.5
t28 66t66 27q39 0 66.5 -27t27.5 -66t-27.5 -66.5t-66.5 -27.5z" />
    <glyph glyph-name="Zacute" unicode="&#x179;" horiz-adv-x="1257" 
d="M97 0v113l750 1052q45 63 92.5 126t95.5 126l16 -49q-85 -2 -170 -2.5t-170 -0.5h-596v125h1040v-114l-742 -1041q-47 -66 -96.5 -131.5t-99.5 -130.5l-16 49q84 1 167.5 1.5t166.5 0.5h627v-124h-1065zM569 1633l138 293h150l-177 -293h-111z" />
    <glyph glyph-name="zacute" unicode="&#x17a;" horiz-adv-x="1026" 
d="M110 0v103l628 854v5h-614v122h779v-109l-620 -848v-6h633v-121h-806zM448 1227l138 293h150l-177 -293h-111z" />
    <glyph glyph-name="Zdotaccent" unicode="&#x17b;" horiz-adv-x="1257" 
d="M97 0v113l750 1052q45 63 92.5 126t95.5 126l16 -49q-85 -2 -170 -2.5t-170 -0.5h-596v125h1040v-114l-742 -1041q-47 -66 -96.5 -131.5t-99.5 -130.5l-16 49q84 1 167.5 1.5t166.5 0.5h627v-124h-1065zM628 1709q-39 0 -67.5 27.5t-28.5 66.5t28.5 66.5t67.5 27.5
q40 0 68 -27.5t28 -66.5t-28 -66.5t-68 -27.5z" />
    <glyph glyph-name="zdotaccent" unicode="&#x17c;" horiz-adv-x="1026" 
d="M110 0v103l628 854v5h-614v122h779v-109l-620 -848v-6h633v-121h-806zM507 1303q-39 0 -67.5 27.5t-28.5 66.5t28.5 66.5t67.5 27.5q40 0 68 -27.5t28 -66.5t-28 -66.5t-68 -27.5z" />
    <glyph glyph-name="Zcaron" unicode="&#x17d;" horiz-adv-x="1257" 
d="M97 0v113l750 1052q45 63 92.5 126t95.5 126l16 -49q-85 -2 -170 -2.5t-170 -0.5h-596v125h1040v-114l-742 -1041q-47 -66 -96.5 -131.5t-99.5 -130.5l-16 49q84 1 167.5 1.5t166.5 0.5h627v-124h-1065zM459 1931l168 -194l168 194h135v-4l-242 -272h-122l-241 272v4h134
z" />
    <glyph glyph-name="zcaron" unicode="&#x17e;" horiz-adv-x="1026" 
d="M110 0v103l628 854v5h-614v122h779v-109l-620 -848v-6h633v-121h-806zM339 1525l168 -194l168 194h135v-4l-242 -272h-122l-241 272v4h134z" />
    <glyph glyph-name="longs" unicode="&#x17f;" horiz-adv-x="537" 
d="M148 0v1268q0 80 35 136.5t96 86.5t139 30q40 0 71.5 -4t47.5 -8l-17 -114q-14 2 -39 4.5t-51 2.5q-76 0 -113 -39t-37 -117v-1246h-132z" />
    <glyph glyph-name="bbar" unicode="&#x180;" horiz-adv-x="1184" 
d="M635 -21q-88 0 -157 30.5t-117.5 82t-76.5 112.5h-8v-204h-128v1490h131v-613h6q26 61 74 111.5t117.5 81t158.5 30.5q136 0 239.5 -70t162 -196t58.5 -294q0 -167 -58 -293.5t-161.5 -197t-240.5 -70.5zM618 99q104 0 181.5 55t120 154.5t42.5 232.5t-42.5 232
t-119.5 153.5t-182 54.5q-107 0 -184.5 -55t-119 -154t-41.5 -231q0 -131 42 -231t119 -155.5t184 -55.5zM-29 1226v110h613v-110h-613z" />
    <glyph glyph-name="uni0181" unicode="&#x181;" horiz-adv-x="1544" 
d="M51 1092v144q0 127 65.5 190.5t195.5 63.5h101v-124h-99q-70 0 -102 -32t-32 -100v-142h-129zM414 0v1490h510q145 0 246.5 -49t155 -136.5t53.5 -204.5q0 -89 -31.5 -155t-86.5 -109.5t-126 -64.5v-6q78 -10 147 -54.5t112.5 -122t43.5 -186.5q0 -119 -54 -209.5
t-163 -141.5t-272 -51h-535zM552 124h395q174 0 264 75.5t90 200.5q0 88 -43.5 154.5t-121.5 104t-182 37.5h-402v-572zM552 817h388q92 0 160.5 36t106 98.5t37.5 143.5q0 124 -83.5 197.5t-235.5 73.5h-373v-549z" />
    <glyph glyph-name="uni0182" unicode="&#x182;" horiz-adv-x="1292" 
d="M174 0v1490h872v-125h-733v-529h419q150 1 255 -49.5t160.5 -142t55.5 -215.5q0 -128 -55 -225t-160 -150.5t-256 -53.5h-558zM313 123h419q107 0 181.5 41t113.5 111.5t39 155.5q0 120 -88 200.5t-246 80.5h-419v-589z" />
    <glyph glyph-name="uni0183" unicode="&#x183;" horiz-adv-x="1184" 
d="M216 1373l-68 117h779v-117h-711zM635 -21q-88 0 -157 30.5t-117.5 82t-76.5 112.5h-8v-204h-128v1490h131v-613h6q26 61 74 111.5t117.5 81t158.5 30.5q136 0 239.5 -70t162 -196t58.5 -294q0 -167 -58 -293.5t-161.5 -197t-240.5 -70.5zM618 99q104 0 181.5 55
t120 154.5t42.5 232.5t-42.5 232t-119.5 153.5t-182 54.5q-107 0 -184.5 -55t-119 -154t-41.5 -231q0 -131 42 -231t119 -155.5t184 -55.5z" />
    <glyph glyph-name="uni0184" unicode="&#x184;" horiz-adv-x="1485" 
d="M151 966l-115 64l261 460h152zM491 879h433q146 0 252 -54.5t163 -152.5t57 -227q0 -134 -57 -234.5t-162.5 -155.5t-252.5 -55h-533v1490h139v-1367h391q157 0 247 88.5t90 234.5q0 91 -41 160.5t-116 109t-180 39.5h-430v124z" />
    <glyph glyph-name="uni0185" unicode="&#x185;" horiz-adv-x="1287" 
d="M154 619l-106 60l232 405h144zM476 675h326q122 0 210.5 -42.5t137 -118t48.5 -174.5t-48.5 -176t-137 -120.5t-210.5 -43.5h-435v1084h132v-960h301q121 0 193 58t72 156q0 97 -72 155t-193 58h-324v124z" />
    <glyph glyph-name="uni0186" unicode="&#x186;" horiz-adv-x="1461" 
d="M697 1511q194 0 342 -96t231.5 -268t83.5 -401t-83.5 -402t-231.5 -269t-342 -96q-121 0 -222 38t-178.5 105.5t-127 157t-68.5 193.5h140q17 -78 56 -144.5t98 -116t135 -76.5t167 -27q149 0 266.5 76t185.5 218.5t68 342.5t-68 342t-185.5 217.5t-266.5 75.5
q-90 0 -166.5 -27.5t-135 -76.5t-98 -115t-56.5 -144h-140q18 103 68 192.5t127 157t178.5 105.5t222.5 38z" />
    <glyph glyph-name="uni0187" unicode="&#x187;" horiz-adv-x="1461" 
d="M1231 1017v428q0 116 64 175t189 59q27 0 50.5 -1t41.5 -2v-114q-17 0 -41 0.5t-38 0.5q-72 0 -105 -27.5t-33 -90.5v-428h-128zM764 -21q-194 0 -342 96t-231.5 268t-83.5 401q0 230 83 402.5t231.5 268.5t342.5 96q120 0 221.5 -38t179 -105.5t127 -157t67.5 -193.5
h-140q-16 79 -55 145t-98 115.5t-135.5 76.5t-166.5 27q-149 0 -266.5 -76t-185.5 -218.5t-68 -342.5t68 -342t185.5 -217.5t266.5 -75.5q90 0 166 27.5t135 76.5t98.5 115t56.5 144h139q-17 -103 -67 -192.5t-127.5 -157t-178.5 -105.5t-222 -38z" />
    <glyph glyph-name="uni0188" unicode="&#x188;" horiz-adv-x="1196" 
d="M895 763l-45 247q-30 129 29 193.5t186 64.5q28 0 50 -0.5t39 -1.5v-114q-18 1 -44 1.5t-41 0.5q-64 0 -89 -31t-11 -97l40 -253zM576 -21q-144 0 -254 71.5t-171.5 198t-61.5 290.5q0 166 61.5 292.5t171.5 198.5t254 72q86 0 159 -26t129 -71.5t93 -105t52 -126.5
l-130 -18q-10 44 -35 85t-63.5 73t-89.5 50.5t-115 18.5q-110 0 -189.5 -57.5t-122 -157.5t-42.5 -228q0 -127 42.5 -226.5t122 -156.5t189.5 -57q64 0 115 18.5t89.5 50.5t63.5 73.5t36 87.5l131 -18q-14 -67 -51.5 -127t-94.5 -106t-130 -72.5t-159 -26.5z" />
    <glyph glyph-name="Dbar1" unicode="&#x189;" horiz-adv-x="1461" 
d="M649 0h-361v124h353q191 0 319.5 75t193 215t64.5 335q0 192 -63 330t-185.5 212.5t-303.5 74.5h-384v124h392q214 0 366 -89t233.5 -255t81.5 -397q0 -235 -83 -402.5t-241 -257t-382 -89.5zM349 1490v-1490h-138v1490h138zM26 685v120h694v-120h-694z" />
    <glyph glyph-name="uni018A" unicode="&#x18a;" horiz-adv-x="1665" 
d="M51 1092v144q0 127 65.5 190.5t196.5 63.5h101v-124h-100q-70 0 -102 -32t-32 -100v-142h-129zM852 0h-361v124h353q191 0 319.5 75t193 215t64.5 335q0 192 -63 330t-185.5 212.5t-303.5 74.5h-384v124h392q214 0 366 -89t233.5 -255t81.5 -397q0 -235 -83.5 -402.5
t-241 -257t-381.5 -89.5zM552 1490v-1490h-138v1490h138z" />
    <glyph glyph-name="uni018B" unicode="&#x18b;" horiz-adv-x="1219" 
d="M1123 0h-556q-149 0 -254.5 53.5t-161 150.5t-55.5 225q0 124 55.5 216.5t161 143.5t254.5 51h401v498h-713v131h868v-1469zM968 128v583h-401q-159 0 -237 -80t-78 -199q0 -86 34 -155t104 -109t177 -40h401z" />
    <glyph glyph-name="uni018C" unicode="&#x18c;" horiz-adv-x="1184" 
d="M968 1373h-712v117h780zM548 -21q-135 0 -239 70.5t-162 197t-58 293.5q0 168 58.5 294t162 196t239.5 70q89 0 158 -30.5t117.5 -81t74.5 -111.5h6v613h131v-1490h-128v204h-8q-28 -61 -76.5 -112.5t-117 -82t-158.5 -30.5zM566 99q107 0 184 55.5t118.5 155.5t41.5 231
q0 132 -41.5 231t-118.5 154t-184 55q-104 0 -181.5 -54.5t-120 -153.5t-42.5 -232t42.5 -232.5t120 -154.5t181.5 -55z" />
    <glyph glyph-name="deltaturn" unicode="&#x18d;" horiz-adv-x="1010" 
d="M834 -376h-675v121l471 -1q-30 35 -75.5 81.5t-96 95.5t-96.5 92q-150 135 -237 265.5t-87 285.5v16q0 166 56 290.5t161 193.5t250 69t250 -69t161.5 -193t56.5 -290v-17q1 -128 -53.5 -233.5t-153.5 -171.5t-234 -78q-20 -1 -34 -0.5t-34 2.5q45 -42 92.5 -87
t95.5 -91.5t94 -93.5t88 -95v-92zM823 563v17q0 127 -35.5 223.5t-106 151t-176.5 54.5q-105 0 -175.5 -54t-106.5 -151t-36 -224v-16q0 -115 52.5 -207t135.5 -162q31 -9 58.5 -13t57.5 -4q109 0 182.5 52t111.5 139.5t38 193.5z" />
    <glyph glyph-name="Eturn" unicode="&#x18e;" horiz-adv-x="1194" 
d="M1020 1490v-1490h-913v124h775v547h-718v124h718v571h-781v124h919z" />
    <glyph glyph-name="uni018F" unicode="&#x18f;" horiz-adv-x="1487" 
d="M736 -21q-132 0 -245 44.5t-197 127t-130.5 196.5t-46.5 252v123h1181v-124h-1090l45 8q0 -151 63.5 -263t173 -173.5t246.5 -61.5q154 0 268 79t176.5 221.5t62.5 335.5q0 195 -65.5 338t-182 221.5t-267.5 78.5q-92 0 -168.5 -28.5t-136 -79t-99 -116t-56.5 -140.5
h-141q18 100 67.5 189t127.5 157.5t181 107.5t225 39q192 0 339 -96t230 -268t83 -403q0 -228 -79.5 -400.5t-224.5 -268.5t-340 -96z" />
    <glyph glyph-name="Epsilon1" unicode="&#x190;" horiz-adv-x="1207" 
d="M599 -21q-144 0 -256 55t-176 151.5t-64 218.5q0 92 39 167.5t111 126t170 68.5v6q-125 35 -198 125.5t-73 213.5q0 113 57 203.5t158.5 143.5t234.5 53q132 0 236 -53t164.5 -147t61.5 -217h-134q-1 91 -43.5 156.5t-115.5 102t-168 36.5q-94 0 -165 -36t-111 -100
t-40 -149q0 -84 44.5 -146.5t122.5 -96.5t178 -34h88v-124h-88q-117 0 -205.5 -37.5t-138 -104.5t-49.5 -156q0 -88 46 -157t127.5 -107.5t188.5 -38.5q104 0 184 37.5t126 106.5t47 163h140q-2 -127 -66.5 -224t-176.5 -151.5t-256 -54.5z" />
    <glyph glyph-name="uni0191" unicode="&#x191;" horiz-adv-x="1158" 
d="M-36 -418v120q17 -1 41 -1h37q72 0 102 27.5t30 89.5v310h138v-315q0 -116 -64 -175t-189 -59q-26 0 -51.5 1t-43.5 2zM174 0v1490h891v-124h-753v-554h683v-125h-683v-687h-138z" />
    <glyph glyph-name="florin" unicode="&#x192;" horiz-adv-x="685" 
d="M597 1079v-116h-203v-1064q0 -152 -81 -234.5t-217 -82.5q-30 0 -55 3t-51 12l14 119q17 -6 46 -8t45 -2q67 0 114 51t47 142v1064h-187v116h187v149q0 157 84.5 242.5t209.5 85.5q37 0 78 -6.5t67 -16.5l-35 -120q-15 5 -34 8.5t-44 3.5q-86 0 -137 -50.5t-51 -146.5
v-149h203z" />
    <glyph glyph-name="uni0193" unicode="&#x193;" horiz-adv-x="1487" 
d="M1232 1018v427q0 116 64 174.5t188 58.5q27 0 51 -0.5t41 -1.5v-115q-17 1 -40.5 1.5t-37.5 0.5q-73 0 -105.5 -28t-32.5 -90v-427h-128zM764 -21q-195 0 -343 96t-231 268.5t-83 400.5q0 231 83 403t230.5 268t338.5 96q123 0 225 -39t180 -107.5t128.5 -157.5
t67.5 -189h-141q-17 74 -56.5 139.5t-99 116t-136 79t-167.5 28.5q-151 0 -268 -78t-182.5 -221t-65.5 -338q0 -193 65.5 -335.5t183 -221t271.5 -78.5q138 0 244 61t166 173t60 263l45 -8h-476v124h567v-123q0 -184 -78 -323.5t-214.5 -218t-313.5 -78.5z" />
    <glyph glyph-name="Gamma1" unicode="&#x194;" horiz-adv-x="1170" 
d="M-25 1490h152l527 -1273q54 -130 92 -214t57.5 -138t19.5 -92q0 -67 -28.5 -115t-81.5 -74t-128 -26q-111 0 -175 57.5t-64 157.5q0 24 6.5 51.5t20 61.5t33 80t45.5 106t59 138l534 1280h152l-585 -1383q-42 -99 -69.5 -164t-41.5 -105t-14 -67q0 -37 27 -62.5t72 -25.5
q43 0 71 26t28 62q0 27 -13 67t-40.5 106t-71.5 169z" />
    <glyph glyph-name="uni0195" unicode="&#x195;" horiz-adv-x="1884" 
d="M1230 -19q-104 0 -184.5 49t-126.5 150.5t-46 260.5v242q0 140 -78 218t-207 78q-87 0 -157 -36.5t-111 -106t-41 -170.5v-666h-131v1490h131v-585h7q38 85 122 140t209 55q112 0 199.5 -47t138 -138t50.5 -223v-251q0 -133 34 -207.5t87 -104t112 -29.5q108 0 190 90
t128.5 285.5t46.5 513.5v95h133v-98q0 -352 -63 -574t-176.5 -326.5t-266.5 -104.5z" />
    <glyph glyph-name="Iota" unicode="&#x196;" horiz-adv-x="478" 
d="M388 -3q-122 -3 -181 51.5t-59 171.5v1270h131v-1250q0 -75 26.5 -101.5t91.5 -23.5q14 0 23.5 0.5t18.5 1.5l12 -114q-13 -2 -29.5 -3.5t-33.5 -2.5z" />
    <glyph glyph-name="uni0197" unicode="&#x197;" horiz-adv-x="591" 
d="M365 1490v-1490h-138v1490h138zM15 714v108h560v-108h-560z" />
    <glyph glyph-name="uni0198" unicode="&#x198;" horiz-adv-x="1321" 
d="M174 0v1490h139v-801h14l650 718q52 57 113.5 80t123.5 13.5t113 -49.5l-59 -101q-50 33 -99.5 24.5t-100.5 -64.5l-470 -509l656 -801h-170l-573 704l-198 -223v-481h-139z" />
    <glyph glyph-name="uni0199" unicode="&#x199;" horiz-adv-x="1023" 
d="M148 862v387q0 116 65.5 175t189.5 59q27 0 50.5 -1t41.5 -2v-114q-17 0 -41 0.5t-37 0.5q-73 0 -105.5 -27.5t-32.5 -90.5v-387h-131zM268 410v167h21l509 507h170l-501 -499l-14 -2zM148 0v1084h131v-1084h-131zM836 0l-450 559l94 91l524 -650h-168z" />
    <glyph glyph-name="uni019A" unicode="&#x19a;" horiz-adv-x="427" 
d="M279 1490v-1490h-131v1490h131zM-93 713v110h613v-110h-613z" />
    <glyph glyph-name="lambdabar" unicode="&#x19b;" horiz-adv-x="1238" 
d="M247 1097l-21 111l473 194l22 -113zM48 0l425 1087l-54 138q-26 66 -55 101t-65.5 46t-86.5 3l-61 -2l-16 116q24 5 52.5 7.5t59.5 2.5q67 0 121 -24t95.5 -75t71.5 -130l392 -1004q26 -66 55 -101.5t66 -46.5t85 -3l62 2l16 -116q-24 -4 -52 -7t-60 -3q-67 0 -121 24
t-95.5 75t-71.5 130l-174 451q-32 86 -60 169t-57 167h41q-28 -82 -55.5 -166.5t-59.5 -169.5l-255 -671h-143z" />
    <glyph glyph-name="mcapturn" unicode="&#x19c;" horiz-adv-x="1757" 
d="M1463 218v1272h150v-1490h-141zM1474 458l72 1q2 -137 -40.5 -245t-129 -170t-217.5 -62q-108 0 -188 45t-123.5 140.5t-43.5 248.5v1074h149v-1074q0 -110 30.5 -178t82 -98t115.5 -30q102 0 166.5 47t95.5 126.5t31 174.5zM816 458l72 1q3 -137 -40 -245t-130.5 -170
t-219.5 -62q-109 0 -188.5 45t-122.5 141t-43 248v1074h151v-1074q1 -110 30.5 -178t80.5 -98t114 -30q80 0 136 29t91.5 78t52 111.5t16.5 129.5z" />
    <glyph glyph-name="Nhook" unicode="&#x19d;" horiz-adv-x="1499" 
d="M-36 -418v120q17 -1 41 -1h37q72 0 102 27.5t30 89.5v310h138v-315q0 -116 -64 -175t-189 -59q-26 0 -51.5 1t-43.5 2zM174 0v1490h157l682 -1019q27 -39 60.5 -92.5t70.5 -114.5t73 -124l-20 -14q-4 63 -6 129.5t-3 127t-1 103.5v1004h138v-1490h-159l-636 947
q-32 48 -69 106.5t-82 131.5t-101 165l23 17q4 -93 6.5 -172t3.5 -141.5t1 -105.5v-948h-138z" />
    <glyph glyph-name="uni019E" unicode="&#x19e;" horiz-adv-x="1149" 
d="M279 666v-666h-131v1084h128v-256h-29q46 142 144 207t224 65q111 0 198.5 -47t137.5 -138t50 -223v-1110h-132v1101q0 140 -76 218t-206 78q-87 0 -156.5 -36t-110.5 -106t-41 -171z" />
    <glyph glyph-name="Obar" unicode="&#x19f;" horiz-adv-x="1518" 
d="M1288 805v-122h-1074v122h1074zM760 -21q-191 0 -338.5 96t-231 268.5t-83.5 400.5q0 230 83.5 402t231 268.5t338.5 96.5t338 -96.5t230 -268.5t83 -402q0 -228 -83 -400.5t-230 -268.5t-338 -96zM760 109q146 0 262.5 75.5t184.5 218t68 341.5q0 200 -68 342.5
t-184.5 218.5t-262.5 76t-263 -75.5t-185 -218.5t-68 -343q0 -198 67.5 -340.5t184.5 -218.5t264 -76z" />
    <glyph glyph-name="Ohorn" unicode="&#x1a0;" horiz-adv-x="1517" 
d="M758 1407v104q61 0 101 -3t83.5 -7.5t113 -7.5t187.5 -3q38 0 38 38v188h129v-182q0 -76 -39 -115t-116 -39q-56 0 -100.5 4t-95 9t-121.5 9.5t-180 4.5zM760 -21q-191 0 -338.5 96t-231 268.5t-83.5 400.5q0 230 83.5 402t231 268.5t338.5 96.5t338 -96.5t230 -268.5
t83 -402q0 -228 -83 -400.5t-230 -268.5t-338 -96zM760 109q146 0 262.5 75.5t184.5 218t68 341.5q0 200 -68 342.5t-184.5 218.5t-262.5 76t-263 -75.5t-185 -218.5t-68 -343q0 -198 67.5 -340.5t184.5 -218.5t264 -76z" />
    <glyph glyph-name="ohorn" unicode="&#x1a1;" horiz-adv-x="1150" 
d="M575 1009v93q46 -1 81.5 -3t71 -5t78 -5t100.5 -2q48 0 48 46v188h125v-178q0 -71 -38 -106t-117 -35q-86 0 -174 2.5t-175 4.5zM576 -23q-144 0 -254 72t-171.5 198.5t-61.5 291.5t61.5 292t171.5 199t254 72t253.5 -72t171.5 -199t62 -292t-61.5 -291.5t-171.5 -198.5
t-254 -72zM576 98q111 0 190 57t121.5 157t42.5 227t-42.5 227t-121.5 158t-190 58q-110 0 -189.5 -58t-122 -158t-42.5 -227t42.5 -227t121.5 -157t190 -57z" />
    <glyph glyph-name="OI" unicode="&#x1a2;" horiz-adv-x="1663" 
d="M1184 771v-581q-43 -66 -114.5 -113t-161 -72t-189.5 -25q-138 0 -250.5 49.5t-193.5 141t-124.5 220t-43.5 285.5v96l155 3v-99q1 -174 57 -301.5t160 -197t248 -69.5q96 0 178 32t130 89v542h149zM1184 1305v-590h-149v544q-47 57 -129 89.5t-177 32.5
q-146 0 -250 -69.5t-160.5 -199t-56.5 -309.5v-105h-155v105q0 161 43.5 291.5t125.5 223t197 142.5t257 50q96 0 183 -25t157 -71t114 -109zM1489 1490v-1908h-151v1758l-228 -114v136l253 128h126z" />
    <glyph glyph-name="uni01A3" unicode="&#x1a3;" horiz-adv-x="1172" 
d="M516 103q50 0 89.5 13t74.5 36v458h151v-499q-40 -40 -89 -70t-106.5 -46t-125.5 -16q-148 0 -253 74t-160 198.5t-55 274.5v29q0 166 54.5 296.5t160.5 206t259 75.5q66 0 122.5 -15.5t105 -44.5t87.5 -69v-515l-151 1v470q-34 23 -75.5 36t-92.5 13q-111 0 -181.5 -61
t-104 -164t-33.5 -229v-29q1 -129 41 -224t112.5 -147t169.5 -52zM1130 1118v-1536h-150v1346l-218 -133v189l241 134h127z" />
    <glyph glyph-name="uni01A4" unicode="&#x1a4;" horiz-adv-x="1484" 
d="M51 1092v144q0 127 65.5 190.5t196.5 63.5h101v-124h-100q-70 0 -102 -32t-32 -100v-142h-129zM414 0v1490h503q151 0 258.5 -57.5t164.5 -159t57 -234.5t-57.5 -235t-165.5 -159.5t-259 -57.5h-416v124h414q110 0 187.5 41.5t118.5 115t41 171.5t-41 171.5t-118.5 114.5
t-188.5 41h-360v-1366h-138z" />
    <glyph glyph-name="uni01A5" unicode="&#x1a5;" horiz-adv-x="1184" 
d="M148 862v387q0 116 65.5 175t189.5 59q27 0 50.5 -1t41.5 -2v-114q-17 0 -41 0.5t-37 0.5q-73 0 -105.5 -27.5t-32.5 -90.5v-387h-131zM148 -418v1502h128v-207h8q26 61 74.5 111.5t118 81t158.5 30.5q136 0 239.5 -70t162 -196t58.5 -294q0 -167 -58 -293.5t-161.5 -197
t-240.5 -70.5q-88 0 -156.5 30.5t-117 82t-76.5 112.5h-6v-622h-131zM618 99q104 0 181.5 55t120 154.5t42.5 232.5t-42.5 232t-119.5 153.5t-182 54.5q-107 0 -184.5 -55t-119 -154t-41.5 -231q0 -131 42 -231t119 -155.5t184 -55.5z" />
    <glyph glyph-name="YR" unicode="&#x1a6;" horiz-adv-x="1391" 
d="M86 1388v203h158v-203h-158zM86 1490h471q153 0 261.5 -51.5t166 -148t57.5 -234.5q0 -103 -39.5 -186.5t-113.5 -141.5t-176 -85l-42 -16h-467v128h371q96 0 166 38.5t108 106.5t38 155q0 93 -37 161t-110 106t-183 38h-313v-1360h-158v1490zM1132 -364l-549 1028h165
l551 -1019v-9h-167z" />
    <glyph glyph-name="uni01A7" unicode="&#x1a7;" horiz-adv-x="1250" 
d="M622 -24q-158 0 -274.5 54t-180 150t-63.5 218q0 83 30 146.5t84 111t128.5 82.5t165.5 59l163 45q92 26 159 61t104 85.5t37 119.5q0 81 -45 144t-123.5 98.5t-181.5 35.5q-153 0 -249.5 -80t-106.5 -214h-137q6 124 67.5 218.5t170 148t251.5 53.5t253.5 -51.5
t173.5 -144t63 -214.5q0 -143 -96 -236t-293 -147l-171 -48q-103 -28 -172 -65.5t-103.5 -88t-34.5 -121.5q0 -88 48.5 -154.5t134 -102.5t198.5 -36q112 0 196 36.5t133 105.5t53 165h141q-4 -131 -69.5 -228.5t-181 -151.5t-272.5 -54z" />
    <glyph glyph-name="uni01A8" unicode="&#x1a8;" horiz-adv-x="999" 
d="M111 797q21 141 120.5 222t259.5 81q113 0 199 -39t135 -108t49 -160q0 -112 -72.5 -184.5t-216.5 -106.5l-177 -42q-87 -21 -134.5 -61t-47.5 -108q0 -86 74 -140t198 -54q121 0 191.5 53.5t85.5 156.5l129 -13q-12 -102 -66 -172t-141 -106.5t-201 -36.5
q-118 0 -209.5 39.5t-143 110.5t-51.5 167q0 108 70 178t213 104l174 42q95 22 145 64.5t50 111.5q0 84 -70.5 135.5t-182.5 51.5t-176 -54t-79 -146z" />
    <glyph glyph-name="uni01A9" unicode="&#x1a9;" horiz-adv-x="1216" 
d="M86 0v111l496 523q29 30 57.5 58.5l55.5 55.5l50 50v-61q-23 24 -50 49.5t-55.5 54l-57.5 57.5l-462 481v111h1083v-124h-688q-64 0 -122.5 0.5t-113.5 1.5l-3 23q26 -24 53 -49.5t56 -54.5t61 -62l412 -431v-52l-412 -438q-38 -39 -73.5 -75t-68 -68.5t-62.5 -61.5l3 23
q64 1 130 1.5t140 0.5h698v-124h-1127z" />
    <glyph glyph-name="eshlooprev" unicode="&#x1aa;" horiz-adv-x="997" 
d="M566 1174l152 68v-1342q0 -104 33 -148t98 -44q33 0 65 9v-122q-19 -7 -47.5 -10t-52.5 -3q-124 0 -186 80.5t-62 237.5v1274zM84 1241q0 88 42.5 160t114.5 114t160 42q87 0 159 -42t115 -114t43 -160q0 -87 -43 -159t-115 -115.5t-159 -43.5q-88 0 -160 43.5
t-115 115.5t-42 159zM401 1063q72 1 123 48.5t50 131.5q0 83 -50.5 131.5t-122.5 48.5q-74 0 -125 -48.5t-51 -131.5q0 -84 51 -132t125 -48z" />
    <glyph glyph-name="uni01AB" unicode="&#x1ab;" horiz-adv-x="595" 
d="M208 -417v115q17 -1 42.5 -1.5t38.5 -0.5q82 0 115 33.5t27 107.5l-7 174h129l6 -174q10 -120 -56 -188.5t-203 -68.5q-27 0 -50.5 1t-41.5 2zM543 1084v-115h-530v115h530zM187 1362h132v-1113q0 -74 32.5 -107t105.5 -30q18 0 41 1.5t42 3.5l13 -115q-23 -3 -50 -5
t-52 -2q-128 -4 -196 60t-68 184v1123z" />
    <glyph glyph-name="uni01AC" unicode="&#x1ac;" horiz-adv-x="1249" 
d="M69 1092v144q0 127 65.5 190.5t195.5 63.5h101v-124h-99q-70 0 -102 -32t-32 -100v-142h-129zM431 1366v124h740v-124h-472v-1366h-138v1366h-130z" />
    <glyph glyph-name="uni01AD" unicode="&#x1ad;" horiz-adv-x="581" 
d="M174 1084h129v-820q0 -80 35.5 -117t111.5 -33q18 0 37 1l38 2l12 -115q-21 -3 -46.5 -5t-50.5 -2q-122 -4 -194 63.5t-72 182.5v843zM531 1084v-113h-518v113h518zM174 873v388q0 116 66 174.5t190 58.5q27 0 50.5 -0.5t41.5 -2.5v-114q-17 1 -41 1h-37
q-73 0 -105.5 -27.5t-32.5 -89.5v-388h-132z" />
    <glyph glyph-name="Trthook" unicode="&#x1ae;" horiz-adv-x="1265" 
d="M816 -421q-124 0 -188 59t-64 175v343h138v-343q0 -62 31 -89t104 -27h37t41 1v-116q-18 -1 -44 -2t-55 -1zM78 1366v124h1109v-124h-485v-1366h-138v1366h-486z" />
    <glyph glyph-name="Uhorn" unicode="&#x1af;" horiz-adv-x="1461" 
d="M1160 1380v110h156q37 0 37 38v188h129v-182q0 -76 -38.5 -115t-115.5 -39h-168zM727 -22q-168 0 -295.5 68.5t-199 188.5t-71.5 272v983h138v-974q0 -118 53 -210t149.5 -145.5t225.5 -53.5t225 53.5t149 145.5t53 210v974h139v-983q0 -153 -71.5 -272.5t-199 -188
t-295.5 -68.5z" />
    <glyph glyph-name="uhorn" unicode="&#x1b0;" horiz-adv-x="1223" 
d="M934 988v96h77q48 0 48 48v195h122v-184q0 -77 -38.5 -116t-115.5 -39h-93zM534 -17q-111 0 -198.5 47t-137.5 138.5t-50 223.5v692h131v-683q0 -140 76.5 -218.5t205.5 -78.5q87 0 157 36.5t110.5 107t40.5 170.5v666h132v-1084h-128v255h28q-46 -142 -144 -207
t-223 -65z" />
    <glyph glyph-name="Upsilon2" unicode="&#x1b1;" horiz-adv-x="1503" 
d="M108 711q0 220 90 382t258 261v11h-348v125h511v-161q-103 -48 -188.5 -135t-136.5 -208t-51 -273q0 -169 64.5 -306t179.5 -217t264 -80q150 0 264.5 80t178.5 217t64 306q1 152 -50 273t-136 208t-188 135v161h511v-125h-348v-11q168 -98 258 -260t90 -383
q0 -213 -83 -378t-228.5 -259t-332.5 -94q-139 0 -257 53.5t-204.5 152t-134 232t-47.5 293.5z" />
    <glyph glyph-name="Vcursive" unicode="&#x1b2;" horiz-adv-x="1221" 
d="M608 -21q-148 0 -264 55.5t-182.5 165.5t-66.5 273v1017h155v-1017q0 -185 97.5 -275.5t260.5 -90.5q165 0 263.5 91t98.5 275v720q0 101 -41 143t-122 42q-16 0 -36.5 -1.5t-37.5 -7.5v124q24 8 53.5 12.5t58.5 4.5q126 0 204.5 -81.5t78.5 -235.5v-720
q0 -161 -70 -271.5t-188 -166.5t-262 -56z" />
    <glyph glyph-name="uni01B3" unicode="&#x1b3;" horiz-adv-x="1345" 
d="M612 749v35h35v-35h-35zM22 1490h160l447 -717l376 599q43 69 101.5 102.5t122 34t119.5 -31.5l-43 -109q-47 23 -96 11.5t-88 -73.5l-422 -662v-644h-138v644z" />
    <glyph glyph-name="uni01B4" unicode="&#x1b4;" horiz-adv-x="1356" 
d="M889 1084l69 179q29 78 60 131.5t79.5 81.5t127.5 28q29 0 54 -1.5t45 -4.5l-4 -112q-14 2 -37 3t-38 1q-43 0 -70 -14t-45 -44.5t-38 -82.5l-65 -165h-138zM132 -411l17 116l61 -2q49 -8 86 3t67 46.5t54 100.5l55 145l-424 1086h143l255 -671q32 -85 59.5 -169.5
t55.5 -167.5h-41q28 83 56 167.5t60 169.5l253 671h142l-498 -1277q-31 -78 -72 -128.5t-94.5 -75.5t-121.5 -25q-34 0 -61.5 3.5t-51.5 7.5z" />
    <glyph glyph-name="Zbar" unicode="&#x1b5;" horiz-adv-x="1257" 
d="M97 0v113l750 1052q45 63 92.5 126t95.5 126l16 -49q-85 -2 -170 -2.5t-170 -0.5h-596v125h1040v-114l-742 -1041q-47 -66 -96.5 -131.5t-99.5 -130.5l-16 49q84 1 167.5 1.5t166.5 0.5h627v-124h-1065zM249 685v120h756v-120h-756z" />
    <glyph glyph-name="zbar" unicode="&#x1b6;" horiz-adv-x="1026" 
d="M110 0v103l628 854v5h-614v122h779v-109l-620 -848v-6h633v-121h-806zM235 498v108h560v-108h-560z" />
    <glyph glyph-name="uni01B7" unicode="&#x1b7;" horiz-adv-x="1352" 
d="M78 68h141q4 -113 64.5 -199t159.5 -135t219 -49q134 0 234.5 63.5t156.5 172.5t56 246q0 151 -69 264t-190 176.5t-279 66.5h-98v117l546 573v-1h-858v127h1044v-103l-559 -590v-12q178 -7 313 -88t211 -217t76 -311q0 -128 -41 -239t-118 -194t-185 -130t-243 -47
q-159 0 -289 64.5t-208 179.5t-84 265z" />
    <glyph glyph-name="uni01B8" unicode="&#x1b8;" horiz-adv-x="1352" 
d="M1274 68q-5 -150 -84 -265t-208.5 -179.5t-288.5 -64.5q-134 0 -242.5 47t-185.5 130t-118 194t-41 239q0 174 76.5 310.5t211.5 217.5t312 88v12l-559 590v103h1045v-128h-859v2l546 -573v-117h-97q-158 -3 -279.5 -66.5t-190.5 -176.5t-69 -264q0 -137 56 -246
t157 -172.5t234 -63.5q121 0 219.5 49t159 135t64.5 199h141z" />
    <glyph glyph-name="uni01B9" unicode="&#x1b9;" horiz-adv-x="1196" 
d="M594 -416q-145 0 -256 58t-173 158t-62 225q0 127 62.5 224.5t171 153.5t248.5 60v5l-431 513v103h853v-125h-668v-4l408 -486v-114h-100q-129 0 -220.5 -41t-139 -114.5t-47.5 -173.5q0 -94 44 -166t124 -112.5t187 -40.5q102 0 180.5 37.5t124 106.5t47.5 163h140
q-2 -128 -67 -225t-175.5 -151t-250.5 -54z" />
    <glyph glyph-name="uni01BA" unicode="&#x1ba;" horiz-adv-x="1025" 
d="M108 1084h859v-102l-579 -478h-75v101l435 355h-640v124zM214 -142q0 -86 64.5 -132t181.5 -46q73 0 136.5 24t104 75.5t45.5 132.5h150q-3 -95 -54.5 -176t-147 -130t-229.5 -49q-122 0 -212 37.5t-139 107t-49 164.5q0 70 28 122.5t78.5 90.5t120.5 65t153 47
q91 21 147.5 42t83 52t26.5 80q0 69 -60 104t-200 35h-61l9 123h52q132 0 224 -30t140 -88.5t48 -144.5q0 -62 -24.5 -108.5t-73.5 -81.5t-120.5 -61t-164.5 -47q-101 -23 -157 -54t-78 -69.5t-22 -84.5z" />
    <glyph glyph-name="uni01BB" unicode="&#x1bb;" horiz-adv-x="1187" 
d="M122 0v111l511 519q97 100 158 173.5t89 139.5t28 140q0 92 -40.5 160.5t-112.5 106.5t-167 38q-100 0 -173.5 -42t-113.5 -116.5t-40 -172.5h-131q0 132 58 235t162 161t239 58q132 0 233.5 -55t159.5 -151t58 -219q0 -87 -31.5 -167t-103 -170.5t-189.5 -211.5
l-403 -408v-5h755v-124h-946zM295 554v120h756v-120h-756z" />
    <glyph glyph-name="uni01BC" unicode="&#x1bc;" horiz-adv-x="1209" 
d="M330 1490v-124h-252v124h252zM619 -20q-132 0 -236.5 54t-165 148t-64.5 213h137q4 -84 47.5 -150t116 -103.5t165.5 -37.5q104 0 183.5 48.5t124 132.5t44.5 190q0 109 -45 192.5t-123.5 131t-179.5 47.5q-102 0 -185.5 -40t-124.5 -111l-135 9l70 786h795v-124h-673
l-50 -522h4q56 58 137 92.5t180 34.5q101 0 186 -36t147.5 -102.5t97 -157t34.5 -198.5q0 -144 -62 -256.5t-172 -176.5t-253 -64z" />
    <glyph glyph-name="uni01BD" unicode="&#x1bd;" horiz-adv-x="970" 
d="M299 489l-132 11l66 582h638v-131h-509l-36 -298q37 32 99.5 54t125.5 23q114 3 196 -41.5t126.5 -128.5t44.5 -200q1 -109 -43 -194.5t-134.5 -134.5t-231.5 -49q-71 0 -140.5 20.5t-125.5 61t-89.5 100t-33.5 136.5l145 15q-1 -93 67.5 -149.5t176.5 -56.5
q130 0 195.5 68.5t65.5 180.5t-63.5 180.5t-180.5 68.5q-84 0 -140 -34t-87 -84zM337 1082v-131h-285v131h285z" />
    <glyph glyph-name="glottalstopbarinv" unicode="&#x1be;" horiz-adv-x="1036" 
d="M789 288q0 53 -26.5 88.5t-69 62.5t-90 55.5t-89.5 66t-69 93.5t-27 140v546h153v-542q0 -68 26.5 -111.5t68.5 -73.5t89.5 -56t90 -57.5t69 -79t26.5 -120.5q0 -95 -52 -167t-145 -112t-216 -40q-138 0 -234 51t-145.5 133t-49.5 173h151q2 -76 40.5 -128.5t101 -79
t136.5 -26.5q122 0 191.5 51.5t69.5 132.5zM785 1078v-116h-578v116h578z" />
    <glyph glyph-name="uni01BF" unicode="&#x1bf;" horiz-adv-x="1196" 
d="M298 924v-1340h-152v1534h137zM260 751l-72 -39q22 99 59 177t90 132.5t122 83t156 28.5q135 0 229 -66.5t143.5 -186.5t49.5 -281v-47q0 -151 -52 -264t-152.5 -197t-248.5 -148t-340 -118l-1 124q204 55 347 132t219 191t76 279v49q0 115 -34.5 207t-103.5 145t-174 53
q-79 0 -139.5 -33.5t-103 -91t-70.5 -129.5z" />
    <glyph glyph-name="pipe" unicode="&#x1c0;" horiz-adv-x="443" 
d="M284 1498v-1498h-124v1498h124z" />
    <glyph glyph-name="pipedbl" unicode="&#x1c1;" horiz-adv-x="662" 
d="M221 1498v-1498h-124v1498h124zM493 1498v-1498h-124v1498h124z" />
    <glyph glyph-name="pipedblbar" unicode="&#x1c2;" horiz-adv-x="427" 
d="M275 1498v-1498h-124v1498h124zM-93 973v110h613v-110h-613zM-93 468v110h613v-110h-613z" />
    <glyph glyph-name="exclam1" unicode="&#x1c3;" horiz-adv-x="497" 
d="M185 420l-9 1070h145l-9 -1070h-127zM249 -14q-43 0 -73.5 30.5t-30.5 73.5q0 44 30.5 74t73.5 30q44 0 74 -30t30 -74q0 -43 -30 -73.5t-74 -30.5z" />
    <glyph glyph-name="Dzcaron_" unicode="&#x1c5;" horiz-adv-x="2451" 
d="M612 0h-361v124h353q191 0 319.5 75t193 215t64.5 335q0 192 -63 330t-185.5 212.5t-303.5 74.5h-384v124h392q214 0 366 -89t233.5 -255t81.5 -397q0 -235 -83 -402.5t-241 -257t-382 -89.5zM312 1490v-1490h-138v1490h138zM1535 0v103l628 854v5h-614v122h779v-109
l-620 -848v-6h633v-121h-806zM1763 1525l168 -194l168 194h135v-4l-242 -272h-122l-241 272v4h134z" />
    <glyph glyph-name="uni01C6" unicode="&#x1c6;" horiz-adv-x="2210" 
d="M548 -21q-135 0 -239 70.5t-162 197t-58 293.5q0 168 58.5 294t162 196t239.5 70q89 0 158 -30.5t117.5 -81t74.5 -111.5h6v613h131v-1490h-128v204h-8q-28 -61 -76.5 -112.5t-117 -82t-158.5 -30.5zM566 99q107 0 184 55.5t118.5 155.5t41.5 231q0 132 -41.5 231
t-118.5 154t-184 55q-104 0 -181.5 -54.5t-120 -153.5t-42.5 -232t42.5 -232.5t120 -154.5t181.5 -55zM1294 0v103l628 854v5h-614v122h779v-109l-620 -848v-6h633v-121h-806zM1522 1525l168 -194l168 194h135v-4l-242 -272h-122l-241 272v4h134z" />
    <glyph glyph-name="uni01C7" unicode="&#x1c7;" horiz-adv-x="2226" 
d="M174 0v1490h139v-1366h722v-124h-861zM1640 -20q-191 0 -308.5 114.5t-117.5 320.5v76h139v-76q0 -149 77.5 -230t209.5 -81q131 0 209 81t78 230v1075h138v-1075q0 -206 -117 -320.5t-308 -114.5z" />
    <glyph glyph-name="uni01C8" unicode="&#x1c8;" horiz-adv-x="1542" 
d="M174 0v1490h139v-1366h722v-124h-861zM1262 1084h132v-1217q1 -85 -34 -149.5t-99 -100t-152 -35.5h-44v120h37q75 0 117.5 45t42.5 130v1207zM1329 1303q-39 0 -67.5 27.5t-28.5 66.5t28.5 66.5t67.5 27.5q40 0 68 -27.5t28 -66.5t-28 -66.5t-68 -27.5z" />
    <glyph glyph-name="uni01C9" unicode="&#x1c9;" horiz-adv-x="856" 
d="M279 1490v-1490h-131v1490h131zM576 1084h132v-1217q1 -85 -34 -149.5t-99 -100t-152 -35.5h-44v120h37q75 0 117.5 45t42.5 130v1207zM642 1303q-39 0 -67.5 27.5t-28.5 66.5t28.5 66.5t67.5 27.5q40 0 68 -27.5t28 -66.5t-28 -66.5t-68 -27.5z" />
    <glyph glyph-name="uni01CA" unicode="&#x1ca;" horiz-adv-x="2612" 
d="M174 0v1490h157l682 -1019q27 -39 60.5 -92.5t70.5 -114.5t73 -124l-20 -14q-4 63 -6 129.5t-3 127t-1 103.5v1004h138v-1490h-159l-636 947q-32 48 -69 106.5t-82 131.5t-101 165l23 17q4 -93 6.5 -172t3.5 -141.5t1 -105.5v-948h-138zM2026 -20q-191 0 -308.5 114.5
t-117.5 320.5v76h139v-76q0 -149 77.5 -230t209.5 -81q131 0 209 81t78 230v1075h138v-1075q0 -206 -117 -320.5t-308 -114.5z" />
    <glyph glyph-name="uni01CB" unicode="&#x1cb;" horiz-adv-x="1928" 
d="M174 0v1490h157l682 -1019q27 -39 60.5 -92.5t70.5 -114.5t73 -124l-20 -14q-4 63 -6 129.5t-3 127t-1 103.5v1004h138v-1490h-159l-636 947q-32 48 -69 106.5t-82 131.5t-101 165l23 17q4 -93 6.5 -172t3.5 -141.5t1 -105.5v-948h-138zM1648 1084h132v-1217
q1 -85 -34 -149.5t-99 -100t-152 -35.5h-44v120h37q75 0 117.5 45t42.5 130v1207zM1714 1303q-39 0 -67.5 27.5t-28.5 66.5t28.5 66.5t67.5 27.5q40 0 68 -27.5t28 -66.5t-28 -66.5t-68 -27.5z" />
    <glyph glyph-name="uni01CC" unicode="&#x1cc;" horiz-adv-x="1577" 
d="M279 666v-666h-131v1084h128v-256h-29q46 142 144 207t224 65q111 0 198 -47t137.5 -138t50.5 -223v-692h-132v683q0 140 -76 218t-206 78q-87 0 -156.5 -36t-110.5 -106t-41 -171zM1297 1084h132v-1217q1 -85 -34 -149.5t-99 -100t-152 -35.5h-44v120h37q75 0 117.5 45
t42.5 130v1207zM1364 1303q-39 0 -67.5 27.5t-28.5 66.5t28.5 66.5t67.5 27.5q40 0 68 -27.5t28 -66.5t-28 -66.5t-68 -27.5z" />
    <glyph glyph-name="uni01CD" unicode="&#x1cd;" horiz-adv-x="1334" 
d="M36 0l550 1490h162l550 -1490h-147l-354 979q-30 84 -65.5 189.5t-83.5 257.5h36q-47 -153 -83 -259t-65 -188l-354 -979h-146zM295 442v124h743v-124h-743zM499 1931l168 -194l168 194h135v-4l-242 -272h-122l-241 272v4h134z" />
    <glyph glyph-name="uni01CE" unicode="&#x1ce;" horiz-adv-x="1079" 
d="M452 -20q-101 0 -184 36.5t-132.5 109t-49.5 177.5q0 83 31.5 138t88.5 90t135.5 55t172.5 32q96 13 159.5 22t95 28t31.5 61v20q0 70 -32 122.5t-91.5 82t-141.5 29.5q-80 0 -142 -27t-100.5 -72.5t-49.5 -100.5l-130 20q19 93 78.5 159.5t148.5 102t193 35.5
q79 0 150.5 -21.5t127 -65.5t88 -111t32.5 -158v-744h-130v174h-6q-24 -49 -69 -94t-113 -72.5t-161 -27.5zM470 99q104 0 177.5 42t113 115t39.5 164v153q-14 -13 -44 -23.5t-70.5 -18.5t-86 -15t-88.5 -12q-91 -12 -156.5 -36t-100.5 -65t-35 -106q0 -63 32.5 -107.5
t89 -67.5t129.5 -23zM359 1525l168 -194l168 194h135v-4l-242 -272h-122l-241 272v4h134z" />
    <glyph glyph-name="uni01CF" unicode="&#x1cf;" horiz-adv-x="486" 
d="M312 1490v-1490h-138v1490h138zM74 1931l168 -194l168 194h135v-4l-242 -272h-122l-241 272v4h134z" />
    <glyph glyph-name="uni01D0" unicode="&#x1d0;" horiz-adv-x="427" 
d="M148 0v1084h131v-1084h-131zM45 1525l168 -194l168 194h135v-4l-242 -272h-122l-241 272v4h134z" />
    <glyph glyph-name="uni01D1" unicode="&#x1d1;" horiz-adv-x="1518" 
d="M760 -21q-191 0 -338.5 96t-231 268.5t-83.5 400.5q0 230 83.5 402t231 268.5t338.5 96.5t338 -96.5t230 -268.5t83 -402q0 -228 -83 -400.5t-230 -268.5t-338 -96zM760 109q146 0 262.5 75.5t184.5 218t68 341.5q0 200 -68 342.5t-184.5 218.5t-262.5 76t-263 -75.5
t-185 -218.5t-68 -343q0 -198 67.5 -340.5t184.5 -218.5t264 -76zM591 1931l168 -194l168 194h135v-4l-242 -272h-122l-241 272v4h134z" />
    <glyph glyph-name="uni01D2" unicode="&#x1d2;" horiz-adv-x="1152" 
d="M576 -23q-144 0 -254 72t-171.5 198.5t-61.5 291.5t61.5 292t171.5 199t254 72t253.5 -72t171.5 -199t62 -292t-61.5 -291.5t-171.5 -198.5t-254 -72zM576 98q111 0 190 57t121.5 157t42.5 227t-42.5 227t-121.5 158t-190 58q-110 0 -189.5 -58t-122 -158t-42.5 -227
t42.5 -227t121.5 -157t190 -57zM407 1525l168 -194l168 194h135v-4l-242 -272h-122l-241 272v4h134z" />
    <glyph glyph-name="uni01D3" unicode="&#x1d3;" horiz-adv-x="1453" 
d="M727 -22q-168 0 -295.5 68.5t-199 188.5t-71.5 272v983h138v-974q0 -118 53 -210t149.5 -145.5t225.5 -53.5t225 53.5t149 145.5t53 210v974h139v-983q0 -153 -71.5 -272.5t-199 -188t-295.5 -68.5zM558 1931l168 -194l168 194h135v-4l-242 -272h-122l-241 272v4h134z
" />
    <glyph glyph-name="uni01D4" unicode="&#x1d4;" horiz-adv-x="1149" 
d="M534 -17q-111 0 -198.5 47t-137.5 138.5t-50 223.5v692h131v-683q0 -140 76.5 -218.5t205.5 -78.5q87 0 157 36.5t110.5 107t40.5 170.5v666h132v-1084h-128v255h28q-46 -142 -144 -207t-223 -65zM405 1525l168 -194l168 194h135v-4l-242 -272h-122l-241 272v4h134z" />
    <glyph glyph-name="uni01D5" unicode="&#x1d5;" horiz-adv-x="1453" 
d="M727 -22q-168 0 -295.5 68.5t-199 188.5t-71.5 272v983h138v-974q0 -118 53 -210t149.5 -145.5t225.5 -53.5t225 53.5t149 145.5t53 210v974h139v-983q0 -153 -71.5 -272.5t-199 -188t-295.5 -68.5zM936 1669q-39 0 -66.5 27.5t-27.5 66.5q0 38 27.5 65.5t66.5 27.5
q38 0 65.5 -27.5t27.5 -65.5q0 -39 -27.5 -66.5t-65.5 -27.5zM521 1669q-38 0 -66 27.5t-28 66.5q0 38 28 65.5t66 27.5q39 0 66.5 -27.5t27.5 -65.5q0 -39 -27.5 -66.5t-66.5 -27.5zM989 2109v-100h-523v100h523z" />
    <glyph glyph-name="uni01D6" unicode="&#x1d6;" horiz-adv-x="1149" 
d="M534 -17q-111 0 -198.5 47t-137.5 138.5t-50 223.5v692h131v-683q0 -140 76.5 -218.5t205.5 -78.5q87 0 157 36.5t110.5 107t40.5 170.5v666h132v-1084h-128v255h28q-46 -142 -144 -207t-223 -65zM783 1263q-39 0 -66.5 27.5t-27.5 66.5q0 38 27.5 65.5t66.5 27.5
q38 0 65.5 -27.5t27.5 -65.5q0 -39 -27.5 -66.5t-65.5 -27.5zM368 1263q-38 0 -66 27.5t-28 66.5q0 38 28 65.5t66 27.5q39 0 66.5 -27.5t27.5 -65.5q0 -39 -27.5 -66.5t-66.5 -27.5zM836 1703v-100h-523v100h523z" />
    <glyph glyph-name="uni01D7" unicode="&#x1d7;" horiz-adv-x="1453" 
d="M727 -22q-168 0 -295.5 68.5t-199 188.5t-71.5 272v983h138v-974q0 -118 53 -210t149.5 -145.5t225.5 -53.5t225 53.5t149 145.5t53 210v974h139v-983q0 -153 -71.5 -272.5t-199 -188t-295.5 -68.5zM936 1669q-39 0 -66.5 27.5t-27.5 66.5q0 38 27.5 65.5t66.5 27.5
q38 0 65.5 -27.5t27.5 -65.5q0 -39 -27.5 -66.5t-65.5 -27.5zM521 1669q-38 0 -66 27.5t-28 66.5q0 38 28 65.5t66 27.5q39 0 66.5 -27.5t27.5 -65.5q0 -39 -27.5 -66.5t-66.5 -27.5zM669 1968l152 275h151l-190 -275h-113z" />
    <glyph glyph-name="uni01D8" unicode="&#x1d8;" horiz-adv-x="1149" 
d="M534 -17q-111 0 -198.5 47t-137.5 138.5t-50 223.5v692h131v-683q0 -140 76.5 -218.5t205.5 -78.5q87 0 157 36.5t110.5 107t40.5 170.5v666h132v-1084h-128v255h28q-46 -142 -144 -207t-223 -65zM783 1263q-39 0 -66.5 27.5t-27.5 66.5q0 38 27.5 65.5t66.5 27.5
q38 0 65.5 -27.5t27.5 -65.5q0 -39 -27.5 -66.5t-65.5 -27.5zM368 1263q-38 0 -66 27.5t-28 66.5q0 38 28 65.5t66 27.5q39 0 66.5 -27.5t27.5 -65.5q0 -39 -27.5 -66.5t-66.5 -27.5zM516 1562l152 275h151l-190 -275h-113z" />
    <glyph glyph-name="uni01D9" unicode="&#x1d9;" horiz-adv-x="1453" 
d="M727 -22q-168 0 -295.5 68.5t-199 188.5t-71.5 272v983h138v-974q0 -118 53 -210t149.5 -145.5t225.5 -53.5t225 53.5t149 145.5t53 210v974h139v-983q0 -153 -71.5 -272.5t-199 -188t-295.5 -68.5zM936 1669q-39 0 -66.5 27.5t-27.5 66.5q0 38 27.5 65.5t66.5 27.5
q38 0 65.5 -27.5t27.5 -65.5q0 -39 -27.5 -66.5t-65.5 -27.5zM521 1669q-38 0 -66 27.5t-28 66.5q0 38 28 65.5t66 27.5q39 0 66.5 -27.5t27.5 -65.5q0 -39 -27.5 -66.5t-66.5 -27.5zM561 2234l168 -194l167 194h136v-4l-242 -272h-123l-240 272v4h134z" />
    <glyph glyph-name="uni01DA" unicode="&#x1da;" horiz-adv-x="1149" 
d="M534 -17q-111 0 -198.5 47t-137.5 138.5t-50 223.5v692h131v-683q0 -140 76.5 -218.5t205.5 -78.5q87 0 157 36.5t110.5 107t40.5 170.5v666h132v-1084h-128v255h28q-46 -142 -144 -207t-223 -65zM783 1263q-39 0 -66.5 27.5t-27.5 66.5q0 38 27.5 65.5t66.5 27.5
q38 0 65.5 -27.5t27.5 -65.5q0 -39 -27.5 -66.5t-65.5 -27.5zM368 1263q-38 0 -66 27.5t-28 66.5q0 38 28 65.5t66 27.5q39 0 66.5 -27.5t27.5 -65.5q0 -39 -27.5 -66.5t-66.5 -27.5zM408 1828l168 -194l167 194h136v-4l-242 -272h-123l-240 272v4h134z" />
    <glyph glyph-name="uni01DB" unicode="&#x1db;" horiz-adv-x="1453" 
d="M727 -22q-168 0 -295.5 68.5t-199 188.5t-71.5 272v983h138v-974q0 -118 53 -210t149.5 -145.5t225.5 -53.5t225 53.5t149 145.5t53 210v974h139v-983q0 -153 -71.5 -272.5t-199 -188t-295.5 -68.5zM935 1669q-39 0 -66.5 27.5t-27.5 66.5q0 38 27.5 65.5t66.5 27.5
q38 0 65.5 -27.5t27.5 -65.5q0 -39 -27.5 -66.5t-65.5 -27.5zM520 1669q-38 0 -66 27.5t-28 66.5q0 38 28 65.5t66 27.5q39 0 66.5 -27.5t27.5 -65.5q0 -39 -27.5 -66.5t-66.5 -27.5zM663 1968l-190 275h151l152 -275h-113z" />
    <glyph glyph-name="uni01DC" unicode="&#x1dc;" horiz-adv-x="1149" 
d="M534 -17q-111 0 -198.5 47t-137.5 138.5t-50 223.5v692h131v-683q0 -140 76.5 -218.5t205.5 -78.5q87 0 157 36.5t110.5 107t40.5 170.5v666h132v-1084h-128v255h28q-46 -142 -144 -207t-223 -65zM783 1263q-39 0 -66.5 27.5t-27.5 66.5q0 38 27.5 65.5t66.5 27.5
q38 0 65.5 -27.5t27.5 -65.5q0 -39 -27.5 -66.5t-65.5 -27.5zM368 1263q-38 0 -66 27.5t-28 66.5q0 38 28 65.5t66 27.5q39 0 66.5 -27.5t27.5 -65.5q0 -39 -27.5 -66.5t-66.5 -27.5zM511 1562l-190 275h151l152 -275h-113z" />
    <glyph glyph-name="eturn" unicode="&#x1dd;" horiz-adv-x="1128" 
d="M545 1106q152 0 263 -72t171 -198.5t60 -289.5q0 -164 -61 -291.5t-169 -200t-251 -72.5q-100 0 -186 37t-151 107.5t-101 172.5t-36 231v48h878v-114h-804l58 40q0 -118 42 -209.5t119.5 -142.5t180.5 -51q105 0 183.5 52.5t122.5 144t44 206.5v58q0 127 -44.5 222
t-125.5 148.5t-194 53.5q-79 0 -141.5 -26t-105 -72t-61.5 -104l-129 18q23 87 84 155.5t151.5 108.5t202.5 40z" />
    <glyph glyph-name="uni01DE" unicode="&#x1de;" horiz-adv-x="1334" 
d="M36 0l550 1490h162l550 -1490h-147l-354 979q-30 84 -65.5 189.5t-83.5 257.5h36q-47 -153 -83 -259t-65 -188l-354 -979h-146zM295 442v124h743v-124h-743zM877 1669q-39 0 -66.5 27.5t-27.5 66.5q0 38 27.5 65.5t66.5 27.5q38 0 65.5 -27.5t27.5 -65.5
q0 -39 -27.5 -66.5t-65.5 -27.5zM462 1669q-38 0 -66 27.5t-28 66.5q0 38 28 65.5t66 27.5q39 0 66.5 -27.5t27.5 -65.5q0 -39 -27.5 -66.5t-66.5 -27.5zM930 2109v-100h-523v100h523z" />
    <glyph glyph-name="uni01DF" unicode="&#x1df;" horiz-adv-x="1079" 
d="M452 -20q-101 0 -184 36.5t-132.5 109t-49.5 177.5q0 83 31.5 138t88.5 90t135.5 55t172.5 32q96 13 159.5 22t95 28t31.5 61v20q0 70 -32 122.5t-91.5 82t-141.5 29.5q-80 0 -142 -27t-100.5 -72.5t-49.5 -100.5l-130 20q19 93 78.5 159.5t148.5 102t193 35.5
q79 0 150.5 -21.5t127 -65.5t88 -111t32.5 -158v-744h-130v174h-6q-24 -49 -69 -94t-113 -72.5t-161 -27.5zM470 99q104 0 177.5 42t113 115t39.5 164v153q-14 -13 -44 -23.5t-70.5 -18.5t-86 -15t-88.5 -12q-91 -12 -156.5 -36t-100.5 -65t-35 -106q0 -63 32.5 -107.5
t89 -67.5t129.5 -23zM736 1263q-39 0 -66.5 27.5t-27.5 66.5q0 38 27.5 65.5t66.5 27.5q38 0 65.5 -27.5t27.5 -65.5q0 -39 -27.5 -66.5t-65.5 -27.5zM321 1263q-38 0 -66 27.5t-28 66.5q0 38 28 65.5t66 27.5q39 0 66.5 -27.5t27.5 -65.5q0 -39 -27.5 -66.5t-66.5 -27.5z
M789 1703v-100h-523v100h523z" />
    <glyph glyph-name="uni01E0" unicode="&#x1e0;" horiz-adv-x="1334" 
d="M36 0l550 1490h162l550 -1490h-147l-354 979q-30 84 -65.5 189.5t-83.5 257.5h36q-47 -153 -83 -259t-65 -188l-354 -979h-146zM295 442v124h743v-124h-743zM669 1669q-39 0 -67.5 27.5t-28.5 66.5t28.5 66t67.5 27q40 0 68 -27t28 -67q0 -38 -28 -65.5t-68 -27.5z
M930 2109v-100h-524v100h524z" />
    <glyph glyph-name="uni01E1" unicode="&#x1e1;" horiz-adv-x="1079" 
d="M452 -20q-101 0 -184 36.5t-132.5 109t-49.5 177.5q0 83 31.5 138t88.5 90t135.5 55t172.5 32q96 13 159.5 22t95 28t31.5 61v20q0 70 -32 122.5t-91.5 82t-141.5 29.5q-80 0 -142 -27t-100.5 -72.5t-49.5 -100.5l-130 20q19 93 78.5 159.5t148.5 102t193 35.5
q79 0 150.5 -21.5t127 -65.5t88 -111t32.5 -158v-744h-130v174h-6q-24 -49 -69 -94t-113 -72.5t-161 -27.5zM470 99q104 0 177.5 42t113 115t39.5 164v153q-14 -13 -44 -23.5t-70.5 -18.5t-86 -15t-88.5 -12q-91 -12 -156.5 -36t-100.5 -65t-35 -106q0 -63 32.5 -107.5
t89 -67.5t129.5 -23zM528 1263q-39 0 -67.5 27.5t-28.5 66.5t28.5 66t67.5 27q40 0 68 -27t28 -67q0 -38 -28 -65.5t-68 -27.5zM789 1703v-100h-524v100h524z" />
    <glyph glyph-name="uni01E2" unicode="&#x1e2;" horiz-adv-x="1969" 
d="M36 0l716 1490h1105v-124h-753v-556h703v-124h-703v-562h763v-124h-899v1379h-128l-654 -1379h-150zM358 457v122h678v-122h-678zM1550 1845v-109h-523v109h523z" />
    <glyph glyph-name="uni01E3" unicode="&#x1e3;" horiz-adv-x="1824" 
d="M458 -19q-108 0 -192 38t-132 110.5t-48 173.5q0 84 36 143.5t101 98t151.5 57t186.5 18.5h1103l-58 -42q4 118 -38 209.5t-119.5 143.5t-182.5 52q-104 0 -183 -52.5t-123 -144t-44 -207.5v-57q0 -126 44 -221.5t125.5 -149.5t193.5 -54q80 0 142 26.5t105 72.5t62 104
l129 -17q-23 -88 -84 -157t-151.5 -109t-202.5 -40q-123 0 -219 48.5t-158.5 135t-84.5 199.5l9 373q28 110 89.5 193t151 129.5t199.5 46.5q101 0 187 -37t150.5 -108t100.5 -172.5t36 -231.5v-48h-1179q-106 0 -182.5 -22.5t-118 -68.5t-41.5 -114q0 -98 69 -149.5
t179 -51.5q105 0 178 42t111 115t38 164v329q0 70 -31.5 122.5t-90 82t-140.5 29.5q-80 0 -141.5 -27t-99 -72.5t-48.5 -100.5l-130 20q19 93 78 159.5t147 102t192 35.5q102 0 183 -35.5t131.5 -105.5t59.5 -172l-19 -491l-13 -1q-13 -77 -50 -135.5t-92.5 -98.5t-125 -60
t-146.5 -20zM1150 1439v-109h-523v109h523z" />
    <glyph glyph-name="Gbar" unicode="&#x1e4;" horiz-adv-x="1487" 
d="M764 -21q-195 0 -343 96t-231 268.5t-83 400.5q0 231 83 403t230.5 268t338.5 96q123 0 225 -39t180 -107.5t128.5 -157.5t67.5 -189h-141q-17 74 -56.5 139.5t-99 116t-136 79t-167.5 28.5q-151 0 -268 -78t-182.5 -221t-65.5 -338q0 -193 65.5 -335.5t183 -221
t271.5 -78.5q138 0 244 61t166 173t60 263l45 -8h-476v124h567v-123q0 -184 -78 -323.5t-214.5 -218t-313.5 -78.5zM803 324v109h656v-109h-656z" />
    <glyph glyph-name="gbar" unicode="&#x1e5;" horiz-adv-x="1296" 
d="M576 -436q-117 0 -207 34t-148.5 96.5t-81.5 147.5l123 31q20 -56 60.5 -99t103.5 -67.5t150 -24.5q153 0 241.5 79t88.5 230v222h-7q-28 -61 -76.5 -110.5t-117 -78.5t-157.5 -29q-134 0 -238 67.5t-162.5 190.5t-58.5 290q0 166 58.5 291.5t162.5 195.5t240 70
q89 0 158 -30t118 -81.5t76 -114.5h6v210h129v-1096q0 -145 -60.5 -239t-164.5 -139.5t-236 -45.5zM567 114q106 0 183.5 52.5t119 149t41.5 228.5q0 130 -41.5 228.5t-118.5 153.5t-184 55q-105 0 -182.5 -54.5t-120 -152.5t-42.5 -230q0 -133 43 -229t120.5 -148.5
t181.5 -52.5zM693 502v108h560v-108h-560z" />
    <glyph glyph-name="Gcaron" unicode="&#x1e6;" horiz-adv-x="1487" 
d="M764 -21q-195 0 -343 96t-231 268.5t-83 400.5q0 231 83 403t230.5 268t338.5 96q123 0 225 -39t180 -107.5t128.5 -157.5t67.5 -189h-141q-17 74 -56.5 139.5t-99 116t-136 79t-167.5 28.5q-151 0 -268 -78t-182.5 -221t-65.5 -338q0 -193 65.5 -335.5t183 -221
t271.5 -78.5q138 0 244 61t166 173t60 263l45 -8h-476v124h567v-123q0 -184 -78 -323.5t-214.5 -218t-313.5 -78.5zM582 1931l168 -194l168 194h135v-4l-242 -272h-122l-241 272v4h134z" />
    <glyph glyph-name="gcaron" unicode="&#x1e7;" horiz-adv-x="1184" 
d="M576 -436q-117 0 -207 34t-148.5 96.5t-81.5 147.5l123 31q20 -56 60.5 -99t103.5 -67.5t150 -24.5q153 0 241.5 79t88.5 230v222h-7q-28 -61 -76.5 -110.5t-117 -78.5t-157.5 -29q-134 0 -238 67.5t-162.5 190.5t-58.5 290q0 166 58.5 291.5t162.5 195.5t240 70
q89 0 158 -30t118 -81.5t76 -114.5h6v210h129v-1096q0 -145 -60.5 -239t-164.5 -139.5t-236 -45.5zM567 114q106 0 183.5 52.5t119 149t41.5 228.5q0 130 -41.5 228.5t-118.5 153.5t-184 55q-105 0 -182.5 -54.5t-120 -152.5t-42.5 -230q0 -133 43 -229t120.5 -148.5
t181.5 -52.5zM402 1525l168 -194l168 194h135v-4l-242 -272h-122l-241 272v4h134z" />
    <glyph glyph-name="uni01E8" unicode="&#x1e8;" horiz-adv-x="1277" 
d="M271 463l-5 163q54 64 106.5 124t106 119t110.5 119l465 502h183l-629 -674l-10 -3zM174 0v1490h138v-520l-1 -335l1 -71v-564h-138zM1072 0l-558 783l88 105l634 -888h-164zM495 1931l168 -194l168 194h135v-4l-242 -272h-122l-241 272v4h134z" />
    <glyph glyph-name="uni01E9" unicode="&#x1e9;" horiz-adv-x="1023" 
d="M268 410v167h21l509 507h170l-501 -499l-14 -2zM148 0v1490h131v-1490h-131zM836 0l-450 559l94 91l524 -650h-168zM45 1931l168 -194l168 194h135v-4l-242 -272h-122l-241 272v4h134z" />
    <glyph glyph-name="uni01EA" unicode="&#x1ea;" horiz-adv-x="1518" 
d="M760 -21q-191 0 -338.5 96t-231 268.5t-83.5 400.5q0 230 83.5 402t231 268.5t338.5 96.5t338 -96.5t230 -268.5t83 -402q0 -228 -83 -400.5t-230 -268.5t-338 -96zM760 109q146 0 262.5 75.5t184.5 218t68 341.5q0 200 -68 342.5t-184.5 218.5t-262.5 76t-263 -75.5
t-185 -218.5t-68 -343q0 -198 67.5 -340.5t184.5 -218.5t264 -76zM831 -425q-88 0 -147.5 46t-59.5 136q0 73 39 124t104 91.5t143 82t155.5 95.5t142.5 131.5t104 190t39 272.5h61q0 -164 -35.5 -283t-93.5 -203t-128 -142.5t-139.5 -101t-128 -77.5t-94 -72.5t-35.5 -86.5
q0 -44 26.5 -66t76.5 -22q17 0 34.5 3t31.5 7l20 -108q-24 -6 -53 -11.5t-63 -5.5z" />
    <glyph glyph-name="uni01EB" unicode="&#x1eb;" horiz-adv-x="1152" 
d="M576 -23q-144 0 -254 72t-171.5 198.5t-61.5 291.5t61.5 292t171.5 199t254 72t253.5 -72t171.5 -199t62 -292t-61.5 -291.5t-171.5 -198.5t-254 -72zM576 98q111 0 190 57t121.5 157t42.5 227t-42.5 227t-121.5 158t-190 58q-110 0 -189.5 -58t-122 -158t-42.5 -227
t42.5 -227t121.5 -157t190 -57zM646 -426q-96 0 -152.5 46t-56.5 131q0 66 29.5 114.5t78 87.5t106.5 77t116 82t106.5 101.5t78 137t29.5 187.5h82q0 -139 -35.5 -235t-92 -161t-120 -110.5t-119.5 -83t-91.5 -77.5t-35.5 -97q0 -40 25 -62.5t82 -22.5q17 0 32.5 3t29.5 7
l20 -108q-23 -6 -51 -11.5t-61 -5.5z" />
    <glyph glyph-name="uni01EC" unicode="&#x1ec;" horiz-adv-x="1518" 
d="M760 -21q-191 0 -338.5 96t-231 268.5t-83.5 400.5q0 230 83.5 402t231 268.5t338.5 96.5t338 -96.5t230 -268.5t83 -402q0 -228 -83 -400.5t-230 -268.5t-338 -96zM760 109q146 0 262.5 75.5t184.5 218t68 341.5q0 200 -68 342.5t-184.5 218.5t-262.5 76t-263 -75.5
t-185 -218.5t-68 -343q0 -198 67.5 -340.5t184.5 -218.5t264 -76zM831 -425q-88 0 -147.5 46t-59.5 136q0 73 39 124t104 91.5t143 82t155.5 95.5t142.5 131.5t104 190t39 272.5h61q0 -164 -35.5 -283t-93.5 -203t-128 -142.5t-139.5 -101t-128 -77.5t-94 -72.5t-35.5 -86.5
q0 -44 26.5 -66t76.5 -22q17 0 34.5 3t31.5 7l20 -108q-24 -6 -53 -11.5t-63 -5.5zM1022 1845v-109h-523v109h523z" />
    <glyph glyph-name="uni01ED" unicode="&#x1ed;" horiz-adv-x="1152" 
d="M576 -23q-144 0 -254 72t-171.5 198.5t-61.5 291.5t61.5 292t171.5 199t254 72t253.5 -72t171.5 -199t62 -292t-61.5 -291.5t-171.5 -198.5t-254 -72zM576 98q111 0 190 57t121.5 157t42.5 227t-42.5 227t-121.5 158t-190 58q-110 0 -189.5 -58t-122 -158t-42.5 -227
t42.5 -227t121.5 -157t190 -57zM646 -426q-96 0 -152.5 46t-56.5 131q0 66 29.5 114.5t78 87.5t106.5 77t116 82t106.5 101.5t78 137t29.5 187.5h82q0 -139 -35.5 -235t-92 -161t-120 -110.5t-119.5 -83t-91.5 -77.5t-35.5 -97q0 -40 25 -62.5t82 -22.5q17 0 32.5 3t29.5 7
l20 -108q-23 -6 -51 -11.5t-61 -5.5zM838 1439v-109h-523v109h523z" />
    <glyph glyph-name="uni01EE" unicode="&#x1ee;" horiz-adv-x="1352" 
d="M78 68h141q4 -113 64.5 -199t159.5 -135t219 -49q134 0 234.5 63.5t156.5 172.5t56 246q0 151 -69 264t-190 176.5t-279 66.5h-98v117l546 573v-1h-858v127h1044v-103l-559 -590v-12q178 -7 313 -88t211 -217t76 -311q0 -128 -41 -239t-118 -194t-185 -130t-243 -47
q-159 0 -289 64.5t-208 179.5t-84 265zM504 1931l168 -194l168 194h135v-4l-242 -272h-122l-241 272v4h134z" />
    <glyph glyph-name="uni01EF" unicode="&#x1ef;" horiz-adv-x="1202" 
d="M607 -416q-141 0 -253 54t-177 151t-68 225h140q2 -93 48 -162t126 -106.5t183 -37.5q106 0 186 41t125 116t45 173q0 101 -49 176.5t-142 117t-226 41.5h-124v114l437 479v5h-669v124h851v-113l-495 -543v30q174 11 298 -42.5t190 -155t66 -233.5t-62.5 -234.5
t-173.5 -161t-256 -58.5zM434 1536l168 -194l168 194h135v-4l-242 -272h-122l-241 272v4h134z" />
    <glyph glyph-name="uni01F0" unicode="&#x1f0;" horiz-adv-x="429" 
d="M149 1084h132v-1217q1 -85 -34 -149.5t-99 -100t-152 -35.5h-44v120h37q75 0 117.5 45t42.5 130v1207zM47 1525l168 -194l168 194h135v-4l-242 -272h-122l-241 272v4h134z" />
    <glyph glyph-name="uni01F1" unicode="&#x1f1;" horiz-adv-x="2681" 
d="M612 0h-361v124h353q191 0 319.5 75t193 215t64.5 335q0 192 -63 330t-185.5 212.5t-303.5 74.5h-384v124h392q214 0 366 -89t233.5 -255t81.5 -397q0 -235 -83 -402.5t-241 -257t-382 -89.5zM312 1490v-1490h-138v1490h138zM1522 0v113l750 1052q45 63 92.5 126
t95.5 126l16 -49q-85 -2 -170 -2.5t-170 -0.5h-596v125h1040v-114l-742 -1041q-47 -66 -96.5 -131.5t-99.5 -130.5l-16 49q84 1 167.5 1.5t166.5 0.5h627v-124h-1065z" />
    <glyph glyph-name="uni01F2" unicode="&#x1f2;" horiz-adv-x="2451" 
d="M612 0h-361v124h353q191 0 319.5 75t193 215t64.5 335q0 192 -63 330t-185.5 212.5t-303.5 74.5h-384v124h392q214 0 366 -89t233.5 -255t81.5 -397q0 -235 -83 -402.5t-241 -257t-382 -89.5zM312 1490v-1490h-138v1490h138zM1535 0v103l628 854v5h-614v122h779v-109
l-620 -848v-6h633v-121h-806z" />
    <glyph glyph-name="uni01F3" unicode="&#x1f3;" horiz-adv-x="2210" 
d="M548 -21q-135 0 -239 70.5t-162 197t-58 293.5q0 168 58.5 294t162 196t239.5 70q89 0 158 -30.5t117.5 -81t74.5 -111.5h6v613h131v-1490h-128v204h-8q-28 -61 -76.5 -112.5t-117 -82t-158.5 -30.5zM566 99q107 0 184 55.5t118.5 155.5t41.5 231q0 132 -41.5 231
t-118.5 154t-184 55q-104 0 -181.5 -54.5t-120 -153.5t-42.5 -232t42.5 -232.5t120 -154.5t181.5 -55zM1294 0v103l628 854v5h-614v122h779v-109l-620 -848v-6h633v-121h-806z" />
    <glyph glyph-name="uni01F4" unicode="&#x1f4;" horiz-adv-x="1487" 
d="M764 -21q-195 0 -343 96t-231 268.5t-83 400.5q0 231 83 403t230.5 268t338.5 96q123 0 225 -39t180 -107.5t128.5 -157.5t67.5 -189h-141q-17 74 -56.5 139.5t-99 116t-136 79t-167.5 28.5q-151 0 -268 -78t-182.5 -221t-65.5 -338q0 -193 65.5 -335.5t183 -221
t271.5 -78.5q138 0 244 61t166 173t60 263l45 -8h-476v124h567v-123q0 -184 -78 -323.5t-214.5 -218t-313.5 -78.5zM692 1633l138 293h150l-177 -293h-111z" />
    <glyph glyph-name="uni01F5" unicode="&#x1f5;" horiz-adv-x="1184" 
d="M576 -436q-117 0 -207 34t-148.5 96.5t-81.5 147.5l123 31q20 -56 60.5 -99t103.5 -67.5t150 -24.5q153 0 241.5 79t88.5 230v222h-7q-28 -61 -76.5 -110.5t-117 -78.5t-157.5 -29q-134 0 -238 67.5t-162.5 190.5t-58.5 290q0 166 58.5 291.5t162.5 195.5t240 70
q89 0 158 -30t118 -81.5t76 -114.5h6v210h129v-1096q0 -145 -60.5 -239t-164.5 -139.5t-236 -45.5zM567 114q106 0 183.5 52.5t119 149t41.5 228.5q0 130 -41.5 228.5t-118.5 153.5t-184 55q-105 0 -182.5 -54.5t-120 -152.5t-42.5 -230q0 -133 43 -229t120.5 -148.5
t181.5 -52.5zM511 1227l138 293h150l-177 -293h-111z" />
    <glyph glyph-name="uni01F6" unicode="&#x1f6;" horiz-adv-x="2189" 
d="M1600 -20q-133 0 -233.5 52t-156.5 150.5t-56 239.5v271h-842v-693h-138v1490h138v-673h842v673h139v-1065q0 -104 36.5 -175.5t105.5 -108t165 -36.5q97 0 165.5 36.5t104.5 108t36 175.5v662h135v-665q0 -142 -55.5 -241t-155 -150t-230.5 -51z" />
    <glyph glyph-name="uni01F7" unicode="&#x1f7;" horiz-adv-x="1144" 
d="M227 1490v-1908h-156v1908h156zM143 -166v128q196 37 341.5 121t241.5 202.5t143 260t47 292.5v45q0 130 -25.5 224t-76.5 155t-125.5 90t-172.5 29q-99 0 -165 -30.5t-107 -86t-67 -131.5l-7 276q64 48 149 74.5t195 26.5q173 0 298 -68.5t192.5 -208t67.5 -354.5v-40
q0 -196 -67.5 -365.5t-191.5 -301t-294.5 -218.5t-375.5 -120z" />
    <glyph glyph-name="uni01F8" unicode="&#x1f8;" horiz-adv-x="1499" 
d="M174 0v1490h157l682 -1019q27 -39 60.5 -92.5t70.5 -114.5t73 -124l-20 -14q-4 63 -6 129.5t-3 127t-1 103.5v1004h138v-1490h-159l-636 947q-32 48 -69 106.5t-82 131.5t-101 165l23 17q4 -93 6.5 -172t3.5 -141.5t1 -105.5v-948h-138zM698 1633l-178 293h151l138 -293
h-111z" />
    <glyph glyph-name="uni01F9" unicode="&#x1f9;" horiz-adv-x="1148" 
d="M279 666v-666h-131v1084h128v-256h-29q46 142 144 207t224 65q111 0 198 -47t137.5 -138t50.5 -223v-692h-132v683q0 140 -76 218t-206 78q-87 0 -156.5 -36t-110.5 -106t-41 -171zM523 1227l-178 293h151l138 -293h-111z" />
    <glyph glyph-name="Aringacute" unicode="&#x1fa;" horiz-adv-x="1334" 
d="M36 0l550 1490h162l550 -1490h-147l-354 979q-30 84 -65.5 189.5t-83.5 257.5h36q-47 -153 -83 -259t-65 -188l-354 -979h-146zM295 442v124h743v-124h-743zM614 2072l136 167h141l-168 -167h-109zM668 1590q-61 0 -111 29t-80 77.5t-30 106.5q0 59 30 107t80 77t111 29
t111 -29t80 -77t30 -107q0 -58 -30 -106.5t-80 -77.5t-111 -29zM668 1688q49 0 82.5 33.5t33.5 81.5t-33.5 82t-82.5 34q-48 0 -82.5 -34t-34.5 -82t34 -81.5t83 -33.5z" />
    <glyph glyph-name="aringacute" unicode="&#x1fb;" horiz-adv-x="1079" 
d="M452 -20q-101 0 -184 36.5t-132.5 109t-49.5 177.5q0 83 31.5 138t88.5 90t135.5 55t172.5 32q96 13 159.5 22t95 28t31.5 61v20q0 70 -32 122.5t-91.5 82t-141.5 29.5q-80 0 -142 -27t-100.5 -72.5t-49.5 -100.5l-130 20q19 93 78.5 159.5t148.5 102t193 35.5
q79 0 150.5 -21.5t127 -65.5t88 -111t32.5 -158v-744h-130v174h-6q-24 -49 -69 -94t-113 -72.5t-161 -27.5zM470 99q104 0 177.5 42t113 115t39.5 164v153q-14 -13 -44 -23.5t-70.5 -18.5t-86 -15t-88.5 -12q-91 -12 -156.5 -36t-100.5 -65t-35 -106q0 -63 32.5 -107.5
t89 -67.5t129.5 -23zM474 1685l136 167h141l-168 -167h-109zM527 1190q-61 0 -111.5 28.5t-80 77t-29.5 107.5t30 107t80 77t111 29t111 -29t80 -77t30 -107t-30 -107t-80 -77t-111 -29zM527 1287q49 0 83 34t34 82t-34 81.5t-83 33.5q-48 0 -82.5 -33.5t-34.5 -81.5
t34.5 -82t82.5 -34z" />
    <glyph glyph-name="AEacute" unicode="&#x1fc;" horiz-adv-x="1969" 
d="M36 0l716 1490h1105v-124h-753v-556h703v-124h-703v-562h763v-124h-899v1379h-128l-654 -1379h-150zM358 457v122h678v-122h-678zM1229 1633l138 293h150l-177 -293h-111z" />
    <glyph glyph-name="aeacute" unicode="&#x1fd;" horiz-adv-x="1824" 
d="M458 -19q-108 0 -192 38t-132 110.5t-48 173.5q0 84 36 143.5t101 98t151.5 57t186.5 18.5h1103l-58 -42q4 118 -38 209.5t-119.5 143.5t-182.5 52q-104 0 -183 -52.5t-123 -144t-44 -207.5v-57q0 -126 44 -221.5t125.5 -149.5t193.5 -54q80 0 142 26.5t105 72.5t62 104
l129 -17q-23 -88 -84 -157t-151.5 -109t-202.5 -40q-123 0 -219 48.5t-158.5 135t-84.5 199.5l9 373q28 110 89.5 193t151 129.5t199.5 46.5q101 0 187 -37t150.5 -108t100.5 -172.5t36 -231.5v-48h-1179q-106 0 -182.5 -22.5t-118 -68.5t-41.5 -114q0 -98 69 -149.5
t179 -51.5q105 0 178 42t111 115t38 164v329q0 70 -31.5 122.5t-90 82t-140.5 29.5q-80 0 -141.5 -27t-99 -72.5t-48.5 -100.5l-130 20q19 93 78 159.5t147 102t192 35.5q102 0 183 -35.5t131.5 -105.5t59.5 -172l-19 -491l-13 -1q-13 -77 -50 -135.5t-92.5 -98.5t-125 -60
t-146.5 -20zM829 1227l138 293h150l-177 -293h-111z" />
    <glyph glyph-name="Oslashacute" unicode="&#x1fe;" horiz-adv-x="1518" 
d="M760 -21q-191 0 -338.5 96t-231 268.5t-83.5 400.5q0 230 83.5 402t231 268.5t338.5 96.5t338 -96.5t230 -268.5t83 -402q0 -228 -83 -400.5t-230 -268.5t-338 -96zM760 109q146 0 262.5 75.5t184.5 218t68 341.5q0 200 -68 342.5t-184.5 218.5t-262.5 76t-263 -75.5
t-185 -218.5t-68 -343q0 -198 67.5 -340.5t184.5 -218.5t264 -76zM267 -38l-100 76l1085 1490l100 -76zM700 1633l138 293h150l-177 -293h-111z" />
    <glyph glyph-name="oslashacute" unicode="&#x1ff;" horiz-adv-x="1152" 
d="M576 -23q-144 0 -254 72t-171.5 198.5t-61.5 291.5t61.5 292t171.5 199t254 72t253.5 -72t171.5 -199t62 -292t-61.5 -291.5t-171.5 -198.5t-254 -72zM576 98q111 0 190 57t121.5 157t42.5 227t-42.5 227t-121.5 158t-190 58q-110 0 -189.5 -58t-122 -158t-42.5 -227
t42.5 -227t121.5 -157t190 -57zM160 -35l-83 70l916 1084l82 -70zM517 1227l138 293h150l-177 -293h-111z" />
    <glyph glyph-name="uni0200" unicode="&#x200;" horiz-adv-x="1334" 
d="M36 0l550 1490h162l550 -1490h-147l-354 979q-30 84 -65.5 189.5t-83.5 257.5h36q-47 -153 -83 -259t-65 -188l-354 -979h-146zM295 442v124h743v-124h-743zM756 1633l-158 293h149l120 -293h-111zM472 1633l-199 293h150l162 -293h-113z" />
    <glyph glyph-name="uni0201" unicode="&#x201;" horiz-adv-x="1079" 
d="M452 -20q-101 0 -184 36.5t-132.5 109t-49.5 177.5q0 83 31.5 138t88.5 90t135.5 55t172.5 32q96 13 159.5 22t95 28t31.5 61v20q0 70 -32 122.5t-91.5 82t-141.5 29.5q-80 0 -142 -27t-100.5 -72.5t-49.5 -100.5l-130 20q19 93 78.5 159.5t148.5 102t193 35.5
q79 0 150.5 -21.5t127 -65.5t88 -111t32.5 -158v-744h-130v174h-6q-24 -49 -69 -94t-113 -72.5t-161 -27.5zM470 99q104 0 177.5 42t113 115t39.5 164v153q-14 -13 -44 -23.5t-70.5 -18.5t-86 -15t-88.5 -12q-91 -12 -156.5 -36t-100.5 -65t-35 -106q0 -63 32.5 -107.5
t89 -67.5t129.5 -23zM616 1227l-158 293h149l120 -293h-111zM332 1227l-199 293h150l162 -293h-113z" />
    <glyph glyph-name="uni0202" unicode="&#x202;" horiz-adv-x="1334" 
d="M36 0l550 1490h162l550 -1490h-147l-354 979q-30 84 -65.5 189.5t-83.5 257.5h36q-47 -153 -83 -259t-65 -188l-354 -979h-146zM295 442v124h743v-124h-743zM667 1926q82 0 146 -36t101 -97t37 -137h-102q0 74 -53 122t-129 48t-128.5 -48t-52.5 -122h-102q0 76 37 137
t101 97t145 36z" />
    <glyph glyph-name="uni0203" unicode="&#x203;" horiz-adv-x="1079" 
d="M452 -20q-101 0 -184 36.5t-132.5 109t-49.5 177.5q0 83 31.5 138t88.5 90t135.5 55t172.5 32q96 13 159.5 22t95 28t31.5 61v20q0 70 -32 122.5t-91.5 82t-141.5 29.5q-80 0 -142 -27t-100.5 -72.5t-49.5 -100.5l-130 20q19 93 78.5 159.5t148.5 102t193 35.5
q79 0 150.5 -21.5t127 -65.5t88 -111t32.5 -158v-744h-130v174h-6q-24 -49 -69 -94t-113 -72.5t-161 -27.5zM470 99q104 0 177.5 42t113 115t39.5 164v153q-14 -13 -44 -23.5t-70.5 -18.5t-86 -15t-88.5 -12q-91 -12 -156.5 -36t-100.5 -65t-35 -106q0 -63 32.5 -107.5
t89 -67.5t129.5 -23zM527 1520q82 0 146 -36t101 -97t37 -137h-102q0 74 -53 122t-129 48t-128.5 -48t-52.5 -122h-102q0 76 37 137t101 97t145 36z" />
    <glyph glyph-name="uni0204" unicode="&#x204;" horiz-adv-x="1194" 
d="M174 0v1490h912v-124h-774v-547h718v-124h-718v-571h780v-124h-918zM721 1633l-158 293h149l120 -293h-111zM437 1633l-199 293h150l162 -293h-113z" />
    <glyph glyph-name="uni0205" unicode="&#x205;" horiz-adv-x="1128" 
d="M584 -23q-153 0 -264 72.5t-171 199t-60 289.5q0 164 61 291t169.5 200t250.5 73q100 0 186.5 -37t151 -108t100.5 -172.5t36 -231.5v-48h-878v115h805l-58 -40q0 118 -42.5 209t-119.5 142.5t-181 51.5q-105 0 -183.5 -52.5t-122.5 -144t-44 -207.5v-57
q0 -126 44.5 -222t126 -149.5t193.5 -53.5q79 0 141.5 26.5t105 72.5t62.5 104l129 -18q-24 -87 -85 -156t-151 -109t-202 -40zM655 1227l-158 293h149l120 -293h-111zM371 1227l-199 293h150l162 -293h-113z" />
    <glyph glyph-name="uni0206" unicode="&#x206;" horiz-adv-x="1194" 
d="M174 0v1490h912v-124h-774v-547h718v-124h-718v-571h780v-124h-918zM632 1926q82 0 146 -36t101 -97t37 -137h-102q0 74 -53 122t-129 48t-128.5 -48t-52.5 -122h-102q0 76 37 137t101 97t145 36z" />
    <glyph glyph-name="uni0207" unicode="&#x207;" horiz-adv-x="1128" 
d="M584 -23q-153 0 -264 72.5t-171 199t-60 289.5q0 164 61 291t169.5 200t250.5 73q100 0 186.5 -37t151 -108t100.5 -172.5t36 -231.5v-48h-878v115h805l-58 -40q0 118 -42.5 209t-119.5 142.5t-181 51.5q-105 0 -183.5 -52.5t-122.5 -144t-44 -207.5v-57
q0 -126 44.5 -222t126 -149.5t193.5 -53.5q79 0 141.5 26.5t105 72.5t62.5 104l129 -18q-24 -87 -85 -156t-151 -109t-202 -40zM567 1520q82 0 146 -36t101 -97t37 -137h-102q0 74 -53 122t-129 48t-128.5 -48t-52.5 -122h-102q0 76 37 137t101 97t145 36z" />
    <glyph glyph-name="uni0208" unicode="&#x208;" horiz-adv-x="486" 
d="M312 1490v-1490h-138v1490h138zM331 1633l-158 293h149l120 -293h-111zM47 1633l-199 293h150l162 -293h-113z" />
    <glyph glyph-name="uni0209" unicode="&#x209;" horiz-adv-x="427" 
d="M148 0v1084h131v-1084h-131zM302 1227l-158 293h149l120 -293h-111zM18 1227l-199 293h150l162 -293h-113z" />
    <glyph glyph-name="uni020A" unicode="&#x20a;" horiz-adv-x="486" 
d="M312 1490v-1490h-138v1490h138zM242 1926q82 0 146 -36t101 -97t37 -137h-102q0 74 -53 122t-129 48t-128.5 -48t-52.5 -122h-102q0 76 37 137t101 97t145 36z" />
    <glyph glyph-name="uni020B" unicode="&#x20b;" horiz-adv-x="427" 
d="M148 0v1084h131v-1084h-131zM213 1520q82 0 146 -36t101 -97t37 -137h-102q0 74 -53 122t-129 48t-128.5 -48t-52.5 -122h-102q0 76 37 137t101 97t145 36z" />
    <glyph glyph-name="uni020C" unicode="&#x20c;" horiz-adv-x="1518" 
d="M760 -21q-191 0 -338.5 96t-231 268.5t-83.5 400.5q0 230 83.5 402t231 268.5t338.5 96.5t338 -96.5t230 -268.5t83 -402q0 -228 -83 -400.5t-230 -268.5t-338 -96zM760 109q146 0 262.5 75.5t184.5 218t68 341.5q0 200 -68 342.5t-184.5 218.5t-262.5 76t-263 -75.5
t-185 -218.5t-68 -343q0 -198 67.5 -340.5t184.5 -218.5t264 -76zM848 1633l-158 293h149l120 -293h-111zM564 1633l-199 293h150l162 -293h-113z" />
    <glyph glyph-name="uni020D" unicode="&#x20d;" horiz-adv-x="1152" 
d="M576 -23q-144 0 -254 72t-171.5 198.5t-61.5 291.5t61.5 292t171.5 199t254 72t253.5 -72t171.5 -199t62 -292t-61.5 -291.5t-171.5 -198.5t-254 -72zM576 98q111 0 190 57t121.5 157t42.5 227t-42.5 227t-121.5 158t-190 58q-110 0 -189.5 -58t-122 -158t-42.5 -227
t42.5 -227t121.5 -157t190 -57zM664 1227l-158 293h149l120 -293h-111zM380 1227l-199 293h150l162 -293h-113z" />
    <glyph glyph-name="uni020E" unicode="&#x20e;" horiz-adv-x="1518" 
d="M760 -21q-191 0 -338.5 96t-231 268.5t-83.5 400.5q0 230 83.5 402t231 268.5t338.5 96.5t338 -96.5t230 -268.5t83 -402q0 -228 -83 -400.5t-230 -268.5t-338 -96zM760 109q146 0 262.5 75.5t184.5 218t68 341.5q0 200 -68 342.5t-184.5 218.5t-262.5 76t-263 -75.5
t-185 -218.5t-68 -343q0 -198 67.5 -340.5t184.5 -218.5t264 -76zM759 1926q82 0 146 -36t101 -97t37 -137h-102q0 74 -53 122t-129 48t-128.5 -48t-52.5 -122h-102q0 76 37 137t101 97t145 36z" />
    <glyph glyph-name="uni020F" unicode="&#x20f;" horiz-adv-x="1152" 
d="M576 -23q-144 0 -254 72t-171.5 198.5t-61.5 291.5t61.5 292t171.5 199t254 72t253.5 -72t171.5 -199t62 -292t-61.5 -291.5t-171.5 -198.5t-254 -72zM576 98q111 0 190 57t121.5 157t42.5 227t-42.5 227t-121.5 158t-190 58q-110 0 -189.5 -58t-122 -158t-42.5 -227
t42.5 -227t121.5 -157t190 -57zM576 1520q82 0 146 -36t101 -97t37 -137h-102q0 74 -53 122t-129 48t-128.5 -48t-52.5 -122h-102q0 76 37 137t101 97t145 36z" />
    <glyph glyph-name="uni0210" unicode="&#x210;" horiz-adv-x="1276" 
d="M174 0v1490h510q151 0 258.5 -55.5t164.5 -156t57 -234.5q0 -133 -58.5 -232.5t-167 -154.5t-258.5 -55h-430v125h431q110 0 187 39t118 110.5t41 167.5q0 99 -41 170.5t-118.5 111.5t-188.5 40h-367v-1366h-138zM1041 0l-361 673h157l364 -673h-160zM722 1633l-158 293
h149l120 -293h-111zM438 1633l-199 293h150l162 -293h-113z" />
    <glyph glyph-name="uni0211" unicode="&#x211;" horiz-adv-x="671" 
d="M148 0v1084h127v-176h6q33 86 110 137.5t182 51.5q17 0 33.5 -1t28.5 -2v-132q-8 2 -30 5t-49 3q-78 0 -141 -34.5t-99.5 -98t-36.5 -152.5v-685h-131zM482 1227l-158 293h149l120 -293h-111zM198 1227l-199 293h150l162 -293h-113z" />
    <glyph glyph-name="uni0212" unicode="&#x212;" horiz-adv-x="1276" 
d="M174 0v1490h510q151 0 258.5 -55.5t164.5 -156t57 -234.5q0 -133 -58.5 -232.5t-167 -154.5t-258.5 -55h-430v125h431q110 0 187 39t118 110.5t41 167.5q0 99 -41 170.5t-118.5 111.5t-188.5 40h-367v-1366h-138zM1041 0l-361 673h157l364 -673h-160zM633 1926
q82 0 146 -36t101 -97t37 -137h-102q0 74 -53 122t-129 48t-128.5 -48t-52.5 -122h-102q0 76 37 137t101 97t145 36z" />
    <glyph glyph-name="uni0213" unicode="&#x213;" horiz-adv-x="671" 
d="M148 0v1084h127v-176h6q33 86 110 137.5t182 51.5q17 0 33.5 -1t28.5 -2v-132q-8 2 -30 5t-49 3q-78 0 -141 -34.5t-99.5 -98t-36.5 -152.5v-685h-131zM393 1520q82 0 146 -36t101 -97t37 -137h-102q0 74 -53 122t-129 48t-128.5 -48t-52.5 -122h-102q0 76 37 137t101 97
t145 36z" />
    <glyph glyph-name="uni0214" unicode="&#x214;" horiz-adv-x="1453" 
d="M727 -22q-168 0 -295.5 68.5t-199 188.5t-71.5 272v983h138v-974q0 -118 53 -210t149.5 -145.5t225.5 -53.5t225 53.5t149 145.5t53 210v974h139v-983q0 -153 -71.5 -272.5t-199 -188t-295.5 -68.5zM815 1633l-158 293h149l120 -293h-111zM531 1633l-199 293h150
l162 -293h-113z" />
    <glyph glyph-name="uni0215" unicode="&#x215;" horiz-adv-x="1149" 
d="M534 -17q-111 0 -198.5 47t-137.5 138.5t-50 223.5v692h131v-683q0 -140 76.5 -218.5t205.5 -78.5q87 0 157 36.5t110.5 107t40.5 170.5v666h132v-1084h-128v255h28q-46 -142 -144 -207t-223 -65zM662 1227l-158 293h149l120 -293h-111zM378 1227l-199 293h150l162 -293
h-113z" />
    <glyph glyph-name="uni0216" unicode="&#x216;" horiz-adv-x="1453" 
d="M727 -22q-168 0 -295.5 68.5t-199 188.5t-71.5 272v983h138v-974q0 -118 53 -210t149.5 -145.5t225.5 -53.5t225 53.5t149 145.5t53 210v974h139v-983q0 -153 -71.5 -272.5t-199 -188t-295.5 -68.5zM727 1926q82 0 146 -36t101 -97t37 -137h-102q0 74 -53 122t-129 48
t-128.5 -48t-52.5 -122h-102q0 76 37 137t101 97t145 36z" />
    <glyph glyph-name="uni0217" unicode="&#x217;" horiz-adv-x="1149" 
d="M534 -17q-111 0 -198.5 47t-137.5 138.5t-50 223.5v692h131v-683q0 -140 76.5 -218.5t205.5 -78.5q87 0 157 36.5t110.5 107t40.5 170.5v666h132v-1084h-128v255h28q-46 -142 -144 -207t-223 -65zM574 1520q82 0 146 -36t101 -97t37 -137h-102q0 74 -53 122t-129 48
t-128.5 -48t-52.5 -122h-102q0 76 37 137t101 97t145 36z" />
    <glyph glyph-name="uni0218" unicode="&#x218;" horiz-adv-x="1250" 
d="M627 -24q-156 0 -272 54t-181 151.5t-70 228.5h141q5 -96 53.5 -165t133.5 -105.5t195 -36.5q113 0 199 36t134.5 102.5t48.5 154.5q0 71 -34.5 121.5t-103 88t-172.5 65.5l-172 48q-196 54 -292 147t-96 236q0 122 63 214.5t173.5 144t252.5 51.5q144 0 252 -53.5
t170 -148t67 -218.5h-136q-11 134 -107 214t-250 80q-101 0 -180 -35.5t-124 -98.5t-45 -144q0 -69 37 -119.5t104 -85.5t159 -61l163 -45q90 -24 164.5 -59t129 -82.5t84 -111t29.5 -146.5q0 -122 -63.5 -218t-180 -150t-274.5 -54zM471 -494l85 376h137l-120 -376h-102z
" />
    <glyph glyph-name="uni0219" unicode="&#x219;" horiz-adv-x="999" 
d="M502 -22q-112 0 -199 36t-141.5 106.5t-66.5 173.5l128 14q16 -104 87 -159t190 -55q125 0 199 56t74 141q0 68 -47 109t-135 61l-178 43q-143 34 -216 105.5t-73 183.5q0 91 49 160.5t135.5 109t198.5 39.5q107 0 187.5 -37t130 -105t63.5 -163l-125 -14
q-15 91 -79 147.5t-177 56.5q-112 0 -181.5 -53.5t-69.5 -137.5q0 -69 49.5 -111t144.5 -65l173 -41q144 -34 214 -103t70 -180q0 -96 -51.5 -167.5t-143 -111t-210.5 -39.5zM351 -494l85 376h137l-120 -376h-102z" />
    <glyph glyph-name="uni021A.1" unicode="&#x21a;" horiz-adv-x="1265" 
d="M78 1366v124h1109v-124h-485v-1366h-138v1366h-486zM477 -494l85 376h137l-120 -376h-102z" />
    <glyph glyph-name="uni021B" unicode="&#x21b;" horiz-adv-x="595" 
d="M543 1084v-115h-530v115h530zM187 1362h132v-1113q0 -74 32.5 -107t105.5 -30q18 0 41 1.5t42 3.5l13 -115q-23 -3 -50 -5t-52 -2q-128 -4 -196 60t-68 184v1123zM202 -494l85 376h137l-120 -376h-102z" />
    <glyph glyph-name="uni021C" unicode="&#x21c;" horiz-adv-x="1219" 
d="M193 349v117q173 52 311 115.5t234 139.5t146.5 167t49.5 196q0 139 -87 218t-238 79q-104 0 -181.5 -35.5t-121 -96.5t-43.5 -140h-157q1 120 65.5 210t178 140.5t259.5 50.5q140 0 248.5 -49.5t170 -142t61.5 -221.5q0 -130 -66 -246t-187 -213t-285 -170t-358 -119z
M784 670l77 89q81 -33 137.5 -90.5t86 -143t29.5 -201.5q0 -164 -61.5 -283.5t-180.5 -206.5t-289.5 -152t-389.5 -118v128q193 49 336.5 105t238.5 129.5t141.5 172.5t46.5 233t-41 217.5t-131 120.5z" />
    <glyph glyph-name="uni021D" unicode="&#x21d;" horiz-adv-x="1035" 
d="M187 227v116q175 35 302 100.5t196 155.5t68 198q-1 98 -59.5 155t-169.5 57q-76 0 -134.5 -27.5t-92 -78t-33.5 -119.5h-150q0 107 52.5 185t146 121t216.5 43q174 0 274.5 -90t100.5 -241q0 -139 -90.5 -256.5t-252 -200.5t-374.5 -118zM637 466l84 79
q100 -51 151.5 -145.5t51.5 -233.5q1 -262 -182 -411t-555 -191v121q207 35 336 97t189.5 158.5t60.5 233.5q0 106 -35.5 181t-100.5 111z" />
    <glyph glyph-name="uni021E" unicode="&#x21e;" horiz-adv-x="1466" 
d="M174 0v1490h138v-666h842v666h138v-1490h-138v700h-842v-700h-138zM564 1931l168 -194l168 194h135v-4l-242 -272h-122l-241 272v4h134z" />
    <glyph glyph-name="uni021F" unicode="&#x21f;" horiz-adv-x="1149" 
d="M279 666v-666h-131v1490h131v-662h-32q46 142 144 207t224 65q111 0 198.5 -47t137.5 -138t50 -223v-692h-132v683q0 140 -76 218t-206 78q-87 0 -156.5 -36t-110.5 -106t-41 -171zM45 1931l168 -194l168 194h135v-4l-242 -272h-122l-241 272v4h134z" />
    <glyph glyph-name="uni0220" unicode="&#x220;" horiz-adv-x="1169" 
d="M1084 -417h-153v1413q1 141 -42.5 225.5t-127 122.5t-204.5 38q-106 0 -196.5 -27.5t-161.5 -76.5l-7 124q70 47 165.5 77.5t210.5 30.5q144 0 261 -54t186 -167.5t69 -293.5v-1412zM240 1490v-1490h-150v1490h150z" />
    <glyph glyph-name="uni0221" unicode="&#x221;" horiz-adv-x="1504" 
d="M1196 -415q-100 0 -165 41.5t-97 109t-32 143.5v303h132v-315q0 -80 47.5 -123.5t114.5 -43.5q64 0 104.5 38t40.5 98q0 57 -37.5 94t-96.5 42q-42 4 -80 -10.5t-74 -46.5t-74 -84l-205 -218l-87 85l175 191q83 104 169 152t172 48q117 0 195.5 -69.5t78.5 -183.5
q0 -113 -77.5 -182t-203.5 -69zM548 -21q-135 0 -239 70.5t-162 197t-58 293.5q0 168 58.5 294t162 196t239.5 70q89 0 158 -30.5t117.5 -81t74.5 -111.5h6v613h131v-1490h-128v204h-8q-28 -61 -76.5 -112.5t-117 -82t-158.5 -30.5zM566 99q107 0 184 55.5t118.5 155.5
t41.5 231q0 132 -41.5 231t-118.5 154t-184 55q-104 0 -181.5 -54.5t-120 -153.5t-42.5 -232t42.5 -232.5t120 -154.5t181.5 -55z" />
    <glyph glyph-name="uni0222" unicode="&#x222;" horiz-adv-x="1201" 
d="M587 866h27q160 0 281 -50t188 -147.5t67 -242.5q0 -149 -68.5 -248t-190 -148.5t-280.5 -49.5h-20q-159 0 -281 49t-191 148t-69 248q0 145 67.5 243t188.5 148t281 50zM614 743h-27q-182 0 -281.5 -79t-99.5 -239q0 -161 102 -237t282 -76h21q180 -1 282 75.5
t102 238.5q0 158 -100 237.5t-281 79.5zM582 875h38q107 1 190 23.5t130.5 80.5t47.5 161q0 109 -53.5 169t-151.5 81v123q103 -8 184.5 -51.5t129 -123t47.5 -198.5q0 -142 -69.5 -227t-188.5 -122.5t-267 -37.5h-37q-148 1 -267 38t-188.5 122t-69.5 227q0 117 46.5 196
t126 122t178.5 52v-124q-94 -22 -144.5 -81t-50.5 -165q0 -104 47.5 -161.5t131 -80t190.5 -23.5z" />
    <glyph glyph-name="uni0223" unicode="&#x223;" horiz-adv-x="1219" 
d="M587 863h45q159 0 279.5 -49t188 -145.5t67.5 -239.5q0 -149 -68.5 -249t-190 -150t-279.5 -50h-38q-158 0 -280 50t-190.5 149.5t-68.5 247.5q0 145 67.5 241.5t188 145.5t279.5 49zM632 745h-45q-180 0 -281.5 -79t-101.5 -239t103.5 -241.5t282.5 -81.5h39
q177 0 281 81.5t104 242.5q0 158 -102.5 237.5t-279.5 79.5zM642 870q107 0 190.5 27.5t132 91.5t48.5 170q0 117 -53 183.5t-154 97.5v116q105 -7 185.5 -56t127 -135t46.5 -206q0 -143 -69.5 -233t-188 -132t-265.5 -42h-66q-147 1 -265.5 43t-187.5 131.5t-69 232.5
q0 119 45 204t124 133.5t180 56.5v-117q-96 -31 -146.5 -96.5t-50.5 -180.5q0 -106 48 -169.5t131.5 -91.5t190.5 -28h66z" />
    <glyph glyph-name="uni0224" unicode="&#x224;" horiz-adv-x="1257" 
d="M814 -418v120q17 -1 41 -1h38q72 0 101.5 27.5t29.5 89.5v182h138v-187q0 -116 -64 -175t-188 -59q-27 0 -52.5 1t-43.5 2zM97 0v113l750 1052q45 63 92.5 126t95.5 126l16 -49q-85 -2 -170 -2.5t-170 -0.5h-596v125h1040v-114l-742 -1041q-47 -66 -96.5 -131.5
t-99.5 -130.5l-16 49q84 1 167.5 1.5t166.5 0.5h627v-124h-1065z" />
    <glyph glyph-name="uni0225" unicode="&#x225;" horiz-adv-x="1026" 
d="M869 -213v40q0 76 -30 124.5t-115 48.5h-614v103l628 854v5h-614v122h779v-109l-620 -848v-6h441q129 0 197.5 -72.5t68.5 -190.5v-71h-121z" />
    <glyph glyph-name="uni0226" unicode="&#x226;" horiz-adv-x="1334" 
d="M36 0l550 1490h162l550 -1490h-147l-354 979q-30 84 -65.5 189.5t-83.5 257.5h36q-47 -153 -83 -259t-65 -188l-354 -979h-146zM295 442v124h743v-124h-743zM668 1709q-39 0 -67.5 27.5t-28.5 66.5t28.5 66.5t67.5 27.5q40 0 68 -27.5t28 -66.5t-28 -66.5t-68 -27.5z" />
    <glyph glyph-name="uni0227" unicode="&#x227;" horiz-adv-x="1079" 
d="M452 -20q-101 0 -184 36.5t-132.5 109t-49.5 177.5q0 83 31.5 138t88.5 90t135.5 55t172.5 32q96 13 159.5 22t95 28t31.5 61v20q0 70 -32 122.5t-91.5 82t-141.5 29.5q-80 0 -142 -27t-100.5 -72.5t-49.5 -100.5l-130 20q19 93 78.5 159.5t148.5 102t193 35.5
q79 0 150.5 -21.5t127 -65.5t88 -111t32.5 -158v-744h-130v174h-6q-24 -49 -69 -94t-113 -72.5t-161 -27.5zM470 99q104 0 177.5 42t113 115t39.5 164v153q-14 -13 -44 -23.5t-70.5 -18.5t-86 -15t-88.5 -12q-91 -12 -156.5 -36t-100.5 -65t-35 -106q0 -63 32.5 -107.5
t89 -67.5t129.5 -23zM527 1303q-39 0 -67.5 27.5t-28.5 66.5t28.5 66.5t67.5 27.5q40 0 68 -27.5t28 -66.5t-28 -66.5t-68 -27.5z" />
    <glyph glyph-name="uni0228" unicode="&#x228;" horiz-adv-x="1194" 
d="M174 0v1490h912v-124h-774v-547h718v-124h-718v-571h780v-124h-918zM531 -418v85h111q56 0 83.5 20t27.5 61q0 40 -27.5 60.5t-85.5 20.5h-74l33 209h77v-38l-8 -92q90 -3 139 -44.5t49 -115.5q0 -83 -56 -124.5t-157 -41.5h-112z" />
    <glyph glyph-name="uni0229" unicode="&#x229;" horiz-adv-x="1128" 
d="M584 -23q-153 0 -264 72.5t-171 199t-60 289.5q0 164 61 291t169.5 200t250.5 73q100 0 186.5 -37t151 -108t100.5 -172.5t36 -231.5v-48h-878v115h805l-58 -40q0 118 -42.5 209t-119.5 142.5t-181 51.5q-105 0 -183.5 -52.5t-122.5 -144t-44 -207.5v-57
q0 -126 44.5 -222t126 -149.5t193.5 -53.5q79 0 141.5 26.5t105 72.5t62.5 104l129 -18q-24 -87 -85 -156t-151 -109t-202 -40zM466 -418v85h111q56 0 83.5 20t27.5 61q0 40 -27.5 60.5t-85.5 20.5h-74l33 209h77v-38l-8 -92q90 -3 139 -44.5t49 -115.5q0 -83 -56 -124.5
t-157 -41.5h-112z" />
    <glyph glyph-name="uni022A" unicode="&#x22a;" horiz-adv-x="1518" 
d="M760 -21q-191 0 -338.5 96t-231 268.5t-83.5 400.5q0 230 83.5 402t231 268.5t338.5 96.5t338 -96.5t230 -268.5t83 -402q0 -228 -83 -400.5t-230 -268.5t-338 -96zM760 109q146 0 262.5 75.5t184.5 218t68 341.5q0 200 -68 342.5t-184.5 218.5t-262.5 76t-263 -75.5
t-185 -218.5t-68 -343q0 -198 67.5 -340.5t184.5 -218.5t264 -76zM969 1669q-39 0 -66.5 27.5t-27.5 66.5q0 38 27.5 65.5t66.5 27.5q38 0 65.5 -27.5t27.5 -65.5q0 -39 -27.5 -66.5t-65.5 -27.5zM554 1669q-38 0 -66 27.5t-28 66.5q0 38 28 65.5t66 27.5q39 0 66.5 -27.5
t27.5 -65.5q0 -39 -27.5 -66.5t-66.5 -27.5zM1022 2109v-100h-523v100h523z" />
    <glyph glyph-name="uni022B" unicode="&#x22b;" horiz-adv-x="1152" 
d="M576 -23q-144 0 -254 72t-171.5 198.5t-61.5 291.5t61.5 292t171.5 199t254 72t253.5 -72t171.5 -199t62 -292t-61.5 -291.5t-171.5 -198.5t-254 -72zM576 98q111 0 190 57t121.5 157t42.5 227t-42.5 227t-121.5 158t-190 58q-110 0 -189.5 -58t-122 -158t-42.5 -227
t42.5 -227t121.5 -157t190 -57zM785 1263q-39 0 -66.5 27.5t-27.5 66.5q0 38 27.5 65.5t66.5 27.5q38 0 65.5 -27.5t27.5 -65.5q0 -39 -27.5 -66.5t-65.5 -27.5zM370 1263q-38 0 -66 27.5t-28 66.5q0 38 28 65.5t66 27.5q39 0 66.5 -27.5t27.5 -65.5q0 -39 -27.5 -66.5
t-66.5 -27.5zM838 1703v-100h-523v100h523z" />
    <glyph glyph-name="uni022C" unicode="&#x22c;" horiz-adv-x="1518" 
d="M760 -21q-191 0 -338.5 96t-231 268.5t-83.5 400.5q0 230 83.5 402t231 268.5t338.5 96.5t338 -96.5t230 -268.5t83 -402q0 -228 -83 -400.5t-230 -268.5t-338 -96zM760 109q146 0 262.5 75.5t184.5 218t68 341.5q0 200 -68 342.5t-184.5 218.5t-262.5 76t-263 -75.5
t-185 -218.5t-68 -343q0 -198 67.5 -340.5t184.5 -218.5t264 -76zM891 1660q-38 0 -72 14t-64 33t-56.5 33t-50.5 14q-34 0 -52.5 -26.5t-21.5 -62.5h-98q4 82 44 135.5t114 53.5q41 0 74 -14.5t61 -33.5t54 -33t53 -14q31 0 48.5 20.5t25.5 68.5h96q-6 -86 -46.5 -137
t-108.5 -51zM1021 2109v-100h-523v100h523z" />
    <glyph glyph-name="uni022D" unicode="&#x22d;" horiz-adv-x="1152" 
d="M576 -23q-144 0 -254 72t-171.5 198.5t-61.5 291.5t61.5 292t171.5 199t254 72t253.5 -72t171.5 -199t62 -292t-61.5 -291.5t-171.5 -198.5t-254 -72zM576 98q111 0 190 57t121.5 157t42.5 227t-42.5 227t-121.5 158t-190 58q-110 0 -189.5 -58t-122 -158t-42.5 -227
t42.5 -227t121.5 -157t190 -57zM707 1254q-38 0 -72 14t-64 33t-56.5 33t-50.5 14q-34 0 -52.5 -26.5t-21.5 -62.5h-98q4 82 44 135.5t114 53.5q41 0 74 -14.5t61 -33.5t54 -33t53 -14q31 0 48.5 20.5t25.5 68.5h96q-6 -86 -46.5 -137t-108.5 -51zM837 1703v-100h-523v100
h523z" />
    <glyph glyph-name="uni022E" unicode="&#x22e;" horiz-adv-x="1518" 
d="M760 -21q-191 0 -338.5 96t-231 268.5t-83.5 400.5q0 230 83.5 402t231 268.5t338.5 96.5t338 -96.5t230 -268.5t83 -402q0 -228 -83 -400.5t-230 -268.5t-338 -96zM760 109q146 0 262.5 75.5t184.5 218t68 341.5q0 200 -68 342.5t-184.5 218.5t-262.5 76t-263 -75.5
t-185 -218.5t-68 -343q0 -198 67.5 -340.5t184.5 -218.5t264 -76zM760 1709q-39 0 -67.5 27.5t-28.5 66.5t28.5 66.5t67.5 27.5q40 0 68 -27.5t28 -66.5t-28 -66.5t-68 -27.5z" />
    <glyph glyph-name="uni022F" unicode="&#x22f;" horiz-adv-x="1152" 
d="M576 -23q-144 0 -254 72t-171.5 198.5t-61.5 291.5t61.5 292t171.5 199t254 72t253.5 -72t171.5 -199t62 -292t-61.5 -291.5t-171.5 -198.5t-254 -72zM576 98q111 0 190 57t121.5 157t42.5 227t-42.5 227t-121.5 158t-190 58q-110 0 -189.5 -58t-122 -158t-42.5 -227
t42.5 -227t121.5 -157t190 -57zM576 1303q-39 0 -67.5 27.5t-28.5 66.5t28.5 66.5t67.5 27.5q40 0 68 -27.5t28 -66.5t-28 -66.5t-68 -27.5z" />
    <glyph glyph-name="uni0230" unicode="&#x230;" horiz-adv-x="1518" 
d="M760 -21q-191 0 -338.5 96t-231 268.5t-83.5 400.5q0 230 83.5 402t231 268.5t338.5 96.5t338 -96.5t230 -268.5t83 -402q0 -228 -83 -400.5t-230 -268.5t-338 -96zM760 109q146 0 262.5 75.5t184.5 218t68 341.5q0 200 -68 342.5t-184.5 218.5t-262.5 76t-263 -75.5
t-185 -218.5t-68 -343q0 -198 67.5 -340.5t184.5 -218.5t264 -76zM761 1669q-39 0 -67.5 27.5t-28.5 66.5t28.5 66t67.5 27q40 0 68 -27t28 -67q0 -38 -28 -65.5t-68 -27.5zM1022 2109v-100h-524v100h524z" />
    <glyph glyph-name="uni0231" unicode="&#x231;" horiz-adv-x="1152" 
d="M576 -23q-144 0 -254 72t-171.5 198.5t-61.5 291.5t61.5 292t171.5 199t254 72t253.5 -72t171.5 -199t62 -292t-61.5 -291.5t-171.5 -198.5t-254 -72zM576 98q111 0 190 57t121.5 157t42.5 227t-42.5 227t-121.5 158t-190 58q-110 0 -189.5 -58t-122 -158t-42.5 -227
t42.5 -227t121.5 -157t190 -57zM577 1263q-39 0 -67.5 27.5t-28.5 66.5t28.5 66t67.5 27q40 0 68 -27t28 -67q0 -38 -28 -65.5t-68 -27.5zM838 1703v-100h-524v100h524z" />
    <glyph glyph-name="uni0232" unicode="&#x232;" horiz-adv-x="1320" 
d="M591 0v643l-555 847h161l319 -487q47 -72 89 -142t85 -151h-57q42 82 84.5 152t88.5 141l317 487h160l-554 -847v-643h-138zM921 1845v-109h-523v109h523z" />
    <glyph glyph-name="uni0233" unicode="&#x233;" horiz-adv-x="1079" 
d="M132 -411l17 116l61 -2q49 -8 86 3t67 46.5t54 100.5l55 145l-424 1086h143l255 -671q32 -85 59.5 -169.5t55.5 -167.5h-41q28 83 56 167.5t60 169.5l253 671h142l-498 -1277q-31 -78 -72 -128.5t-94.5 -75.5t-121.5 -25q-34 0 -61.5 3.5t-51.5 7.5zM801 1439v-109h-523
v109h523z" />
    <glyph glyph-name="uni0234" unicode="&#x234;" horiz-adv-x="747" 
d="M441 -415q-100 0 -165 41.5t-96.5 109t-31.5 143.5v303h131v-315q0 -80 47.5 -123.5t114.5 -43.5q64 0 105 38t41 98q0 57 -37.5 94t-97.5 42q-42 4 -80 -10.5t-74 -46.5t-74 -84l-205 -218l-87 85l176 191q82 104 168 152t173 48q117 0 195.5 -69.5t78.5 -183.5
q0 -113 -77.5 -182t-204.5 -69zM279 1490v-1490h-131v1490h131z" />
    <glyph glyph-name="uni0235" unicode="&#x235;" horiz-adv-x="1468" 
d="M1163 -415q-100 0 -165 41.5t-97 109t-32 143.5v303h132v-315q0 -80 47.5 -123.5t114.5 -43.5q64 0 104.5 38t40.5 98q0 57 -37 94t-97 42q-42 4 -80 -10.5t-74 -46.5t-74 -84l-205 -218l-87 85l175 191q83 104 169 152t172 48q117 0 196 -69.5t79 -183.5
q0 -113 -78 -182t-204 -69zM279 666v-666h-131v1084h128v-256h-29q46 142 144 207t224 65q111 0 198 -47t137.5 -138t50.5 -223v-692h-132v683q0 140 -76 218t-206 78q-87 0 -156.5 -36t-110.5 -106t-41 -171z" />
    <glyph glyph-name="uni0236" unicode="&#x236;" horiz-adv-x="787" 
d="M468 -18q-100 0 -165 42t-97 109t-32 143v303h132v-315q0 -80 47.5 -123.5t114.5 -43.5q64 0 104.5 38t40.5 98q0 57 -37.5 94.5t-96.5 41.5q-42 4 -80 -10t-74 -46.5t-74 -83.5l-205 -219l-87 86l175 190q83 104 169 152t172 48q117 0 195.5 -69.5t78.5 -183.5
q0 -112 -77.5 -181.5t-203.5 -69.5zM174 397v965h132v-965h-132zM13 969v115h520v-115h-520z" />
    <glyph glyph-name="uni0237" unicode="&#x237;" horiz-adv-x="429" 
d="M149 1084h132v-1217q1 -85 -34 -149.5t-99 -100t-152 -35.5h-44v120h37q75 0 117.5 45t42.5 130v1207z" />
    <glyph glyph-name="uni0238" unicode="&#x238;" horiz-adv-x="1769" 
d="M1698 561v-14q0 -169 -53 -297t-149 -199.5t-227 -71.5q-83 0 -150.5 29.5t-119.5 86t-88 137.5t-55 185v278q26 137 81 235t139.5 150.5t196.5 52.5q130 0 225 -70.5t147.5 -199t52.5 -302.5zM1545 547v14q1 129 -31.5 229t-99 157.5t-169.5 57.5q-122 0 -203 -78
t-116 -194v-354q41 -117 120 -194.5t201 -77.5q102 0 168 56.5t98.5 156t31.5 227.5zM809 206v1284h151v-1490h-138zM71 547v14q0 174 52 302.5t147.5 199t225.5 70.5q113 0 197 -52.5t139 -150.5t79 -235v-278q-18 -104 -53.5 -185t-87.5 -137.5t-120 -86t-151 -29.5
q-131 0 -227 71.5t-148.5 199.5t-52.5 297zM222 561v-14q1 -128 33.5 -227.5t98.5 -156t168 -56.5q122 0 200.5 77.5t119.5 194.5v354q-34 116 -115 194t-202 78q-103 0 -170 -57.5t-99.5 -157.5t-33.5 -229z" />
    <glyph glyph-name="uni0239" unicode="&#x239;" horiz-adv-x="1769" 
d="M810 -416v1330l14 204h123l14 -205v-1329h-151zM71 547v14q0 174 52 302.5t147.5 199t225.5 70.5q113 0 197 -52.5t139 -150.5t79 -235v-278q-18 -104 -53.5 -185t-87.5 -137.5t-120 -86t-151 -29.5q-131 0 -227 71.5t-148.5 199.5t-52.5 297zM222 561v-14
q1 -128 33.5 -227.5t98.5 -156t168 -56.5q122 0 200.5 77.5t119.5 194.5v354q-34 116 -115 194t-202 78q-103 0 -170 -57.5t-99.5 -157.5t-33.5 -229zM1698 561v-14q0 -169 -53 -297t-149 -199.5t-227 -71.5q-83 0 -150.5 29.5t-119.5 86t-88 137.5t-55 185v278
q26 137 81 235t139.5 150.5t196.5 52.5q130 0 225 -70.5t147.5 -199t52.5 -302.5zM1545 547v14q1 129 -31.5 229t-99 157.5t-169.5 57.5q-122 0 -203 -78t-116 -194v-354q41 -117 120 -194.5t201 -77.5q102 0 168 56.5t98.5 156t31.5 227.5z" />
    <glyph glyph-name="uni023A" unicode="&#x23a;" horiz-adv-x="1334" 
d="M1069 1678l-664 -1868h-127l664 1868h127zM36 0l550 1490h162l550 -1490h-147l-354 979q-30 84 -65.5 189.5t-83.5 257.5h36q-47 -153 -83 -259t-65 -188l-354 -979h-146zM295 442v124h743v-124h-743z" />
    <glyph glyph-name="uni023B" unicode="&#x23b;" horiz-adv-x="1461" 
d="M324 -190l682 1868h128l-683 -1868h-127zM764 -21q-194 0 -342 96t-231.5 268t-83.5 401q0 230 83 402.5t231.5 268.5t342.5 96q120 0 221.5 -38t179 -105.5t127 -157t67.5 -193.5h-140q-16 79 -55 145t-98 115.5t-135.5 76.5t-166.5 27q-149 0 -266.5 -76t-185.5 -218.5
t-68 -342.5t68 -342t185.5 -217.5t266.5 -75.5q90 0 166 27.5t135 76.5t98.5 115t56.5 144h139q-17 -103 -67 -192.5t-127.5 -157t-178.5 -105.5t-222 -38z" />
    <glyph glyph-name="uni023C" unicode="&#x23c;" horiz-adv-x="1094" 
d="M145 -418l723 1915h108l-723 -1915h-108zM576 -21q-144 0 -254 71.5t-171.5 198t-61.5 290.5q0 166 61.5 292.5t171.5 198.5t254 72q86 0 159 -26t129 -71.5t93 -105t52 -126.5l-130 -18q-10 44 -35 85t-63.5 73t-89.5 50.5t-115 18.5q-110 0 -189.5 -57.5t-122 -157.5
t-42.5 -228q0 -127 42.5 -226.5t122 -156.5t189.5 -57q64 0 115 18.5t89.5 50.5t63.5 73.5t36 87.5l131 -18q-14 -67 -51.5 -127t-94.5 -106t-130 -72.5t-159 -26.5z" />
    <glyph glyph-name="uni023D" unicode="&#x23d;" horiz-adv-x="1150" 
d="M211 0v1490h139v-1366h722v-124h-861zM26 685v120h694v-120h-694z" />
    <glyph glyph-name="uni023E" unicode="&#x23e;" horiz-adv-x="1265" 
d="M204 -203l748 1895h110l-748 -1895h-110zM78 1366v124h1109v-124h-485v-1366h-138v1366h-486z" />
    <glyph glyph-name="uni023F" unicode="&#x23f;" horiz-adv-x="999" 
d="M221 233q97 -173 158.5 -279.5t100 -163t67 -77t60.5 -20.5q36 0 70.5 20.5t64.5 45.5l51 -90q-37 -35 -86.5 -61t-99.5 -26q-54 0 -97.5 23t-81 67t-74.5 107l-224 394zM502 -22q-112 0 -199 36t-141.5 106.5t-66.5 173.5l128 14q16 -104 87 -159t190 -55q125 0 199 56
t74 141q0 68 -47 109t-135 61l-178 43q-143 34 -216 105.5t-73 183.5q0 91 49 160.5t135.5 109t198.5 39.5q107 0 187.5 -37t130 -105t63.5 -163l-125 -14q-15 91 -79 147.5t-177 56.5q-112 0 -181.5 -53.5t-69.5 -137.5q0 -69 49.5 -111t144.5 -65l173 -41
q144 -34 214 -103t70 -180q0 -96 -51.5 -167.5t-143 -111t-210.5 -39.5z" />
    <glyph glyph-name="uni0240" unicode="&#x240;" horiz-adv-x="1026" 
d="M110 0v103l628 854v5h-614v122h779v-109l-620 -848v-127h-173zM940 -418q-55 0 -102 27.5t-95.5 80.5t-106.5 131q-49 69 -91 108t-93 55t-130 16h-102v121h103q100 0 169.5 -23t125.5 -74t115 -135q53 -70 87 -112t61.5 -60.5t60.5 -18.5q24 0 44.5 5t45.5 19l52 -102
q-34 -18 -72 -28t-72 -10z" />
    <glyph glyph-name="uni0241" unicode="&#x241;" horiz-adv-x="1036" 
d="M455 436h34q120 0 191.5 50.5t103 137.5t31.5 193v179q0 104 -30 190t-98.5 138t-183.5 52q-129 0 -206.5 -72t-84.5 -191h-147q5 116 60.5 205.5t152.5 140.5t225 51q155 0 258.5 -68.5t156.5 -184.5t53 -261v-179q0 -146 -54 -262.5t-160 -184t-265 -67.5h-37v133z
M576 436v-436h-158v436h158z" />
    <glyph glyph-name="uni0242" unicode="&#x242;" horiz-adv-x="1026" 
d="M120 705q1 139 52 234t141 144.5t208 49.5q180 0 282.5 -107.5t102.5 -307.5q0 -114 -39 -202t-122 -137.5t-215 -49.5h-41v101h33q124 -1 179.5 75.5t55.5 205.5q0 133 -57.5 215.5t-179.5 82.5q-117 0 -182 -79.5t-67 -224.5h-151zM455 430h151v-430h-151v430z" />
    <glyph glyph-name="uni0243" unicode="&#x243;" horiz-adv-x="1315" 
d="M185 0v1490h510q145 0 246.5 -49t155 -136.5t53.5 -204.5q0 -89 -31.5 -155t-86.5 -109.5t-126 -64.5v-6q78 -10 147 -54.5t112.5 -122t43.5 -186.5q0 -119 -54 -209.5t-163 -141.5t-272 -51h-535zM323 124h395q174 0 264 75.5t90 200.5q0 88 -43.5 154.5t-121.5 104
t-182 37.5h-402v-572zM323 817h388q92 0 160.5 36t106 98.5t37.5 143.5q0 124 -83.5 197.5t-235.5 73.5h-373v-549zM16 356v108h560v-108h-560z" />
    <glyph glyph-name="uni0244" unicode="&#x244;" horiz-adv-x="1458" 
d="M1487 868v-95h-1515v95h1515zM714 -22q-167 0 -295 68.5t-199.5 188.5t-71.5 272v983h138v-974q0 -118 53.5 -210t149.5 -145.5t225 -53.5q130 0 226 53.5t149 145.5t53 210v974h138v-983q0 -153 -71.5 -272.5t-198.5 -188t-296 -68.5z" />
    <glyph glyph-name="uni0245" unicode="&#x245;" horiz-adv-x="1397" 
d="M1139 0l-454 1323l-40 167h127l537 -1490h-170zM710 1323l-449 -1323h-171l536 1490h124z" />
    <glyph glyph-name="uni0246" unicode="&#x246;" horiz-adv-x="1194" 
d="M313 -190l539 1868h124l-538 -1868h-125zM174 0v1490h912v-124h-774v-547h718v-124h-718v-571h780v-124h-918z" />
    <glyph glyph-name="uni0247" unicode="&#x247;" horiz-adv-x="1139" 
d="M109 -418l801 1908h108l-798 -1908h-111zM594 -23q-152 0 -263 72.5t-171 199t-60 289.5q0 164 60.5 291t169.5 200t250 73q101 0 187 -37t150.5 -108t100.5 -172.5t36 -231.5v-48h-877v115h804l-58 -40q0 118 -42 209t-119 142.5t-182 51.5q-104 0 -182.5 -52.5
t-122.5 -144t-44 -207.5v-57q0 -126 44 -222t126 -149.5t194 -53.5q79 0 141.5 26.5t105 72.5t61.5 104l129 -18q-23 -87 -84 -156t-151.5 -109t-202.5 -40z" />
    <glyph glyph-name="uni0248" unicode="&#x248;" horiz-adv-x="1166" 
d="M527 -20q-191 0 -308.5 114.5t-117.5 320.5v76h139v-76q0 -149 77.5 -230t209.5 -81q131 0 209 81t78 230v1075h138v-1075q0 -206 -117 -320.5t-308 -114.5zM602 830v108h560v-108h-560z" />
    <glyph glyph-name="uni0249" unicode="&#x249;" horiz-adv-x="429" 
d="M149 1084h132v-1217q1 -85 -34 -149.5t-99 -100t-152 -35.5h-44v120h37q75 0 117.5 45t42.5 130v1207zM-92 587v110h613v-110h-613zM216 1303q-39 0 -67.5 27.5t-28.5 66.5t28.5 66.5t67.5 27.5q40 0 68 -27.5t28 -66.5t-28 -66.5t-68 -27.5z" />
    <glyph glyph-name="Q_rthook" unicode="&#x24a;" horiz-adv-x="1516" 
d="M1343 1490v-1490h-132v284h-6q-58 -146 -180.5 -226.5t-283.5 -80.5q-139 0 -255 56.5t-201 159.5t-131.5 244t-46.5 309t46.5 308t132 242.5t202 158.5t256.5 56q160 0 282 -79t179 -223h6v281h132zM745 108q151 0 255.5 80t159 223.5t54.5 334.5q0 190 -55.5 333.5
t-160 223.5t-252.5 80q-149 0 -262 -81.5t-176.5 -225t-63.5 -330.5q0 -192 63.5 -335t176.5 -223t261 -80zM1464 -421q-125 0 -189 59t-64 175v187h132v-187q0 -62 31 -90t103 -28q14 0 38 0.5t41 1.5v-115q-18 -1 -41.5 -2t-50.5 -1z" />
    <glyph glyph-name="qrthook" unicode="&#x24b;" horiz-adv-x="1185" 
d="M1158 -421q-125 0 -188 59t-63 175v406h130v-406q0 -62 31 -90t103 -28q14 0 38 0.5t41 1.5v-115q-18 -1 -41.5 -2t-50.5 -1zM548 -21q-135 0 -239 70.5t-162 197t-58 293.5q0 168 58.5 294t162.5 196t240 70q89 0 158.5 -30.5t117.5 -81t74 -111.5h6v207h131v-1084h-130
v204h-7q-28 -61 -76.5 -112.5t-117 -82t-158.5 -30.5zM567 99q107 0 184 55.5t118.5 155.5t41.5 231q0 132 -41.5 231t-118.5 154t-184 55q-105 0 -182.5 -54.5t-120 -153t-42.5 -232.5q0 -133 42.5 -232.5t120.5 -154.5t182 -55z" />
    <glyph glyph-name="uni024C" unicode="&#x24c;" horiz-adv-x="1260" 
d="M260 602h-257v124h257v-124zM186 0v1490h511q151 0 258.5 -55.5t164.5 -156t57 -234.5q0 -133 -58.5 -232.5t-167 -154.5t-259.5 -55h-429v125h430q111 0 188 39t118 110.5t41 167.5q0 99 -41 170.5t-118.5 111.5t-188.5 40h-367v-1366h-139zM1054 0l-361 673h156
l365 -673h-160z" />
    <glyph glyph-name="uni024D" unicode="&#x24d;" horiz-adv-x="671" 
d="M148 0v1084h127v-176h6q33 86 110 137.5t182 51.5q17 0 33.5 -1t28.5 -2v-132q-8 2 -30 5t-49 3q-78 0 -141 -34.5t-99.5 -98t-36.5 -152.5v-685h-131zM-92 481v110h613v-110h-613z" />
    <glyph glyph-name="uni024E" unicode="&#x24e;" horiz-adv-x="1281" 
d="M1303 1181v-96h-1325v96h1325zM591 0v643l-555 847h161l319 -487q47 -72 89 -142t85 -151h-57q42 82 84.5 152t88.5 141l317 487h160l-554 -847v-643h-138z" />
    <glyph glyph-name="uni024F" unicode="&#x24f;" horiz-adv-x="1079" 
d="M1008 801v-104h-940v104h940zM132 -411l17 116l61 -2q49 -8 86 3t67 46.5t54 100.5l55 145l-424 1086h143l255 -671q32 -85 59.5 -169.5t55.5 -167.5h-41q28 83 56 167.5t60 169.5l253 671h142l-498 -1277q-31 -78 -72 -128.5t-94.5 -75.5t-121.5 -25q-34 0 -61.5 3.5
t-51.5 7.5z" />
    <glyph glyph-name="aturn" unicode="&#x250;" horiz-adv-x="1079" 
d="M627 1104q101 0 184 -37t132.5 -108.5t49.5 -177.5q0 -83 -31.5 -138.5t-88.5 -90t-135.5 -54.5t-172.5 -32q-95 -12 -159 -21.5t-95.5 -28.5t-31.5 -61v-21q0 -69 32 -121.5t91.5 -82t141.5 -29.5q81 0 142.5 27t100 72.5t48.5 100.5l131 -20q-19 -93 -78.5 -160
t-148 -102.5t-194.5 -35.5q-78 0 -149.5 21.5t-127.5 65.5t-88 111t-32 159v744h130v-175h6q24 50 68.5 94.5t113 72.5t161.5 28zM609 985q-103 0 -177.5 -42.5t-113.5 -115t-39 -163.5v-153q14 13 44 23t70.5 18.5t85.5 15t89 12.5q91 12 156.5 36t100.5 65.5t35 105.5
q0 63 -32.5 107t-89 67.5t-129.5 23.5z" />
    <glyph glyph-name="ascript" unicode="&#x251;" horiz-adv-x="1185" 
d="M548 -21q-135 0 -239 70.5t-162 197t-58 293.5q0 168 58.5 294t162.5 196t240 70q89 0 158.5 -30.5t117.5 -81t74 -111.5h6v207h131v-1084h-130v204h-7q-28 -61 -76.5 -112.5t-117 -82t-158.5 -30.5zM567 99q107 0 184 55.5t118.5 155.5t41.5 231q0 132 -41.5 231
t-118.5 154t-184 55q-105 0 -182.5 -54.5t-120 -153t-42.5 -232.5q0 -133 42.5 -232.5t120.5 -154.5t182 -55z" />
    <glyph glyph-name="ascriptturn" unicode="&#x252;" horiz-adv-x="1185" 
d="M636 -21q-88 0 -157 30.5t-117.5 82t-77.5 112.5h-6v-204h-130v1084h130v-207h6q27 61 75 111.5t117.5 81t158.5 30.5q136 0 240 -70t162.5 -196t58.5 -294q0 -167 -58.5 -293.5t-162 -197t-239.5 -70.5zM618 99q104 0 181.5 55t120 154.5t42.5 232.5q0 134 -42.5 232.5
t-119.5 153t-182 54.5q-107 0 -184.5 -55t-118.5 -154t-41 -231q0 -131 41.5 -231t118.5 -155.5t184 -55.5z" />
    <glyph glyph-name="uni0253" unicode="&#x253;" horiz-adv-x="1181" 
d="M633 -21q-89 0 -158 30.5t-117.5 82t-76.5 112.5h-8v-204h-125v1084h128v-206h6q26 60 74 110.5t117.5 81t158.5 30.5q137 0 240.5 -70t161.5 -196t58 -294q0 -167 -57.5 -293.5t-161 -197t-240.5 -70.5zM617 97q105 0 182.5 55t120 155t42.5 234t-42.5 233.5t-120 154
t-182.5 54.5q-108 0 -185.5 -55t-119 -154.5t-41.5 -232.5q0 -132 41.5 -232t119.5 -156t185 -56zM148 873v388q0 116 65.5 174.5t189.5 58.5q27 0 50.5 -0.5t41.5 -2.5v-114q-17 1 -41 1h-37q-73 0 -105.5 -27.5t-32.5 -89.5v-388h-131z" />
    <glyph glyph-name="uni0254" unicode="&#x254;" horiz-adv-x="1036" 
d="M68 333h144q10 -65 50 -117t103 -82t139 -30q109 0 178.5 59t102 154.5t32.5 204.5v49q1 122 -33 221t-105 158t-182 59q-126 0 -197 -76.5t-88 -212.5h-144q12 127 66 219.5t146 143t216 50.5q153 0 258 -73.5t159.5 -200t54.5 -288.5v-49q0 -149 -55 -272
t-158.5 -196.5t-250.5 -73.5q-118 0 -212.5 48t-153.5 128.5t-70 176.5z" />
    </font>
</defs>
</svg>
