<svg width="80" height="75" viewBox="0 0 80 75" fill="none" xmlns="http://www.w3.org/2000/svg">
<path fill-rule="evenodd" clip-rule="evenodd" d="M77.3725 43.7131C69.4953 43.7131 65.5432 52.6597 71.1128 57.8811C71.3569 58.1099 71.5505 58.3815 71.6826 58.6804C71.8147 58.9793 71.8827 59.2997 71.8827 59.6233C71.8827 59.9468 71.8147 60.2672 71.6826 60.5662C71.5505 60.8651 71.3569 61.1367 71.1128 61.3655L65.456 66.6689C64.9631 67.1309 64.2947 67.3904 63.5977 67.3904C62.9007 67.3904 62.2322 67.1309 61.7393 66.6689C56.1698 61.4473 46.6268 65.1525 46.6268 72.5373C46.6267 73.1904 46.3499 73.8168 45.8573 74.2786C45.3647 74.7404 44.6966 74.9999 44 75H36C35.6549 75 35.3133 74.9363 34.9945 74.8125C34.6757 74.6888 34.386 74.5073 34.142 74.2786C33.898 74.0498 33.7045 73.7783 33.5725 73.4794C33.4404 73.1805 33.3725 72.8602 33.3725 72.5367C33.3725 65.1428 23.8367 61.4402 18.26 66.6683C17.7671 67.1303 17.0987 67.3899 16.4017 67.3899C15.7047 67.3899 15.0362 67.1303 14.5433 66.6683L8.88717 61.3648C8.39433 60.9028 8.11746 60.2761 8.11746 59.6227C8.11746 58.9692 8.39433 58.3425 8.88717 57.8805C14.4568 52.6591 10.5047 43.7125 2.6275 43.7125C1.93077 43.7125 1.26256 43.4531 0.769823 42.9913C0.277085 42.5295 0.000176793 41.9032 5.28713e-09 41.25V33.75C-2.18842e-05 33.4265 0.0679255 33.1062 0.199962 32.8073C0.331998 32.5084 0.525538 32.2369 0.769528 32.0082C1.01352 31.7794 1.30318 31.598 1.62197 31.4742C1.94077 31.3504 2.28245 31.2867 2.6275 31.2867C10.5047 31.2867 14.4568 22.3402 8.88717 17.1187C8.39433 16.6567 8.11746 16.03 8.11746 15.3766C8.11746 14.7231 8.39433 14.0964 8.88717 13.6344L14.5442 8.33094C14.7882 8.10212 15.0779 7.92061 15.3968 7.79678C15.7156 7.67294 16.0574 7.6092 16.4025 7.6092C16.7476 7.6092 17.0894 7.67294 17.4082 7.79678C17.7271 7.92061 18.0168 8.10212 18.2608 8.33094C23.8303 13.5525 33.3733 9.84734 33.3733 2.4625C33.3735 1.80946 33.6503 1.18321 34.1429 0.721433C34.6354 0.25966 35.3034 0.000165689 36 4.95668e-09H44C44.3451 -2.05164e-05 44.6867 0.0636802 45.0055 0.187464C45.3243 0.311249 45.614 0.492692 45.858 0.721433C46.102 0.950173 46.2955 1.22173 46.4275 1.5206C46.5596 1.81947 46.6275 2.13979 46.6275 2.46328C46.6275 9.84813 56.1705 13.5533 61.74 8.33172C61.984 8.10292 62.2738 7.92143 62.5926 7.79761C62.9115 7.67378 63.2532 7.61005 63.5983 7.61005C63.9435 7.61005 64.2852 7.67378 64.6041 7.79761C64.9229 7.92143 65.2126 8.10292 65.4567 8.33172L71.1135 13.6352C71.3576 13.8639 71.5512 14.1355 71.6833 14.4345C71.8154 14.7334 71.8834 15.0538 71.8834 15.3773C71.8834 15.7009 71.8154 16.0213 71.6833 16.3202C71.5512 16.6192 71.3576 16.8908 71.1135 17.1195C65.5438 22.3409 69.496 31.2875 77.3732 31.2875C78.0698 31.2876 78.7378 31.5471 79.2304 32.0089C79.723 32.4707 79.9998 33.0969 80 33.75V41.25C80 41.5735 79.9321 41.8938 79.8 42.1927C79.668 42.4916 79.4745 42.7631 79.2305 42.9918C78.9865 43.2206 78.6968 43.402 78.378 43.5258C78.0592 43.6496 77.7176 43.7133 77.3725 43.7133V43.7131ZM64.4942 37.493C64.4927 32.9516 63.0549 28.5125 60.3625 24.7372C57.6702 20.9618 53.8442 18.0196 49.3683 16.2827C44.8925 14.5457 39.9677 14.092 35.2168 14.9788C30.4659 15.8656 26.1022 18.0532 22.6774 21.265C19.2525 24.4767 16.9204 28.5684 15.9759 33.0227C15.0314 37.4769 15.5169 42.0937 17.3711 46.2893C19.2252 50.4849 22.3647 54.0708 26.3926 56.5938C30.4204 59.1167 35.1558 60.4633 40 60.4633C43.2172 60.4633 46.403 59.869 49.3752 58.7146C52.3475 57.5601 55.048 55.868 57.3226 53.735C59.5972 51.6019 61.4013 49.0696 62.6318 46.2828C63.8623 43.4959 64.4951 40.5091 64.4942 37.493ZM31.7137 30.5C31.7135 32.0366 32.1993 33.5388 33.1098 34.8165C34.0203 36.0942 35.3145 37.0901 36.8287 37.6782C38.3429 38.2664 40.0092 38.4203 41.6168 38.1206C43.2243 37.8209 44.701 37.0811 45.86 35.9945C47.019 34.908 47.8083 33.5237 48.1281 32.0166C48.4479 30.5096 48.2837 28.9474 47.6565 27.5278C47.0292 26.1082 45.967 24.8948 44.6042 24.0412C43.2413 23.1875 41.639 22.7319 40 22.732C37.8024 22.7321 35.6949 23.5505 34.1409 25.0072C32.5869 26.464 31.7138 28.4398 31.7137 30.5ZM40 42.7458C36.6965 42.7451 33.457 43.6001 30.639 45.2164C27.8211 46.8326 25.5342 49.1474 24.0308 51.9052C26.0984 53.9197 28.5784 55.5223 31.3223 56.617C34.0662 57.7116 37.0175 58.2759 39.9995 58.2759C42.9815 58.2759 45.9328 57.7116 48.6767 56.617C51.4206 55.5223 53.9006 53.9197 55.9682 51.9052C54.4651 49.1474 52.1784 46.8326 49.3606 45.2163C46.5428 43.6 43.3034 42.745 40 42.7458Z" fill="#14467B"/>
</svg>
