<svg width="20" height="20" viewBox="0 0 20 20" fill="none" xmlns="http://www.w3.org/2000/svg">
<path d="M18.7979 8.36313C18.7161 8.34765 18.6333 8.3405 18.5504 8.34175H4.44078L4.74844 8.17489C5.04917 8.00891 5.32277 7.78305 5.55695 7.50746L9.51364 2.89382C10.0347 2.31377 10.1223 1.38067 9.72113 0.682941C9.25422 -0.0605708 8.35883 -0.222006 7.72114 0.322422C7.66962 0.366426 7.62068 0.414401 7.57465 0.466025L0.419694 8.80896C-0.139465 9.46023 -0.139957 10.5167 0.418576 11.1687L0.419694 11.17L7.57465 19.5129C8.13425 20.1636 9.04029 20.1622 9.59838 19.5096C9.64229 19.4583 9.6833 19.4036 9.72113 19.3461C10.1223 18.6483 10.0347 17.7152 9.51364 17.1352L5.5641 12.5132C5.35416 12.2681 5.11277 12.0627 4.84861 11.9042L4.41931 11.6789H18.4716C19.2026 11.7106 19.844 11.1151 19.9813 10.2773C20.1078 9.36767 19.578 8.5107 18.7979 8.36313Z" fill="black"/>
</svg>
