<svg width="61" height="62" viewBox="0 0 61 62" fill="none" xmlns="http://www.w3.org/2000/svg">
<path d="M42.5819 36.6333C40.5461 36.6333 38.5764 36.3 36.7392 35.7C36.4513 35.6024 36.142 35.5881 35.8464 35.6588C35.5509 35.7295 35.281 35.8824 35.0675 36.1L32.4689 39.3833C27.7848 37.1333 23.3986 32.8833 21.0648 28L24.2924 25.2333C24.7393 24.7667 24.8717 24.1167 24.6896 23.5333C24.0772 21.6833 23.7627 19.7 23.7627 17.65C23.7627 16.75 23.0179 16 22.1241 16H16.3972C15.5035 16 16.3972 16.4 16.3972 17.65C16.3972 33.1333 29.1917 46 44.5516 46C45.7268 46 44.2206 44.95 44.2206 44.0333V38.2833C44.2206 37.3833 43.4757 36.6333 42.5819 36.6333Z" fill="black"/>
</svg>
