<svg width="22" height="23" viewBox="0 0 22 23" fill="none" xmlns="http://www.w3.org/2000/svg">
<path fill-rule="evenodd" clip-rule="evenodd" d="M15.8939 1.52121L15.9604 1.53904C17.0598 1.83361 17.931 2.06704 18.6162 2.31458C19.3172 2.56779 19.8888 2.85744 20.3597 3.29847C21.0453 3.94068 21.5252 4.77179 21.7385 5.68671C21.885 6.31503 21.8501 6.95486 21.7189 7.68849C21.5906 8.40573 21.3572 9.27697 21.0626 10.3764L20.5271 12.3747C20.2326 13.474 19.9991 14.3452 19.7516 15.0305C19.4984 15.7314 19.2087 16.303 18.7677 16.7739C18.1459 17.4377 17.3471 17.9087 16.4665 18.1316C16.2093 18.7213 15.8336 19.2554 15.3597 19.6993C14.8888 20.1403 14.3172 20.4299 13.6162 20.6832C12.931 20.9307 12.0598 21.1641 10.9605 21.4587L10.894 21.4765C9.79461 21.7711 8.92337 22.0045 8.20613 22.1328C7.4725 22.264 6.83266 22.2989 6.20435 22.1524C5.28943 21.9391 4.45832 21.4592 3.81611 20.7736C3.37508 20.3027 3.08542 19.7311 2.83222 19.0302C2.58468 18.3449 2.35124 17.4737 2.05667 16.3743L1.52122 14.376C1.22664 13.2766 0.993195 12.4054 0.864945 11.6882C0.733759 10.9546 0.698811 10.3147 0.845313 9.68641C1.05864 8.77149 1.53849 7.94038 2.22417 7.29817C2.69505 6.85714 3.26664 6.56749 3.96758 6.31428C4.65283 6.06674 5.52404 5.8333 6.62341 5.53873L6.65665 5.52983C6.92112 5.45896 7.17134 5.39203 7.40825 5.32944C7.79986 3.93031 8.14448 2.94126 8.81611 2.22417C9.45831 1.53849 10.2894 1.05864 11.2043 0.845313C11.8327 0.698811 12.4725 0.733759 13.2061 0.864945C13.9233 0.993194 14.7945 1.22664 15.8939 1.52121ZM6.95502 7.0028C5.86214 7.29571 5.07905 7.50764 4.4772 7.72505C3.86778 7.9452 3.50995 8.14907 3.24955 8.39296C2.7804 8.83237 2.45209 9.40103 2.30613 10.027C2.22511 10.3745 2.22747 10.7863 2.34152 11.4242C2.45723 12.0712 2.67355 12.881 2.97902 14.021L3.49666 15.9529C3.80212 17.0929 4.01967 17.9023 4.24299 18.5205C4.46314 19.13 4.66701 19.4878 4.9109 19.7482C5.35031 20.2173 5.91897 20.5456 6.54496 20.6916C6.89242 20.7726 7.30425 20.7703 7.9421 20.6562C8.58915 20.5405 9.39893 20.3242 10.5389 20.0187C11.6789 19.7132 12.4884 19.4957 13.1066 19.2724C13.716 19.0522 14.0739 18.8484 14.3343 18.6045C14.4719 18.4756 14.5973 18.3357 14.7096 18.1865C14.5306 18.1612 14.3463 18.129 14.1557 18.0911C13.4839 17.9575 12.6769 17.7413 11.6808 17.4744L11.6234 17.459C10.524 17.1644 9.65283 16.931 8.96758 16.6835C8.26664 16.4302 7.69505 16.1406 7.22416 15.6996C6.53849 15.0574 6.05864 14.2262 5.84531 13.3113C5.69881 12.683 5.73376 12.0432 5.86494 11.3095C5.9932 10.5923 6.22664 9.72112 6.52122 8.62174L6.95502 7.0028ZM12.9421 2.34152C12.3042 2.22747 11.8924 2.22511 11.545 2.30613C10.919 2.45209 10.3503 2.7804 9.9109 3.24955C9.47479 3.71518 9.20642 4.43452 8.7397 6.14323C8.66384 6.42093 8.58365 6.72023 8.49665 7.04488L7.97902 8.97673C7.67355 10.1167 7.45723 10.9265 7.34152 11.5736C7.22747 12.2114 7.22511 12.6232 7.30613 12.9707C7.45209 13.5967 7.7804 14.1654 8.24955 14.6048C8.50995 14.8487 8.86778 15.0525 9.4772 15.2727C10.0954 15.496 10.9049 15.7136 12.0449 16.019C13.0703 16.2938 13.8303 16.497 14.4482 16.6199C15.0635 16.7422 15.481 16.7723 15.8232 16.73C15.8976 16.7209 15.9691 16.7082 16.0389 16.6919C16.6649 16.5459 17.2335 16.2176 17.6729 15.7485C17.9168 15.4881 18.1207 15.1303 18.3408 14.5208C18.5642 13.9026 18.7817 13.0932 19.0872 11.9532L19.6048 10.0213C19.9103 8.88129 20.1266 8.07151 20.2423 7.42446C20.3564 6.78661 20.3587 6.37479 20.2777 6.02733C20.1317 5.40133 19.8034 4.83267 19.3343 4.39327C19.0739 4.14937 18.716 3.9455 18.1066 3.72535C17.4884 3.50203 16.6789 3.28448 15.5389 2.97902C14.3989 2.67355 13.5892 2.45723 12.9421 2.34152ZM10.5524 9.30588C10.6596 8.90578 11.0709 8.66834 11.471 8.77555L16.3006 10.0696C16.7007 10.1768 16.9381 10.5881 16.8309 10.9882C16.7237 11.3883 16.3125 11.6257 15.9124 11.5185L11.0827 10.2244C10.6826 10.1172 10.4452 9.70598 10.5524 9.30588ZM9.77555 12.2036C9.88275 11.8035 10.294 11.566 10.6941 11.6733L13.5919 12.4497C13.992 12.5569 14.2294 12.9682 14.1222 13.3683C14.015 13.7684 13.6038 14.0058 13.2037 13.8986L10.3059 13.1221C9.90578 13.0149 9.66834 12.6037 9.77555 12.2036Z" fill="#6B7280"/>
</svg>
