<svg width="80" height="51" viewBox="0 0 80 51" fill="none" xmlns="http://www.w3.org/2000/svg">
<path d="M80 39.0265V10.816H71.927V15.4343H75.3125V34.4083H70.9841V31.5037C70.9841 28.5724 69.0955 26.0676 66.4542 25.1081V11.9547C66.4542 5.36284 61.0109 0 54.3203 0C47.6295 0 42.1862 5.36284 42.1862 11.9547V25.1079C41.3828 25.4008 40.6416 25.8381 40.0002 26.3975C39.3587 25.8381 38.6175 25.4008 37.8141 25.1079V11.9547C37.8141 5.36284 32.3708 0 25.68 0C18.9894 0 13.5461 5.36284 13.5461 11.9547V25.1079C10.9045 26.0676 9.01594 28.5724 9.01594 31.5037V34.4083H4.6875V15.4343H8.17703V10.816H0V39.0265H15.8786V46.3818H0V51H80V46.3818H64.1214V39.0265H80ZM42.3438 34.4083V31.5037C42.3438 30.2931 43.3433 29.308 44.5722 29.308H64.0681C65.2969 29.308 66.2966 30.2929 66.2966 31.5037V34.4083H42.3438ZM44.5189 39.0265V46.3818H35.4811V39.0265H44.5189ZM46.8736 11.9547C46.8736 7.90933 50.2141 4.61823 54.3202 4.61823C58.4261 4.61823 61.7666 7.90933 61.7666 11.9547V24.6898H46.8736V11.9547ZM18.2333 11.9547C18.2333 7.90933 21.5738 4.61823 25.6797 4.61823C29.7858 4.61823 33.1263 7.90933 33.1263 11.9547V24.6898H18.2333V11.9547ZM13.7034 31.5037C13.7034 30.2931 14.703 29.308 15.9319 29.308H35.4278C36.6566 29.308 37.6562 30.2929 37.6562 31.5037V34.4083H13.7034V31.5037ZM20.5661 39.0265H30.7936V46.3818H20.5661V39.0265ZM59.4339 46.3818H49.2064V39.0265H59.4339V46.3818Z" fill="#14467B"/>
</svg>
