<svg width="24" height="25" viewBox="0 0 24 25" fill="none" xmlns="http://www.w3.org/2000/svg">
<path fill-rule="evenodd" clip-rule="evenodd" d="M10.9436 1.75H13.0564C14.8942 1.74998 16.3498 1.74997 17.489 1.90314C18.6614 2.06076 19.6104 2.39288 20.3588 3.14124C20.6516 3.43414 20.6516 3.90901 20.3588 4.2019C20.0659 4.4948 19.591 4.4948 19.2981 4.2019C18.8749 3.77869 18.2952 3.52502 17.2892 3.38976C16.2615 3.25159 14.9068 3.25 13 3.25H11C9.09318 3.25 7.73851 3.25159 6.71085 3.38976C5.70476 3.52502 5.12511 3.77869 4.7019 4.2019C4.27869 4.62511 4.02502 5.20476 3.88976 6.21085C3.75159 7.23851 3.75 8.59318 3.75 10.5V14.5C3.75 16.4068 3.75159 17.7615 3.88976 18.7892C4.02502 19.7952 4.27869 20.3749 4.7019 20.7981C5.12511 21.2213 5.70476 21.475 6.71085 21.6102C7.73851 21.7484 9.09318 21.75 11 21.75H13C14.9068 21.75 16.2615 21.7484 17.2892 21.6102C18.2952 21.475 18.8749 21.2213 19.2981 20.7981C19.994 20.1022 20.2048 19.0208 20.2414 16.4892C20.2474 16.075 20.588 15.7441 21.0022 15.7501C21.4163 15.7561 21.7472 16.0967 21.7412 16.5108C21.7061 18.9383 21.549 20.6685 20.3588 21.8588C19.6104 22.6071 18.6614 22.9392 17.489 23.0969C16.3498 23.25 14.8942 23.25 13.0564 23.25H10.9436C9.10583 23.25 7.65019 23.25 6.51098 23.0969C5.33856 22.9392 4.38961 22.6071 3.64124 21.8588C2.89288 21.1104 2.56076 20.1614 2.40314 18.989C2.24997 17.8498 2.24998 16.3942 2.25 14.5564V10.4436C2.24998 8.60582 2.24997 7.15019 2.40314 6.01098C2.56076 4.83856 2.89288 3.88961 3.64124 3.14124C4.38961 2.39288 5.33856 2.06076 6.51098 1.90314C7.65019 1.74997 9.10582 1.74998 10.9436 1.75ZM18.1131 7.54556C19.1739 6.48481 20.8937 6.48481 21.9544 7.54556C23.0152 8.6063 23.0152 10.3261 21.9544 11.3869L17.1991 16.1422C16.9404 16.401 16.7654 16.576 16.5693 16.7289C16.3387 16.9088 16.0892 17.063 15.8252 17.1889C15.6007 17.2958 15.3659 17.3741 15.0187 17.4897L12.9351 18.1843C12.4751 18.3376 11.9679 18.2179 11.625 17.875C11.2821 17.5321 11.1624 17.0249 11.3157 16.5649L11.9963 14.5232C12.001 14.5091 12.0056 14.4951 12.0102 14.4813C12.1259 14.1342 12.2042 13.8993 12.3111 13.6748C12.437 13.4108 12.5912 13.1613 12.7711 12.9307C12.924 12.7346 13.099 12.5596 13.3578 12.3009C13.3681 12.2906 13.3785 12.2802 13.3891 12.2696L18.1131 7.54556ZM20.8938 8.60622C20.4188 8.13126 19.6488 8.13126 19.1738 8.60622L18.992 8.788C19.0019 8.82149 19.0132 8.8571 19.0262 8.89452C19.1202 9.16565 19.2988 9.52427 19.6372 9.86276C19.9757 10.2012 20.3343 10.3798 20.6055 10.4738C20.6429 10.4868 20.6785 10.4981 20.712 10.508L20.8938 10.3262C21.3687 9.85124 21.3687 9.08118 20.8938 8.60622ZM19.5664 11.6536C19.2485 11.4866 18.9053 11.2521 18.5766 10.9234C18.2479 10.5947 18.0134 10.2515 17.8464 9.93357L14.4497 13.3303C14.1487 13.6314 14.043 13.7388 13.9538 13.8532C13.841 13.9979 13.7442 14.1545 13.6652 14.3202C13.6028 14.4511 13.5539 14.5936 13.4193 14.9976L13.019 16.1985L13.3015 16.481L14.5024 16.0807C14.9064 15.9461 15.0489 15.8972 15.1798 15.8348C15.3455 15.7558 15.5021 15.659 15.6468 15.5462C15.7612 15.457 15.8686 15.3513 16.1697 15.0503L19.5664 11.6536ZM7.25 9.5C7.25 9.08579 7.58579 8.75 8 8.75H14.5C14.9142 8.75 15.25 9.08579 15.25 9.5C15.25 9.91421 14.9142 10.25 14.5 10.25H8C7.58579 10.25 7.25 9.91421 7.25 9.5ZM7.25 13.5C7.25 13.0858 7.58579 12.75 8 12.75H10.5C10.9142 12.75 11.25 13.0858 11.25 13.5C11.25 13.9142 10.9142 14.25 10.5 14.25H8C7.58579 14.25 7.25 13.9142 7.25 13.5ZM7.25 17.5C7.25 17.0858 7.58579 16.75 8 16.75H9.5C9.91421 16.75 10.25 17.0858 10.25 17.5C10.25 17.9142 9.91421 18.25 9.5 18.25H8C7.58579 18.25 7.25 17.9142 7.25 17.5Z" fill="#A7A8AB"/>
</svg>
