<svg width="24" height="23" viewBox="0 0 24 23" fill="none" xmlns="http://www.w3.org/2000/svg">
<path fill-rule="evenodd" clip-rule="evenodd" d="M5.948 2.25C5.04954 2.24997 4.3003 2.24995 3.70552 2.32991C3.07773 2.41432 2.51093 2.59999 2.05546 3.05546C1.59999 3.51093 1.41432 4.07773 1.32991 4.70552C1.24995 5.3003 1.24997 6.04951 1.25 6.94798V9.052C1.24997 9.95047 1.24995 10.6997 1.32991 11.2945C1.41432 11.9223 1.59999 12.4891 2.05546 12.9445C2.51093 13.4 3.07773 13.5857 3.70552 13.6701C4.3003 13.7501 5.04951 13.75 5.94798 13.75H6.052C6.95047 13.75 7.69971 13.7501 8.29448 13.6701C8.92228 13.5857 9.48908 13.4 9.94455 12.9445C10.4 12.4891 10.5857 11.9223 10.6701 11.2945C10.7501 10.6997 10.75 9.9505 10.75 9.05203V6.94801C10.75 6.04954 10.7501 5.3003 10.6701 4.70552C10.5857 4.07773 10.4 3.51093 9.94455 3.05546C9.48908 2.59999 8.92228 2.41432 8.29448 2.32991C7.69971 2.24995 6.9505 2.24997 6.05203 2.25H5.948ZM3.11612 4.11612C3.24644 3.9858 3.44393 3.87858 3.9054 3.81654C4.38843 3.7516 5.03599 3.75 6 3.75C6.96401 3.75 7.61157 3.7516 8.09461 3.81654C8.55607 3.87858 8.75357 3.9858 8.88389 4.11612C9.0142 4.24644 9.12143 4.44393 9.18347 4.9054C9.24841 5.38843 9.25 6.03599 9.25 7V9C9.25 9.96401 9.24841 10.6116 9.18347 11.0946C9.12143 11.5561 9.0142 11.7536 8.88389 11.8839C8.75357 12.0142 8.55607 12.1214 8.09461 12.1835C7.61157 12.2484 6.96401 12.25 6 12.25C5.03599 12.25 4.38843 12.2484 3.9054 12.1835C3.44393 12.1214 3.24644 12.0142 3.11612 11.8839C2.9858 11.7536 2.87858 11.5561 2.81654 11.0946C2.7516 10.6116 2.75 9.96401 2.75 9V7C2.75 6.03599 2.7516 5.38843 2.81654 4.9054C2.87858 4.44393 2.9858 4.24644 3.11612 4.11612Z" fill="white"/>
<path fill-rule="evenodd" clip-rule="evenodd" d="M17.448 11.25C16.5495 11.25 15.8003 11.2499 15.2055 11.3299C14.5777 11.4143 14.0109 11.6 13.5555 12.0555C13.1 12.5109 12.9143 13.0777 12.8299 13.7055C12.7499 14.3003 12.75 15.0495 12.75 15.948V18.052C12.75 18.9505 12.7499 19.6997 12.8299 20.2945C12.9143 20.9223 13.1 21.4891 13.5555 21.9445C14.0109 22.4 14.5777 22.5857 15.2055 22.6701C15.8003 22.7501 16.5495 22.75 17.4479 22.75H17.552C18.4504 22.75 19.1997 22.7501 19.7945 22.6701C20.4223 22.5857 20.9891 22.4 21.4445 21.9445C21.9 21.4891 22.0857 20.9223 22.1701 20.2945C22.2501 19.6997 22.25 18.9505 22.25 18.0521V15.948C22.25 15.0496 22.2501 14.3003 22.1701 13.7055C22.0857 13.0777 21.9 12.5109 21.4445 12.0555C20.9891 11.6 20.4223 11.4143 19.7945 11.3299C19.1997 11.2499 18.4505 11.25 17.552 11.25H17.448ZM14.6161 13.1161C14.7464 12.9858 14.9439 12.8786 15.4054 12.8165C15.8884 12.7516 16.536 12.75 17.5 12.75C18.464 12.75 19.1116 12.7516 19.5946 12.8165C20.0561 12.8786 20.2536 12.9858 20.3839 13.1161C20.5142 13.2464 20.6214 13.4439 20.6835 13.9054C20.7484 14.3884 20.75 15.036 20.75 16V18C20.75 18.964 20.7484 19.6116 20.6835 20.0946C20.6214 20.5561 20.5142 20.7536 20.3839 20.8839C20.2536 21.0142 20.0561 21.1214 19.5946 21.1835C19.1116 21.2484 18.464 21.25 17.5 21.25C16.536 21.25 15.8884 21.2484 15.4054 21.1835C14.9439 21.1214 14.7464 21.0142 14.6161 20.8839C14.4858 20.7536 14.3786 20.5561 14.3165 20.0946C14.2516 19.6116 14.25 18.964 14.25 18V16C14.25 15.036 14.2516 14.3884 14.3165 13.9054C14.3786 13.4439 14.4858 13.2464 14.6161 13.1161Z" fill="white"/>
<path fill-rule="evenodd" clip-rule="evenodd" d="M16.4748 2.25H18.5253C18.9697 2.25 19.3408 2.24999 19.6454 2.27077C19.9625 2.29241 20.262 2.33905 20.5524 2.45933C21.2262 2.73844 21.7616 3.2738 22.0407 3.94762C22.161 4.23801 22.2076 4.53754 22.2292 4.85464C22.25 5.15925 22.25 5.53029 22.25 5.97475V6.02526C22.25 6.46972 22.25 6.84076 22.2292 7.14537C22.2076 7.46247 22.161 7.76199 22.0407 8.05238C21.7616 8.72621 21.2262 9.26156 20.5524 9.54067C20.262 9.66095 19.9625 9.7076 19.6454 9.72923C19.3408 9.75002 18.9697 9.75001 18.5253 9.75H16.4747C16.0303 9.75001 15.6592 9.75002 15.3546 9.72923C15.0375 9.7076 14.738 9.66095 14.4476 9.54067C13.7738 9.26156 13.2384 8.72621 12.9593 8.05238C12.8391 7.76199 12.7924 7.46247 12.7708 7.14537C12.75 6.84075 12.75 6.46972 12.75 6.02525V5.97475C12.75 5.53029 12.75 5.15925 12.7708 4.85464C12.7924 4.53754 12.8391 4.23801 12.9593 3.94762C13.2384 3.2738 13.7738 2.73844 14.4476 2.45933C14.738 2.33905 15.0375 2.29241 15.3546 2.27077C15.6592 2.24999 16.0303 2.25 16.4748 2.25ZM15.4567 3.76729C15.216 3.78372 15.0988 3.8132 15.0216 3.84515C14.7154 3.97202 14.472 4.21536 14.3452 4.52165C14.3132 4.5988 14.2837 4.71602 14.2673 4.95675C14.2504 5.20421 14.25 5.5238 14.25 6C14.25 6.47621 14.2504 6.7958 14.2673 7.04326C14.2837 7.28399 14.3132 7.4012 14.3452 7.47836C14.472 7.78464 14.7154 8.02799 15.0216 8.15485C15.0988 8.18681 15.216 8.21629 15.4567 8.23271C15.7042 8.2496 16.0238 8.25 16.5 8.25H18.5C18.9762 8.25 19.2958 8.2496 19.5433 8.23271C19.784 8.21629 19.9012 8.18681 19.9784 8.15485C20.2846 8.02799 20.528 7.78464 20.6549 7.47836C20.6868 7.4012 20.7163 7.28399 20.7327 7.04326C20.7496 6.7958 20.75 6.47621 20.75 6C20.75 5.5238 20.7496 5.20421 20.7327 4.95674C20.7163 4.71602 20.6868 4.5988 20.6549 4.52165C20.528 4.21536 20.2846 3.97202 19.9784 3.84515C19.9012 3.8132 19.784 3.78372 19.5433 3.76729C19.2958 3.75041 18.9762 3.75 18.5 3.75H16.5C16.0238 3.75 15.7042 3.75041 15.4567 3.76729Z" fill="white"/>
<path fill-rule="evenodd" clip-rule="evenodd" d="M4.97475 15.25C4.53029 15.25 4.15925 15.25 3.85464 15.2708C3.53754 15.2924 3.23801 15.3391 2.94762 15.4593C2.2738 15.7384 1.73844 16.2738 1.45933 16.9476C1.33905 17.238 1.29241 17.5375 1.27077 17.8546C1.24999 18.1592 1.25 18.5302 1.25 18.9747V19.0253C1.25 19.4697 1.24999 19.8408 1.27077 20.1454C1.29241 20.4625 1.33905 20.762 1.45933 21.0524C1.73844 21.7262 2.2738 22.2616 2.94762 22.5407C3.23801 22.661 3.53754 22.7076 3.85464 22.7292C4.15925 22.75 4.53029 22.75 4.97475 22.75H7.02526C7.46972 22.75 7.84076 22.75 8.14537 22.7292C8.46247 22.7076 8.76199 22.661 9.05238 22.5407C9.72621 22.2616 10.2616 21.7262 10.5407 21.0524C10.661 20.762 10.7076 20.4625 10.7292 20.1454C10.75 19.8408 10.75 19.4697 10.75 19.0253V18.9747C10.75 18.5303 10.75 18.1592 10.7292 17.8546C10.7076 17.5375 10.661 17.238 10.5407 16.9476C10.2616 16.2738 9.72621 15.7384 9.05238 15.4593C8.76199 15.3391 8.46247 15.2924 8.14537 15.2708C7.84075 15.25 7.46972 15.25 7.02525 15.25H4.97475ZM3.52165 16.8452C3.5988 16.8132 3.71602 16.7837 3.95675 16.7673C4.20421 16.7504 4.5238 16.75 5 16.75H7C7.47621 16.75 7.7958 16.7504 8.04326 16.7673C8.28399 16.7837 8.4012 16.8132 8.47836 16.8452C8.78464 16.972 9.02799 17.2154 9.15485 17.5216C9.18681 17.5988 9.21629 17.716 9.23271 17.9567C9.2496 18.2042 9.25 18.5238 9.25 19C9.25 19.4762 9.2496 19.7958 9.23271 20.0433C9.21629 20.284 9.18681 20.4012 9.15485 20.4784C9.02799 20.7846 8.78464 21.028 8.47836 21.1549C8.4012 21.1868 8.28399 21.2163 8.04326 21.2327C7.7958 21.2496 7.47621 21.25 7 21.25H5C4.5238 21.25 4.20421 21.2496 3.95674 21.2327C3.71602 21.2163 3.5988 21.1868 3.52165 21.1549C3.21536 21.028 2.97202 20.7846 2.84515 20.4784C2.8132 20.4012 2.78372 20.284 2.76729 20.0433C2.75041 19.7958 2.75 19.4762 2.75 19C2.75 18.5238 2.75041 18.2042 2.76729 17.9567C2.78372 17.716 2.8132 17.5988 2.84515 17.5216C2.97202 17.2154 3.21536 16.972 3.52165 16.8452Z" fill="white"/>
</svg>
