<svg width="24" height="25" viewBox="0 0 24 25" fill="none" xmlns="http://www.w3.org/2000/svg">
<path fill-rule="evenodd" clip-rule="evenodd" d="M17 3.25C14.6528 3.25 12.75 5.15279 12.75 7.5C12.75 8.18122 12.9098 8.82298 13.1931 9.39186C13.3521 9.7111 13.418 10.1022 13.3131 10.4942L13.06 11.44L14.0059 11.1869C14.3978 11.0821 14.7889 11.1479 15.1082 11.3069C15.6771 11.5903 16.3188 11.75 17 11.75C19.3472 11.75 21.25 9.84721 21.25 7.5C21.25 5.15279 19.3472 3.25 17 3.25ZM11.25 7.5C11.25 4.32436 13.8244 1.75 17 1.75C20.1757 1.75 22.75 4.32436 22.75 7.5C22.75 10.6756 20.1757 13.25 17 13.25C16.0816 13.25 15.2114 13.0341 14.4394 12.6496C14.4221 12.641 14.4082 12.6376 14.3998 12.6366C14.3959 12.6361 14.3936 12.6362 14.3926 12.6362L13.2806 12.9338C12.2399 13.2122 11.2878 12.2601 11.5663 11.2195L11.8638 10.1074C11.8639 10.1065 11.8639 10.1042 11.8634 10.1002C11.8624 10.0918 11.859 10.0779 11.8504 10.0606C11.4659 9.28866 11.25 8.41847 11.25 7.5ZM3.7177 4.59213C4.94388 3.30119 6.9721 3.54305 7.98569 4.97663L9.24668 6.76012C10.0574 7.90678 9.98893 9.50095 9.02135 10.5196L8.7765 10.7774C8.77582 10.7792 8.7751 10.7811 8.77436 10.7832C8.76142 10.8196 8.7287 10.9354 8.7609 11.1551C8.82765 11.6106 9.1793 12.5363 10.607 14.0394C12.0391 15.5472 12.9078 15.9025 13.3103 15.9679C13.484 15.9961 13.5748 15.9716 13.6038 15.9614L14.0124 15.5312C14.8862 14.6113 16.2485 14.43 17.347 15.0623L19.2575 16.162C20.8904 17.1019 21.2705 19.401 19.9655 20.7749L18.545 22.2705C18.1016 22.7373 17.497 23.1357 16.75 23.2095C14.9261 23.3895 10.701 23.155 6.27161 18.4917C2.13844 14.1403 1.35326 10.3554 1.25401 8.50613C1.20497 7.59246 1.61224 6.80877 2.14809 6.24462L2.69189 6.76114L2.1481 6.24462L3.7177 4.59213ZM6.7609 5.8426C6.24855 5.11795 5.32812 5.07471 4.80528 5.62516L3.23568 7.27765C2.90429 7.62654 2.73042 8.02644 2.75185 8.42574C2.83289 9.93555 3.48307 13.3778 7.35919 17.4587C11.4234 21.7375 15.1676 21.8584 16.6026 21.7167C16.8864 21.6887 17.1783 21.5313 17.4574 21.2375L18.8779 19.7419C19.4907 19.0968 19.3301 17.9345 18.5092 17.462L16.5987 16.3623C16.086 16.0672 15.4854 16.1584 15.1 16.5642L14.6445 17.0437L14.1008 16.5272C14.6445 17.0437 14.6439 17.0444 14.6432 17.0452L14.6417 17.0467L14.6388 17.0497L14.6324 17.0562L14.6181 17.0703C14.6078 17.0803 14.5959 17.0913 14.5825 17.1031C14.5556 17.1266 14.5223 17.1535 14.4824 17.1819C14.4022 17.2387 14.2955 17.3012 14.1606 17.3544C13.8846 17.4632 13.5201 17.5216 13.0699 17.4485C12.1923 17.306 11.0422 16.6757 9.51937 15.0724C7.99202 13.4644 7.40746 12.2647 7.27675 11.3726C7.21022 10.9185 7.26346 10.5549 7.36116 10.2803C7.40921 10.1453 7.46594 10.0376 7.51826 9.95588C7.54435 9.91512 7.56922 9.88098 7.5912 9.8532C7.60219 9.83931 7.61246 9.82701 7.62182 9.81625L7.63514 9.80127L7.64125 9.79463L7.64415 9.79152L7.64556 9.79002C7.64626 9.78929 7.64695 9.78856 8.19074 10.3051L7.64695 9.78856L7.93376 9.4866C8.3793 9.01753 8.44403 8.22315 8.02189 7.62608L6.7609 5.8426ZM17 4.75C17.4143 4.75 17.75 5.08579 17.75 5.5V6.75H19C19.4143 6.75 19.75 7.08579 19.75 7.5C19.75 7.91421 19.4143 8.25 19 8.25H17.75V9.5C17.75 9.91421 17.4143 10.25 17 10.25C16.5858 10.25 16.25 9.91421 16.25 9.5V8.25L15 8.25C14.5858 8.25 14.25 7.91421 14.25 7.5C14.25 7.08579 14.5858 6.75 15 6.75L16.25 6.75V5.5C16.25 5.08579 16.5858 4.75 17 4.75Z" fill="#A7A8AB"/>
</svg>
