<svg width="24" height="25" viewBox="0 0 24 25" fill="none" xmlns="http://www.w3.org/2000/svg">
<path fill-rule="evenodd" clip-rule="evenodd" d="M10.75 1.5C4.81294 1.5 0 6.31294 0 12.25C0 18.1871 4.81294 23 10.75 23C16.6871 23 21.5 18.1871 21.5 12.25C21.5 6.31294 16.6871 1.5 10.75 1.5ZM1.5 12.25C1.5 9.96567 2.32804 7.87475 3.70034 6.261L6.9028 9.46346C6.33488 10.2462 6 11.209 6 12.25C6 13.291 6.33488 14.2538 6.9028 15.0365L3.70033 18.239C2.32804 16.6253 1.5 14.5343 1.5 12.25ZM7.96346 8.4028L4.761 5.20034C6.37475 3.82804 8.46567 3 10.75 3C13.0343 3 15.1253 3.82804 16.739 5.20034L13.5365 8.4028C12.7538 7.83488 11.791 7.5 10.75 7.5C9.70899 7.5 8.74619 7.83488 7.96346 8.4028ZM4.76099 19.2997C6.37474 20.672 8.46567 21.5 10.75 21.5C13.0343 21.5 15.1253 20.672 16.739 19.2997L13.5365 16.0972C12.7538 16.6651 11.791 17 10.75 17C9.70898 17 8.74619 16.6651 7.96346 16.0972L4.76099 19.2997ZM14.5972 15.0365L17.7997 18.239C19.172 16.6253 20 14.5343 20 12.25C20 9.96567 19.172 7.87475 17.7997 6.261L14.5972 9.46346C15.1651 10.2462 15.5 11.209 15.5 12.25C15.5 13.291 15.1651 14.2538 14.5972 15.0365ZM7.5 12.25C7.5 10.4551 8.95507 9 10.75 9C12.5449 9 14 10.4551 14 12.25C14 14.0449 12.5449 15.5 10.75 15.5C8.95507 15.5 7.5 14.0449 7.5 12.25Z" fill="#A7A8AB"/>
</svg>
