<svg width="674" height="297" viewBox="0 0 674 297" fill="none" xmlns="http://www.w3.org/2000/svg">
<g clip-path="url(#clip0_729_37)">
<rect width="674" height="297" fill="white"/>
<g filter="url(#filter0_d_729_37)">
<rect width="674" height="297" rx="10" fill="url(#paint0_linear_729_37)"/>
<rect x="0.5" y="0.5" width="673" height="296" rx="9.5" stroke="#7F56D9"/>
</g>
<g clip-path="url(#clip1_729_37)">
<path d="M363.841 297.305L363.427 256.379C361.765 254.517 360.562 252.328 360.076 249.923C358.711 243.13 357.103 236.131 357.588 229.184C357.866 225.201 359.241 221.564 361.514 218.65C360.571 214.323 359.636 209.987 358.765 205.643C357.489 199.273 356.833 192.808 355.09 186.525C354.489 184.335 354.336 182.163 354.587 180.086L350.122 190.809L349.97 192.946L345.442 255.112L351.955 310.442L353.285 321.82C358.064 322.32 359.295 321.639 364.083 321.828L363.966 310.442L363.832 297.288L363.841 297.305Z" fill="#C58F80"/>
<path d="M396.317 309.916L395.903 268.99C394.241 267.128 393.038 264.938 392.553 262.533C391.187 255.741 389.579 248.742 390.064 241.794C390.343 237.812 391.717 234.174 393.99 231.261C393.047 226.934 392.112 222.598 391.241 218.254C389.965 211.884 389.309 205.419 387.567 199.135C386.965 196.946 386.812 194.774 387.063 192.696L382.599 203.419L382.446 205.557L377.918 267.722L384.431 323.052L385.761 334.43C390.54 334.93 391.771 334.249 396.559 334.439L396.442 323.052L396.308 309.899L396.317 309.916Z" fill="#C58F80"/>
<path d="M399.336 321.139L380.38 322.759L367.129 201.721L367.012 236.166L366.779 309.45L363.958 309.33L348.299 308.675L342.99 174.724L393.38 174.13L399.336 321.139Z" fill="#B0DAE7"/>
<g style="mix-blend-mode:multiply" opacity="0.4">
<path d="M367.013 236.166L366.77 309.459L363.949 309.338C363.949 309.338 363.76 302.167 362.53 290.746C361.299 279.324 354.067 248.449 354.067 248.449L357.741 226.132L366.77 231.847L367.013 236.166Z" fill="#D0D1D3"/>
</g>
<path d="M409.55 265.524C403.406 268.714 396.012 270.429 388.96 271.317C375.547 272.989 363.365 271.636 363.365 271.636L356.69 236.666L354.192 271.317C348.335 272.136 343.115 271.808 339.082 268.481L339.001 133.867L336.863 104.672C336.863 104.672 349.97 91.6131 366.294 88.7686C371.747 89.1478 376.221 89.2082 380.362 90.2253C397.261 94.38 403.98 103.138 403.98 103.138C403.98 103.138 402.453 126.273 397.243 139.651C397.126 139.944 397.054 140.47 397.009 141.194C396.964 142.047 396.973 143.168 397.027 144.521V144.573C397.072 145.417 397.126 146.348 397.189 147.365C397.189 147.365 397.189 147.408 397.207 147.503C397.234 147.822 397.252 148.15 397.27 148.486C397.315 149.098 397.368 149.736 397.422 150.408C399.56 177.009 409.676 265.447 409.55 265.507V265.524Z" fill="#4ABCBC"/>
<g style="mix-blend-mode:multiply" opacity="0.4">
<path d="M388.959 271.317C388.959 271.317 400.315 242.484 393.541 209.194C392.687 204.997 396.613 204.462 396.568 199.808C396.407 182.361 390.477 165.992 387.243 144.185C383.371 118.05 394.08 107.49 394.367 106.706C394.331 106.87 394.143 107.956 392.903 114.886C391.816 120.903 393.478 134.78 394.071 141.211C394.26 143.271 396.595 144.572 396.982 144.598C396.946 144.866 397.027 145.84 397.179 147.382C397.179 147.382 397.179 147.426 397.197 147.52C397.224 147.839 397.242 148.167 397.26 148.503C397.305 149.115 397.359 149.753 397.413 150.425C399.551 177.026 409.667 265.464 409.541 265.524C403.396 268.714 396.002 270.429 388.95 271.317H388.959Z" fill="#D0D1D3"/>
</g>
<path d="M396.03 188.86C396.03 188.86 422.064 165.708 422.783 160.795C423.502 155.881 414.114 135.048 414.114 135.048L399.147 135.556L409.101 159.631L390.855 181.879C389.858 187.861 391.816 189.878 396.039 188.86H396.03Z" fill="#C58F80"/>
<path d="M391.089 181.585C391.089 181.585 378.439 187.231 378.493 188.955C378.547 190.688 381.727 189.757 384.027 188.628C384.027 188.628 380.739 197.541 381.772 200.833C382.204 202.221 385.025 201.687 385.752 199.514C385.752 199.514 394.709 196.127 396.03 188.878C391.87 187.723 391.78 183.913 391.098 181.594L391.089 181.585Z" fill="#B0DAE7"/>
<path d="M404.699 103.336C404.699 103.336 426.772 155.89 425.739 160.39C424.706 164.898 401.186 190.266 401.186 190.266L389.912 177.552L403.136 157.252L390.837 136.789C390.837 136.789 385.384 106.034 404.699 103.327V103.336Z" fill="#4ABCBC"/>
<path d="M341.373 180.689C341.373 180.689 353.941 189.412 354.076 191.136C354.211 192.86 349.961 190.929 348.183 190.093C348.183 190.093 351.749 196.248 351.03 201.902C350.851 203.333 348.766 203.161 348.021 201.092C348.021 201.092 341.804 199.394 340.744 197.748C338.408 194.972 337.815 191.766 336.854 187.007C337.249 183.853 338.417 180.827 341.364 180.698L341.373 180.689Z" fill="#B0DAE7"/>
<path d="M336.862 186.257C336.862 186.257 321.258 166.518 320.952 161.579C320.647 156.64 328.373 136.349 328.373 136.349L339.252 137.668L330.978 161.165L341.363 180.706C338.839 181.758 337.33 183.594 336.871 186.266L336.862 186.257Z" fill="#C58F80"/>
<path d="M336.863 104.672C336.863 104.672 318.248 156.459 318.805 161.019C319.362 165.579 332.559 188.309 332.559 188.309L341.238 174.017L335.398 159.105L345.226 139.34C345.226 139.34 350.805 108.404 336.863 104.663V104.672Z" fill="#4ABCBC"/>
<path d="M344.158 179.405C340.187 183.465 337.501 190.136 340.133 201.73L354.058 211.031L355.306 182.706L344.158 179.405Z" fill="#4ABCBC"/>
<path d="M387.828 180.982C384.279 184.964 386.345 190.335 392.643 201.351L381.35 215.349L377.326 183.758L387.819 180.982H387.828Z" fill="#4ABCBC"/>
<g style="mix-blend-mode:multiply" opacity="0.4">
<path d="M340.752 197.748C340.752 197.748 342.334 202.101 354.084 205.057C365.835 208.014 388.007 210.082 388.007 210.082C388.007 210.082 361.182 212.677 354.066 211.031C346.951 209.384 340.761 197.739 340.761 197.739L340.752 197.748Z" fill="#D0D1D3"/>
</g>
<g style="mix-blend-mode:multiply" opacity="0.4">
<path d="M397.027 144.59C397.027 144.59 397.009 144.59 396.991 144.59C396.991 144.529 397.009 144.504 397.027 144.529C397.027 144.529 397.045 144.59 397.027 144.59Z" fill="#D0D1D3"/>
</g>
<g style="mix-blend-mode:multiply" opacity="0.4">
<path d="M356.474 232.666L356.636 217.823L356.681 202.98L356.573 173.285C356.573 173.285 356.142 167.26 356.196 143.598C356.25 119.937 360.373 101.155 360.373 101.155C360.373 101.155 355.845 116.671 355.342 128.764C354.83 140.849 355.297 143.607 355.297 143.607L355.405 173.293L355.783 202.98L356.061 217.823L356.465 232.666H356.474Z" fill="#A6A8AA"/>
</g>
<g style="mix-blend-mode:multiply" opacity="0.4">
<path d="M403.136 157.261L399.057 150.313C401.824 153.106 402.633 153.554 404.268 152.399C409.101 148.994 414.976 152.46 420.034 155.364C410.565 152.813 404.95 153.64 403.127 157.261H403.136Z" fill="#D0D1D3"/>
</g>
<g style="mix-blend-mode:multiply" opacity="0.4">
<path d="M340.366 113.067L339.1 151.658L335.398 159.105L342.379 175.836C342.379 175.836 337.429 162.579 330.969 161.157L324.501 159.735L331.661 159.028L340.366 113.059V113.067Z" fill="#D0D1D3"/>
</g>
<path d="M380.353 90.2338C379.05 97.1123 367.021 101.681 361.002 101.155C356.249 100.741 356.788 96.9141 358.01 90.139C358.028 90.07 358.037 89.9925 358.046 89.9235C358.145 89.3546 358.109 86.6308 358.064 84.6224C358.037 83.3811 358.01 82.4244 358.01 82.4244L367.138 83.8121L378.34 73.684C378.34 73.684 378.251 74.4597 378.188 75.6406C378.08 77.3301 377.99 79.8471 378.215 82.0968C378.34 83.3467 378.619 84.6655 378.933 85.8636C379.562 88.303 380.344 90.2424 380.344 90.2424L380.353 90.2338Z" fill="#B0DAE7"/>
<g style="mix-blend-mode:multiply" opacity="0.4">
<path d="M378.942 85.855C370.677 106.284 358.783 94.8109 358.01 91.5613V84.6052H358.064L367.129 85.9929L378.188 75.6234C378.08 77.3129 378.718 83.5967 378.942 85.8464V85.855Z" fill="#D0D1D3"/>
</g>
<path d="M382.841 63.7454C382.976 68.0294 381.494 79.416 381.098 81.3727C380.694 83.3293 374.424 92.2335 372.627 92.3973C370.83 92.5611 365.035 93.4661 362.816 92.3111C360.598 91.156 353.617 82.7518 353.114 81.1399C352.611 79.528 351.515 68.7103 351.389 64.6418C351.012 52.2898 357.741 46.911 366.419 46.6697C375.106 46.4197 382.455 51.4019 382.832 63.754L382.841 63.7454Z" fill="#C58F80"/>
<path d="M372.627 71.3049C372.627 72.503 373.04 73.4685 373.552 73.4685C374.064 73.4685 374.478 72.503 374.478 71.3049C374.478 70.1068 374.064 69.1414 373.552 69.1414C373.04 69.1414 372.627 70.1068 372.627 71.3049Z" fill="#564B44"/>
<path d="M360.975 71.3049C360.975 72.503 361.388 73.4685 361.9 73.4685C362.412 73.4685 362.826 72.503 362.826 71.3049C362.826 70.1068 362.412 69.1414 361.9 69.1414C361.388 69.1414 360.975 70.1068 360.975 71.3049Z" fill="#564B44"/>
<path d="M357.139 74.7873C357.112 75.0372 356.438 75.1751 355.638 75.0889C354.839 75.0028 354.219 74.7269 354.246 74.477C354.273 74.227 354.947 74.0891 355.746 74.1753C356.546 74.2615 357.166 74.5373 357.139 74.7873Z" fill="#B56F61"/>
<path d="M357.319 76.287C357.274 76.037 356.6 75.9422 355.809 76.0715C355.019 76.2008 354.417 76.5111 354.462 76.7611C354.507 77.0111 355.181 77.1059 355.971 76.9766C356.762 76.8473 357.364 76.537 357.319 76.287Z" fill="#B56F61"/>
<path d="M377.487 75.718C377.514 75.4681 378.187 75.3302 378.987 75.4164C379.787 75.5025 380.406 75.7784 380.379 76.0283C380.353 76.2783 379.679 76.4162 378.879 76.33C378.08 76.2438 377.46 75.968 377.487 75.718Z" fill="#B56F61"/>
<path d="M377.307 74.2182C377.352 74.4682 378.026 74.563 378.816 74.4337C379.607 74.3044 380.209 73.9941 380.164 73.7442C380.119 73.4942 379.445 73.3994 378.655 73.5287C377.864 73.658 377.262 73.9683 377.307 74.2182Z" fill="#B56F61"/>
<path d="M367.902 78.166C367.902 78.166 367.839 78.166 367.803 78.166C367.39 78.1402 366.41 77.8299 366.24 75.4681C365.952 71.5892 366.545 69.4256 366.563 69.3394C366.599 69.2015 366.752 69.1153 366.895 69.1498C367.039 69.1843 367.129 69.3308 367.093 69.4687C367.093 69.486 366.5 71.6495 366.788 75.425C366.904 77.0196 367.408 77.6144 367.839 77.6402C368.468 77.6833 369.393 76.6231 369.734 74.8561C369.761 74.7182 369.905 74.6233 370.058 74.6492C370.21 74.6751 370.3 74.813 370.273 74.9595C369.905 76.8127 368.926 78.1402 367.911 78.166H367.902Z" fill="#B56F61"/>
<path d="M368.791 84.812C364.955 84.9241 362.556 82.1571 362.457 82.0451C362.368 81.9416 362.386 81.7865 362.493 81.7089C362.601 81.6227 362.763 81.6399 362.853 81.7434C362.88 81.7692 365.197 84.4327 368.782 84.3379C372.358 84.2345 373.984 81.4848 374.002 81.4503C374.073 81.3296 374.226 81.2952 374.343 81.3555C374.469 81.4158 374.505 81.571 374.442 81.683C374.37 81.8037 372.645 84.7086 368.791 84.812Z" fill="#B56F61"/>
<path d="M375.816 66.4519C374.927 66.1761 373.912 66.3054 372.816 66.8484C372.429 67.038 371.962 66.8915 371.764 66.5295C371.567 66.1588 371.719 65.7106 372.097 65.521C373.579 64.7883 374.999 64.6245 376.31 65.0383C378.367 65.6934 379.41 68.4517 379.023 68.6327C378.942 68.6672 377.227 66.9001 375.807 66.4519H375.816Z" fill="#564B44"/>
<path d="M356.447 69.4343C356.043 69.305 356.708 66.4347 358.657 65.5382C359.897 64.9693 361.316 64.9521 362.898 65.4951C363.302 65.633 363.508 66.064 363.365 66.4519C363.221 66.8398 362.772 67.038 362.368 66.9001C361.2 66.495 360.175 66.495 359.331 66.8829C357.983 67.5035 356.528 69.4602 356.447 69.4343Z" fill="#564B44"/>
<path d="M351.38 69.167C351.38 69.167 357.138 78.166 357.704 80.795C358.037 82.3465 355.584 84.5704 354.83 84.2084C353.329 83.5016 352.009 77.0368 352.009 77.0368" stroke="white" stroke-miterlimit="10"/>
<path d="M382.635 68.6327C382.635 68.6327 377.963 78.1661 377.397 80.7951C377.065 82.3467 379.239 84.0103 380.002 83.6569C381.503 82.95 382.033 77.5024 382.033 77.5024" stroke="white" stroke-miterlimit="10"/>
<path d="M355.109 75.8731L366.186 74.4854L380.003 74.8129C378.709 77.7522 378.637 80.6226 380.173 83.3637C380.173 83.3637 375.151 94.4658 367.623 94.44C360.544 94.4141 354.83 84.2084 354.83 84.2084C355.818 80.4674 356.78 79.2865 355.118 75.8731H355.109Z" fill="#DCE6F7"/>
<path d="M388.887 66.7279C387.405 75.3303 381.943 79.7523 381.943 79.7523C380.676 79.7523 385.33 61.5905 368.881 59.3839C368.333 59.3063 367.758 59.246 367.156 59.2201H367.12C359.07 59.7114 355.468 63.6765 353.869 67.9863C351.784 73.5805 353.069 79.7609 352.323 79.7609C352.323 79.7609 347.787 76.0975 345.855 68.9518C345.666 68.2536 345.496 67.5123 345.37 66.7451C343.196 54.1086 349.08 42.9375 365.512 42.2651V42.2393C365.619 42.2393 365.718 42.2393 365.835 42.2393C365.952 42.2393 366.051 42.2393 366.158 42.2393V42.2651C369.563 42.1531 372.555 42.472 375.151 43.1443C386.839 46.1871 390.666 56.4187 388.887 66.7451V66.7279Z" fill="#4ABCBC"/>
<g style="mix-blend-mode:multiply" opacity="0.4">
<path d="M353.868 67.9691C351.784 73.5633 353.069 79.7436 352.323 79.7436C352.323 79.7436 347.786 76.0803 345.855 68.9345C347.885 68.969 350.679 68.7966 353.868 67.9691Z" fill="#D0D1D3"/>
</g>
<g style="mix-blend-mode:multiply" opacity="0.4">
<path d="M388.887 66.7279C387.405 75.3304 381.943 79.7523 381.943 79.7523C380.676 79.7523 385.33 61.5905 368.88 59.3839C376.157 52.4106 376.454 46.825 375.16 43.1357C386.848 46.1785 390.675 56.4101 388.896 66.7365L388.887 66.7279Z" fill="#D0D1D3"/>
</g>
<path d="M375.547 79.8384C374.217 79.5367 372.878 79.2953 371.531 79.0626C370.183 78.8471 368.854 78.623 367.452 78.5454C366.06 78.6316 364.73 78.8557 363.374 79.0712C362.026 79.3039 360.688 79.5453 359.358 79.8384C360.714 79.6918 362.062 79.5108 363.419 79.347C364.766 79.1919 366.132 78.9592 367.452 78.9074C368.773 78.9505 370.138 79.1746 371.486 79.3384C372.834 79.5108 374.19 79.6918 375.547 79.8384Z" fill="#D0D1D3"/>
<path d="M359.448 86.2946C360.777 86.5962 362.116 86.8376 363.463 87.0703C364.811 87.2858 366.141 87.5099 367.542 87.5875C368.935 87.5013 370.264 87.2772 371.621 87.0617C372.968 86.829 374.307 86.5876 375.636 86.2946C374.28 86.4411 372.932 86.6221 371.576 86.7859C370.228 86.941 368.863 87.1738 367.542 87.2255C366.222 87.1824 364.856 86.9583 363.508 86.7945C362.161 86.6221 360.804 86.4411 359.448 86.2946Z" fill="#D0D1D3"/>
<path d="M374.972 82.9242C372.375 82.8035 369.779 82.8293 367.183 82.838C364.586 82.8897 361.99 82.9328 359.403 83.1138C361.999 83.2345 364.595 83.2086 367.192 83.2C369.788 83.1483 372.375 83.1052 374.972 82.9242Z" fill="#D0D1D3"/>
<path d="M400.056 159.984C400.056 159.984 389.338 192.412 388.754 231.287C388.754 231.287 392.644 232.959 396.939 231.235C396.939 231.235 401.628 195.601 411.349 176.103C413.541 171.931 413.163 166.337 412.058 163.157C402.077 147.624 400.065 159.984 400.065 159.984H400.056Z" fill="#E5B7AC"/>
<path d="M391.378 238.096C391.378 238.096 393.588 242.346 393.983 242.759C394.387 243.165 397.289 244.328 397.532 245.026C397.774 245.725 396.804 246.535 394.666 245.733C392.528 244.932 391.926 244.699 391.521 244.294C391.117 243.889 388.709 239.449 388.709 239.449L391.369 238.096H391.378Z" fill="#C4807A"/>
<path d="M390.615 239.148C390.615 239.148 392.456 244.363 392.851 244.889C393.247 245.414 396.427 247.121 396.589 247.966C396.75 248.811 395.493 249.621 393.139 248.431C390.785 247.242 390.129 246.888 389.734 246.363C389.339 245.837 387.291 240.389 387.291 240.389L390.615 239.148Z" fill="#CC938B"/>
<path d="M388.772 231.088C388.772 231.088 386.464 237.096 386.122 238.915C385.772 240.734 389.365 247.819 389.823 249.922C390.569 252.077 392.626 251.698 392.231 248.742C391.881 245.544 390.47 240.312 390.425 239.863C390.38 239.415 393.138 236.933 393.516 236.795C393.893 236.657 395.546 238.975 395.663 239.424C395.771 239.863 394.558 242.811 396.606 244.294C398.654 245.776 399.751 239.406 399.499 238.191C399.247 236.976 398.861 232.718 396.256 230.382L389.931 230.226L388.772 231.097V231.088Z" fill="#E5B7AC"/>
<path d="M411.223 129.643C411.223 129.643 407.18 131.979 406.318 133.341C405.446 134.711 392.824 161.415 392.824 161.415L407.297 172.552L412.966 151.089L411.232 129.626L411.223 129.643Z" fill="#BDE5F9"/>
<path d="M414.781 169.462L391.735 159.746L389.332 164.994L412.378 174.709L414.781 169.462Z" fill="#A2BADD"/>
<path d="M441.489 127.695L440.339 127.747L420.71 128.643L421.015 123.42C421.833 123.937 424.106 125.307 425.498 125.221C431.481 124.851 439.19 122.747 441.076 122.222L441.427 126.781L441.498 127.712L441.489 127.695Z" fill="#E5B7AC"/>
<path d="M449.521 346.877L449.287 351.308C449.287 351.308 449.925 359.436 450.392 360.677C452.692 364.254 449.907 370.857 449.691 373.883C449.53 377.098 430.197 381.054 429.532 375.572C430.61 371.521 438.03 360.436 438.318 358.54C438.614 356.66 438.273 350.566 438.56 350.489L434.778 289.022L442.792 241.027L452.566 288.711L449.512 346.877H449.521Z" fill="#E5B7AC"/>
<path d="M434.347 352.221C435.084 354.626 434.626 357.04 433.997 359.221C433.108 362.324 406.327 369.513 405.096 364.117C405.294 362.832 406.947 361.117 409.121 359.298C413.927 355.29 421.33 350.834 421.393 349.515C421.492 347.619 420.656 344.179 420.935 344.076L410.747 283.281L413.703 234.761L428.418 281.255L431.464 339.43L431.697 343.86C431.697 343.86 432.065 347.041 432.542 348.662C432.622 348.903 432.694 349.118 432.775 349.282C433.215 349.834 433.566 350.403 433.844 350.963V350.997C434.06 351.403 434.222 351.816 434.356 352.23L434.347 352.221Z" fill="#E5B7AC"/>
<path d="M460.382 289.013C460.382 289.013 428.418 294.581 401.691 288.677C399.194 288.134 396.741 287.479 394.36 286.72C394.36 286.72 401.493 209.867 403.38 204.781C403.416 204.678 403.47 204.583 403.515 204.479C406.255 199.394 427.924 200.859 441.417 202.281H441.444C447.733 202.971 452.234 203.626 452.234 203.626C452.234 203.626 452.234 203.643 452.252 203.652C452.593 204.126 458.073 212.091 458.271 229.339C458.486 247.164 460.382 289.004 460.382 289.004V289.013Z" fill="#BDE5F9"/>
<path d="M413.137 112.136L417.045 119.644C417.045 119.644 421.689 124.876 431.329 124.402C441.409 123.808 445.451 115.395 445.451 115.395L446.619 107.111L444.58 101.077L411.313 104.439L413.128 112.128L413.137 112.136Z" fill="#434244"/>
<path d="M440.887 113.99L440.968 115.766L441.292 126.29C441.292 126.29 441.22 133.712 431.67 134.186C422.111 134.66 421.887 127.816 421.887 127.816L421.456 121.705L421.015 115.464L420.917 114.033L421.294 114.067L430.646 115.016L440.223 113.076L440.887 113.981V113.99Z" fill="#E5B7AC"/>
<path opacity="0.6" d="M440.968 115.481V115.765C439.378 118.937 434.392 125.342 421.455 121.704L421.015 115.464L421.294 114.076L430.646 115.024L440.824 112.817L440.968 115.489V115.481Z" fill="#CA7E86"/>
<path d="M443.34 102.457C443.34 102.457 445.838 95.9401 450.24 97.2761C454.642 98.6122 450.375 109.439 443.61 107.473L443.34 102.457Z" fill="#E5B7AC"/>
<path d="M449.054 100.267C445.963 100.379 444.337 103.129 444.265 103.25C444.193 103.37 444.238 103.517 444.364 103.586C444.409 103.612 444.454 103.62 444.499 103.62C444.589 103.62 444.67 103.569 444.714 103.491C444.723 103.474 445.334 102.448 446.466 101.655C447.571 102.267 447.113 104.025 447.104 104.043C447.068 104.172 447.149 104.31 447.284 104.344C447.311 104.344 447.338 104.353 447.365 104.344C447.472 104.344 447.571 104.267 447.598 104.163C447.625 104.077 448.101 102.233 446.924 101.353C447.499 101.034 448.182 100.793 448.973 100.75C449 100.75 449.027 100.75 449.054 100.75C449.179 100.767 449.305 100.629 449.305 100.491C449.305 100.353 449.179 100.25 449.036 100.25L449.054 100.267Z" fill="#CA7E86"/>
<path d="M410.451 102.181C413.541 101.991 415.455 104.569 415.535 104.672C415.616 104.784 415.589 104.939 415.473 105.017C415.428 105.043 415.383 105.06 415.338 105.06C415.248 105.06 415.167 105.025 415.113 104.956C415.104 104.939 414.385 103.982 413.173 103.31C412.14 104.034 412.786 105.732 412.786 105.749C412.84 105.879 412.768 106.017 412.634 106.068C412.607 106.077 412.58 106.086 412.553 106.086C412.445 106.086 412.337 106.025 412.301 105.922C412.265 105.836 411.592 104.051 412.67 103.069C412.059 102.81 411.358 102.638 410.567 102.672C410.54 102.672 410.513 102.672 410.487 102.672C410.361 102.698 410.217 102.577 410.208 102.439C410.199 102.302 410.307 102.181 410.451 102.172V102.181Z" fill="#CA7E86"/>
<path d="M430.836 121.233C439.032 120.828 445.168 111.05 444.542 99.3921C443.916 87.7348 436.765 78.6131 428.569 79.0183C420.373 79.4236 414.237 89.2022 414.863 100.86C415.489 112.517 422.641 121.639 430.836 121.233Z" fill="#E5B7AC"/>
<path d="M420.396 105.767C420.378 106.008 419.74 106.146 418.985 106.077C418.231 106.008 417.638 105.767 417.656 105.525C417.674 105.284 418.311 105.146 419.066 105.215C419.821 105.284 420.414 105.525 420.396 105.767Z" fill="#CA7E86"/>
<path d="M420.602 107.18C420.558 106.948 419.911 106.87 419.165 107.008C418.419 107.146 417.853 107.447 417.907 107.689C417.952 107.922 418.599 107.999 419.345 107.861C420.09 107.723 420.656 107.422 420.602 107.18Z" fill="#CA7E86"/>
<path d="M439.63 106.241C439.648 105.999 440.286 105.862 441.04 105.93C441.795 105.999 442.388 106.241 442.37 106.482C442.352 106.723 441.714 106.861 440.959 106.792C440.205 106.723 439.612 106.482 439.63 106.241Z" fill="#CA7E86"/>
<path d="M439.432 104.818C439.477 105.051 440.124 105.129 440.87 104.991C441.615 104.853 442.181 104.551 442.127 104.31C442.082 104.077 441.436 104 440.69 104.138C439.944 104.275 439.378 104.577 439.432 104.818Z" fill="#CA7E86"/>
<path d="M430.296 108.594C430.296 108.594 430.233 108.594 430.197 108.594C429.811 108.577 428.877 108.309 428.661 106.077C428.311 102.422 428.814 100.371 428.841 100.284C428.877 100.155 429.012 100.069 429.155 100.103C429.29 100.138 429.38 100.267 429.344 100.405C429.344 100.422 428.832 102.474 429.182 106.034C429.326 107.542 429.811 108.085 430.224 108.103C430.817 108.128 431.662 107.111 431.958 105.439C431.985 105.301 432.12 105.215 432.255 105.232C432.398 105.258 432.488 105.379 432.47 105.517C432.165 107.275 431.266 108.551 430.305 108.594H430.296Z" fill="#CA7E86"/>
<path d="M430.637 112.602C426.711 112.8 424.196 110.025 424.088 109.904C423.998 109.801 424.007 109.646 424.115 109.559C424.223 109.473 424.385 109.482 424.483 109.585C424.51 109.611 426.945 112.292 430.61 112.111C434.267 111.93 435.875 109.077 435.884 109.042C435.947 108.921 436.108 108.878 436.234 108.939C436.36 108.999 436.405 109.154 436.342 109.275C436.27 109.404 434.581 112.404 430.637 112.602Z" fill="#CA7E86"/>
<path d="M437.043 94.4403C436.18 94.0955 435.165 94.1472 434.033 94.5954C433.638 94.7506 433.189 94.5696 433.018 94.1903C432.856 93.811 433.045 93.3714 433.44 93.2163C434.976 92.6043 436.396 92.5526 437.662 93.0697C439.648 93.88 440.456 96.6987 440.061 96.8538C439.98 96.8883 438.417 94.9919 437.052 94.4403H437.043Z" fill="#434244"/>
<path d="M419.039 97.8968C418.626 97.7847 419.129 94.8971 421.016 93.8972C422.219 93.2594 423.63 93.1732 425.229 93.63C425.642 93.7507 425.876 94.1644 425.75 94.5523C425.624 94.9488 425.193 95.1729 424.789 95.0523C423.603 94.7161 422.588 94.7592 421.77 95.1988C420.468 95.8884 419.129 97.914 419.048 97.8968H419.039Z" fill="#434244"/>
<path d="M423.702 98.2588L421.204 98.4742C421.204 98.4742 421.626 99.1897 423.109 99.2673C422.974 99.8965 422.911 100.767 422.965 101.732C423.064 103.62 423.567 105.137 424.07 105.111C424.573 105.086 424.914 103.534 424.807 101.638C424.699 99.7413 424.205 98.2329 423.702 98.2588Z" fill="#434244"/>
<path d="M437.977 97.6383L435.47 97.6727C434.958 97.6986 434.626 99.2501 434.734 101.146C434.833 103.034 435.336 104.551 435.839 104.525C436.351 104.5 436.683 102.948 436.575 101.052C436.521 100.095 436.369 99.2329 436.162 98.6123C437.626 98.3796 437.977 97.6296 437.977 97.6296V97.6383Z" fill="#434244"/>
<path d="M432.622 82.6571C432.622 82.6571 428.957 82.9416 426.199 88.2082C423.441 93.4748 421.078 97.1468 415.661 97.4141C415.661 97.4141 415.589 114.067 418.85 121.161C418.85 121.161 408.95 115.998 407.746 101.31C406.542 86.6222 416.299 66.4348 433.206 74.8476C433.206 74.8476 436.27 71.8049 442.765 76.0027C446.475 78.5455 462.215 98.526 443.295 118.558C443.295 118.558 445.595 100.095 442.343 92.2077C442.343 92.2077 433.485 92.8284 432.631 82.6571H432.622Z" fill="#302E2F"/>
<path d="M449.629 75.1234L448.632 76.7094L447.455 78.6057L446.17 80.6658C434.177 76.356 425.723 76.356 414.907 79.4936L414.763 79.1315L413.99 77.2093L413.164 75.1492L412.598 73.7442C412.598 73.7442 411.996 73.2443 414.287 70.305C418.734 64.6504 435.183 63.1161 444.014 68.3914C444.769 68.831 445.469 69.3309 446.098 69.8826C449.988 73.2701 449.629 75.1147 449.629 75.1147V75.1234Z" fill="#BDE5F9"/>
<path d="M448.64 76.7181L447.464 78.6231C431.805 72.3565 418.437 75.7355 413.99 77.2181L413.164 75.1666C418.203 73.4771 432.119 70.0809 448.64 76.7181Z" fill="#A2BADD"/>
<g style="mix-blend-mode:multiply" opacity="0.4">
<path d="M449.629 75.1235L448.631 76.7095L447.455 78.6058L446.17 80.666C434.177 76.3561 425.723 76.3561 414.906 79.4937L414.763 79.1316C415.949 78.8472 417.359 78.5369 419.021 78.2093C432.2 75.6148 439.953 71.3394 444.014 68.3915C444.768 68.8311 445.469 69.331 446.098 69.8827C449.988 73.2702 449.629 75.1149 449.629 75.1149V75.1235Z" fill="#D0D1D3"/>
</g>
<path d="M453.491 207.384C453.869 210.013 453.078 211.772 453.078 211.772C453.078 211.772 447.993 211.565 441.094 211.151C440.285 211.099 439.45 211.048 438.587 210.996C423.908 210.048 403.38 208.255 403.479 205.531C403.479 205.195 403.506 204.833 403.506 204.471C403.56 202.221 403.748 199.437 403.982 196.48V196.463C404.656 188.025 405.689 178.207 405.087 175.509C404.593 173.224 403.479 171.018 402.302 168.716C402.284 168.69 402.275 168.656 402.248 168.622C402.248 168.622 402.248 168.596 402.23 168.578C401.323 166.803 400.388 164.984 399.688 163.019C399.688 163.019 399.688 163.019 399.688 163.001C399.58 162.726 399.49 162.433 399.4 162.148C398.78 160.217 398.412 158.166 398.52 155.899C398.52 150.572 410.944 130.014 411.223 129.652V129.635C412.633 128.919 416.694 127.187 418.194 126.531C418.266 126.497 418.329 126.471 418.374 126.445C420.153 125.669 420.718 123.204 420.718 123.204C420.718 123.204 420.835 123.282 421.024 123.403C421.841 123.92 424.114 125.29 425.507 125.204C431.49 124.833 439.198 122.73 441.085 122.204C441.363 122.118 441.516 122.075 441.516 122.075C441.516 122.075 441.92 123.428 443.205 124.644C443.735 125.135 444.418 125.609 445.289 125.937C448.442 127.161 453.833 130.281 456.438 132.401L456.456 132.427C457.48 133.255 458.289 134.134 458.783 135.056C458.953 135.367 459.088 135.694 459.187 136.022C461.002 138.978 455.028 145.141 452.063 154.123C451.371 156.201 450.895 158.321 450.572 160.536C450.518 160.872 450.464 161.209 450.428 161.545C450.428 161.562 450.428 161.588 450.428 161.614C450.257 162.967 450.131 164.363 450.05 165.803C450.015 166.311 449.997 166.829 449.979 167.354C449.979 167.423 449.979 167.475 449.979 167.501C449.979 167.518 449.979 167.553 449.979 167.57C449.925 169.19 445.972 174.586 446.349 184.12C446.349 184.335 446.367 184.559 446.385 184.792C446.385 184.844 446.385 184.896 446.385 184.939C446.412 185.344 446.448 185.758 446.493 186.18C446.511 186.413 446.538 186.645 446.574 186.887C446.637 187.361 446.709 187.852 446.78 188.352C446.816 188.602 446.87 188.861 446.915 189.119C447.014 189.619 447.113 190.128 447.239 190.654C447.409 191.438 447.625 192.248 447.867 193.076C448.02 193.627 448.2 194.188 448.388 194.756C448.496 195.101 448.613 195.446 448.748 195.791C448.874 196.144 448.999 196.498 449.143 196.842C449.287 197.196 449.422 197.549 449.574 197.911C450.015 198.997 450.518 200.118 451.075 201.264C451.254 201.644 451.452 202.032 451.65 202.419C451.847 202.807 452.063 203.204 452.269 203.6C452.269 203.6 452.269 203.618 452.287 203.626C453.015 204.979 453.374 206.255 453.536 207.367L453.491 207.384Z" fill="#BDE5F9"/>
<g style="mix-blend-mode:multiply" opacity="0.4">
<path d="M403.533 171.199C403.533 171.199 397.37 161.407 399.562 156.054C401.754 150.701 409.327 139.22 409.327 139.22C409.327 139.22 398.493 151.718 398.071 157.468C397.801 161.14 400.074 169.535 400.074 169.535L403.533 171.199Z" fill="#D0D1D3"/>
</g>
<g style="mix-blend-mode:multiply" opacity="0.4">
<path d="M460.382 289.013C460.382 289.013 428.418 294.581 401.691 288.677C425.471 279.652 438.785 255 441.103 211.16C441.255 208.281 441.363 205.324 441.417 202.281C441.66 189.335 446.161 163.588 444.669 147.546L450.563 160.545C450.527 161.105 449.979 166.941 449.961 167.518C449.961 167.535 449.961 167.57 449.961 167.587C449.871 170.095 440.438 181.672 452.243 203.635C452.243 203.635 452.243 203.652 452.261 203.661C452.602 204.135 458.082 212.099 458.28 229.347C458.495 247.173 460.391 289.013 460.391 289.013H460.382Z" fill="#D0D1D3"/>
</g>
<path d="M445.532 193.894C444.427 193.627 441.938 195.084 441.938 195.084C441.938 195.084 436.854 198.696 436.359 199.756C435.254 201.075 434.841 203.023 437.015 202.221C439.917 200.454 441.642 198.902 443.007 198.118C444.373 197.342 445.945 197.885 445.945 197.885C445.945 197.885 444.373 198.222 443.295 198.704C442.217 199.178 436.62 205.281 436.539 206.376C436.467 207.479 438.623 207.695 439.908 206.195C439.908 206.195 438.794 207.764 439.037 208.401C439.279 209.039 440.052 209.108 441.974 207.315C441.974 207.315 441.552 208.85 442.19 209.255C443.645 209.884 447.158 205.583 447.625 205.445C448.092 205.307 453.078 209.617 459.097 205.841C459.097 205.841 455.118 195.86 445.523 193.894H445.532Z" fill="#E5B7AC"/>
<path opacity="0.5" d="M444.912 200.816C445.011 200.902 443.987 202.126 442.621 203.557C441.256 204.988 440.07 206.074 439.971 205.988C439.872 205.902 440.896 204.678 442.262 203.247C443.627 201.816 444.813 200.73 444.912 200.816Z" fill="#CA7E86"/>
<path opacity="0.5" d="M446.053 203.186C446.151 203.273 445.325 204.29 444.202 205.471C443.079 206.643 442.091 207.522 441.992 207.436C441.893 207.35 442.72 206.333 443.843 205.152C444.966 203.979 445.954 203.1 446.053 203.186Z" fill="#CA7E86"/>
<path d="M443.187 124.652C442.666 125.411 442.073 126.118 441.417 126.764C441.076 127.109 431.697 130.927 422.992 129.953C421.905 129.833 419.497 129.953 418.176 126.54C418.248 126.506 418.311 126.48 418.356 126.454C420.135 125.678 420.701 123.213 420.701 123.213C420.701 123.213 420.817 123.29 421.006 123.411C421.824 123.928 424.097 125.299 425.489 125.213C431.472 124.842 439.18 122.739 441.067 122.213C441.345 122.127 441.498 122.084 441.498 122.084C441.498 122.084 441.902 123.437 443.187 124.652Z" fill="#A2BADD"/>
<path d="M453.645 200.187C453.645 200.187 476.014 180.956 476.257 180.439C476.499 179.922 447.428 151.77 447.428 151.77C447.428 151.77 446.314 136.84 453.797 133.884C453.797 133.884 487.28 173.026 490.379 178.974C493.479 184.921 469.052 201.454 459.107 205.841L453.654 200.178L453.645 200.187Z" fill="#E5B7AC"/>
<path d="M447.922 136.78L450.59 131.583C450.59 131.583 454.381 131.341 457.992 134.375C461.604 137.409 465.143 140.84 475.097 153.347L458.981 168.742L452 162.536C452 162.536 441.579 150.167 447.922 136.789V136.78Z" fill="#BDE5F9"/>
<path d="M423.252 124.635L422.695 128.928C422.695 128.928 407.009 152.399 409.911 167.449C409.911 167.449 416.227 175.586 412.957 185.895C410.549 193.481 399.445 289.685 402.949 288.944" stroke="#A2BADD" stroke-miterlimit="10"/>
<path d="M434.931 146.969C437.869 147.055 439.782 149.451 439.207 152.322C438.632 155.192 435.794 157.45 432.856 157.364C429.918 157.278 428.005 154.882 428.58 152.011C429.155 149.141 431.993 146.882 434.931 146.969Z" fill="white"/>
<path d="M433.628 149.287L433.17 151.158L431.275 151.02L430.816 152.891L432.721 153.028L432.263 154.899L434.158 155.037L434.617 153.166L436.512 153.313L436.97 151.434L435.075 151.296L435.533 149.425L433.628 149.287Z" fill="#C53E5D"/>
<path d="M474.249 150.191L456.246 167.464L460.546 171.591L478.549 154.317L474.249 150.191Z" fill="#A2BADD"/>
<path d="M643.317 105.373L647.503 101.873C647.503 101.873 659.757 110.183 658.436 144.843C656.64 153.514 648.267 149.066 644.916 145.093C642.221 141.257 637.693 114.329 637.693 114.329L643.317 105.373Z" fill="#BDE5F9"/>
<path d="M593.25 242.03C593.717 245.176 598.667 310.582 601.111 328.684L611.919 327.727L609.726 234.625C609.726 234.625 623.067 180.623 623.13 179.735C623.193 178.865 622.196 154.428 622.196 154.428L618.782 154.41L598.515 154.316C598.515 154.316 592.783 165.314 590.843 178.485C588.516 189.855 592.657 238.013 593.241 242.038L593.25 242.03Z" fill="#466992"/>
<path d="M647.881 322.624L660.718 321.831C660.647 313.677 635.16 206.405 641.763 195.285C645.868 188.381 646.129 180.321 645.015 173.219C645.015 173.167 644.997 173.124 644.997 173.064C643.676 164.746 640.487 157.738 639.391 155.454C639.274 155.221 639.166 154.979 639.05 154.721C638.322 153.109 637.576 151.109 636.911 149.23C635.77 145.998 634.89 143.11 634.89 143.11L631.638 144.662L618.845 150.73L618.629 152.566L615.135 182.58C615.135 182.58 644.988 306.118 647.89 322.624H647.881Z" fill="#466992"/>
<path d="M598.641 143.886C598.533 146.067 597.688 152.531 592.038 162.772C597.697 152.523 598.542 146.067 598.641 143.886Z" fill="#C58F80"/>
<path d="M598.263 93.8483C601.021 92.495 604.192 91.1848 607.714 90.1332C604.192 91.1934 601.03 92.495 598.263 93.8483Z" fill="#DCE6F7"/>
<path d="M595.99 130.672C595.99 130.68 595.999 130.68 595.999 130.68C596.017 130.749 596.071 130.904 596.152 131.129C596.215 131.301 596.278 131.534 596.359 131.801C596.484 132.249 596.655 132.818 596.835 133.482C596.943 133.887 597.05 134.326 597.176 134.792C597.751 137.128 598.371 140.222 598.65 143.498C598.65 143.601 598.65 143.731 598.641 143.877C598.641 143.731 598.65 143.601 598.65 143.498C598.371 140.222 597.751 137.119 597.176 134.792C597.059 134.326 596.952 133.887 596.835 133.482C596.655 132.809 596.484 132.249 596.359 131.801C596.278 131.534 596.206 131.301 596.152 131.129C596.071 130.896 596.026 130.749 595.999 130.68C595.999 130.68 595.99 130.68 595.99 130.672Z" fill="#DCE6F7"/>
<path d="M640.9 126.913L639.005 120.147V126.913H640.9Z" fill="#BABCBE"/>
<path d="M594.104 96.0895C595.362 95.3482 596.754 94.5983 598.272 93.8484C596.754 94.5897 595.371 95.3482 594.104 96.0895Z" fill="#30405F"/>
<path d="M594.104 96.0895C595.371 95.3568 596.754 94.5982 598.273 93.8483C598.839 93.5725 599.423 93.2967 600.024 93.0295C600.941 92.6071 601.902 92.202 602.899 91.8055C603.016 91.7624 603.124 91.7193 603.241 91.6848C604.669 91.1245 606.16 90.6159 607.724 90.1418L607.75 92.6847C607.75 92.6847 607.75 92.7105 607.75 92.7622C607.777 93.0381 607.903 93.9949 608.406 95.1758C608.532 95.4516 608.667 95.7274 608.829 96.0205C610.113 98.3306 612.916 100.985 618.98 100.985C625.044 100.985 627.623 98.5375 628.728 96.4084C628.871 96.1239 628.988 95.8481 629.096 95.5895C629.572 94.3224 629.545 93.3225 629.545 93.3225V93.2622L629.581 90.8831C630.974 91.3745 632.303 91.9089 633.552 92.4606C634.639 92.9346 635.672 93.4346 636.642 93.9345C637.029 94.1328 637.397 94.331 637.756 94.5379C638.026 94.6844 638.286 94.831 638.547 94.9775C640.056 95.8395 641.404 96.6928 642.572 97.4945C646.174 99.9856 648.097 101.968 648.097 101.968L647.081 104.226C646.884 104.537 646.704 104.847 646.542 105.149C642.796 112.648 646.668 165.754 646.983 167.426C646.273 173.77 592.46 173.184 590.385 167.426C590.385 167.426 592.487 132.801 591.175 113.458C590.591 104.873 586.477 101.434 586.1 101.718C586.926 100.994 589.711 98.6581 594.086 96.0895H594.104Z" fill="#BDE5F9"/>
<path d="M629.59 90.8745C626.041 89.616 622.034 88.5988 617.588 88.0817C614.057 88.4954 610.751 89.2195 607.714 90.1332" fill="#DCE6F7"/>
<path d="M617.587 88.0817C622.025 88.5988 626.041 89.616 629.59 90.8745C626.041 89.616 622.034 88.5988 617.587 88.0817Z" fill="#DCE6F7"/>
<path d="M629.59 90.8745L629.545 93.3138C629.545 93.3138 629.707 100.977 618.98 100.977C608.253 100.977 607.741 92.676 607.741 92.676L607.714 90.1332C610.751 89.2195 614.057 88.4954 617.588 88.0817C622.025 88.5988 626.041 89.616 629.59 90.8745Z" fill="#E3E7FD"/>
<path d="M631.279 77.8414L631.252 79.4447L631.135 86.056V86.4525L631.054 90.2969L631 93.3138C631 93.3138 631.036 94.805 630.075 96.4773C629.796 96.96 629.437 97.4685 628.961 97.9512C627.389 99.5631 624.604 100.977 619.654 100.977C613.132 100.977 610.122 98.3046 608.747 95.9946C608.747 95.9859 608.747 95.9773 608.729 95.9687C607.696 94.2189 607.589 92.676 607.589 92.676L607.445 78.1259L607.795 77.9535L608.029 77.8414L613.042 78.5482L619.654 79.4792L630.83 77.9018L631.279 77.8414Z" fill="#BDE5F9"/>
<path d="M600.024 319.237L609.942 319.288H611.505C624.487 294.826 627.64 260.873 627.299 223.541C627.496 217.369 628.943 180.39 619.815 174.831C618.98 174.322 619.905 173.098 619.941 172.538C619.977 171.926 619.995 171.581 619.995 171.581L619.923 171.564H619.905L593.124 167.133C593.124 167.133 592.945 167.685 592.648 168.711C592.478 169.314 592.253 170.081 592.001 170.986C590.384 176.848 587.447 188.786 586.153 202.302C575.956 308.643 600.024 319.219 600.024 319.219V319.237Z" fill="#BDE5F9"/>
<path d="M661.239 304.937C660.512 310.651 659.38 311.479 659.38 311.479L653.253 311.781L645.653 312.151C645.653 312.151 637.81 307.6 626.041 261.855C624.208 254.727 622.286 246.607 620.282 237.349V237.332C619.339 232.996 618.387 228.428 617.426 223.592C616.096 216.998 614.73 209.913 613.365 202.302C612.988 199.595 613.033 194.552 613.203 189.674C613.239 189.027 613.257 188.398 613.284 187.769C613.455 183.7 613.94 175.951 614.227 171.736L614.371 169.564C614.407 169.09 614.416 168.823 614.416 168.823L619.968 169.038L645.859 170.055C645.859 170.055 645.895 170.072 645.913 170.09C646.228 170.305 646.632 171.055 647.117 172.253C652.283 185.209 667.833 253.313 661.266 304.937H661.239Z" fill="#BDE5F9"/>
<path d="M612.269 77.2123C612.269 77.2123 613.213 79.3586 615.216 80.7808C615.396 80.9188 615.611 81.0481 615.818 81.1687C616.689 81.6601 617.731 82.0048 618.953 82.0135C620.4 82.0135 621.603 81.5566 622.565 80.9188C622.762 80.7895 622.951 80.6515 623.122 80.5136C624.864 79.1345 625.691 77.2899 625.691 77.2899C625.691 77.2899 619.393 79.0569 612.26 77.2123H612.269Z" fill="#DCE6F7"/>
<path d="M638.681 64.9034C639.095 78.1777 631.854 89.1506 622.529 89.4179C613.195 89.6851 605.298 79.1345 604.885 65.8688C604.471 52.5944 611.712 41.6215 621.037 41.3543C630.371 41.0871 638.268 51.6376 638.681 64.9034Z" fill="#E5B7AC"/>
<path d="M611.056 71.5668C611.02 71.834 610.302 71.9805 609.448 71.8943C608.595 71.7995 607.921 71.5064 607.957 71.2392C607.993 70.972 608.712 70.8255 609.565 70.9117C610.418 71.0065 611.092 71.2996 611.056 71.5668Z" fill="#BE717E"/>
<path d="M611.254 73.1873C611.209 72.9201 610.481 72.8167 609.628 72.9546C608.775 73.0925 608.128 73.4287 608.173 73.6959C608.218 73.9631 608.945 74.0665 609.799 73.9286C610.652 73.7907 611.299 73.4545 611.254 73.1873Z" fill="#BE717E"/>
<path d="M632.932 72.5666C632.967 72.2994 633.686 72.1529 634.54 72.2391C635.393 72.3339 636.067 72.627 636.031 72.8942C635.995 73.1614 635.276 73.3079 634.423 73.2217C633.569 73.1269 632.896 72.8338 632.932 72.5666Z" fill="#BE717E"/>
<path d="M632.734 70.9547C632.779 71.2219 633.507 71.3253 634.36 71.1874C635.214 71.0495 635.861 70.7133 635.816 70.4461C635.771 70.1789 635.043 70.0755 634.19 70.2134C633.336 70.3513 632.689 70.6875 632.734 70.9547Z" fill="#BE717E"/>
<path d="M623.041 75.5747C623.041 75.5747 623.113 75.5747 623.149 75.5747C623.589 75.523 624.613 75.1351 624.64 72.5837C624.685 68.4118 623.903 66.1275 623.876 66.0327C623.823 65.8862 623.661 65.8086 623.508 65.8517C623.355 65.9034 623.275 66.0586 623.319 66.2051C623.319 66.231 624.101 68.5066 624.056 72.5751C624.038 74.2904 623.544 74.9627 623.077 75.0145C622.403 75.1007 621.343 74.0232 620.849 72.1441C620.813 71.9976 620.651 71.9027 620.49 71.9372C620.328 71.9717 620.238 72.1269 620.274 72.282C620.795 74.2473 621.936 75.6092 623.032 75.5747H623.041Z" fill="#BE717E"/>
<path d="M622.583 79.8415C618.118 79.9708 615.324 76.7557 615.207 76.6177C615.108 76.4971 615.126 76.3161 615.252 76.2212C615.378 76.1178 615.566 76.1437 615.665 76.2643C615.692 76.2988 618.396 79.4019 622.565 79.2812C626.724 79.1606 628.629 75.954 628.647 75.9195C628.728 75.7816 628.907 75.7385 629.051 75.8075C629.195 75.8851 629.24 76.0575 629.168 76.1954C629.087 76.3419 627.084 79.7208 622.592 79.8415H622.583Z" fill="#BE717E"/>
<path d="M631.126 62.6107C630.165 62.309 629.087 62.4556 627.901 63.0331C627.488 63.24 626.985 63.0848 626.778 62.6883C626.571 62.2918 626.733 61.8091 627.137 61.6108C628.736 60.8264 630.255 60.654 631.665 61.0936C633.875 61.7918 634.998 64.757 634.585 64.9553C634.504 64.9984 632.653 63.0934 631.126 62.6107Z" fill="#302E2F"/>
<path d="M610.32 65.8173C609.88 65.6708 610.598 62.5935 612.691 61.6281C614.021 61.0161 615.557 60.9989 617.246 61.585C617.677 61.7316 617.902 62.197 617.749 62.6108C617.597 63.0245 617.111 63.2486 616.68 63.0935C615.432 62.6625 614.327 62.6539 613.419 63.0762C611.973 63.7486 610.41 65.8518 610.32 65.8173Z" fill="#302E2F"/>
<path d="M626.841 68.1964C626.841 69.679 627.281 70.8858 627.829 70.8858C628.377 70.8858 628.817 69.679 628.817 68.1964C628.817 66.7138 628.377 65.5071 627.829 65.5071C627.281 65.5071 626.841 66.7138 626.841 68.1964Z" fill="#302E2F"/>
<path d="M614.317 68.1964C614.317 69.679 614.758 70.8858 615.306 70.8858C615.854 70.8858 616.294 69.679 616.294 68.1964C616.294 66.7138 615.854 65.5071 615.306 65.5071C614.758 65.5071 614.317 66.7138 614.317 68.1964Z" fill="#302E2F"/>
<path d="M604.84 67.3772L611.64 74.092L611.829 73.6007L604.121 66.1791L604.84 67.3772Z" fill="#8CD3C9"/>
<path d="M604.983 74.4971L610.967 81.5652L610.526 81.7721L604.552 74.5833L604.983 74.4971Z" fill="#8CD3C9"/>
<path d="M637.81 67.765L633.031 74.5401L632.789 74.0746L636.661 68.9373L637.81 67.765Z" fill="#8CD3C9"/>
<path d="M635.906 76.1952L633.534 81.9359L633.992 82.1083L636.346 76.3073L635.906 76.1952Z" fill="#8CD3C9"/>
<path d="M633.48 73.6955C633.48 73.6955 626.85 72.1353 623.131 71.7302C623.131 71.7302 622.655 71.6526 622.403 71.6612C622.152 71.644 621.675 71.7129 621.675 71.7129C617.947 72.0232 611.281 73.4196 611.281 73.4196C612.692 79.1173 610.518 81.7721 610.518 81.7721C614.21 89.2627 618.396 90.2712 621.559 90.5642C623.49 90.7884 629.536 89.6247 634.01 82.0652C634.01 82.0652 631.908 79.35 633.48 73.6955Z" fill="#8CD3C9"/>
<path d="M614.219 76.4365C615.531 76.1434 616.851 75.8934 618.172 75.6693C619.501 75.4538 620.813 75.2383 622.197 75.1608C623.571 75.247 624.883 75.4711 626.212 75.6866C627.533 75.9107 628.854 76.152 630.165 76.4451C628.827 76.2986 627.497 76.1262 626.167 75.9538C624.838 75.7986 623.499 75.5745 622.188 75.5142C620.885 75.5573 619.537 75.7814 618.208 75.9365C616.878 76.1089 615.549 76.2813 614.21 76.4279L614.219 76.4365Z" fill="#5CA098"/>
<path d="M630.084 82.8065C628.773 83.0995 627.452 83.3495 626.132 83.5736C624.802 83.7891 623.49 84.0046 622.107 84.0822C620.732 83.996 619.421 83.7719 618.091 83.5564C616.77 83.3323 615.45 83.0909 614.138 82.7979C615.477 82.9444 616.806 83.1168 618.136 83.2892C619.466 83.4443 620.804 83.6684 622.116 83.7288C623.418 83.6857 624.766 83.4616 626.096 83.3064C627.425 83.134 628.755 82.9616 630.093 82.8151L630.084 82.8065Z" fill="#5CA098"/>
<path d="M614.785 79.4792C617.346 79.3671 619.906 79.3844 622.457 79.393C625.018 79.4447 627.569 79.4878 630.129 79.6688C627.569 79.7895 625.009 79.7637 622.457 79.755C619.897 79.7033 617.346 79.6602 614.785 79.4792Z" fill="#5CA098"/>
<path d="M637.271 93.745C637.424 94.0208 637.585 94.288 637.765 94.5293H637.756L630.443 96.3998L630.075 96.4774L629.186 96.667L629.266 95.7878L629.284 95.5551L629.473 93.5036L629.5 93.2623L629.608 89.8144L629.68 87.306C630.192 86.944 630.677 86.5303 631.135 86.0562C636.498 80.6171 638.654 68.2651 634.504 61.2831C629.994 53.6978 621.415 54.9476 621.415 54.9476C621.415 54.9476 612.844 53.6978 608.343 61.2831C607.373 62.9122 606.789 64.8689 606.546 66.9721C606.115 70.5062 606.636 74.454 607.795 77.9536C609.143 82.0221 611.371 85.4873 614.003 86.9785L613.428 93.4088V93.6243L613.581 95.6499V95.7103L613.644 96.4516L613.662 96.667L608.819 96.0119L608.747 95.9947L608.496 95.943L598.587 93.9174C598.425 93.8915 598.308 93.8743 598.254 93.857C598.299 93.7536 598.344 93.6415 598.389 93.5208C598.569 93.0381 598.767 92.3572 598.973 91.5469C599.952 87.7715 601.129 81.005 600.896 76.8331C600.761 74.3765 600.114 71.6268 599.494 68.7392C599.117 67.0238 598.767 65.2568 598.533 63.4811C598.29 61.7744 598.174 60.0591 598.254 58.3438C598.56 52.3445 600.662 48.388 603.447 45.7676C609.835 39.7769 619.806 40.8889 619.878 40.8889C619.977 40.8889 639.364 39.208 640.361 58.9558C640.685 65.5068 638.331 70.6786 637.271 75.5832C637.271 75.5832 635.896 81.2378 635.896 86.3406C635.896 88.2025 636.049 90.0643 636.48 91.6676V91.6849C636.678 92.4348 636.93 93.133 637.271 93.745Z" fill="#BDE5F9"/>
<g style="mix-blend-mode:multiply" opacity="0.6">
<path d="M634.935 93.8483L598.587 93.9173C598.425 93.8914 598.308 93.8742 598.254 93.857C598.299 93.7535 598.344 93.6415 598.389 93.5208C598.569 93.0381 598.767 92.3571 598.973 91.5469C599.952 87.7714 601.129 81.005 600.896 76.833C600.761 74.3764 600.114 71.6267 599.494 68.7391C599.117 67.0238 598.767 65.2567 598.533 63.4811C598.29 61.7744 598.174 60.0591 598.254 58.3437C598.56 52.3444 600.662 48.388 603.447 45.7676C603.285 51.3014 602.665 78.7035 607.714 86.944C610.868 92.0899 634.558 91.3055 636.48 91.6762C636.678 92.4347 636.93 93.1329 637.271 93.7449C637.424 94.0207 634.935 93.8483 634.935 93.8483Z" fill="#E6E6E7"/>
</g>
<path d="M604.121 63.4811V68.7391H599.503C599.126 67.0238 598.776 65.2567 598.533 63.4811H604.121Z" fill="#466992"/>
<path opacity="0.5" d="M640.712 64.9034C640.658 71.9198 632.959 73.6093 628.764 74.0058C627.191 74.161 626.113 74.1265 626.113 74.1265C626.113 74.1265 625.979 72.7904 625.314 71.6699C624.802 70.7993 623.984 70.0494 622.664 70.1356C622.601 70.1356 622.538 70.1528 622.475 70.1614C621.675 70.351 620.993 71.3423 620.525 72.2819V72.2991C620.067 73.1869 619.807 74.023 619.807 74.023C619.807 74.023 619.474 74.023 618.917 74.023C617.166 73.9886 613.159 73.7386 609.781 72.2732C606.807 70.9803 604.319 68.7478 604.256 64.9034C604.175 59.9471 613.833 57.5421 623.221 57.6887C626.643 57.7318 630.03 58.1197 632.896 58.8524C634.082 59.1454 635.178 59.5074 636.148 59.9212C637.64 60.5504 638.834 61.3176 639.625 62.2227C640.335 63.0071 640.721 63.9035 640.712 64.9034Z" fill="#77B4D8"/>
<path opacity="0.3" d="M632.896 58.8524L622.475 70.1614L620.525 72.2819V72.2991L618.917 74.0231C617.165 73.9886 613.159 73.7386 609.781 72.2733L623.22 57.6887C626.643 57.7318 630.03 58.1197 632.896 58.8524Z" fill="white"/>
<path opacity="0.3" d="M639.625 62.2227L628.763 74.0059C627.191 74.161 626.113 74.1266 626.113 74.1266C626.113 74.1266 625.978 72.7905 625.313 71.6699L636.148 59.9213C637.639 60.5505 638.834 61.3177 639.625 62.2227Z" fill="white"/>
<path d="M622.457 57.6802C631.593 57.6802 640.748 60.0937 640.712 64.9121C640.64 73.7818 628.332 74.1352 626.383 74.1352C626.212 74.1352 626.122 74.1352 626.122 74.1352C626.122 74.1352 625.709 70.1356 622.87 70.1356C622.807 70.1356 622.744 70.1356 622.672 70.1356C621.001 70.2391 619.807 74.0231 619.807 74.0231C619.807 74.0231 619.663 74.0231 619.402 74.0231C616.968 74.0231 604.399 73.6008 604.265 64.8948C604.184 60.0764 613.32 57.6629 622.457 57.6629M622.457 55.939C619.348 55.939 608.855 56.2751 604.354 60.6626C603.088 61.8952 602.441 63.3692 602.459 64.9207C602.585 72.9026 611.29 75.7384 619.393 75.7384C619.699 75.7384 619.86 75.7384 619.86 75.7384C620.624 75.7126 621.298 75.2213 621.513 74.5145C621.864 73.4197 622.52 72.1871 622.915 71.851C623.849 71.9372 624.262 73.8249 624.316 74.299C624.415 75.1523 625.152 75.816 626.05 75.8419C626.05 75.8419 626.158 75.8419 626.365 75.8419C633.767 75.8419 642.428 72.9801 642.491 64.9035C642.499 63.3519 641.835 61.8779 640.568 60.6539C636.04 56.2751 625.547 55.939 622.439 55.939H622.457Z" fill="#5697B7"/>
<path d="M598.264 93.8485C598.318 93.8657 598.425 93.8916 598.587 93.9174C600.132 94.176 606.151 94.7622 608.397 95.1673L613.581 95.6414L620.085 96.2362C622.457 96.2362 624.945 96.1069 627.542 95.7793C628.045 95.7104 628.566 95.65 629.087 95.5724C629.15 95.5724 629.213 95.5552 629.276 95.5379C631.674 95.1759 634.136 94.6501 636.633 93.9174C636.84 93.8571 637.056 93.8054 637.262 93.7364C636.93 93.1158 636.669 92.4176 636.472 91.6677C635.492 91.9522 634.513 92.2107 633.552 92.4435C632.195 92.7624 630.866 93.0296 629.545 93.2451C629.527 93.2451 629.518 93.2451 629.5 93.2451C628.916 93.3399 628.323 93.4261 627.757 93.4951C622.511 94.1674 617.633 94.0726 613.437 93.6158C612.844 93.5468 612.269 93.4778 611.703 93.4003C610.562 93.2451 602.621 92.0901 598.973 91.5298C598.767 92.3487 598.569 93.021 598.389 93.5037C598.434 93.6589 598.407 93.7795 598.264 93.8399V93.8485Z" fill="#466992"/>
<path d="M591.193 171.202C594.93 171.728 602.261 172.538 613.527 172.822C615.324 172.866 617.21 172.909 619.205 172.917C619.321 172.917 619.456 172.917 619.573 172.917C639.131 173.055 641.781 172.09 646.372 171.383C645.806 170.202 645.356 169.487 645.033 169.288C639.256 169.935 630.38 170.676 619.807 170.711H619.16C617.327 170.711 615.449 170.693 613.518 170.642C613.437 170.642 613.356 170.642 613.275 170.642C606.493 170.469 599.18 169.978 591.66 168.978C591.535 169.564 591.364 170.314 591.175 171.202H591.193Z" fill="#466992"/>
<path d="M665.336 147.411C663.989 148.937 660.862 149.971 657.404 149.635C657.296 149.635 657.197 149.627 657.089 149.609C654.924 149.351 652.651 148.558 650.603 147.006C649.704 144.593 648.761 141.972 647.809 139.214C647.261 137.645 646.722 136.016 646.165 134.378C644.674 129.887 643.227 125.198 641.934 120.613C638.079 101.563 642.41 98.7616 647.432 101.313C650.549 102.899 653.972 106.907 655.768 109.252C655.804 109.329 655.831 109.407 655.867 109.485C655.93 109.622 655.993 109.769 656.056 109.907C660.952 121.078 663.342 127.155 664.51 136.499C664.752 138.455 664.95 140.55 665.103 142.869C665.192 144.3 665.264 145.817 665.336 147.428V147.411Z" fill="#BDE5F9"/>
<g style="mix-blend-mode:multiply" opacity="0.6">
<path d="M657.403 149.635C657.296 149.635 652.651 148.558 650.603 147.006C649.704 144.593 648.761 141.972 647.809 139.214C647.261 137.645 646.722 136.016 646.165 134.378C651.429 126.81 645.464 113.415 643.272 103.752C643.335 103.89 652.561 119.044 654.151 134.413C654.933 141.964 660.674 149.782 657.403 149.644V149.635Z" fill="#E6E6E7"/>
</g>
<g style="mix-blend-mode:multiply" opacity="0.6">
<path d="M605.962 140.291L598.479 108.304C598.479 108.304 604.103 132.43 610.032 134.352C615.961 136.275 618.18 137.292 618.18 137.292L606.214 142.593L606.133 140.679" fill="#E6E6E7"/>
</g>
<path d="M635.815 131.249C635.815 131.249 645.275 130.249 647.252 130.594C650.234 131.284 653.98 134.637 654.609 135.102C655.75 136.352 656.837 140.059 656.649 141.11C656.828 142.619 656.074 144.343 654.708 142.808C653.28 140.222 652.022 137.128 652.022 137.128L648.303 134.525C648.303 134.525 650.836 136.671 651.465 137.481C652.094 138.292 653.334 145.394 652.795 146.282C652.247 147.17 650.36 146.446 650.135 144.756C650.135 144.756 650.18 146.437 649.641 146.834C649.102 147.23 648.437 146.963 647.854 144.791C647.854 144.791 647.368 146.153 646.641 146.204C645.149 146.101 644.628 141.369 644.332 141.076C644.035 140.783 639.337 142.817 636.642 137.585C633.488 133.068 635.824 131.249 635.824 131.249H635.815Z" fill="#466992"/>
<path d="M650.126 144.756C650.144 143.799 650.009 142.869 649.857 141.946C649.659 141.041 649.479 140.11 649.039 139.291C649.362 141.136 649.614 142.963 650.126 144.756Z" fill="#AA7168"/>
<path d="M647.845 144.791C647.845 143.998 647.701 143.248 647.539 142.507C647.332 141.774 647.126 141.033 646.704 140.403C647.018 141.903 647.314 143.36 647.845 144.791Z" fill="#AA7168"/>
<path d="M653.235 153.635C652.993 153.626 652.75 153.6 652.508 153.574C645.24 152.799 611.084 144.524 611.084 144.524L610.994 142.653L610.787 138.61L615.827 137.343C615.827 137.343 627.551 137.283 644.332 139.041C645.536 139.059 646.686 139.119 647.809 139.214C655.391 139.86 661.096 142.11 663.746 144.687C664.663 145.575 665.211 146.506 665.346 147.411C665.903 151.23 660.189 154.152 653.244 153.635H653.235Z" fill="#C58F80"/>
<path d="M653.235 153.635C652.993 153.626 652.75 153.6 652.508 153.574C645.24 152.799 611.084 144.524 611.084 144.524L610.994 142.653L610.787 138.61L615.827 137.343C615.827 137.343 627.65 136.171 644.431 137.921C658.59 139.283 661.321 142.101 663.962 144.679C664.878 145.567 665.211 146.498 665.346 147.403C665.903 151.221 660.189 154.143 653.244 153.626L653.235 153.635Z" fill="#BDE5F9"/>
<g style="mix-blend-mode:multiply" opacity="0.6">
<path d="M653.235 153.635C652.993 153.626 652.75 153.6 652.508 153.574C645.24 152.799 611.083 144.524 611.083 144.524L610.994 142.653C616.86 144.377 622.708 146.187 628.746 147.385C637.981 149.23 647.315 151.152 656.631 149.696C656.775 149.67 656.937 149.627 657.089 149.601C664.456 148.17 664.869 143.498 665.112 142.851C665.175 142.912 665.04 142.774 665.112 142.851C665.202 144.282 665.274 145.799 665.345 147.411C665.902 151.23 660.189 154.152 653.244 153.635H653.235Z" fill="#E6E6E7"/>
</g>
<path d="M581.158 120.276C585.417 136.413 588.211 142.11 598.488 156.445C601.938 157.384 607.615 154.876 609.466 148.739C606.978 141.084 604.471 130.956 600.743 122.078C593.592 108.002 589.01 100.356 586.117 101.718C583.153 103.115 579.694 111.079 581.167 120.276H581.158Z" fill="#BDE5F9"/>
<g style="mix-blend-mode:multiply" opacity="0.6">
<path d="M604.947 155.988C602.989 156.66 595.478 148.868 595.137 144.687C583.979 118.57 586.117 103.752 586.117 101.718C586.117 100.985 578.805 108.002 581.167 120.276C585.354 136.145 588.13 141.92 597.994 155.746C598.129 155.979 598.281 156.203 598.47 156.41C598.47 156.419 598.479 156.427 598.488 156.436C600.599 158.755 605.675 159.082 610.607 156.833C616.662 154.066 640.46 138.257 640.46 138.257C640.46 138.257 619.124 150.928 604.956 155.979L604.947 155.988Z" fill="#E6E6E7"/>
</g>
<path d="M618.162 142.326C618.162 142.326 614.389 133.964 613.077 132.378C610.921 130.06 605.639 128.172 604.857 127.819C603.016 127.336 598.685 127.922 597.688 128.517C596.053 128.982 594.652 130.353 596.889 130.913C600.24 131.094 604.04 130.913 604.04 130.913L608.532 133.085C608.532 133.085 605.091 131.758 603.95 131.551C602.809 131.344 594.912 133.189 594.265 134.033C593.619 134.878 595.281 136.223 597.131 135.732C597.131 135.732 595.388 136.378 595.245 137.016C595.101 137.654 595.703 138.119 598.218 137.731C598.218 137.731 597.059 138.723 597.365 139.369C598.2 140.628 603.312 139.128 603.761 139.266C604.21 139.404 604.417 144.343 611.101 144.532C617.282 145.411 618.18 142.334 618.18 142.334L618.162 142.326Z" fill="#466992"/>
<g style="mix-blend-mode:multiply" opacity="0.3">
<path d="M605.055 138.033C604.687 138.136 600.743 139.722 597.347 139.36C598.183 140.619 603.294 139.119 603.744 139.257C604.193 139.395 604.399 144.334 611.083 144.524C613.455 144.86 618.064 141.584 619.124 141.153C609.673 142.093 607.616 143.843 605.055 138.042V138.033Z" fill="#C58F80"/>
</g>
<g style="mix-blend-mode:multiply" opacity="0.3">
<path d="M597.123 135.723C598.102 135.309 599.117 135.051 600.141 134.792C601.165 134.585 602.216 134.361 603.267 134.413C601.219 134.895 599.216 135.43 597.123 135.723Z" fill="#C58F80"/>
</g>
<g style="mix-blend-mode:multiply" opacity="0.3">
<path d="M598.209 137.723C599.018 137.395 599.862 137.214 600.707 137.042C601.551 136.921 602.423 136.792 603.267 136.904C601.578 137.249 599.934 137.593 598.209 137.723Z" fill="#C58F80"/>
</g>
<path d="M641.547 132.292C639.068 129.801 635.87 129.956 635.87 129.956C635.87 129.956 625.745 130.982 611.766 137.335C601.354 140.903 596.79 150.644 597.545 154.557C598.3 158.47 604.561 159.6 610.607 156.833C616.662 154.066 643.272 138.033 643.272 138.033C643.272 138.033 644.305 135.059 641.547 132.292Z" fill="#BDE5F9"/>
<g style="mix-blend-mode:multiply" opacity="0.6">
<path d="M604.947 155.988C603.806 156.376 600.473 153.393 598.084 150.42C597.338 151.747 597.338 153.497 597.545 154.566C597.626 154.997 597.787 155.385 597.994 155.747C598.048 155.85 598.12 155.945 598.183 156.04C598.272 156.169 598.362 156.29 598.47 156.41C598.47 156.419 598.488 156.427 598.488 156.436C598.542 156.488 598.596 156.54 598.65 156.591C598.758 156.695 598.856 156.798 598.973 156.884C599.054 156.945 599.135 157.005 599.216 157.065C599.323 157.143 599.431 157.212 599.548 157.289C599.638 157.341 599.728 157.393 599.827 157.445C599.952 157.514 600.078 157.574 600.213 157.626C600.312 157.669 600.402 157.712 600.5 157.755C600.671 157.824 600.842 157.876 601.021 157.936C601.093 157.962 601.165 157.988 601.237 158.005C601.489 158.074 601.74 158.134 602.01 158.177C602.108 158.195 602.216 158.212 602.324 158.22C602.504 158.246 602.683 158.272 602.872 158.289C602.989 158.298 603.106 158.307 603.231 158.315C603.42 158.324 603.609 158.332 603.797 158.341C603.914 158.341 604.031 158.341 604.157 158.341C604.372 158.341 604.597 158.324 604.822 158.315C604.92 158.315 605.01 158.315 605.109 158.298C605.432 158.272 605.756 158.238 606.079 158.186C606.16 158.177 606.241 158.16 606.313 158.143C606.573 158.1 606.825 158.048 607.085 157.996C607.202 157.97 607.319 157.936 607.445 157.91C607.669 157.858 607.903 157.798 608.128 157.729C608.253 157.695 608.379 157.66 608.505 157.617C608.747 157.539 608.981 157.462 609.224 157.376C609.331 157.333 609.448 157.298 609.556 157.255C609.906 157.126 610.257 156.979 610.598 156.815C614.659 154.962 629.608 146.489 637.918 140.938C631 144.868 615.252 152.29 604.938 155.962L604.947 155.988Z" fill="#E6E6E7"/>
</g>
<g style="mix-blend-mode:multiply" opacity="0.6">
<path d="M658.509 311.479L652.382 311.781L644.781 312.151C644.781 312.151 636.939 307.6 625.17 261.855V261.829L625.987 196.656C629.877 244.375 638.574 285.56 658.509 311.479Z" fill="#E6E6E7"/>
</g>
<path d="M593.225 143.077L603.61 163.643L618.263 170.97L614.499 180.236L594.627 173.125L581.6 152.972L593.225 143.077Z" fill="#5CA098"/>
<path d="M579.004 120.243C579.004 120.243 583.092 122.562 583.981 123.932C588.985 129.664 596.693 144.663 596.693 144.663L581.609 152.972L577.45 141.887L579.004 120.243Z" fill="#8CD3C9"/>
<g style="mix-blend-mode:multiply" opacity="0.4">
<path d="M590.836 160.402C590.836 160.402 592.92 148.628 591.051 143.878C588.913 138.456 582.373 125.751 582.373 125.751C582.373 125.751 590.89 137.069 593.953 147.421C595.013 150.99 592.884 159.557 592.884 159.557L590.845 160.394L590.836 160.402Z" fill="#D0D1D3"/>
</g>
<path d="M558.08 113.942C538.801 119.303 533.608 125.225 533.608 125.225L547.506 159.549C547.506 159.549 550.498 172.858 546.895 179.279C533.95 190.175 544.658 207.362 544.658 207.362C553.66 213.155 572.742 204.38 572.742 204.38C572.742 204.38 582.031 201.716 588.589 193.433C588.589 193.433 584.654 180.133 586.711 170.832C590.97 157.704 591.5 146.628 588.095 137.163C584.313 130.742 575.85 114.088 558.08 113.942Z" fill="#E5B7AC"/>
<path d="M541.137 98.2194L541.2 98.1763C545.189 95.6507 550.202 96.1592 552.412 99.3313C554.595 102.452 553.238 107.003 549.393 109.606C549.321 109.658 549.25 109.709 549.178 109.753C545.171 112.33 540.122 111.83 537.903 108.649C535.675 105.46 537.121 100.797 541.128 98.2194H541.137Z" fill="#434244"/>
<path d="M542.691 97.392C546.68 94.8664 550.202 96.1594 552.412 99.3314C554.595 102.452 553.238 107.003 549.393 109.606C541.658 107.27 540.715 102.831 542.682 97.392H542.691Z" fill="#5CA098"/>
<path d="M549.312 101.417L548.432 118.415L569.364 119.493L568.798 112.649L568.331 107.055L568.205 106.762L563.381 99.7365L549.312 101.417Z" fill="#E5B7AC"/>
<path opacity="0.5" d="M549.312 101.417L548.782 111.701C554.02 117.51 561.539 119.501 568.942 114.321L568.331 107.063L568.214 106.77L563.381 99.745L549.312 101.417Z" fill="#CA7E86"/>
<path d="M565.618 320.03L565.007 278.389C566.651 276.458 567.819 274.199 568.25 271.743C569.463 264.804 570.927 257.65 570.253 250.59C569.867 246.547 568.376 242.875 565.995 239.962C566.84 235.531 567.693 231.11 568.466 226.67C569.607 220.162 570.11 213.568 571.718 207.138C572.275 204.897 572.374 202.69 572.068 200.578L576.874 211.379L577.081 213.551L583.253 276.691L578.024 333.132L576.955 344.743C572.104 345.364 570.837 344.7 565.968 345.002L565.806 333.408L565.609 320.03H565.618Z" fill="#E5B7AC"/>
<path opacity="0.4" d="M568.124 272.364L569.508 275.682L565.618 320.031L565.007 278.389C566.516 276.622 567.612 274.587 568.124 272.364Z" fill="#CA7E86"/>
<path d="M536.573 325.125L535.962 283.483C537.606 281.552 538.774 279.294 539.206 276.837C540.418 269.898 541.883 262.744 541.209 255.684C540.823 251.642 539.331 247.97 536.951 245.056C537.795 240.626 538.649 236.204 539.421 231.765C540.562 225.257 541.065 218.663 542.673 212.232C543.23 209.991 543.329 207.785 543.024 205.673L547.83 216.473L548.037 218.646L554.208 281.785L548.98 338.227L547.911 349.838C543.06 350.458 541.793 349.794 536.924 350.096L536.762 338.503L536.564 325.125H536.573Z" fill="#E5B7AC"/>
<path opacity="0.4" d="M538.972 273.036L540.355 276.354L536.465 320.703L535.854 279.061C537.364 277.294 538.46 275.26 538.972 273.036Z" fill="#CA7E86"/>
<path d="M534.803 340.08L552.537 340.563L563.749 244.065L564.351 337.951L583.774 336.615L588.248 194.691L536.079 204.526L535.764 235.893L534.803 340.08Z" fill="#5CA098"/>
<g style="mix-blend-mode:multiply">
<path d="M539.43 339.778C538.792 314.005 542.448 247.996 547.902 247.711C580.683 246.022 585.939 241.824 585.939 241.824L535.684 236.566L534.803 340.08L539.43 339.77V339.778Z" fill="#E6E6E7"/>
</g>
<path d="M591.743 240.824C590.88 240.988 590.036 241.152 589.173 241.307C588.823 241.367 586.604 241.712 585.939 241.824C585.328 241.902 584.735 241.979 584.565 241.996C584.52 242.005 584.466 242.005 584.421 242.014C583.028 242.186 581.654 242.35 580.252 242.488C569.544 243.565 558.745 243.712 548.001 243.039C545.899 242.91 543.716 242.841 541.604 242.608C541.227 242.557 540.904 242.522 540.661 242.488C540.535 242.47 540.418 242.453 540.293 242.436C540.275 242.436 540.257 242.427 540.239 242.427C540.212 242.427 540.185 242.419 540.167 242.419C540.167 242.41 540.149 242.41 540.14 242.41C539.745 242.35 539.376 242.298 539.17 242.272C537.741 242.1 536.322 241.91 534.884 241.695C534.471 241.634 534.049 241.574 533.636 241.505C533.923 234.101 534.094 227.033 534.031 221.818C533.797 203.863 539.484 195.76 539.484 195.76C539.484 195.76 542.871 195.2 547.857 194.493C548.648 194.39 549.465 194.278 550.319 194.166C550.867 194.097 551.433 194.028 552.008 193.95C565.618 192.278 585.831 190.657 588.589 195.51C588.643 195.614 588.688 195.709 588.733 195.803C589.775 198.424 590.898 220.24 591.743 240.815V240.824Z" fill="#8CD3C9"/>
<path d="M550.974 121.579C550.974 121.579 563.65 129.181 574.512 122.096C585.373 115.019 574.817 146.792 574.817 146.792L550.983 121.579H550.974Z" fill="#5CA098"/>
<path d="M539.484 195.769C539.107 200.923 538.819 204.009 538.819 204.009C538.819 204.009 541.101 203.863 544.704 203.587C547.12 203.406 550.112 203.173 553.409 202.889C568.169 201.596 588.805 199.311 588.634 196.588C588.616 196.243 588.589 195.881 588.58 195.51C588.149 186.778 588.544 170.703 589.272 167.005C590.44 160.876 592.255 154.127 591.671 145.99C591.536 140.628 579.237 120.665 578.95 120.303V120.286C577.449 119.562 575.877 118.89 574.53 118.338C572.715 117.588 569.193 116.252 569.095 116.243C570.622 117.545 571.682 119.312 572.338 121.579C573.973 127.233 572.742 134.931 571.646 135.345C568.825 136.301 560.138 127.94 553.436 121.674C550.435 118.864 548.351 116.804 548.351 116.804C548.351 116.804 546.033 117.519 543.06 118.743C539.915 120.045 536.043 121.924 533.474 124.122L533.456 124.139C532.108 125.294 531.129 126.527 530.806 127.828C529.045 130.845 535.226 136.905 538.433 145.886C539.295 148.291 539.879 150.774 540.257 153.386C540.553 155.291 540.742 157.273 540.868 159.333C540.868 159.359 540.877 159.376 540.877 159.402C541.029 161.928 541.074 164.583 541.119 167.419C540.661 178.909 539.978 189.071 539.484 195.769Z" fill="#8CD3C9"/>
<g style="mix-blend-mode:multiply" opacity="0.4">
<path d="M549.016 136.974L548.926 137.146C548.944 137.034 548.98 136.974 549.016 136.974Z" fill="#D0D1D3"/>
</g>
<g style="mix-blend-mode:multiply" opacity="0.4">
<path d="M580.252 242.496C569.544 243.574 558.745 243.72 548.001 243.048C545.899 242.919 543.716 242.85 541.604 242.617C541.227 242.565 540.904 242.531 540.661 242.496C540.535 242.479 540.427 242.462 540.338 242.453C540.32 242.453 540.311 242.444 540.293 242.444C540.275 242.444 540.257 242.436 540.239 242.436C540.212 242.436 540.185 242.427 540.167 242.427H540.212C540.212 242.427 540.158 242.419 540.14 242.419C539.745 242.358 539.376 242.307 539.17 242.281C537.741 242.108 536.322 241.919 534.884 241.703C534.471 241.643 534.049 241.582 533.636 241.514C533.923 234.109 534.094 227.041 534.031 221.826C533.797 203.871 539.484 195.769 539.484 195.769C539.978 189.071 540.661 178.909 541.119 167.418C541.083 164.591 541.029 161.928 540.886 159.402C540.886 159.385 540.886 159.359 540.877 159.342C540.751 157.273 540.562 155.291 540.257 153.394L548.917 137.155C548.603 138.81 548.827 152.463 549.708 168.324C550.75 187.071 540.526 222.783 547.309 231.446C556.149 242.729 581.331 242.384 580.244 242.496H580.252Z" fill="#D0D1D3"/>
</g>
<path d="M611.48 151.239L608.048 151.162L608.102 150.722C608.219 149.722 607.68 148.886 606.88 148.852C606.081 148.817 605.317 149.628 605.2 150.645L605.146 151.093L601.427 151.007C600.457 150.981 599.567 151.92 599.451 153.101L599.046 157.196L612.217 157.006L612.72 153.239C612.863 152.162 612.306 151.265 611.462 151.248L611.48 151.239ZM605.973 150.748C606.027 150.265 606.377 149.886 606.754 149.903C607.132 149.912 607.392 150.309 607.338 150.783C607.32 150.912 607.284 151.033 607.231 151.136C607.087 151.429 606.835 151.627 606.557 151.619C606.278 151.619 606.072 151.403 606 151.11C605.964 150.998 605.964 150.877 605.973 150.748Z" fill="#F1F1F2"/>
<path d="M619.52 164.798C619.52 164.798 613.348 179.788 613.366 179.71C613.384 179.633 618.011 181.874 620.356 176.159C623.446 168.634 619.511 164.798 619.511 164.798H619.52Z" fill="#5CA098"/>
<path d="M583.109 202.587L606.835 201.561C608.362 201.492 609.674 200.492 610.078 199.079L621.524 159.221C622.09 157.239 620.697 155.23 618.568 154.963L591.617 154.627C589.757 154.394 588.041 155.601 587.7 157.368L579.48 198.579C579.066 200.725 580.836 202.673 583.109 202.578V202.587Z" fill="#BF8A82"/>
<path d="M623.15 163.841C621.964 161.368 621.578 161.928 621.227 161.281C620.212 160.014 616.852 158.152 615.81 158.023C614.4 157.48 612.612 157.635 613.852 159.161C616.098 161.023 617.867 162.005 618.883 162.885C619.898 163.764 619.817 165.16 619.817 165.16C619.817 165.16 619.134 164.005 618.451 163.264C617.769 162.531 611.121 159.609 610.159 159.825C609.189 160.04 609.548 161.807 611.157 162.454C611.157 162.454 609.53 161.962 609.036 162.316C608.542 162.669 608.686 163.298 610.707 164.376C610.707 164.376 609.279 164.428 609.09 165.031C608.911 166.341 613.492 168.056 613.726 168.393C613.968 168.729 611.489 173.763 616.25 177.581C616.25 177.581 623.851 171.935 623.159 163.833L623.15 163.841Z" fill="#E5B7AC"/>
<path opacity="0.5" d="M617.238 164.238C617.203 164.341 615.828 164.022 614.166 163.522C612.504 163.023 611.183 162.54 611.21 162.428C611.246 162.324 612.621 162.643 614.283 163.143C615.945 163.643 617.265 164.135 617.238 164.238Z" fill="#CA7E86"/>
<path opacity="0.5" d="M615.729 165.97C615.693 166.074 614.561 165.833 613.196 165.419C611.83 165.005 610.752 164.591 610.779 164.488C610.815 164.384 611.947 164.626 613.313 165.04C614.678 165.445 615.756 165.867 615.729 165.97Z" fill="#CA7E86"/>
<path d="M535.962 222.783C535.962 222.783 540.203 224.524 541.478 225.541C542.763 226.558 543.06 230.17 543.06 230.17C543.06 230.17 543.931 231.834 544.461 232.213C544.991 232.592 542.161 234.075 540.877 232.213C539.592 230.351 535.962 222.783 535.962 222.783Z" fill="#E5B7AC"/>
<path opacity="0.5" d="M535.962 222.783C535.962 222.783 539.718 225.929 540.903 229.377C542.125 232.928 543.931 231.834 544.461 232.213C544.991 232.592 542.161 234.075 540.877 232.213C539.592 230.351 535.962 222.783 535.962 222.783Z" fill="#CA7E86"/>
<path d="M542.449 236.187C542.539 231.954 537.247 222.809 535.756 222.317C535.352 222.55 526.664 223.61 526.664 223.61C526.188 228.61 526.583 234.057 528.847 237.436C529.27 238.074 530.069 239.583 530.77 239.721C532.585 240.065 532.046 237.678 532.504 238.091C535.971 243.798 537.894 237.876 537.894 237.876C538.945 240.134 542.404 238.229 542.449 236.187Z" fill="#E5B7AC"/>
<path d="M542.781 153.808C534.795 179.012 535.936 222.783 535.936 222.783C535.729 222.904 535.531 223.016 535.316 223.119C530.671 225.498 526.08 224.274 526.08 224.274C519.361 177.323 527.428 136.974 527.428 136.974C527.428 136.974 535.63 130.233 541.164 138.077C541.748 139.18 542.305 140.559 542.727 142.102C543.716 145.645 544.066 150.033 542.772 153.808H542.781Z" fill="#E5B7AC"/>
<path d="M542.782 153.808C534.795 179.012 536.942 222.076 536.942 222.076C537.167 224.533 526.422 226.101 526.09 224.274C519.37 177.323 527.437 136.974 527.437 136.974C527.437 136.974 535.639 130.233 541.173 138.077C541.757 139.18 542.314 140.559 542.737 142.102C543.725 145.645 544.075 150.033 542.782 153.808Z" fill="#5CA098"/>
<path d="M535.531 122.596C535.531 122.596 530.617 125.492 528.111 129.035C525.425 132.828 521.93 141.378 520.708 157.196C528.425 160.842 537.346 162.833 543.814 162.514C543.814 162.514 544.183 160.437 545.171 150.662C547.102 131.647 535.531 122.596 535.531 122.596Z" fill="#8CD3C9"/>
<path d="M564.953 159.988C564.235 160.031 563.507 159.971 562.779 159.807C558.781 158.954 554.613 155.247 550.409 148.783C547.3 144.007 545.315 139.422 545.297 139.379L545.98 139.18C546.06 139.361 553.858 157.282 562.968 159.23C565.124 159.695 567.226 159.195 569.203 157.756L569.679 158.204C568.17 159.299 566.588 159.893 564.962 159.98L564.953 159.988Z" fill="#808083"/>
<path d="M557.649 161.471C556.607 161.531 555.439 161.436 554.164 161.195L554.325 160.609C557.586 161.221 559.994 160.816 561.458 159.394C567.01 154.032 558.449 136.163 558.359 135.982L559.033 135.758C559.051 135.801 561.261 140.378 562.725 145.576C564.719 152.618 564.477 157.394 562.006 159.781C560.946 160.807 559.491 161.367 557.649 161.462V161.471Z" fill="#808083"/>
<path d="M545.602 139.81C545.351 139.827 545.09 139.706 544.982 139.508C544.874 139.31 542.278 134.646 544.003 131.242C544.695 129.871 545.988 128.897 547.839 128.354C549.69 127.811 551.468 127.88 553.112 128.561C557.164 130.25 558.979 135.077 559.06 135.284C559.159 135.56 558.97 135.862 558.637 135.948C558.296 136.026 557.937 135.879 557.838 135.595C557.82 135.552 556.104 130.992 552.538 129.509C551.217 128.957 549.788 128.906 548.279 129.354C546.761 129.802 545.755 130.552 545.198 131.647C543.689 134.621 546.132 139.017 546.15 139.06C546.303 139.327 546.159 139.637 545.836 139.767C545.764 139.792 545.683 139.81 545.611 139.818L545.602 139.81Z" fill="#59595B"/>
<path d="M572.706 156.282C573.138 156.877 572.644 157.773 571.592 158.29C570.55 158.807 569.356 158.738 568.924 158.144C568.493 157.549 568.987 156.653 570.038 156.135C571.08 155.618 572.275 155.687 572.706 156.282Z" fill="#E5E5E6"/>
<path d="M554.963 160.781C554.757 161.454 553.643 161.798 552.457 161.557C551.28 161.316 550.489 160.574 550.687 159.902C550.894 159.23 552.008 158.876 553.193 159.126C554.37 159.368 555.161 160.109 554.963 160.781Z" fill="#E5E5E6"/>
<path d="M547.929 129.259C547.642 129.276 547.372 129.13 547.273 128.888C547.156 128.578 543.024 117.795 548.378 115.468C548.477 115.424 548.567 116.648 548.567 116.648C544.363 119.062 548.468 128.501 548.495 128.57C548.603 128.845 548.414 129.147 548.073 129.233C548.019 129.25 547.974 129.25 547.92 129.259H547.929Z" fill="#59595B"/>
<path d="M580.057 163.291L579.172 163.374L579.581 167.406L580.466 167.324L580.057 163.291Z" fill="#808083"/>
<path d="M576.651 169.625C576.498 172.297 579.058 174.314 581.762 173.659C583.451 173.246 584.709 171.78 584.808 170.108C584.961 167.436 582.4 165.419 579.696 166.074C578.007 166.488 576.749 167.953 576.651 169.625Z" fill="#E5E5E6"/>
<path d="M580.002 168.763C579.849 170.384 581.412 171.625 583.047 171.168C583.954 170.918 584.637 170.117 584.718 169.22C584.871 167.6 583.308 166.358 581.673 166.815C580.765 167.065 580.082 167.867 580.002 168.763Z" fill="#808083"/>
<path d="M579.022 164.186C578.941 163.264 578.223 155.92 577.603 141.62C577.1 129.768 571.054 119.467 569.104 116.424L568.969 114.821C568.96 114.063 577.827 122.467 578.878 141.568C579.669 155.885 580.352 163.928 580.361 164.014C580.037 164.445 579.013 164.186 579.013 164.186H579.022Z" fill="#59595B"/>
<path d="M570.622 95.9957C570.622 95.9957 573.452 89.643 577.764 91.1859C582.076 92.7288 577.252 103.279 570.622 100.995V95.9957Z" fill="#E5B7AC"/>
<path d="M576.417 94.0994C573.335 94.0563 571.574 96.7198 571.494 96.8318C571.422 96.9439 571.458 97.0991 571.574 97.168C571.619 97.1939 571.664 97.2025 571.709 97.2025C571.79 97.2025 571.88 97.1594 571.925 97.0904C571.934 97.0732 572.599 96.0819 573.766 95.3579C574.827 96.0216 574.279 97.7455 574.279 97.7628C574.234 97.8921 574.314 98.03 574.449 98.0731C574.476 98.0731 574.503 98.0817 574.53 98.0817C574.638 98.0817 574.737 98.0127 574.773 97.9093C574.8 97.8231 575.375 96.013 574.252 95.0907C574.844 94.7976 575.536 94.5907 576.318 94.5907C576.345 94.5907 576.372 94.5907 576.399 94.5907C576.524 94.608 576.659 94.4873 576.659 94.3494C576.659 94.2114 576.551 94.0994 576.408 94.0994H576.417Z" fill="#CA7E86"/>
<path d="M545.108 95.8837C545.108 95.8837 542.278 89.5309 537.966 91.0738C533.654 92.6168 538.478 103.167 545.108 100.883V95.8837Z" fill="#E5B7AC"/>
<path d="M539.314 93.9873C542.395 93.9442 544.156 96.6077 544.237 96.7198C544.309 96.8318 544.273 96.987 544.156 97.056C544.111 97.0818 544.066 97.0904 544.021 97.0904C543.932 97.0904 543.851 97.0473 543.806 96.9784C543.797 96.9611 543.132 95.9699 541.964 95.2458C540.904 95.9095 541.452 97.6335 541.452 97.6507C541.497 97.78 541.416 97.9179 541.281 97.961C541.254 97.961 541.227 97.9696 541.2 97.9696C541.093 97.9696 540.994 97.9007 540.958 97.7972C540.931 97.711 540.356 95.9009 541.479 94.9786C540.886 94.6855 540.194 94.4787 539.413 94.4787C539.386 94.4787 539.359 94.4787 539.332 94.4787C539.206 94.4959 539.071 94.3752 539.071 94.2373C539.071 94.0994 539.179 93.9873 539.323 93.9873H539.314Z" fill="#CA7E86"/>
<path d="M573.362 92.9012C573.362 104.521 568.547 113.778 560.38 113.778C552.214 113.778 543.778 104.521 543.778 92.9012C543.778 81.2818 550.399 71.8605 558.575 71.8605C566.75 71.8605 573.371 81.2818 573.371 92.9012H573.362Z" fill="#E5B7AC"/>
<path d="M550.822 98.0385C550.786 98.2712 550.148 98.3833 549.402 98.2798C548.657 98.1764 548.082 97.9006 548.109 97.6678C548.145 97.4351 548.783 97.323 549.528 97.4265C550.274 97.5299 550.849 97.8058 550.822 98.0385Z" fill="#CA7E86"/>
<path d="M550.948 99.4608C550.912 99.2281 550.274 99.116 549.528 99.2195C548.783 99.3229 548.208 99.5987 548.235 99.8315C548.271 100.064 548.9 100.176 549.654 100.073C550.4 99.9694 550.975 99.6935 550.948 99.4608Z" fill="#CA7E86"/>
<path d="M569.931 99.4608C569.967 99.2281 570.595 99.116 571.35 99.2195C572.096 99.3229 572.671 99.5987 572.644 99.8315C572.608 100.064 571.979 100.176 571.224 100.073C570.479 99.9694 569.904 99.6935 569.931 99.4608Z" fill="#CA7E86"/>
<path d="M569.796 98.0385C569.832 98.2712 570.461 98.3833 571.215 98.2798C571.961 98.1764 572.536 97.9006 572.509 97.6678C572.473 97.4351 571.844 97.323 571.089 97.4265C570.344 97.5299 569.769 97.8058 569.796 98.0385Z" fill="#CA7E86"/>
<path d="M560.893 101.65C560.893 101.65 560.956 101.65 560.983 101.65C561.369 101.616 562.276 101.305 562.375 99.0729C562.528 95.4181 561.917 93.4011 561.89 93.3149C561.854 93.1856 561.71 93.108 561.567 93.1511C561.432 93.1942 561.351 93.3235 561.396 93.4614C561.396 93.4787 562.016 95.4957 561.863 99.0556C561.8 100.555 561.342 101.133 560.938 101.167C560.345 101.228 559.456 100.254 559.078 98.5988C559.051 98.4695 558.907 98.3833 558.773 98.4092C558.638 98.435 558.548 98.5729 558.575 98.7022C558.97 100.435 559.932 101.659 560.893 101.659V101.65Z" fill="#CA7E86"/>
<path d="M560.641 105.348C556.724 105.348 554.379 102.469 554.281 102.348C554.191 102.236 554.218 102.09 554.326 102.004C554.433 101.917 554.595 101.943 554.685 102.047C554.712 102.073 556.985 104.857 560.641 104.857C564.298 104.857 566.031 102.098 566.049 102.073C566.121 101.952 566.283 101.917 566.4 101.986C566.526 102.055 566.561 102.21 566.49 102.322C566.409 102.443 564.567 105.348 560.641 105.348Z" fill="#CA7E86"/>
<path d="M568.915 87.6C568.08 87.2122 567.065 87.2122 565.915 87.6087C565.51 87.7466 565.07 87.5483 564.927 87.1604C564.783 86.7725 564.989 86.3502 565.394 86.2123C566.957 85.6778 568.367 85.6951 569.598 86.2726C571.53 87.1777 572.185 90.0222 571.781 90.1515C571.7 90.1773 570.254 88.2207 568.915 87.6Z" fill="#434244"/>
<path d="M549.214 90.1858C549.133 90.1858 549.214 87.1689 551.145 86.2724C552.376 85.7035 553.786 85.6777 555.35 86.2121C555.754 86.35 555.96 86.7724 555.817 87.1603C555.673 87.5481 555.233 87.7464 554.829 87.6085C553.67 87.212 552.654 87.212 551.819 87.6085C550.48 88.2291 549.537 90.1944 549.214 90.1944V90.1858Z" fill="#434244"/>
<path d="M554.299 90.7375L551.801 90.8238C551.801 90.8238 552.188 91.5564 553.661 91.7116C553.49 92.3322 553.382 93.1942 553.382 94.151C553.382 96.0387 553.796 97.5644 554.308 97.5644C554.82 97.5644 555.233 96.0387 555.233 94.151C555.233 92.2632 554.82 90.7375 554.308 90.7375H554.299Z" fill="#302E2F"/>
<path d="M569.167 90.8238L566.669 90.7375C566.157 90.7375 565.744 92.2632 565.744 94.151C565.744 96.0387 566.157 97.5644 566.669 97.5644C567.182 97.5644 567.595 96.0387 567.595 94.151C567.595 93.1942 567.487 92.3322 567.316 91.7116C568.79 91.5564 569.176 90.8238 569.176 90.8238H569.167Z" fill="#302E2F"/>
<path d="M564.441 76.9115C564.441 76.9115 559.752 81.1869 550.247 83.316C542.063 85.2037 543.976 94.944 543.976 94.944C543.976 94.944 536.421 89.4877 539.071 79.0234C542.278 67.0592 558.575 60.603 567.199 68.8607C567.199 68.8607 572.518 68.2056 574.683 74.248C581.061 89.1774 573.299 94.944 573.299 94.944C573.299 94.944 573.371 85.5571 571.907 83.747C568.771 79.8853 564.729 79.8422 564.45 76.9029L564.441 76.9115Z" fill="#434244"/>
<path d="M525.455 302.055C516.372 299.891 507.478 298.504 498.818 298.064C497.111 297.978 494.29 281.609 494.29 281.609C494.29 281.609 491.236 297.917 489.996 297.952C481.264 298.193 472.792 299.495 464.635 302.046L492.008 230.925L525.455 302.046V302.055Z" fill="#D0D1D3"/>
<path d="M518.789 228.261L526.039 361.669C526.039 361.669 526.874 366.987 527.315 368.082C529.435 371.228 532.983 378.856 532.866 381.554C532.786 384.433 514.629 387.476 513.902 382.597C513.282 377.339 517.361 369.995 517.576 368.306C517.792 366.616 496.312 252.965 496.312 252.965V252.905L494.281 229.865L518.78 228.278L518.789 228.261Z" fill="#E5B7AC"/>
<path d="M510.479 364.065L494.946 258.413V229.856L518.78 228.253L529.425 362.755C529.425 362.755 526.164 365.565 520.792 366.47C516.615 367.177 510.47 364.065 510.47 364.065H510.479Z" fill="#466992"/>
<path d="M471.588 228.373C471.588 228.373 461.706 366.978 461.256 368.073C459.136 371.219 455.588 378.848 455.704 381.546C455.785 384.425 473.942 387.467 474.669 382.589C475.289 377.331 471.21 369.987 470.995 368.297C470.779 366.608 492.259 252.957 492.259 252.957V252.896L494.29 229.856L471.588 228.391V228.373Z" fill="#E5B7AC"/>
<path d="M493.625 229.856L494.281 258.413L478.092 364.065C472.325 366.573 464.212 366.047 459.235 361.694L470.708 225.296L493.625 229.856Z" fill="#466992"/>
<path d="M518.788 216.883L521.259 257.465L467.743 258.361L471.597 216.883H518.788Z" fill="#466992"/>
<path d="M494.497 257.827L496.239 229.304" stroke="#385875" stroke-miterlimit="10" stroke-linecap="round"/>
<path d="M492.134 228.744C492.134 228.744 490.795 245.337 495.368 245.337" stroke="#385875" stroke-miterlimit="10" stroke-linecap="round"/>
<path d="M494.29 228.244C476.556 228.244 470.977 224.253 470.977 224.253L471.66 216.883H515.276L515.788 225.305C515.788 225.305 512.033 228.253 494.29 228.253V228.244Z" fill="#7C5C50"/>
<path d="M490.355 229.304H500.102V222.564H490.355V229.304Z" fill="#A6A8AA"/>
<path d="M468.587 215.746C468.749 215.901 469.593 220.004 469.98 220.193C473.403 221.96 483.635 224.202 494.299 224.202C505.223 224.202 508.906 224.624 517.468 220.874C517.836 220.711 519.247 217.168 519.687 216.444C519.687 216.444 517.028 196.213 519.615 182.879L520.666 180.051L530.135 154.589C530.135 154.589 512.662 138.099 494.586 136.005C476.807 139.039 458.436 154.485 458.436 154.485L469.557 182.887C472.145 196.222 468.578 215.746 468.578 215.746H468.587Z" fill="#A9D0DC"/>
<path d="M495.566 224.193H496.41V181.293H495.566V224.193Z" fill="#5E9AA8"/>
<path d="M483.213 139.797C483.213 139.797 486.367 145.96 495.306 146.279C504.253 146.607 507.353 139.616 507.353 139.616L507.236 137.142L506.805 128.299L495.737 129.574L484.193 127.997L483.878 131.781L483.222 139.797H483.213Z" fill="#E5B7AC"/>
<path opacity="0.5" d="M483.869 131.781C486.663 135.832 494.29 143.805 507.146 135.306L506.805 128.299L495.737 129.574L484.193 127.997L483.878 131.781H483.869Z" fill="#CA7E86"/>
<path d="M498.692 147.064C496.365 146.098 494.039 146.038 491.712 146.874L495.18 154.77C496.914 152.399 498.045 149.822 498.692 147.064Z" fill="#335385"/>
<path d="M489.538 207.333L495.188 214.944L501.441 207.514L496.707 152.365L494.056 152.192L489.538 207.333Z" fill="#335385"/>
<path d="M510.102 139.59L507.182 136.005L495.305 146.279L483.393 135.789L480.267 139.59L487.319 154.063L495.305 146.279L502.933 154.063L510.102 139.59Z" fill="#CEEBF7"/>
<path d="M508.61 137.47C509.814 138.237 510.964 138.996 512.06 139.745C523.945 147.814 530.135 154.597 530.135 154.597L520.666 180.06L519.615 182.887C517.028 196.222 534.762 301.477 534.762 301.477C534.313 302.193 519.975 310.933 509.994 310.916C509.994 310.916 501.791 224.77 501.756 206.807C501.729 196.325 501.962 187.257 502.366 179.465C503.193 151.649 508.619 137.47 508.619 137.47H508.61Z" fill="white"/>
<path d="M488.756 178.457C489.16 186.249 489.394 195.317 489.367 205.798C489.331 223.762 477.275 310.916 477.275 310.916C467.294 310.933 454.591 300.348 454.133 299.624C454.133 299.624 474.086 195.205 471.498 181.879L470.447 179.051L458.436 154.494C458.436 154.494 467.159 146.805 479.045 138.737C480.15 137.996 481.3 137.229 482.495 136.461C482.495 136.461 487.49 153.391 488.747 178.457H488.756Z" fill="white"/>
<path d="M514.926 154.77L510.102 148.641L517.145 149.943L512.069 139.745C510.964 139.004 509.814 138.237 508.619 137.47C508.619 137.47 503.014 152.201 502.367 179.465L514.935 154.778L514.926 154.77Z" fill="#E6E6E7"/>
<path d="M476.188 153.761L481.013 147.633L473.969 148.934L479.045 138.737C480.15 137.996 481.3 137.229 482.495 136.461C482.495 136.461 488.182 149.934 488.748 178.457L476.179 153.77L476.188 153.761Z" fill="#E6E6E7"/>
<g style="mix-blend-mode:multiply" opacity="0.4">
<path d="M501.989 209.755C501.926 209.755 501.863 209.755 501.809 209.755C501.773 208.634 501.755 207.643 501.755 206.807C501.737 201.807 501.791 197.144 501.881 192.774C506.831 192.403 511.763 191.817 516.686 191.188C516.893 191.179 517.342 191.145 518.133 191.085C518.582 191.05 519.031 191.016 519.489 190.981C519.696 195.093 520.172 200.351 520.819 206.316C520.657 206.419 520.496 206.531 520.334 206.626C517.72 208.117 503.121 209.738 501.998 209.755H501.989Z" fill="#BBBCBF"/>
</g>
<g style="mix-blend-mode:multiply" opacity="0.4">
<path d="M489.25 209.462C488.729 209.427 488.208 209.401 487.687 209.358C487.57 209.35 487.301 209.324 486.986 209.298C486.384 209.203 485.243 209.048 484.956 208.996C480.284 208.16 475.712 206.962 471.184 205.617C470.771 205.497 470.357 205.393 469.953 205.298C470.645 199.877 471.175 195.041 471.471 191.119C475.101 191.921 478.838 192.395 482.548 192.757C484.785 192.972 487.031 193.101 489.268 193.153C489.349 197.127 489.385 201.325 489.367 205.807C489.367 206.815 489.322 208.057 489.25 209.479V209.462Z" fill="#BBBCBF"/>
</g>
<path d="M510.101 116.74C510.101 116.74 513.147 109.904 517.782 111.559C522.418 113.223 517.225 124.575 510.101 122.118V116.74Z" fill="#E5B7AC"/>
<path d="M516.327 114.697C513.012 114.654 511.116 117.515 511.035 117.636C510.955 117.757 510.991 117.921 511.125 117.998C511.17 118.024 511.224 118.041 511.269 118.041C511.359 118.041 511.449 117.998 511.503 117.912C511.512 117.895 512.221 116.826 513.488 116.041C514.629 116.757 514.045 118.61 514.036 118.627C513.991 118.765 514.072 118.92 514.216 118.964C514.243 118.972 514.27 118.981 514.297 118.981C514.413 118.981 514.521 118.912 514.557 118.8C514.584 118.705 515.204 116.757 514 115.766C514.638 115.455 515.384 115.231 516.228 115.231C516.255 115.231 516.282 115.231 516.318 115.231C516.453 115.257 516.596 115.119 516.596 114.973C516.596 114.826 516.48 114.705 516.327 114.705V114.697Z" fill="#CA7E86"/>
<path d="M481.165 116.74V122.118C476.43 123.756 472.54 119.274 471.83 115.61C471.48 113.766 471.929 112.128 473.483 111.559C476.762 110.387 479.233 113.447 480.401 115.352C480.895 116.145 481.165 116.74 481.165 116.74Z" fill="#E5B7AC"/>
<path d="M474.93 114.697C478.245 114.654 480.14 117.515 480.221 117.636C480.302 117.757 480.266 117.92 480.131 117.998C480.086 118.024 480.032 118.041 479.988 118.041C479.898 118.041 479.808 117.998 479.754 117.912C479.745 117.895 479.035 116.826 477.769 116.041C476.628 116.757 477.212 118.61 477.221 118.627C477.265 118.765 477.185 118.92 477.041 118.963C477.014 118.972 476.987 118.981 476.96 118.981C476.843 118.981 476.735 118.912 476.699 118.8C476.673 118.705 476.053 116.757 477.256 115.765C476.619 115.455 475.873 115.231 475.028 115.231C475.002 115.231 474.975 115.231 474.939 115.231C474.804 115.257 474.66 115.119 474.66 114.972C474.66 114.826 474.777 114.705 474.93 114.705V114.697Z" fill="#CA7E86"/>
<path d="M511.557 113.524C511.557 118.636 510.353 123.359 508.35 127.152C506.517 130.609 504.002 134.229 501.1 135.737C500.192 136.203 497.767 136.444 495.449 136.461C493.365 136.479 491.352 136.306 490.598 135.953C487.642 134.548 485.073 131.005 483.177 127.609C481.012 123.739 479.718 118.851 479.718 113.533C479.718 109.447 478.38 104.525 479.718 101.215C482.467 94.4058 489.726 90.8976 495.638 90.8976C500.857 90.8976 508.089 93.6559 510.991 99.1725C512.976 102.948 511.557 108.447 511.557 113.533V113.524Z" fill="#E5B7AC"/>
<path d="M485.36 119.058C485.324 119.308 484.641 119.429 483.833 119.317C483.033 119.205 482.404 118.912 482.449 118.662C482.485 118.412 483.168 118.291 483.976 118.403C484.776 118.515 485.405 118.808 485.36 119.058Z" fill="#CA7E86"/>
<path d="M485.503 120.584C485.467 120.334 484.785 120.213 483.976 120.325C483.177 120.437 482.548 120.73 482.593 120.98C482.629 121.23 483.311 121.351 484.12 121.239C484.928 121.127 485.548 120.834 485.503 120.584Z" fill="#CA7E86"/>
<path d="M505.914 120.584C505.95 120.334 506.633 120.213 507.442 120.325C508.241 120.437 508.87 120.73 508.825 120.98C508.789 121.23 508.106 121.351 507.298 121.239C506.498 121.127 505.869 120.834 505.914 120.584Z" fill="#CA7E86"/>
<path d="M505.78 119.058C505.816 119.308 506.498 119.429 507.307 119.317C508.106 119.205 508.735 118.912 508.69 118.662C508.645 118.412 507.972 118.291 507.163 118.403C506.355 118.515 505.735 118.808 505.78 119.058Z" fill="#CA7E86"/>
<path d="M490.219 114.878C490.219 116.903 489.779 118.55 489.231 118.55C488.683 118.55 488.243 116.903 488.243 114.878C488.243 112.852 488.683 111.206 489.231 111.206C489.779 111.206 490.219 112.852 490.219 114.878Z" fill="#434244"/>
<path d="M503.048 114.878C503.048 116.903 502.608 118.55 502.059 118.55C501.511 118.55 501.071 116.903 501.071 114.878C501.071 112.852 501.511 111.206 502.059 111.206C502.608 111.206 503.048 112.852 503.048 114.878Z" fill="#434244"/>
<path d="M495.789 122.609C495.789 122.609 495.726 122.609 495.69 122.609C495.277 122.575 494.298 122.23 494.19 119.834C494.019 115.903 494.684 113.731 494.711 113.645C494.756 113.507 494.909 113.421 495.053 113.464C495.196 113.507 495.286 113.654 495.241 113.791C495.241 113.809 494.576 115.981 494.738 119.808C494.81 121.429 495.295 122.041 495.735 122.075C496.373 122.135 497.334 121.092 497.739 119.317C497.775 119.17 497.918 119.084 498.071 119.118C498.224 119.153 498.314 119.291 498.278 119.437C497.846 121.308 496.813 122.618 495.789 122.618V122.609Z" fill="#CA7E86"/>
<path d="M495.906 128.824C492.025 128.824 489.69 125.963 489.591 125.842C489.501 125.738 489.528 125.583 489.636 125.497C489.743 125.411 489.905 125.437 489.995 125.54C490.013 125.566 492.277 128.333 495.906 128.333C499.518 128.333 501.261 125.592 501.27 125.566C501.341 125.454 501.503 125.411 501.62 125.48C501.737 125.549 501.782 125.695 501.71 125.816C501.638 125.937 499.805 128.824 495.906 128.824Z" fill="#CA7E86"/>
<path d="M506.858 111.723C506.507 111.723 506.193 111.516 506.067 111.18C506.049 111.128 505.474 109.602 504.037 108.939C503.129 108.525 502.051 108.525 500.812 108.947C500.38 109.094 499.904 108.878 499.751 108.465C499.599 108.051 499.823 107.594 500.255 107.447C501.935 106.87 503.462 106.896 504.782 107.508C506.858 108.482 507.621 110.576 507.648 110.671C507.792 111.085 507.558 111.542 507.127 111.68C507.037 111.706 506.947 111.723 506.867 111.723H506.858Z" fill="#704D3F"/>
<path d="M484.65 111.723C484.56 111.723 484.47 111.706 484.389 111.68C483.958 111.542 483.724 111.085 483.868 110.671C483.895 110.585 484.659 108.482 486.734 107.508C488.055 106.896 489.573 106.87 491.262 107.447C491.693 107.594 491.918 108.051 491.765 108.465C491.612 108.878 491.136 109.094 490.705 108.947C489.456 108.525 488.369 108.516 487.462 108.947C486.024 109.62 485.449 111.171 485.44 111.18C485.323 111.516 485 111.723 484.65 111.723Z" fill="#704D3F"/>
<path d="M506.472 125.152C506.472 125.152 504.828 123.601 503.938 123.265C502.321 122.644 488.819 122.799 487.588 123.265C486.698 123.601 485.054 125.152 485.054 125.152C482.413 125.17 479.727 113.533 479.727 113.533C479.727 118.851 481.021 123.739 483.186 127.609C485.081 131.005 487.651 134.548 490.606 135.953C491.289 136.28 493.023 136.444 494.901 136.461C495.08 136.461 495.26 136.461 495.458 136.461C497.515 136.453 500.237 136.28 500.92 135.953C503.875 134.548 506.445 131.005 508.34 127.609C510.505 123.739 511.799 118.851 511.799 113.533C511.799 113.533 509.104 125.17 506.472 125.152ZM495.763 130.522C495.763 130.522 494.38 134.479 493.679 134.324C489.564 133.436 486.707 130.221 486.707 127.618C486.707 124.566 490.696 123.971 495.961 123.971C501.225 123.971 505.097 124.583 505.097 127.643C505.097 130.238 502.249 133.427 498.162 134.324C497.443 134.479 495.772 130.531 495.772 130.531L495.763 130.522Z" fill="#704D3F"/>
<path d="M504.594 87.7859C504.594 87.7859 518.905 84.5708 511.799 114.016C511.691 114.447 511.565 113.524 511.565 113.524C511.565 113.524 511.394 104.534 509.193 101.784C506.992 99.0346 503.309 96.9056 503.309 94.5524C503.309 92.1992 504.603 87.7945 504.603 87.7945L504.594 87.7859Z" fill="#704D3F"/>
<path d="M480.104 104.999C480.104 104.999 495.592 106.241 504.594 97.1555L508.053 94.5437C508.053 94.5437 503.848 81.4504 494.901 84.1225C486.743 86.5619 477.265 87.2514 476.448 97.2934C475.514 108.697 479.862 116.472 479.862 116.472L480.113 104.999H480.104Z" fill="#704D3F"/>
<path d="M487.813 180.353C487.813 180.353 479 180.215 477.149 180.672C474.355 181.525 470.806 184.861 470.205 185.335C469.1 186.576 468.013 190.136 468.183 191.119C467.986 192.576 468.704 194.162 470.061 192.567C471.462 189.99 472.675 186.99 472.675 186.99L475.819 184.585C475.819 184.585 473.807 186.473 473.205 187.266C472.603 188.068 471.39 194.929 471.92 195.739C472.459 196.558 474.31 195.679 474.526 194.024C474.526 194.024 474.49 195.653 475.02 195.989C475.559 196.325 476.197 196.006 476.745 193.852C476.745 193.852 477.239 195.119 477.94 195.101C479.395 194.86 479.799 190.309 480.078 190.007C480.356 189.705 484.911 191.205 487.283 186.12C490.032 181.784 487.795 180.353 487.795 180.353H487.813Z" fill="#E5B7AC"/>
<path d="M474.526 194.024C474.508 193.102 474.633 192.205 474.768 191.309C474.948 190.429 475.128 189.542 475.541 188.74C475.244 190.498 475.011 192.257 474.526 194.024Z" fill="#AA7168"/>
<path d="M476.754 193.843C476.736 193.084 476.871 192.36 477.024 191.636C477.212 190.93 477.401 190.205 477.796 189.585C477.518 191.024 477.248 192.438 476.754 193.852V193.843Z" fill="#AA7168"/>
<path d="M471.471 203.092C471.714 203.057 471.956 203.006 472.208 202.954C479.458 201.463 511.719 190.352 511.719 190.352L511.611 188.619L511.377 184.922L506.634 184.189C506.634 184.189 495.799 185.094 480.06 188.111C478.919 188.231 477.814 188.387 476.736 188.568C469.432 189.826 463.817 192.464 461.14 195.196C460.197 196.153 459.622 197.11 459.451 198.023C458.75 201.902 464.446 204.316 471.471 203.092Z" fill="#E5B7AC"/>
<path d="M535.184 167.156C534.052 180.939 532.471 186.206 525.194 200.584C522.058 201.842 516.336 199.903 513.865 194.153C515.303 186.826 516.417 177.664 518.672 169.94C523.056 158.364 530.144 154.589 530.144 154.589C530.144 154.589 534.995 159.873 535.193 167.156H535.184Z" fill="#E5B7AC"/>
<path d="M482.297 180.327H487.983C487.983 180.327 496.239 182.439 509.652 187.033C519.651 189.43 525.94 194.834 525.805 198.661C525.67 202.575 519.849 204.307 513.704 202.135C507.604 199.98 481.209 185.206 481.209 185.206L482.297 180.336V180.327Z" fill="#E5B7AC"/>
<path d="M530.935 205.238C531.995 204.557 534.448 180.517 535.562 166.768C535.364 159.502 530.135 154.589 530.135 154.589C530.135 154.589 523.065 157.899 518.69 169.441C516.956 175.379 515.483 182.034 514.423 188.18" fill="white"/>
<g style="mix-blend-mode:multiply" opacity="0.4">
<path d="M521.26 161.493C521.26 161.493 518.205 186.611 520.846 189.585C523.496 192.55 523.02 195.067 523.02 195.067L514.423 187.49L521.26 161.493Z" fill="#D0D1D3"/>
</g>
<path d="M504.19 188.835C504.19 188.835 507.182 179.991 508.323 178.276C510.219 175.759 515.124 173.483 515.851 173.069C517.576 172.457 521.763 172.785 522.76 173.345C524.359 173.716 525.805 175.043 523.703 175.759C520.514 176.155 516.867 176.207 516.867 176.207L512.725 178.724C512.725 178.724 515.923 177.138 516.992 176.853C518.061 176.569 525.76 177.965 526.443 178.793C527.126 179.62 525.635 181.112 523.829 180.715C523.829 180.715 525.545 181.275 525.733 181.922C525.913 182.568 525.374 183.085 522.94 182.844C522.94 182.844 524.116 183.792 523.883 184.473C523.173 185.818 518.43 184.732 518.016 184.904C517.594 185.077 517.504 190.033 511.126 190.654C505.277 191.955 504.19 188.835 504.19 188.835Z" fill="#E5B7AC"/>
<path opacity="0.5" d="M516.525 183.939C516.875 183.999 520.864 185.077 523.874 184.482C523.128 185.887 518.393 184.749 518.007 184.913C517.235 185.421 517.872 189.602 511.71 190.36C509.535 190.878 504.936 188.24 503.912 187.93C512.752 187.99 514.854 189.429 516.525 183.947V183.939Z" fill="#CA7E86"/>
<path opacity="0.5" d="M523.936 180.603C523.02 180.284 522.076 180.103 521.142 179.922C520.199 179.784 519.238 179.637 518.303 179.724C520.19 180.051 522.031 180.439 523.945 180.603H523.936Z" fill="#CA7E86"/>
<path opacity="0.5" d="M522.85 182.689C522.086 182.43 521.313 182.31 520.532 182.198C519.759 182.129 518.96 182.06 518.205 182.198C519.768 182.43 521.286 182.655 522.85 182.698V182.689Z" fill="#CA7E86"/>
<path d="M471.831 188.956C473.987 188.309 476.637 187.68 479.943 187.076C495.637 184.085 506.068 182.586 506.068 182.586C509.517 185.585 510.928 192.912 511.341 197.584C511.341 197.584 460.807 208.488 459.577 208.091" fill="white"/>
<path d="M452.031 167.113C452.175 181.336 458.337 207.695 459.577 208.091L472.577 188.74C472.568 188.654 472.559 188.568 472.55 188.481C471.912 182.31 470.609 175.724 469.271 169.777C468.893 168.57 468.471 167.449 468.04 166.406C464.186 157.313 458.454 154.477 458.454 154.477C458.454 154.477 452.803 159.588 452.031 167.105V167.113Z" fill="white"/>
<g style="mix-blend-mode:multiply" opacity="0.4">
<path d="M463.691 203.411C466.072 205.54 484.093 200.945 511.341 197.592C511.341 197.592 460.807 208.496 459.577 208.1C458.346 207.695 452.174 181.336 452.03 167.122C450.844 169.949 461.688 204.014 463.691 203.419V203.411Z" fill="#D0D1D3"/>
</g>
<path d="M530.935 205.238C522.508 208.902 478.452 187.361 478.452 187.361C479.152 182.896 481.524 180.948 484.893 179.905C484.893 179.905 490.328 179.784 506.697 185.387C509.706 186.421 516.66 188.654 519.139 190.714C521.619 192.774 530.935 205.23 530.935 205.23V205.238Z" fill="white"/>
<g style="mix-blend-mode:multiply" opacity="0.4">
<path d="M529.435 197.015C533.81 185.482 535.364 159.511 535.561 166.777C534.447 180.526 531.995 204.557 530.935 205.247C522.508 208.91 478.452 187.37 478.452 187.37C481.901 185.585 526.389 205.936 529.435 197.015Z" fill="#D0D1D3"/>
</g>
<g style="mix-blend-mode:multiply" opacity="0.4">
<path d="M462.667 196.437C462.254 196.17 469.729 188.852 472.567 188.749C471.93 182.577 470.6 175.733 469.261 169.785C468.884 168.578 468.462 167.458 468.031 166.415C468.3 174.974 471.4 187.076 469.773 187.619C463.853 189.585 462.667 196.437 462.667 196.437Z" fill="#D0D1D3"/>
</g>
</g>
<path d="M666 277C666 410.101 519.373 518 338.5 518C157.627 518 11 410.101 11 277C11 143.899 157.627 36 338.5 36C519.373 36 666 143.899 666 277ZM55.1105 277C55.1105 392.174 181.988 485.54 338.5 485.54C495.012 485.54 621.89 392.174 621.89 277C621.89 161.826 495.012 68.4599 338.5 68.4599C181.988 68.4599 55.1105 161.826 55.1105 277Z" fill="white" fill-opacity="0.04"/>
<path d="M611.546 277C611.546 387.97 489.299 477.929 338.5 477.929C187.701 477.929 65.4536 387.97 65.4536 277C65.4536 166.03 187.701 76.0713 338.5 76.0713C489.299 76.0713 611.546 166.03 611.546 277ZM106.314 277C106.314 371.364 210.267 447.86 338.5 447.86C466.733 447.86 570.686 371.364 570.686 277C570.686 182.636 466.733 106.14 338.5 106.14C210.267 106.14 106.314 182.636 106.314 277Z" fill="white" fill-opacity="0.04"/>
</g>
<defs>
<filter id="filter0_d_729_37" x="-4" y="0" width="682" height="305" filterUnits="userSpaceOnUse" color-interpolation-filters="sRGB">
<feFlood flood-opacity="0" result="BackgroundImageFix"/>
<feColorMatrix in="SourceAlpha" type="matrix" values="0 0 0 0 0 0 0 0 0 0 0 0 0 0 0 0 0 0 127 0" result="hardAlpha"/>
<feOffset dy="4"/>
<feGaussianBlur stdDeviation="2"/>
<feComposite in2="hardAlpha" operator="out"/>
<feColorMatrix type="matrix" values="0 0 0 0 0 0 0 0 0 0 0 0 0 0 0 0 0 0 0.25 0"/>
<feBlend mode="normal" in2="BackgroundImageFix" result="effect1_dropShadow_729_37"/>
<feBlend mode="normal" in="SourceGraphic" in2="effect1_dropShadow_729_37" result="shape"/>
</filter>
<linearGradient id="paint0_linear_729_37" x1="0" y1="0" x2="660.5" y2="297" gradientUnits="userSpaceOnUse">
<stop stop-color="#14467B"/>
<stop offset="0.491667" stop-color="#3AB6BB"/>
<stop offset="0.811667" stop-color="#36516D"/>
</linearGradient>
<clipPath id="clip0_729_37">
<rect width="674" height="297" fill="white"/>
</clipPath>
<clipPath id="clip1_729_37">
<rect width="387" height="377" fill="white" transform="translate(287 -19)"/>
</clipPath>
</defs>
</svg>
