<svg width="20" height="21" viewBox="0 0 20 21" fill="none" xmlns="http://www.w3.org/2000/svg">
<path d="M12.4545 1.54167C11.3149 1.54166 10.3963 1.54164 9.6738 1.63878C8.92371 1.73962 8.29215 1.95537 7.79055 2.45696C7.35311 2.89441 7.13208 3.43197 7.01605 4.06363C6.9033 4.67743 6.88174 5.42859 6.87672 6.32986C6.8748 6.67503 7.15306 6.95641 7.49823 6.95833C7.8434 6.96025 8.12478 6.68199 8.1267 6.33682C8.13177 5.42557 8.15544 4.77967 8.24548 4.28946C8.33224 3.81712 8.47156 3.54373 8.67444 3.34085C8.90507 3.11021 9.22888 2.95984 9.84036 2.87763C10.4698 2.793 11.3041 2.79167 12.5003 2.79167H13.3336C14.5298 2.79167 15.364 2.793 15.9935 2.87763C16.605 2.95984 16.9288 3.11021 17.1594 3.34085C17.3901 3.57148 17.5404 3.89529 17.6226 4.50677C17.7073 5.13623 17.7086 5.97049 17.7086 7.16667V13.8333C17.7086 15.0295 17.7073 15.8638 17.6226 16.4932C17.5404 17.1047 17.3901 17.4285 17.1594 17.6592C16.9288 17.8898 16.605 18.0402 15.9935 18.1224C15.364 18.207 14.5298 18.2083 13.3336 18.2083H12.5003C11.3041 18.2083 10.4698 18.207 9.84036 18.1224C9.22888 18.0402 8.90507 17.8898 8.67444 17.6592C8.47156 17.4563 8.33224 17.1829 8.24548 16.7106C8.15544 16.2203 8.13177 15.5744 8.1267 14.6632C8.12478 14.318 7.8434 14.0398 7.49823 14.0417C7.15306 14.0436 6.8748 14.325 6.87672 14.6702C6.88174 15.5714 6.9033 16.3226 7.01605 16.9364C7.13208 17.568 7.35311 18.1056 7.79055 18.543C8.29215 19.0446 8.92371 19.2604 9.6738 19.3612C10.3963 19.4584 11.3149 19.4584 12.4545 19.4583H13.3793C14.519 19.4584 15.4376 19.4584 16.1601 19.3612C16.9101 19.2604 17.5417 19.0446 18.0433 18.543C18.5449 18.0415 18.7606 17.4099 18.8615 16.6598C18.9586 15.9373 18.9586 15.0187 18.9586 13.8791V7.12095C18.9586 5.98129 18.9586 5.06269 18.8615 4.34021C18.7606 3.59012 18.5449 2.95856 18.0433 2.45696C17.5417 1.95537 16.9101 1.73962 16.1601 1.63878C15.4376 1.54164 14.519 1.54166 13.3793 1.54167H12.4545Z" fill="#858080"/>
<path d="M12.5001 9.87501C12.8453 9.87501 13.1251 10.1548 13.1251 10.5C13.1251 10.8452 12.8453 11.125 12.5001 11.125H3.35628L4.99016 12.5255C5.25224 12.7501 5.28259 13.1447 5.05795 13.4068C4.83331 13.6688 4.43875 13.6992 4.17667 13.4745L1.26 10.9745C1.12147 10.8558 1.04175 10.6825 1.04175 10.5C1.04175 10.3176 1.12147 10.1442 1.26 10.0255L4.17667 7.52547C4.43875 7.30083 4.83331 7.33118 5.05795 7.59326C5.28259 7.85534 5.25224 8.2499 4.99016 8.47454L3.35628 9.87501H12.5001Z" fill="#858080"/>
</svg>
