<svg width="24" height="25" viewBox="0 0 24 25" fill="none" xmlns="http://www.w3.org/2000/svg">
<path fill-rule="evenodd" clip-rule="evenodd" d="M16.75 4.5C16.75 6.01878 15.5188 7.25 14 7.25C12.4812 7.25 11.25 6.01878 11.25 4.5C11.25 2.98122 12.4812 1.75 14 1.75C15.5188 1.75 16.75 2.98122 16.75 4.5ZM14 5.75C14.6904 5.75 15.25 5.19036 15.25 4.5C15.25 3.80964 14.6904 3.25 14 3.25C13.3096 3.25 12.75 3.80964 12.75 4.5C12.75 5.19036 13.3096 5.75 14 5.75Z" fill="#A7A8AB"/>
<path fill-rule="evenodd" clip-rule="evenodd" d="M12 15.25C10.4812 15.25 9.25 14.0188 9.25 12.5C9.25 10.9812 10.4812 9.75 12 9.75C13.5188 9.75 14.75 10.9812 14.75 12.5C14.75 14.0188 13.5188 15.25 12 15.25ZM10.75 12.5C10.75 13.1904 11.3096 13.75 12 13.75C12.6904 13.75 13.25 13.1904 13.25 12.5C13.25 11.8096 12.6904 11.25 12 11.25C11.3096 11.25 10.75 11.8096 10.75 12.5Z" fill="#A7A8AB"/>
<path fill-rule="evenodd" clip-rule="evenodd" d="M10 23.25C8.48122 23.25 7.25 22.0188 7.25 20.5C7.25 18.9812 8.48122 17.75 10 17.75C11.5188 17.75 12.75 18.9812 12.75 20.5C12.75 22.0188 11.5188 23.25 10 23.25ZM8.75 20.5C8.75 21.1904 9.30964 21.75 10 21.75C10.6904 21.75 11.25 21.1904 11.25 20.5C11.25 19.8096 10.6904 19.25 10 19.25C9.30964 19.25 8.75 19.8096 8.75 20.5Z" fill="#A7A8AB"/>
<path d="M15.25 12.5C15.25 12.0858 15.5858 11.75 16 11.75H19C19.4142 11.75 19.75 12.0858 19.75 12.5C19.75 12.9142 19.4142 13.25 19 13.25H16C15.5858 13.25 15.25 12.9142 15.25 12.5Z" fill="#A7A8AB"/>
<path d="M14 19.75C13.5858 19.75 13.25 20.0858 13.25 20.5C13.25 20.9142 13.5858 21.25 14 21.25H19C19.4142 21.25 19.75 20.9142 19.75 20.5C19.75 20.0858 19.4142 19.75 19 19.75H14Z" fill="#A7A8AB"/>
<path d="M10.75 4.5C10.75 4.08579 10.4142 3.75 10 3.75H5C4.58579 3.75 4.25 4.08579 4.25 4.5C4.25 4.91421 4.58579 5.25 5 5.25H10C10.4142 5.25 10.75 4.91421 10.75 4.5Z" fill="#A7A8AB"/>
<path d="M5 11.75C4.58579 11.75 4.25 12.0858 4.25 12.5C4.25 12.9142 4.58579 13.25 5 13.25H8C8.41421 13.25 8.75 12.9142 8.75 12.5C8.75 12.0858 8.41421 11.75 8 11.75H5Z" fill="#A7A8AB"/>
<path d="M4.25 20.5C4.25 20.0858 4.58579 19.75 5 19.75H6C6.41421 19.75 6.75 20.0858 6.75 20.5C6.75 20.9142 6.41421 21.25 6 21.25H5C4.58579 21.25 4.25 20.9142 4.25 20.5Z" fill="#A7A8AB"/>
<path d="M19 3.75C19.4142 3.75 19.75 4.08579 19.75 4.5C19.75 4.91421 19.4142 5.25 19 5.25H18C17.5858 5.25 17.25 4.91421 17.25 4.5C17.25 4.08579 17.5858 3.75 18 3.75H19Z" fill="#A7A8AB"/>
</svg>
