<svg width="24" height="25" viewBox="0 0 24 25" fill="none" xmlns="http://www.w3.org/2000/svg">
<path fill-rule="evenodd" clip-rule="evenodd" d="M9.94358 3.75H14.0564C15.8942 3.74998 17.3498 3.74997 18.489 3.90314C19.6614 4.06076 20.6104 4.39288 21.3588 5.14124C22.0368 5.81932 22.374 6.66313 22.5484 7.69112C22.6758 8.44158 22.7222 9.32957 22.7395 10.3744C22.7464 10.4152 22.75 10.4572 22.75 10.5C22.75 10.5353 22.7476 10.57 22.7428 10.604C22.7464 10.8904 22.7482 11.1882 22.7491 11.4978C22.7503 11.912 22.4155 12.2488 22.0013 12.25C21.5871 12.2512 21.2503 11.9164 21.2491 11.5022C21.2488 11.4168 21.2485 11.3328 21.2481 11.25H2.75199C2.75009 11.6384 2.75 12.0541 2.75 12.5C2.75 14.4068 2.75159 15.7615 2.88976 16.7892C3.02502 17.7952 3.27869 18.3749 3.7019 18.7981C4.12511 19.2213 4.70476 19.475 5.71085 19.6102C6.73851 19.7484 8.09318 19.75 10 19.75H11.5C11.9142 19.75 12.25 20.0858 12.25 20.5C12.25 20.9142 11.9142 21.25 11.5 21.25H9.94359C8.10583 21.25 6.65019 21.25 5.51098 21.0969C4.33856 20.9392 3.38961 20.6071 2.64124 19.8588C1.89288 19.1104 1.56076 18.1614 1.40314 16.989C1.24997 15.8498 1.24998 14.3942 1.25 12.5564V12.4436C1.24999 11.7818 1.24999 11.1696 1.25714 10.6039C1.25243 10.5699 1.25 10.5352 1.25 10.5C1.25 10.4572 1.25359 10.4152 1.26049 10.3743C1.27564 9.46711 1.31267 8.68385 1.40314 8.01098C1.56076 6.83856 1.89288 5.88961 2.64124 5.14124C3.38961 4.39288 4.33856 4.06076 5.51098 3.90314C6.65019 3.74997 8.10582 3.74998 9.94358 3.75ZM2.77607 9.75H21.2238C21.1999 9.03519 21.1547 8.4438 21.0696 7.94205C20.9267 7.10017 20.6831 6.58692 20.2981 6.2019C19.8749 5.77869 19.2952 5.52502 18.2892 5.38976C17.2615 5.25159 15.9068 5.25 14 5.25H10C8.09318 5.25 6.73851 5.25159 5.71085 5.38976C4.70476 5.52502 4.12511 5.77869 3.7019 6.2019C3.27869 6.62511 3.02502 7.20476 2.88976 8.21085C2.82987 8.65634 2.79564 9.16327 2.77607 9.75ZM15.5 13.75C15.9142 13.75 16.25 14.0858 16.25 14.5V18.6893L16.9697 17.9697C17.2626 17.6768 17.7374 17.6768 18.0303 17.9697C18.3232 18.2626 18.3232 18.7374 18.0303 19.0303L16.0303 21.0303C15.7374 21.3232 15.2626 21.3232 14.9697 21.0303L12.9697 19.0303C12.6768 18.7374 12.6768 18.2626 12.9697 17.9697C13.2626 17.6768 13.7374 17.6768 14.0303 17.9697L14.75 18.6893V14.5C14.75 14.0858 15.0858 13.75 15.5 13.75ZM19.4697 13.9697C19.7626 13.6768 20.2374 13.6768 20.5303 13.9697L22.5303 15.9697C22.8232 16.2626 22.8232 16.7374 22.5303 17.0303C22.2374 17.3232 21.7626 17.3232 21.4697 17.0303L20.75 16.3107V20.5C20.75 20.9142 20.4142 21.25 20 21.25C19.5858 21.25 19.25 20.9142 19.25 20.5V16.3107L18.5303 17.0303C18.2374 17.3232 17.7626 17.3232 17.4697 17.0303C17.1768 16.7374 17.1768 16.2626 17.4697 15.9697L19.4697 13.9697ZM5.25 16.5C5.25 16.0858 5.58579 15.75 6 15.75H10C10.4142 15.75 10.75 16.0858 10.75 16.5C10.75 16.9142 10.4142 17.25 10 17.25H6C5.58579 17.25 5.25 16.9142 5.25 16.5Z" fill="#A7A8AB"/>
</svg>
