<svg width="24" height="25" viewBox="0 0 24 25" fill="none" xmlns="http://www.w3.org/2000/svg">
<path d="M7.75 9.5C7.75 9.08579 7.41421 8.75 7 8.75C6.58579 8.75 6.25 9.08579 6.25 9.5V18.5C6.25 18.9142 6.58579 19.25 7 19.25C7.41421 19.25 7.75 18.9142 7.75 18.5V9.5Z" fill="#A7A8AB"/>
<path d="M12 5.75C12.4142 5.75 12.75 6.08579 12.75 6.5V18.5C12.75 18.9142 12.4142 19.25 12 19.25C11.5858 19.25 11.25 18.9142 11.25 18.5V6.5C11.25 6.08579 11.5858 5.75 12 5.75Z" fill="#A7A8AB"/>
<path d="M17.75 13.5C17.75 13.0858 17.4142 12.75 17 12.75C16.5858 12.75 16.25 13.0858 16.25 13.5V18.5C16.25 18.9142 16.5858 19.25 17 19.25C17.4142 19.25 17.75 18.9142 17.75 18.5V13.5Z" fill="#A7A8AB"/>
<path fill-rule="evenodd" clip-rule="evenodd" d="M11.9426 1.75C9.63423 1.74999 7.82519 1.74998 6.41371 1.93975C4.96897 2.13399 3.82895 2.53933 2.93414 3.43414C2.03933 4.32895 1.63399 5.46897 1.43975 6.91371C1.24998 8.32519 1.24999 10.1342 1.25 12.4426V12.5574C1.24999 14.8658 1.24998 16.6748 1.43975 18.0863C1.63399 19.531 2.03933 20.6711 2.93414 21.5659C3.82895 22.4607 4.96897 22.866 6.41371 23.0603C7.82519 23.25 9.63423 23.25 11.9426 23.25H12.0574C14.3658 23.25 16.1748 23.25 17.5863 23.0603C19.031 22.866 20.1711 22.4607 21.0659 21.5659C21.9607 20.6711 22.366 19.531 22.5603 18.0863C22.75 16.6748 22.75 14.8658 22.75 12.5574V12.4426C22.75 10.1342 22.75 8.32519 22.5603 6.91371C22.366 5.46897 21.9607 4.32895 21.0659 3.43414C20.1711 2.53933 19.031 2.13399 17.5863 1.93975C16.1748 1.74998 14.3658 1.74999 12.0574 1.75H11.9426ZM3.9948 4.4948C4.56445 3.92514 5.33517 3.59825 6.61358 3.42637C7.91356 3.25159 9.62178 3.25 12 3.25C14.3782 3.25 16.0864 3.25159 17.3864 3.42637C18.6648 3.59825 19.4355 3.92514 20.0052 4.4948C20.5749 5.06445 20.9018 5.83517 21.0736 7.11358C21.2484 8.41356 21.25 10.1218 21.25 12.5C21.25 14.8782 21.2484 16.5864 21.0736 17.8864C20.9018 19.1648 20.5749 19.9355 20.0052 20.5052C19.4355 21.0749 18.6648 21.4018 17.3864 21.5736C16.0864 21.7484 14.3782 21.75 12 21.75C9.62178 21.75 7.91356 21.7484 6.61358 21.5736C5.33517 21.4018 4.56445 21.0749 3.9948 20.5052C3.42514 19.9355 3.09825 19.1648 2.92637 17.8864C2.75159 16.5864 2.75 14.8782 2.75 12.5C2.75 10.1218 2.75159 8.41356 2.92637 7.11358C3.09825 5.83517 3.42514 5.06445 3.9948 4.4948Z" fill="#A7A8AB"/>
</svg>
