<svg width="24" height="25" viewBox="0 0 24 25" fill="none" xmlns="http://www.w3.org/2000/svg">
<path fill-rule="evenodd" clip-rule="evenodd" d="M7 2.25C7.41421 2.25 7.75 2.58579 7.75 3V3.76272C8.41203 3.74999 9.1414 3.74999 9.94358 3.75H14.0564C14.8586 3.74999 15.588 3.74999 16.25 3.76272V3C16.25 2.58579 16.5858 2.25 17 2.25C17.4142 2.25 17.75 2.58579 17.75 3V3.82709C18.0099 3.84691 18.2561 3.87182 18.489 3.90313C19.6614 4.06076 20.6104 4.39288 21.3588 5.14124C22.1071 5.88961 22.4392 6.83855 22.5969 8.01098C22.6472 8.38567 22.681 8.79459 22.7037 9.24007C22.7337 9.32106 22.75 9.40861 22.75 9.5C22.75 9.56932 22.7406 9.63644 22.723 9.70016C22.75 10.5021 22.75 11.4128 22.75 12.4436V14.5564C22.75 16.3942 22.75 17.8498 22.5969 18.989C22.4392 20.1614 22.1071 21.1104 21.3588 21.8588C20.6104 22.6071 19.6614 22.9392 18.489 23.0969C17.3498 23.25 15.8942 23.25 14.0564 23.25H9.94359C8.10583 23.25 6.65019 23.25 5.51098 23.0969C4.33856 22.9392 3.38961 22.6071 2.64124 21.8588C1.89288 21.1104 1.56076 20.1614 1.40314 18.989C1.24997 17.8498 1.24998 16.3942 1.25 14.5564V12.4436C1.24999 11.4127 1.24998 10.5021 1.27701 9.70017C1.25941 9.63645 1.25 9.56932 1.25 9.5C1.25 9.40862 1.26634 9.32105 1.29627 9.24006C1.31895 8.79458 1.35276 8.38566 1.40314 8.01098C1.56076 6.83856 1.89288 5.88961 2.64124 5.14124C3.38961 4.39288 4.33856 4.06076 5.51098 3.90313C5.7439 3.87182 5.99006 3.84691 6.25 3.82709V3C6.25 2.58579 6.58579 2.25 7 2.25ZM2.76309 10.25C2.75032 10.9027 2.75 11.646 2.75 12.5V14.5C2.75 16.4068 2.75159 17.7615 2.88976 18.7892C3.02502 19.7952 3.27869 20.3749 3.7019 20.7981C4.12511 21.2213 4.70476 21.475 5.71085 21.6102C6.73851 21.7484 8.09318 21.75 10 21.75H14C15.9068 21.75 17.2615 21.7484 18.2892 21.6102C19.2952 21.475 19.8749 21.2213 20.2981 20.7981C20.7213 20.3749 20.975 19.7952 21.1102 18.7892C21.2484 17.7615 21.25 16.4068 21.25 14.5V12.5C21.25 11.646 21.2497 10.9027 21.2369 10.25H2.76309ZM21.1683 8.75H2.83168C2.8477 8.56061 2.86685 8.38123 2.88976 8.21085C3.02502 7.20476 3.27869 6.62511 3.7019 6.2019C4.12511 5.77869 4.70476 5.52502 5.71085 5.38976C6.73851 5.25159 8.09318 5.25 10 5.25H14C15.9068 5.25 17.2615 5.25159 18.2892 5.38976C19.2952 5.52502 19.8749 5.77869 20.2981 6.2019C20.7213 6.62511 20.975 7.20476 21.1102 8.21085C21.1331 8.38123 21.1523 8.56061 21.1683 8.75ZM16 13.75C16.4142 13.75 16.75 14.0858 16.75 14.5V15.75H18C18.4142 15.75 18.75 16.0858 18.75 16.5C18.75 16.9142 18.4142 17.25 18 17.25H16.75V18.5C16.75 18.9142 16.4142 19.25 16 19.25C15.5858 19.25 15.25 18.9142 15.25 18.5V17.25L14 17.25C13.5858 17.25 13.25 16.9142 13.25 16.5C13.25 16.0858 13.5858 15.75 14 15.75L15.25 15.75V14.5C15.25 14.0858 15.5858 13.75 16 13.75Z" fill="#A7A8AB"/>
</svg>
