<svg width="24" height="25" viewBox="0 0 24 25" fill="none" xmlns="http://www.w3.org/2000/svg">
<path d="M11.25 2.5C11.25 2.08579 11.5858 1.75 12 1.75C17.9371 1.75 22.75 6.56294 22.75 12.5C22.75 18.4371 17.9371 23.25 12 23.25C6.06294 23.25 1.25 18.4371 1.25 12.5C1.25 9.49296 2.48564 6.77316 4.47497 4.82299C4.77076 4.53302 5.24561 4.53774 5.53557 4.83353C5.82554 5.12932 5.82082 5.60417 5.52503 5.89414C3.81163 7.57382 2.75 9.91225 2.75 12.5C2.75 17.6086 6.89137 21.75 12 21.75C17.1086 21.75 21.25 17.6086 21.25 12.5C21.25 7.39137 17.1086 3.25 12 3.25C11.5858 3.25 11.25 2.91421 11.25 2.5Z" fill="#A7A8AB"/>
<path d="M11.25 5.5C11.25 5.08579 11.5858 4.75 12 4.75C16.2802 4.75 19.75 8.21979 19.75 12.5C19.75 16.7802 16.2802 20.25 12 20.25C7.71979 20.25 4.25 16.7802 4.25 12.5C4.25 12.0858 4.58579 11.75 5 11.75C5.41421 11.75 5.75 12.0858 5.75 12.5C5.75 15.9518 8.54822 18.75 12 18.75C15.4518 18.75 18.25 15.9518 18.25 12.5C18.25 9.04822 15.4518 6.25 12 6.25C11.5858 6.25 11.25 5.91421 11.25 5.5Z" fill="#A7A8AB"/>
<path d="M12 7.75C11.5858 7.75 11.25 8.08579 11.25 8.5C11.25 8.91421 11.5858 9.25 12 9.25C13.7949 9.25 15.25 10.7051 15.25 12.5C15.25 14.2949 13.7949 15.75 12 15.75C11.5858 15.75 11.25 16.0858 11.25 16.5C11.25 16.9142 11.5858 17.25 12 17.25C14.6234 17.25 16.75 15.1234 16.75 12.5C16.75 9.87665 14.6234 7.75 12 7.75Z" fill="#A7A8AB"/>
</svg>
