<svg width="13" height="8" viewBox="0 0 13 8" fill="none" xmlns="http://www.w3.org/2000/svg">
<path d="M12.1187 1.42578C12.142 1.44141 12.1615 1.45898 12.1771 1.47852C12.1927 1.49805 12.2083 1.51953 12.2239 1.54297C12.2317 1.55859 12.2434 1.57812 12.259 1.60156C12.2745 1.625 12.2901 1.64844 12.3057 1.67188C12.3135 1.70312 12.3213 1.73242 12.3291 1.75977C12.3369 1.78711 12.3447 1.81641 12.3525 1.84766C12.3603 1.87109 12.3661 1.89648 12.37 1.92383C12.3739 1.95117 12.3759 1.98047 12.3759 2.01172C12.3759 2.04297 12.3739 2.07422 12.37 2.10547C12.3661 2.13672 12.3603 2.16797 12.3525 2.19922C12.3447 2.22266 12.3369 2.24805 12.3291 2.27539C12.3213 2.30273 12.3135 2.32812 12.3057 2.35156L12.2239 2.49219C12.2083 2.51562 12.1927 2.53711 12.1771 2.55664C12.1615 2.57617 12.142 2.59766 12.1187 2.62109L6.97463 7.74219C6.95904 7.76562 6.93956 7.78516 6.91617 7.80078C6.89279 7.81641 6.86941 7.83203 6.84603 7.84766C6.82265 7.86328 6.79926 7.87891 6.77588 7.89453C6.7525 7.91016 6.72912 7.92188 6.70574 7.92969C6.68235 7.94531 6.65702 7.95703 6.62974 7.96484C6.60247 7.97266 6.57713 7.98047 6.55375 7.98828C6.52258 7.98828 6.4914 7.99023 6.46023 7.99414C6.42905 7.99805 6.40177 8 6.37839 8C6.33942 8 6.30629 7.99805 6.27901 7.99414C6.25174 7.99023 6.22251 7.98828 6.19133 7.98828C6.16016 7.98047 6.13288 7.97266 6.1095 7.96484C6.08611 7.95703 6.06273 7.94531 6.03935 7.92969C6.00817 7.92188 5.98089 7.91016 5.95751 7.89453C5.93413 7.87891 5.91075 7.86328 5.88737 7.84766C5.86399 7.83203 5.84255 7.81641 5.82307 7.80078C5.80358 7.78516 5.78605 7.76562 5.77046 7.74219L0.638116 2.59766C0.599147 2.56641 0.566022 2.52734 0.538743 2.48047C0.511464 2.43359 0.486134 2.38672 0.462752 2.33984C0.43937 2.29297 0.423782 2.24219 0.415988 2.1875C0.408194 2.13281 0.404297 2.07812 0.404297 2.02344V2.01172C0.404297 1.98047 0.406245 1.94922 0.410142 1.91797C0.414039 1.88672 0.419885 1.85547 0.427679 1.82422C0.427679 1.80078 0.433524 1.77539 0.445215 1.74805C0.456906 1.7207 0.466649 1.69141 0.474443 1.66016C0.482237 1.63672 0.491979 1.61328 0.50367 1.58984C0.515361 1.56641 0.529001 1.54688 0.544589 1.53125C0.560177 1.50781 0.575765 1.48633 0.591353 1.4668C0.606941 1.44727 0.622529 1.42578 0.638116 1.40234L1.24605 0.792969C1.26164 0.769531 1.27917 0.75 1.29866 0.734375C1.31814 0.71875 1.33958 0.703125 1.36296 0.6875C1.38634 0.671875 1.40972 0.658203 1.4331 0.646484C1.45649 0.634766 1.47987 0.625 1.50325 0.617188C1.52663 0.601562 1.55196 0.589844 1.57924 0.582031C1.60652 0.574219 1.63575 0.566406 1.66692 0.558594C1.6903 0.558594 1.71758 0.556641 1.74876 0.552734C1.77994 0.548828 1.81111 0.546875 1.84229 0.546875C1.87346 0.546875 1.90269 0.548828 1.92997 0.552734C1.95725 0.556641 1.98648 0.558594 2.01765 0.558594C2.04103 0.566406 2.06636 0.574219 2.09364 0.582031C2.12092 0.589844 2.14625 0.601562 2.16963 0.617188C2.19302 0.625 2.21835 0.634766 2.24563 0.646484C2.27291 0.658203 2.29434 0.671875 2.30993 0.6875C2.33331 0.703125 2.35474 0.71875 2.37423 0.734375C2.39371 0.75 2.41515 0.769531 2.43853 0.792969L6.39008 4.74219L10.3066 0.804688C10.3299 0.78125 10.3514 0.761719 10.3709 0.746094C10.3903 0.730469 10.4118 0.714844 10.4352 0.699219C10.4585 0.691406 10.4819 0.681641 10.5053 0.669922C10.5287 0.658203 10.5521 0.644531 10.5754 0.628906C10.6066 0.621094 10.6359 0.611328 10.6631 0.599609C10.6904 0.587891 10.7157 0.578125 10.7391 0.570312C10.7625 0.5625 10.7898 0.556641 10.821 0.552734C10.8521 0.548828 10.8833 0.546875 10.9145 0.546875C10.9457 0.546875 10.9768 0.548828 11.008 0.552734C11.0392 0.556641 11.0704 0.558594 11.1015 0.558594C11.1249 0.566406 11.1503 0.574219 11.1775 0.582031C11.2048 0.589844 11.2301 0.601562 11.2535 0.617188C11.2769 0.625 11.3003 0.634766 11.3237 0.646484C11.3471 0.658203 11.3704 0.671875 11.3938 0.6875C11.4172 0.703125 11.4386 0.720703 11.4581 0.740234C11.4776 0.759766 11.499 0.78125 11.5224 0.804688L12.1187 1.40234V1.42578Z" fill="#687276"/>
</svg>
