<svg width="22" height="23" viewBox="0 0 22 23" fill="none" xmlns="http://www.w3.org/2000/svg">
<path fill-rule="evenodd" clip-rule="evenodd" d="M11.25 2.33422C10.7896 2.25598 10.162 2.25005 9.02979 2.25005C7.11311 2.25005 5.75075 2.25163 4.71785 2.38987C3.70596 2.5253 3.12453 2.77933 2.7019 3.20195C2.27869 3.62516 2.02502 4.20481 1.88976 5.2109C1.75159 6.23856 1.75 7.59323 1.75 9.50005V13.5001C1.75 15.4069 1.75159 16.7615 1.88976 17.7892C2.02502 18.7953 2.27869 19.3749 2.7019 19.7981C3.12511 20.2214 3.70476 20.475 4.71085 20.6103C5.73851 20.7485 7.09318 20.7501 9 20.7501H13C14.9068 20.7501 16.2615 20.7485 17.2892 20.6103C18.2952 20.475 18.8749 20.2214 19.2981 19.7981C19.7213 19.3749 19.975 18.7953 20.1102 17.7892C20.2484 16.7615 20.25 15.4069 20.25 13.5001V13.0629C20.25 11.5269 20.2392 10.7988 20.0762 10.2501H16.9463C15.8135 10.2501 14.8877 10.2501 14.1569 10.1518C13.3929 10.0491 12.7306 9.82684 12.2019 9.29815C11.6732 8.76945 11.4509 8.10712 11.3482 7.34317C11.25 6.6123 11.25 5.68657 11.25 4.55374V2.33422ZM12.75 3.1095V4.50005C12.75 5.69976 12.7516 6.5241 12.8348 7.14329C12.9152 7.74091 13.059 8.03395 13.2626 8.23749C13.4661 8.44103 13.7591 8.58486 14.3568 8.66521C14.976 8.74846 15.8003 8.75005 17 8.75005H19.0195C18.723 8.4625 18.3432 8.11797 17.85 7.67407L13.8912 4.11117C13.4058 3.67433 13.0446 3.35187 12.75 3.1095ZM9.17546 0.750025C10.5601 0.749655 11.4546 0.749416 12.2779 1.06535C13.1012 1.38129 13.7632 1.97735 14.7873 2.89955C14.8226 2.93139 14.8584 2.96361 14.8947 2.99623L18.8534 6.55912C18.8956 6.59705 18.9372 6.6345 18.9783 6.67149C20.162 7.73614 20.9274 8.42458 21.3391 9.34902C21.7508 10.2734 21.7505 11.3029 21.75 12.8949C21.75 12.9502 21.75 13.0062 21.75 13.0629V13.5565C21.75 15.3942 21.75 16.8499 21.5969 17.9891C21.4392 19.1615 21.1071 20.1104 20.3588 20.8588C19.6104 21.6072 18.6614 21.9393 17.489 22.0969C16.3498 22.2501 14.8942 22.2501 13.0564 22.2501H8.94359C7.10583 22.2501 5.65019 22.2501 4.51098 22.0969C3.33856 21.9393 2.38961 21.6072 1.64124 20.8588C0.89288 20.1104 0.560763 19.1615 0.403135 17.9891C0.249972 16.8499 0.249984 15.3942 0.25 13.5565V9.44363C0.249984 7.60587 0.249972 6.15024 0.403135 5.01103C0.560763 3.83861 0.89288 2.88966 1.64124 2.14129C2.39019 1.39235 3.34232 1.06059 4.51887 0.903125C5.66283 0.750022 7.1257 0.750035 8.97352 0.75005L9.02979 0.750051C9.07895 0.750051 9.1275 0.750038 9.17546 0.750025Z" fill="#6B7280"/>
<path fill-rule="evenodd" clip-rule="evenodd" d="M8.01296 12.4529C7.72446 12.1824 7.27554 12.1824 6.98704 12.4529L4.98704 14.3279C4.68486 14.6112 4.66955 15.0858 4.95285 15.388C5.23615 15.6902 5.71077 15.7055 6.01296 15.4222L6.75 14.7312L6.75 18.0001C6.75 18.4143 7.08579 18.7501 7.5 18.7501C7.91421 18.7501 8.25 18.4143 8.25 18.0001L8.25 14.7312L8.98704 15.4222C9.28923 15.7055 9.76386 15.6902 10.0472 15.388C10.3305 15.0858 10.3151 14.6112 10.013 14.3279L8.01296 12.4529Z" fill="#6B7280"/>
</svg>
