<svg width="20" height="20" viewBox="0 0 20 20" fill="none" xmlns="http://www.w3.org/2000/svg">
<path fill-rule="evenodd" clip-rule="evenodd" d="M10.0002 1.52084C5.31725 1.52084 1.521 5.3171 1.521 10C1.521 14.6829 5.31725 18.4792 10.0002 18.4792C14.6831 18.4792 18.4793 14.6829 18.4793 10C18.4793 5.3171 14.6831 1.52084 10.0002 1.52084ZM0.145996 10C0.145996 4.5577 4.55786 0.145844 10.0002 0.145844C15.4425 0.145844 19.8543 4.5577 19.8543 10C19.8543 15.4423 15.4425 19.8542 10.0002 19.8542C4.55786 19.8542 0.145996 15.4423 0.145996 10ZM10.0002 5.64584C10.3799 5.64584 10.6877 5.95365 10.6877 6.33334V9.71524L12.778 11.8055C13.0464 12.074 13.0464 12.5093 12.778 12.7778C12.5095 13.0463 12.0742 13.0463 11.8057 12.7778L9.51403 10.4861C9.3851 10.3572 9.31266 10.1823 9.31266 10V6.33334C9.31266 5.95365 9.62047 5.64584 10.0002 5.64584Z" fill="#687276"/>
</svg>
