<svg width="20" height="20" viewBox="0 0 20 20" fill="none" xmlns="http://www.w3.org/2000/svg">
<path fill-rule="evenodd" clip-rule="evenodd" d="M2.896 6.80506C2.896 3.08157 6.124 0.145813 10.0002 0.145813C13.8763 0.145813 17.1043 3.08157 17.1043 6.80506C17.1043 10.2986 14.9383 14.4 11.4437 15.8934C10.5263 16.2855 9.47404 16.2855 8.55661 15.8934C5.06198 14.4 2.896 10.2986 2.896 6.80506ZM10.0002 1.52081C6.78867 1.52081 4.271 3.93234 4.271 6.80506C4.271 9.85604 6.20097 13.3915 9.09693 14.629C9.66925 14.8736 10.3311 14.8736 10.9034 14.629C13.7994 13.3915 15.7293 9.85604 15.7293 6.80506C15.7293 3.93234 13.2117 1.52081 10.0002 1.52081ZM10.0002 6.10415C9.36734 6.10415 8.85433 6.61715 8.85433 7.24998C8.85433 7.88281 9.36734 8.39581 10.0002 8.39581C10.633 8.39581 11.146 7.88281 11.146 7.24998C11.146 6.61715 10.633 6.10415 10.0002 6.10415ZM7.47933 7.24998C7.47933 5.85776 8.60794 4.72915 10.0002 4.72915C11.3924 4.72915 12.521 5.85776 12.521 7.24998C12.521 8.6422 11.3924 9.77081 10.0002 9.77081C8.60794 9.77081 7.47933 8.6422 7.47933 7.24998ZM2.29596 12.7469C2.55082 13.0283 2.52926 13.4631 2.2478 13.7179C1.72742 14.1891 1.521 14.6402 1.521 15.0416C1.521 15.7417 2.18467 16.6044 3.80048 17.3315C5.35175 18.0296 7.54305 18.4791 10.0002 18.4791C12.4573 18.4791 14.6486 18.0296 16.1998 17.3315C17.8157 16.6044 18.4793 15.7417 18.4793 15.0416C18.4793 14.6402 18.2729 14.1891 17.7525 13.7179C17.4711 13.4631 17.4495 13.0283 17.7044 12.7468C17.9592 12.4654 18.394 12.4438 18.6754 12.6987C19.3749 13.332 19.8543 14.126 19.8543 15.0416C19.8543 16.6198 18.466 17.8196 16.7641 18.5854C14.9977 19.3803 12.6057 19.8541 10.0002 19.8541C7.39466 19.8541 5.00263 19.3803 3.23622 18.5854C1.53435 17.8196 0.145996 16.6198 0.145996 15.0416C0.145996 14.126 0.625457 13.332 1.32488 12.6987C1.60633 12.4438 2.0411 12.4654 2.29596 12.7469Z" fill="#687276"/>
</svg>
