<svg width="16" height="19" viewBox="0 0 16 19" fill="none" xmlns="http://www.w3.org/2000/svg">
<path fill-rule="evenodd" clip-rule="evenodd" d="M7.99967 0.145813C5.59493 0.145813 3.64551 2.09524 3.64551 4.49998C3.64551 6.90472 5.59493 8.85415 7.99967 8.85415C10.4044 8.85415 12.3538 6.90472 12.3538 4.49998C12.3538 2.09524 10.4044 0.145813 7.99967 0.145813ZM5.02051 4.49998C5.02051 2.85463 6.35433 1.52081 7.99967 1.52081C9.64502 1.52081 10.9788 2.85463 10.9788 4.49998C10.9788 6.14533 9.64502 7.47915 7.99967 7.47915C6.35433 7.47915 5.02051 6.14533 5.02051 4.49998Z" fill="#687276"/>
<path fill-rule="evenodd" clip-rule="evenodd" d="M7.99967 10.2291C6.13028 10.2291 4.40406 10.6607 3.12131 11.3937C1.858 12.1156 0.895508 13.2176 0.895508 14.5833C0.895508 15.949 1.858 17.0511 3.12131 17.773C4.40406 18.506 6.13028 18.9375 7.99967 18.9375C9.86906 18.9375 11.5953 18.506 12.878 17.773C14.1413 17.0511 15.1038 15.949 15.1038 14.5833C15.1038 13.2176 14.1413 12.1156 12.878 11.3937C11.5953 10.6607 9.86906 10.2291 7.99967 10.2291ZM2.27051 14.5833C2.27051 13.924 2.74443 13.1927 3.8035 12.5875C4.84312 11.9934 6.32524 11.6041 7.99967 11.6041C9.67411 11.6041 11.1562 11.9934 12.1958 12.5875C13.2549 13.1927 13.7288 13.924 13.7288 14.5833C13.7288 15.2426 13.2549 15.9739 12.1958 16.5791C11.1562 17.1732 9.67411 17.5625 7.99967 17.5625C6.32524 17.5625 4.84312 17.1732 3.8035 16.5791C2.74443 15.9739 2.27051 15.2426 2.27051 14.5833Z" fill="#687276"/>
</svg>
