<svg width="20" height="18" viewBox="0 0 20 18" fill="none" xmlns="http://www.w3.org/2000/svg">
<path fill-rule="evenodd" clip-rule="evenodd" d="M8.11511 0.979187H11.8852C13.5698 0.979173 14.9042 0.979161 15.9484 1.11956C17.0232 1.26405 17.893 1.56849 18.579 2.25449C19.265 2.94049 19.5695 3.81036 19.714 4.88508C19.8544 5.92936 19.8543 7.2637 19.8543 8.94831V9.05173C19.8543 10.7363 19.8544 12.0707 19.714 13.115C19.5695 14.1897 19.265 15.0595 18.579 15.7455C17.893 16.4315 17.0232 16.736 15.9484 16.8805C14.9042 17.0209 13.5698 17.0209 11.8852 17.0209H8.11512C6.43051 17.0209 5.09617 17.0209 4.05189 16.8805C2.97717 16.736 2.1073 16.4315 1.4213 15.7455C0.735303 15.0595 0.430862 14.1897 0.28637 13.115C0.14597 12.0707 0.145982 10.7363 0.145996 9.05174V8.9483C0.145982 7.26369 0.14597 5.92936 0.28637 4.88508C0.430862 3.81036 0.735303 2.94049 1.4213 2.25449C2.1073 1.56849 2.97717 1.26405 4.05189 1.11956C5.09617 0.979161 6.4305 0.979173 8.11511 0.979187ZM4.23511 2.4823C3.31286 2.60629 2.78152 2.83882 2.39357 3.22677C2.00563 3.61471 1.7731 4.14605 1.64911 5.0683C1.52246 6.01032 1.521 7.2521 1.521 9.00002C1.521 10.7479 1.52246 11.9897 1.64911 12.9317C1.7731 13.854 2.00563 14.3853 2.39357 14.7733C2.78152 15.1612 3.31286 15.3937 4.23511 15.5177C5.17713 15.6444 6.41891 15.6459 8.16683 15.6459H11.8335C13.5814 15.6459 14.8232 15.6444 15.7652 15.5177C16.6875 15.3937 17.2188 15.1612 17.6068 14.7733C17.9947 14.3853 18.2272 13.854 18.3512 12.9317C18.4779 11.9897 18.4793 10.7479 18.4793 9.00002C18.4793 7.2521 18.4779 6.01032 18.3512 5.0683C18.2272 4.14605 17.9947 3.61471 17.6068 3.22677C17.2188 2.83882 16.6875 2.60629 15.7652 2.4823C14.8232 2.35565 13.5814 2.35419 11.8335 2.35419H8.16683C6.41891 2.35419 5.17713 2.35565 4.23511 2.4823ZM3.97201 4.89323C4.21509 4.60154 4.6486 4.56213 4.94029 4.8052L6.91928 6.45436C7.77449 7.16704 8.36825 7.66023 8.86953 7.98264C9.35478 8.29473 9.68385 8.39949 10.0002 8.39949C10.3165 8.39949 10.6455 8.29473 11.1308 7.98264C11.6321 7.66023 12.2258 7.16704 13.0811 6.45436L15.06 4.8052C15.3517 4.56213 15.7852 4.60154 16.0283 4.89323C16.2714 5.18492 16.232 5.61843 15.9403 5.86151L13.9268 7.53938C13.1143 8.21648 12.4558 8.76528 11.8746 9.1391C11.2691 9.5285 10.6795 9.77449 10.0002 9.77449C9.32084 9.77449 8.7312 9.5285 8.12574 9.1391C7.54452 8.76528 6.88598 8.21649 6.07349 7.53939L4.06004 5.86151C3.76835 5.61843 3.72894 5.18492 3.97201 4.89323Z" fill="#687276"/>
</svg>
