<svg width="19" height="18" viewBox="0 0 19 18" fill="none" xmlns="http://www.w3.org/2000/svg">
<path fill-rule="evenodd" clip-rule="evenodd" d="M3.2548 0.873181C4.37068 -0.236371 6.20803 -0.0388715 7.1424 1.20925L8.2983 2.75328C9.05858 3.76884 8.99149 5.18822 8.08903 6.08556L7.87015 6.30319C7.8606 6.33096 7.83741 6.41823 7.86314 6.58411C7.92109 6.95764 8.23302 7.75001 9.5425 9.05206C10.8515 10.3536 11.6495 10.6653 12.0283 10.7234C12.2 10.7497 12.2898 10.7251 12.3176 10.7155L12.6916 10.3436C13.4939 9.54585 14.7267 9.39674 15.72 9.93671L17.4713 10.8887C18.9709 11.704 19.3498 13.7424 18.1212 14.964L16.819 16.2588C16.4087 16.6667 15.857 17.0069 15.1836 17.0697C13.5254 17.2243 9.65865 17.027 5.59588 12.9873C1.80279 9.21575 1.0749 5.92676 0.982806 4.30625L1.6692 4.26724L0.982806 4.30625C0.936238 3.48683 1.32345 2.79356 1.816 2.30381L3.2548 0.873181ZM6.04167 2.03328C5.57726 1.41293 4.71168 1.36361 4.2243 1.84822L2.7855 3.27885C2.48307 3.57956 2.33756 3.91096 2.35559 4.22824C2.42876 5.51578 3.01662 8.48366 6.56538 12.0123C10.2884 15.7141 13.727 15.8245 15.056 15.7006C15.3275 15.6753 15.5976 15.5342 15.8495 15.2837L17.1517 13.989C17.681 13.4626 17.5642 12.5043 16.8146 12.0968L15.0633 11.1448C14.5797 10.8819 14.0131 10.9686 13.6611 11.3186L13.2436 11.7337L12.7589 11.2462C13.2436 11.7337 13.243 11.7344 13.2423 11.735L13.241 11.7364L13.2382 11.7391L13.2322 11.7448L13.2188 11.7573C13.2091 11.7661 13.1981 11.7757 13.1857 11.7861C13.1608 11.8067 13.1302 11.83 13.0936 11.8545C13.0202 11.9037 12.9233 11.9572 12.8015 12.0026C12.5532 12.0951 12.2258 12.1447 11.8199 12.0825C11.0253 11.9606 9.97274 11.4189 8.573 10.0271C7.17372 8.63576 6.62745 7.58807 6.5044 6.7949C6.44148 6.38932 6.49166 6.06179 6.58528 5.81332C6.63116 5.69155 6.68523 5.59473 6.73485 5.5215C6.75959 5.48497 6.78315 5.45444 6.80393 5.42964C6.81432 5.41723 6.82403 5.40625 6.83287 5.39665L6.84546 5.38328L6.85122 5.37736L6.85397 5.37459L6.8553 5.37325C6.85596 5.3726 6.85661 5.37194 7.34136 5.85946L6.85661 5.37194L7.11953 5.11052C7.51241 4.71987 7.56744 4.07137 7.19758 3.57731L6.04167 2.03328Z" fill="#687276"/>
</svg>
