<svg width="20" height="20" viewBox="0 0 20 20" fill="none" xmlns="http://www.w3.org/2000/svg">
<path fill-rule="evenodd" clip-rule="evenodd" d="M5.41683 0.604187C5.79653 0.604187 6.10433 0.911991 6.10433 1.29169V1.99085C6.71119 1.97917 7.37978 1.97918 8.11511 1.97919H11.8852C12.6205 1.97918 13.2891 1.97917 13.896 1.99085V1.29169C13.896 0.911991 14.2038 0.604187 14.5835 0.604187C14.9632 0.604187 15.271 0.911991 15.271 1.29169V2.04985C15.5093 2.06802 15.7349 2.09085 15.9484 2.11956C17.0232 2.26405 17.893 2.56849 18.579 3.25449C19.265 3.94049 19.5695 4.81036 19.714 5.88508C19.7601 6.22855 19.7911 6.60339 19.8119 7.01175C19.8393 7.08599 19.8543 7.16625 19.8543 7.25002C19.8543 7.31357 19.8457 7.37509 19.8296 7.43351C19.8543 8.16865 19.8543 9.00338 19.8543 9.94831V11.8851C19.8543 13.5697 19.8544 14.904 19.714 15.9483C19.5695 17.023 19.265 17.8929 18.579 18.5789C17.893 19.2649 17.0232 19.5693 15.9484 19.7138C14.9042 19.8542 13.5698 19.8542 11.8852 19.8542H8.11512C6.43051 19.8542 5.09617 19.8542 4.05189 19.7138C2.97717 19.5693 2.1073 19.2649 1.4213 18.5789C0.735303 17.8929 0.430862 17.023 0.28637 15.9483C0.14597 14.904 0.145982 13.5697 0.145996 11.8851V9.94831C0.145988 9.00337 0.145981 8.16865 0.170754 7.43351C0.154618 7.3751 0.145997 7.31357 0.145997 7.25002C0.145997 7.16625 0.160979 7.08598 0.188409 7.01174C0.209204 6.60339 0.240193 6.22855 0.28637 5.88508C0.430862 4.81036 0.735303 3.94049 1.4213 3.25449C2.1073 2.56849 2.97717 2.26405 4.05189 2.11956C4.26541 2.09085 4.49105 2.06802 4.72933 2.04985V1.29169C4.72933 0.911991 5.03713 0.604187 5.41683 0.604187ZM1.53299 7.93752C1.52129 8.53585 1.521 9.21717 1.521 10V11.8334C1.521 13.5813 1.52246 14.823 1.64911 15.7651C1.7731 16.6873 2.00563 17.2187 2.39357 17.6066C2.78152 17.9946 3.31286 18.2271 4.23511 18.3511C5.17713 18.4777 6.41891 18.4792 8.16683 18.4792H11.8335C13.5814 18.4792 14.8232 18.4777 15.7652 18.3511C16.6875 18.2271 17.2188 17.9946 17.6068 17.6066C17.9947 17.2187 18.2272 16.6873 18.3512 15.7651C18.4779 14.823 18.4793 13.5813 18.4793 11.8334V10C18.4793 9.21717 18.479 8.53585 18.4673 7.93752H1.53299ZM18.4045 6.56252H1.59587C1.61055 6.38891 1.62811 6.22448 1.64911 6.0683C1.7731 5.14605 2.00563 4.61471 2.39357 4.22676C2.78152 3.83882 3.31286 3.60629 4.23511 3.4823C5.17713 3.35565 6.41891 3.35419 8.16683 3.35419H11.8335C13.5814 3.35419 14.8232 3.35565 15.7652 3.4823C16.6875 3.60629 17.2188 3.83882 17.6068 4.22676C17.9947 4.61471 18.2272 5.14605 18.3512 6.0683C18.3722 6.22449 18.3898 6.38891 18.4045 6.56252Z" fill="#687276"/>
</svg>
