<svg width="136" height="51" viewBox="0 0 136 51" fill="none" xmlns="http://www.w3.org/2000/svg">
<path d="M33.7641 17.7282C33.551 17.0359 33.257 16.4162 32.882 15.8692C32.5155 15.3137 32.0724 14.8393 31.5525 14.4461C31.0411 14.053 30.4531 13.7581 29.7883 13.5615C29.1236 13.3564 28.3992 13.2538 27.6151 13.2538C26.2089 13.2538 24.9561 13.6085 23.8567 14.3179C22.7573 15.0273 21.8923 16.0701 21.2616 17.4462C20.6395 18.8137 20.3284 20.4804 20.3284 22.4463C20.3284 24.4292 20.6395 26.1087 21.2616 27.4848C21.8837 28.8609 22.7488 29.9079 23.8567 30.6259C24.9646 31.3353 26.2515 31.69 27.7174 31.69C29.0469 31.69 30.1974 31.4336 31.169 30.9207C32.1491 30.4079 32.9033 29.6814 33.4317 28.7412C33.9601 27.7925 34.2243 26.6814 34.2243 25.4078L35.2981 25.5745H28.1904V21.8565H38.8136V25.0104C38.8136 27.2583 38.3364 29.2028 37.3819 30.8438C36.4273 32.4849 35.1149 33.7499 33.4445 34.6388C31.7741 35.5191 29.8565 35.9593 27.6918 35.9593C25.2799 35.9593 23.1621 35.4165 21.3383 34.3311C19.523 33.237 18.104 31.6857 17.0813 29.6771C16.0671 27.66 15.5601 25.2668 15.5601 22.4975C15.5601 20.3778 15.8583 18.4847 16.4549 16.818C17.06 15.1513 17.9037 13.7367 18.9861 12.5743C20.0684 11.4033 21.3383 10.5144 22.7956 9.90759C24.253 9.29219 25.8382 8.9845 27.5512 8.9845C29 8.9845 30.3508 9.19818 31.6036 9.62553C32.8564 10.0443 33.9686 10.6426 34.9402 11.4204C35.9202 12.1982 36.7256 13.1213 37.3563 14.1897C37.9869 15.2581 38.4003 16.4376 38.5963 17.7282H33.7641Z" fill="black"/>
<path d="M43.3998 35.6003V9.34348H53.2177C55.229 9.34348 56.9164 9.71955 58.28 10.4717C59.6521 11.2238 60.6876 12.2581 61.3865 13.5743C62.0938 14.882 62.4475 16.3692 62.4475 18.0359C62.4475 19.7197 62.0938 21.2155 61.3865 22.5232C60.6791 23.8309 59.6351 24.8608 58.2545 25.613C56.8738 26.3566 55.1736 26.7284 53.1538 26.7284H46.6469V22.8181H52.5146C53.6907 22.8181 54.6537 22.6129 55.4037 22.2027C56.1537 21.7924 56.7076 21.2283 57.0656 20.5103C57.432 19.7924 57.6153 18.9676 57.6153 18.0359C57.6153 17.1043 57.432 16.2838 57.0656 15.5743C56.7076 14.8649 56.1494 14.3136 55.3909 13.9205C54.6409 13.5188 53.6736 13.3179 52.489 13.3179H48.1425V35.6003H43.3998Z" fill="black"/>
<path d="M66.5671 35.6003V9.34348H71.3098V31.6131H82.8407V35.6003H66.5671Z" fill="black"/>
<path d="M86.7525 35.6003V15.9077H91.3802V35.6003H86.7525Z" fill="black"/>
<path d="M100.767 24.0617V35.6003H96.139V15.9077H100.562V19.2539H100.792C101.244 18.1513 101.964 17.2752 102.953 16.6256C103.95 15.9761 105.181 15.6513 106.647 15.6513C108.002 15.6513 109.183 15.9419 110.188 16.5231C111.202 17.1043 111.987 17.9462 112.54 19.0488C113.103 20.1513 113.38 21.489 113.371 23.0616V35.6003H108.744V23.7796C108.744 22.4633 108.403 21.4334 107.721 20.6898C107.048 19.9462 106.115 19.5744 104.921 19.5744C104.112 19.5744 103.392 19.7539 102.761 20.1129C102.139 20.4633 101.649 20.9719 101.291 21.6385C100.941 22.3052 100.767 23.1129 100.767 24.0617Z" fill="black"/>
<path d="M126.769 35.9849C124.8 35.9849 123.1 35.5747 121.668 34.7541C120.245 33.9251 119.15 32.7541 118.383 31.2413C117.616 29.7199 117.232 27.9292 117.232 25.8694C117.232 23.8437 117.616 22.0659 118.383 20.536C119.158 18.9975 120.241 17.8009 121.63 16.9462C123.019 16.0829 124.651 15.6513 126.526 15.6513C127.736 15.6513 128.878 15.8479 129.952 16.241C131.034 16.6256 131.989 17.2239 132.815 18.0359C133.651 18.8479 134.307 19.8821 134.784 21.1385C135.261 22.3864 135.5 23.8736 135.5 25.6001V27.0232H119.405V23.895H131.064C131.056 23.0061 130.864 22.2155 130.489 21.5232C130.114 20.8223 129.59 20.271 128.916 19.8693C128.252 19.4676 127.476 19.2667 126.59 19.2667C125.644 19.2667 124.813 19.4975 124.097 19.959C123.381 20.412 122.823 21.0103 122.422 21.7539C122.03 22.489 121.83 23.2967 121.821 24.1771V26.9079C121.821 28.0532 122.03 29.0361 122.448 29.8566C122.865 30.6686 123.449 31.2925 124.199 31.7285C124.949 32.1558 125.827 32.3695 126.833 32.3695C127.506 32.3695 128.115 32.2755 128.661 32.0874C129.206 31.8908 129.679 31.6045 130.08 31.2284C130.48 30.8524 130.783 30.3866 130.987 29.831L135.308 30.3182C135.036 31.4635 134.516 32.4635 133.749 33.3182C132.99 34.1644 132.019 34.8225 130.834 35.2926C129.649 35.7542 128.294 35.9849 126.769 35.9849Z" fill="black"/>
<g clip-path="url(#clip0_175_4318)">
<path d="M84.3547 6.50568H93.8873V10.0093H84.3547V6.50568Z" fill="#0097AB"/>
<path d="M87.3743 13.0375V3.47741H90.8678V13.0375H87.3743Z" fill="#0097AB"/>
<path d="M111.944 14.1103C111.937 14.1103 111.934 14.1103 111.927 14.1103C111.787 14.1033 111.67 14.0014 111.633 13.8573L108.695 1.37853L105.056 8.35061C104.999 8.45603 104.892 8.5228 104.779 8.5228H101.977C101.871 8.5228 101.774 8.46657 101.714 8.37169L99.5968 4.99108L96.9591 8.39981C96.899 8.47712 96.8088 8.5228 96.712 8.5228H93.1895V7.98865H96.6218L99.3664 4.44287C99.4298 4.36204 99.5267 4.31284 99.6268 4.31987C99.727 4.3269 99.8205 4.37961 99.8739 4.47098L102.078 7.98865H104.665L108.485 0.672182C108.548 0.549187 108.675 0.485932 108.802 0.503503C108.932 0.521074 109.036 0.61947 109.069 0.753008L111.974 13.0771L113.593 8.21355C113.637 8.08002 113.757 7.99216 113.894 7.99216H138.067V8.52631H114.027L112.241 13.8889C112.198 14.0189 112.078 14.1103 111.944 14.1103Z" fill="#0097AB"/>
</g>
<g clip-path="url(#clip1_175_4318)">
<path d="M42.7845 43.3118C38.2979 47.7595 32.136 50.5 25.3332 50.5C11.617 50.5 0.5 39.3475 0.5 25.5919C0.5 15.9959 5.90601 7.67251 13.8272 3.50861C9.26985 8.02283 6.44971 14.2975 6.44971 21.2285C6.44971 34.9885 17.5667 46.141 31.2829 46.141C35.4291 46.141 39.3455 45.1166 42.7845 43.3118Z" fill="#0097AB"/>
</g>
<g clip-path="url(#clip2_175_4318)">
<path d="M106.239 31.4822L104.57 26.5745L102.898 31.4822L101.497 35.6003H107.64L106.239 31.4822Z" fill="#0097AB"/>
</g>
<defs>
<clipPath id="clip0_175_4318">
<rect width="51.1413" height="13.6103" fill="white" transform="translate(84.3547 0.5)"/>
</clipPath>
<clipPath id="clip1_175_4318">
<rect width="42.2845" height="46.9914" fill="white" transform="translate(0.5 3.50861)"/>
</clipPath>
<clipPath id="clip2_175_4318">
<rect width="6.14267" height="9.02579" fill="white" transform="translate(101.497 26.5745)"/>
</clipPath>
</defs>
</svg>
