<svg width="19" height="23" viewBox="0 0 19 23" fill="none" xmlns="http://www.w3.org/2000/svg">
<path fill-rule="evenodd" clip-rule="evenodd" d="M11.5992 1.89109C13.1207 0.369636 15.5875 0.369636 17.1089 1.89109C18.6304 3.41255 18.6304 5.87932 17.1089 7.40077L9.51491 14.9948C9.08692 15.4228 8.82554 15.6842 8.53422 15.9115C8.19099 16.1792 7.81961 16.4087 7.42667 16.596C7.09315 16.7549 6.74244 16.8718 6.16818 17.0632L3.49553 17.9541L2.85386 18.168C2.27951 18.3594 1.64629 18.2099 1.2182 17.7818C0.790099 17.3537 0.640617 16.7205 0.832067 16.1462L1.93683 12.8318C2.12822 12.2576 2.2451 11.9069 2.40405 11.5734C2.59132 11.1804 2.82084 10.809 3.08856 10.4658C3.31578 10.1745 3.57719 9.9131 4.00525 9.48509L11.5992 1.89109ZM3.46092 16.3845L2.61556 15.5391L3.34398 13.3538C3.55606 12.7176 3.64366 12.4589 3.75814 12.2187C3.89854 11.9241 4.07061 11.6457 4.27132 11.3883C4.43497 11.1785 4.62718 10.9845 5.10141 10.5102L10.9924 4.61927C11.2355 5.22927 11.647 5.96549 12.3408 6.65927C13.0345 7.35306 13.7708 7.76447 14.3807 8.00764L8.48977 13.8986C8.01554 14.3728 7.8215 14.565 7.61169 14.7287C7.35436 14.9294 7.07594 15.1015 6.78134 15.2419C6.54113 15.3564 6.28244 15.444 5.64619 15.656L3.46092 16.3845ZM15.576 6.81241C15.4521 6.78522 15.2973 6.74432 15.1213 6.68325C14.6373 6.51532 14.0006 6.19778 13.4014 5.59861C12.8022 4.99944 12.4847 4.36276 12.3168 3.87873C12.2557 3.7027 12.2148 3.54787 12.1876 3.42404L12.6599 2.95175C13.5956 2.01608 15.1126 2.01608 16.0483 2.95175C16.9839 3.88742 16.9839 5.40444 16.0483 6.34011L15.576 6.81241ZM0.75002 21.5C0.75002 21.0858 1.08581 20.75 1.50002 20.75H17.5V22.25H1.50002C1.08581 22.25 0.75002 21.9142 0.75002 21.5Z" fill="#6B7280"/>
</svg>
