<svg width="61" height="62" viewBox="0 0 61 62" fill="none" xmlns="http://www.w3.org/2000/svg">
<path d="M30.5 19.75C32.5625 19.75 34.25 21.4375 34.25 23.5C34.25 25.5625 32.5625 27.25 30.5 27.25C28.4375 27.25 26.75 25.5625 26.75 23.5C26.75 21.4375 28.4375 19.75 30.5 19.75ZM30.5 38.5C35.5625 38.5 41.375 40.9188 41.75 42.25H19.25C19.6813 40.9 25.4563 38.5 30.5 38.5ZM30.5 16C26.3562 16 23 19.3562 23 23.5C23 27.6438 26.3562 31 30.5 31C34.6437 31 38 27.6438 38 23.5C38 19.3562 34.6437 16 30.5 16ZM30.5 34.75C25.4937 34.75 15.5 37.2625 15.5 42.25V46H45.5V42.25C45.5 37.2625 35.5063 34.75 30.5 34.75Z" fill="black"/>
</svg>
