<svg width="41" height="41" viewBox="0 0 41 41" fill="none" xmlns="http://www.w3.org/2000/svg">
<rect x="0.290039" y="0.440002" width="40" height="40" rx="4" fill="#3AB6BB"/>
<g clip-path="url(#clip0_733_829)">
<path d="M20.2902 10.4789C25.7917 10.4789 30.2513 14.9388 30.2513 20.44C30.2513 25.9416 25.7917 30.4011 20.2902 30.4011C14.789 30.4011 10.3291 25.9416 10.3291 20.44C10.3291 14.9388 14.789 10.4789 20.2902 10.4789ZM20.2902 29.1754C25.096 29.1754 29.0061 25.2458 29.0061 20.44C29.0061 15.6342 25.096 11.7241 20.2902 11.7241C15.4844 11.7241 11.5742 15.6342 11.5742 20.44C11.5742 25.2458 15.4844 29.1754 20.2902 29.1754ZM20.9128 20.1871L23.8509 23.1256C24.0941 23.3684 24.0941 23.763 23.8509 24.0062C23.6077 24.249 23.2139 24.249 22.9707 24.0062L19.8894 20.9244C19.8781 20.9128 19.8696 20.8999 19.8595 20.8875C19.7416 20.7746 19.6676 20.6163 19.6676 20.44V14.2143C19.6676 13.8707 19.9466 13.5918 20.2902 13.5918C20.6338 13.5918 20.9128 13.8707 20.9128 14.2143V20.1871Z" fill="white"/>
</g>
<defs>
<clipPath id="clip0_733_829">
<rect width="20" height="20" fill="white" transform="matrix(1 0 0 -1 10.29 30.44)"/>
</clipPath>
</defs>
</svg>
