<svg width="41" height="41" viewBox="0 0 41 41" fill="none" xmlns="http://www.w3.org/2000/svg">
<rect x="0.110352" y="0.440002" width="40" height="40" rx="4" fill="#3AB6BB"/>
<g clip-path="url(#clip0_733_834)">
<path d="M30.0683 21.6178C30.0679 21.6805 30.0558 21.74 30.0387 21.7972C30.0566 21.8933 30.0691 21.9921 30.0691 22.0937V26.2505C30.0691 26.9108 29.6769 27.4774 29.1158 27.7423C29.0574 27.8046 28.9858 27.8567 28.9018 27.8914L22.4905 30.4085L21.3745 30.4128C21.3691 30.4128 21.3644 30.4143 21.3593 30.4143H19.4916C19.1477 30.4143 18.8691 30.1357 18.8691 29.7918V29.1692C18.8691 28.8256 19.1477 28.5466 19.4916 28.5466H21.3593C21.7029 28.5466 21.9819 28.8256 21.9819 29.1692V29.2707L25.9788 27.7015C25.4593 27.4229 25.1014 26.8801 25.1014 26.2505V22.0937C25.1014 21.1816 25.8434 20.4396 26.7555 20.4396H28.4146C28.5434 20.4396 28.6675 20.4579 28.7881 20.4859C28.7664 20.0143 28.7399 19.5443 28.7189 19.3591C28.2239 14.9279 24.6278 11.7108 20.1671 11.7108C15.5212 11.7108 11.7477 15.3015 11.4916 20.0641C11.4893 20.1124 11.4807 20.2715 11.4714 20.4735C11.5796 20.4517 11.6913 20.4396 11.806 20.4396H13.485C14.3967 20.4396 15.1391 21.1816 15.1391 22.0937V26.2696C15.1391 27.1816 14.3971 27.9233 13.485 27.9233H11.806C10.894 27.9233 10.1523 27.1816 10.1523 26.2696V22.0933C10.1523 21.9707 10.1679 21.8517 10.1936 21.7365L10.1951 21.4579C10.1983 20.9571 10.2418 20.1155 10.2481 19.9972C10.5403 14.5637 14.8488 10.4657 20.1671 10.4657C25.2726 10.4657 29.3901 14.1478 29.9566 19.2205C30.0056 19.6626 30.0702 21.2081 30.0683 21.6178ZM11.806 21.6848C11.5804 21.6848 11.3975 21.868 11.3971 22.0937V26.2696C11.3971 26.4953 11.5804 26.6785 11.806 26.6785H13.4846C13.7099 26.6785 13.8936 26.4953 13.8936 26.2696V22.0937C13.8936 21.868 13.7103 21.6848 13.4846 21.6848H11.806ZM26.3461 22.0937V26.2505C26.3461 26.4762 26.5294 26.6591 26.7551 26.6591H28.4142C28.6395 26.6591 28.8232 26.4762 28.8232 26.2505V22.0937C28.8232 21.868 28.6399 21.6848 28.4142 21.6848H26.7551C26.5294 21.6848 26.3461 21.868 26.3461 22.0937Z" fill="white"/>
</g>
<defs>
<clipPath id="clip0_733_834">
<rect width="20" height="20" fill="white" transform="matrix(1 0 0 -1 10.1104 30.44)"/>
</clipPath>
</defs>
</svg>
