<svg width="24" height="24" viewBox="0 0 24 24" fill="none" xmlns="http://www.w3.org/2000/svg">
<path fill-rule="evenodd" clip-rule="evenodd" d="M16.295 9.60549L11.727 15.6055C11.539 15.8525 11.248 15.9985 10.938 16.0005H10.931C10.624 16.0005 10.334 15.8585 10.144 15.6165L7.712 12.5095C7.372 12.0755 7.448 11.4465 7.883 11.1065C8.317 10.7655 8.947 10.8415 9.287 11.2775L10.92 13.3635L14.704 8.39449C15.038 7.95549 15.665 7.86949 16.106 8.20449C16.545 8.53949 16.63 9.16649 16.295 9.60549ZM12 2.00049C6.477 2.00049 2 6.47749 2 12.0005C2 17.5225 6.477 22.0005 12 22.0005C17.523 22.0005 22 17.5225 22 12.0005C22 6.47749 17.523 2.00049 12 2.00049Z" fill="#231F20"/>
<mask id="mask0_733_1109" style="mask-type:luminance" maskUnits="userSpaceOnUse" x="2" y="2" width="20" height="21">
<path fill-rule="evenodd" clip-rule="evenodd" d="M16.295 9.60549L11.727 15.6055C11.539 15.8525 11.248 15.9985 10.938 16.0005H10.931C10.624 16.0005 10.334 15.8585 10.144 15.6165L7.712 12.5095C7.372 12.0755 7.448 11.4465 7.883 11.1065C8.317 10.7655 8.947 10.8415 9.287 11.2775L10.92 13.3635L14.704 8.39449C15.038 7.95549 15.665 7.86949 16.106 8.20449C16.545 8.53949 16.63 9.16649 16.295 9.60549ZM12 2.00049C6.477 2.00049 2 6.47749 2 12.0005C2 17.5225 6.477 22.0005 12 22.0005C17.523 22.0005 22 17.5225 22 12.0005C22 6.47749 17.523 2.00049 12 2.00049Z" fill="white"/>
</mask>
<g mask="url(#mask0_733_1109)">
<rect width="24" height="24" fill="#2ECC71"/>
</g>
</svg>
