<svg width="22" height="22" viewBox="0 0 22 22" fill="none" xmlns="http://www.w3.org/2000/svg">
<path d="M11.3647 1.03632C11.4365 0.593357 11.8552 0.292868 12.2982 0.364582C12.3256 0.369831 12.4138 0.386319 12.46 0.396614C12.5525 0.417201 12.6814 0.448897 12.8422 0.495725C13.1637 0.589371 13.6129 0.743643 14.1519 0.990791C15.2312 1.48561 16.6675 2.3512 18.158 3.84165C19.6484 5.3321 20.514 6.76839 21.0088 7.8477C21.256 8.38678 21.4103 8.83593 21.5039 9.15744C21.5507 9.31822 21.5824 9.44716 21.603 9.5396C21.6133 9.58583 21.6208 9.62294 21.6261 9.65036L21.6323 9.68415C21.704 10.1271 21.4063 10.5632 20.9633 10.6349C20.5216 10.7064 20.1055 10.4074 20.032 9.96648C20.0298 9.95465 20.0236 9.92284 20.0169 9.89285C20.0035 9.83285 19.9804 9.7377 19.9437 9.61187C19.8704 9.36018 19.7431 8.98606 19.5317 8.52491C19.1094 7.60375 18.35 6.33171 17.0089 4.9907C15.6679 3.64968 14.3959 2.89027 13.4747 2.46795C13.0136 2.25653 12.6395 2.1292 12.3878 2.05589C12.2619 2.01924 12.1038 1.98294 12.0438 1.96957C11.6029 1.8961 11.2932 1.47802 11.3647 1.03632Z" fill="white"/>
<path fill-rule="evenodd" clip-rule="evenodd" d="M11.6098 4.77324C11.7331 4.34178 12.1828 4.09194 12.6143 4.21521L12.3911 4.99645C12.6143 4.21521 12.6143 4.21521 12.6143 4.21521L12.6159 4.21566L12.6175 4.21614L12.6211 4.2172L12.6295 4.2197L12.651 4.22638C12.6673 4.2316 12.6877 4.23841 12.712 4.24704C12.7607 4.2643 12.825 4.28886 12.9038 4.32266C13.0617 4.3903 13.2773 4.49475 13.5422 4.65152C14.0725 4.96535 14.7963 5.48662 15.6467 6.33701C16.4971 7.1874 17.0184 7.91127 17.3322 8.44152C17.489 8.7064 17.5934 8.92206 17.6611 9.07988C17.6949 9.15876 17.7194 9.22306 17.7367 9.27172C17.7453 9.29604 17.7521 9.31644 17.7574 9.33277L17.764 9.35421L17.7665 9.3626L17.7676 9.36622L17.7681 9.36788C17.7681 9.36788 17.7685 9.36944 16.9873 9.59265L17.7685 9.36944C17.8918 9.8009 17.642 10.2506 17.2105 10.3739C16.7827 10.4961 16.337 10.2515 16.2093 9.82681L16.2052 9.81513C16.1995 9.79885 16.1875 9.7668 16.1675 9.72C16.1274 9.62647 16.0547 9.47347 15.9338 9.26916C15.6922 8.86103 15.256 8.24434 14.4977 7.48606C13.7394 6.72778 13.1227 6.29151 12.7146 6.04996C12.5103 5.92904 12.3573 5.85636 12.2637 5.81627C12.2169 5.79621 12.1849 5.78426 12.1686 5.77848L12.1569 5.77448C11.7322 5.64678 11.4876 5.20104 11.6098 4.77324Z" fill="white"/>
<path fill-rule="evenodd" clip-rule="evenodd" d="M2.4249 3.77365C4.24497 1.95357 7.31638 2.09193 8.58368 4.36273L9.28678 5.62257C10.1144 7.10546 9.76169 8.97647 8.5502 10.2028C8.53406 10.2249 8.44855 10.3494 8.43789 10.5669C8.4243 10.8446 8.52292 11.4868 9.51788 12.4818C10.5125 13.4764 11.1546 13.5753 11.4324 13.5617C11.6501 13.5512 11.7747 13.4656 11.7969 13.4494C13.0232 12.2379 14.8942 11.8853 16.3771 12.7129L17.6369 13.416C19.9077 14.6833 20.0461 17.7547 18.226 19.5747C17.2524 20.5483 15.958 21.4133 14.4367 21.471C12.1824 21.5565 8.43922 20.9743 4.73229 17.2673C1.02536 13.5604 0.443188 9.81724 0.528649 7.5629C0.586318 6.04169 1.45135 4.7472 2.4249 3.77365ZM7.1647 5.15465C6.51577 3.99186 4.77193 3.72471 3.57395 4.9227C2.73399 5.76266 2.18792 6.68979 2.15248 7.62446C2.08121 9.50442 2.54536 12.7823 5.88134 16.1183C9.21732 19.4543 12.4952 19.9184 14.3752 19.8472C15.3099 19.8117 16.237 19.2656 17.0769 18.4257C18.2749 17.2277 18.0078 15.4839 16.845 14.8349L15.5852 14.1318C14.8015 13.6945 13.7007 13.8437 12.9279 14.6164C12.852 14.6923 12.3688 15.1431 11.5114 15.1848C10.6336 15.2275 9.57116 14.8331 8.36883 13.6308C7.16611 12.4281 6.77186 11.3653 6.81484 10.4875C6.85682 9.62999 7.30773 9.14725 7.38318 9.0718C8.15594 8.29903 8.30517 7.19818 7.8678 6.41449L7.1647 5.15465Z" fill="white"/>
</svg>
