<svg width="40" height="41" viewBox="0 0 40 41" fill="none" xmlns="http://www.w3.org/2000/svg">
<rect y="0.440002" width="40" height="40" rx="4" fill="#3AB6BB"/>
<g clip-path="url(#clip0_733_824)">
<path d="M20.0713 10.4719C24.7733 10.4719 27.4709 13.9497 27.4709 18.07C27.4709 22.1921 23.7756 26.9886 21.2452 29.8976C21.2344 29.91 20.8017 30.3941 20.2647 30.3941H20.2172C19.6803 30.3941 19.2445 29.91 19.234 29.8976C16.5379 26.7964 12.5293 22.3844 12.5293 18.07C12.5293 13.9497 15.9877 10.4719 20.0713 10.4719ZM20.3211 29.0622C24.239 24.5544 26.2258 20.8556 26.2258 18.07C26.2258 14.9073 24.3231 11.7167 20.0713 11.7167C16.6581 11.7167 13.7744 14.626 13.7744 18.07C13.7744 21.7392 17.2748 25.7552 19.8312 28.6879L20.1565 29.0622C20.1799 29.084 20.211 29.1089 20.2394 29.1287C20.2674 29.1085 20.2993 29.084 20.3211 29.0622ZM20.0219 14.2416C22.0849 14.2416 23.7573 15.9143 23.7573 17.977C23.7573 20.04 22.0849 21.7124 20.0219 21.7124C17.9589 21.7124 16.2865 20.04 16.2865 17.977C16.2865 15.9143 17.9589 14.2416 20.0219 14.2416ZM20.0219 20.4672C21.3958 20.4672 22.4842 19.3233 22.4834 17.9497C22.4834 16.5766 21.3674 15.4595 19.9931 15.4595C18.6203 15.4595 17.5028 16.5766 17.5028 17.9497C17.5028 19.3233 18.6488 20.4672 20.0219 20.4672Z" fill="white"/>
</g>
<defs>
<clipPath id="clip0_733_824">
<rect width="20" height="20" fill="white" transform="matrix(1 0 0 -1 10 30.44)"/>
</clipPath>
</defs>
</svg>
