<svg width="20" height="21" viewBox="0 0 20 21" fill="none" xmlns="http://www.w3.org/2000/svg">
<g clip-path="url(#clip0_733_945)">
<path d="M20 8C20.0019 7.54123 19.8775 7.09079 19.6405 6.698C19.4035 6.30521 19.0629 5.98521 18.6562 5.77305C18.2494 5.56089 17.7921 5.46474 17.3343 5.49515C16.8766 5.52555 16.436 5.68133 16.0609 5.94542C15.6858 6.20951 15.3905 6.57174 15.2075 6.99243C15.0245 7.41312 14.9608 7.87605 15.0234 8.33054C15.0859 8.78502 15.2723 9.21353 15.5622 9.56914C15.852 9.92474 16.2341 10.1937 16.6667 10.3467V13.8333C16.6667 15.1594 16.1399 16.4312 15.2022 17.3689C14.2645 18.3065 12.9928 18.8333 11.6667 18.8333C10.3406 18.8333 9.06882 18.3065 8.13113 17.3689C7.19345 16.4312 6.66667 15.1594 6.66667 13.8333V13.7667C8.0534 13.5655 9.32151 12.8722 10.2395 11.8135C11.1574 10.7548 11.664 9.40125 11.6667 8V4.66667C11.6653 3.562 11.2259 2.50296 10.4448 1.72185C9.6637 0.940735 8.60466 0.501323 7.5 0.5C7.27899 0.5 7.06703 0.587797 6.91074 0.744078C6.75446 0.900358 6.66667 1.11232 6.66667 1.33333C6.66667 1.55435 6.75446 1.76631 6.91074 1.92259C7.06703 2.07887 7.27899 2.16667 7.5 2.16667C8.16304 2.16667 8.79893 2.43006 9.26777 2.8989C9.73661 3.36774 10 4.00363 10 4.66667V8C10 9.10507 9.56101 10.1649 8.77961 10.9463C7.99821 11.7277 6.9384 12.1667 5.83333 12.1667C4.72826 12.1667 3.66846 11.7277 2.88706 10.9463C2.10565 10.1649 1.66667 9.10507 1.66667 8V4.66667C1.66667 4.00363 1.93006 3.36774 2.3989 2.8989C2.86774 2.43006 3.50363 2.16667 4.16667 2.16667C4.38768 2.16667 4.59964 2.07887 4.75592 1.92259C4.9122 1.76631 5 1.55435 5 1.33333C5 1.11232 4.9122 0.900358 4.75592 0.744078C4.59964 0.587797 4.38768 0.5 4.16667 0.5C3.062 0.501323 2.00296 0.940735 1.22185 1.72185C0.440735 2.50296 0.00132321 3.562 0 4.66667L0 8C0.00267996 9.40125 0.509243 10.7548 1.4272 11.8135C2.34516 12.8722 3.61327 13.5655 5 13.7667V13.8333C5 15.6014 5.70238 17.2971 6.95262 18.5474C8.20286 19.7976 9.89856 20.5 11.6667 20.5C13.4348 20.5 15.1305 19.7976 16.3807 18.5474C17.631 17.2971 18.3333 15.6014 18.3333 13.8333V10.3467C18.8191 10.1749 19.2399 9.85731 19.5383 9.43725C19.8366 9.01719 19.9979 8.51522 20 8Z" fill="white"/>
</g>
<defs>
<clipPath id="clip0_733_945">
<rect width="20" height="20" fill="white" transform="translate(0 0.5)"/>
</clipPath>
</defs>
</svg>
