<svg width="80" height="81" viewBox="0 0 80 81" fill="none" xmlns="http://www.w3.org/2000/svg">
<path fill-rule="evenodd" clip-rule="evenodd" d="M57.4625 3.36872L57.7129 3.4357C61.8868 4.53349 65.1917 5.40056 67.7909 6.32344C70.4508 7.26494 72.6212 8.3404 74.4084 9.9815C77.0095 12.3725 78.8291 15.4664 79.6371 18.8717C80.1949 21.2087 80.0621 23.5903 79.5612 26.3181C79.0794 28.99 78.1952 32.2312 77.0759 36.321L75.0421 43.7599C73.9265 47.8496 73.0386 51.0909 72.1014 53.6437C71.1376 56.2486 70.041 58.3772 68.3677 60.1299C66.0093 62.5997 62.9776 64.3536 59.6329 65.1835C58.6529 67.3869 57.2249 69.3711 55.4362 71.0148C53.6491 72.6559 51.4786 73.7314 48.8187 74.6766C46.2196 75.5994 42.9146 76.4665 38.7445 77.5643L38.4903 77.6313C34.3164 78.7253 31.0153 79.5924 28.2909 80.0725C25.5095 80.56 23.0811 80.6902 20.6944 80.1469C17.2226 79.3517 14.0693 77.5645 11.6333 75.0115C9.96376 73.2625 8.86337 71.1339 7.89959 68.5252C6.96236 65.9761 6.07826 62.7349 4.9589 58.6414L2.92508 51.2062C1.80952 47.1128 0.921625 43.8752 0.435937 41.2033C-0.0611335 38.4756 -0.193939 36.094 0.360049 33.7533C1.17089 30.3484 2.99316 27.2558 5.59637 24.8668C7.37975 23.2294 9.55016 22.1502 12.2101 21.205C14.8092 20.2858 18.1142 19.4188 22.2843 18.321L22.4133 18.2837L25.2629 17.5395C26.7503 12.3334 28.0556 8.65299 30.6055 5.9848C33.042 3.43313 36.1952 1.64729 39.6666 0.853111C42.0533 0.309799 44.4779 0.440044 47.263 0.927537C49.9836 1.40387 53.2886 2.27465 57.4625 3.36872ZM23.544 23.769C19.3967 24.8593 16.4257 25.6482 14.1414 26.4558C11.8268 27.2744 10.4722 28.0336 9.48566 28.9416C7.70474 30.5764 6.45821 32.6925 5.90371 35.0222C5.60016 36.3172 5.60395 37.8504 6.04031 40.2209C6.47667 42.6286 7.30007 45.6429 8.45737 49.8852L10.4229 57.0747C11.5802 61.317 12.4074 64.3313 13.2535 66.6274C14.0883 68.8974 14.8624 70.2296 15.7882 71.1971C17.4552 72.9437 19.6128 74.1662 21.9883 74.7101C23.305 75.0078 24.8721 75.0003 27.2891 74.5761C29.7441 74.1481 32.8176 73.3406 37.1433 72.2056C41.4689 71.0669 44.5424 70.2594 46.8874 69.4258C49.1982 68.6071 50.5566 67.8479 51.5431 66.9437C52.0668 66.4599 52.5424 65.9402 52.9699 65.3844C52.2659 65.2859 51.5649 65.168 50.8677 65.0309C48.3179 64.5323 45.252 63.7285 41.4765 62.7349L41.2564 62.679C37.0864 61.5813 33.7814 60.7142 31.1822 59.7913C28.5223 58.8498 26.3519 57.7743 24.5647 56.1332C21.9623 53.7427 20.1413 50.6488 19.3322 47.243C18.7782 44.906 18.911 42.5244 19.4081 39.7967C19.8938 37.1248 20.7817 33.8835 21.8972 29.7938L23.544 23.769ZM46.2613 6.42392C43.8405 5.99597 42.2771 5.98853 40.9605 6.28995C38.585 6.83376 36.4273 8.05628 34.7604 9.80287C33.106 11.5333 32.0853 14.2126 30.3171 20.5686L29.395 23.9253L27.4295 31.1148C26.2722 35.3571 25.4488 38.3714 25.0125 40.7791C24.5761 43.1496 24.5685 44.6865 24.8759 45.9778C25.4304 48.3075 26.6769 50.4236 28.4578 52.0584C29.4444 52.9664 30.8028 53.7218 33.1136 54.5442C35.4585 55.3741 38.532 56.1816 42.8577 57.3203C46.747 58.3437 49.6308 59.0991 51.9757 59.5531C54.3093 60.0109 55.8954 60.1225 57.1931 59.9662C57.4764 59.929 57.7496 59.8818 58.0127 59.8248C60.3881 59.281 62.5458 58.0585 64.2128 56.3119C65.1386 55.3443 65.9127 54.0121 66.7474 51.7458C67.5936 49.446 68.417 46.4318 69.5781 42.1895L71.5436 34.9999C72.7009 30.7576 73.5243 27.7433 73.9607 25.3356C74.3932 22.9652 74.4046 21.4283 74.0973 20.137C73.5428 17.8073 72.2962 15.6912 70.5153 14.0563C69.5288 13.1483 68.1704 12.3929 65.8596 11.5705C63.5108 10.7406 60.4411 9.93312 56.1154 8.7944C51.7898 7.6594 48.7163 6.85187 46.2613 6.42392Z" fill="black"/>
</svg>
