<svg width="81" height="80" viewBox="0 0 81 80" fill="none" xmlns="http://www.w3.org/2000/svg">
<g clip-path="url(#clip0_167_7229)">
<path d="M24.5618 24.2433C20.9533 27.2629 18.3072 31.2427 16.9408 35.7052C15.5744 40.1676 15.5458 44.9232 16.8585 49.4013C18.1712 53.8793 20.7693 57.8896 24.3412 60.9509C27.9131 64.0122 32.307 65.9945 36.9956 66.6599V36.4682L24.5618 24.2474V24.2433ZM56.4217 24.2594L44.0082 36.4722V66.6479C48.6898 65.9754 53.0751 63.9899 56.6394 60.9289C60.2036 57.868 62.7957 53.8614 64.1055 49.3886C65.4152 44.9159 65.387 40.1665 64.0243 35.7091C62.6616 31.2517 60.0221 27.2792 56.4217 24.2594Z" fill="black"/>
<path d="M13.7113 13.5722C5.61196 20.7797 0.483759 31.1786 0.500039 42.7348C0.528529 64.3815 18.4894 82 40.5 82C62.5106 82 80.4674 64.3815 80.5 42.7348C80.5162 31.1786 75.3921 20.7837 67.2887 13.5641L60.3168 20.4193C63.5529 23.1944 66.145 26.6214 67.9174 30.4681C69.6898 34.3148 70.601 38.4913 70.5895 42.7148C70.561 59.092 57.1585 72.2458 40.4959 72.2458C23.8333 72.2458 10.439 59.1 10.4146 42.7228C10.4025 38.4996 11.3132 34.3233 13.0849 30.4766C14.8565 26.6299 17.4478 23.2028 20.6832 20.4274L13.7113 13.5722Z" fill="black"/>
<path d="M40.5144 28.5879C47.977 28.5879 54.0268 22.636 54.0268 15.294C54.0268 7.95191 47.977 2 40.5144 2C33.0517 2 27.002 7.95191 27.002 15.294C27.002 22.636 33.0517 28.5879 40.5144 28.5879Z" fill="black"/>
</g>
<defs>
<clipPath id="clip0_167_7229">
<rect width="80" height="80" fill="white" transform="translate(0.5)"/>
</clipPath>
</defs>
</svg>
