<svg width="85" height="85" viewBox="0 0 85 85" fill="none" xmlns="http://www.w3.org/2000/svg">
<path d="M68.5 15.8333H70.5C76.156 15.8333 78.984 15.8333 80.74 17.7889C82.5 19.7356 82.5 22.8778 82.5 29.1667V60.2778C82.5 66.5622 82.5 69.7044 80.74 71.6556C78.984 73.6111 76.156 73.6111 70.5 73.6111H68.5M16.5 15.8333H14.5C8.844 15.8333 6.016 15.8333 4.26 17.7889C2.5 19.7356 2.5 22.8778 2.5 29.1667V60.2778C2.5 66.5622 2.5 69.7044 4.26 71.6556C6.012 73.6111 8.84 73.6111 14.5 73.6111H16.5M52.5 24.7222H32.5M52.5 42.5H32.5M52.5 60.2778H32.5M68.5 64.7222V20.2778C68.5 11.8956 68.5 7.70889 66.156 5.10444C63.812 2.5 60.044 2.5 52.5 2.5H32.5C24.956 2.5 21.188 2.5 18.844 5.10444C16.5 7.70889 16.5 11.8956 16.5 20.2778V64.7222C16.5 73.1044 16.5 77.2911 18.844 79.8956C21.188 82.5 24.956 82.5 32.5 82.5H52.5C60.044 82.5 63.812 82.5 66.156 79.8956C68.5 77.2911 68.5 73.1044 68.5 64.7222Z" stroke="black" stroke-width="5" stroke-linecap="round" stroke-linejoin="round"/>
</svg>
