<svg width="17" height="19" viewBox="0 0 17 19" fill="none" xmlns="http://www.w3.org/2000/svg">
<path d="M6.11106 9.04826C5.37434 9.04826 4.66781 8.74097 4.14687 8.19399C3.62594 7.64701 3.33328 6.90514 3.33328 6.13159V3.79826C3.33328 3.64355 3.39181 3.49518 3.496 3.38578C3.60018 3.27638 3.74149 3.21493 3.88883 3.21493H4.44439C4.59173 3.21493 4.73304 3.15347 4.83723 3.04407C4.94141 2.93468 4.99995 2.7863 4.99995 2.63159C4.99995 2.47688 4.94141 2.32851 4.83723 2.21911C4.73304 2.10972 4.59173 2.04826 4.44439 2.04826H3.88883C3.44681 2.04826 3.02288 2.23263 2.71032 2.56082C2.39776 2.88901 2.22217 3.33413 2.22217 3.79826V6.13159C2.22288 6.79061 2.37593 7.43959 2.66817 8.02281C2.96041 8.60602 3.3831 9.10605 3.89995 9.47993C4.39702 9.93917 4.80007 10.4996 5.08465 11.1274C5.36924 11.7551 5.52942 12.4369 5.5555 13.1316C5.5555 14.2146 5.96522 15.2532 6.69453 16.0189C7.42384 16.7847 8.41299 17.2149 9.44439 17.2149C10.4758 17.2149 11.4649 16.7847 12.1942 16.0189C12.9236 15.2532 13.3333 14.2146 13.3333 13.1316V12.4666C13.857 12.3246 14.3134 11.987 14.6169 11.5169C14.9205 11.0469 15.0504 10.4767 14.9822 9.91334C14.9141 9.34995 14.6526 8.832 14.2467 8.45657C13.8409 8.08115 13.3186 7.87402 12.7777 7.87402C12.2368 7.87402 11.7145 8.08115 11.3087 8.45657C10.9029 8.832 10.6414 9.34995 10.5732 9.91334C10.5051 10.4767 10.6349 11.0469 10.9385 11.5169C11.2421 11.987 11.6985 12.3246 12.2222 12.4666V13.1316C12.2222 13.9051 11.9295 14.647 11.4086 15.194C10.8876 15.741 10.1811 16.0483 9.44439 16.0483C8.70768 16.0483 8.00114 15.741 7.4802 15.194C6.95927 14.647 6.66661 13.9051 6.66661 13.1316C6.69409 12.4361 6.85602 11.7537 7.14253 11.1259C7.42905 10.4982 7.83418 9.93814 8.33328 9.47993C8.84807 9.10475 9.2686 8.60416 9.55887 8.02102C9.84913 7.43788 10.0005 6.78957 9.99995 6.13159V3.79826C9.99995 3.33413 9.82435 2.88901 9.51179 2.56082C9.19923 2.23263 8.77531 2.04826 8.33328 2.04826H7.77772C7.63038 2.04826 7.48907 2.10972 7.38489 2.21911C7.2807 2.32851 7.22217 2.47688 7.22217 2.63159C7.22217 2.7863 7.2807 2.93468 7.38489 3.04407C7.48907 3.15347 7.63038 3.21493 7.77772 3.21493H8.33328C8.48062 3.21493 8.62193 3.27638 8.72612 3.38578C8.8303 3.49518 8.88883 3.64355 8.88883 3.79826V6.13159C8.88883 6.51462 8.81699 6.89389 8.67739 7.24775C8.53779 7.60162 8.33318 7.92315 8.07524 8.19399C7.8173 8.46483 7.51108 8.67967 7.17407 8.82624C6.83705 8.97282 6.47584 9.04826 6.11106 9.04826ZM12.7777 11.3816C12.483 11.3816 12.2004 11.2587 11.992 11.0399C11.7837 10.8211 11.6666 10.5243 11.6666 10.2149C11.6666 9.90551 11.7837 9.60876 11.992 9.38997C12.2004 9.17118 12.483 9.04826 12.7777 9.04826C13.0724 9.04826 13.355 9.17118 13.5634 9.38997C13.7718 9.60876 13.8888 9.90551 13.8888 10.2149C13.8888 10.5243 13.7718 10.8211 13.5634 11.0399C13.355 11.2587 13.0724 11.3816 12.7777 11.3816Z" fill="black"/>
</svg>
