<svg width="23" height="23" viewBox="0 0 23 23" fill="none" xmlns="http://www.w3.org/2000/svg">
<path fill-rule="evenodd" clip-rule="evenodd" d="M16.02 5.77261C17.2923 5.71011 18.25 6.75695 18.25 7.95154V13.4108C18.25 14.6716 17.2316 15.6365 16.0459 15.7249C15.5529 15.7617 15.0551 15.8216 14.678 15.9138C13.9402 16.094 12.9666 16.5647 12.357 16.8858C11.8214 17.1681 11.1786 17.1681 10.643 16.8858C10.0334 16.5647 9.05979 16.094 8.32199 15.9138C7.94487 15.8216 7.44708 15.7617 6.95414 15.7249C5.76836 15.6365 4.75 14.6716 4.75 13.4108V7.99649C4.75 6.77528 5.748 5.71817 7.04194 5.81291C7.56744 5.85139 8.17286 5.91879 8.67802 6.04222C9.59977 6.26744 10.6985 6.80646 11.3132 7.1291C11.4157 7.1829 11.5434 7.18078 11.6463 7.12125C12.2018 6.79984 13.1675 6.27873 13.9997 6.04804C14.6227 5.87535 15.3904 5.80353 16.02 5.77261ZM16.75 7.95154C16.75 7.53391 16.4314 7.2542 16.0935 7.2708C15.4907 7.30041 14.8582 7.36663 14.4003 7.49354C13.7696 7.66839 12.9487 8.1007 12.3975 8.41959C12.3493 8.44749 12.3001 8.47306 12.25 8.49628V15.2586C12.8591 14.9625 13.6393 14.6234 14.322 14.4566C14.8199 14.335 15.4149 14.2678 15.9343 14.2291C16.4097 14.1936 16.75 13.8157 16.75 13.4108V7.95154ZM10.616 8.45726C10.66 8.48035 10.7047 8.50154 10.75 8.52081V15.2586C10.1409 14.9625 9.36071 14.6234 8.67802 14.4566C8.18009 14.335 7.58508 14.2678 7.06568 14.2291C6.59031 14.1936 6.25 13.8157 6.25 13.4108V7.99649C6.25 7.56975 6.58277 7.28331 6.9324 7.30891C7.4319 7.34548 7.93898 7.40578 8.32199 7.49936C9.04804 7.67676 10.0035 8.13574 10.616 8.45726Z" fill="#6B7280"/>
<path fill-rule="evenodd" clip-rule="evenodd" d="M9.44358 0.75C7.60583 0.749985 6.15019 0.749973 5.01098 0.903136C3.83856 1.06076 2.88961 1.39288 2.14124 2.14124C1.39288 2.88961 1.06076 3.83856 0.903136 5.01098C0.749973 6.15019 0.749985 7.60582 0.75 9.44357V13.5564C0.749985 15.3942 0.749973 16.8498 0.903136 17.989C1.06076 19.1614 1.39288 20.1104 2.14124 20.8588C2.88961 21.6071 3.83856 21.9392 5.01098 22.0969C6.15018 22.25 7.6058 22.25 9.44354 22.25H13.5564C15.3942 22.25 16.8498 22.25 17.989 22.0969C19.1614 21.9392 20.1104 21.6071 20.8588 20.8588C21.6071 20.1104 21.9392 19.1614 22.0969 17.989C22.25 16.8498 22.25 15.3942 22.25 13.5565V9.44359C22.25 7.60585 22.25 6.15018 22.0969 5.01098C21.9392 3.83856 21.6071 2.88961 20.8588 2.14124C20.1104 1.39288 19.1614 1.06076 17.989 0.903136C16.8498 0.749973 15.3942 0.749985 13.5564 0.75H9.44358ZM3.2019 3.2019C3.62511 2.77869 4.20476 2.52503 5.21085 2.38976C6.23851 2.25159 7.59318 2.25 9.5 2.25H13.5C15.4068 2.25 16.7615 2.25159 17.7892 2.38976C18.7952 2.52503 19.3749 2.77869 19.7981 3.2019C20.2213 3.62511 20.475 4.20476 20.6102 5.21085C20.7484 6.23851 20.75 7.59318 20.75 9.5V13.5C20.75 15.4068 20.7484 16.7615 20.6102 17.7892C20.475 18.7952 20.2213 19.3749 19.7981 19.7981C19.3749 20.2213 18.7952 20.475 17.7892 20.6102C16.7615 20.7484 15.4068 20.75 13.5 20.75H9.5C7.59318 20.75 6.23851 20.7484 5.21085 20.6102C4.20476 20.475 3.62511 20.2213 3.2019 19.7981C2.77869 19.3749 2.52503 18.7952 2.38976 17.7892C2.25159 16.7615 2.25 15.4068 2.25 13.5V9.5C2.25 7.59318 2.25159 6.23851 2.38976 5.21085C2.52503 4.20476 2.77869 3.62511 3.2019 3.2019Z" fill="#6B7280"/>
</svg>
