<svg width="22" height="22" viewBox="0 0 22 22" fill="none" xmlns="http://www.w3.org/2000/svg">
<path fill-rule="evenodd" clip-rule="evenodd" d="M10.5 1.845C5.66751 1.845 1.75 5.76251 1.75 10.595C1.75 15.4275 5.66751 19.345 10.5 19.345C15.3325 19.345 19.25 15.4275 19.25 10.595C19.25 5.76251 15.3325 1.845 10.5 1.845ZM0.25 10.595C0.25 4.93408 4.83908 0.345001 10.5 0.345001C16.1609 0.345001 20.75 4.93408 20.75 10.595C20.75 16.2559 16.1609 20.845 10.5 20.845C4.83908 20.845 0.25 16.2559 0.25 10.595ZM18.4697 18.5647C18.7626 18.2718 19.2374 18.2718 19.5303 18.5647L21.5303 20.5647C21.8232 20.8576 21.8232 21.3324 21.5303 21.6253C21.2374 21.9182 20.7626 21.9182 20.4697 21.6253L18.4697 19.6253C18.1768 19.3324 18.1768 18.8576 18.4697 18.5647Z" fill="#14457B"/>
</svg>
