<svg width="20" height="20" viewBox="0 0 20 20" fill="none" xmlns="http://www.w3.org/2000/svg">
<path fill-rule="evenodd" clip-rule="evenodd" d="M9.58342 2.29169C5.55634 2.29169 2.29175 5.55628 2.29175 9.58335C2.29175 13.6104 5.55634 16.875 9.58342 16.875C13.6105 16.875 16.8751 13.6104 16.8751 9.58335C16.8751 5.55628 13.6105 2.29169 9.58342 2.29169ZM1.04175 9.58335C1.04175 4.86592 4.86598 1.04169 9.58342 1.04169C14.3008 1.04169 18.1251 4.86592 18.1251 9.58335C18.1251 11.7171 17.3427 13.6681 16.0491 15.1652L18.7754 17.8914C19.0194 18.1355 19.0194 18.5312 18.7754 18.7753C18.5313 19.0194 18.1356 19.0194 17.8915 18.7753L15.1653 16.0491C13.6682 17.3426 11.7172 18.125 9.58342 18.125C4.86598 18.125 1.04175 14.3008 1.04175 9.58335Z" fill="#B6B4B4"/>
</svg>
