<svg width="51" height="32" viewBox="0 0 51 32" fill="none" xmlns="http://www.w3.org/2000/svg">
<path d="M47.6166 0.333313H4.00459C2.07769 0.333313 0.515625 1.81784 0.515625 3.6491V28.5175C0.515625 30.3488 2.07769 31.8333 4.00459 31.8333H47.6166C49.5435 31.8333 51.1056 30.3488 51.1056 28.5175V3.6491C51.1056 1.81784 49.5435 0.333313 47.6166 0.333313Z" fill="#25A3DA"/>
<path d="M40.6387 28.5175C42.0839 28.5175 43.2554 27.4041 43.2554 26.0307C43.2554 24.6572 42.0839 23.5438 40.6387 23.5438C39.1935 23.5438 38.022 24.6572 38.022 26.0307C38.022 27.4041 39.1935 28.5175 40.6387 28.5175Z" fill="#EC3A48"/>
<path d="M12.727 4.47809H5.74912C4.78567 4.47809 4.00464 5.22035 4.00464 6.13598V11.1097C4.00464 12.0253 4.78567 12.7676 5.74912 12.7676H12.727C13.6905 12.7676 14.4715 12.0253 14.4715 11.1097V6.13598C14.4715 5.22035 13.6905 4.47809 12.727 4.47809Z" fill="#FCCB55"/>
<path d="M45 28.5175C46.4452 28.5175 47.6167 27.4041 47.6167 26.0307C47.6167 24.6572 46.4452 23.5438 45 23.5438C43.5548 23.5438 42.3833 24.6572 42.3833 26.0307C42.3833 27.4041 43.5548 28.5175 45 28.5175Z" fill="#FCCB55"/>
<path d="M39.7666 11.9385C39.5882 11.9384 39.4142 11.8863 39.268 11.7893C39.1217 11.6922 39.0103 11.5549 38.9487 11.3958C38.8871 11.2368 38.8783 11.0636 38.9235 10.8996C38.9687 10.7356 39.0657 10.5887 39.2014 10.4788C39.3757 10.3636 39.5182 10.21 39.6165 10.0311C39.7149 9.8523 39.7663 9.65349 39.7663 9.45169C39.7663 9.24989 39.7149 9.05108 39.6165 8.87223C39.5182 8.69339 39.3757 8.53982 39.2014 8.42462C39.0253 8.28172 38.9162 8.07821 38.8981 7.85886C38.8799 7.63951 38.9542 7.42228 39.1046 7.25498C39.2549 7.08767 39.4691 6.98399 39.6999 6.96673C39.9307 6.94947 40.1593 7.02006 40.3353 7.16297C40.7017 7.43425 40.9982 7.78142 41.2021 8.17804C41.406 8.57466 41.5119 9.01026 41.5119 9.45169C41.5119 9.89311 41.406 10.3287 41.2021 10.7253C40.9982 11.122 40.7017 11.4691 40.3353 11.7404C40.1771 11.8695 39.9751 11.9398 39.7666 11.9385Z" fill="#295474"/>
<path d="M42.3832 14.4254C42.2131 14.4253 42.0467 14.378 41.9046 14.2892C41.7625 14.2004 41.6507 14.0741 41.5831 13.9257C41.5156 13.7774 41.4951 13.6135 41.5243 13.4543C41.5535 13.295 41.631 13.1473 41.7473 13.0294C42.7154 12.0655 43.2556 10.7842 43.2556 9.45169C43.2556 8.11917 42.7154 6.83787 41.7473 5.87395C41.6654 5.79525 41.6009 5.70175 41.5576 5.59897C41.5143 5.49619 41.4931 5.38621 41.4953 5.27552C41.4974 5.16483 41.5229 5.05568 41.5702 4.9545C41.6175 4.85331 41.6856 4.76216 41.7705 4.68641C41.8555 4.61066 41.9555 4.55184 42.0648 4.51344C42.1741 4.47504 42.2903 4.45783 42.4067 4.46282C42.5231 4.46781 42.6372 4.4949 42.7424 4.5425C42.8475 4.5901 42.9416 4.65724 43.019 4.73995C44.2907 6.011 44.9998 7.69782 44.9998 9.45169C44.9998 11.2056 44.2907 12.8924 43.019 14.1634C42.9375 14.2461 42.839 14.3119 42.7297 14.357C42.6203 14.402 42.5024 14.4253 42.3832 14.4254Z" fill="#295474"/>
<path d="M45 16.0833C44.8272 16.0834 44.6583 16.0348 44.5146 15.9435C44.371 15.8523 44.2591 15.7226 44.1931 15.5708C44.1271 15.4191 44.1101 15.2521 44.1441 15.0911C44.1781 14.9301 44.2617 14.7824 44.3841 14.6666C45.1297 13.9953 45.7235 13.1867 46.1293 12.2901C46.5351 11.3935 46.7443 10.4277 46.7443 9.45168C46.7443 8.47566 46.5351 7.50987 46.1293 6.61326C45.7235 5.71666 45.1297 4.90804 44.3841 4.23677C44.2201 4.08156 44.1277 3.87078 44.1272 3.65081C44.1267 3.43084 44.2182 3.21969 44.3815 3.06381C44.5449 2.90794 44.7666 2.82011 44.9981 2.81964C45.2296 2.81918 45.4517 2.90611 45.6158 3.06133C46.5239 3.88691 47.2467 4.87876 47.7405 5.97706C48.2342 7.07535 48.4888 8.25733 48.4888 9.45168C48.4888 10.646 48.2342 11.828 47.7405 12.9263C47.2467 14.0246 46.5239 15.0165 45.6158 15.842C45.4521 15.9967 45.2307 16.0834 45 16.0833ZM9.23808 28.5175H4.87688C4.64555 28.5175 4.42369 28.4301 4.26011 28.2747C4.09654 28.1192 4.00464 27.9084 4.00464 27.6885C4.00464 27.4687 4.09654 27.2578 4.26011 27.1024C4.42369 26.9469 4.64555 26.8596 4.87688 26.8596H9.23808C9.46942 26.8596 9.69127 26.9469 9.85485 27.1024C10.0184 27.2578 10.1103 27.4687 10.1103 27.6885C10.1103 27.9084 10.0184 28.1192 9.85485 28.2747C9.69127 28.4301 9.46942 28.5175 9.23808 28.5175ZM11.8548 20.228H6.62136C6.39003 20.228 6.16817 20.1407 6.00459 19.9852C5.84102 19.8297 5.74912 19.6189 5.74912 19.3991C5.74912 19.1792 5.84102 18.9684 6.00459 18.8129C6.16817 18.6574 6.39003 18.5701 6.62136 18.5701H11.8548C12.0861 18.5701 12.308 18.6574 12.4716 18.8129C12.6351 18.9684 12.727 19.1792 12.727 19.3991C12.727 19.6189 12.6351 19.8297 12.4716 19.9852C12.308 20.1407 12.0861 20.228 11.8548 20.228ZM20.5772 20.228H15.3438C15.1124 20.228 14.8906 20.1407 14.727 19.9852C14.5634 19.8297 14.4715 19.6189 14.4715 19.3991C14.4715 19.1792 14.5634 18.9684 14.727 18.8129C14.8906 18.6574 15.1124 18.5701 15.3438 18.5701H20.5772C20.8085 18.5701 21.0304 18.6574 21.194 18.8129C21.3576 18.9684 21.4495 19.1792 21.4495 19.3991C21.4495 19.6189 21.3576 19.8297 21.194 19.9852C21.0304 20.1407 20.8085 20.228 20.5772 20.228ZM29.2996 20.228H24.0662C23.8348 20.228 23.613 20.1407 23.4494 19.9852C23.2858 19.8297 23.1939 19.6189 23.1939 19.3991C23.1939 19.1792 23.2858 18.9684 23.4494 18.8129C23.613 18.6574 23.8348 18.5701 24.0662 18.5701H29.2996C29.531 18.5701 29.7528 18.6574 29.9164 18.8129C30.08 18.9684 30.1719 19.1792 30.1719 19.3991C30.1719 19.6189 30.08 19.8297 29.9164 19.9852C29.7528 20.1407 29.531 20.228 29.2996 20.228ZM38.022 20.228H32.7886C32.5572 20.228 32.3354 20.1407 32.1718 19.9852C32.0082 19.8297 31.9163 19.6189 31.9163 19.3991C31.9163 19.1792 32.0082 18.9684 32.1718 18.8129C32.3354 18.6574 32.5572 18.5701 32.7886 18.5701H38.022C38.2534 18.5701 38.4752 18.6574 38.6388 18.8129C38.8024 18.9684 38.8943 19.1792 38.8943 19.3991C38.8943 19.6189 38.8024 19.8297 38.6388 19.9852C38.4752 20.1407 38.2534 20.228 38.022 20.228ZM17.0882 28.5175H12.727C12.4957 28.5175 12.2739 28.4301 12.1103 28.2747C11.9467 28.1192 11.8548 27.9084 11.8548 27.6885C11.8548 27.4687 11.9467 27.2578 12.1103 27.1024C12.2739 26.9469 12.4957 26.8596 12.727 26.8596H17.0882C17.3196 26.8596 17.5414 26.9469 17.705 27.1024C17.8686 27.2578 17.9605 27.4687 17.9605 27.6885C17.9605 27.9084 17.8686 28.1192 17.705 28.2747C17.5414 28.4301 17.3196 28.5175 17.0882 28.5175ZM19.705 23.5438H16.216C15.9847 23.5438 15.7628 23.4565 15.5992 23.301C15.4357 23.1455 15.3438 22.9347 15.3438 22.7148C15.3438 22.495 15.4357 22.2841 15.5992 22.1287C15.7628 21.9732 15.9847 21.8859 16.216 21.8859H19.705C19.9363 21.8859 20.1582 21.9732 20.3217 22.1287C20.4853 22.2841 20.5772 22.495 20.5772 22.7148C20.5772 22.9347 20.4853 23.1455 20.3217 23.301C20.1582 23.4565 19.9363 23.5438 19.705 23.5438ZM24.0662 23.5438H23.1939C22.9626 23.5438 22.7407 23.4565 22.5772 23.301C22.4136 23.1455 22.3217 22.9347 22.3217 22.7148C22.3217 22.495 22.4136 22.2841 22.5772 22.1287C22.7407 21.9732 22.9626 21.8859 23.1939 21.8859H24.0662C24.2975 21.8859 24.5194 21.9732 24.6829 22.1287C24.8465 22.2841 24.9384 22.495 24.9384 22.7148C24.9384 22.9347 24.8465 23.1455 24.6829 23.301C24.5194 23.4565 24.2975 23.5438 24.0662 23.5438ZM28.4274 23.5438H27.5551C27.3238 23.5438 27.1019 23.4565 26.9384 23.301C26.7748 23.1455 26.6829 22.9347 26.6829 22.7148C26.6829 22.495 26.7748 22.2841 26.9384 22.1287C27.1019 21.9732 27.3238 21.8859 27.5551 21.8859H28.4274C28.6587 21.8859 28.8806 21.9732 29.0441 22.1287C29.2077 22.2841 29.2996 22.495 29.2996 22.7148C29.2996 22.9347 29.2077 23.1455 29.0441 23.301C28.8806 23.4565 28.6587 23.5438 28.4274 23.5438Z" fill="#295474"/>
<path d="M8.36584 12.7676V10.2807H14.4715V8.62283H11.8548V4.47809H10.1103V8.62283H8.36584V4.47809H6.62136V8.62283H4.00464V10.2807H6.62136V12.7676H8.36584Z" fill="#E2B550"/>
</svg>
