<svg width="22" height="23" viewBox="0 0 22 23" fill="none" xmlns="http://www.w3.org/2000/svg">
<path fill-rule="evenodd" clip-rule="evenodd" d="M15.3939 1.52121L15.4604 1.53904C16.5598 1.83361 17.431 2.06704 18.1162 2.31458C18.8172 2.56779 19.3888 2.85744 19.8597 3.29847C20.5453 3.94068 21.0252 4.77179 21.2385 5.68671C21.385 6.31503 21.3501 6.95486 21.2189 7.68849C21.0906 8.40573 20.8572 9.27697 20.5626 10.3764L20.0271 12.3747C19.7326 13.474 19.4991 14.3452 19.2516 15.0305C18.9984 15.7314 18.7087 16.303 18.2677 16.7739C17.6459 17.4377 16.8471 17.9087 15.9665 18.1316C15.7093 18.7213 15.3336 19.2554 14.8597 19.6993C14.3888 20.1403 13.8172 20.4299 13.1162 20.6832C12.431 20.9307 11.5598 21.1641 10.4605 21.4587L10.394 21.4765C9.29461 21.7711 8.42337 22.0045 7.70613 22.1328C6.9725 22.264 6.33266 22.2989 5.70435 22.1524C4.78943 21.9391 3.95832 21.4592 3.31611 20.7736C2.87508 20.3027 2.58542 19.7311 2.33222 19.0302C2.08468 18.3449 1.85124 17.4737 1.55667 16.3743L1.02122 14.376C0.72664 13.2766 0.493195 12.4054 0.364945 11.6882C0.233759 10.9546 0.198811 10.3147 0.345313 9.68641C0.558642 8.77149 1.03849 7.94038 1.72417 7.29817C2.19505 6.85714 2.76664 6.56749 3.46758 6.31428C4.15283 6.06674 5.02404 5.8333 6.12341 5.53873L6.15665 5.52983C6.42112 5.45896 6.67134 5.39203 6.90825 5.32944C7.29986 3.93031 7.64448 2.94126 8.31611 2.22417C8.95831 1.53849 9.78943 1.05864 10.7043 0.845313C11.3327 0.698811 11.9725 0.733759 12.7061 0.864945C13.4233 0.993194 14.2945 1.22664 15.3939 1.52121ZM6.45502 7.0028C5.36214 7.29571 4.57905 7.50764 3.9772 7.72505C3.36778 7.9452 3.00995 8.14907 2.74955 8.39296C2.2804 8.83237 1.95209 9.40103 1.80613 10.027C1.72511 10.3745 1.72747 10.7863 1.84152 11.4242C1.95723 12.0712 2.17355 12.881 2.47902 14.021L2.99666 15.9529C3.30212 17.0929 3.51967 17.9023 3.74299 18.5205C3.96314 19.13 4.16701 19.4878 4.4109 19.7482C4.85031 20.2173 5.41897 20.5456 6.04496 20.6916C6.39242 20.7726 6.80425 20.7703 7.4421 20.6562C8.08915 20.5405 8.89893 20.3242 10.0389 20.0187C11.1789 19.7132 11.9884 19.4957 12.6066 19.2724C13.216 19.0522 13.5739 18.8484 13.8343 18.6045C13.9719 18.4756 14.0973 18.3357 14.2096 18.1865C14.0306 18.1612 13.8463 18.129 13.6557 18.0911C12.9839 17.9575 12.1769 17.7413 11.1808 17.4744L11.1234 17.459C10.024 17.1644 9.15283 16.931 8.46758 16.6835C7.76664 16.4302 7.19505 16.1406 6.72416 15.6996C6.03849 15.0574 5.55864 14.2262 5.34531 13.3113C5.19881 12.683 5.23376 12.0432 5.36494 11.3095C5.4932 10.5923 5.72664 9.72112 6.02122 8.62174L6.45502 7.0028ZM12.4421 2.34152C11.8042 2.22747 11.3924 2.22511 11.045 2.30613C10.419 2.45209 9.85031 2.7804 9.4109 3.24955C8.97479 3.71518 8.70642 4.43452 8.2397 6.14323C8.16384 6.42093 8.08365 6.72023 7.99665 7.04488L7.47902 8.97673C7.17355 10.1167 6.95723 10.9265 6.84152 11.5736C6.72747 12.2114 6.72511 12.6232 6.80613 12.9707C6.95209 13.5967 7.2804 14.1654 7.74955 14.6048C8.00995 14.8487 8.36778 15.0525 8.9772 15.2727C9.59542 15.496 10.4049 15.7136 11.5449 16.019C12.5703 16.2938 13.3303 16.497 13.9482 16.6199C14.5635 16.7422 14.981 16.7723 15.3232 16.73C15.3976 16.7209 15.4691 16.7082 15.5389 16.6919C16.1649 16.5459 16.7335 16.2176 17.1729 15.7485C17.4168 15.4881 17.6207 15.1303 17.8408 14.5208C18.0642 13.9026 18.2817 13.0932 18.5872 11.9532L19.1048 10.0213C19.4103 8.88129 19.6266 8.07151 19.7423 7.42446C19.8564 6.78661 19.8587 6.37479 19.7777 6.02733C19.6317 5.40133 19.3034 4.83267 18.8343 4.39327C18.5739 4.14937 18.216 3.9455 17.6066 3.72535C16.9884 3.50203 16.1789 3.28448 15.0389 2.97902C13.8989 2.67355 13.0892 2.45723 12.4421 2.34152ZM10.0524 9.30588C10.1596 8.90578 10.5709 8.66834 10.971 8.77555L15.8006 10.0696C16.2007 10.1768 16.4381 10.5881 16.3309 10.9882C16.2237 11.3883 15.8125 11.6257 15.4124 11.5185L10.5827 10.2244C10.1826 10.1172 9.9452 9.70598 10.0524 9.30588ZM9.27555 12.2036C9.38275 11.8035 9.79401 11.566 10.1941 11.6733L13.0919 12.4497C13.492 12.5569 13.7294 12.9682 13.6222 13.3683C13.515 13.7684 13.1038 14.0058 12.7037 13.8986L9.80588 13.1221C9.40578 13.0149 9.16834 12.6037 9.27555 12.2036Z" fill="#6B7280"/>
</svg>
