<svg width="23" height="23" viewBox="0 0 23 23" fill="none" xmlns="http://www.w3.org/2000/svg">
<path fill-rule="evenodd" clip-rule="evenodd" d="M10.4463 0.750001H12.5537C13.6865 0.749976 14.6123 0.749957 15.3431 0.848219C16.1071 0.950929 16.7694 1.17321 17.2981 1.7019C17.8268 2.2306 18.0491 2.89294 18.1518 3.65689C18.2023 4.03259 18.2268 4.45979 18.2388 4.94015C19.297 5.11086 20.1642 5.44692 20.8588 6.14144C21.6071 6.8898 21.9392 7.83875 22.0969 9.01117C22.25 10.1504 22.25 11.606 22.25 13.4438V13.5566C22.25 15.3944 22.25 16.85 22.0969 17.9892C21.9392 19.1616 21.6071 20.1106 20.8588 20.859C20.1104 21.6073 19.1614 21.9394 17.989 22.0971C16.8498 22.2502 15.3942 22.2502 13.5564 22.2502H9.44359C7.60583 22.2502 6.15019 22.2502 5.01098 22.0971C3.83856 21.9394 2.88961 21.6073 2.14124 20.859C1.39288 20.1106 1.06076 19.1616 0.903135 17.9892C0.749972 16.85 0.749984 15.3944 0.75 13.5566V13.4438C0.749984 11.606 0.749972 10.1504 0.903135 9.01117C1.06076 7.83875 1.39288 6.8898 2.14124 6.14144C2.83576 5.44692 3.70302 5.11086 4.76124 4.94015C4.77316 4.45979 4.79771 4.03259 4.84822 3.65689C4.95093 2.89294 5.17321 2.2306 5.7019 1.7019C6.2306 1.17321 6.89293 0.950929 7.65689 0.848219C8.38775 0.749957 9.31348 0.749976 10.4463 0.750001ZM4.75 6.46613C4.01901 6.61288 3.55575 6.84825 3.2019 7.2021C2.77869 7.62531 2.52502 8.20495 2.38976 9.21104C2.25159 10.2387 2.25 11.5934 2.25 13.5002C2.25 15.407 2.25159 16.7617 2.38976 17.7893C2.52502 18.7954 2.77869 19.3751 3.2019 19.7983C3.62511 20.2215 4.20476 20.4752 5.21085 20.6104C6.23851 20.7486 7.59318 20.7502 9.5 20.7502H13.5C15.4068 20.7502 16.7615 20.7486 17.7892 20.6104C18.7952 20.4752 19.3749 20.2215 19.7981 19.7983C20.2213 19.3751 20.475 18.7954 20.6102 17.7893C20.7484 16.7617 20.75 15.407 20.75 13.5002C20.75 11.5934 20.7484 10.2387 20.6102 9.21104C20.475 8.20495 20.2213 7.62531 19.7981 7.2021C19.4443 6.84825 18.981 6.61288 18.25 6.46613V7.6265C18.25 7.67264 18.25 7.71822 18.2501 7.76327C18.2509 8.54932 18.2516 9.17194 17.9904 9.72968C17.7291 10.2874 17.2504 10.6855 16.646 11.1881C16.6114 11.2169 16.5763 11.246 16.5409 11.2756L15.7837 11.9066C14.8973 12.6452 14.1789 13.2439 13.5448 13.6517C12.8843 14.0765 12.2411 14.3449 11.5 14.3449C10.7589 14.3449 10.1157 14.0765 9.45518 13.6517C8.82112 13.2439 8.10272 12.6452 7.21637 11.9066L6.45912 11.2756C6.42368 11.246 6.38864 11.2169 6.35401 11.1881C5.7496 10.6855 5.27086 10.2874 5.00963 9.72968C4.7484 9.17194 4.74906 8.54932 4.7499 7.76326C4.74995 7.71822 4.75 7.67264 4.75 7.6265L4.75 6.46613ZM7.85676 2.33484C7.25914 2.41519 6.9661 2.55902 6.76256 2.76256C6.55902 2.9661 6.41519 3.25914 6.33484 3.85676C6.25159 4.47595 6.25 5.30029 6.25 6.5V7.6265C6.25 8.61781 6.26657 8.87686 6.36801 9.09345C6.46946 9.31003 6.65786 9.4886 7.4194 10.1232L8.13903 10.7229C9.07199 11.5004 9.71973 12.0384 10.2666 12.3901C10.7959 12.7306 11.1549 12.8449 11.5 12.8449C11.8451 12.8449 12.2041 12.7306 12.7334 12.3901C13.2803 12.0384 13.928 11.5004 14.861 10.7229L15.5806 10.1232C16.3421 9.4886 16.5305 9.31003 16.632 9.09345C16.7334 8.87686 16.75 8.61781 16.75 7.6265V6.5C16.75 5.30029 16.7484 4.47595 16.6652 3.85676C16.5848 3.25914 16.441 2.9661 16.2374 2.76256C16.0339 2.55902 15.7409 2.41519 15.1432 2.33484C14.5241 2.25159 13.6997 2.25 12.5 2.25H10.5C9.30029 2.25 8.47595 2.25159 7.85676 2.33484ZM8.75 5.5C8.75 5.08579 9.08579 4.75 9.5 4.75H13.5C13.9142 4.75 14.25 5.08579 14.25 5.5C14.25 5.91422 13.9142 6.25 13.5 6.25H9.5C9.08579 6.25 8.75 5.91422 8.75 5.5ZM9.75 8.5C9.75 8.08579 10.0858 7.75 10.5 7.75H12.5C12.9142 7.75 13.25 8.08579 13.25 8.5C13.25 8.91422 12.9142 9.25 12.5 9.25H10.5C10.0858 9.25 9.75 8.91422 9.75 8.5Z" fill="#6B7280"/>
</svg>
