<svg width="81" height="80" viewBox="0 0 81 80" fill="none" xmlns="http://www.w3.org/2000/svg">
<g clip-path="url(#clip0_175_5085)">
<path d="M38.127 2.42188V7.26562C38.127 8.56109 39.1883 9.60938 40.5 9.60938C41.8117 9.60938 42.873 8.56109 42.873 7.26562V2.42188C42.873 1.12641 41.8117 0.078125 40.5 0.078125C39.1883 0.078125 38.127 1.12641 38.127 2.42188ZM9.65039 40.0781C9.65039 38.7827 8.58901 37.7344 7.27734 37.7344H2.37305C1.06138 37.7344 0 38.7827 0 40.0781C0 41.3736 1.06138 42.4219 2.37305 42.4219H7.27734C8.58901 42.4219 9.65039 41.3736 9.65039 40.0781ZM78.627 37.7344H73.7227C72.411 37.7344 71.3496 38.7827 71.3496 40.0781C71.3496 41.3736 72.411 42.4219 73.7227 42.4219H78.627C79.9386 42.4219 81 41.3736 81 40.0781C81 38.7827 79.9386 37.7344 78.627 37.7344ZM10.5427 54.4542L6.43159 56.798C5.29601 57.4458 4.90667 58.8784 5.56258 60C6.22561 61.1306 7.68155 61.4989 8.80464 60.8583L12.9157 58.5145C14.0513 57.8667 14.4406 56.4341 13.7847 55.3125C13.1266 54.1909 11.6735 53.8064 10.5427 54.4542ZM70.4573 25.702L74.5684 23.3583C75.704 22.7105 76.0933 21.2778 75.4374 20.1562C74.7815 19.0347 73.324 18.648 72.1954 19.298L68.0843 21.6417C66.9487 22.2895 66.5594 23.7222 67.2153 24.8438C67.8783 25.9744 69.3343 26.3427 70.4573 25.702ZM57.4288 6.43016L55.0558 10.4905C54.3999 11.612 54.7892 13.0448 55.9248 13.6925C57.0493 14.3339 58.5046 13.9631 59.1669 12.8342L61.5399 8.77391C62.1958 7.65234 61.8065 6.21953 60.6709 5.57188C59.5353 4.92422 58.0846 5.30875 57.4288 6.43016ZM20.3291 5.57188C19.1935 6.21969 18.8042 7.65234 19.4601 8.77391L21.8331 12.8342C22.4962 13.9648 23.9521 14.3331 25.0752 13.6925C26.2108 13.0447 26.6001 11.612 25.9442 10.4905L23.5712 6.43016C22.913 5.30875 21.4553 4.92422 20.3291 5.57188ZM74.5686 56.798L70.4575 54.4542C69.3243 53.8064 67.8712 54.1909 67.2154 55.3125C66.5597 56.4341 66.9489 57.8669 68.0845 58.5145L72.1955 60.8583C73.32 61.4997 74.7753 61.1289 75.4376 60C76.0933 58.8784 75.704 57.4456 74.5686 56.798ZM12.9157 21.6417L8.80464 19.298C7.67143 18.648 6.21833 19.0347 5.56258 20.1562C4.90683 21.2778 5.29601 22.7106 6.43159 23.3583L10.5427 25.702C11.6664 26.3431 13.122 25.9736 13.7847 24.8438C14.4405 23.7222 14.0511 22.2894 12.9157 21.6417ZM40.5 19.0542C29.8395 19.0577 21.9385 26.1523 19.7937 34.8184C17.963 42.2113 20.0997 49.7575 25.5061 55.0058C27.1144 56.5664 28.1309 58.7594 28.4748 61.1719H52.5344C52.897 58.7647 53.9631 56.5216 55.6491 54.8547C59.6535 50.8905 61.8574 45.6422 61.8574 40.0781C61.8574 28.7339 52.7948 19.0511 40.5 19.0542ZM40.5 56.4844C39.1894 56.4844 38.127 55.435 38.127 54.1406C38.127 52.8459 39.1894 51.7969 40.5 51.7969C41.8106 51.7969 42.873 52.8459 42.873 54.1406C42.873 55.435 41.8106 56.4844 40.5 56.4844ZM43.1303 44.2689L42.873 44.7656C42.873 46.0611 41.8117 47.1094 40.5 47.1094C39.1883 47.1094 38.127 46.0611 38.127 44.7656C38.127 42.5478 39.4016 40.6892 41.376 39.9133C42.2867 39.5563 42.873 38.7002 42.873 37.7344C42.873 36.4412 41.8093 35.3906 40.5 35.3906C39.1907 35.3906 38.127 36.4412 38.127 37.7344C38.127 39.0298 37.0656 40.0781 35.7539 40.0781C34.4422 40.0781 33.3809 39.0298 33.3809 37.7344C33.3809 33.8572 36.5743 30.7031 40.5 30.7031C44.4257 30.7031 47.6191 33.8572 47.6191 37.7344C47.6191 40.632 45.8579 43.1978 43.1303 44.2689ZM28.6348 67.5233C28.6348 74.4767 33.8466 79.9219 40.5 79.9219C47.0422 79.9219 52.3652 74.6645 52.3652 68.2031V65.8594H28.6348V67.5233Z" fill="#14467B"/>
</g>
<defs>
<clipPath id="clip0_175_5085">
<rect width="81" height="80" fill="white"/>
</clipPath>
</defs>
</svg>
