<svg width="80" height="80" viewBox="0 0 80 80" fill="none" xmlns="http://www.w3.org/2000/svg">
<path d="M40 70C32.0435 70 24.4129 66.8393 18.7868 61.2132C13.1607 55.5871 10 47.9565 10 40C10 32.0435 13.1607 24.4129 18.7868 18.7868C24.4129 13.1607 32.0435 10 40 10C47.9565 10 55.5871 13.1607 61.2132 18.7868C66.8393 24.4129 70 32.0435 70 40C70 47.9565 66.8393 55.5871 61.2132 61.2132C55.5871 66.8393 47.9565 70 40 70ZM40 64C46.3652 64 52.4697 61.4714 56.9706 56.9706C61.4714 52.4697 64 46.3652 64 40C64 33.6348 61.4714 27.5303 56.9706 23.0294C52.4697 18.5286 46.3652 16 40 16C33.6348 16 27.5303 18.5286 23.0294 23.0294C18.5286 27.5303 16 33.6348 16 40C16 46.3652 18.5286 52.4697 23.0294 56.9706C27.5303 61.4714 33.6348 64 40 64ZM37 41.23V22H43V38.77L54.85 50.62L50.62 54.85L37 41.23Z" fill="black"/>
</svg>
