<svg width="80" height="80" viewBox="0 0 80 80" fill="none" xmlns="http://www.w3.org/2000/svg">
<path d="M10 10H70M10 70H70M18.3333 70V54.3478L27.8533 49.8765C30.0328 48.8533 31.8365 47.4058 33.0888 45.675C34.3411 43.9442 34.9993 41.989 34.9993 40C34.9993 38.011 34.3411 36.0558 33.0888 34.325C31.8365 32.5942 30.0328 31.1467 27.8533 30.1235L18.3333 25.6522V10M61.6667 10V25.6522L52.1467 30.1235C49.968 31.1472 48.1651 32.5949 46.9134 34.3256C45.6617 36.0564 45.0039 38.0113 45.0039 40C45.0039 41.9887 45.6617 43.9436 46.9134 45.6744C48.1651 47.4051 49.968 48.8528 52.1467 49.8765L61.6667 54.3478V70" stroke="black" stroke-width="6"/>
</svg>
