<svg width="61" height="62" viewBox="0 0 61 62" fill="none" xmlns="http://www.w3.org/2000/svg">
<path d="M38 32.6667L47.7931 38.47C47.9343 38.5535 48.0983 38.6015 48.2677 38.6087C48.4371 38.6159 48.6055 38.5821 48.755 38.5109C48.9045 38.4398 49.0295 38.3339 49.1167 38.2046C49.2038 38.0753 49.2499 37.9274 49.25 37.7767V24.1167C49.25 23.9701 49.2066 23.826 49.124 23.6991C49.0413 23.5722 48.9225 23.4669 48.7795 23.3939C48.6365 23.3208 48.4743 23.2826 48.3093 23.2831C48.1444 23.2836 47.9825 23.3228 47.84 23.3967L38 28.5" stroke="black" stroke-width="4" stroke-linecap="round" stroke-linejoin="round"/>
<path d="M34.25 21H15.5C13.4289 21 11.75 22.4924 11.75 24.3333V37.6667C11.75 39.5076 13.4289 41 15.5 41H34.25C36.3211 41 38 39.5076 38 37.6667V24.3333C38 22.4924 36.3211 21 34.25 21Z" stroke="black" stroke-width="4" stroke-linecap="round" stroke-linejoin="round"/>
</svg>
