<svg width="100" height="16" viewBox="0 0 100 16" fill="none" xmlns="http://www.w3.org/2000/svg">
<path d="M4.40341 15L0.426136 0.454545H2.21591L5.25568 12.3011H5.39773L8.49432 0.454545H10.483L13.5795 12.3011H13.7216L16.7614 0.454545H18.5511L14.5739 15H12.7557L9.54545 3.40909H9.43182L6.22159 15H4.40341ZM20.7457 15V0.454545H29.5241V2.01705H22.5071V6.93182H29.0696V8.49432H22.5071V13.4375H29.6378V15H20.7457ZM32.6989 15V0.454545H34.4602V13.4375H41.2216V15H32.6989ZM55.087 5H53.3256C53.2215 4.49337 53.0392 4.0483 52.7788 3.66477C52.5231 3.28125 52.2106 2.95928 51.8413 2.69886C51.4767 2.43371 51.0719 2.23485 50.6268 2.10227C50.1817 1.9697 49.7177 1.90341 49.2347 1.90341C48.354 1.90341 47.5562 2.12595 46.8413 2.57102C46.131 3.0161 45.5652 3.67188 45.1438 4.53835C44.7272 5.40483 44.5188 6.4678 44.5188 7.72727C44.5188 8.98674 44.7272 10.0497 45.1438 10.9162C45.5652 11.7827 46.131 12.4384 46.8413 12.8835C47.5562 13.3286 48.354 13.5511 49.2347 13.5511C49.7177 13.5511 50.1817 13.4848 50.6268 13.3523C51.0719 13.2197 51.4767 13.0232 51.8413 12.7628C52.2106 12.4976 52.5231 12.1733 52.7788 11.7898C53.0392 11.4015 53.2215 10.9564 53.3256 10.4545H55.087C54.9544 11.1979 54.713 11.8632 54.3626 12.4503C54.0122 13.0374 53.5766 13.5369 53.0558 13.9489C52.5349 14.3561 51.9502 14.6662 51.3015 14.8793C50.6576 15.0923 49.9686 15.1989 49.2347 15.1989C47.9942 15.1989 46.891 14.8958 45.9251 14.2898C44.9592 13.6837 44.1992 12.822 43.6452 11.7045C43.0913 10.5871 42.8143 9.26136 42.8143 7.72727C42.8143 6.19318 43.0913 4.86742 43.6452 3.75C44.1992 2.63258 44.9592 1.77083 45.9251 1.16477C46.891 0.558712 47.9942 0.255681 49.2347 0.255681C49.9686 0.255681 50.6576 0.362215 51.3015 0.575284C51.9502 0.788352 52.5349 1.10085 53.0558 1.51278C53.5766 1.91998 54.0122 2.41714 54.3626 3.00426C54.713 3.58665 54.9544 4.25189 55.087 5ZM70.206 7.72727C70.206 9.26136 69.929 10.5871 69.375 11.7045C68.821 12.822 68.0611 13.6837 67.0952 14.2898C66.1293 14.8958 65.026 15.1989 63.7855 15.1989C62.545 15.1989 61.4418 14.8958 60.4759 14.2898C59.5099 13.6837 58.75 12.822 58.196 11.7045C57.642 10.5871 57.3651 9.26136 57.3651 7.72727C57.3651 6.19318 57.642 4.86742 58.196 3.75C58.75 2.63258 59.5099 1.77083 60.4759 1.16477C61.4418 0.558712 62.545 0.255681 63.7855 0.255681C65.026 0.255681 66.1293 0.558712 67.0952 1.16477C68.0611 1.77083 68.821 2.63258 69.375 3.75C69.929 4.86742 70.206 6.19318 70.206 7.72727ZM68.5014 7.72727C68.5014 6.4678 68.2907 5.40483 67.8693 4.53835C67.4527 3.67188 66.8868 3.0161 66.1719 2.57102C65.4616 2.12595 64.6662 1.90341 63.7855 1.90341C62.9048 1.90341 62.107 2.12595 61.392 2.57102C60.6818 3.0161 60.116 3.67188 59.6946 4.53835C59.2779 5.40483 59.0696 6.4678 59.0696 7.72727C59.0696 8.98674 59.2779 10.0497 59.6946 10.9162C60.116 11.7827 60.6818 12.4384 61.392 12.8835C62.107 13.3286 62.9048 13.5511 63.7855 13.5511C64.6662 13.5511 65.4616 13.3286 66.1719 12.8835C66.8868 12.4384 67.4527 11.7827 67.8693 10.9162C68.2907 10.0497 68.5014 8.98674 68.5014 7.72727ZM73.1676 0.454545H75.2699L80.2131 12.5284H80.3835L85.3267 0.454545H87.429V15H85.7812V3.94886H85.6392L81.0938 15H79.5028L74.9574 3.94886H74.8153V15H73.1676V0.454545ZM90.9606 15V0.454545H99.739V2.01705H92.7219V6.93182H99.2844V8.49432H92.7219V13.4375H99.8526V15H90.9606Z" fill="url(#paint0_linear_175_4872)"/>
<defs>
<linearGradient id="paint0_linear_175_4872" x1="0" y1="8" x2="102" y2="8" gradientUnits="userSpaceOnUse">
<stop stop-color="#F5F2F2"/>
<stop offset="0.43135" stop-color="#0097AB"/>
<stop offset="1" stop-color="#BDE5F9"/>
</linearGradient>
</defs>
</svg>
