<svg width="56" height="56" viewBox="0 0 56 56" fill="none" xmlns="http://www.w3.org/2000/svg">
<g clip-path="url(#clip0_733_975)">
<path d="M34.0664 49.7C33.3664 50.2274 32.622 50.7827 31.9897 51.3334H37.333C37.9519 51.3334 38.5454 51.5792 38.983 52.0168C39.4205 52.4544 39.6664 53.0479 39.6664 53.6667C39.6664 54.2855 39.4205 54.879 38.983 55.3166C38.5454 55.7542 37.9519 56 37.333 56H27.9997C27.3809 56 26.7874 55.7542 26.3498 55.3166C25.9122 54.879 25.6664 54.2855 25.6664 53.6667C25.6664 50.1667 28.6414 47.936 31.2664 45.9667C33.0164 44.6554 34.9997 43.1667 34.9997 42C34.9997 41.3812 34.7539 40.7877 34.3163 40.3501C33.8787 39.9125 33.2852 39.6667 32.6664 39.6667C32.0475 39.6667 31.454 39.9125 31.0165 40.3501C30.5789 40.7877 30.333 41.3812 30.333 42C30.333 42.6189 30.0872 43.2124 29.6496 43.65C29.212 44.0875 28.6185 44.3334 27.9997 44.3334C27.3809 44.3334 26.7874 44.0875 26.3498 43.65C25.9122 43.2124 25.6664 42.6189 25.6664 42C25.6664 40.1435 26.4039 38.363 27.7166 37.0503C29.0294 35.7375 30.8099 35 32.6664 35C34.5229 35 36.3034 35.7375 37.6161 37.0503C38.9289 38.363 39.6664 40.1435 39.6664 42C39.6664 45.5 36.6914 47.7307 34.0664 49.7ZM53.6664 35C53.0475 35 52.454 35.2459 52.0165 35.6834C51.5789 36.121 51.333 36.7145 51.333 37.3334V44.3334H48.9997C48.3809 44.3334 47.7874 44.0875 47.3498 43.65C46.9122 43.2124 46.6664 42.6189 46.6664 42V37.3334C46.6664 36.7145 46.4205 36.121 45.983 35.6834C45.5454 35.2459 44.9519 35 44.333 35C43.7142 35 43.1207 35.2459 42.6831 35.6834C42.2455 36.121 41.9997 36.7145 41.9997 37.3334V42C41.9997 43.8565 42.7372 45.637 44.05 46.9498C45.3627 48.2625 47.1432 49 48.9997 49H51.333V53.6667C51.333 54.2855 51.5789 54.879 52.0165 55.3166C52.454 55.7542 53.0475 56 53.6664 56C54.2852 56 54.8787 55.7542 55.3163 55.3166C55.7539 54.879 55.9997 54.2855 55.9997 53.6667V37.3334C55.9997 36.7145 55.7539 36.121 55.3163 35.6834C54.8787 35.2459 54.2852 35 53.6664 35ZM30.333 28V16.3334C30.333 15.7145 30.0872 15.121 29.6496 14.6834C29.212 14.2459 28.6185 14 27.9997 14C27.3809 14 26.7874 14.2459 26.3498 14.6834C25.9122 15.121 25.6664 15.7145 25.6664 16.3334V25.6667H18.6664C18.0475 25.6667 17.454 25.9125 17.0165 26.3501C16.5789 26.7877 16.333 27.3812 16.333 28C16.333 28.6189 16.5789 29.2124 17.0165 29.6499C17.454 30.0875 18.0475 30.3334 18.6664 30.3334H27.9997C28.6185 30.3334 29.212 30.0875 29.6496 29.6499C30.0872 29.2124 30.333 28.6189 30.333 28ZM53.6664 4.6667C53.0475 4.6667 52.454 4.91253 52.0165 5.35012C51.5789 5.7877 51.333 6.38119 51.333 7.00003V12.5394C48.9019 8.87037 45.64 5.82618 41.8121 3.65381C37.9842 1.48143 33.698 0.242056 29.3015 0.0362463C24.9049 -0.169563 20.5218 0.663989 16.5076 2.46927C12.4935 4.27455 8.96154 7.0007 6.19824 10.4265C3.43495 13.8524 1.5182 17.8814 0.603506 22.1867C-0.311186 26.492 -0.198051 30.9522 0.933731 35.2056C2.06551 39.459 4.18406 43.3856 7.11748 46.667C10.0509 49.9483 13.7166 52.4919 17.817 54.0914C18.088 54.1959 18.3759 54.2497 18.6664 54.25C19.2109 54.2509 19.7385 54.0613 20.1579 53.714C20.5774 53.3668 20.8622 52.8838 20.963 52.3487C21.0638 51.8136 20.9743 51.2601 20.71 50.7841C20.4457 50.308 20.0232 49.9394 19.5157 49.742C16.0344 48.3959 12.9269 46.2342 10.4539 43.4386C7.98098 40.6429 6.21479 37.2947 5.30362 33.6752C4.39245 30.0556 4.3629 26.2703 5.21744 22.637C6.07198 19.0036 7.78568 15.6283 10.2147 12.7943C12.6437 9.96037 15.7171 7.75047 19.1769 6.35014C22.6368 4.9498 26.382 4.39991 30.0984 4.7466C33.8147 5.0933 37.3937 6.32648 40.5348 8.34262C43.6759 10.3588 46.2875 13.099 48.1504 16.3334H41.9997C41.3809 16.3334 40.7874 16.5792 40.3498 17.0168C39.9122 17.4544 39.6664 18.0479 39.6664 18.6667C39.6664 19.2855 39.9122 19.879 40.3498 20.3166C40.7874 20.7542 41.3809 21 41.9997 21H48.9997C50.8562 21 52.6367 20.2625 53.9495 18.9498C55.2622 17.637 55.9997 15.8565 55.9997 14V7.00003C55.9997 6.38119 55.7539 5.7877 55.3163 5.35012C54.8787 4.91253 54.2852 4.6667 53.6664 4.6667Z" fill="#3AB6BB"/>
</g>
<defs>
<clipPath id="clip0_733_975">
<rect width="56" height="56" fill="white"/>
</clipPath>
</defs>
</svg>
