<svg width="23" height="24" viewBox="0 0 23 24" fill="none" xmlns="http://www.w3.org/2000/svg">
<path fill-rule="evenodd" clip-rule="evenodd" d="M12.0269 0.697926C14.8129 0.834849 17.409 1.98372 19.3918 3.96786C21.5068 6.08419 22.6709 8.89736 22.6698 11.889C22.6673 18.0626 17.6414 23.0858 11.4675 23.0858C9.14575 23.0858 7.30077 22.3724 6.10947 21.7229L0.170898 23.2799L1.7602 17.4778C0.779867 15.7798 0.264021 13.8536 0.264829 11.8802C0.267308 5.70671 5.2927 0.684082 11.4673 0.684082L12.0269 0.697926ZM6.38459 19.6959L6.72464 19.8976C8.1542 20.7455 9.79287 21.1941 11.4637 21.1948H11.4674C16.5994 21.1948 20.7763 17.0199 20.7783 11.8884C20.7793 9.40175 19.8117 7.06355 18.0538 5.30451C16.2958 3.54535 13.9581 2.57601 11.4711 2.5752C6.33522 2.5752 2.15829 6.74968 2.15624 11.8808C2.15554 13.6393 2.64778 15.3519 3.57983 16.8335L3.80121 17.1857L2.8606 20.6198L6.38459 19.6959ZM17.1111 14.5516C17.0412 14.4348 16.8546 14.3649 16.5747 14.2248C16.2948 14.0848 14.9186 13.408 14.662 13.3145C14.4055 13.2213 14.2188 13.1746 14.0323 13.4546C13.8457 13.7346 13.3093 14.3649 13.1459 14.5516C12.9827 14.7383 12.8194 14.7617 12.5395 14.6216C12.2596 14.4816 11.3577 14.1861 10.2886 13.233C9.45643 12.4911 8.89467 11.575 8.73138 11.2949C8.56814 11.0149 8.71397 10.8634 8.85409 10.724C8.98003 10.5986 9.13405 10.3972 9.274 10.2338C9.41396 10.0705 9.46058 9.95369 9.55392 9.76705C9.6472 9.58031 9.60053 9.41699 9.53058 9.27694C9.46058 9.13684 8.90081 7.75975 8.66757 7.19956C8.44031 6.65407 8.20955 6.72792 8.03774 6.71931C7.87467 6.71123 7.68788 6.70945 7.50131 6.70945C7.31469 6.70945 7.01144 6.77942 6.75487 7.05957C6.49829 7.33961 5.77519 8.01652 5.77519 9.39351C5.77519 10.7707 6.77821 12.1009 6.91816 12.2876C7.05812 12.4744 8.89192 15.3002 11.6998 16.5121C12.3676 16.8004 12.889 16.9725 13.2955 17.1014C13.9661 17.3144 14.5762 17.2844 15.0586 17.2123C15.5963 17.132 16.7146 16.5355 16.9479 15.882C17.1811 15.2284 17.1811 14.6683 17.1111 14.5516Z" fill="#2677BC"/>
</svg>
