<svg width="42" height="56" viewBox="0 0 42 56" fill="none" xmlns="http://www.w3.org/2000/svg">
<path d="M30.3333 4.66667H29.9343C28.9707 1.95067 26.376 0 23.3333 0H18.6667C15.624 0 13.0293 1.95067 12.0657 4.66667H11.6667C5.23367 4.66667 0 9.90033 0 16.3333V44.3333C0 50.7663 5.23367 56 11.6667 56H30.3333C36.7663 56 42 50.7663 42 44.3333V16.3333C42 9.90033 36.7663 4.66667 30.3333 4.66667ZM37.3333 44.3333C37.3333 48.1927 34.1927 51.3333 30.3333 51.3333H11.6667C7.80733 51.3333 4.66667 48.1927 4.66667 44.3333V16.3333C4.66667 12.474 7.80733 9.33333 11.6667 9.33333H14C15.288 9.33333 16.3333 8.288 16.3333 7C16.3333 5.712 17.381 4.66667 18.6667 4.66667H23.3333C24.619 4.66667 25.6667 5.71433 25.6667 7C25.6667 8.28567 26.712 9.33333 28 9.33333H30.3333C34.1927 9.33333 37.3333 12.474 37.3333 16.3333V44.3333ZM31.689 30.7673C30.6413 30.0207 29.1807 30.261 28.434 31.311L26.166 34.4843L22.4187 29.2367C24.3693 27.993 25.6667 25.8113 25.6667 23.331C25.6667 19.4717 22.526 16.331 18.6667 16.331H16.3333C12.474 16.331 9.33333 19.4717 9.33333 23.331V34.9977C9.33333 36.2857 10.3787 37.331 11.6667 37.331C12.9547 37.331 14 36.2857 14 34.9977V30.331H17.465L23.2983 38.4977L20.0993 42.9753C19.3503 44.023 19.593 45.4813 20.643 46.2303C21.0537 46.522 21.5273 46.6643 21.9963 46.6643C22.7243 46.6643 23.443 46.3237 23.898 45.6867L26.166 42.5133L28.434 45.6867C28.889 46.3237 29.6077 46.6643 30.3357 46.6643C30.8047 46.6643 31.2783 46.522 31.689 46.2303C32.739 45.4813 32.9817 44.023 32.2327 42.9753L29.0337 38.4977L32.2327 34.02C32.9817 32.9723 32.739 31.5163 31.689 30.7673ZM14 23.3333C14 22.0477 15.0477 21 16.3333 21H18.6667C19.9523 21 21 22.0477 21 23.3333C21 24.619 19.9523 25.6667 18.6667 25.6667H14V23.3333Z" fill="#3AB6BB"/>
</svg>
